<?xml version="1.0" encoding="utf-8"?>
<!-- Generator: Adobe Illustrator 27.4.0, SVG Export Plug-In . SVG Version: 6.00 Build 0)  -->
<svg version="1.1" id="Layer_1" xmlns="http://www.w3.org/2000/svg" xmlns:xlink="http://www.w3.org/1999/xlink" x="0px" y="0px"
	 viewBox="0 0 138 56" style="enable-background:new 0 0 138 56;" xml:space="preserve">
<style type="text/css">
	.st0{fill:#898F94;}
	.st1{fill:url(#SVGID_1_);}
	.st2{fill:url(#SVGID_00000143579931198239986880000000061068631940076936_);}
	.st3{fill:url(#SVGID_00000070113222507917306530000000789876968611700894_);}
	.st4{fill:url(#SVGID_00000145017804230005630740000005868944542341024654_);}
	.st5{fill:url(#SVGID_00000120535640411905141760000010581740559175264396_);}
	.st6{fill:#00AAEA;}
	.st7{fill:#0074C0;}
	.st8{fill:#00449A;}
	.st9{fill:url(#SVGID_00000086665307856296131540000015261701741877630341_);}
</style>
<g>
	<g>
		<path class="st0" d="M1.78,53.29l-0.84,0.87v1.36h-0.99V50.2h0.99v2.73l2.63-2.73h1.11l-2.24,2.38l2.37,2.94H3.66L1.78,53.29z"/>
		<path class="st0" d="M6.71,55.25c-0.44-0.24-0.78-0.56-1.03-0.98c-0.25-0.42-0.37-0.89-0.37-1.4s0.12-0.98,0.37-1.4
			c0.25-0.42,0.59-0.75,1.03-0.98c0.44-0.24,0.93-0.35,1.47-0.35c0.54,0,1.03,0.12,1.47,0.35c0.44,0.24,0.78,0.56,1.03,0.98
			c0.25,0.42,0.37,0.88,0.37,1.41c0,0.52-0.12,0.99-0.37,1.41c-0.25,0.42-0.59,0.74-1.03,0.98C9.2,55.48,8.72,55.6,8.17,55.6
			C7.63,55.6,7.14,55.48,6.71,55.25z M9.13,54.49c0.28-0.16,0.51-0.38,0.67-0.67c0.16-0.29,0.24-0.61,0.24-0.96
			c0-0.35-0.08-0.68-0.24-0.96c-0.16-0.29-0.39-0.51-0.67-0.67c-0.28-0.16-0.6-0.24-0.96-0.24s-0.67,0.08-0.96,0.24
			c-0.28,0.16-0.51,0.38-0.67,0.67c-0.16,0.29-0.24,0.61-0.24,0.96c0,0.35,0.08,0.68,0.24,0.96c0.16,0.29,0.39,0.51,0.67,0.67
			c0.28,0.16,0.6,0.24,0.96,0.24S8.85,54.65,9.13,54.49z"/>
		<path class="st0" d="M15.95,55.52l-1.09-1.56c-0.05,0.01-0.11,0.01-0.21,0.01h-1.2v1.55h-0.99V50.2h2.19
			c0.46,0,0.86,0.08,1.21,0.23c0.34,0.15,0.6,0.37,0.79,0.65c0.18,0.28,0.27,0.62,0.27,1.01c0,0.4-0.1,0.75-0.29,1.03
			c-0.2,0.29-0.48,0.5-0.84,0.65l1.22,1.75H15.95z M15.6,51.31c-0.22-0.18-0.55-0.27-0.98-0.27h-1.16v2.12h1.16
			c0.43,0,0.76-0.09,0.98-0.28c0.22-0.19,0.33-0.45,0.33-0.79C15.93,51.75,15.82,51.49,15.6,51.31z"/>
		<path class="st0" d="M22.4,54.69v0.83h-3.99V50.2h3.89v0.83h-2.9v1.38h2.57v0.81H19.4v1.47H22.4z"/>
		<path class="st0" d="M27.34,54.29h-2.66l-0.52,1.23h-1.02l2.4-5.32h0.97l2.4,5.32h-1.03L27.34,54.29z M27.01,53.51l-1-2.33
			l-1,2.33H27.01z"/>
		<path class="st0" d="M36.08,52.8h0.94v2.12c-0.27,0.22-0.59,0.39-0.96,0.5c-0.37,0.12-0.74,0.17-1.13,0.17
			c-0.54,0-1.03-0.12-1.47-0.35c-0.44-0.24-0.78-0.56-1.03-0.98c-0.25-0.42-0.37-0.88-0.37-1.41c0-0.52,0.12-0.99,0.37-1.41
			c0.25-0.42,0.59-0.74,1.03-0.98c0.44-0.24,0.93-0.35,1.48-0.35c0.45,0,0.85,0.07,1.22,0.22c0.37,0.15,0.67,0.36,0.92,0.65
			l-0.62,0.61c-0.41-0.41-0.89-0.61-1.47-0.61c-0.38,0-0.71,0.08-1,0.24c-0.29,0.16-0.52,0.38-0.68,0.66
			c-0.16,0.28-0.25,0.61-0.25,0.97c0,0.35,0.08,0.67,0.25,0.96c0.16,0.28,0.39,0.51,0.68,0.67c0.29,0.16,0.62,0.24,0.99,0.24
			c0.42,0,0.78-0.09,1.1-0.27V52.8z"/>
		<path class="st0" d="M42.69,54.69v0.83h-3.99V50.2h3.89v0.83h-2.9v1.38h2.57v0.81h-2.57v1.47H42.69z"/>
		<path class="st0" d="M48.9,50.2v5.32h-0.81l-2.94-3.6v3.6h-0.98V50.2h0.81l2.94,3.6v-3.6H48.9z"/>
		<path class="st0" d="M51.73,55.25c-0.44-0.24-0.78-0.56-1.03-0.98c-0.25-0.42-0.37-0.89-0.37-1.4s0.12-0.98,0.37-1.4
			c0.25-0.42,0.59-0.75,1.03-0.98c0.44-0.24,0.93-0.35,1.47-0.35c0.54,0,1.03,0.12,1.47,0.35c0.44,0.24,0.78,0.56,1.03,0.98
			c0.25,0.42,0.37,0.88,0.37,1.41c0,0.52-0.12,0.99-0.37,1.41c-0.25,0.42-0.59,0.74-1.03,0.98c-0.44,0.24-0.93,0.35-1.47,0.35
			C52.65,55.6,52.16,55.48,51.73,55.25z M54.15,54.49c0.28-0.16,0.51-0.38,0.67-0.67c0.16-0.29,0.24-0.61,0.24-0.96
			c0-0.35-0.08-0.68-0.24-0.96c-0.16-0.29-0.39-0.51-0.67-0.67c-0.28-0.16-0.6-0.24-0.96-0.24s-0.67,0.08-0.96,0.24
			c-0.28,0.16-0.51,0.38-0.67,0.67c-0.16,0.29-0.24,0.61-0.24,0.96c0,0.35,0.08,0.68,0.24,0.96c0.16,0.29,0.39,0.51,0.67,0.67
			c0.28,0.16,0.6,0.24,0.96,0.24S53.87,54.65,54.15,54.49z"/>
		<path class="st0" d="M62.38,55.52l-0.01-3.53l-1.75,2.92h-0.44l-1.75-2.87v3.48h-0.94V50.2h0.81l2.11,3.53l2.08-3.53h0.81
			l0.01,5.32H62.38z"/>
		<path class="st0" d="M69.13,54.69v0.83h-3.99V50.2h3.89v0.83h-2.9v1.38h2.57v0.81h-2.57v1.47H69.13z"/>
		<path class="st0" d="M74.11,55.25c-0.44-0.24-0.78-0.56-1.03-0.98c-0.25-0.42-0.37-0.89-0.37-1.4s0.12-0.98,0.37-1.4
			c0.25-0.42,0.59-0.75,1.03-0.98c0.44-0.24,0.93-0.35,1.47-0.35c0.54,0,1.03,0.12,1.47,0.35c0.44,0.24,0.78,0.56,1.03,0.98
			c0.25,0.42,0.37,0.88,0.37,1.41c0,0.52-0.12,0.99-0.37,1.41c-0.25,0.42-0.59,0.74-1.03,0.98c-0.44,0.24-0.93,0.35-1.47,0.35
			C75.03,55.6,74.55,55.48,74.11,55.25z M76.54,54.49c0.28-0.16,0.51-0.38,0.67-0.67c0.16-0.29,0.24-0.61,0.24-0.96
			c0-0.35-0.08-0.68-0.24-0.96c-0.16-0.29-0.39-0.51-0.67-0.67c-0.28-0.16-0.6-0.24-0.96-0.24c-0.35,0-0.67,0.08-0.96,0.24
			c-0.28,0.16-0.51,0.38-0.67,0.67c-0.16,0.29-0.24,0.61-0.24,0.96c0,0.35,0.08,0.68,0.24,0.96c0.16,0.29,0.39,0.51,0.67,0.67
			c0.28,0.16,0.6,0.24,0.96,0.24C75.93,54.73,76.25,54.65,76.54,54.49z"/>
		<path class="st0" d="M83.36,55.52l-1.09-1.56c-0.05,0.01-0.11,0.01-0.21,0.01h-1.2v1.55h-0.99V50.2h2.19
			c0.46,0,0.86,0.08,1.21,0.23c0.34,0.15,0.6,0.37,0.79,0.65c0.18,0.28,0.27,0.62,0.27,1.01c0,0.4-0.1,0.75-0.29,1.03
			c-0.2,0.29-0.48,0.5-0.84,0.65l1.22,1.75H83.36z M83,51.31c-0.22-0.18-0.55-0.27-0.98-0.27h-1.16v2.12h1.16
			c0.43,0,0.76-0.09,0.98-0.28c0.22-0.19,0.33-0.45,0.33-0.79C83.33,51.75,83.22,51.49,83,51.31z"/>
		<path class="st0" d="M89.45,52.8h0.94v2.12c-0.27,0.22-0.59,0.39-0.96,0.5s-0.74,0.17-1.13,0.17c-0.54,0-1.03-0.12-1.47-0.35
			c-0.44-0.24-0.78-0.56-1.03-0.98c-0.25-0.42-0.37-0.88-0.37-1.41c0-0.52,0.12-0.99,0.37-1.41c0.25-0.42,0.59-0.74,1.03-0.98
			c0.44-0.24,0.93-0.35,1.48-0.35c0.45,0,0.85,0.07,1.22,0.22c0.37,0.15,0.67,0.36,0.92,0.65l-0.62,0.61
			c-0.41-0.41-0.89-0.61-1.47-0.61c-0.38,0-0.71,0.08-1,0.24c-0.29,0.16-0.52,0.38-0.68,0.66c-0.16,0.28-0.25,0.61-0.25,0.97
			c0,0.35,0.08,0.67,0.25,0.96c0.16,0.28,0.39,0.51,0.68,0.67c0.29,0.16,0.62,0.24,0.99,0.24c0.42,0,0.78-0.09,1.1-0.27V52.8z"/>
		<path class="st0" d="M95.52,54.29h-2.66l-0.52,1.23h-1.02l2.4-5.32h0.97l2.4,5.32h-1.03L95.52,54.29z M95.19,53.51l-1-2.33
			l-1,2.33H95.19z"/>
		<path class="st0" d="M102.87,50.2v5.32h-0.81l-2.94-3.6v3.6h-0.98V50.2h0.81l2.94,3.6v-3.6H102.87z"/>
		<path class="st0" d="M104.68,50.2h0.99v5.32h-0.99V50.2z"/>
		<path class="st0" d="M111.63,54.69v0.84h-4.54v-0.66l3.13-3.83h-3.08V50.2h4.39v0.66l-3.13,3.83H111.63z"/>
		<path class="st0" d="M116.36,54.29h-2.66l-0.52,1.23h-1.02l2.4-5.32h0.97l2.4,5.32h-1.03L116.36,54.29z M116.04,53.51l-1-2.33
			l-1,2.33H116.04z"/>
		<path class="st0" d="M119.8,51.04h-1.76V50.2h4.52v0.84h-1.76v4.49h-0.99V51.04z"/>
		<path class="st0" d="M123.68,50.2h0.99v5.32h-0.99V50.2z"/>
		<path class="st0" d="M127.5,55.25c-0.44-0.24-0.78-0.56-1.03-0.98c-0.25-0.42-0.37-0.89-0.37-1.4s0.12-0.98,0.37-1.4
			c0.25-0.42,0.59-0.75,1.03-0.98c0.44-0.24,0.93-0.35,1.47-0.35c0.54,0,1.03,0.12,1.47,0.35c0.44,0.24,0.78,0.56,1.03,0.98
			c0.25,0.42,0.37,0.88,0.37,1.41c0,0.52-0.12,0.99-0.37,1.41c-0.25,0.42-0.59,0.74-1.03,0.98c-0.44,0.24-0.93,0.35-1.47,0.35
			C128.43,55.6,127.94,55.48,127.5,55.25z M129.93,54.49c0.28-0.16,0.51-0.38,0.67-0.67c0.16-0.29,0.24-0.61,0.24-0.96
			c0-0.35-0.08-0.68-0.24-0.96c-0.16-0.29-0.39-0.51-0.67-0.67c-0.28-0.16-0.6-0.24-0.96-0.24s-0.67,0.08-0.96,0.24
			c-0.28,0.16-0.51,0.38-0.67,0.67c-0.16,0.29-0.24,0.61-0.24,0.96c0,0.35,0.08,0.68,0.24,0.96c0.16,0.29,0.39,0.51,0.67,0.67
			c0.28,0.16,0.6,0.24,0.96,0.24S129.65,54.65,129.93,54.49z"/>
		<path class="st0" d="M138,50.2v5.32h-0.81l-2.94-3.6v3.6h-0.98V50.2h0.81l2.94,3.6v-3.6H138z"/>
	</g>
	<linearGradient id="SVGID_1_" gradientUnits="userSpaceOnUse" x1="121.0349" y1="36.6457" x2="121.0349" y2="15.8149">
		<stop  offset="0" style="stop-color:#009FE1"/>
		<stop  offset="1" style="stop-color:#002863"/>
	</linearGradient>
	<path class="st1" d="M121.03,13.66c2.66,0,5.16,1.01,7.03,2.85c1.84,1.81,2.85,4.2,2.85,6.74s-1.01,4.93-2.85,6.74
		c-1.87,1.84-4.37,2.85-7.03,2.85s-5.16-1.01-7.03-2.85c-1.84-1.81-2.85-4.2-2.85-6.74s1.01-4.93,2.85-6.74
		C115.87,14.67,118.37,13.66,121.03,13.66 M121.03,6.78c-9.26,0-16.77,7.38-16.77,16.47s7.51,16.47,16.77,16.47
		s16.77-7.38,16.77-16.47S130.3,6.78,121.03,6.78L121.03,6.78z"/>
	
		<linearGradient id="SVGID_00000124151585844730689330000003754367794693839266_" gradientUnits="userSpaceOnUse" x1="84.0907" y1="36.6457" x2="84.0907" y2="15.8149">
		<stop  offset="0" style="stop-color:#009FE1"/>
		<stop  offset="1" style="stop-color:#002863"/>
	</linearGradient>
	<path style="fill:url(#SVGID_00000124151585844730689330000003754367794693839266_);" d="M84.28,22.52v5.93h7.99
		c-1.78,2.64-4.44,4.39-7.96,4.39c-5.52,0-10.01-4.3-10.01-9.59s4.49-9.59,10.01-9.59c4.24,0,7.87,2.54,9.33,6.12l6.24-2.73
		c-2.5-6.03-8.53-10.27-15.57-10.27c-9.28,0-16.8,7.38-16.8,16.47s7.52,16.47,16.8,16.47s16.35-7.38,16.35-16.47v-0.73H84.28z"/>
	
		<linearGradient id="SVGID_00000098193068441073789740000006823924404597566376_" gradientUnits="userSpaceOnUse" x1="15.2248" y1="36.6457" x2="15.2248" y2="15.8149">
		<stop  offset="0" style="stop-color:#009FE1"/>
		<stop  offset="1" style="stop-color:#002863"/>
	</linearGradient>
	<polygon style="fill:url(#SVGID_00000098193068441073789740000006823924404597566376_);" points="30.49,38.78 14.35,21.73 
		28.3,7.72 19.01,7.73 6.71,20.03 6.71,7.72 -0.04,7.72 -0.04,38.78 6.71,38.78 6.71,29.4 9.65,26.46 21.19,38.79 	"/>
	
		<linearGradient id="SVGID_00000048480942279790666630000010273897382945533598_" gradientUnits="userSpaceOnUse" x1="46.3945" y1="37.0967" x2="46.3945" y2="17.3021">
		<stop  offset="0" style="stop-color:#009FE1"/>
		<stop  offset="1" style="stop-color:#002863"/>
	</linearGradient>
	<path style="fill:url(#SVGID_00000048480942279790666630000010273897382945533598_);" d="M58.97,12.36
		c-1.27,2.1-3.06,3.65-4.95,4.79c1.46,1.72,2.26,3.85,2.26,6.1c0,2.54-1.01,4.93-2.85,6.74c-1.87,1.84-4.37,2.85-7.03,2.85
		s-5.16-1.01-7.03-2.85c-1.84-1.81-2.85-4.2-2.85-6.74s1.01-4.93,2.85-6.74c1.27-1.25,2.83-2.1,4.53-2.53
		c0.13-1.03,0.31-2.23,0.58-3.64c0.26-1.35,0.69-2.52,1.25-3.55c-8.95,0.35-16.09,7.58-16.09,16.46c0,9.1,7.51,16.47,16.77,16.47
		s16.77-7.38,16.77-16.47C63.16,19.07,61.58,15.26,58.97,12.36z"/>
	
		<linearGradient id="SVGID_00000145026480013096213780000008810732416877906073_" gradientUnits="userSpaceOnUse" x1="55.2851" y1="11.0261" x2="42.92" y2="17.7707">
		<stop  offset="0" style="stop-color:#00B8EE"/>
		<stop  offset="1" style="stop-color:#0C318E"/>
	</linearGradient>
	<path style="fill:url(#SVGID_00000145026480013096213780000008810732416877906073_);" d="M37.27,26.98
		c-0.01-0.88,0.23-1.76,0.55-2.6c0.33-0.84,0.8-1.65,1.36-2.38c1.14-1.47,2.68-2.65,4.36-3.45c0.84-0.41,1.72-0.72,2.61-0.98
		c0.45-0.12,0.9-0.23,1.35-0.31l0.62-0.13l0.57-0.11c1.52-0.34,2.98-0.82,4.33-1.49c2.71-1.33,4.96-3.44,6.49-6.15
		c1.55-2.71,2.33-5.93,2.5-9.38c1.26,3.23,1.3,7.05,0.01,10.53c-0.65,1.73-1.62,3.38-2.9,4.78c-1.26,1.41-2.81,2.57-4.49,3.42
		c-0.84,0.43-1.71,0.78-2.6,1.06c-0.88,0.3-1.79,0.48-2.7,0.65l-0.68,0.1l-0.63,0.08c-0.39,0.04-0.77,0.1-1.15,0.16
		c-0.76,0.12-1.51,0.3-2.25,0.51c-1.47,0.44-2.87,1.09-4.13,2.03C39.24,24.25,38.1,25.45,37.27,26.98z"/>
	<path class="st6" d="M49.99,5.44c0.71-0.63,1.62-0.96,2.54-1.1c0.93-0.13,1.9-0.07,2.8,0.22c0.9,0.29,1.77,0.74,2.45,1.38
		c0.36,0.3,0.64,0.68,0.92,1.04c0.14,0.18,0.24,0.4,0.34,0.6c0.1,0.21,0.2,0.42,0.27,0.64c-0.46-0.16-0.83-0.38-1.22-0.55
		c-0.4-0.16-0.74-0.37-1.13-0.51c-0.72-0.34-1.45-0.59-2.18-0.82c-0.73-0.23-1.48-0.4-2.27-0.54C51.73,5.66,50.91,5.56,49.99,5.44z"
		/>
	<path class="st6" d="M48.59,7.79c0.77-0.44,1.67-0.51,2.51-0.45c0.85,0.08,1.67,0.33,2.42,0.69c0.76,0.36,1.44,0.85,2.04,1.43
		c0.3,0.29,0.56,0.61,0.81,0.94c0.23,0.35,0.45,0.71,0.61,1.12c-0.43-0.1-0.81-0.25-1.18-0.4c-0.38-0.13-0.73-0.3-1.08-0.46
		c-0.7-0.31-1.35-0.64-2.01-0.95l-1.98-0.95C50.06,8.45,49.38,8.13,48.59,7.79z"/>
	<path class="st6" d="M48.11,10.14c0.68-0.09,1.27-0.02,1.84,0.1c0.57,0.13,1.1,0.33,1.61,0.58c0.51,0.25,0.98,0.56,1.43,0.94
		c0.44,0.38,0.86,0.81,1.19,1.41c-0.68,0.09-1.27,0.02-1.84-0.1c-0.57-0.13-1.1-0.33-1.6-0.58c-0.5-0.25-0.98-0.56-1.43-0.94
		C48.85,11.17,48.44,10.74,48.11,10.14z"/>
	<path class="st6" d="M47.27,13.49c0.47-0.13,0.86-0.13,1.22-0.09c0.36,0.04,0.68,0.14,0.97,0.27c0.29,0.14,0.56,0.32,0.79,0.55
		c0.23,0.24,0.43,0.52,0.55,0.92c-0.47,0.13-0.86,0.13-1.22,0.1c-0.36-0.04-0.68-0.14-0.97-0.28c-0.29-0.14-0.56-0.32-0.79-0.55
		C47.59,14.18,47.39,13.9,47.27,13.49z"/>
	<path class="st7" d="M40.65,24.96c0.43,0.02,0.75,0.12,1.06,0.24c0.3,0.12,0.58,0.27,0.83,0.45c0.25,0.18,0.48,0.39,0.69,0.63
		c0.21,0.25,0.41,0.53,0.57,0.93c-0.41,0.1-0.78,0.07-1.12-0.02c-0.34-0.09-0.65-0.24-0.92-0.44c-0.27-0.2-0.52-0.44-0.71-0.73
		C40.85,25.71,40.69,25.38,40.65,24.96z"/>
	<path class="st8" d="M39.07,26.12c0.46,0.33,0.84,0.63,1.2,0.93l1.05,0.85c0.34,0.28,0.69,0.55,1.06,0.82
		c0.36,0.29,0.76,0.53,1.21,0.91c-0.53,0.18-1.1,0.2-1.64,0.06c-0.54-0.13-1.05-0.38-1.47-0.73c-0.43-0.34-0.79-0.77-1.04-1.25
		C39.19,27.23,39.03,26.7,39.07,26.12z"/>
	
		<linearGradient id="SVGID_00000134959408583627779230000016365160808047718032_" gradientUnits="userSpaceOnUse" x1="44.0566" y1="21.6697" x2="41.2088" y2="29.1637">
		<stop  offset="0" style="stop-color:#00B8EE"/>
		<stop  offset="1" style="stop-color:#0C318E"/>
	</linearGradient>
	<path style="fill:url(#SVGID_00000134959408583627779230000016365160808047718032_);" d="M54.37,0.45
		c-2.78,1.6-4.99,3.72-6.42,6.17c-1.44,2.45-2.06,5.22-2.13,8.09c-0.08,2.87,0.37,5.84,0.98,8.8c0.2,0.87,0.28,1.71,0.31,2.57
		c0.02,0.86-0.04,1.73-0.24,2.59c-0.2,0.86-0.54,1.72-1.12,2.42c-0.29,0.35-0.63,0.64-1,0.87c-0.38,0.21-0.78,0.36-1.18,0.42
		c0.64-0.51,1.06-1.14,1.27-1.81c0.11-0.33,0.17-0.67,0.2-1.02c0.03-0.35,0.03-0.69,0-1.05c-0.05-0.7-0.18-1.41-0.36-2.1
		c-0.17-0.69-0.41-1.4-0.66-2.03c-1.17-3.06-1.9-6.34-1.79-9.76c0.06-1.7,0.33-3.43,0.91-5.08c0.56-1.65,1.43-3.21,2.55-4.53
		c1.12-1.32,2.48-2.41,3.97-3.19C51.14,1.03,52.74,0.51,54.37,0.45z"/>
</g>
</svg>
