<?xml version="1.0" encoding="utf-8"?>
<!-- Generator: Adobe Illustrator 27.8.1, SVG Export Plug-In . SVG Version: 6.00 Build 0)  -->
<svg version="1.1" id="Layer_1" xmlns="http://www.w3.org/2000/svg" xmlns:xlink="http://www.w3.org/1999/xlink" x="0px" y="0px"
	 viewBox="0 0 286.56 53.42" style="enable-background:new 0 0 286.56 53.42;" xml:space="preserve">
<style type="text/css">
	.st0{fill:#5C5B5C;}
	.st1{fill:#00A663;}
</style>
<g>
	<g>
		<g>
			<polygon class="st0" points="250.37,11.65 244.76,11.65 244.76,3.61 239.66,3.61 239.66,22.78 244.76,22.78 244.76,14.98 
				250.37,14.98 			"/>
			<polygon class="st0" points="227.06,3.61 227.06,-0.07 221.97,-0.07 221.97,3.61 210.8,3.61 210.8,6.94 238.09,6.94 238.09,3.61 
							"/>
			<g>
				<path class="st0" d="M284.42,28.63V6.95c0-1.73-1.53-3.35-3.27-3.35l-29.48,0.02v3.33h27.62v21.68h-6.46V13.32h-5.09v15.31
					h-6.47V13.32h-5.09v15.31h-7.05v3.33h37.42v-3.33H284.42z"/>
				<path class="st0" d="M281.15,3.6C281.27,3.58,281.04,3.6,281.15,3.6L281.15,3.6z"/>
				<path class="st0" d="M284.42,6.95C284.42,7.1,284.47,6.79,284.42,6.95L284.42,6.95z"/>
			</g>
			<path class="st0" d="M244.75,26.9c0-1.84-1.69-3.45-3.53-3.45c-0.17,0-29.71,0-29.71,0v3.36h28.15v8.83h5.09
				C244.75,35.65,244.75,27.13,244.75,26.9z"/>
			<path class="st0" d="M224.45,8.02c-6.99,0-12.66,2.96-12.66,6.6c0,3.65,5.67,6.6,12.66,6.6c6.99,0,12.65-2.96,12.65-6.6
				C237.1,10.98,231.44,8.02,224.45,8.02z M224.45,18.41c-4.11,0-7.44-1.7-7.44-3.79c0-2.09,3.33-3.79,7.44-3.79
				c4.1,0,7.43,1.69,7.43,3.79C231.88,16.71,228.55,18.41,224.45,18.41z"/>
			<path class="st0" d="M202.31,3.61v8.53h-2.55V3.61h-5.09v19.72l-15.54-0.03V6.95h12.8V3.6h-17.89v19.71h0.04
				c0.13,1.88,1.7,3.37,3.62,3.37c0.07,0,10.98,0,16.98-0.01v8.98h5.09V15.28h2.55v20.38h5.1V3.61H202.31z"/>
			<path class="st0" d="M128.65,18.61v-3.33H91.43v3.33h15.87v1.99H93.94v3.07h27.13v1.83H93.83v5.96c-0.02,0.13,0,0.26,0,0.4
				c0,1.53,1.22,2.76,2.75,2.76c0.11,0,0.21,0.01,0.31,0h29.01v-3.19H98.67v-2.61l27.27-0.03c0,0,0-6.03,0-6.2
				c0-1.12-0.87-2.01-1.99-2.01c-0.15,0-11.3,0-11.3,0v-1.97H128.65z"/>
			<path class="st0" d="M109.97,2.22c-9.18,0-16.62,2.69-16.62,6c0,3.31,7.44,6,16.62,6c9.18,0,16.62-2.69,16.62-6
				C126.6,4.91,119.15,2.22,109.97,2.22z M109.97,11.87c-6.22,0-11.27-1.63-11.27-3.65c0-2.02,5.04-3.65,11.27-3.65
				c6.22,0,11.27,1.63,11.27,3.65C121.24,10.24,116.19,11.87,109.97,11.87z"/>
			<path class="st0" d="M152.48,18.73h5.62l-7.7-13.9c-0.42-0.71-1.41-1.21-2.55-1.21l-0.13,0l0,0h-7.51l0,0l-0.13,0
				c-1.15,0-2.13,0.5-2.55,1.21l-7.7,13.9h5.62l6.7-11.95h3.64L152.48,18.73z"/>
			<path class="st0" d="M134.88,31.33c0,1.84,1.59,3.29,3.43,3.29c0.17,0,28.67,0,28.67,0v-3.19h-27.1V20.76h-5
				C134.88,20.76,134.88,31.11,134.88,31.33z"/>
			<polygon class="st0" points="172.53,12.01 167.05,12.01 167.05,3.61 161.95,3.61 161.95,27.81 167.05,27.81 167.05,15.28 
				172.53,15.28 			"/>
		</g>
		<g>
			<path class="st0" d="M94.5,51.44c0.83,1.18,2.41,1.76,4.74,1.76c2.32,0,4.07-0.59,4.9-1.76c0.44-0.64,0.66-1.54,0.66-2.69v-6.83
				h-2.5v6.83c0,0.75-0.11,1.29-0.33,1.63c-0.34,0.61-1.6,0.91-2.74,0.91c-1.14,0-2.24-0.3-2.57-0.91
				c-0.22-0.34-0.33-0.88-0.33-1.63v-6.83h-2.5v6.83C93.84,49.9,94.06,50.8,94.5,51.44z"/>
			<path class="st0" d="M229.31,51.46c0.83,1.18,2.41,1.77,4.74,1.77c2.33,0,4.08-0.59,4.9-1.77c0.44-0.64,0.67-1.54,0.67-2.69
				v-6.83h-2.5v6.83c0,0.74-0.11,1.29-0.33,1.63c-0.34,0.61-1.6,0.91-2.74,0.91c-1.14,0-2.23-0.3-2.57-0.91
				c-0.22-0.34-0.33-0.89-0.33-1.63v-6.83h-2.5v6.83C228.65,49.92,228.87,50.82,229.31,51.46z"/>
			<path class="st0" d="M108.47,52.92v-8.22l5.83,8.22h3.15v-11h-2.09v8.26l-5.87-8.26h-3.29v11H108.47z"/>
			<path class="st0" d="M275.35,52.92v-8.22l5.83,8.22h3.16v-11h-2.09v8.26l-5.87-8.26h-3.29v11H275.35z"/>
			<path class="st0" d="M121.42,41.92v11h-2.79v-11H121.42z"/>
			<path class="st0" d="M128.42,50.32l3.99-8.39h2.39l-5.1,11h-2.83l-4.88-11h2.65L128.42,50.32z"/>
			<path class="st0" d="M135.16,41.92v11h8.95v-2.12h-6.38v-2.79h5.65v-1.88h-5.65v-2.3h6.06v-1.92H135.16z"/>
			<path class="st0" d="M213.09,41.92v11h2.62v-4.9h5.6v-1.88h-5.65v-2.3h6.05v-1.92H213.09z"/>
			<path class="st0" d="M151.99,43.95c0.51,0.21,0.77,0.63,0.77,1.26c0,0.58-0.27,0.96-0.79,1.16c-0.3,0.11-0.75,0.17-1.35,0.17
				h-3.22v-2.76h3.3C151.27,43.77,151.7,43.83,151.99,43.95z M144.96,41.92v11h2.43V48.5h3.03c0.82,0,1.29,0.15,1.6,0.38
				c0.3,0.23,0.55,0.66,0.56,1.35l0.02,1.01c0.01,0.32,0.05,0.63,0.12,0.93c0.04,0.15-0.08,0.52,0.01,0.76h2.57
				c0,0-0.09-0.79-0.16-1.06c-0.05-0.18-0.07-0.51-0.07-1.01v-0.73c0-0.76-0.13-1.32-0.39-1.69c-0.26-0.37-0.52-0.66-1.14-0.85
				c0.74-0.21,1.09-0.56,1.42-1.05c0.32-0.5,0.48-1,0.48-1.52c0-0.43-0.01-0.95-0.18-1.28c-0.17-0.33-0.3-0.5-0.59-0.77
				c-0.35-0.33-0.78-0.58-1.29-0.76c-0.51-0.17-0.88-0.26-1.82-0.28H144.96z"/>
			<path class="st0" d="M157.16,52.22c0.97,0.67,2.31,1,4.02,1c1.67,0,2.96-0.34,3.88-1.02c0.91-0.68,1.37-1.52,1.37-2.54
				c0-0.99-0.39-1.76-1.17-2.28c-0.5-0.34-1.25-0.61-2.23-0.81l-2.26-0.46c-0.87-0.18-1.44-0.33-1.7-0.46
				c-0.41-0.2-0.62-0.5-0.62-0.9c0-0.44,0.21-0.78,0.63-1.02c0.42-0.24,0.98-0.37,1.68-0.37c0.64,0,1.16,0.1,1.59,0.28
				c0.64,0.28,0.98,0.76,1.03,1.43H166c-0.05-1.19-0.56-2.1-1.53-2.72c-0.97-0.62-2.15-0.94-3.53-0.94c-1.65,0-2.9,0.33-3.75,0.99
				c-0.85,0.66-1.28,1.5-1.28,2.5c0,1.1,0.44,1.9,1.32,2.42c0.52,0.31,1.46,0.59,2.83,0.86l1.38,0.26c0.81,0.15,1.4,0.33,1.78,0.52
				c0.38,0.21,0.57,0.49,0.57,0.86c0,0.63-0.38,1.06-1.15,1.3c-0.4,0.12-0.93,0.18-1.57,0.18c-1.08,0-1.84-0.23-2.28-0.69
				c-0.24-0.25-0.41-0.64-0.49-1.15h-2.61C155.7,50.64,156.19,51.56,157.16,52.22z"/>
			<path class="st0" d="M249.48,52.22c0.97,0.67,2.31,1,4.02,1c1.67,0,2.96-0.34,3.87-1.02c0.92-0.68,1.37-1.52,1.37-2.54
				c0-0.99-0.39-1.76-1.17-2.28c-0.5-0.34-1.25-0.61-2.24-0.81l-2.25-0.46c-0.87-0.18-1.44-0.33-1.7-0.46
				c-0.42-0.2-0.62-0.5-0.62-0.9c0-0.44,0.21-0.78,0.63-1.02c0.42-0.24,0.98-0.37,1.68-0.37c0.63,0,1.16,0.1,1.59,0.28
				c0.64,0.28,0.98,0.76,1.03,1.43h2.63c-0.05-1.19-0.56-2.1-1.54-2.72c-0.97-0.62-2.15-0.94-3.52-0.94c-1.65,0-2.9,0.33-3.75,0.99
				c-0.86,0.66-1.28,1.5-1.28,2.5c0,1.1,0.44,1.9,1.32,2.42c0.52,0.31,1.46,0.59,2.82,0.86l1.39,0.26c0.81,0.15,1.41,0.33,1.78,0.52
				c0.38,0.21,0.57,0.49,0.57,0.86c0,0.63-0.38,1.06-1.14,1.3c-0.4,0.12-0.93,0.18-1.57,0.18c-1.08,0-1.84-0.23-2.28-0.69
				c-0.24-0.25-0.4-0.64-0.49-1.15h-2.61C248.01,50.64,248.5,51.56,249.48,52.22z"/>
			<path class="st0" d="M167.17,41.92v11h2.61v-11H167.17z"/>
			<path class="st0" d="M170.47,41.92h11.75v1.92h-4.54v9.08h-2.65v-9.08h-4.56V41.92z"/>
			<path class="st0" d="M189.34,46.46l3.54-4.54h2.48l-5.02,6.58v4.42h-2.28v-4.42l-5.34-6.58h2.78L189.34,46.46z"/>
			<path class="st0" d="M203.45,50.21c-0.66-0.68-0.99-1.63-0.99-2.88c0-1.25,0.33-2.21,0.99-2.89c0.66-0.68,1.55-1.02,2.66-1.02
				c1.11,0,1.99,0.34,2.65,1.02c0.65,0.68,0.98,1.64,0.98,2.88c0,1.25-0.33,2.21-0.98,2.88c-0.66,0.67-1.54,1.01-2.65,1.01
				C205,51.22,204.11,50.88,203.45,50.21z M210.51,42.75c-1.01-0.86-2.48-1.29-4.4-1.29c-1.92,0-3.38,0.44-4.4,1.29
				c-1.36,1.02-2.04,2.54-2.04,4.57c0,1.99,0.68,3.51,2.04,4.57c1.02,0.86,2.48,1.29,4.4,1.29c1.92,0,3.39-0.43,4.4-1.29
				c1.35-1.06,2.03-2.58,2.03-4.57C212.54,45.29,211.86,43.77,210.51,42.75z"/>
			<path class="st0" d="M240.89,52.92v-11h2.63v8.88h4.55v2.12H240.89z"/>
			<path class="st0" d="M267.62,48.14h-4.63l2.25-4.61L267.62,48.14z M260.25,52.92l1.63-2.75h6.69l1.39,2.75h2.7l-5.81-11h-3.17
				l-5.84,11H260.25z"/>
		</g>
	</g>
	<g>
		<path class="st1" d="M9.24,3.62H0.03c0,0-0.01,41.59-0.01,41.74c0,4.17,3.38,7.54,7.55,7.54c0.47,0,1.67,0.03,1.67,0.03V3.62z"/>
		<path class="st1" d="M14.31,3.62h9.21c0,0,0.01,41.59,0.01,41.74c0,4.17-3.38,7.54-7.54,7.54c-0.47,0-1.68,0.03-1.68,0.03V3.62z"
			/>
		<g>
			<path class="st1" d="M28.96,11.13c0,0.08,0,34.15,0,34.23c0,4.17,3.38,7.54,7.54,7.54c0.47,0,1.68,0.03,1.68,0.03V3.55
				c0,0-1.2,0.03-1.68,0.03C32.34,3.58,28.96,6.96,28.96,11.13z"/>
			<path class="st1" d="M52.48,11.13c0-4.17-3.38-7.54-7.54-7.54c-0.47,0-1.68-0.03-1.68-0.03v49.37c0,0,1.2-0.03,1.68-0.03
				c4.17,0,7.54-3.38,7.54-7.54C52.48,45.28,52.48,11.21,52.48,11.13z"/>
		</g>
		<path class="st1" d="M67.54,3.62h-9.21c0,0-0.01,41.59-0.01,41.74c0,4.17,3.38,7.54,7.54,7.54c0.47,0,1.68,0.03,1.68,0.03V3.62z"
			/>
		<path class="st1" d="M72.62,3.62h9.21c0,0,0.02,41.59,0.02,41.74c0,4.17-3.38,7.54-7.55,7.54c-0.47,0-1.68,0.03-1.68,0.03V3.62z"
			/>
	</g>
</g>
<g>
	<g>
		<polygon class="st0" points="508.07,789.5 503.58,789.5 503.58,783.07 499.51,783.07 499.51,798.41 503.58,798.41 503.58,792.17 
			508.07,792.17 		"/>
		<polygon class="st0" points="489.42,783.07 489.42,780.12 485.35,780.12 485.35,783.07 476.42,783.07 476.42,785.74 
			498.25,785.74 498.25,783.07 		"/>
		<g>
			<path class="st0" d="M535.32,803.09v-17.34c0-1.39-1.23-2.68-2.62-2.68l-23.58,0.01v2.66h22.1v17.34h-5.17v-12.25h-4.08v12.25
				h-5.17v-12.25h-4.07v12.25h-5.64v2.66h29.94v-2.66H535.32z"/>
			<path class="st0" d="M532.7,783.06C532.8,783.04,532.61,783.06,532.7,783.06L532.7,783.06z"/>
			<path class="st0" d="M535.32,785.74C535.32,785.86,535.35,785.61,535.32,785.74L535.32,785.74z"/>
		</g>
		<path class="st0" d="M503.58,801.7c0-1.47-1.35-2.76-2.82-2.76c-0.13,0-23.77,0-23.77,0v2.69h22.52v7.06h4.07
			C503.58,808.7,503.58,801.88,503.58,801.7z"/>
		<path class="st0" d="M487.34,786.6c-5.59,0-10.12,2.37-10.12,5.28c0,2.92,4.53,5.28,10.12,5.28c5.59,0,10.12-2.37,10.12-5.28
			C497.46,788.96,492.93,786.6,487.34,786.6z M487.34,794.91c-3.29,0-5.95-1.36-5.95-3.03c0-1.67,2.66-3.03,5.95-3.03
			c3.28,0,5.95,1.36,5.95,3.03C493.28,793.55,490.62,794.91,487.34,794.91z"/>
		<path class="st0" d="M469.62,783.07v6.82h-2.04v-6.82h-4.08v15.78l-12.43-0.02v-13.09h10.24v-2.68H447v15.77h0.03
			c0.11,1.51,1.36,2.7,2.9,2.7c0.06,0,8.78,0,13.58,0v7.18h4.08v-16.3h2.04v16.3h4.07v-25.63H469.62z"/>
		<path class="st0" d="M410.69,795.07v-2.66h-29.78v2.66h12.69v1.6h-10.68v2.45h21.71v1.47h-21.79v4.77c-0.01,0.11,0,0.21,0,0.32
			c0,1.22,0.97,2.21,2.2,2.21c0.09,0,0.17,0.01,0.25,0h23.21v-2.55h-21.78v-2.09l21.81-0.02c0,0,0-4.82,0-4.96
			c0-0.9-0.7-1.61-1.59-1.61c-0.12,0-9.04,0-9.04,0v-1.58H410.69z"/>
		<path class="st0" d="M395.75,781.96c-7.34,0-13.3,2.15-13.3,4.8c0,2.65,5.95,4.8,13.3,4.8c7.35,0,13.3-2.15,13.3-4.8
			C409.05,784.11,403.1,781.96,395.75,781.96z M395.75,789.68c-4.98,0-9.01-1.3-9.01-2.92c0-1.61,4.04-2.92,9.01-2.92
			c4.98,0,9.01,1.31,9.01,2.92C404.77,788.37,400.73,789.68,395.75,789.68z"/>
		<path class="st0" d="M429.76,795.16h4.49l-6.16-11.12c-0.34-0.57-1.12-0.97-2.04-0.97l-0.1,0l0,0h-6.01l0,0l-0.1,0
			c-0.92,0-1.71,0.4-2.04,0.97l-6.16,11.12h4.49l5.36-9.56h2.91L429.76,795.16z"/>
		<path class="st0" d="M415.68,805.25c0,1.47,1.27,2.63,2.74,2.63c0.13,0,22.94,0,22.94,0v-2.55h-21.68v-8.54h-4
			C415.68,796.79,415.68,805.07,415.68,805.25z"/>
		<polygon class="st0" points="445.8,789.79 441.42,789.79 441.42,783.07 437.34,783.07 437.34,802.43 441.42,802.43 441.42,792.4 
			445.8,792.4 		"/>
	</g>
	<g>
		<path class="st0" d="M383.3,821.33c0.66,0.94,1.93,1.41,3.79,1.41c1.86,0,3.26-0.47,3.92-1.41c0.35-0.51,0.53-1.23,0.53-2.15
			v-5.46h-2v5.46c0,0.6-0.09,1.03-0.26,1.31c-0.27,0.49-1.28,0.73-2.19,0.73c-0.91,0-1.79-0.24-2.06-0.73
			c-0.17-0.28-0.26-0.71-0.26-1.31v-5.46h-2v5.46C382.77,820.1,382.94,820.82,383.3,821.33z"/>
		<path class="st0" d="M491.15,821.35c0.67,0.94,1.93,1.41,3.79,1.41s3.26-0.47,3.92-1.41c0.35-0.51,0.53-1.23,0.53-2.15v-5.46h-2
			v5.46c0,0.6-0.09,1.03-0.26,1.3c-0.27,0.49-1.28,0.73-2.19,0.73c-0.91,0-1.79-0.24-2.05-0.73c-0.18-0.27-0.27-0.71-0.27-1.3v-5.46
			h-2v5.46C490.61,820.12,490.79,820.83,491.15,821.35z"/>
		<path class="st0" d="M394.48,822.52v-6.57l4.67,6.57h2.52v-8.8h-1.67v6.61l-4.7-6.61h-2.63v8.8H394.48z"/>
		<path class="st0" d="M527.98,822.52v-6.57l4.66,6.57h2.52v-8.8h-1.67v6.61l-4.7-6.61h-2.63v8.8H527.98z"/>
		<path class="st0" d="M404.83,813.72v8.8h-2.23v-8.8H404.83z"/>
		<path class="st0" d="M410.44,820.43l3.19-6.71h1.91l-4.08,8.8h-2.26l-3.91-8.8h2.12L410.44,820.43z"/>
		<path class="st0" d="M415.82,813.72v8.8h7.16v-1.7h-5.11v-2.23h4.52v-1.51h-4.52v-1.84h4.85v-1.54H415.82z"/>
		<path class="st0" d="M478.17,813.72v8.8h2.09v-3.92h4.48v-1.51h-4.52v-1.84h4.84v-1.54H478.17z"/>
		<path class="st0" d="M429.29,815.34c0.41,0.17,0.62,0.51,0.62,1.01c0,0.46-0.21,0.77-0.64,0.92c-0.24,0.09-0.6,0.14-1.08,0.14
			h-2.57v-2.21h2.64C428.71,815.2,429.05,815.25,429.29,815.34z M423.66,813.72v8.8h1.95v-3.54h2.42c0.66,0,1.04,0.12,1.28,0.3
			c0.24,0.18,0.44,0.53,0.45,1.08l0.01,0.81c0,0.25,0.04,0.51,0.09,0.74c0.03,0.12-0.06,0.42,0.01,0.61h2.05
			c0,0-0.07-0.63-0.13-0.85c-0.04-0.14-0.06-0.41-0.06-0.81v-0.58c0-0.61-0.1-1.06-0.31-1.36c-0.21-0.29-0.42-0.52-0.91-0.68
			c0.59-0.16,0.88-0.45,1.13-0.84c0.26-0.4,0.39-0.8,0.39-1.21c0-0.34-0.01-0.76-0.14-1.02c-0.13-0.27-0.24-0.4-0.47-0.62
			c-0.28-0.27-0.63-0.47-1.03-0.61c-0.4-0.13-0.71-0.21-1.46-0.22H423.66z"/>
		<path class="st0" d="M433.43,821.96c0.78,0.53,1.85,0.8,3.21,0.8c1.33,0,2.36-0.27,3.1-0.81c0.73-0.54,1.1-1.21,1.1-2.04
			c0-0.79-0.31-1.41-0.94-1.83c-0.4-0.27-1-0.49-1.79-0.65l-1.8-0.37c-0.7-0.14-1.15-0.27-1.36-0.37c-0.33-0.16-0.5-0.4-0.5-0.72
			c0-0.35,0.17-0.62,0.5-0.81c0.33-0.2,0.79-0.29,1.35-0.29c0.51,0,0.93,0.08,1.27,0.23c0.51,0.22,0.79,0.61,0.82,1.15h2.1
			c-0.04-0.95-0.45-1.68-1.22-2.18c-0.78-0.5-1.72-0.75-2.82-0.75c-1.32,0-2.32,0.27-3,0.79c-0.68,0.53-1.02,1.2-1.02,2
			c0,0.88,0.35,1.52,1.06,1.94c0.42,0.25,1.17,0.47,2.26,0.69l1.11,0.21c0.65,0.12,1.12,0.26,1.43,0.42
			c0.3,0.17,0.46,0.39,0.46,0.69c0,0.51-0.31,0.85-0.92,1.04c-0.32,0.1-0.74,0.14-1.26,0.14c-0.86,0-1.47-0.18-1.82-0.55
			c-0.19-0.2-0.33-0.51-0.39-0.92h-2.09C432.25,820.69,432.65,821.42,433.43,821.96z"/>
		<path class="st0" d="M507.28,821.96c0.78,0.53,1.85,0.8,3.21,0.8c1.34,0,2.37-0.27,3.1-0.81c0.73-0.54,1.1-1.21,1.1-2.04
			c0-0.79-0.31-1.41-0.94-1.83c-0.4-0.27-1-0.49-1.79-0.65l-1.8-0.37c-0.7-0.14-1.15-0.27-1.36-0.37c-0.33-0.16-0.5-0.4-0.5-0.72
			c0-0.35,0.17-0.62,0.51-0.81c0.33-0.2,0.78-0.29,1.34-0.29c0.51,0,0.93,0.08,1.27,0.23c0.51,0.22,0.79,0.61,0.82,1.15h2.11
			c-0.04-0.95-0.45-1.68-1.23-2.18c-0.78-0.5-1.72-0.75-2.82-0.75c-1.32,0-2.32,0.27-3,0.79c-0.69,0.53-1.02,1.2-1.02,2
			c0,0.88,0.35,1.52,1.06,1.94c0.41,0.25,1.17,0.47,2.25,0.69l1.11,0.21c0.65,0.12,1.13,0.26,1.43,0.42
			c0.3,0.17,0.46,0.39,0.46,0.69c0,0.51-0.3,0.85-0.91,1.04c-0.32,0.1-0.74,0.14-1.26,0.14c-0.86,0-1.47-0.18-1.82-0.55
			c-0.19-0.2-0.32-0.51-0.39-0.92h-2.09C506.11,820.69,506.5,821.42,507.28,821.96z"/>
		<path class="st0" d="M441.43,813.72v8.8h2.09v-8.8H441.43z"/>
		<path class="st0" d="M444.07,813.72h9.39v1.54h-3.63v7.27h-2.12v-7.27h-3.65V813.72z"/>
		<path class="st0" d="M459.17,817.35l2.83-3.63h1.98l-4.01,5.27v3.54h-1.82v-3.54l-4.27-5.27h2.22L459.17,817.35z"/>
		<path class="st0" d="M470.46,820.35c-0.53-0.54-0.79-1.31-0.79-2.31c0-1,0.27-1.77,0.79-2.31c0.53-0.54,1.24-0.81,2.13-0.81
			c0.89,0,1.59,0.27,2.12,0.81c0.52,0.54,0.78,1.31,0.78,2.31c0,1-0.26,1.77-0.78,2.31c-0.53,0.54-1.23,0.81-2.12,0.81
			C471.7,821.16,470.99,820.88,470.46,820.35z M476.1,814.38c-0.81-0.69-1.99-1.04-3.52-1.04c-1.54,0-2.71,0.35-3.52,1.04
			c-1.09,0.81-1.63,2.03-1.63,3.66c0,1.59,0.54,2.81,1.63,3.65c0.81,0.69,1.98,1.03,3.52,1.03c1.53,0,2.71-0.35,3.52-1.03
			c1.08-0.85,1.63-2.06,1.63-3.65C477.73,816.41,477.19,815.2,476.1,814.38z"/>
		<path class="st0" d="M500.41,822.52v-8.8h2.1v7.11h3.64v1.7H500.41z"/>
		<path class="st0" d="M521.79,818.69h-3.71l1.8-3.69L521.79,818.69z M515.9,822.52l1.3-2.2h5.35l1.11,2.2h2.16l-4.65-8.8h-2.54
			l-4.67,8.8H515.9z"/>
	</g>
	<g>
		<path class="st1" d="M427.59,724.64h-9.12c0,0,0,41.18,0,41.32c0,4.13,3.34,7.47,7.46,7.47c0.47,0,1.66,0.02,1.66,0.02V724.64z"/>
		<path class="st1" d="M432.61,724.64h9.12c0,0,0.01,41.18,0.01,41.32c0,4.13-3.35,7.47-7.47,7.47c-0.47,0-1.66,0.02-1.66,0.02
			V724.64z"/>
		<g>
			<path class="st1" d="M447.11,732.08c0,0.08,0,33.81,0,33.89c0,4.13,3.35,7.47,7.47,7.47c0.47,0,1.66,0.02,1.66,0.02v-48.88
				c0,0-1.19,0.03-1.66,0.03C450.46,724.61,447.11,727.95,447.11,732.08z"/>
			<path class="st1" d="M470.4,732.08c0-4.13-3.35-7.47-7.47-7.47c-0.46,0-1.66-0.03-1.66-0.03v48.88c0,0,1.19-0.02,1.66-0.02
				c4.12,0,7.47-3.34,7.47-7.47C470.4,765.89,470.4,732.15,470.4,732.08z"/>
		</g>
		<path class="st1" d="M485.31,724.64h-9.12c0,0-0.01,41.18-0.01,41.32c0,4.13,3.35,7.47,7.47,7.47c0.47,0,1.66,0.02,1.66,0.02
			V724.64z"/>
		<path class="st1" d="M490.34,724.64h9.12c0,0,0,41.18,0,41.32c0,4.13-3.34,7.47-7.46,7.47c-0.47,0-1.66,0.02-1.66,0.02V724.64z"/>
	</g>
</g>
<g>
	<g>
		<path class="st0" d="M23.07,816.61c1.25,1.76,3.63,2.65,7.13,2.65c3.49,0,6.12-0.88,7.37-2.65c0.67-0.97,1-2.32,1-4.05V802.3
			h-3.76v10.27c0,1.12-0.16,1.94-0.49,2.46c-0.51,0.92-2.41,1.37-4.11,1.37c-1.72,0-3.37-0.45-3.87-1.37
			c-0.33-0.52-0.49-1.34-0.49-2.46V802.3h-3.77v10.27C22.07,814.3,22.41,815.65,23.07,816.61z"/>
		<path class="st0" d="M225.82,816.64c1.25,1.77,3.62,2.65,7.12,2.65c3.49,0,6.13-0.88,7.38-2.65c0.66-0.96,1-2.31,1-4.04v-10.27
			h-3.76v10.27c0,1.12-0.16,1.94-0.49,2.45c-0.51,0.91-2.41,1.37-4.12,1.37c-1.72,0-3.37-0.46-3.87-1.37
			c-0.33-0.52-0.5-1.33-0.5-2.45v-10.27h-3.76v10.27C224.82,814.32,225.16,815.67,225.82,816.64z"/>
		<path class="st0" d="M44.09,818.85v-12.36l8.77,12.36h4.74V802.3h-3.14v12.42l-8.83-12.42h-4.95v16.55H44.09z"/>
		<path class="st0" d="M295.06,818.85v-12.36l8.77,12.36h4.75V802.3h-3.14v12.42l-8.83-12.42h-4.95v16.55H295.06z"/>
		<path class="st0" d="M63.55,802.3v16.55h-4.19V802.3H63.55z"/>
		<path class="st0" d="M74.09,814.92l6.01-12.62h3.59l-7.68,16.55h-4.25l-7.35-16.55h3.98L74.09,814.92z"/>
		<path class="st0" d="M84.22,802.3v16.55h13.46v-3.2h-9.6v-4.19h8.49v-2.83h-8.49v-3.45h9.11v-2.89H84.22z"/>
		<path class="st0" d="M201.43,802.3v16.55h3.93v-7.38h8.42v-2.83h-8.49v-3.45h9.1v-2.89H201.43z"/>
		<path class="st0" d="M109.52,805.35c0.77,0.32,1.16,0.95,1.16,1.89c0,0.87-0.4,1.44-1.2,1.73c-0.45,0.17-1.13,0.26-2.03,0.26
			h-4.84v-4.16h4.95C108.45,805.08,109.09,805.17,109.52,805.35z M98.96,802.3v16.55h3.66v-6.65h4.55c1.24,0,1.95,0.22,2.4,0.57
			c0.45,0.35,0.82,0.99,0.84,2.03l0.03,1.51c0.01,0.48,0.07,0.95,0.18,1.4c0.06,0.23-0.11,0.78,0.01,1.15h3.86
			c0,0-0.13-1.19-0.24-1.61c-0.07-0.25-0.11-0.76-0.11-1.51v-1.09c0-1.14-0.19-1.99-0.58-2.55c-0.39-0.55-0.79-0.98-1.72-1.28
			c1.12-0.31,1.65-0.83,2.13-1.59c0.48-0.75,0.73-1.51,0.73-2.28c0-0.65-0.01-1.42-0.27-1.92c-0.25-0.51-0.45-0.75-0.89-1.17
			c-0.54-0.5-1.18-0.88-1.95-1.14c-0.76-0.25-1.33-0.39-2.74-0.41H98.96z"/>
		<path class="st0" d="M117.31,817.78c1.47,1,3.48,1.5,6.05,1.5c2.51,0,4.45-0.52,5.83-1.53c1.37-1.01,2.06-2.28,2.06-3.83
			c0-1.5-0.59-2.64-1.77-3.44c-0.75-0.51-1.87-0.91-3.36-1.22l-3.39-0.7c-1.31-0.27-2.16-0.5-2.56-0.7
			c-0.62-0.29-0.93-0.74-0.93-1.35c0-0.65,0.31-1.17,0.95-1.53c0.62-0.37,1.47-0.55,2.53-0.55c0.96,0,1.75,0.14,2.39,0.42
			c0.96,0.42,1.48,1.14,1.55,2.16h3.95c-0.07-1.79-0.84-3.15-2.31-4.09c-1.46-0.94-3.23-1.41-5.3-1.41c-2.48,0-4.36,0.5-5.65,1.49
			c-1.28,1-1.92,2.26-1.92,3.76c0,1.65,0.66,2.86,1.99,3.64c0.79,0.47,2.2,0.89,4.25,1.3l2.08,0.4c1.22,0.23,2.11,0.49,2.68,0.78
			c0.56,0.32,0.86,0.74,0.86,1.3c0,0.95-0.58,1.6-1.72,1.96c-0.61,0.18-1.4,0.27-2.37,0.27c-1.62,0-2.76-0.35-3.43-1.04
			c-0.37-0.38-0.61-0.96-0.74-1.72h-3.92C115.11,815.41,115.85,816.78,117.31,817.78z"/>
		<path class="st0" d="M256.15,817.78c1.47,1,3.48,1.5,6.04,1.5c2.51,0,4.45-0.52,5.83-1.53c1.38-1.01,2.06-2.28,2.06-3.83
			c0-1.5-0.58-2.64-1.76-3.44c-0.76-0.51-1.88-0.91-3.36-1.22l-3.39-0.7c-1.31-0.27-2.16-0.5-2.56-0.7
			c-0.63-0.29-0.93-0.74-0.93-1.35c0-0.65,0.31-1.17,0.95-1.53c0.63-0.37,1.47-0.55,2.52-0.55c0.96,0,1.75,0.14,2.4,0.42
			c0.96,0.42,1.47,1.14,1.55,2.16h3.95c-0.07-1.79-0.84-3.15-2.31-4.09c-1.46-0.94-3.23-1.41-5.3-1.41c-2.48,0-4.37,0.5-5.65,1.49
			c-1.29,1-1.92,2.26-1.92,3.76c0,1.65,0.66,2.86,1.99,3.64c0.78,0.47,2.19,0.89,4.24,1.3l2.08,0.4c1.22,0.23,2.11,0.49,2.67,0.78
			c0.58,0.32,0.86,0.74,0.86,1.3c0,0.95-0.56,1.6-1.71,1.96c-0.61,0.18-1.4,0.27-2.37,0.27c-1.62,0-2.76-0.35-3.43-1.04
			c-0.37-0.38-0.61-0.96-0.74-1.72h-3.92C253.95,815.41,254.69,816.78,256.15,817.78z"/>
		<path class="st0" d="M132.37,802.3v16.55h3.93V802.3H132.37z"/>
		<path class="st0" d="M137.32,802.3h17.66v2.89h-6.82v13.66h-3.98v-13.66h-6.86V802.3z"/>
		<path class="st0" d="M165.7,809.12l5.32-6.83h3.73l-7.54,9.9v6.65h-3.43v-6.65l-8.03-9.9h4.18L165.7,809.12z"/>
		<path class="st0" d="M186.92,814.75c-1-1.02-1.5-2.46-1.5-4.34c0-1.88,0.5-3.32,1.5-4.34c1-1.02,2.33-1.53,4-1.53
			c1.67,0,3,0.51,3.98,1.53c0.98,1.02,1.47,2.46,1.47,4.33c0,1.88-0.49,3.32-1.47,4.34c-0.98,1.01-2.31,1.53-3.98,1.53
			C189.26,816.28,187.92,815.77,186.92,814.75z M197.54,803.54c-1.52-1.29-3.73-1.95-6.61-1.95c-2.88,0-5.09,0.65-6.62,1.95
			c-2.05,1.53-3.07,3.82-3.07,6.87c0,3,1.02,5.28,3.07,6.87c1.53,1.29,3.73,1.94,6.62,1.94c2.89,0,5.1-0.65,6.61-1.94
			c2.04-1.59,3.06-3.87,3.06-6.87C200.6,807.36,199.58,805.08,197.54,803.54z"/>
		<path class="st0" d="M243.24,818.85V802.3h3.95v13.35h6.85v3.2H243.24z"/>
		<path class="st0" d="M283.43,811.64h-6.97l3.39-6.93L283.43,811.64z M272.36,818.85l2.44-4.14h10.06l2.09,4.14H291l-8.73-16.55
			h-4.77l-8.78,16.55H272.36z"/>
	</g>
	<g>
		<g>
			<path class="st1" d="M129.53,737.01h-10.41c0,0,0,46.97,0,47.14c0,4.71,3.81,8.53,8.51,8.53c0.53,0,1.89,0.03,1.89,0.03V737.01z"
				/>
			<path class="st1" d="M135.26,737.01h10.41c0,0,0.02,46.97,0.02,47.14c0,4.71-3.82,8.53-8.53,8.53c-0.54,0-1.9,0.03-1.9,0.03
				V737.01z"/>
			<g>
				<path class="st1" d="M151.81,745.49c0,0.09,0,38.57,0,38.66c0,4.71,3.81,8.53,8.51,8.53c0.54,0,1.9,0.03,1.9,0.03v-55.76
					c0,0-1.35,0.03-1.9,0.03C155.62,736.97,151.81,740.78,151.81,745.49z"/>
				<path class="st1" d="M178.37,745.49c0-4.7-3.81-8.52-8.52-8.52c-0.53,0-1.89-0.03-1.89-0.03v55.76c0,0,1.37-0.03,1.89-0.03
					c4.71,0,8.52-3.82,8.52-8.53C178.37,784.06,178.37,745.57,178.37,745.49z"/>
			</g>
			<path class="st1" d="M195.38,737.01h-10.4c0,0-0.02,46.97-0.02,47.14c0,4.71,3.82,8.53,8.53,8.53c0.54,0,1.89,0.03,1.89,0.03
				V737.01z"/>
			<path class="st1" d="M201.12,737.01h10.41c0,0,0,46.97,0,47.14c0,4.71-3.81,8.53-8.52,8.53c-0.54,0-1.89,0.03-1.89,0.03V737.01z"
				/>
		</g>
	</g>
</g>
</svg>
