<?xml version="1.0" encoding="utf-8"?>
<!-- Generator: Adobe Illustrator 22.0.1, SVG Export Plug-In . SVG Version: 6.00 Build 0)  -->
<svg version="1.1" id="Layer_1" xmlns="http://www.w3.org/2000/svg" xmlns:xlink="http://www.w3.org/1999/xlink" x="0px" y="0px"
	 viewBox="0 0 147.8 76.3" style="enable-background:new 0 0 147.8 76.3;" xml:space="preserve">
<style type="text/css">
	.st0{fill:#FFFFFF;stroke:#231F20;stroke-linecap:round;stroke-linejoin:round;stroke-miterlimit:10;}
</style>
<path class="st0" d="M120.6,55.7c0,2.7,0,4.3,5,5.2c5,0.9,6.5-4.7,6.5-7c3.4,2,8.8-0.2,7.4-6.8c3.8,0,2.9-7.9,0.2-9
	c2.3-3.2-3.7-8.6-8.4-6.1c2.6-7-2.6-11.3-7.4-11.7c-4.7-0.5-10.1,4.1-10.1,7c0,0-5.4-2.1-7.8,1c0.6-4.3-3.7-8.6-8.5-8
	c-4.7,0.6-8,2.4-8.3,6.7c-1.2-6.1-10-6.3-13.5-3.9c2-6.3-1.8-16.8-11.7-16.7s-13.2,5.4-13.9,14.9c-1.8-3.8-16.1-1.9-14.4,7.4
	c-7,0-12.9,3.3-11.6,13.6c-2.5,1-0.2,2.8-0.2,2.8s-16-8.6-18.5,8.8c1.1,5.2,6.3,13.8,20.1,7.4c2.7,6.3,4.3,7.4,9.2,7.4
	s8.1-5,8.6-7.9c3.8,2.7,6.8,4.5,11.5,0.9c1.6,4.1,3.6,9.5,14.4,9.2s10.6-9.5,10.6-9.5s5.4,7.4,14-0.7c4.7,4.7,7.7,5,11.3,4.5
	s7.4-5.6,6.8-10.1C111.8,55.3,115.5,60.5,120.6,55.7z"/>
</svg>
