<?xml version="1.0" encoding="utf-8"?>
<!-- Generator: Adobe Illustrator 22.0.1, SVG Export Plug-In . SVG Version: 6.00 Build 0)  -->
<svg version="1.1" id="Layer_1" xmlns="http://www.w3.org/2000/svg" xmlns:xlink="http://www.w3.org/1999/xlink" x="0px" y="0px"
	 viewBox="0 0 112.7 78.4" style="enable-background:new 0 0 112.7 78.4;" xml:space="preserve">
<style type="text/css">
	.st0{fill:#231F20;}
	.st1{fill:none;stroke:#FFFFFF;stroke-width:0.25;stroke-linecap:round;stroke-linejoin:round;stroke-miterlimit:10;}
	.st2{fill:#FFFFFF;}
	.st3{fill:none;stroke:#FFFFFF;stroke-width:0.1;stroke-linecap:round;stroke-linejoin:round;stroke-miterlimit:10;}
	.st4{fill:#FFFFFF;stroke:#231F20;stroke-width:0.25;stroke-miterlimit:10;}
</style>
<g>
	<path class="st0" d="M12.6,62c0,0-2.1-0.6,2.2-3.5c4.3-2.9,22.6-3.4,22.6-3.4s6-5,6.7-5.3c0.7-0.3,0.6,1.9,1.3,3.4
		c0.6,1.4,2.1,4,2.1,4l6.7,1.1c0,0,2.3-1.4,2.9-1.4c0.6-0.1,2.7,1.8,2.1,3.2c2.9,0.2,2.9,0.2,2.9,0.2s7.7-4.5,10.4-4.3s0,2.2,0,2.2
		s-2.2,2.4-1.6,5.3c0.6,2.9,2.1,4,2.1,4.5c0,0.5-0.6,0.6-2.4,0c-1.8-0.6-6.6-4.2-6.6-4.2H58c0,0-1.8,6.7-2.9,6.1
		c-1.1-0.6-5-4.6-5-4.6s-6.9,0.2-5.9,0.8c1,0.6,2.7,3.1,1.9,3.9c-0.8,0.8-1.7,2.6-2.6,2.4c-0.9-0.2-3-5.1-3-5.1S21.4,68.4,12.6,62z"
		/>
	<path class="st1" d="M37.5,55.1c2,0.5,4.2,0.6,6.3,1.2c1.2,0.3,2.5,0.7,3.7,0.9"/>
	<path class="st1" d="M54.3,58.3c0.9,0.2,1.6,0.5,2.5,0.7c1.1,0.3,1.9,0.7,2.3,0.9"/>
	<path class="st1" d="M58,63.9c-2.1,0.7-3.9,1-6,1.2c-0.5,0-1.2,0.1-1.6,0.1"/>
	<path class="st1" d="M40.7,67.1c0.9-0.2,1.7-0.5,2.6-0.8c0.3-0.1,0.7-0.1,1-0.3"/>
	<path class="st1" d="M62.2,60.2c0.4-0.1,0.7,0.3,1,0.6c0.4,0.4,0.9,0.8,1,1.3c0.2,0.5,0.3,1.3-0.2,1.6"/>
	<path class="st1" d="M38.8,55.4c0.9-0.8,2-1.9,2.7-2.8"/>
	<path class="st1" d="M40,55.6c0.9-0.5,1.5-1,2.2-1.7c0.7-0.8,1.3-1.7,1.5-2.7"/>
	<path class="st1" d="M41.4,55.8c0.9-0.6,1.6-1.1,2.3-1.8c0.1-0.1,0.2-0.2,0.2-0.3"/>
	<path class="st1" d="M43,56.1c0.4-0.4,0.5-0.4,0.9-0.7s0.8-0.6,1-1.1"/>
	<path class="st1" d="M44.5,56.5c0.4-0.3,0.7-0.5,0.9-1"/>
	<path class="st1" d="M45.6,56.7c0.3-0.3,0.7-0.5,0.7-1.1"/>
	<path class="st1" d="M41.4,67.1c0,0.2,0.2,0.4,0.3,0.6c0.7,1,1.3,2.1,1.5,3.2"/>
	<path class="st1" d="M42,66.7c0.7,1,1.9,1.7,2.3,2.9"/>
	<path class="st1" d="M43.2,66.4c0.1,0.3,0.4,0.6,0.7,0.9c0.5,0.6,1,1.2,1.5,1.9"/>
	<path class="st1" d="M43.8,66.2c0.4,0.3,0.8,0.7,1.2,1.1"/>
	<path class="st1" d="M51.6,65.1c0.6,1.5,1.7,2.4,3,3.4"/>
	<path class="st1" d="M53,65c0.6,0.9,1,1.4,1.7,2.1"/>
	<path class="st1" d="M54.2,64.8c0.5,0.8,1,1.4,1.5,2.3"/>
	<path class="st1" d="M55.3,64.6c0,0.3,0.2,0.4,0.4,0.7c0.2,0.3,0.3,0.5,0.5,0.8"/>
	<path class="st1" d="M56.5,64.4c0.2,0.4,0.3,0.9,0.4,1.4"/>
	<path class="st1" d="M55.4,58.6c0.6-0.1,0.9-0.3,1.2-0.7"/>
	<path class="st1" d="M56.5,58.8c0.3-0.3,0.6-0.6,0.8-1"/>
	<path class="st1" d="M57,59c0.3-0.1,0.6-0.3,0.8-0.7"/>
	<path class="st1" d="M57.8,59.4c0.2-0.1,0.5-0.4,0.6-0.6"/>
	<path class="st1" d="M63.1,60.6c2-1.1,4.2-1.9,6.4-2.5"/>
	<path class="st1" d="M63.9,61.4c0.3-0.3,0.8-0.5,1.3-0.7c1.6-0.5,3.2-0.9,4.8-1.1"/>
	<path class="st1" d="M64.4,62.1c1.7-0.3,3.1-0.4,4.8-0.4"/>
	<path class="st1" d="M64.5,62.6c1.7,0.3,3.4,0.5,5.2,0.4"/>
	<path class="st1" d="M64.4,63.5c2.2,0.9,4.2,1.4,6.4,2.1"/>
	<path class="st1" d="M21.2,56.6c1.5,1.9,1.9,4.6,1.1,6.9c-0.3,0.8-0.7,1.5-1.4,2"/>
	<path class="st2" d="M15.9,59.9c-0.1,0.2-0.1,0.4-0.1,0.6c0,0.5,0.1,1,0.5,1.2c0.1,0.1,0.3,0.1,0.4,0.2c0.1,0,0.3,0.1,0.4,0.1
		c0.4,0.1,0.8-0.1,1.1-0.3c0.1,0,0.2-0.1,0.2-0.1c0.1-0.1,0.1-0.3,0.1-0.4c0.1-0.4,0.1-0.8,0-1.2C18.3,58.7,16.3,58.6,15.9,59.9z"/>
	<path class="st0" d="M17.5,60.1c0.1,0,0.1,0.1,0.1,0.2c0.1,0.2,0.1,0.4-0.1,0.5c-0.1,0.1-0.3,0.1-0.5,0c0,0-0.1-0.1-0.1-0.1
		c0,0,0-0.1,0-0.1c0-0.1,0-0.2,0.1-0.3C17,60.1,17.4,60.1,17.5,60.1z"/>
</g>
<g>
	<path class="st0" d="M79.4,71.6c0,0-1-0.3,1.1-1.8c2.2-1.4,11.3-1.7,11.3-1.7s3-2.5,3.4-2.6c0.3-0.1,0.3,1,0.6,1.7s1,2,1,2l3.4,0.6
		c0,0,1.1-0.7,1.4-0.7c0.3,0,1.4,0.9,1,1.6c1.4,0.1,1.4,0.1,1.4,0.1s3.8-2.2,5.2-2.2s0,1.1,0,1.1s-1.1,1.2-0.8,2.6
		c0.3,1.4,1.1,2,1,2.2c0,0.2-0.3,0.3-1.2,0s-3.3-2.1-3.3-2.1h-3c0,0-0.9,3.4-1.4,3s-2.5-2.3-2.5-2.3s-3.4,0.1-3,0.4
		c0.5,0.3,1.4,1.6,1,1.9c-0.4,0.4-0.8,1.3-1.3,1.2c-0.5-0.1-1.5-2.6-1.5-2.6S83.8,74.8,79.4,71.6z"/>
	<path class="st3" d="M91.9,68.2c1,0.3,2.1,0.3,3.1,0.6c0.6,0.2,1.3,0.3,1.9,0.4"/>
	<path class="st3" d="M100.3,69.8c0.5,0.1,0.8,0.2,1.2,0.4c0.6,0.2,1,0.4,1.1,0.5"/>
	<path class="st3" d="M102.1,72.6c-1,0.4-1.9,0.5-3,0.6c-0.2,0-0.6,0-0.8,0"/>
	<path class="st3" d="M93.5,74.2c0.4-0.1,0.9-0.3,1.3-0.4c0.2-0.1,0.3,0,0.5-0.1"/>
	<path class="st3" d="M104.2,70.7c0.2,0,0.3,0.2,0.5,0.3c0.2,0.2,0.4,0.4,0.5,0.7c0.1,0.3,0.1,0.7-0.1,0.8"/>
	<path class="st3" d="M92.5,68.3c0.5-0.4,1-0.9,1.4-1.4"/>
	<path class="st3" d="M93.1,68.4c0.5-0.3,0.7-0.5,1.1-0.9c0.4-0.4,0.7-0.8,0.8-1.4"/>
	<path class="st3" d="M93.8,68.5c0.4-0.3,0.8-0.6,1.2-0.9c0,0,0.1-0.1,0.1-0.2"/>
	<path class="st3" d="M94.6,68.7c0.2-0.2,0.2-0.2,0.5-0.3s0.4-0.3,0.5-0.6"/>
	<path class="st3" d="M95.3,68.9c0.2-0.2,0.4-0.3,0.5-0.5"/>
	<path class="st3" d="M95.9,69c0.1-0.1,0.4-0.3,0.4-0.5"/>
	<path class="st3" d="M93.8,74.2c0,0.1,0.1,0.2,0.2,0.3c0.4,0.5,0.6,1,0.8,1.6"/>
	<path class="st3" d="M94.1,74c0.3,0.5,0.9,0.9,1.1,1.5"/>
	<path class="st3" d="M94.7,73.8c0.1,0.2,0.2,0.3,0.3,0.4c0.3,0.3,0.5,0.6,0.7,0.9"/>
	<path class="st3" d="M95,73.7c0.2,0.2,0.4,0.4,0.6,0.6"/>
	<path class="st3" d="M98.9,73.2c0.3,0.8,0.9,1.2,1.5,1.7"/>
	<path class="st3" d="M99.6,73.1c0.3,0.4,0.5,0.7,0.9,1"/>
	<path class="st3" d="M100.2,73c0.3,0.4,0.5,0.7,0.8,1.1"/>
	<path class="st3" d="M100.8,72.9c0,0.1,0.1,0.2,0.2,0.3c0.1,0.1,0.2,0.3,0.2,0.4"/>
	<path class="st3" d="M101.3,72.8c0.1,0.2,0.2,0.4,0.2,0.7"/>
	<path class="st3" d="M100.8,69.9c0.3-0.1,0.4-0.1,0.6-0.4"/>
	<path class="st3" d="M101.4,70c0.2-0.1,0.3-0.3,0.4-0.5"/>
	<path class="st3" d="M101.6,70.1c0.2,0,0.3-0.2,0.4-0.3"/>
	<path class="st3" d="M102,70.3c0.1,0,0.2-0.2,0.3-0.3"/>
	<path class="st3" d="M104.7,70.9c1-0.6,2.1-0.9,3.2-1.3"/>
	<path class="st3" d="M105.1,71.3c0.2-0.2,0.4-0.3,0.6-0.3c0.8-0.3,1.6-0.5,2.4-0.6"/>
	<path class="st3" d="M105.3,71.7c0.8-0.1,1.6-0.2,2.4-0.2"/>
	<path class="st3" d="M105.4,71.9c0.8,0.2,1.7,0.2,2.6,0.2"/>
	<path class="st3" d="M105.3,72.4c1.1,0.4,2.1,0.7,3.2,1.1"/>
	<path class="st3" d="M83.7,68.9c0.7,1,1,2.3,0.6,3.5c-0.1,0.4-0.3,0.8-0.7,1"/>
	<path class="st2" d="M81.1,70.6c0,0.1,0,0.2,0,0.3c0,0.2,0.1,0.5,0.2,0.6c0.1,0,0.1,0.1,0.2,0.1c0.1,0,0.1,0,0.2,0.1
		c0.2,0,0.4-0.1,0.6-0.1c0,0,0.1,0,0.1-0.1c0.1-0.1,0.1-0.1,0.1-0.2c0-0.2,0.1-0.4,0-0.6C82.3,70,81.3,69.9,81.1,70.6z"/>
	<path class="st0" d="M81.9,70.7C81.9,70.7,81.9,70.7,81.9,70.7c0.1,0.2,0.1,0.3,0,0.4c-0.1,0.1-0.2,0-0.3,0c0,0,0,0-0.1-0.1
		c0,0,0-0.1,0-0.1c0-0.1,0-0.1,0-0.2C81.6,70.7,81.8,70.7,81.9,70.7z"/>
</g>
<g>
	<path class="st0" d="M35.2,37.5c0,0-1-0.3,1.1-1.8c2.2-1.4,11.3-1.7,11.3-1.7s3-2.5,3.4-2.6s0.3,1,0.6,1.7s1,2,1,2l3.4,0.6
		c0,0,1.1-0.7,1.4-0.7s1.4,0.9,1,1.6c1.4,0.1,1.4,0.1,1.4,0.1s3.8-2.2,5.2-2.2c1.4,0.1,0,1.1,0,1.1s-1.1,1.2-0.8,2.6
		c0.3,1.4,1.1,2,1,2.2c0,0.2-0.3,0.3-1.2,0c-0.9-0.3-3.3-2.1-3.3-2.1h-3c0,0-0.9,3.4-1.4,3c-0.6-0.3-2.5-2.3-2.5-2.3s-3.4,0.1-3,0.4
		c0.5,0.3,1.4,1.6,1,1.9c-0.4,0.4-0.8,1.3-1.3,1.2c-0.5-0.1-1.5-2.6-1.5-2.6S39.6,40.7,35.2,37.5z"/>
	<path class="st3" d="M47.6,34c1,0.3,2.1,0.3,3.1,0.6c0.6,0.2,1.3,0.3,1.9,0.4"/>
	<path class="st3" d="M56,35.6c0.5,0.1,0.8,0.2,1.2,0.4c0.6,0.2,1,0.4,1.1,0.5"/>
	<path class="st3" d="M57.9,38.4c-1,0.4-1.9,0.5-3,0.6c-0.2,0-0.6,0-0.8,0"/>
	<path class="st3" d="M49.2,40c0.4-0.1,0.9-0.3,1.3-0.4c0.2-0.1,0.3,0,0.5-0.1"/>
	<path class="st3" d="M60,36.6c0.2,0,0.3,0.2,0.5,0.3c0.2,0.2,0.4,0.4,0.5,0.7c0.1,0.3,0.1,0.7-0.1,0.8"/>
	<path class="st3" d="M48.3,34.2c0.5-0.4,1-0.9,1.4-1.4"/>
	<path class="st3" d="M48.9,34.3c0.5-0.3,0.7-0.5,1.1-0.9c0.4-0.4,0.7-0.8,0.8-1.4"/>
	<path class="st3" d="M49.6,34.4c0.4-0.3,0.8-0.6,1.2-0.9c0,0,0.1-0.1,0.1-0.2"/>
	<path class="st3" d="M50.3,34.5c0.2-0.2,0.2-0.2,0.5-0.3s0.4-0.3,0.5-0.6"/>
	<path class="st3" d="M51.1,34.7c0.2-0.2,0.4-0.3,0.5-0.5"/>
	<path class="st3" d="M51.6,34.8c0.1-0.1,0.4-0.3,0.4-0.5"/>
	<path class="st3" d="M49.6,40c0,0.1,0.1,0.2,0.2,0.3c0.4,0.5,0.6,1,0.8,1.6"/>
	<path class="st3" d="M49.9,39.8c0.3,0.5,0.9,0.9,1.1,1.5"/>
	<path class="st3" d="M50.5,39.7c0.1,0.2,0.2,0.3,0.3,0.4c0.3,0.3,0.5,0.6,0.7,0.9"/>
	<path class="st3" d="M50.7,39.6c0.2,0.2,0.4,0.4,0.6,0.6"/>
	<path class="st3" d="M54.7,39c0.3,0.8,0.9,1.2,1.5,1.7"/>
	<path class="st3" d="M55.3,39c0.3,0.4,0.5,0.7,0.9,1"/>
	<path class="st3" d="M56,38.9c0.3,0.4,0.5,0.7,0.8,1.1"/>
	<path class="st3" d="M56.5,38.7c0,0.1,0.1,0.2,0.2,0.3c0.1,0.1,0.2,0.3,0.2,0.4"/>
	<path class="st3" d="M57.1,38.7c0.1,0.2,0.2,0.4,0.2,0.7"/>
	<path class="st3" d="M56.6,35.8c0.3-0.1,0.4-0.1,0.6-0.4"/>
	<path class="st3" d="M57.1,35.9c0.2-0.1,0.3-0.3,0.4-0.5"/>
	<path class="st3" d="M57.4,36c0.2,0,0.3-0.2,0.4-0.3"/>
	<path class="st3" d="M57.8,36.2c0.1,0,0.2-0.2,0.3-0.3"/>
	<path class="st3" d="M60.4,36.8c1-0.6,2.1-0.9,3.2-1.3"/>
	<path class="st3" d="M60.8,37.2c0.2-0.2,0.4-0.3,0.6-0.3c0.8-0.3,1.6-0.5,2.4-0.6"/>
	<path class="st3" d="M61.1,37.5c0.8-0.1,1.6-0.2,2.4-0.2"/>
	<path class="st3" d="M61.1,37.8c0.8,0.2,1.7,0.2,2.6,0.2"/>
	<path class="st3" d="M61.1,38.2c1.1,0.4,2.1,0.7,3.2,1.1"/>
	<path class="st3" d="M39.5,34.8c0.7,1,1,2.3,0.6,3.5c-0.1,0.4-0.3,0.8-0.7,1"/>
	<path class="st2" d="M36.8,36.4c0,0.1,0,0.2,0,0.3c0,0.2,0.1,0.5,0.2,0.6c0.1,0,0.1,0.1,0.2,0.1c0.1,0,0.1,0,0.2,0.1
		c0.2,0,0.4-0.1,0.6-0.1c0,0,0.1,0,0.1-0.1c0.1-0.1,0.1-0.1,0.1-0.2c0-0.2,0.1-0.4,0-0.6C38,35.8,37,35.8,36.8,36.4z"/>
	<path class="st0" d="M37.6,36.5C37.6,36.5,37.7,36.6,37.6,36.5c0.1,0.2,0.1,0.3,0,0.4c-0.1,0.1-0.2,0-0.3,0c0,0,0,0-0.1-0.1
		c0,0,0-0.1,0-0.1c0-0.1,0-0.1,0-0.2C37.4,36.5,37.6,36.5,37.6,36.5z"/>
</g>
<g>
	<circle class="st4" cx="21" cy="29.3" r="3.4"/>
	<circle class="st4" cx="18.6" cy="42.2" r="3.4"/>
	<circle class="st4" cx="5" cy="46.4" r="3.4"/>
	<circle class="st4" cx="32.4" cy="5.8" r="2.8"/>
	<circle class="st4" cx="9.9" cy="31.5" r="1.6"/>
	<circle class="st4" cx="29.6" cy="23.3" r="1.6"/>
</g>
</svg>
