<?xml version="1.0" encoding="utf-8"?>
<!-- Generator: Adobe Illustrator 22.0.1, SVG Export Plug-In . SVG Version: 6.00 Build 0)  -->
<svg version="1.1" id="Layer_1" xmlns="http://www.w3.org/2000/svg" xmlns:xlink="http://www.w3.org/1999/xlink" x="0px" y="0px"
	 viewBox="0 0 220 120" style="enable-background:new 0 0 220 120;" xml:space="preserve">
<style type="text/css">
	.st0{fill:#FFFFFF;stroke:#010101;stroke-linecap:round;stroke-linejoin:round;stroke-miterlimit:10;}
	.st1{fill:none;stroke:#010101;stroke-linecap:round;stroke-linejoin:round;stroke-miterlimit:10;}
	.st2{fill:#010101;}
	.st3{fill:#FFFFFF;stroke:#231F20;stroke-miterlimit:10;}
	.st4{fill:#231F20;}
</style>
<g>
	<path class="st0" d="M-751.1-308.1c2.9-2.8,6.4-5.1,10.4-5.7c5.8-1,12,1.7,15.2,6.6c1.8,2.7,2.6,5.9,3.5,9c1.3,5,2.6,10.2,1.4,15.2
		c-0.5,2.4-1.6,4.7-2.7,6.9c-1.1,2.2-2.3,4.5-4.1,6.2c-1.8,1.8-4,3-6.3,3.9c-3.2,1.2-6.9,1.7-9.7-0.2c-1-0.7-1.9-1.7-2.7-2.7
		c-2.6-3.3-5.3-6.6-7.9-9.9c-0.5-0.6-1-1.3-1.3-2c-0.4-1.1-0.2-2.3-0.2-3.4c0.1-2.4-0.4-4.8-1-7.1c-0.5-1.9-1.9-4.6-1.5-6.6
		C-757.3-301.5-753.5-305.7-751.1-308.1z"/>
	<path class="st0" d="M-849.6-284.2c-0.3,7.5-0.7,15.1-1.2,22.6c-0.3,6-0.7,12-1,18c0,0.6-0.1,1.3-0.6,1.7c-0.5,0.4-1.1,0.3-1.7,0.2
		c-21.9-3.3-44.5-6.8-63.4-18.2c-2.2-1.3-4.3-2.8-6.1-4.6c-2.2-2.2-3.8-4.9-5.1-7.7c-4.3-9.2-5.7-20.4-1-29.5
		c2.8-5.5,7.6-9.8,12.9-13c5.3-3.2,11.2-5.3,17-7.3c2.5-0.9,5-1.7,7.6-2.3c4.9-1.1,9.9-1.4,14.9-1.5c4.8-0.2,9.5-0.3,14.3-0.3
		c2.4,0,4.8,0,7.1,0c1.8,0,5.1-0.6,6.8,0.1c2.5,1.1,0.8,9,0.7,11.4c-0.2,4.9-0.4,9.7-0.5,14.6C-849.2-294.8-849.4-289.5-849.6-284.2
		z"/>
	<path class="st1" d="M-895.3-287.3c-1.9,3.8-3,8.3-1.6,12.4c1.8,5,7,7.8,12,9.5c2,0.7,4,1.2,6.1,1.3c3.4,0,6.7-1.6,8.9-4.2
		s3.2-6.2,2.7-9.5c-0.4-3.3-2.1-6.3-4-9.1c-1.3-1.9-2.8-3.8-4.7-5c-3.1-1.9-7.7-2.1-11.1-0.8C-890.2-291.6-893.6-290.6-895.3-287.3z
		"/>
	<path class="st2" d="M-881.3-280.7c-1.3-0.1-2.8-0.1-3.8,0.8c-0.7,0.7-0.9,2-0.4,2.9c0.7,1.3,2.5,1.6,4,1.5c0.3,0,0.6-0.1,0.9-0.2
		c0.2-0.1,0.3-0.3,0.4-0.5c0.6-1.1,0.4-2.6-0.4-3.5c-0.8-0.9-2.3-1.2-3.4-0.8"/>
	<path class="st0" d="M-819.8-321.8c11.2,2.4,22.4,4.8,33,9.1c10.5,4.3,20.2,10.3,29.8,16.4c2.1,1.3,4.3,2.8,5.4,5
		c1.1,2.5,0.6,5.5-0.7,7.8c-1.4,2.3-3.5,4.2-5.6,5.9c-8.7,6.9-18.5,12.3-28.2,17.7c-7.9,4.4-15.8,8.8-24.2,12
		c-13.1,5.1-27.4,7.4-41.4,6.6c2.3-4.7,0.8-10.2,0.6-15.4c-0.1-3.9,0.6-7.8,1.1-11.7c1.9-15.3,0.1-30.9,2-46.3
		c0.3-2.5,0.7-5,0.6-7.5c-0.2-3.1-0.2-3.6,3.1-3.4c2.8,0.1,5.7,0.4,8.5,0.8C-830.6-324.1-825.2-323-819.8-321.8z"/>
	<path class="st0" d="M-777.4-316.9c1-0.3,2.1-0.5,3.1-0.3c1,0.2,1.8,0.8,2.6,1.4c0.3,0.2,0.6,0.4,0.8,0.7c0.3,0.4,0.3,0.9,0.3,1.4
		c0.1,1.3,0.2,2.8-0.5,4c-0.8,1.6-2.8,2.3-4.5,2.2c-2.1-0.1-8.2-2.2-8.8-4.5C-785.3-315.2-779.3-316.3-777.4-316.9z"/>
	<path class="st0" d="M-827.6-329.1c2.2-0.7,4.6-0.9,6.8-1.7c1-0.3,1.9-0.8,2.9-0.9c1-0.1,2.1,0,2.8,0.8c0.4,0.5,0.7,1.1,0.8,1.8
		c0.4,1.8,0.3,3.9-0.9,5.2c-1.5,1.6-4,1.6-6.2,1.3c-2.8-0.3-8-0.3-10.5-1.9C-834.3-326-829.3-328.6-827.6-329.1z"/>
	<path class="st0" d="M-796.9-244.8c2.6,1.3,5.5,1.9,8.4,2.4c3.7,0.5,7.5,0.8,11.2,0.8c1.7,0,3.5-0.1,5-0.8c0.6-0.3,1.1-0.7,1.4-1.2
		c0.2-0.5,0.2-1.1,0.2-1.7c-0.5-5.4-3.1-10.6-7.1-14.4c-1.3-1.3-3.2-2.4-4.9-1.8c-0.6,0.2-1.2,0.6-1.7,1c-4,3.1-8.8,5-13.4,7
		c-1.7,0.8-4.6,1.8-3.9,4.2C-801.3-247.4-798.6-245.7-796.9-244.8z"/>
	<path class="st0" d="M-757-261.7c0.7-0.1,1.5-0.2,2.1-0.6c1.1-0.8,1.5-2.3,1.5-3.6c0-2.2-0.8-4.5-2.3-6.2c-1.5-1.7-3.6-2.8-5.8-3
		c-0.4,0-1.6,0.1-1.2,0.1c1.2-0.1-0.6,0.4-0.9,0.6c-1.9,1.7-8.8,5.3-5.9,8.3C-766.9-263.4-760.8-261.4-757-261.7z"/>
	<path class="st1" d="M-844.2-309.4c3,1,5.7,3.5,6.3,6.6c0.1,0.4,0.1,0.7,0,1.1c-0.1,0.4-0.4,0.7-0.6,1c-0.8,0.9-1.5,1.8-2.5,2.5
		s-2.1,1.2-3.3,1.1"/>
	<path class="st1" d="M-825.4-293.8c2.3-0.1,4.5-1.1,6.1-2.7c0.4-0.4,0.7-0.8,0.9-1.3c0.2-0.5,0.2-1,0.2-1.5
		c-0.1-1.5-0.6-2.9-1.5-4.1c-1.4-1.8-4.6-4.1-7-3.2c-2.8,1.1-4.1,3.5-7.5,2.6"/>
	<path class="st1" d="M-815.3-300.4c1.3,0.5,2.5,1,3.6,1.7c1.1,0.7,2.1,1.7,2.6,3c0.3,0.9,0.4,1.9,0.3,2.9c-0.1,2-0.6,4-1.8,5.6
		s-3.1,2.7-5.1,2.5"/>
	<path class="st1" d="M-809.9-317c2,0.5,3.6,2.2,3.9,4.2c0.3,1.7-0.2,3.5-1.2,4.9c-1,1.4-2.4,2.5-3.9,3.3c-0.9,0.5-1.9,0.9-2.9,1
		c-1.2,0.1-2.3-0.1-3.5-0.4"/>
	<path class="st1" d="M-832.8-318.4c1.2,1.1,2.4,2.3,3.7,3.3c0.6,0.5,1.2,1,1.9,1.3c1.1,0.5,2.4,0.5,3.6,0.4c1.4,0,2.9-0.1,4.1-0.8
		s2.1-2.3,1.4-3.6"/>
	<path class="st1" d="M-836.6-322.7c-0.2,1.7,0.5,3.3,0.4,5c-0.1,2.9-2.4,5.5-5.2,6"/>
	<path class="st1" d="M-801.9-310.6c1.1-0.2,2.1,0.4,3,1.1c1.3,1.1,2.5,2.4,3.1,4c0.6,1.6,0.7,3.5-0.2,5c-1,1.9-3.2,2.8-5.2,3.6
		c-1.8,0.7-3.8,1.4-5.7,1"/>
	<path class="st1" d="M-793.1-302.2c1.3,0.5,2.6,1.2,3.6,2.1c0.9,0.8,1.6,1.7,1.8,2.8c0.2,1.5-0.8,3-1.9,4c-1.8,1.8-4.2,3.2-6.7,3.9
		"/>
	<path class="st1" d="M-802.8-292c1,1.2,2.1,2.4,2.7,3.8c0.6,1.4,0.8,3.1,0.2,4.5c-0.6,1.3-1.9,2.1-2.9,3.1
		c-0.9,0.8-1.6,1.7-2.6,2.2c-2.1,1.1-4.6,0.6-6.9,0"/>
	<path class="st1" d="M-816.4-279.7c1.9,0.3,3.1,2.4,2.9,4.3c-0.2,1.9-1.5,3.5-3,4.6c-1.6,1.1-3.6,1.6-5.5,1.6"/>
	<path class="st1" d="M-825.5-272.8c1.1,1.4,1.5,3.3,1,5c-0.5,1.7-1.9,3.1-3.6,3.6c-1.4,0.4-3,0.3-4.5,0.1"/>
	<path class="st1" d="M-843.7-271.4c0.7,2.2,1.3,4.8,0.1,6.8c-0.7,1.1-1.9,1.9-3.1,2.1"/>
	<path class="st1" d="M-837.4-266.2c1.5,0.7,2.9,1.8,3.5,3.3c0.7,1.8,0,3.9-1.4,5.2c-1.4,1.3-3.3,2-5.1,2.2"/>
	<path class="st1" d="M-845.7-258.7c1,0.5,1.7,1.4,2.1,2.5c0.4,1,0.4,2.2,0.4,3.3c0,1-0.1,2-0.5,2.9c-0.7,1.4-2.1,2.3-3.4,3.1"/>
	<path class="st1" d="M-805.7-275c0.3,1.9,1.4,3.5,1.9,5.3c0.5,2.2,0,4.7-1.5,6.5c-1.5,1.8-3.8,2.8-6.1,2.7"/>
	<path class="st1" d="M-817.4-266c0.9,0.5,1.7,1.1,2.4,1.7c0.6,0.5,1.2,1.1,1.5,1.9c0.5,1.2,0.1,2.5-0.3,3.7
		c-0.5,1.3-1.2,2.5-2.3,3.3c-1.1,0.9-2.5,1.3-3.8,1"/>
	<path class="st1" d="M-827.1-258c1.4,0.7,2.8,1.5,3.4,2.9c0.3,0.7,0.3,1.4,0.3,2.1c-0.3,3.5-3.2,6.7-6.7,7.3"/>
	<path class="st1" d="M-838.2-250.6c1.4,0.2,2.5,1.5,2.8,2.8c0.3,1.4,0,2.8-0.3,4.2"/>
	<path class="st1" d="M-795.3-286c0.5,0.8,1,1.7,1.6,2.5c0.9,1.4,1.8,2.9,1.9,4.6c0.1,2.3-1.4,4.4-3.2,5.8c-1.5,1.2-3.4,2-5.3,2.3"
		/>
	<path class="st1" d="M-784-298.1c1.7,0.4,3.3,1.3,4.5,2.6c1.1,1.3,1.7,3.2,1.4,4.9c-0.2,1.2-0.9,2.4-1.7,3.4
		c-2.1,2.7-5.2,4.8-8.6,4.8"/>
	<path class="st1" d="M-780.8-306.8c-0.3,2.5-2.3,4.7-4.8,5.2c-0.5,0.1-1.1,0.1-1.6,0c-0.6-0.2-1.1-0.6-1.5-1
		c-0.7-0.7-1.2-1.5-1.6-2.5"/>
	<path class="st1" d="M-771.5-302.2c0.1,1.8-0.2,3.7-0.9,5.4c-0.2,0.4-0.4,0.8-0.7,1.1c-0.9,0.9-2.3,0.9-3.6,0.8"/>
	<path class="st1" d="M-764.4-294.2c0.4,1.2,0.6,2.6,0,3.7c-0.5,1-1.6,1.6-2.8,1.9c-1.4,0.4-3,0.4-4.4,0"/>
	<path class="st1" d="M-774.4-289.8c1,0.5,1.9,1.1,2.8,1.8c0.8,0.6,1.6,1.2,2.2,2.1s0.9,1.9,0.6,2.9c-0.2,0.9-0.9,1.6-1.6,2.2
		c-1.3,1-2.9,1.7-4.5,2.3c-1.2,0.5-2.5,1-3.7,1.5"/>
	<path class="st1" d="M-784.1-278.2c0.5,0.8,0.9,1.7,1.4,2.5c0.7,1.3,1.5,2.8,1.2,4.3c-0.1,0.8-0.6,1.5-1,2.1
		c-0.5,0.8-1.1,1.5-1.9,2.1c-2.2,1.7-5.2,1.5-7.8,2.1"/>
	<path class="st1" d="M-796.6-266.5c1.8,0.8,2.6,3.1,2.1,5s-2.3,3.3-4.2,3.9c-1.9,0.6-3.9,0.6-5.9,0.3"/>
	<path class="st1" d="M-807.2-257.3c1.2,0.3,2.2,1.4,2.4,2.6c0.2,1.2-0.5,2.6-1.6,3.2"/>
	<path class="st1" d="M-777-274.1c1.2,0.4,2.4,0.9,3.5,1.5c0.6,0.3,1.3,0.8,1.3,1.6"/>
	<path class="st1" d="M-736.7-301.8c-3.4,4.3-8.4,7.2-13.9,8"/>
	<path class="st1" d="M-735.2-291.4c-3.9,1-7.9,1.3-11.9,0.9"/>
	<path class="st1" d="M-748.5-284.7c4.5,0.7,8.6,3.8,10.6,7.9"/>
	<path class="st1" d="M-820.1-326.5c-2,1.3-4.3,2-6.7,2.2"/>
	<path class="st1" d="M-824.9-327.5c-0.6,0.8-1.4,1.5-2.3,1.9"/>
	<path class="st1" d="M-776-314.9c-1.4,0.9-2.9,1.6-4.4,2.1"/>
	<path class="st1" d="M-775.5-312.2c-1.4,0.5-2.8,0.7-4.2,0.7c0.2,0,0.3,0,0.5,0"/>
	<path class="st1" d="M-767.6-268.8c0.6,1.8,2.2,3.2,4.1,3.4"/>
	<path class="st1" d="M-766.1-269.4c2.1,0.8,4.3,1.2,6.5,1.3"/>
	<path class="st1" d="M-761-271.5c0.8,0.5,1.7,1,2.5,1.6"/>
	<path class="st1" d="M-798.2-251.7c0.8,1.2,1.8,2.2,3,2.9c2,1.2,4.5,1.6,6.8,1.9"/>
	<path class="st1" d="M-791.9-252.9c3.3,1.7,6.6,3.7,9.7,5.8"/>
	<path class="st1" d="M-787.2-257.1c2.2,0.1,4.3,1.2,5.7,2.9"/>
	<g>
		<path class="st1" d="M-825.5-291.9c2.8,1.8,5.3,4.5,5.4,7.8c0.1,3.7-2.7,6.9-6,8.5c-6.5,3.2-14.3,1.7-21-1.1
			c-0.5-0.2-1-0.4-1.4-0.8c-0.6-0.7-0.8-1.6-0.8-2.5c-0.2-3.3,0.2-6.6,1.3-9.6c1.1-3.1,2.2-3.8,5.4-4.7
			C-836.9-295.9-830.5-295.1-825.5-291.9z"/>
		<path class="st1" d="M-847.3-287.6c4.2-2.4,9.3-3.2,14-2.3"/>
		<path class="st1" d="M-847.3-284.8c2.7-0.2,5.3-0.1,8,0.4"/>
		<path class="st1" d="M-847.5-281.2c3.3,2.1,7.4,2.6,11.3,2.6"/>
	</g>
</g>
<g>
	<path class="st0" d="M-75.4-448.6c2.1-2.1,4.7-3.7,7.6-4.2c4.2-0.7,8.8,1.3,11.1,4.9c1.3,2,1.9,4.3,2.5,6.6c1,3.7,1.9,7.5,1.1,11.2
		c-0.4,1.8-1.2,3.4-2,5.1c-0.8,1.6-1.7,3.3-3,4.6c-1.3,1.3-2.9,2.2-4.7,2.8c-2.3,0.9-5.1,1.3-7.1-0.1c-0.8-0.5-1.4-1.3-1.9-2
		c-1.9-2.4-3.9-4.8-5.8-7.2c-0.4-0.5-0.7-0.9-0.9-1.5c-0.3-0.8-0.1-1.7-0.1-2.5c0.1-1.8-0.3-3.5-0.7-5.2c-0.4-1.4-1.4-3.4-1.1-4.9
		C-80-443.8-77.3-446.9-75.4-448.6z"/>
	<path class="st0" d="M-147.7-431.1c-0.2,5.5-0.5,11.1-0.9,16.6c-0.2,4.4-0.5,8.8-0.7,13.2c0,0.5-0.1,1-0.4,1.3
		c-0.3,0.3-0.8,0.2-1.3,0.1c-16.1-2.4-32.6-5-46.5-13.4c-1.6-1-3.2-2-4.5-3.3c-1.6-1.6-2.8-3.6-3.7-5.7c-3.2-6.8-4.2-15-0.8-21.7
		c2.1-4,5.6-7.2,9.4-9.5c3.9-2.3,8.2-3.9,12.5-5.4c1.8-0.6,3.7-1.2,5.5-1.7c3.6-0.8,7.3-1,10.9-1.1c3.5-0.1,7-0.2,10.5-0.2
		c1.7,0,3.5,0,5.2,0c1.3,0,3.8-0.5,5,0.1c1.9,0.8,0.6,6.6,0.5,8.4c-0.1,3.6-0.3,7.1-0.4,10.7C-147.4-438.8-147.5-435-147.7-431.1z"
		/>
	<path class="st1" d="M-181.2-433.4c-1.4,2.8-2.2,6.1-1.1,9.1c1.3,3.6,5.2,5.7,8.8,7c1.4,0.5,2.9,0.9,4.4,0.9c2.5,0,4.9-1.2,6.5-3.1
		c1.6-1.9,2.3-4.5,2-7c-0.3-2.4-1.6-4.6-3-6.6c-1-1.4-2-2.8-3.5-3.6c-2.3-1.4-5.6-1.5-8.1-0.6C-177.5-436.5-180-435.8-181.2-433.4z"
		/>
	<path class="st2" d="M-170.9-428.5c-1-0.1-2.1-0.1-2.8,0.6c-0.5,0.5-0.7,1.5-0.3,2.1c0.5,1,1.8,1.2,2.9,1.1c0.2,0,0.5,0,0.7-0.2
		c0.1-0.1,0.2-0.2,0.3-0.4c0.4-0.8,0.3-1.9-0.3-2.5c-0.6-0.7-1.7-0.9-2.5-0.6"/>
	<path class="st0" d="M-125.8-458.7c8.2,1.8,16.5,3.5,24.2,6.7c7.7,3.1,14.8,7.6,21.8,12c1.5,1,3.2,2,3.9,3.7c0.8,1.8,0.5,4-0.5,5.7
		c-1,1.7-2.5,3.1-4.1,4.3c-6.4,5.1-13.5,9-20.7,13c-5.8,3.2-11.6,6.4-17.8,8.8c-9.6,3.7-20.1,5.4-30.4,4.8c1.7-3.4,0.6-7.5,0.5-11.3
		c-0.1-2.9,0.5-5.7,0.8-8.6c1.4-11.2,0.1-22.7,1.5-33.9c0.2-1.8,0.5-3.7,0.4-5.5c-0.1-2.3-0.1-2.6,2.3-2.5c2.1,0.1,4.2,0.3,6.2,0.6
		C-133.7-460.4-129.8-459.5-125.8-458.7z"/>
	<path class="st0" d="M-94.7-455c0.7-0.2,1.5-0.4,2.3-0.2c0.7,0.2,1.3,0.6,1.9,1.1c0.2,0.2,0.4,0.3,0.6,0.5c0.2,0.3,0.2,0.7,0.2,1
		c0.1,1,0.1,2-0.3,2.9c-0.6,1.1-2,1.7-3.3,1.6c-1.6-0.1-6-1.6-6.5-3.3C-100.5-453.8-96.2-454.7-94.7-455z"/>
	<path class="st0" d="M-131.5-464c1.6-0.5,3.4-0.7,5-1.2c0.7-0.2,1.4-0.6,2.1-0.7c0.7-0.1,1.6,0,2.1,0.6c0.3,0.3,0.5,0.8,0.6,1.3
		c0.3,1.3,0.2,2.8-0.7,3.8c-1.1,1.2-2.9,1.2-4.5,1c-2.1-0.2-5.9-0.2-7.7-1.4C-136.5-461.8-132.8-463.6-131.5-464z"/>
	<path class="st0" d="M-109.1-402.2c1.9,1,4,1.4,6.1,1.7c2.7,0.4,5.5,0.6,8.2,0.6c1.2,0,2.5-0.1,3.7-0.6c0.4-0.2,0.8-0.5,1-0.9
		c0.2-0.4,0.2-0.8,0.1-1.3c-0.4-4-2.3-7.8-5.2-10.5c-1-0.9-2.3-1.8-3.6-1.3c-0.5,0.2-0.8,0.5-1.2,0.8c-3,2.3-6.4,3.7-9.8,5.2
		c-1.3,0.6-3.3,1.3-2.9,3.1C-112.3-404.1-110.3-402.8-109.1-402.2z"/>
	<path class="st0" d="M-79.8-414.6c0.5,0,1.1-0.2,1.5-0.5c0.8-0.6,1.1-1.6,1.1-2.6c0-1.6-0.6-3.3-1.7-4.5c-1.1-1.2-2.6-2.1-4.3-2.2
		c-0.3,0-1.1,0.1-0.9,0.1c0.9-0.1-0.5,0.3-0.7,0.4c-1.4,1.2-6.5,3.9-4.3,6.1C-87.1-415.8-82.6-414.4-79.8-414.6z"/>
	<path class="st1" d="M-143.7-449.6c2.2,0.8,4.2,2.5,4.6,4.8c0,0.3,0.1,0.5,0,0.8c-0.1,0.3-0.3,0.5-0.5,0.7
		c-0.6,0.7-1.1,1.3-1.8,1.8c-0.7,0.5-1.6,0.9-2.4,0.8"/>
	<path class="st1" d="M-129.9-438.1c1.7-0.1,3.3-0.8,4.5-2c0.3-0.3,0.5-0.6,0.7-1c0.1-0.3,0.2-0.7,0.1-1.1c0-1.1-0.4-2.2-1.1-3
		c-1-1.3-3.4-3-5.1-2.3c-2,0.8-3,2.5-5.5,1.9"/>
	<path class="st1" d="M-122.6-442.9c0.9,0.4,1.8,0.7,2.7,1.2c0.8,0.5,1.5,1.3,1.9,2.2c0.3,0.7,0.3,1.4,0.2,2.1
		c-0.1,1.4-0.4,2.9-1.3,4.1s-2.3,2-3.7,1.8"/>
	<path class="st1" d="M-118.6-455.1c1.4,0.4,2.6,1.6,2.9,3.1c0.2,1.2-0.2,2.5-0.9,3.6c-0.7,1-1.7,1.8-2.8,2.4
		c-0.7,0.4-1.4,0.6-2.1,0.7c-0.9,0.1-1.7-0.1-2.5-0.3"/>
	<path class="st1" d="M-135.4-456.1c0.9,0.8,1.8,1.7,2.7,2.5c0.4,0.4,0.9,0.7,1.4,1c0.8,0.4,1.7,0.3,2.6,0.3c1,0,2.1-0.1,3-0.6
		c0.9-0.5,1.5-1.7,1.1-2.6"/>
	<path class="st1" d="M-138.2-459.3c-0.1,1.2,0.3,2.4,0.3,3.7c-0.1,2.1-1.8,4-3.8,4.4"/>
	<path class="st1" d="M-112.7-450.4c0.8-0.2,1.6,0.3,2.2,0.8c1,0.8,1.8,1.8,2.3,3c0.5,1.2,0.5,2.6-0.1,3.7c-0.8,1.4-2.3,2.1-3.8,2.7
		c-1.3,0.5-2.8,1.1-4.2,0.7"/>
	<path class="st1" d="M-106.2-444.3c1,0.3,1.9,0.9,2.6,1.5c0.6,0.6,1.2,1.3,1.3,2.1c0.1,1.1-0.6,2.2-1.4,3c-1.3,1.3-3.1,2.3-4.9,2.8
		"/>
	<path class="st1" d="M-113.3-436.8c0.7,0.9,1.5,1.7,2,2.8c0.5,1,0.6,2.3,0.1,3.3c-0.5,0.9-1.4,1.6-2.2,2.3
		c-0.6,0.6-1.2,1.2-1.9,1.6c-1.5,0.8-3.4,0.4-5.1,0"/>
	<path class="st1" d="M-123.3-427.7c1.4,0.3,2.3,1.8,2.2,3.1c-0.1,1.4-1.1,2.6-2.2,3.4c-1.2,0.8-2.6,1.2-4,1.2"/>
	<path class="st1" d="M-130-422.7c0.8,1,1.1,2.4,0.7,3.6c-0.4,1.2-1.4,2.3-2.6,2.6c-1.1,0.3-2.2,0.2-3.3,0"/>
	<path class="st1" d="M-143.3-421.7c0.5,1.6,0.9,3.5,0,4.9c-0.5,0.8-1.4,1.4-2.3,1.5"/>
	<path class="st1" d="M-138.7-417.9c1.1,0.5,2.1,1.3,2.6,2.4c0.5,1.3,0,2.8-1,3.8c-1,1-2.4,1.4-3.8,1.6"/>
	<path class="st1" d="M-144.8-412.4c0.7,0.3,1.2,1,1.5,1.8c0.3,0.8,0.3,1.6,0.3,2.4c0,0.7-0.1,1.5-0.4,2.2c-0.5,1-1.5,1.7-2.5,2.2"
		/>
	<path class="st1" d="M-115.5-424.3c0.2,1.4,1,2.6,1.4,3.9c0.4,1.6,0,3.5-1.1,4.8s-2.8,2.1-4.5,2"/>
	<path class="st1" d="M-124-417.7c0.6,0.4,1.2,0.8,1.8,1.3c0.4,0.4,0.9,0.8,1.1,1.4c0.3,0.9,0.1,1.8-0.2,2.7
		c-0.4,0.9-0.9,1.8-1.7,2.4c-0.8,0.6-1.8,1-2.8,0.7"/>
	<path class="st1" d="M-131.2-411.9c1,0.5,2.1,1.1,2.5,2.1c0.2,0.5,0.2,1,0.2,1.5c-0.2,2.6-2.3,4.9-4.9,5.3"/>
	<path class="st1" d="M-139.3-406.5c1,0.1,1.8,1.1,2.1,2.1c0.2,1,0,2.1-0.2,3.1"/>
	<path class="st1" d="M-107.9-432.4c0.4,0.6,0.8,1.2,1.1,1.8c0.6,1,1.3,2.1,1.4,3.3c0.1,1.7-1,3.2-2.4,4.2c-1.1,0.9-2.5,1.4-3.9,1.7
		"/>
	<path class="st1" d="M-99.6-441.3c1.3,0.3,2.5,0.9,3.3,1.9c0.8,1,1.3,2.3,1,3.6c-0.2,0.9-0.7,1.7-1.3,2.5c-1.5,2-3.8,3.5-6.3,3.5"
		/>
	<path class="st1" d="M-97.3-447.7c-0.2,1.8-1.7,3.5-3.5,3.8c-0.4,0.1-0.8,0.1-1.1,0c-0.4-0.1-0.8-0.4-1.1-0.7
		c-0.5-0.5-0.9-1.1-1.2-1.8"/>
	<path class="st1" d="M-90.4-444.3c0.1,1.3-0.1,2.7-0.6,3.9c-0.1,0.3-0.3,0.6-0.5,0.8c-0.6,0.7-1.7,0.7-2.6,0.6"/>
	<path class="st1" d="M-85.2-438.4c0.3,0.9,0.4,1.9,0,2.7c-0.4,0.7-1.2,1.2-2,1.4c-1.1,0.3-2.2,0.3-3.2,0"/>
	<path class="st1" d="M-92.6-435.2c0.7,0.4,1.4,0.8,2.1,1.3c0.6,0.4,1.2,0.9,1.6,1.5c0.4,0.6,0.6,1.4,0.4,2.1
		c-0.2,0.7-0.7,1.2-1.2,1.6c-1,0.8-2.1,1.2-3.3,1.7c-0.9,0.4-1.8,0.7-2.7,1.1"/>
	<path class="st1" d="M-99.7-426.7c0.3,0.6,0.7,1.2,1,1.9c0.5,1,1.1,2,0.9,3.1c-0.1,0.6-0.4,1.1-0.7,1.6c-0.4,0.6-0.8,1.1-1.4,1.6
		c-1.6,1.2-3.8,1.1-5.7,1.6"/>
	<path class="st1" d="M-108.8-418.1c1.3,0.6,1.9,2.3,1.5,3.7c-0.4,1.4-1.7,2.4-3.1,2.9c-1.4,0.5-2.9,0.4-4.3,0.2"/>
	<path class="st1" d="M-116.6-411.4c0.9,0.2,1.6,1,1.8,1.9s-0.3,1.9-1.1,2.3"/>
	<path class="st1" d="M-94.4-423.7c0.9,0.3,1.7,0.7,2.6,1.1c0.5,0.2,1,0.6,0.9,1.1"/>
	<path class="st1" d="M-64.9-444c-2.5,3.2-6.2,5.3-10.2,5.8"/>
	<path class="st1" d="M-63.8-436.4c-2.9,0.7-5.8,1-8.8,0.7"/>
	<path class="st1" d="M-73.6-431.5c3.3,0.5,6.3,2.8,7.7,5.8"/>
	<path class="st1" d="M-126-462.1c-1.5,0.9-3.2,1.5-4.9,1.6"/>
	<path class="st1" d="M-129.6-462.8c-0.5,0.6-1,1.1-1.7,1.4"/>
	<path class="st1" d="M-93.7-453.6c-1,0.6-2.1,1.1-3.2,1.5"/>
	<path class="st1" d="M-93.3-451.6c-1,0.4-2,0.5-3.1,0.5c0.1,0,0.2,0,0.4,0"/>
	<path class="st1" d="M-87.5-419.8c0.4,1.3,1.6,2.3,3,2.5"/>
	<path class="st1" d="M-86.4-420.2c1.5,0.6,3.1,0.9,4.7,0.9"/>
	<path class="st1" d="M-82.7-421.8c0.6,0.4,1.2,0.8,1.9,1.2"/>
	<path class="st1" d="M-110-407.3c0.6,0.9,1.3,1.6,2.2,2.1c1.5,0.9,3.3,1.1,5,1.4"/>
	<path class="st1" d="M-105.4-408.1c2.4,1.3,4.8,2.7,7.1,4.2"/>
	<path class="st1" d="M-101.9-411.2c1.6,0.1,3.2,0.9,4.2,2.1"/>
	<g>
		<path class="st1" d="M-130-436.7c2,1.3,3.9,3.3,4,5.7c0.1,2.7-2,5-4.4,6.2c-4.8,2.3-10.5,1.2-15.4-0.8c-0.4-0.2-0.7-0.3-1-0.6
			c-0.5-0.5-0.6-1.2-0.6-1.9c-0.2-2.4,0.2-4.8,1-7.1c0.8-2.3,1.6-2.8,4-3.4C-138.3-439.7-133.7-439-130-436.7z"/>
		<path class="st1" d="M-146-433.6c3.1-1.8,6.8-2.4,10.3-1.7"/>
		<path class="st1" d="M-146-431.5c1.9-0.2,3.9-0.1,5.8,0.3"/>
		<path class="st1" d="M-146.2-428.9c2.4,1.5,5.4,1.9,8.3,1.9"/>
	</g>
</g>
<g>
	<path class="st0" d="M35.6,83c-2.8,2.8-6.3,5-10.2,5.7c-5.7,1-11.8-1.7-15-6.5c-1.8-2.7-2.6-5.8-3.4-8.9
		c-1.3-4.9-2.5-10.1-1.4-15.1c0.5-2.4,1.6-4.6,2.7-6.8c1.1-2.2,2.3-4.4,4-6.1c1.7-1.7,4-2.9,6.3-3.8c3.1-1.2,6.9-1.7,9.6,0.2
		c1,0.7,1.8,1.7,2.6,2.7c2.6,3.3,5.2,6.5,7.8,9.8c0.5,0.6,1,1.3,1.3,2c0.4,1.1,0.2,2.2,0.2,3.4c-0.1,2.4,0.4,4.7,1,7
		c0.5,1.9,1.8,4.6,1.5,6.6C41.8,76.4,38.1,80.6,35.6,83z"/>
	<path class="st0" d="M132.9,59.4c0.3-7.5,0.7-14.9,1.1-22.3c0.3-5.9,0.7-11.8,1-17.8c0-0.6,0.1-1.3,0.6-1.7
		c0.5-0.4,1.1-0.3,1.7-0.2c21.6,3.2,43.9,6.7,62.6,18c2.2,1.3,4.3,2.7,6,4.5c2.1,2.2,3.7,4.9,5,7.6c4.3,9.1,5.6,20.2,1,29.2
		c-2.8,5.4-7.5,9.7-12.7,12.9c-5.2,3.1-11,5.2-16.8,7.2c-2.5,0.8-4.9,1.7-7.5,2.3c-4.8,1.1-9.8,1.3-14.7,1.5
		c-4.7,0.2-9.4,0.3-14.1,0.3c-2.4,0-4.7,0-7.1,0c-1.8,0-5.1,0.6-6.7-0.1c-2.5-1.1-0.8-8.9-0.7-11.3c0.2-4.8,0.4-9.6,0.5-14.4
		C132.5,69.8,132.7,64.6,132.9,59.4z"/>
	<path class="st1" d="M178.1,62.4c1.9-3.8,3-8.2,1.5-12.2c-1.8-4.9-7-7.7-11.9-9.4c-1.9-0.7-3.9-1.2-6-1.2c-3.4,0-6.7,1.6-8.8,4.1
		s-3.1,6.1-2.7,9.4c0.4,3.3,2.1,6.2,4,9c1.3,1.9,2.7,3.7,4.7,4.9c3.1,1.9,7.6,2.1,11,0.8C173.1,66.6,176.4,65.7,178.1,62.4z"/>
	<path class="st2" d="M164.3,55.9c1.3,0.1,2.8,0.1,3.7-0.8c0.7-0.7,0.9-2,0.4-2.9c-0.7-1.3-2.5-1.6-4-1.5c-0.3,0-0.6,0.1-0.9,0.2
		c-0.2,0.1-0.3,0.3-0.4,0.5c-0.6,1.1-0.4,2.5,0.4,3.4c0.8,0.9,2.2,1.2,3.4,0.7"/>
	<path class="st0" d="M103.5,96.5c-11.1-2.4-22.2-4.8-32.6-9C60.5,83.3,51,77.3,41.5,71.3c-2.1-1.3-4.3-2.7-5.3-5
		c-1.1-2.4-0.6-5.4,0.7-7.7c1.3-2.3,3.4-4.1,5.5-5.8c8.6-6.8,18.2-12.2,27.8-17.5c7.8-4.3,15.6-8.7,23.9-11.9c13-5,27-7.3,40.9-6.5
		c-2.3,4.6-0.8,10.1-0.6,15.3c0.1,3.9-0.6,7.7-1.1,11.6c-1.9,15.1-0.1,30.6-2,45.7c-0.3,2.5-0.7,4.9-0.6,7.4c0.2,3,0.2,3.5-3,3.4
		c-2.8-0.1-5.6-0.4-8.4-0.8C114.1,98.8,108.8,97.7,103.5,96.5z"/>
	<path class="st0" d="M61.6,91.6c-1,0.3-2.1,0.5-3.1,0.3c-1-0.2-1.8-0.8-2.6-1.4c-0.3-0.2-0.6-0.4-0.7-0.7c-0.3-0.4-0.3-0.9-0.3-1.4
		c-0.1-1.3-0.2-2.7,0.5-3.9c0.8-1.5,2.7-2.2,4.5-2.1c2.1,0.1,8.1,2.2,8.7,4.5C69.4,90,63.5,91.1,61.6,91.6z"/>
	<path class="st0" d="M111.2,103.7c-2.2,0.7-4.5,0.9-6.7,1.6c-0.9,0.3-1.9,0.7-2.9,0.9s-2.1,0-2.8-0.8c-0.4-0.5-0.7-1.1-0.8-1.7
		c-0.4-1.8-0.3-3.8,0.9-5.1c1.5-1.6,4-1.6,6.1-1.3c2.8,0.3,7.9,0.3,10.3,1.9C117.8,100.7,112.9,103.2,111.2,103.7z"/>
	<path class="st0" d="M80.9,20.4c-2.6-1.3-5.4-1.9-8.3-2.3c-3.7-0.5-7.4-0.8-11.1-0.8c-1.7,0-3.4,0.1-4.9,0.8
		c-0.6,0.3-1.1,0.7-1.3,1.2c-0.2,0.5-0.2,1.1-0.2,1.7c0.5,5.4,3.1,10.5,7,14.2c1.3,1.2,3.2,2.4,4.9,1.8c0.6-0.2,1.1-0.6,1.7-1
		c4-3,8.6-4.9,13.2-6.9c1.7-0.8,4.5-1.8,3.9-4.2C85.2,23,82.5,21.3,80.9,20.4z"/>
	<path class="st0" d="M41.5,37.2c-0.7,0.1-1.5,0.2-2.1,0.6C38.4,38.6,38,40,38,41.4c0,2.2,0.8,4.4,2.3,6.1c1.5,1.7,3.6,2.8,5.8,3
		c0.4,0,1.5-0.1,1.2-0.1c-1.2,0.1,0.6-0.4,0.9-0.6c1.9-1.6,8.7-5.3,5.8-8.2C51.3,38.8,45.3,36.9,41.5,37.2z"/>
	<path class="st1" d="M127.6,84.3c-3-1-5.6-3.4-6.2-6.5c-0.1-0.4-0.1-0.7,0-1.1c0.1-0.4,0.4-0.7,0.6-1c0.8-0.9,1.5-1.8,2.5-2.5
		s2.1-1.1,3.3-1.1"/>
	<path class="st1" d="M109.1,68.9c-2.2,0.1-4.4,1.1-6,2.7c-0.4,0.4-0.7,0.8-0.9,1.3c-0.2,0.5-0.2,1-0.2,1.5c0.1,1.5,0.6,2.9,1.5,4
		c1.4,1.8,4.6,4,6.9,3.1c2.7-1.1,4-3.4,7.4-2.6"/>
	<path class="st1" d="M99.1,75.3c-1.2-0.5-2.5-1-3.6-1.7s-2.1-1.7-2.5-3c-0.3-0.9-0.4-1.9-0.3-2.9c0.1-2,0.6-3.9,1.8-5.5
		c1.2-1.6,3.1-2.6,5-2.4"/>
	<path class="st1" d="M93.7,91.7c-1.9-0.5-3.5-2.2-3.9-4.2c-0.3-1.7,0.2-3.4,1.2-4.8c1-1.4,2.3-2.4,3.8-3.2c0.9-0.5,1.8-0.9,2.8-1
		c1.2-0.1,2.3,0.1,3.4,0.4"/>
	<path class="st1" d="M116.4,93.1c-1.2-1.1-2.4-2.2-3.6-3.3c-0.6-0.5-1.2-1-1.9-1.3c-1.1-0.5-2.3-0.5-3.5-0.4
		c-1.4,0-2.9,0.1-4.1,0.8c-1.2,0.7-2,2.3-1.4,3.5"/>
	<path class="st1" d="M120.2,97.4c0.2-1.6-0.5-3.3-0.4-4.9c0.1-2.8,2.4-5.5,5.2-5.9"/>
	<path class="st1" d="M85.8,85.4c-1.1,0.2-2.1-0.4-2.9-1.1c-1.3-1.1-2.5-2.4-3.1-4c-0.6-1.6-0.6-3.5,0.2-4.9c1-1.9,3.1-2.8,5.1-3.6
		c1.8-0.7,3.7-1.4,5.6-1"/>
	<path class="st1" d="M77.1,77.2c-1.3-0.5-2.5-1.2-3.6-2.1c-0.8-0.7-1.6-1.7-1.7-2.8c-0.2-1.5,0.8-2.9,1.8-4
		c1.8-1.8,4.1-3.1,6.6-3.8"/>
	<path class="st1" d="M86.7,67c-1-1.2-2-2.3-2.7-3.7c-0.6-1.4-0.8-3.1-0.2-4.4c0.6-1.3,1.9-2.1,2.9-3.1c0.8-0.8,1.6-1.6,2.6-2.2
		c2-1.1,4.6-0.6,6.8,0"/>
	<path class="st1" d="M100.2,54.9c-1.8-0.3-3.1-2.4-2.9-4.2c0.2-1.9,1.4-3.5,3-4.5c1.6-1.1,3.5-1.6,5.4-1.6"/>
	<path class="st1" d="M109.2,48.1c-1.1-1.3-1.5-3.2-1-4.9c0.5-1.7,1.9-3,3.5-3.5c1.4-0.4,3-0.3,4.4-0.1"/>
	<path class="st1" d="M127.1,46.7c-0.7-2.2-1.3-4.7-0.1-6.7c0.7-1.1,1.8-1.8,3.1-2"/>
	<path class="st1" d="M120.9,41.5c-1.4-0.7-2.9-1.7-3.4-3.3c-0.7-1.7,0-3.8,1.4-5.1c1.3-1.3,3.2-1.9,5.1-2.2"/>
	<path class="st1" d="M129.1,34.1c-1-0.5-1.7-1.4-2.1-2.4s-0.4-2.1-0.4-3.2c0-1,0.1-2,0.5-2.9c0.7-1.4,2-2.2,3.3-3"/>
	<path class="st1" d="M89.6,50.2c-0.3-1.8-1.4-3.5-1.8-5.3c-0.5-2.2,0-4.7,1.5-6.4c1.4-1.8,3.7-2.8,6-2.7"/>
	<path class="st1" d="M101.1,41.4c-0.9-0.5-1.7-1.1-2.4-1.7c-0.6-0.5-1.2-1.1-1.5-1.8c-0.5-1.2-0.1-2.5,0.3-3.6
		c0.5-1.2,1.2-2.4,2.3-3.3c1-0.8,2.5-1.3,3.8-1"/>
	<path class="st1" d="M110.8,33.5c-1.3-0.7-2.8-1.5-3.4-2.9c-0.3-0.6-0.3-1.4-0.2-2.1c0.3-3.5,3.2-6.6,6.6-7.2"/>
	<path class="st1" d="M121.7,26.2c-1.4-0.2-2.5-1.4-2.8-2.8c-0.3-1.4,0-2.8,0.3-4.2"/>
	<path class="st1" d="M79.3,61.1c-0.5-0.8-1-1.6-1.5-2.5c-0.9-1.4-1.8-2.9-1.9-4.5c-0.1-2.3,1.4-4.4,3.2-5.7
		c1.5-1.2,3.3-1.9,5.2-2.3"/>
	<path class="st1" d="M68.2,73.1c-1.7-0.4-3.3-1.2-4.4-2.6c-1.1-1.3-1.7-3.1-1.4-4.9c0.2-1.2,0.9-2.3,1.7-3.3
		c2.1-2.6,5.1-4.8,8.5-4.7"/>
	<path class="st1" d="M65,81.7c0.3-2.5,2.3-4.7,4.7-5.1c0.5-0.1,1-0.1,1.5,0c0.6,0.2,1.1,0.6,1.5,1c0.7,0.7,1.2,1.5,1.6,2.4"/>
	<path class="st1" d="M55.8,77.2c-0.1-1.8,0.2-3.6,0.9-5.3c0.2-0.4,0.4-0.8,0.7-1.1c0.9-0.9,2.3-0.9,3.5-0.8"/>
	<path class="st1" d="M48.8,69.3c-0.4-1.2-0.6-2.6,0-3.7c0.5-1,1.6-1.6,2.7-1.9c1.4-0.4,2.9-0.4,4.4,0"/>
	<path class="st1" d="M58.7,64.9c-1-0.5-1.9-1.1-2.8-1.7c-0.8-0.6-1.6-1.2-2.2-2.1c-0.6-0.8-0.9-1.9-0.6-2.8
		c0.2-0.9,0.9-1.6,1.6-2.2c1.3-1,2.9-1.6,4.4-2.2c1.2-0.5,2.5-1,3.7-1.4"/>
	<path class="st1" d="M68.3,53.4c-0.5-0.8-0.9-1.7-1.4-2.5c-0.7-1.3-1.5-2.8-1.2-4.2c0.1-0.8,0.5-1.5,1-2.1c0.5-0.8,1.1-1.5,1.8-2.1
		c2.1-1.6,5.1-1.4,7.7-2.1"/>
	<path class="st1" d="M80.6,41.9c-1.8-0.8-2.6-3.1-2-4.9c0.6-1.9,2.3-3.2,4.1-3.8c1.9-0.6,3.9-0.6,5.8-0.3"/>
	<path class="st1" d="M91.1,32.8c-1.2-0.3-2.2-1.4-2.4-2.6c-0.2-1.2,0.5-2.5,1.5-3.2"/>
	<path class="st1" d="M61.2,49.4c-1.2-0.4-2.4-0.9-3.5-1.5c-0.6-0.3-1.3-0.8-1.3-1.5"/>
	<path class="st1" d="M21.4,76.8c3.3-4.3,8.3-7.1,13.7-7.9"/>
	<path class="st1" d="M20,66.5c3.8-1,7.9-1.3,11.8-0.9"/>
	<path class="st1" d="M33.1,59.9c-4.5-0.7-8.5-3.7-10.4-7.8"/>
	<path class="st1" d="M103.8,101.2c2-1.3,4.3-2,6.6-2.2"/>
	<path class="st1" d="M108.6,102.1c0.6-0.8,1.4-1.4,2.3-1.9"/>
	<path class="st1" d="M60.2,89.6c1.4-0.8,2.8-1.5,4.4-2"/>
	<path class="st1" d="M59.7,87c1.3-0.5,2.8-0.7,4.2-0.7c-0.2,0-0.3,0-0.5,0"/>
	<path class="st1" d="M51.9,44.2c-0.6-1.8-2.2-3.1-4-3.4"/>
	<path class="st1" d="M50.4,44.7c-2-0.8-4.2-1.2-6.4-1.3"/>
	<path class="st1" d="M45.4,46.9c-0.8-0.5-1.7-1-2.5-1.6"/>
	<path class="st1" d="M82.2,27.3c-0.7-1.2-1.8-2.2-3-2.9c-2-1.2-4.4-1.5-6.7-1.9"/>
	<path class="st1" d="M75.9,28.4c-3.3-1.7-6.5-3.6-9.5-5.7"/>
	<path class="st1" d="M71.3,32.6c-2.2-0.1-4.3-1.2-5.6-2.9"/>
	<g>
		<path class="st1" d="M109.1,66.9c-2.8-1.7-5.2-4.5-5.4-7.7c-0.1-3.6,2.7-6.8,5.9-8.4c6.4-3.1,14.2-1.6,20.7,1.1
			c0.5,0.2,1,0.4,1.4,0.8c0.6,0.6,0.8,1.6,0.8,2.5c0.2,3.2-0.2,6.5-1.3,9.5c-1.1,3.1-2.2,3.8-5.4,4.6
			C120.4,70.9,114.1,70.1,109.1,66.9z"/>
		<path class="st1" d="M130.6,62.7c-4.2,2.4-9.2,3.2-13.9,2.2"/>
		<path class="st1" d="M130.7,59.9c-2.6,0.2-5.3,0.1-7.9-0.4"/>
		<path class="st1" d="M130.9,56.4c-3.3-2.1-7.3-2.5-11.1-2.6"/>
	</g>
</g>
<g>
	<path class="st0" d="M-730.8,14.3c-2.1,2.1-4.7,3.7-7.6,4.2c-4.2,0.7-8.8-1.3-11.1-4.9c-1.3-2-1.9-4.3-2.5-6.6
		c-1-3.7-1.9-7.5-1.1-11.2c0.4-1.8,1.2-3.4,2-5.1c0.8-1.6,1.7-3.3,3-4.6c1.3-1.3,2.9-2.2,4.7-2.8c2.3-0.9,5.1-1.3,7.1,0.1
		c0.8,0.5,1.4,1.3,1.9,2c1.9,2.4,3.9,4.8,5.8,7.2c0.4,0.5,0.7,0.9,0.9,1.5c0.3,0.8,0.1,1.7,0.1,2.5c-0.1,1.8,0.3,3.5,0.7,5.2
		c0.4,1.4,1.4,3.4,1.1,4.9C-726.3,9.4-729,12.5-730.8,14.3z"/>
	<path class="st0" d="M-658.6-2.9c0.2-5.5,0.5-11.1,0.9-16.6c0.2-4.4,0.5-8.8,0.7-13.2c0-0.5,0.1-1,0.4-1.3c0.3-0.3,0.8-0.2,1.3-0.1
		c16.1,2.4,32.6,5,46.5,13.4c1.6,1,3.2,2,4.5,3.3c1.6,1.6,2.8,3.6,3.7,5.7c3.2,6.8,4.2,15,0.8,21.7c-2.1,4-5.6,7.2-9.4,9.5
		s-8.2,3.9-12.5,5.4c-1.8,0.6-3.7,1.2-5.5,1.7c-3.6,0.8-7.3,1-10.9,1.1c-3.5,0.1-7,0.2-10.5,0.2c-1.7,0-3.5,0-5.2,0
		c-1.3,0-3.8,0.5-5-0.1c-1.9-0.8-0.6-6.6-0.5-8.4c0.1-3.6,0.3-7.1,0.4-10.7C-658.9,4.9-658.8,1-658.6-2.9z"/>
	<path class="st1" d="M-625.1-0.9c1.4-2.8,2.2-6.1,1.1-9.1c-1.3-3.6-5.2-5.7-8.8-7c-1.4-0.5-2.9-0.9-4.4-0.9c-2.5,0-4.9,1.2-6.5,3.1
		c-1.6,1.9-2.3,4.5-2,7c0.3,2.4,1.6,4.6,3,6.6c1,1.4,2,2.8,3.5,3.6c2.3,1.4,5.6,1.5,8.1,0.6C-628.8,2.2-626.3,1.5-625.1-0.9z"/>
	<path class="st2" d="M-632.5-6.4c0.5-0.5,0.7-1.5,0.3-2.1c-0.5-1-1.8-1.2-2.9-1.1c-0.2,0-0.5,0-0.7,0.2c-0.1,0.1-0.2,0.2-0.3,0.4
		c-0.4,0.8-0.3,1.9,0.3,2.5c0.6,0.7,1.7,0.9,2.5,0.6"/>
	<path class="st0" d="M-680.4,24.4c-8.2-1.8-16.5-3.5-24.2-6.7c-7.7-3.1-14.8-7.6-21.8-12c-1.5-1-3.2-2-3.9-3.7
		c-0.8-1.8-0.5-4,0.5-5.7s2.5-3.1,4.1-4.3c6.4-5.1,13.5-9,20.7-13c5.8-3.2,11.6-6.4,17.8-8.8c9.6-3.7,20.1-5.4,30.4-4.8
		c-1.7,3.4-0.6,7.5-0.5,11.3c0.1,2.9-0.5,5.7-0.8,8.6c-1.4,11.2-0.1,22.7-1.5,33.9c-0.2,1.8-0.5,3.7-0.4,5.5
		c0.1,2.3,0.1,2.6-2.3,2.5c-2.1-0.1-4.2-0.3-6.2-0.6C-672.5,26.1-676.5,25.2-680.4,24.4z"/>
	<path class="st0" d="M-711.5,20.7c-0.7,0.2-1.5,0.4-2.3,0.2c-0.7-0.2-1.3-0.6-1.9-1.1c-0.2-0.2-0.4-0.3-0.6-0.5
		c-0.2-0.3-0.2-0.7-0.2-1c-0.1-1-0.1-2,0.3-2.9c0.6-1.1,2-1.7,3.3-1.6c1.6,0.1,6,1.6,6.5,3.3C-705.7,19.5-710.1,20.3-711.5,20.7z"/>
	<path class="st0" d="M-674.7,29.7c-1.6,0.5-3.4,0.7-5,1.2c-0.7,0.2-1.4,0.6-2.1,0.7c-0.7,0.1-1.6,0-2.1-0.6
		c-0.3-0.3-0.5-0.8-0.6-1.3c-0.3-1.3-0.2-2.8,0.7-3.8c1.1-1.2,2.9-1.2,4.5-1c2.1,0.2,5.9,0.2,7.7,1.4
		C-669.8,27.5-673.5,29.3-674.7,29.7z"/>
	<path class="st0" d="M-697.2-32.1c-1.9-1-4-1.4-6.1-1.7c-2.7-0.4-5.5-0.6-8.2-0.6c-1.2,0-2.5,0.1-3.7,0.6c-0.4,0.2-0.8,0.5-1,0.9
		c-0.2,0.4-0.2,0.8-0.1,1.3c0.4,4,2.3,7.8,5.2,10.5c1,0.9,2.3,1.8,3.6,1.3c0.5-0.2,0.8-0.5,1.2-0.8c3-2.3,6.4-3.7,9.8-5.2
		c1.3-0.6,3.3-1.3,2.9-3.1C-694-30.2-696-31.5-697.2-32.1z"/>
	<path class="st0" d="M-726.4-19.7c-0.5,0-1.1,0.2-1.5,0.5c-0.8,0.6-1.1,1.6-1.1,2.6c0,1.6,0.6,3.3,1.7,4.5c1.1,1.2,2.6,2.1,4.3,2.2
		c0.3,0,1.1-0.1,0.9-0.1c-0.9,0.1,0.5-0.3,0.7-0.4c1.4-1.2,6.5-3.9,4.3-6.1C-719.2-18.5-723.7-19.9-726.4-19.7z"/>
	<path class="st1" d="M-662.6,15.3c-2.2-0.8-4.2-2.5-4.6-4.8c0-0.3-0.1-0.5,0-0.8c0.1-0.3,0.3-0.5,0.5-0.7c0.6-0.7,1.1-1.3,1.8-1.8
		c0.7-0.5,1.6-0.9,2.4-0.8"/>
	<path class="st1" d="M-676.3,3.8c-1.7,0.1-3.3,0.8-4.5,2c-0.3,0.3-0.5,0.6-0.7,1c-0.1,0.3-0.2,0.7-0.1,1.1c0,1.1,0.4,2.2,1.1,3
		c1,1.3,3.4,3,5.1,2.3c2-0.8,3-2.5,5.5-1.9"/>
	<path class="st1" d="M-683.7,8.6c-0.9-0.4-1.8-0.7-2.7-1.2c-0.8-0.5-1.5-1.3-1.9-2.2c-0.3-0.7-0.3-1.4-0.2-2.1
		c0.1-1.4,0.4-2.9,1.3-4.1c0.9-1.2,2.3-2,3.7-1.8"/>
	<path class="st1" d="M-687.7,20.8c-1.4-0.4-2.6-1.6-2.9-3.1c-0.2-1.2,0.2-2.5,0.9-3.6c0.7-1,1.7-1.8,2.8-2.4
		c0.7-0.4,1.4-0.6,2.1-0.7c0.9-0.1,1.7,0.1,2.5,0.3"/>
	<path class="st1" d="M-670.9,21.8c-0.9-0.8-1.8-1.7-2.7-2.5c-0.4-0.4-0.9-0.7-1.4-1c-0.8-0.4-1.7-0.3-2.6-0.3c-1,0-2.1,0.1-3,0.6
		c-0.9,0.5-1.5,1.7-1.1,2.6"/>
	<path class="st1" d="M-668.1,25c0.1-1.2-0.3-2.4-0.3-3.7c0.1-2.1,1.8-4,3.8-4.4"/>
	<path class="st1" d="M-693.6,16.1c-0.8,0.2-1.6-0.3-2.2-0.8c-1-0.8-1.8-1.8-2.3-3s-0.5-2.6,0.1-3.7c0.8-1.4,2.3-2.1,3.8-2.7
		c1.3-0.5,2.8-1.1,4.2-0.7"/>
	<path class="st1" d="M-700,10c-1-0.3-1.9-0.9-2.6-1.5c-0.6-0.6-1.2-1.3-1.3-2.1c-0.1-1.1,0.6-2.2,1.4-3c1.3-1.3,3.1-2.3,4.9-2.8"/>
	<path class="st1" d="M-692.9,2.5c-0.7-0.9-1.5-1.7-2-2.8c-0.5-1-0.6-2.3-0.1-3.3c0.5-0.9,1.4-1.6,2.2-2.3c0.6-0.6,1.2-1.2,1.9-1.6
		c1.5-0.8,3.4-0.4,5.1,0"/>
	<path class="st1" d="M-682.9-6.6c-1.4-0.3-2.3-1.8-2.2-3.1c0.1-1.4,1.1-2.6,2.2-3.4c1.2-0.8,2.6-1.2,4-1.2"/>
	<path class="st1" d="M-676.2-11.6c-0.8-1-1.1-2.4-0.7-3.6c0.4-1.2,1.4-2.3,2.6-2.6c1.1-0.3,2.2-0.2,3.3,0"/>
	<path class="st1" d="M-662.9-12.6c-0.5-1.6-0.9-3.5,0-4.9c0.5-0.8,1.4-1.4,2.3-1.5"/>
	<path class="st1" d="M-667.5-16.5c-1.1-0.5-2.1-1.3-2.6-2.4c-0.5-1.3,0-2.8,1-3.8c1-1,2.4-1.4,3.8-1.6"/>
	<path class="st1" d="M-661.4-21.9c-0.7-0.3-1.2-1-1.5-1.8c-0.3-0.8-0.3-1.6-0.3-2.4c0-0.7,0.1-1.5,0.4-2.2c0.5-1,1.5-1.7,2.5-2.2"
		/>
	<path class="st1" d="M-690.7-10c-0.2-1.4-1-2.6-1.4-3.9c-0.4-1.6,0-3.5,1.1-4.8c1.1-1.3,2.8-2.1,4.5-2"/>
	<path class="st1" d="M-682.2-16.6c-0.6-0.4-1.2-0.8-1.8-1.3c-0.4-0.4-0.9-0.8-1.1-1.4c-0.3-0.9-0.1-1.8,0.2-2.7
		c0.4-0.9,0.9-1.8,1.7-2.4c0.8-0.6,1.8-1,2.8-0.7"/>
	<path class="st1" d="M-675.1-22.4c-1-0.5-2.1-1.1-2.5-2.1c-0.2-0.5-0.2-1-0.2-1.5c0.2-2.6,2.3-4.9,4.9-5.3"/>
	<path class="st1" d="M-666.9-27.8c-1-0.1-1.8-1.1-2.1-2.1c-0.2-1,0-2.1,0.2-3.1"/>
	<path class="st1" d="M-698.4-1.9c-0.4-0.6-0.8-1.2-1.1-1.8c-0.6-1-1.3-2.1-1.4-3.3c-0.1-1.7,1-3.2,2.4-4.2c1.1-0.9,2.5-1.4,3.9-1.7
		"/>
	<path class="st1" d="M-706.7,7c-1.3-0.3-2.5-0.9-3.3-1.9c-0.8-1-1.3-2.3-1-3.6c0.2-0.9,0.7-1.7,1.3-2.5c1.5-2,3.8-3.5,6.3-3.5"/>
	<path class="st1" d="M-709,13.4c0.2-1.8,1.7-3.5,3.5-3.8c0.4-0.1,0.8-0.1,1.1,0c0.4,0.1,0.8,0.4,1.1,0.7c0.5,0.5,0.9,1.1,1.2,1.8"
		/>
	<path class="st1" d="M-715.8,10c-0.1-1.3,0.1-2.7,0.6-3.9c0.1-0.3,0.3-0.6,0.5-0.8c0.6-0.7,1.7-0.7,2.6-0.6"/>
	<path class="st1" d="M-721.1,4.1c-0.3-0.9-0.4-1.9,0-2.7c0.4-0.7,1.2-1.2,2-1.4c1.1-0.3,2.2-0.3,3.2,0"/>
	<path class="st1" d="M-713.7,0.9c-0.7-0.4-1.4-0.8-2.1-1.3c-0.6-0.4-1.2-0.9-1.6-1.5c-0.4-0.6-0.6-1.4-0.4-2.1
		c0.2-0.7,0.7-1.2,1.2-1.6c1-0.8,2.1-1.2,3.3-1.7c0.9-0.4,1.8-0.7,2.7-1.1"/>
	<path class="st1" d="M-706.6-7.6c-0.3-0.6-0.7-1.2-1-1.9c-0.5-1-1.1-2-0.9-3.1c0.1-0.6,0.4-1.1,0.7-1.6c0.4-0.6,0.8-1.1,1.4-1.6
		c1.6-1.2,3.8-1.1,5.7-1.6"/>
	<path class="st1" d="M-697.4-16.2c-1.3-0.6-1.9-2.3-1.5-3.7c0.4-1.4,1.7-2.4,3.1-2.9c1.4-0.5,2.9-0.4,4.3-0.2"/>
	<path class="st1" d="M-689.7-22.9c-0.9-0.2-1.6-1-1.8-1.9c-0.1-0.9,0.3-1.9,1.1-2.3"/>
	<path class="st1" d="M-711.8-10.6c-0.9-0.3-1.7-0.7-2.6-1.1c-0.5-0.2-1-0.6-0.9-1.1"/>
	<path class="st1" d="M-741.4,9.7c2.5-3.2,6.2-5.3,10.2-5.8"/>
	<path class="st1" d="M-742.4,2.1c2.9-0.7,5.8-1,8.8-0.7"/>
	<path class="st1" d="M-732.7-2.8c-3.3-0.5-6.3-2.8-7.7-5.8"/>
	<path class="st1" d="M-680.2,27.8c1.5-0.9,3.2-1.5,4.9-1.6"/>
	<path class="st1" d="M-676.7,28.5c0.5-0.6,1-1.1,1.7-1.4"/>
	<path class="st1" d="M-712.6,19.2c1-0.6,2.1-1.1,3.2-1.5"/>
	<path class="st1" d="M-712.9,17.3c1-0.4,2-0.5,3.1-0.5c-0.1,0-0.2,0-0.4,0"/>
	<path class="st1" d="M-718.7-14.5c-0.4-1.3-1.6-2.3-3-2.5"/>
	<path class="st1" d="M-719.8-14.1c-1.5-0.6-3.1-0.9-4.7-0.9"/>
	<path class="st1" d="M-723.6-12.5c-0.6-0.4-1.2-0.8-1.9-1.2"/>
	<path class="st1" d="M-696.3-27c-0.6-0.9-1.3-1.6-2.2-2.1c-1.5-0.9-3.3-1.1-5-1.4"/>
	<path class="st1" d="M-700.9-26.2c-2.4-1.3-4.8-2.7-7.1-4.2"/>
	<path class="st1" d="M-704.3-23.1c-1.6-0.1-3.2-0.9-4.2-2.1"/>
	<g>
		<path class="st1" d="M-676.3,2.4c-2-1.3-3.9-3.3-4-5.7c-0.1-2.7,2-5,4.4-6.2c4.8-2.3,10.5-1.2,15.4,0.8c0.4,0.2,0.7,0.3,1,0.6
			c0.5,0.5,0.6,1.2,0.6,1.9c0.2,2.4-0.2,4.8-1,7.1c-0.8,2.3-1.6,2.8-4,3.4C-667.9,5.4-672.6,4.7-676.3,2.4z"/>
		<path class="st1" d="M-660.3-0.8c-3.1,1.8-6.8,2.4-10.3,1.7"/>
		<path class="st1" d="M-660.3-2.8c-1.9,0.2-3.9,0.1-5.8-0.3"/>
		<path class="st1" d="M-660.1-5.4c-2.4-1.5-5.4-1.9-8.3-1.9"/>
	</g>
</g>
<g>
	<path class="st3" d="M-959.3-225.9c0,0-2.5-0.1-2.8,1.3c-0.3,1.4-0.5,2.7,1.2,3.4c1.6,0.6,2.1,0.4,2.1,0.4L-959.3-225.9z"/>
	<path class="st3" d="M-912-231.9c0,0,2-3.8,3.5-4.4c1.5-0.6,4.2-1.8,5.6-0.9s2.4,3.1,0.4,4.6s-3.6,2.6-3.6,3.2
		c0.1,0.6,0.3,1.5,1.1,1.7s2.7,1.9,2,3.2c-0.7,1.3-1.1,2.5-3.8,2.2s-6.2-3.6-6.2-3.6l-0.4-4.4L-912-231.9z"/>
	<path class="st3" d="M-943.7-237.6c0,0-2.7,0.1-5,0.9c-2.2,0.7-8.3,4.6-9.4,7.1c-1.1,2.5-1.3,2.6-1.2,3.7s0.2,4.9,1,5.6
		c0.8,0.7,3,2.3,7.3,2.5c4.3,0.2,8.2,0.1,12.8,0c4.6-0.1,12.8-0.1,16.7-2.7c3.9-2.7,8-5.4,8-5.4s3-2.8,2.7-3.5
		c-0.2-0.8-2.4-3.4-6.8-4.8c-4.3-1.5-9.9-3.4-13.8-3.4C-935.4-237.6-943.7-237.6-943.7-237.6z"/>
	<path class="st3" d="M-948.6-237c0,0,1.3-3.1,3.3-4.5c1.9-1.5,4.7-2.6,6-1.9c1.3,0.7,2.2,2.7,2.2,4.3c-0.1,1.6-0.3,1.7-0.3,1.7
		s-10.5,0-11.2,0.8C-948.9-236.5-948.6-237-948.6-237z"/>
	<path class="st3" d="M-946.2-217.4c0,0-0.6,1.1-0.6,2.2c0.1,1-0.5,3.5,0.7,4.1c1.2,0.6,4.6-0.1,5.2-1.7c0.6-1.6,1.5-4.5,1.3-4.8
		C-939.6-217.9-946.2-217.4-946.2-217.4z"/>
	<path class="st3" d="M-937.5-217.5c0,0-0.5,2.8,0,3.6c0.5,0.8,1.2,2.3,2.8,2.4s3.1-0.5,3.1-2.2c0.1-1.7-0.5-3.8-0.5-3.8l-0.1-0.2
		L-937.5-217.5z"/>
	<path class="st3" d="M-933.7-234.5c0,0,4.2,0.3,1.5,2.2"/>
	<path class="st3" d="M-927.2-232.6c0,0,1.4,0.5,0.3,1.2"/>
	<path class="st3" d="M-922.7-231.4c0,0,2,1,0.7,1.6"/>
	<path class="st3" d="M-933.2-229.9c0,0,1.1-0.4,1.4,0.4c0.4,0.7,0.6,1.1-0.7,1.2"/>
	<path class="st3" d="M-932.9-226.6c0,0,1.6-0.3,1.4,0.7c-0.2,1,0.1,1-0.8,1"/>
	<path class="st3" d="M-933.4-222.2c0,0,1.3,0.1,0.9,0.7c-0.5,0.5-1.2,1-1.2,1"/>
	<path class="st3" d="M-926.9-230c0,0,0.6,0.4,0.6,0.8s-0.6,0.8-0.6,0.8"/>
	<path class="st3" d="M-926.6-226.6c0,0,1.3,0.2,1.2,0.7c-0.2,0.5,0.1,1.5-0.9,1.7"/>
	<path class="st3" d="M-943.7-237.6c0,0,4.1,2.7,4.2,7.6c0.1,4.9-1.1,9.8-4.2,12.3"/>
	<path class="st3" d="M-948.3-232.9c0,0-2.8,0.4-3.2,1.4c-0.4,1-1.9,3.6-0.6,6.1s4.6,1.8,6,1.3s4.2-2.5,3.6-4.8
		C-943.2-231.2-943.8-233.1-948.3-232.9z"/>
	<ellipse class="st4" cx="-947.8" cy="-227.8" rx="0.7" ry="0.9"/>
</g>
<g>
	<path class="st3" d="M-548.3-69c0,0,2.5-0.1,2.8,1.3c0.3,1.4,0.5,2.7-1.2,3.4c-1.6,0.6-2.1,0.4-2.1,0.4L-548.3-69z"/>
	<path class="st3" d="M-595.6-75.1c0,0-2-3.8-3.5-4.4s-4.2-1.8-5.6-0.9c-1.4,0.9-2.4,3.1-0.4,4.6c2,1.5,3.6,2.6,3.6,3.2
		c-0.1,0.6-0.3,1.5-1.1,1.7c-0.8,0.3-2.7,1.9-2,3.2c0.7,1.3,1.1,2.5,3.8,2.2c2.7-0.4,6.2-3.6,6.2-3.6l0.4-4.4L-595.6-75.1z"/>
	<path class="st3" d="M-564-80.8c0,0,2.7,0.1,5,0.9c2.2,0.7,8.3,4.6,9.4,7.1c1.1,2.5,1.3,2.6,1.2,3.7s-0.2,4.9-1,5.6
		c-0.8,0.7-3,2.3-7.3,2.5c-4.3,0.2-8.2,0.1-12.8,0c-4.6-0.1-12.8-0.1-16.7-2.7c-3.9-2.7-8-5.4-8-5.4s-3-2.8-2.7-3.5
		c0.2-0.8,2.4-3.4,6.8-4.8c4.3-1.5,9.9-3.4,13.8-3.4C-572.3-80.8-564-80.8-564-80.8z"/>
	<path class="st3" d="M-559.1-80.1c0,0-1.3-3.1-3.3-4.5c-1.9-1.5-4.7-2.6-6-1.9c-1.3,0.7-2.2,2.7-2.2,4.3c0.1,1.6,0.3,1.7,0.3,1.7
		s10.5,0,11.2,0.8C-558.8-79.6-559.1-80.1-559.1-80.1z"/>
	<path class="st3" d="M-561.5-60.5c0,0,0.6,1.1,0.6,2.2c-0.1,1,0.5,3.5-0.7,4.1c-1.2,0.6-4.6-0.1-5.2-1.7c-0.6-1.6-1.5-4.5-1.3-4.8
		C-568-61-561.5-60.5-561.5-60.5z"/>
	<path class="st3" d="M-570.1-60.7c0,0,0.5,2.8,0,3.6c-0.5,0.8-1.2,2.3-2.8,2.4c-1.6,0.1-3.1-0.5-3.1-2.2c-0.1-1.7,0.5-3.8,0.5-3.8
		l0.1-0.2L-570.1-60.7z"/>
	<path class="st3" d="M-573.9-77.7c0,0-4.2,0.3-1.5,2.2"/>
	<path class="st3" d="M-580.4-75.8c0,0-1.4,0.5-0.3,1.2"/>
	<path class="st3" d="M-584.9-74.6c0,0-2,1-0.7,1.6"/>
	<path class="st3" d="M-574.5-73c0,0-1.1-0.4-1.4,0.4c-0.4,0.7-0.6,1.1,0.7,1.2"/>
	<path class="st3" d="M-574.8-69.7c0,0-1.6-0.3-1.4,0.7c0.2,1-0.1,1,0.8,1"/>
	<path class="st3" d="M-574.3-65.4c0,0-1.3,0.1-0.9,0.7c0.5,0.5,1.2,1,1.2,1"/>
	<path class="st3" d="M-580.8-73.1c0,0-0.6,0.4-0.6,0.8c0,0.4,0.6,0.8,0.6,0.8"/>
	<path class="st3" d="M-581.1-69.8c0,0-1.3,0.2-1.2,0.7s-0.1,1.5,0.9,1.7"/>
	<path class="st3" d="M-564-80.8c0,0-4.1,2.7-4.2,7.6s1.1,9.8,4.2,12.3"/>
	<path class="st3" d="M-559.4-76.1c0,0,2.8,0.4,3.2,1.4c0.4,1,1.9,3.6,0.6,6.1s-4.6,1.8-6,1.3s-4.2-2.5-3.6-4.8
		C-564.4-74.4-563.9-76.3-559.4-76.1z"/>
	<ellipse class="st4" cx="-559.9" cy="-70.9" rx="0.7" ry="0.9"/>
</g>
<g>
	<path class="st3" d="M-558.6,71c0,0,2.5-0.1,2.8,1.3s0.5,2.7-1.2,3.4c-1.6,0.6-2.1,0.4-2.1,0.4L-558.6,71z"/>
	<path class="st3" d="M-605.8,65c0,0-2-3.8-3.5-4.4c-1.5-0.6-4.2-1.8-5.6-0.9s-2.4,3.1-0.4,4.6c2,1.5,3.6,2.6,3.6,3.2
		s-0.3,1.5-1.1,1.7s-2.7,1.9-2,3.2s1.1,2.5,3.8,2.2S-605,71-605,71l0.4-4.4L-605.8,65z"/>
	<path class="st3" d="M-574.2,59.3c0,0,2.7,0.1,5,0.9c2.2,0.7,8.3,4.6,9.4,7.1s1.3,2.6,1.2,3.7s-0.2,4.9-1,5.6
		c-0.8,0.7-3,2.3-7.3,2.5c-4.3,0.2-8.2,0.1-12.8,0c-4.6-0.1-12.8-0.1-16.7-2.7c-3.9-2.7-8-5.4-8-5.4s-3-2.8-2.7-3.5
		c0.2-0.8,2.4-3.4,6.8-4.8c4.3-1.5,9.9-3.4,13.8-3.4C-582.5,59.3-574.2,59.3-574.2,59.3z"/>
	<path class="st3" d="M-569.3,59.9c0,0-1.3-3.1-3.3-4.5s-4.7-2.6-6-1.9c-1.3,0.7-2.2,2.7-2.2,4.3c0.1,1.6,0.3,1.7,0.3,1.7
		s10.5,0,11.2,0.8C-569,60.4-569.3,59.9-569.3,59.9z"/>
	<path class="st3" d="M-571.7,79.5c0,0,0.6,1.1,0.6,2.2c-0.1,1,0.5,3.5-0.7,4.1c-1.2,0.6-4.6-0.1-5.2-1.7c-0.6-1.6-1.5-4.5-1.3-4.8
		C-578.3,79-571.7,79.5-571.7,79.5z"/>
	<path class="st3" d="M-580.4,79.4c0,0,0.5,2.8,0,3.6s-1.2,2.3-2.8,2.4s-3.1-0.5-3.1-2.2c-0.1-1.7,0.5-3.8,0.5-3.8l0.1-0.2
		L-580.4,79.4z"/>
	<path class="st3" d="M-584.2,62.4c0,0-4.2,0.3-1.5,2.2"/>
	<path class="st3" d="M-590.7,64.3c0,0-1.4,0.5-0.3,1.2"/>
	<path class="st3" d="M-595.1,65.4c0,0-2,1-0.7,1.6"/>
	<path class="st3" d="M-584.7,67c0,0-1.1-0.4-1.4,0.4c-0.4,0.7-0.6,1.1,0.7,1.2"/>
	<path class="st3" d="M-585,70.3c0,0-1.6-0.3-1.4,0.7s-0.1,1,0.8,1"/>
	<path class="st3" d="M-584.5,74.7c0,0-1.3,0.1-0.9,0.7c0.5,0.5,1.2,1,1.2,1"/>
	<path class="st3" d="M-591,66.9c0,0-0.6,0.4-0.6,0.8c0,0.4,0.6,0.8,0.6,0.8"/>
	<path class="st3" d="M-591.3,70.3c0,0-1.3,0.2-1.2,0.7c0.2,0.5-0.1,1.5,0.9,1.7"/>
	<path class="st3" d="M-574.2,59.3c0,0-4.1,2.7-4.2,7.6c-0.1,4.9,1.1,9.8,4.2,12.3"/>
	<path class="st3" d="M-569.6,64c0,0,2.8,0.4,3.2,1.4s1.9,3.6,0.6,6.1c-1.3,2.6-4.6,1.8-6,1.3c-1.4-0.5-4.2-2.5-3.6-4.8
		C-574.7,65.7-574.1,63.8-569.6,64z"/>
	<ellipse class="st4" cx="-570.1" cy="69.1" rx="0.7" ry="0.9"/>
</g>
</svg>
