<?xml version="1.0" encoding="utf-8"?>
<!-- Generator: Adobe Illustrator 22.0.1, SVG Export Plug-In . SVG Version: 6.00 Build 0)  -->
<svg version="1.1" id="Layer_1" xmlns="http://www.w3.org/2000/svg" xmlns:xlink="http://www.w3.org/1999/xlink" x="0px" y="0px"
	 viewBox="0 0 114.8 95.5" style="enable-background:new 0 0 114.8 95.5;" xml:space="preserve">
<style type="text/css">
	.st0{fill:#FFFFFF;stroke:#13110C;stroke-width:0.25;stroke-linecap:round;stroke-linejoin:round;stroke-miterlimit:10;}
	.st1{fill:none;stroke:#13110C;stroke-width:0.25;stroke-linecap:round;stroke-linejoin:round;stroke-miterlimit:10;}
	.st2{fill:#13110C;}
	.st3{fill:#FFFFFF;stroke:#2B2523;stroke-width:0.25;stroke-miterlimit:10;}
	.st4{fill:#2B2523;}
	.st5{fill:none;stroke:#12100B;stroke-width:0.2;stroke-linecap:round;stroke-linejoin:round;stroke-miterlimit:10;}
	.st6{fill:#FFFFFF;stroke:#12100B;stroke-width:0.2;stroke-linecap:round;stroke-linejoin:round;stroke-miterlimit:10;}
	.st7{fill:none;stroke:#12100B;stroke-width:0.25;stroke-linecap:round;stroke-linejoin:round;stroke-miterlimit:10;}
	.st8{fill:#FFFFFF;stroke:#12100B;stroke-width:0.25;stroke-linecap:round;stroke-linejoin:round;stroke-miterlimit:10;}
	.st9{fill:#12100B;}
	.st10{fill:#FFFFFF;stroke:#000000;stroke-width:0.25;stroke-miterlimit:10;}
</style>
<g>
	<path class="st0" d="M50.8,75.6c-0.4,0.4-0.8,0.6-1.3,0.7c-0.7,0.1-1.5-0.2-1.9-0.8c-0.2-0.3-0.3-0.7-0.4-1.1
		c-0.2-0.6-0.3-1.3-0.2-1.9c0.1-0.3,0.2-0.6,0.3-0.9c0.1-0.3,0.3-0.6,0.5-0.8c0.2-0.2,0.5-0.4,0.8-0.5c0.4-0.2,0.9-0.2,1.2,0
		c0.1,0.1,0.2,0.2,0.3,0.3c0.3,0.4,0.7,0.8,1,1.3c0.1,0.1,0.1,0.2,0.2,0.3c0,0.1,0,0.3,0,0.4c0,0.3,0,0.6,0.1,0.9
		c0.1,0.2,0.2,0.6,0.2,0.8C51.6,74.8,51.1,75.3,50.8,75.6z"/>
	<path class="st0" d="M63.3,72.6c0-1,0.1-1.9,0.1-2.9c0-0.8,0.1-1.5,0.1-2.3c0-0.1,0-0.2,0.1-0.2c0.1,0,0.1,0,0.2,0
		c2.8,0.4,5.7,0.9,8.1,2.3c0.3,0.2,0.5,0.3,0.8,0.6c0.3,0.3,0.5,0.6,0.6,1c0.6,1.2,0.7,2.6,0.1,3.8c-0.4,0.7-1,1.2-1.6,1.7
		c-0.7,0.4-1.4,0.7-2.2,0.9c-0.3,0.1-0.6,0.2-1,0.3c-0.6,0.1-1.3,0.2-1.9,0.2c-0.6,0-1.2,0-1.8,0c-0.3,0-0.6,0-0.9,0
		c-0.2,0-0.7,0.1-0.9,0c-0.3-0.1-0.1-1.1-0.1-1.5c0-0.6,0-1.2,0.1-1.9C63.3,73.9,63.3,73.2,63.3,72.6z"/>
	<path class="st1" d="M69.1,73c0.2-0.5,0.4-1.1,0.2-1.6c-0.2-0.6-0.9-1-1.5-1.2C67.6,70.1,67.3,70,67,70c-0.4,0-0.9,0.2-1.1,0.5
		c-0.3,0.3-0.4,0.8-0.3,1.2c0.1,0.4,0.3,0.8,0.5,1.2c0.2,0.2,0.4,0.5,0.6,0.6c0.4,0.2,1,0.3,1.4,0.1C68.5,73.5,68.9,73.4,69.1,73z"
		/>
	<path class="st2" d="M67.4,72.1c0.2,0,0.4,0,0.5-0.1c0.1-0.1,0.1-0.3,0-0.4c-0.1-0.2-0.3-0.2-0.5-0.2c0,0-0.1,0-0.1,0
		c0,0,0,0-0.1,0.1c-0.1,0.1-0.1,0.3,0.1,0.4c0.1,0.1,0.3,0.2,0.4,0.1"/>
	<path class="st0" d="M59.6,77.3c-1.4-0.3-2.9-0.6-4.2-1.2c-1.3-0.5-2.6-1.3-3.8-2.1c-0.3-0.2-0.5-0.4-0.7-0.6
		c-0.1-0.3-0.1-0.7,0.1-1s0.4-0.5,0.7-0.7c1.1-0.9,2.3-1.6,3.6-2.3c1-0.6,2-1.1,3.1-1.5c1.7-0.6,3.5-0.9,5.3-0.8
		c-0.3,0.6-0.1,1.3-0.1,2c0,0.5-0.1,1-0.1,1.5c-0.2,1.9,0,3.9-0.3,5.9c0,0.3-0.1,0.6-0.1,1c0,0.4,0,0.5-0.4,0.4
		c-0.4,0-0.7-0.1-1.1-0.1C60.9,77.6,60.2,77.5,59.6,77.3z"/>
	<path class="st0" d="M54.2,76.7c-0.1,0-0.3,0.1-0.4,0c-0.1,0-0.2-0.1-0.3-0.2c0,0-0.1-0.1-0.1-0.1c0-0.1,0-0.1,0-0.2
		c0-0.2,0-0.4,0.1-0.5c0.1-0.2,0.4-0.3,0.6-0.3c0.3,0,1,0.3,1.1,0.6C55.2,76.5,54.4,76.6,54.2,76.7z"/>
	<path class="st0" d="M60.5,78.3c-0.3,0.1-0.6,0.1-0.9,0.2c-0.1,0-0.2,0.1-0.4,0.1c-0.1,0-0.3,0-0.4-0.1c-0.1-0.1-0.1-0.1-0.1-0.2
		c-0.1-0.2,0-0.5,0.1-0.7c0.2-0.2,0.5-0.2,0.8-0.2c0.4,0,1,0,1.3,0.2C61.4,77.9,60.8,78.2,60.5,78.3z"/>
	<path class="st0" d="M56.6,67.6c-0.3-0.2-0.7-0.2-1.1-0.3c-0.5-0.1-0.9-0.1-1.4-0.1c-0.2,0-0.4,0-0.6,0.1c-0.1,0-0.1,0.1-0.2,0.2
		c0,0.1,0,0.1,0,0.2c0.1,0.7,0.4,1.4,0.9,1.8c0.2,0.2,0.4,0.3,0.6,0.2c0.1,0,0.1-0.1,0.2-0.1c0.5-0.4,1.1-0.6,1.7-0.9
		c0.2-0.1,0.6-0.2,0.5-0.5C57.2,67.9,56.9,67.7,56.6,67.6z"/>
	<path class="st0" d="M51.6,69.7c-0.1,0-0.2,0-0.3,0.1c-0.1,0.1-0.2,0.3-0.2,0.5c0,0.3,0.1,0.6,0.3,0.8c0.2,0.2,0.5,0.4,0.7,0.4
		c0,0,0.2,0,0.1,0c-0.1,0,0.1,0,0.1-0.1c0.2-0.2,1.1-0.7,0.8-1.1C52.8,69.9,52.1,69.7,51.6,69.7z"/>
	<path class="st1" d="M62.6,75.8c-0.4-0.1-0.7-0.4-0.8-0.8c0,0,0-0.1,0-0.1c0,0,0-0.1,0.1-0.1c0.1-0.1,0.2-0.2,0.3-0.3
		c0.1-0.1,0.3-0.1,0.4-0.1"/>
	<path class="st1" d="M60.3,73.8c-0.3,0-0.6,0.1-0.8,0.3c0,0-0.1,0.1-0.1,0.2c0,0.1,0,0.1,0,0.2c0,0.2,0.1,0.4,0.2,0.5
		c0.2,0.2,0.6,0.5,0.9,0.4c0.4-0.1,0.5-0.4,1-0.3"/>
	<path class="st1" d="M59,74.6c-0.2-0.1-0.3-0.1-0.5-0.2c-0.1-0.1-0.3-0.2-0.3-0.4c0-0.1,0-0.2,0-0.4c0-0.3,0.1-0.5,0.2-0.7
		c0.2-0.2,0.4-0.3,0.6-0.3"/>
	<path class="st1" d="M58.3,76.7c-0.2-0.1-0.5-0.3-0.5-0.5c0-0.2,0-0.4,0.2-0.6s0.3-0.3,0.5-0.4c0.1-0.1,0.2-0.1,0.4-0.1
		c0.1,0,0.3,0,0.4,0.1"/>
	<path class="st1" d="M61.2,76.9c-0.2-0.1-0.3-0.3-0.5-0.4c-0.1-0.1-0.2-0.1-0.2-0.2c-0.1-0.1-0.3-0.1-0.5-0.1c-0.2,0-0.4,0-0.5,0.1
		c-0.2,0.1-0.3,0.3-0.2,0.5"/>
	<path class="st1" d="M61.7,77.5c0-0.2-0.1-0.4-0.1-0.6c0-0.4,0.3-0.7,0.7-0.8"/>
	<path class="st1" d="M57.3,75.9c-0.1,0-0.3-0.1-0.4-0.1c-0.2-0.1-0.3-0.3-0.4-0.5c-0.1-0.2-0.1-0.4,0-0.6c0.1-0.2,0.4-0.4,0.7-0.5
		c0.2-0.1,0.5-0.2,0.7-0.1"/>
	<path class="st1" d="M56.2,74.9c-0.2-0.1-0.3-0.2-0.5-0.3c-0.1-0.1-0.2-0.2-0.2-0.4c0-0.2,0.1-0.4,0.2-0.5c0.2-0.2,0.5-0.4,0.8-0.5
		"/>
	<path class="st1" d="M57.4,73.5c-0.1-0.1-0.3-0.3-0.3-0.5c-0.1-0.2-0.1-0.4,0-0.6c0.1-0.2,0.2-0.3,0.4-0.4c0.1-0.1,0.2-0.2,0.3-0.3
		c0.3-0.1,0.6-0.1,0.9,0"/>
	<path class="st1" d="M59.1,72c-0.2,0-0.4-0.3-0.4-0.5c0-0.2,0.2-0.5,0.4-0.6c0.2-0.1,0.5-0.2,0.7-0.2"/>
	<path class="st1" d="M60.3,71.1c-0.1-0.2-0.2-0.4-0.1-0.6s0.2-0.4,0.5-0.5c0.2-0.1,0.4,0,0.6,0"/>
	<path class="st1" d="M62.6,70.9c-0.1-0.3-0.2-0.6,0-0.9c0.1-0.1,0.2-0.2,0.4-0.3"/>
	<path class="st1" d="M61.8,70.3c-0.2-0.1-0.4-0.2-0.4-0.4c-0.1-0.2,0-0.5,0.2-0.7s0.4-0.2,0.7-0.3"/>
	<path class="st1" d="M62.8,69.3c-0.1-0.1-0.2-0.2-0.3-0.3c0-0.1-0.1-0.3-0.1-0.4c0-0.1,0-0.3,0.1-0.4c0.1-0.2,0.3-0.3,0.4-0.4"/>
	<path class="st1" d="M57.8,71.4c0-0.2-0.2-0.4-0.2-0.7c-0.1-0.3,0-0.6,0.2-0.8c0.2-0.2,0.5-0.4,0.8-0.3"/>
	<path class="st1" d="M59.2,70.2c-0.1-0.1-0.2-0.1-0.3-0.2c-0.1-0.1-0.1-0.1-0.2-0.2c-0.1-0.1,0-0.3,0-0.5c0.1-0.2,0.2-0.3,0.3-0.4
		c0.1-0.1,0.3-0.2,0.5-0.1"/>
	<path class="st1" d="M60.5,69.2c-0.2-0.1-0.4-0.2-0.4-0.4c0-0.1,0-0.2,0-0.3c0-0.5,0.4-0.9,0.9-0.9"/>
	<path class="st1" d="M61.9,68.3c-0.2,0-0.3-0.2-0.4-0.4c0-0.2,0-0.4,0-0.5"/>
	<path class="st1" d="M56.4,72.8c-0.1-0.1-0.1-0.2-0.2-0.3c-0.1-0.2-0.2-0.4-0.2-0.6c0-0.3,0.2-0.6,0.4-0.7c0.2-0.1,0.4-0.3,0.7-0.3
		"/>
	<path class="st1" d="M55,74.3c-0.2,0-0.4-0.2-0.6-0.3c-0.1-0.2-0.2-0.4-0.2-0.6c0-0.2,0.1-0.3,0.2-0.4c0.3-0.3,0.7-0.6,1.1-0.6"/>
	<path class="st1" d="M54.6,75.4c0-0.3,0.3-0.6,0.6-0.7c0.1,0,0.1,0,0.2,0c0.1,0,0.1,0.1,0.2,0.1c0.1,0.1,0.2,0.2,0.2,0.3"/>
	<path class="st1" d="M53.4,74.9c0-0.2,0-0.5,0.1-0.7c0-0.1,0-0.1,0.1-0.1c0.1-0.1,0.3-0.1,0.5-0.1"/>
	<path class="st1" d="M52.5,73.8c0-0.2-0.1-0.3,0-0.5c0.1-0.1,0.2-0.2,0.3-0.2c0.2-0.1,0.4-0.1,0.6,0"/>
	<path class="st1" d="M53.8,73.3c-0.1-0.1-0.2-0.1-0.4-0.2c-0.1-0.1-0.2-0.2-0.3-0.3c-0.1-0.1-0.1-0.2-0.1-0.4
		c0-0.1,0.1-0.2,0.2-0.3c0.2-0.1,0.4-0.2,0.6-0.3c0.2-0.1,0.3-0.1,0.5-0.2"/>
	<path class="st1" d="M55,71.8c-0.1-0.1-0.1-0.2-0.2-0.3c-0.1-0.2-0.2-0.4-0.2-0.5c0-0.1,0.1-0.2,0.1-0.3c0.1-0.1,0.1-0.2,0.2-0.3
		c0.3-0.2,0.7-0.2,1-0.3"/>
	<path class="st1" d="M56.6,70.3c-0.2-0.1-0.3-0.4-0.3-0.6c0.1-0.2,0.3-0.4,0.5-0.5c0.2-0.1,0.5-0.1,0.7,0"/>
	<path class="st1" d="M57.9,69.1c-0.2,0-0.3-0.2-0.3-0.3c0-0.2,0.1-0.3,0.2-0.4"/>
	<path class="st1" d="M54.1,71.3c-0.2-0.1-0.3-0.1-0.4-0.2c-0.1,0-0.2-0.1-0.2-0.2"/>
	<path class="st1" d="M49,74.8c0.4-0.5,1.1-0.9,1.8-1"/>
	<path class="st1" d="M48.8,73.5c0.5-0.1,1-0.2,1.5-0.1"/>
	<path class="st1" d="M50.5,72.6c-0.6-0.1-1.1-0.5-1.3-1"/>
	<path class="st1" d="M59.6,77.9c0.3-0.2,0.6-0.3,0.9-0.3"/>
	<path class="st1" d="M60.2,78.1c0.1-0.1,0.2-0.2,0.3-0.2"/>
	<path class="st1" d="M54,76.5c0.2-0.1,0.4-0.2,0.6-0.3"/>
	<path class="st1" d="M53.9,76.1c0.2-0.1,0.4-0.1,0.5-0.1c0,0,0,0-0.1,0"/>
	<path class="st1" d="M52.9,70.6c-0.1-0.2-0.3-0.4-0.5-0.4"/>
	<path class="st1" d="M52.7,70.7c-0.3-0.1-0.5-0.2-0.8-0.2"/>
	<path class="st1" d="M52.1,71c-0.1-0.1-0.2-0.1-0.3-0.2"/>
	<path class="st1" d="M56.8,68.4c-0.1-0.2-0.2-0.3-0.4-0.4c-0.3-0.2-0.6-0.2-0.9-0.2"/>
	<path class="st1" d="M56,68.6c-0.4-0.2-0.8-0.5-1.2-0.7"/>
	<path class="st1" d="M55.4,69.1c-0.3,0-0.6-0.1-0.7-0.4"/>
	<g>
		<path class="st1" d="M60.3,73.5c-0.4-0.2-0.7-0.6-0.7-1c0-0.5,0.3-0.9,0.8-1.1c0.8-0.4,1.8-0.2,2.7,0.1c0.1,0,0.1,0.1,0.2,0.1
			c0.1,0.1,0.1,0.2,0.1,0.3c0,0.4,0,0.8-0.2,1.2c-0.1,0.4-0.3,0.5-0.7,0.6C61.7,74,60.9,73.9,60.3,73.5z"/>
		<path class="st1" d="M63,73c-0.5,0.3-1.2,0.4-1.8,0.3"/>
		<path class="st1" d="M63,72.6c-0.3,0-0.7,0-1,0"/>
		<path class="st1" d="M63.1,72.2c-0.4-0.3-0.9-0.3-1.4-0.3"/>
	</g>
</g>
<g>
	<path class="st3" d="M104.5,48.2c0,0,0.6,0,0.6,0.3c0.1,0.3,0.1,0.6-0.3,0.8c-0.4,0.1-0.5,0.1-0.5,0.1L104.5,48.2z"/>
	<path class="st3" d="M93.8,46.9c0,0-0.5-0.9-0.8-1c-0.3-0.1-1-0.4-1.3-0.2c-0.3,0.2-0.6,0.7-0.1,1.1s0.8,0.6,0.8,0.7
		c0,0.1-0.1,0.3-0.3,0.4c-0.2,0.1-0.6,0.4-0.5,0.7c0.2,0.3,0.2,0.6,0.9,0.5c0.6-0.1,1.4-0.8,1.4-0.8l0.1-1L93.8,46.9z"/>
	<path class="st3" d="M100.9,45.6c0,0,0.6,0,1.1,0.2c0.5,0.2,1.9,1,2.1,1.6c0.2,0.6,0.3,0.6,0.3,0.8s0,1.1-0.2,1.3
		c-0.2,0.2-0.7,0.5-1.7,0.6s-1.9,0-2.9,0c-1,0-2.9,0-3.8-0.6c-0.9-0.6-1.8-1.2-1.8-1.2s-0.7-0.6-0.6-0.8s0.6-0.8,1.5-1.1
		c1-0.3,2.3-0.8,3.1-0.8C99.1,45.6,100.9,45.6,100.9,45.6z"/>
	<path class="st3" d="M102.1,45.7c0,0-0.3-0.7-0.7-1c-0.4-0.3-1.1-0.6-1.4-0.4c-0.3,0.2-0.5,0.6-0.5,1s0.1,0.4,0.1,0.4
		S101.9,45.6,102.1,45.7C102.1,45.8,102.1,45.7,102.1,45.7z"/>
	<path class="st3" d="M101.5,50.2c0,0,0.1,0.3,0.1,0.5s0.1,0.8-0.2,0.9c-0.3,0.1-1.1,0-1.2-0.4c-0.1-0.4-0.3-1-0.3-1.1
		C100,50,101.5,50.2,101.5,50.2z"/>
	<path class="st3" d="M99.5,50.1c0,0,0.1,0.6,0,0.8c-0.1,0.2-0.3,0.5-0.6,0.5c-0.4,0-0.7-0.1-0.7-0.5c0-0.4,0.1-0.9,0.1-0.9l0,0
		L99.5,50.1z"/>
	<path class="st3" d="M98.7,46.3c0,0-1,0.1-0.3,0.5"/>
	<path class="st3" d="M97.2,46.7c0,0-0.3,0.1-0.1,0.3"/>
	<path class="st3" d="M96.2,47c0,0-0.5,0.2-0.2,0.4"/>
	<path class="st3" d="M98.6,47.3c0,0-0.2-0.1-0.3,0.1c-0.1,0.2-0.1,0.2,0.2,0.3"/>
	<path class="st3" d="M98.5,48.1c0,0-0.4-0.1-0.3,0.2c0,0.2,0,0.2,0.2,0.2"/>
	<path class="st3" d="M98.6,49.1c0,0-0.3,0-0.2,0.1c0.1,0.1,0.3,0.2,0.3,0.2"/>
	<path class="st3" d="M97.1,47.3c0,0-0.1,0.1-0.1,0.2c0,0.1,0.1,0.2,0.1,0.2"/>
	<path class="st3" d="M97.1,48.1c0,0-0.3,0-0.3,0.2c0,0.1,0,0.3,0.2,0.4"/>
	<path class="st3" d="M100.9,45.6c0,0-0.9,0.6-1,1.7c0,1.1,0.3,2.2,1,2.8"/>
	<path class="st3" d="M102,46.6c0,0,0.6,0.1,0.7,0.3c0.1,0.2,0.4,0.8,0.1,1.4c-0.3,0.6-1,0.4-1.4,0.3c-0.3-0.1-1-0.6-0.8-1.1
		C100.8,47,101,46.6,102,46.6z"/>
	<ellipse class="st4" cx="101.9" cy="47.8" rx="0.2" ry="0.2"/>
</g>
<g>
	<path class="st5" d="M79,58.9c0,0,2.2-2.4,5-3.3c2.7-0.8,5.6-1.5,8.1-0.4c2.5,1.1,3.9,4.4,3.9,4.4s0.1,0.4-0.2,0.8s-3.3,3.7-6.6,4
		c-3.3,0.3-6.4-0.5-8-1.9c-1.1-0.9-2-2.1-2.2-2.7c-0.1-0.4-0.2,0-0.2,0s-1.6,2.3-2.1,2.1c-0.6-0.3-0.2-0.6,0-0.8s1.8-1.6,1.8-1.6
		s0.2-0.2,0-0.4c-0.2-0.2-1.4-2-1.4-2.5s0.8-0.2,1,0.3c0.3,0.5,0.7,1.9,0.7,1.9S78.9,59.1,79,58.9z"/>
	<path class="st6" d="M85.9,55.1c0,0-0.1-0.9-1.3-1.1c-0.4,0-0.5,0.4-0.5,0.8s0.2,0.8,0.2,0.8L85.9,55.1z"/>
	<path class="st6" d="M82.7,63.6c0,0-0.5,0.7-1,0.4c-0.5-0.2,0.3-0.8,0.3-0.8L82.7,63.6z"/>
	<path class="st6" d="M87,64.5c0,0-0.1,0.9-0.8,0.8s-0.6-0.9-0.6-0.9S86.5,64.5,87,64.5z"/>
	<path class="st6" d="M90.9,58.2c0,0,0.8,0.1,1,0.8c0.2,0.7,0,1.4-0.8,1.6c-0.8,0.3-1.5-0.4-1.6-0.9C89.5,59.2,89.5,58.2,90.9,58.2z
		"/>
	<path d="M90.9,59.3c0.1,0.1,0.1,0.2,0,0.3c0,0-0.1,0.1-0.1,0.1c-0.1,0-0.1-0.1-0.2-0.1c0,0-0.1-0.1-0.1-0.1
		C90.6,59.2,90.8,59.1,90.9,59.3z"/>
	<path class="st6" d="M95.6,60.5c-0.1,0-0.3,0-0.4,0.1c-0.4,0.1-0.8,0.1-1.2,0.1"/>
	<path class="st6" d="M87.8,54.8c-0.1,0.6-0.2,1.2-0.1,1.8c0.1,0.6,0.2,1.3,0.3,1.9c0,0.5,0,0.9,0.1,1.4c0.1,0.8,0.3,1.6,0.4,2.5
		c0,0.2,0,0.4,0.1,0.6c0,0.2,0.1,0.4,0.2,0.6c0.1,0.3,0.2,0.6,0.3,0.9"/>
	<path class="st5" d="M88.1,60.3c0,0,0.3,1.5,0.3,1.9c0,0.3,0.1,0.7,0.2,1c0,0.3,0.2,0.7,0.2,0.7s-1.1,0.4-2.1-0.3
		c-0.9-0.7-2.2-2.4-2.1-3c0,0,0-0.1,0.5-0.1C85.6,60.4,88.1,60.3,88.1,60.3z"/>
	<path class="st6" d="M88.1,60.5c-1.2,0-2.3,0-3.5,0"/>
	<path class="st6" d="M88.1,60.8c-1.1,0.1-2.1,0.2-3.2,0.1"/>
	<path class="st6" d="M88.2,61.1c-0.7,0-1.5,0-2.2,0"/>
	<path class="st6" d="M88.3,61.5c-1,0.1-1.9,0.1-2.9-0.1"/>
	<path class="st6" d="M88.3,61.8c-0.7,0-1.3,0-2,0"/>
	<path class="st6" d="M88.4,62.1c-0.9,0.1-1.9,0-2.8-0.1"/>
	<path class="st6" d="M88.4,62.3c-0.8,0-1.6,0-2.4,0"/>
	<path class="st6" d="M88.4,62.6c-0.8,0-1.6,0-2.4,0"/>
	<path class="st6" d="M88.5,62.9c-0.7,0-1.3,0-2,0"/>
	<path class="st6" d="M88.5,63.1c-0.7,0-1.3,0-2-0.1"/>
	<path class="st6" d="M88.6,63.3c-0.5,0.2-1.1-0.1-1.7,0"/>
	<path class="st6" d="M88.7,63.6c-0.5,0-0.9,0-1.4,0"/>
	<path class="st6" d="M88.3,54.9c0,0.1-0.1,0.1-0.1,0.2"/>
	<path class="st6" d="M89.2,55.7c-0.1,0-0.2-0.1-0.3-0.1"/>
	<path class="st6" d="M90.6,55.1c-0.1,0-0.3,0-0.4,0"/>
	<path class="st6" d="M90.9,56.2c-0.1,0-0.1,0-0.2,0"/>
	<path class="st6" d="M91.5,56.3c0.1,0.1,0.1,0.2,0.2,0.3"/>
	<path class="st6" d="M92.4,56.4c0.1,0.1,0.1,0.1,0.2,0.2"/>
	<path class="st6" d="M94.4,57.5c-0.1,0-0.1,0-0.2,0"/>
	<path class="st6" d="M93.4,58.9c-0.1,0-0.2,0-0.2,0"/>
	<path class="st6" d="M91.7,57.5c-0.1,0-0.2,0.1-0.3,0.1"/>
	<path class="st6" d="M88.9,56.7c0,0-0.1,0-0.1,0"/>
	<path class="st6" d="M88.1,56.4c0,0-0.1,0.1-0.1,0.1"/>
	<path class="st6" d="M88.7,59.6c-0.1,0-0.1,0-0.2,0"/>
	<path class="st6" d="M90.5,60.9c-0.1,0-0.2,0-0.4,0"/>
	<path class="st6" d="M92.3,61.1c0,0-0.1,0-0.1,0"/>
	<path class="st6" d="M93.3,62.1c-0.1,0.1-0.2,0.2-0.3,0.2"/>
	<path class="st6" d="M88.9,61.6c0,0-0.1,0-0.1,0"/>
	<path class="st6" d="M88.9,63.4c0.1,0,0.1,0.1,0.2,0.1"/>
	<path class="st5" d="M87.7,55.7c-0.3,0-0.6,0-0.8,0.1c-0.3,0.2-0.4,0.5-0.3,0.8c0.1,0.3,0.2,0.6,0.4,0.8c0.2,0.3,0.5,0.5,0.9,0.6"
		/>
	<path class="st5" d="M86.7,57c-0.5,0.1-1,0.2-1.2,0.7c-0.1,0.3-0.1,0.5,0,0.8c0,0.2,0.1,0.3,0.2,0.4c0.2,0.4,0.7,0.5,1.1,0.6"/>
	<path class="st5" d="M87.9,58.4c-0.2,0-0.4,0-0.6,0.1s-0.4,0.2-0.5,0.4c0,0.1,0,0.1,0,0.2c0,0.1,0,0.2,0,0.4c0,0.3,0.1,0.6,0.3,0.8
		"/>
	<path class="st6" d="M87,54.9c-0.1,0.1-0.1,0.4,0,0.5s0.2,0.2,0.4,0.2c0,0,0.3,0.1,0.3,0"/>
	<path class="st5" d="M85.5,55.3c0,0.3,0,0.7,0.1,1c0.1,0.2,0.2,0.3,0.3,0.4c0.1,0.1,0.2,0.2,0.3,0.2c0.1,0.1,0.3,0.1,0.4,0"/>
	<path class="st5" d="M85.5,56.1c-0.2,0.1-0.7,0.2-0.9,0.2c-0.2,0.1-0.2,0.1-0.3,0.2c-0.1,0-0.2,0.2-0.2,0.3
		c-0.2,0.5,0.1,0.7,0.4,0.9c0.3,0.2,0.6,0.3,0.9,0.3c0,0,0,0,0,0"/>
	<path class="st5" d="M84.2,55.6c0.1,0.2,0.2,0.6,0.4,0.6c0.1,0,0.4,0,0.6-0.1c0.1-0.1,0.2,0,0.4-0.1"/>
	<path class="st5" d="M84.1,57c-0.2,0-0.4,0.1-0.5,0.1c-0.2,0-0.4-0.1-0.5-0.2c-0.1-0.1-0.2-0.2-0.3-0.3c-0.1-0.1-0.1-0.2-0.1-0.3"
		/>
	<path class="st5" d="M83.3,57c-0.3,0.1-0.6,0.5-0.7,0.8s-0.1,0.7,0.1,1c0.3,0.4,0.8,0.5,1.3,0.6"/>
	<path class="st5" d="M85.5,58.3c-0.4,0-0.8,0.1-1.2,0.2c-0.1,0-0.2,0.1-0.3,0.2c-0.1,0.1-0.1,0.3-0.1,0.4c0,0.2,0,0.3,0,0.5
		c0,0.1,0,0.2,0,0.2c0,0.1,0.1,0.2,0.2,0.3c0.1,0.1,0.3,0.3,0.5,0.3"/>
	<path class="st6" d="M86.4,59.4c-0.6,0-0.7,0.6-0.7,1"/>
	<path class="st6" d="M81.1,57.2c0,0.1,0,0.4,0,0.6c0,0.1,0.1,0.1,0.1,0.2c0.3,0.2,0.8,0.4,1.1,0.3"/>
	<path class="st5" d="M81.7,58.2c-0.5,0.2-0.9,0.6-1,1.1c0,0.1-0.1,0.3,0,0.4c0.1,0.2,0.2,0.3,0.4,0.4c0.3,0.2,0.5,0.4,0.8,0.4"/>
	<path class="st5" d="M83.5,59.4c-0.3,0.1-0.5,0.2-0.7,0.4c-0.2,0.2-0.4,0.4-0.4,0.7c0,0.2,0,0.5,0.1,0.7c0.1,0.3,0.2,0.6,0.4,0.8
		c0.3,0.3,0.8,0.3,1.2,0.2"/>
	<path class="st6" d="M82.4,60.5c-0.3,0.1-0.6-0.1-0.8,0.1c-0.1,0-0.1,0.1-0.1,0.1c-0.3,0.4-0.4,0.9-0.4,1.4c0,0.1,0,0.3,0,0.4"/>
	<path class="st6" d="M80.8,59.2c-0.1,0.1-0.2,0.1-0.3,0.1c-0.2,0-0.3-0.1-0.5-0.2c-0.1-0.1-0.2-0.1-0.2-0.2
		c-0.1-0.2-0.1-0.5-0.1-0.7"/>
	<path class="st5" d="M80.2,59.3c-0.3,0.3-0.5,0.5-0.6,0.8c-0.1,0.1-0.1,0.3-0.1,0.4c0,0.2,0.1,0.3,0.1,0.5c0.1,0.3,0.3,0.5,0.6,0.6
		c0.3,0.1,0.5,0.1,0.8,0.1"/>
	<path class="st5" d="M85,61.5c-0.3,0.1-0.7,0.2-0.8,0.5C84,62.2,84,62.4,84,62.6c0,0.1,0,0.2,0,0.2c0,0.1,0.2,0.2,0.3,0.2
		c0.4,0.2,0.9,0.4,1.4,0.4c0.2,0,0.5,0,0.6-0.2"/>
	<path class="st5" d="M83.3,62.2c-0.2,0.1-0.5,0.3-0.6,0.6c-0.1,0.2-0.1,0.5,0,0.8"/>
	<path class="st6" d="M85.6,63.5c-0.4,0.1-0.5,0.4-0.6,0.8"/>
	<path class="st6" d="M86,63.4c0,0.2,0,0.4,0,0.6c0,0.2,0.2,0.3,0.4,0.4"/>
	<path class="st6" d="M87.7,63.9c-0.1,0.1-0.2,0.4-0.1,0.6"/>
	<path class="st6" d="M78.6,59.1c0-0.1-0.1-0.1-0.1-0.2"/>
	<path class="st6" d="M78.4,58.6c0,0-0.1-0.1-0.1-0.2"/>
	<path class="st6" d="M78.2,58.1c0,0,0-0.1-0.1-0.1"/>
	<path class="st6" d="M77.9,57.6C78,57.6,78,57.6,77.9,57.6"/>
	<path class="st6" d="M77.6,57c0-0.1-0.1-0.1-0.1-0.2"/>
	<path class="st6" d="M78.5,60c0,0.1-0.1,0.2-0.2,0.3"/>
	<path class="st6" d="M78,60.5c0,0-0.1,0.1-0.1,0.1"/>
	<path class="st6" d="M77.6,60.8c0,0.1-0.1,0.1-0.1,0.2"/>
	<path class="st6" d="M77.3,61.3c-0.1,0-0.2,0-0.2,0.1"/>
	<path class="st6" d="M76.9,61.7c-0.1,0-0.1,0-0.2,0"/>
	<path class="st6" d="M85.2,54.7c0.1,0.2,0.2,0.4,0.4,0.5"/>
	<path class="st6" d="M84.9,54.8c0,0.1,0,0.2,0.1,0.3"/>
	<path class="st6" d="M84.6,55c0,0.1,0,0.1,0,0.2"/>
	<path class="st6" d="M86.2,64.9c0-0.1,0-0.2,0.1-0.2"/>
	<path class="st6" d="M86,64.6c0,0.1-0.1,0.2-0.1,0.2"/>
	<path class="st6" d="M82.4,63.6c-0.1,0.1-0.1,0.2-0.2,0.2"/>
	<path class="st6" d="M82.1,63.6c0,0.1-0.1,0.2-0.2,0.2"/>
	<path class="st6" d="M79,59c-0.1,0-0.1,0.2-0.1,0.3c0,0.1,0,0.2,0,0.3c0,0.1,0,0.2,0.1,0.3"/>
</g>
<g>
	<path class="st7" d="M17.8,82c0,0,3.7-4,8.3-5.4c4.6-1.4,9.3-2.6,13.4-0.7s6.4,7.4,6.4,7.4s0.1,0.7-0.3,1.3s-5.6,6.2-11.1,6.7
		s-10.7-0.8-13.3-3.1c-1.8-1.6-3.4-3.6-3.6-4.4c-0.2-0.6-0.4,0.1-0.4,0.1s-2.6,3.9-3.6,3.4c-0.9-0.4-0.3-0.9,0.1-1.4s3-2.7,3-2.7
		s0.3-0.3,0-0.6c-0.3-0.3-2.4-3.4-2.3-4.2c0.1-0.8,1.3-0.4,1.7,0.5c0.4,0.9,1.2,3.1,1.2,3.1S17.5,82.3,17.8,82z"/>
	<path class="st8" d="M29.3,75.7c0,0-0.2-1.5-2.2-1.9c-0.7,0.1-0.9,0.7-0.9,1.3c0,0.6,0.3,1.3,0.3,1.3L29.3,75.7z"/>
	<path class="st8" d="M24,89.8c0,0-0.8,1.1-1.7,0.7c-0.9-0.4,0.4-1.4,0.4-1.4L24,89.8z"/>
	<path class="st8" d="M31,91.3c0,0-0.2,1.4-1.3,1.3c-1.2-0.2-1-1.5-1-1.5S30.2,91.2,31,91.3z"/>
	<path class="st8" d="M37.7,80.8c0,0,1.4,0.1,1.6,1.3c0.3,1.2,0.1,2.3-1.3,2.7s-2.6-0.6-2.6-1.5C35.3,82.5,35.3,80.8,37.7,80.8z"/>
	<path d="M37.7,82.6c0.1,0.2,0.1,0.4,0,0.6c-0.1,0.1-0.1,0.1-0.2,0.1c-0.1,0-0.2-0.1-0.3-0.2C37.1,83,37,82.9,37,82.8
		C37,82.5,37.4,82.4,37.7,82.6z"/>
	<path class="st8" d="M45.5,84.7c-0.2,0-0.5,0.1-0.7,0.1c-0.7,0.1-1.4,0.2-2,0.1"/>
	<path class="st8" d="M32.5,75.1c-0.2,1-0.3,2-0.2,3.1c0.1,1.1,0.4,2.1,0.5,3.2c0.1,0.8,0,1.5,0.1,2.3c0.1,1.4,0.5,2.7,0.6,4.1
		c0,0.3,0.1,0.7,0.1,1c0.1,0.3,0.2,0.6,0.3,0.9c0.2,0.5,0.3,1,0.5,1.5"/>
	<path class="st7" d="M32.9,84.4c0,0,0.5,2.6,0.5,3.1c0,0.5,0.2,1.2,0.3,1.6c0.1,0.4,0.3,1.1,0.3,1.1s-1.9,0.6-3.4-0.5
		s-3.6-4-3.5-5.1c0,0-0.1-0.2,0.8-0.2S32.9,84.4,32.9,84.4z"/>
	<path class="st8" d="M33,84.7c-1.9-0.1-3.8-0.1-5.8-0.1"/>
	<path class="st8" d="M33,85.1c-1.8,0.2-3.6,0.3-5.4,0.2"/>
	<path class="st8" d="M33.1,85.7c-1.2,0-2.5,0.1-3.7,0.1"/>
	<path class="st8" d="M33.3,86.4c-1.6,0.2-3.2,0.1-4.8-0.1"/>
	<path class="st8" d="M33.3,86.9c-1.1,0-2.2,0-3.3,0"/>
	<path class="st8" d="M33.4,87.3c-1.6,0.1-3.2,0-4.7-0.2"/>
	<path class="st8" d="M33.4,87.6c-1.3,0-2.7,0-4,0"/>
	<path class="st8" d="M33.5,88.1c-1.3,0-2.7,0-4,0"/>
	<path class="st8" d="M33.6,88.6c-1.1,0.1-2.2,0-3.3-0.1"/>
	<path class="st8" d="M33.7,89c-1.1,0-2.2,0-3.3-0.1"/>
	<path class="st8" d="M33.7,89.4c-0.9,0.3-1.9-0.1-2.8,0"/>
	<path class="st8" d="M33.9,89.7c-0.8,0-1.5,0-2.3,0"/>
	<path class="st8" d="M33.3,75.3c-0.1,0.1-0.2,0.2-0.2,0.3"/>
	<path class="st8" d="M34.7,76.7c-0.2-0.1-0.3-0.1-0.5-0.2"/>
	<path class="st8" d="M37.1,75.7c-0.2,0-0.5,0.1-0.7,0"/>
	<path class="st8" d="M37.6,77.4c-0.1,0-0.2,0-0.3,0"/>
	<path class="st8" d="M38.6,77.7c0.1,0.1,0.2,0.3,0.3,0.4"/>
	<path class="st8" d="M40.2,77.8c0.1,0.1,0.2,0.2,0.3,0.4"/>
	<path class="st8" d="M43.4,79.6c-0.1,0-0.2,0-0.3,0"/>
	<path class="st8" d="M41.7,82c-0.1,0-0.3,0-0.4,0"/>
	<path class="st8" d="M38.9,79.7c-0.1,0-0.3,0.1-0.4,0.2"/>
	<path class="st8" d="M34.2,78.4c-0.1,0-0.2,0-0.2,0"/>
	<path class="st8" d="M33,77.9c0,0.1-0.1,0.2-0.2,0.2"/>
	<path class="st8" d="M34,83.1c-0.1,0-0.2,0-0.3,0"/>
	<path class="st8" d="M37,85.4c-0.2,0-0.4,0-0.6,0"/>
	<path class="st8" d="M39.9,85.7c-0.1,0-0.1,0-0.2,0"/>
	<path class="st8" d="M41.6,87.3c-0.2,0.2-0.3,0.3-0.6,0.4"/>
	<path class="st8" d="M34.2,86.5c-0.1,0-0.1,0.1-0.2,0"/>
	<path class="st8" d="M34.3,89.4c0.1,0.1,0.2,0.1,0.3,0.2"/>
	<path class="st7" d="M32.3,76.6c-0.5,0-1-0.1-1.3,0.2c-0.5,0.3-0.6,0.9-0.5,1.4s0.4,1,0.7,1.4c0.4,0.4,0.9,0.9,1.4,1"/>
	<path class="st7" d="M30.6,78.8c-0.8,0.2-1.7,0.4-1.9,1.1c-0.2,0.4-0.1,0.9,0,1.4c0.1,0.3,0.1,0.5,0.3,0.7c0.4,0.6,1.2,0.8,1.9,1"
		/>
	<path class="st7" d="M32.7,81.2c-0.4,0-0.7,0-1,0.2c-0.3,0.1-0.6,0.4-0.8,0.7c0,0.1-0.1,0.2-0.1,0.3c0,0.2-0.1,0.4-0.1,0.6
		c0,0.5,0.1,1.1,0.6,1.4"/>
	<path class="st8" d="M31.1,75.3c-0.2,0.2-0.2,0.7,0,0.9c0.2,0.2,0.4,0.3,0.7,0.3c0.1,0,0.5,0.1,0.5,0"/>
	<path class="st7" d="M28.6,76c0,0.5-0.1,1.1,0.2,1.6c0.1,0.3,0.3,0.5,0.6,0.7c0.2,0.2,0.3,0.3,0.5,0.4s0.4,0.1,0.6,0.1"/>
	<path class="st7" d="M28.7,77.3c-0.4,0.1-1.2,0.3-1.5,0.4c-0.3,0.1-0.3,0.1-0.6,0.3c-0.1,0.1-0.3,0.4-0.3,0.5
		C26,79.4,26.6,79.6,27,80c0.5,0.4,0.9,0.5,1.5,0.5c-0.1,0,0,0-0.1,0"/>
	<path class="st7" d="M26.4,76.5c0.1,0.4,0.3,0.9,0.7,1.1c0.2,0.1,0.7,0,0.9-0.1c0.2-0.1,0.4-0.1,0.6-0.2"/>
	<path class="st7" d="M26.3,78.8c-0.3,0.1-0.6,0.1-0.9,0.1c-0.3,0-0.6-0.1-0.9-0.3c-0.2-0.1-0.3-0.3-0.4-0.5
		c-0.1-0.1-0.2-0.4-0.2-0.6"/>
	<path class="st7" d="M24.9,78.8c-0.6,0.2-1,0.8-1.2,1.4c-0.2,0.6-0.2,1.2,0.2,1.7c0.5,0.7,1.3,0.9,2.1,1.1"/>
	<path class="st7" d="M28.6,81.1c-0.7,0-1.3,0.1-2,0.4c-0.2,0.1-0.4,0.2-0.5,0.3c-0.1,0.2-0.1,0.5-0.1,0.7c0,0.3,0,0.6,0,0.9
		c0,0.1,0,0.3,0.1,0.4c0.1,0.2,0.2,0.3,0.3,0.4c0.2,0.2,0.5,0.5,0.8,0.6"/>
	<path class="st8" d="M30.1,82.8c-1,0-1.2,0.9-1.2,1.6"/>
	<path class="st8" d="M21.3,79.1c-0.1,0.2,0,0.7,0.1,0.9c0.1,0.1,0.2,0.2,0.2,0.3c0.5,0.4,1.3,0.7,1.9,0.5"/>
	<path class="st7" d="M22.3,80.8c-0.8,0.3-1.4,1-1.7,1.8c-0.1,0.2-0.1,0.5,0,0.7c0.1,0.3,0.4,0.5,0.6,0.7c0.4,0.3,0.8,0.6,1.3,0.7"
		/>
	<path class="st7" d="M25.3,82.9c-0.4,0.1-0.8,0.4-1.2,0.7c-0.4,0.3-0.6,0.7-0.7,1.1c-0.1,0.4,0,0.8,0.1,1.2c0.1,0.5,0.3,1,0.7,1.3
		c0.6,0.5,1.3,0.5,2.1,0.4"/>
	<path class="st8" d="M23.4,84.7c-0.4,0.1-1-0.1-1.3,0.1c-0.1,0.1-0.2,0.1-0.2,0.2c-0.5,0.7-0.7,1.5-0.6,2.3c0,0.2,0,0.4,0.1,0.6"/>
	<path class="st8" d="M20.7,82.4c-0.2,0.1-0.3,0.2-0.5,0.2c-0.3,0-0.5-0.1-0.8-0.3c-0.2-0.1-0.3-0.2-0.4-0.3
		c-0.2-0.3-0.2-0.8-0.1-1.1"/>
	<path class="st7" d="M19.9,82.6c-0.6,0.5-0.8,0.8-1.1,1.4c-0.1,0.2-0.1,0.4-0.1,0.7c0,0.3,0.1,0.5,0.2,0.8c0.2,0.4,0.5,0.8,1,1
		c0.4,0.2,0.8,0.2,1.3,0.2"/>
	<path class="st7" d="M27.7,86.4c-0.5,0.1-1.1,0.3-1.4,0.8c-0.2,0.3-0.2,0.6-0.1,1c0,0.1,0,0.3,0.1,0.4c0.1,0.2,0.3,0.3,0.4,0.4
		c0.7,0.4,1.5,0.6,2.3,0.7c0.4,0,0.8,0,1-0.4"/>
	<path class="st7" d="M25,87.5c-0.4,0.2-0.8,0.6-0.9,1c-0.2,0.4-0.2,0.9,0,1.3"/>
	<path class="st8" d="M28.8,89.6c-0.6,0.2-0.9,0.7-0.9,1.3"/>
	<path class="st8" d="M29.5,89.5c0,0.3,0,0.6,0,1c0.1,0.3,0.3,0.5,0.7,0.7"/>
	<path class="st8" d="M32.2,90.3c-0.2,0.2-0.3,0.7-0.2,1"/>
	<path class="st8" d="M17.2,82.3c-0.1-0.1-0.1-0.2-0.2-0.3"/>
	<path class="st8" d="M16.8,81.5c-0.1-0.1-0.1-0.2-0.1-0.3"/>
	<path class="st8" d="M16.5,80.6c0-0.1-0.1-0.1-0.1-0.2"/>
	<path class="st8" d="M16,79.9c0,0,0.1-0.1,0-0.1"/>
	<path class="st8" d="M15.4,78.9c-0.1-0.1-0.1-0.2-0.1-0.4"/>
	<path class="st8" d="M16.9,83.8c-0.1,0.2-0.2,0.4-0.4,0.5"/>
	<path class="st8" d="M16.2,84.7c-0.1,0.1-0.1,0.1-0.2,0.2"/>
	<path class="st8" d="M15.5,85.2c0,0.1-0.1,0.2-0.2,0.3"/>
	<path class="st8" d="M15,86c-0.1,0-0.3,0.1-0.4,0.2"/>
	<path class="st8" d="M14.4,86.7c-0.1,0-0.2,0-0.3,0"/>
	<path class="st8" d="M28.2,74.9c0.2,0.3,0.4,0.6,0.6,0.9"/>
	<path class="st8" d="M27.7,75.1c0,0.2,0.1,0.4,0.2,0.5"/>
	<path class="st8" d="M27.2,75.5c0,0.1,0,0.2,0,0.3"/>
	<path class="st8" d="M29.7,92.1c0-0.2,0.1-0.3,0.2-0.4"/>
	<path class="st8" d="M29.5,91.5c0,0.1-0.1,0.3-0.1,0.4"/>
	<path class="st8" d="M23.5,89.9c-0.1,0.1-0.2,0.3-0.4,0.4"/>
	<path class="st8" d="M22.9,89.8c-0.1,0.2-0.2,0.3-0.4,0.4"/>
	<path class="st8" d="M17.7,82.1c-0.2,0.1-0.2,0.3-0.2,0.4c0,0.2,0,0.4,0,0.6c0,0.1,0.1,0.4,0.2,0.4"/>
</g>
<g>
	<path class="st8" d="M35.3,37.4c0,0,0.3-0.2-0.1-0.4c-1.4-0.4-4.9-2.6-4.9-3c0-0.4,6.1,0.6,6.8,3c2.5-4,8.8-7.5,12.2-8
		c4.4-1.1,18-0.7,21.2,9.1c0,0.8,1.4,0.5,1.2,1.4c-0.3,0.6-0.7,0.7-0.7,0.7s0.3,7.8-9.2,9.7c-9.4,1.9-20.5-1-24.9-11.6
		c-2.6,3-6,3.4-6.4,3.3c-0.4-0.1,0.3-1.1,1.4-1.9C33,39.1,35.3,37.4,35.3,37.4z"/>
	<ellipse class="st8" cx="62.2" cy="35.9" rx="2.1" ry="2.2"/>
	<circle class="st9" cx="62.3" cy="36" r="0.5"/>
	<path class="st8" d="M57.7,29c0,2.4-0.1,4.8-0.1,7.2c0,2.1-0.1,4.2,0.1,6.3c0.1,0.8,0.2,1.6,0.2,2.4c0,1-0.1,1.9,0.1,2.9
		c0.1,0.9,0.5,1.8,0.3,2.7"/>
	<path class="st7" d="M65.8,35.2c-0.1-0.1-0.3,0-0.5,0.1s-0.4,0.1-0.3,0.1"/>
	<path class="st7" d="M65.4,33c-0.1,0.2-0.1,0.4-0.2,0.5"/>
	<path class="st7" d="M62.5,32.4c0.1,0.1,0.3,0.2,0.4,0.4"/>
	<path class="st7" d="M58.8,31.2c0.2,0.1,0.3,0.2,0.3,0.4"/>
	<path class="st7" d="M59.8,33.3c-0.1,0.1-0.2,0.2-0.2,0.2"/>
	<path class="st8" d="M65.1,37c-0.1,0.3-0.2,0.6-0.4,0.8c-0.2,0.2-0.5,0.4-0.8,0.5"/>
	<path class="st7" d="M58.4,35.7c0,0.2-0.1,0.3-0.1,0.5"/>
	<path class="st7" d="M59,38.7c0.1,0.1,0.2,0.3,0.3,0.4"/>
	<path class="st7" d="M63.9,39.4c-0.1,0-0.2,0-0.4,0"/>
	<path class="st7" d="M68.3,37.8c-0.2,0-0.4,0-0.6,0"/>
	<path class="st7" d="M68.1,35.4c-0.2,0.1-0.4,0.2-0.5,0.3"/>
	<path class="st7" d="M71.7,39.2c-0.4,0.2-0.9,0.4-1.3,0.5"/>
	<path class="st7" d="M69.3,42.7c-0.1,0.1-0.2,0.2-0.3,0.3"/>
	<path class="st7" d="M66.9,40.2c0.1,0.2,0,0.5-0.1,0.7"/>
	<path class="st7" d="M63.7,42.1c-0.1,0.1-0.3,0.2-0.4,0.2"/>
	<path class="st7" d="M60.6,41.9c-0.2,0-0.4,0-0.5-0.1"/>
	<path class="st7" d="M60.6,44.4c-0.1,0-0.3,0.1-0.4,0.2"/>
	<path class="st7" d="M62.5,46.4c0.1,0.2,0.1,0.4,0.2,0.5"/>
	<path class="st7" d="M66.2,47c-0.2,0-0.3,0-0.5,0"/>
	<path class="st7" d="M65.6,43.9c-0.1,0.1-0.2,0.2-0.4,0.3"/>
	<path class="st7" d="M62.8,49.3c-0.1,0-0.2,0-0.4,0"/>
	<path class="st7" d="M60,49.5c-0.1,0-0.1,0-0.2,0"/>
	<path class="st7" d="M59.4,47.3c-0.1,0-0.2,0-0.3,0"/>
	<path class="st8" d="M57.8,43.4c-2-1.4-4-2.3-6.1-3.3c-0.4-0.2-0.9-0.4-1.3-0.4c-0.2,0-0.4,0.1-0.5,0.2c-0.1,0.1-0.1,0.2-0.1,0.3
		c-0.2,0.7,0,1.5,0.3,2.2s0.9,1.2,1.4,1.8c0.4,0.4,0.8,0.8,1.2,1.1c0.5,0.3,1,0.6,1.4,0.9c0.3,0.2,0.5,0.5,0.8,0.7
		c0.3,0.2,0.5,0.3,0.8,0.4c0.8,0.3,1.5,0.6,2.3,0.7"/>
	<path class="st7" d="M57.6,32.2c-0.4,0.5-0.9,0.5-1.5,0.5c-0.7,0-1.4,0-2.1-0.1c-0.7-0.1-1.4-0.4-1.8-0.9c-0.4-0.5-1.1-1.5-0.4-1.7
		c1,0,2,0.8,2.3,1.8c0.1,0.3,0.1,0.6,0,0.9c-0.3,0.6-1,0.8-1.6,0.9c-0.9,0.2-1.8,0.3-2.6,0.1s-1.7-0.8-2-1.6
		c-0.2-0.6-0.1-1.3,0.5-1.5c0.4-0.2,0.9,0,1.2,0.3c0.5,0.3,1,0.7,1.2,1.3c0.2,0.5,0.1,1.3-0.3,1.6c-0.2,0.2-0.5,0.2-0.7,0.3
		c-0.7,0.2-1.4,0.2-2.1,0.2c-0.9,0-1.8-0.1-2.5-0.7c-0.4-0.4-0.7-0.9-0.5-1.4c0.2-0.5,1-0.7,1.5-0.5c0.5,0.3,0.8,0.9,0.7,1.5
		c0,0.3-0.1,0.6-0.4,0.8C46.4,34,46.2,34,46.1,34c-0.8,0.1-1.6,0.1-2.3-0.3c-0.3-0.2-1.3-0.8-0.6-1c0.8,0.1,1.9,1.5,1.2,1.7
		c-1.1,0.2-2.3,0.2-3.5-0.1c-0.2-0.1-0.5-0.2-0.4-0.4c0-0.1,0.1-0.1,0.2-0.1c0.4-0.2,0.8-0.2,1.2,0c0.3,0.2,1.3,0.9,0.5,1.1
		c-0.8,0.3-1.7,0.4-2.5,0.2c-0.2-0.1-0.5-0.3-0.4-0.5c0.2,0.1,0.5,0.1,0.6,0.3c0.2,0.1,0.3,0.4,0.2,0.6c-0.1,0.1-0.2,0.2-0.3,0.3
		c-0.6,0.4-1.4,0.5-2.1,0.3"/>
	<path class="st7" d="M57.5,37.5c-0.1,0.2-0.4,0.3-0.6,0.3c-1.5,0-2.9-0.7-4.1-1.7c-0.2-0.2-0.4-0.4-0.5-0.7
		c-0.1-0.3,0.1-0.6,0.4-0.7c0.3-0.1,0.6,0.3,0.7,0.6c0.1,0.3,0.3,0.7,0.3,1s-0.1,0.7-0.3,1c-0.2,0.2-0.4,0.2-0.6,0.3
		c-0.9,0.3-1.9,0.2-2.7-0.4c-0.8-0.5-2.6-2.1-1.3-2.4c0.7,0.1,1.2,0.6,1.4,1.2c0.2,0.6,0,1.4-0.5,1.8c-0.3,0.2-0.6,0.4-0.9,0.5
		c-0.5,0.2-1,0.3-1.6,0.2c-0.6-0.1-1.1-0.5-1.4-1c-0.3-0.5-0.7-1.1-0.5-1.7c0.3-0.9,1-0.1,1.3,0.3s0.4,0.9,0.4,1.4
		c0,0.2,0,0.4-0.1,0.5c-0.2,0.3-0.5,0.4-0.9,0.5c-0.9,0.2-1.8,0.2-2.6-0.2c-0.8-0.4-1.4-1.3-1.1-2.2c0,0,0-0.1,0-0.1
		c0,0,0.1,0,0.1,0c0.9,0,1.5,0.9,1.5,1.8c0,0.2,0,0.3-0.1,0.5c-0.1,0.2-0.4,0.3-0.6,0.3c-0.8,0.2-1.6,0.4-2.4,0.3
		c-0.8-0.1-1.6-0.6-1.8-1.4c-0.1-0.3,0-0.7,0.3-0.8c0.1,0,0.2,0,0.3,0.1c0.4,0.2,0.6,0.7,0.6,1.2c0,0.1,0,0.3-0.1,0.4
		c-0.1,0.2-0.3,0.2-0.5,0.3c-0.5,0.1-1.1-0.1-1.6-0.3c-0.5-0.3-0.9-0.7-1.2-1.1"/>
	<path class="st7" d="M51,43.8c-1.3,0.6-2.8,0.1-3.9-0.8c-0.4-0.3-0.7-0.6-0.8-1.1c-0.1-0.4-0.1-1,0.3-1.3c0.4-0.4,1.1-0.2,1.5,0.1
		s0.6,0.9,0.7,1.5c0.1,0.4,0.1,0.9,0.1,1.3c0,0.2,0,0.4-0.1,0.6c-0.2,0.3-0.6,0.3-0.9,0.3c-0.4,0-0.9,0-1.3-0.1
		c-0.3-0.1-0.6-0.1-0.9-0.3c-0.2-0.2-0.4-0.4-0.5-0.6c-0.5-0.8-1.2-2.5-0.8-2.7C45,40.3,45,42,45,42.7c0,0.1,0,0.2-0.1,0.3
		c-0.1,0.1-0.1,0.1-0.2,0.1c-0.6,0.1-1.1-0.3-1.6-0.6c-0.3-0.3-0.6-0.5-0.9-0.9c-0.2-0.3-0.4-0.8-0.3-1.2c0.5-0.6,1.1,0.9,1.1,1.6
		c0,0.1,0,0.2-0.1,0.3c-0.1,0.1-0.3,0.1-0.5,0.1c-0.5,0-1.1,0-1.5-0.3c-0.2-0.1-0.4-0.3-0.6-0.5c-0.5-0.6-1.1-1.2-1.2-2
		c0.5-0.7,1.3,0.5,1.5,1.2c0.1,0.2,0,0.6-0.3,0.6c-0.2,0-0.3-0.1-0.4-0.2c-1-1-2.4-2.6-3-3.8"/>
	<path class="st7" d="M57.6,42.4c-0.7,0-1.4-0.6-2.1-0.5"/>
	<path class="st7" d="M55.2,41.7c0-0.6-0.1-1.4-0.4-1.9c-0.1-0.2-0.3-0.4-0.4-0.5c-0.3-0.2-0.7-0.2-1.1-0.1c-0.1,0-0.2,0-0.3,0.1
		c-0.2,0.1-0.2,0.4-0.2,0.6c0,0.2,0.1,0.5,0.2,0.7"/>
	<path class="st7" d="M58,48.1c-0.9,0.6-2.1,0.8-3.1,0.4c-1-0.4-2.4-1.5-2-2.2c0.4-0.3,1.2,0,1.7,0.4c0.4,0.4,0.6,1.2,0.3,1.7
		c-0.2,0.4-0.7,0.6-1.1,0.7c-0.7,0.2-1.5,0-2.2-0.4s-1.3-0.8-1.9-1.3c-0.2-0.1-0.3-0.3-0.4-0.5c-0.1-0.3,0.1-0.5,0.3-0.7
		s0.5-0.2,0.8-0.2c0.3,0,0.6,0,0.8,0.1c0.4,0.3,0.5,0.9,0.6,1.4c0,0.2,0,0.3,0,0.5c-0.1,0.2-0.3,0.3-0.6,0.4c-1,0.3-2.1,0-3.1-0.5
		c-0.3-0.2-0.6-0.3-0.8-0.6c-0.5-0.6-1.1-1.9-0.5-2.1c0.8,0,1.5,0.9,1.5,1.7c0,0.1,0,0.2-0.1,0.2c-0.1,0.1-0.1,0.2-0.2,0.2
		c-0.6,0.3-1.3,0.2-1.8-0.1c-0.6-0.3-1-0.8-1.3-1.4c-0.2-0.3-0.3-0.7-0.3-1c0.1-0.3,0.4-0.7,0.7-0.6c0.4,0.1,0.5,0.7,0.5,1.1
		c0,0.1,0,0.2-0.1,0.3C45.7,46,45.6,46,45.5,46c-0.3,0.1-0.6,0.1-0.9,0.1c-0.2,0-0.4,0-0.5-0.1c-0.1-0.1-0.2-0.2-0.3-0.3
		c-0.3-0.4-1-0.8-0.7-1.3c0.5-0.1,0.9,0.4,0.8,0.9c-0.5,0.2-1.2-0.1-1.6-0.5c-0.4-0.5-0.7-0.8-0.8-1.4c0.4-0.6,0.9-0.3,0.7,0.2
		c-0.3,0.2-0.8,0.5-1.1,0.3c-0.2-0.3-0.4-0.6-0.6-0.9c-0.2-0.4-0.6-0.6-0.9-1c-0.6-0.6-0.9-1.4-1.1-2.1"/>
	<path class="st8" d="M57.9,44.2c-0.6-0.4-1.2-0.5-1.8-0.8c-0.4-0.2-0.7-0.4-1-0.7c-0.7-0.5-1.5-0.8-2.3-1.2"/>
	<path class="st8" d="M57.9,45.4c-0.9-0.1-1.8-0.6-2.7-1c-0.5-0.3-1.1-0.5-1.6-0.8c-0.4-0.2-0.8-0.4-1.1-0.7
		c-0.4-0.4-0.7-0.9-0.9-1.3"/>
	<path class="st8" d="M57.9,46.5c-1.5-0.7-2.8-1.5-4.1-2.3"/>
	<path class="st8" d="M58,47.4c-1.2-0.5-2.2-1-3.3-1.6"/>
	<path class="st8" d="M57.9,44.8c-0.5-0.1-0.8-0.4-1.3-0.5c-0.2-0.1-0.4-0.1-0.6-0.2c-0.2-0.1-0.3-0.2-0.5-0.3
		c-0.3-0.2-0.6-0.4-0.9-0.6"/>
	<path class="st7" d="M35.6,37.1c0.3,0.1,0.6,0.1,1,0.1"/>
	<path class="st7" d="M36.7,38c0-0.1-0.1-0.3-0.2-0.4c-0.1-0.1-0.3-0.1-0.5-0.1c-0.2,0-0.4,0-0.6,0"/>
	<path class="st7" d="M36.3,38.1c-0.1,0.3-0.2,0.6-0.5,0.8s-0.5,0.4-0.7,0.6c-0.3,0.2-0.6,0.4-0.9,0.5"/>
	<path class="st7" d="M35.9,38c-0.1,0.2-0.3,0.4-0.5,0.6c-1.1,0.9-2.4,1.5-3.7,2"/>
	<path class="st7" d="M35.5,37.8c-0.7,0.6-1.4,1.1-2.2,1.5"/>
	<path class="st7" d="M35.6,36.7c-0.2-0.2-0.5-0.3-0.8-0.4c-0.4-0.2-0.8-0.3-1.1-0.5"/>
	<path class="st7" d="M35.9,36.6c-0.2-0.4-0.6-0.8-1-1c-0.4-0.2-0.9-0.4-1.3-0.5c-0.5-0.1-0.9-0.3-1.4-0.4"/>
	<path class="st7" d="M36.4,36.8c0-0.2,0-0.3-0.1-0.5c-0.1-0.1-0.2-0.3-0.3-0.4c-0.1-0.1-0.1-0.1-0.2-0.2"/>
</g>
<g>
	<circle class="st10" cx="75" cy="23.9" r="2.8"/>
	<circle class="st10" cx="77" cy="34.6" r="2.8"/>
	<circle class="st10" cx="88.4" cy="38.1" r="2.8"/>
	<circle class="st10" cx="65.5" cy="4.3" r="2.4"/>
	<circle class="st10" cx="84.3" cy="25.7" r="1.3"/>
	<circle class="st10" cx="67.9" cy="18.9" r="1.3"/>
</g>
</svg>
