<?xml version="1.0" encoding="utf-8"?>
<!-- Generator: Adobe Illustrator 22.0.1, SVG Export Plug-In . SVG Version: 6.00 Build 0)  -->
<svg version="1.1" id="Layer_1" xmlns="http://www.w3.org/2000/svg" xmlns:xlink="http://www.w3.org/1999/xlink" x="0px" y="0px"
	 viewBox="0 0 200 100" style="enable-background:new 0 0 200 100;" xml:space="preserve">
<style type="text/css">
	.st0{fill:#FFFFFF;stroke:#010101;stroke-linecap:round;stroke-linejoin:round;stroke-miterlimit:10;}
	.st1{fill:none;stroke:#010101;stroke-linecap:round;stroke-linejoin:round;stroke-miterlimit:10;}
	.st2{fill:#010101;}
	.st3{fill:#FFFFFF;stroke:#231F20;stroke-miterlimit:10;}
	.st4{fill:#231F20;}
</style>
<g>
	<path class="st0" d="M-761.1-318.1c2.9-2.8,6.4-5.1,10.4-5.7c5.8-1,12,1.7,15.2,6.6c1.8,2.7,2.6,5.9,3.5,9c1.3,5,2.6,10.2,1.4,15.2
		c-0.5,2.4-1.6,4.7-2.7,6.9c-1.1,2.2-2.3,4.5-4.1,6.2c-1.8,1.8-4,3-6.3,3.9c-3.2,1.2-6.9,1.7-9.7-0.2c-1-0.7-1.9-1.7-2.7-2.7
		c-2.6-3.3-5.3-6.6-7.9-9.9c-0.5-0.6-1-1.3-1.3-2c-0.4-1.1-0.2-2.3-0.2-3.4c0.1-2.4-0.4-4.8-1-7.1c-0.5-1.9-1.9-4.6-1.5-6.6
		C-767.3-311.5-763.5-315.7-761.1-318.1z"/>
	<path class="st0" d="M-859.6-294.2c-0.3,7.5-0.7,15.1-1.2,22.6c-0.3,6-0.7,12-1,18c0,0.6-0.1,1.3-0.6,1.7c-0.5,0.4-1.1,0.3-1.7,0.2
		c-21.9-3.3-44.5-6.8-63.4-18.2c-2.2-1.3-4.3-2.8-6.1-4.6c-2.2-2.2-3.8-4.9-5.1-7.7c-4.3-9.2-5.7-20.4-1-29.5
		c2.8-5.5,7.6-9.8,12.9-13c5.3-3.2,11.2-5.3,17-7.3c2.5-0.9,5-1.7,7.6-2.3c4.9-1.1,9.9-1.4,14.9-1.5c4.8-0.2,9.5-0.3,14.3-0.3
		c2.4,0,4.8,0,7.1,0c1.8,0,5.1-0.6,6.8,0.1c2.5,1.1,0.8,9,0.7,11.4c-0.2,4.9-0.4,9.7-0.5,14.6C-859.2-304.8-859.4-299.5-859.6-294.2
		z"/>
	<path class="st1" d="M-905.3-297.3c-1.9,3.8-3,8.3-1.6,12.4c1.8,5,7,7.8,12,9.5c2,0.7,4,1.2,6.1,1.3c3.4,0,6.7-1.6,8.9-4.2
		s3.2-6.2,2.7-9.5c-0.4-3.3-2.1-6.3-4-9.1c-1.3-1.9-2.8-3.8-4.7-5c-3.1-1.9-7.7-2.1-11.1-0.8C-900.2-301.6-903.6-300.6-905.3-297.3z
		"/>
	<path class="st2" d="M-891.3-290.7c-1.3-0.1-2.8-0.1-3.8,0.8c-0.7,0.7-0.9,2-0.4,2.9c0.7,1.3,2.5,1.6,4,1.5c0.3,0,0.6-0.1,0.9-0.2
		c0.2-0.1,0.3-0.3,0.4-0.5c0.6-1.1,0.4-2.6-0.4-3.5c-0.8-0.9-2.3-1.2-3.4-0.8"/>
	<path class="st0" d="M-829.8-331.8c11.2,2.4,22.4,4.8,33,9.1c10.5,4.3,20.2,10.3,29.8,16.4c2.1,1.3,4.3,2.8,5.4,5
		c1.1,2.5,0.6,5.5-0.7,7.8c-1.4,2.3-3.5,4.2-5.6,5.9c-8.7,6.9-18.5,12.3-28.2,17.7c-7.9,4.4-15.8,8.8-24.2,12
		c-13.1,5.1-27.4,7.4-41.4,6.6c2.3-4.7,0.8-10.2,0.6-15.4c-0.1-3.9,0.6-7.8,1.1-11.7c1.9-15.3,0.1-30.9,2-46.3
		c0.3-2.5,0.7-5,0.6-7.5c-0.2-3.1-0.2-3.6,3.1-3.4c2.8,0.1,5.7,0.4,8.5,0.8C-840.6-334.1-835.2-333-829.8-331.8z"/>
	<path class="st0" d="M-787.4-326.9c1-0.3,2.1-0.5,3.1-0.3c1,0.2,1.8,0.8,2.6,1.4c0.3,0.2,0.6,0.4,0.8,0.7c0.3,0.4,0.3,0.9,0.3,1.4
		c0.1,1.3,0.2,2.8-0.5,4c-0.8,1.6-2.8,2.3-4.5,2.2c-2.1-0.1-8.2-2.2-8.8-4.5C-795.3-325.2-789.3-326.3-787.4-326.9z"/>
	<path class="st0" d="M-837.6-339.1c2.2-0.7,4.6-0.9,6.8-1.7c1-0.3,1.9-0.8,2.9-0.9c1-0.1,2.1,0,2.8,0.8c0.4,0.5,0.7,1.1,0.8,1.8
		c0.4,1.8,0.3,3.9-0.9,5.2c-1.5,1.6-4,1.6-6.2,1.3c-2.8-0.3-8-0.3-10.5-1.9C-844.3-336-839.3-338.6-837.6-339.1z"/>
	<path class="st0" d="M-806.9-254.8c2.6,1.3,5.5,1.9,8.4,2.4c3.7,0.5,7.5,0.8,11.2,0.8c1.7,0,3.5-0.1,5-0.8c0.6-0.3,1.1-0.7,1.4-1.2
		c0.2-0.5,0.2-1.1,0.2-1.7c-0.5-5.4-3.1-10.6-7.1-14.4c-1.3-1.3-3.2-2.4-4.9-1.8c-0.6,0.2-1.2,0.6-1.7,1c-4,3.1-8.8,5-13.4,7
		c-1.7,0.8-4.6,1.8-3.9,4.2C-811.3-257.4-808.6-255.7-806.9-254.8z"/>
	<path class="st0" d="M-767-271.7c0.7-0.1,1.5-0.2,2.1-0.6c1.1-0.8,1.5-2.3,1.5-3.6c0-2.2-0.8-4.5-2.3-6.2c-1.5-1.7-3.6-2.8-5.8-3
		c-0.4,0-1.6,0.1-1.2,0.1c1.2-0.1-0.6,0.4-0.9,0.6c-1.9,1.7-8.8,5.3-5.9,8.3C-776.9-273.4-770.8-271.4-767-271.7z"/>
	<path class="st1" d="M-854.2-319.4c3,1,5.7,3.5,6.3,6.6c0.1,0.4,0.1,0.7,0,1.1c-0.1,0.4-0.4,0.7-0.6,1c-0.8,0.9-1.5,1.8-2.5,2.5
		s-2.1,1.2-3.3,1.1"/>
	<path class="st1" d="M-835.4-303.8c2.3-0.1,4.5-1.1,6.1-2.7c0.4-0.4,0.7-0.8,0.9-1.3c0.2-0.5,0.2-1,0.2-1.5
		c-0.1-1.5-0.6-2.9-1.5-4.1c-1.4-1.8-4.6-4.1-7-3.2c-2.8,1.1-4.1,3.5-7.5,2.6"/>
	<path class="st1" d="M-825.3-310.4c1.3,0.5,2.5,1,3.6,1.7c1.1,0.7,2.1,1.7,2.6,3c0.3,0.9,0.4,1.9,0.3,2.9c-0.1,2-0.6,4-1.8,5.6
		s-3.1,2.7-5.1,2.5"/>
	<path class="st1" d="M-819.9-327c2,0.5,3.6,2.2,3.9,4.2c0.3,1.7-0.2,3.5-1.2,4.9c-1,1.4-2.4,2.5-3.9,3.3c-0.9,0.5-1.9,0.9-2.9,1
		c-1.2,0.1-2.3-0.1-3.5-0.4"/>
	<path class="st1" d="M-842.8-328.4c1.2,1.1,2.4,2.3,3.7,3.3c0.6,0.5,1.2,1,1.9,1.3c1.1,0.5,2.4,0.5,3.6,0.4c1.4,0,2.9-0.1,4.1-0.8
		s2.1-2.3,1.4-3.6"/>
	<path class="st1" d="M-846.6-332.7c-0.2,1.7,0.5,3.3,0.4,5c-0.1,2.9-2.4,5.5-5.2,6"/>
	<path class="st1" d="M-811.9-320.6c1.1-0.2,2.1,0.4,3,1.1c1.3,1.1,2.5,2.4,3.1,4c0.6,1.6,0.7,3.5-0.2,5c-1,1.9-3.2,2.8-5.2,3.6
		c-1.8,0.7-3.8,1.4-5.7,1"/>
	<path class="st1" d="M-803.1-312.2c1.3,0.5,2.6,1.2,3.6,2.1c0.9,0.8,1.6,1.7,1.8,2.8c0.2,1.5-0.8,3-1.9,4c-1.8,1.8-4.2,3.2-6.7,3.9
		"/>
	<path class="st1" d="M-812.8-302c1,1.2,2.1,2.4,2.7,3.8c0.6,1.4,0.8,3.1,0.2,4.5c-0.6,1.3-1.9,2.1-2.9,3.1
		c-0.9,0.8-1.6,1.7-2.6,2.2c-2.1,1.1-4.6,0.6-6.9,0"/>
	<path class="st1" d="M-826.4-289.7c1.9,0.3,3.1,2.4,2.9,4.3c-0.2,1.9-1.5,3.5-3,4.6c-1.6,1.1-3.6,1.6-5.5,1.6"/>
	<path class="st1" d="M-835.5-282.8c1.1,1.4,1.5,3.3,1,5c-0.5,1.7-1.9,3.1-3.6,3.6c-1.4,0.4-3,0.3-4.5,0.1"/>
	<path class="st1" d="M-853.7-281.4c0.7,2.2,1.3,4.8,0.1,6.8c-0.7,1.1-1.9,1.9-3.1,2.1"/>
	<path class="st1" d="M-847.4-276.2c1.5,0.7,2.9,1.8,3.5,3.3c0.7,1.8,0,3.9-1.4,5.2c-1.4,1.3-3.3,2-5.1,2.2"/>
	<path class="st1" d="M-855.7-268.7c1,0.5,1.7,1.4,2.1,2.5c0.4,1,0.4,2.2,0.4,3.3c0,1-0.1,2-0.5,2.9c-0.7,1.4-2.1,2.3-3.4,3.1"/>
	<path class="st1" d="M-815.7-285c0.3,1.9,1.4,3.5,1.9,5.3c0.5,2.2,0,4.7-1.5,6.5c-1.5,1.8-3.8,2.8-6.1,2.7"/>
	<path class="st1" d="M-827.4-276c0.9,0.5,1.7,1.1,2.4,1.7c0.6,0.5,1.2,1.1,1.5,1.9c0.5,1.2,0.1,2.5-0.3,3.7
		c-0.5,1.3-1.2,2.5-2.3,3.3c-1.1,0.9-2.5,1.3-3.8,1"/>
	<path class="st1" d="M-837.1-268c1.4,0.7,2.8,1.5,3.4,2.9c0.3,0.7,0.3,1.4,0.3,2.1c-0.3,3.5-3.2,6.7-6.7,7.3"/>
	<path class="st1" d="M-848.2-260.6c1.4,0.2,2.5,1.5,2.8,2.8c0.3,1.4,0,2.8-0.3,4.2"/>
	<path class="st1" d="M-805.3-296c0.5,0.8,1,1.7,1.6,2.5c0.9,1.4,1.8,2.9,1.9,4.6c0.1,2.3-1.4,4.4-3.2,5.8c-1.5,1.2-3.4,2-5.3,2.3"
		/>
	<path class="st1" d="M-794-308.1c1.7,0.4,3.3,1.3,4.5,2.6c1.1,1.3,1.7,3.2,1.4,4.9c-0.2,1.2-0.9,2.4-1.7,3.4
		c-2.1,2.7-5.2,4.8-8.6,4.8"/>
	<path class="st1" d="M-790.8-316.8c-0.3,2.5-2.3,4.7-4.8,5.2c-0.5,0.1-1.1,0.1-1.6,0c-0.6-0.2-1.1-0.6-1.5-1
		c-0.7-0.7-1.2-1.5-1.6-2.5"/>
	<path class="st1" d="M-781.5-312.2c0.1,1.8-0.2,3.7-0.9,5.4c-0.2,0.4-0.4,0.8-0.7,1.1c-0.9,0.9-2.3,0.9-3.6,0.8"/>
	<path class="st1" d="M-774.4-304.2c0.4,1.2,0.6,2.6,0,3.7c-0.5,1-1.6,1.6-2.8,1.9c-1.4,0.4-3,0.4-4.4,0"/>
	<path class="st1" d="M-784.4-299.8c1,0.5,1.9,1.1,2.8,1.8c0.8,0.6,1.6,1.2,2.2,2.1s0.9,1.9,0.6,2.9c-0.2,0.9-0.9,1.6-1.6,2.2
		c-1.3,1-2.9,1.7-4.5,2.3c-1.2,0.5-2.5,1-3.7,1.5"/>
	<path class="st1" d="M-794.1-288.2c0.5,0.8,0.9,1.7,1.4,2.5c0.7,1.3,1.5,2.8,1.2,4.3c-0.1,0.8-0.6,1.5-1,2.1
		c-0.5,0.8-1.1,1.5-1.9,2.1c-2.2,1.7-5.2,1.5-7.8,2.1"/>
	<path class="st1" d="M-806.6-276.5c1.8,0.8,2.6,3.1,2.1,5s-2.3,3.3-4.2,3.9c-1.9,0.6-3.9,0.6-5.9,0.3"/>
	<path class="st1" d="M-817.2-267.3c1.2,0.3,2.2,1.4,2.4,2.6c0.2,1.2-0.5,2.6-1.6,3.2"/>
	<path class="st1" d="M-787-284.1c1.2,0.4,2.4,0.9,3.5,1.5c0.6,0.3,1.3,0.8,1.3,1.6"/>
	<path class="st1" d="M-746.7-311.8c-3.4,4.3-8.4,7.2-13.9,8"/>
	<path class="st1" d="M-745.2-301.4c-3.9,1-7.9,1.3-11.9,0.9"/>
	<path class="st1" d="M-758.5-294.7c4.5,0.7,8.6,3.8,10.6,7.9"/>
	<path class="st1" d="M-830.1-336.5c-2,1.3-4.3,2-6.7,2.2"/>
	<path class="st1" d="M-834.9-337.5c-0.6,0.8-1.4,1.5-2.3,1.9"/>
	<path class="st1" d="M-786-324.9c-1.4,0.9-2.9,1.6-4.4,2.1"/>
	<path class="st1" d="M-785.5-322.2c-1.4,0.5-2.8,0.7-4.2,0.7c0.2,0,0.3,0,0.5,0"/>
	<path class="st1" d="M-777.6-278.8c0.6,1.8,2.2,3.2,4.1,3.4"/>
	<path class="st1" d="M-776.1-279.4c2.1,0.8,4.3,1.2,6.5,1.3"/>
	<path class="st1" d="M-771-281.5c0.8,0.5,1.7,1,2.5,1.6"/>
	<path class="st1" d="M-808.2-261.7c0.8,1.2,1.8,2.2,3,2.9c2,1.2,4.5,1.6,6.8,1.9"/>
	<path class="st1" d="M-801.9-262.9c3.3,1.7,6.6,3.7,9.7,5.8"/>
	<path class="st1" d="M-797.2-267.1c2.2,0.1,4.3,1.2,5.7,2.9"/>
	<g>
		<path class="st1" d="M-835.5-301.9c2.8,1.8,5.3,4.5,5.4,7.8c0.1,3.7-2.7,6.9-6,8.5c-6.5,3.2-14.3,1.7-21-1.1
			c-0.5-0.2-1-0.4-1.4-0.8c-0.6-0.7-0.8-1.6-0.8-2.5c-0.2-3.3,0.2-6.6,1.3-9.6c1.1-3.1,2.2-3.8,5.4-4.7
			C-846.9-305.9-840.5-305.1-835.5-301.9z"/>
		<path class="st1" d="M-857.3-297.6c4.2-2.4,9.3-3.2,14-2.3"/>
		<path class="st1" d="M-857.3-294.8c2.7-0.2,5.3-0.1,8,0.4"/>
		<path class="st1" d="M-857.5-291.2c3.3,2.1,7.4,2.6,11.3,2.6"/>
	</g>
</g>
<g>
	<path class="st0" d="M543.1,5.7c2.1-2.1,4.7-3.7,7.6-4.2c4.2-0.7,8.8,1.3,11.1,4.9c1.3,2,1.9,4.3,2.5,6.6c1,3.7,1.9,7.5,1.1,11.2
		c-0.4,1.8-1.2,3.4-2,5.1c-0.8,1.6-1.7,3.3-3,4.6c-1.3,1.3-2.9,2.2-4.7,2.8c-2.3,0.9-5.1,1.3-7.1-0.1c-0.8-0.5-1.4-1.3-1.9-2
		c-1.9-2.4-3.9-4.8-5.8-7.2c-0.4-0.5-0.7-0.9-0.9-1.5c-0.3-0.8-0.1-1.7-0.1-2.5c0.1-1.8-0.3-3.5-0.7-5.2c-0.4-1.4-1.4-3.4-1.1-4.9
		C538.6,10.6,541.3,7.5,543.1,5.7z"/>
	<path class="st0" d="M470.9,23.2c-0.2,5.5-0.5,11.1-0.9,16.6c-0.2,4.4-0.5,8.8-0.7,13.2c0,0.5-0.1,1-0.4,1.3
		c-0.3,0.3-0.8,0.2-1.3,0.1c-16.1-2.4-32.6-5-46.5-13.4c-1.6-1-3.2-2-4.5-3.3c-1.6-1.6-2.8-3.6-3.7-5.7c-3.2-6.8-4.2-15-0.8-21.7
		c2.1-4,5.6-7.2,9.4-9.5s8.2-3.9,12.5-5.4c1.8-0.6,3.7-1.2,5.5-1.7c3.6-0.8,7.3-1,10.9-1.1c3.5-0.1,7-0.2,10.5-0.2
		c1.7,0,3.5,0,5.2,0c1.3,0,3.8-0.5,5,0.1c1.9,0.8,0.6,6.6,0.5,8.4c-0.1,3.6-0.3,7.1-0.4,10.7C471.2,15.5,471.1,19.4,470.9,23.2z"/>
	<path class="st1" d="M437.4,20.9c-1.4,2.8-2.2,6.1-1.1,9.1c1.3,3.6,5.2,5.7,8.8,7c1.4,0.5,2.9,0.9,4.4,0.9c2.5,0,4.9-1.2,6.5-3.1
		c1.6-1.9,2.3-4.5,2-7c-0.3-2.4-1.6-4.6-3-6.6c-1-1.4-2-2.8-3.5-3.6c-2.3-1.4-5.6-1.5-8.1-0.6C441.1,17.8,438.6,18.5,437.4,20.9z"/>
	<path class="st2" d="M447.7,25.8c-1-0.1-2.1-0.1-2.8,0.6c-0.5,0.5-0.7,1.5-0.3,2.1c0.5,1,1.8,1.2,2.9,1.1c0.2,0,0.5,0,0.7-0.2
		c0.1-0.1,0.2-0.2,0.3-0.4c0.4-0.8,0.3-1.9-0.3-2.5c-0.6-0.7-1.7-0.9-2.5-0.6"/>
	<path class="st0" d="M492.8-4.4c8.2,1.8,16.5,3.5,24.2,6.7c7.7,3.1,14.8,7.6,21.8,12c1.5,1,3.2,2,3.9,3.7c0.8,1.8,0.5,4-0.5,5.7
		c-1,1.7-2.5,3.1-4.1,4.3c-6.4,5.1-13.5,9-20.7,13c-5.8,3.2-11.6,6.4-17.8,8.8c-9.6,3.7-20.1,5.4-30.4,4.8c1.7-3.4,0.6-7.5,0.5-11.3
		c-0.1-2.9,0.5-5.7,0.8-8.6c1.4-11.2,0.1-22.7,1.5-33.9c0.2-1.8,0.5-3.7,0.4-5.5c-0.1-2.3-0.1-2.6,2.3-2.5c2.1,0.1,4.2,0.3,6.2,0.6
		C484.9-6.1,488.8-5.2,492.8-4.4z"/>
	<path class="st0" d="M523.9-0.7c0.7-0.2,1.5-0.4,2.3-0.2c0.7,0.2,1.3,0.6,1.9,1.1c0.2,0.2,0.4,0.3,0.6,0.5c0.2,0.3,0.2,0.7,0.2,1
		c0.1,1,0.1,2-0.3,2.9c-0.6,1.1-2,1.7-3.3,1.6c-1.6-0.1-6-1.6-6.5-3.3C518.1,0.5,522.4-0.3,523.9-0.7z"/>
	<path class="st0" d="M487.1-9.7c1.6-0.5,3.4-0.7,5-1.2c0.7-0.2,1.4-0.6,2.1-0.7c0.7-0.1,1.6,0,2.1,0.6c0.3,0.3,0.5,0.8,0.6,1.3
		c0.3,1.3,0.2,2.8-0.7,3.8c-1.1,1.2-2.9,1.2-4.5,1c-2.1-0.2-5.9-0.2-7.7-1.4C482.1-7.4,485.8-9.3,487.1-9.7z"/>
	<path class="st0" d="M509.5,52.1c1.9,1,4,1.4,6.1,1.7c2.7,0.4,5.5,0.6,8.2,0.6c1.2,0,2.5-0.1,3.7-0.6c0.4-0.2,0.8-0.5,1-0.9
		c0.2-0.4,0.2-0.8,0.1-1.3c-0.4-4-2.3-7.8-5.2-10.5c-1-0.9-2.3-1.8-3.6-1.3c-0.5,0.2-0.8,0.5-1.2,0.8c-3,2.3-6.4,3.7-9.8,5.2
		c-1.3,0.6-3.3,1.3-2.9,3.1C506.3,50.2,508.3,51.5,509.5,52.1z"/>
	<path class="st0" d="M538.8,39.7c0.5,0,1.1-0.2,1.5-0.5c0.8-0.6,1.1-1.6,1.1-2.6c0-1.6-0.6-3.3-1.7-4.5c-1.1-1.2-2.6-2.1-4.3-2.2
		c-0.3,0-1.1,0.1-0.9,0.1c0.9-0.1-0.5,0.3-0.7,0.4c-1.4,1.2-6.5,3.9-4.3,6.1C531.5,38.5,536,39.9,538.8,39.7z"/>
	<path class="st1" d="M474.9,4.7c2.2,0.8,4.2,2.5,4.6,4.8c0,0.3,0.1,0.5,0,0.8c-0.1,0.3-0.3,0.5-0.5,0.7c-0.6,0.7-1.1,1.3-1.8,1.8
		s-1.6,0.9-2.4,0.8"/>
	<path class="st1" d="M488.7,16.2c1.7-0.1,3.3-0.8,4.5-2c0.3-0.3,0.5-0.6,0.7-1c0.1-0.3,0.2-0.7,0.1-1.1c0-1.1-0.4-2.2-1.1-3
		c-1-1.3-3.4-3-5.1-2.3c-2,0.8-3,2.5-5.5,1.9"/>
	<path class="st1" d="M496,11.4c0.9,0.4,1.8,0.7,2.7,1.2c0.8,0.5,1.5,1.3,1.9,2.2c0.3,0.7,0.3,1.4,0.2,2.1c-0.1,1.4-0.4,2.9-1.3,4.1
		c-0.9,1.2-2.3,2-3.7,1.8"/>
	<path class="st1" d="M500-0.8c1.4,0.4,2.6,1.6,2.9,3.1c0.2,1.2-0.2,2.5-0.9,3.6s-1.7,1.8-2.8,2.4c-0.7,0.4-1.4,0.6-2.1,0.7
		c-0.9,0.1-1.7-0.1-2.5-0.3"/>
	<path class="st1" d="M483.2-1.8c0.9,0.8,1.8,1.7,2.7,2.5c0.4,0.4,0.9,0.7,1.4,1c0.8,0.4,1.7,0.3,2.6,0.3c1,0,2.1-0.1,3-0.6
		s1.5-1.7,1.1-2.6"/>
	<path class="st1" d="M480.4-5c-0.1,1.2,0.3,2.4,0.3,3.7c-0.1,2.1-1.8,4-3.8,4.4"/>
	<path class="st1" d="M505.9,3.9c0.8-0.2,1.6,0.3,2.2,0.8c1,0.8,1.8,1.8,2.3,3s0.5,2.6-0.1,3.7c-0.8,1.4-2.3,2.1-3.8,2.7
		c-1.3,0.5-2.8,1.1-4.2,0.7"/>
	<path class="st1" d="M512.4,10c1,0.3,1.9,0.9,2.6,1.5c0.6,0.6,1.2,1.3,1.3,2.1c0.1,1.1-0.6,2.2-1.4,3c-1.3,1.3-3.1,2.3-4.9,2.8"/>
	<path class="st1" d="M505.3,17.5c0.7,0.9,1.5,1.7,2,2.8c0.5,1,0.6,2.3,0.1,3.3c-0.5,0.9-1.4,1.6-2.2,2.3c-0.6,0.6-1.2,1.2-1.9,1.6
		c-1.5,0.8-3.4,0.4-5.1,0"/>
	<path class="st1" d="M495.3,26.6c1.4,0.3,2.3,1.8,2.2,3.1s-1.1,2.6-2.2,3.4c-1.2,0.8-2.6,1.2-4,1.2"/>
	<path class="st1" d="M488.6,31.6c0.8,1,1.1,2.4,0.7,3.6s-1.4,2.3-2.6,2.6c-1.1,0.3-2.2,0.2-3.3,0"/>
	<path class="st1" d="M475.3,32.6c0.5,1.6,0.9,3.5,0,4.9c-0.5,0.8-1.4,1.4-2.3,1.5"/>
	<path class="st1" d="M479.9,36.5c1.1,0.5,2.1,1.3,2.6,2.4c0.5,1.3,0,2.8-1,3.8s-2.4,1.4-3.8,1.6"/>
	<path class="st1" d="M473.7,41.9c0.7,0.3,1.2,1,1.5,1.8c0.3,0.8,0.3,1.6,0.3,2.4c0,0.7-0.1,1.5-0.4,2.2c-0.5,1-1.5,1.7-2.5,2.2"/>
	<path class="st1" d="M503.1,30c0.2,1.4,1,2.6,1.4,3.9c0.4,1.6,0,3.5-1.1,4.8c-1.1,1.3-2.8,2.1-4.5,2"/>
	<path class="st1" d="M494.5,36.6c0.6,0.4,1.2,0.8,1.8,1.3c0.4,0.4,0.9,0.8,1.1,1.4c0.3,0.9,0.1,1.8-0.2,2.7
		c-0.4,0.9-0.9,1.8-1.7,2.4c-0.8,0.6-1.8,1-2.8,0.7"/>
	<path class="st1" d="M487.4,42.4c1,0.5,2.1,1.1,2.5,2.1c0.2,0.5,0.2,1,0.2,1.5c-0.2,2.6-2.3,4.9-4.9,5.3"/>
	<path class="st1" d="M479.3,47.8c1,0.1,1.8,1.1,2.1,2.1s0,2.1-0.2,3.1"/>
	<path class="st1" d="M510.7,21.9c0.4,0.6,0.8,1.2,1.1,1.8c0.6,1,1.3,2.1,1.4,3.3c0.1,1.7-1,3.2-2.4,4.2c-1.1,0.9-2.5,1.4-3.9,1.7"
		/>
	<path class="st1" d="M519,13c1.3,0.3,2.5,0.9,3.3,1.9c0.8,1,1.3,2.3,1,3.6c-0.2,0.9-0.7,1.7-1.3,2.5c-1.5,2-3.8,3.5-6.3,3.5"/>
	<path class="st1" d="M521.3,6.6c-0.2,1.8-1.7,3.5-3.5,3.8c-0.4,0.1-0.8,0.1-1.1,0c-0.4-0.1-0.8-0.4-1.1-0.7
		c-0.5-0.5-0.9-1.1-1.2-1.8"/>
	<path class="st1" d="M528.2,10c0.1,1.3-0.1,2.7-0.6,3.9c-0.1,0.3-0.3,0.6-0.5,0.8c-0.6,0.7-1.7,0.7-2.6,0.6"/>
	<path class="st1" d="M533.4,15.9c0.3,0.9,0.4,1.9,0,2.7c-0.4,0.7-1.2,1.2-2,1.4c-1.1,0.3-2.2,0.3-3.2,0"/>
	<path class="st1" d="M526,19.1c0.7,0.4,1.4,0.8,2.1,1.3c0.6,0.4,1.2,0.9,1.6,1.5c0.4,0.6,0.6,1.4,0.4,2.1c-0.2,0.7-0.7,1.2-1.2,1.6
		c-1,0.8-2.1,1.2-3.3,1.7c-0.9,0.4-1.8,0.7-2.7,1.1"/>
	<path class="st1" d="M518.9,27.6c0.3,0.6,0.7,1.2,1,1.9c0.5,1,1.1,2,0.9,3.1c-0.1,0.6-0.4,1.1-0.7,1.6c-0.4,0.6-0.8,1.1-1.4,1.6
		c-1.6,1.2-3.8,1.1-5.7,1.6"/>
	<path class="st1" d="M509.8,36.2c1.3,0.6,1.9,2.3,1.5,3.7c-0.4,1.4-1.7,2.4-3.1,2.9c-1.4,0.5-2.9,0.4-4.3,0.2"/>
	<path class="st1" d="M502,43c0.9,0.2,1.6,1,1.8,1.9c0.1,0.9-0.3,1.9-1.1,2.3"/>
	<path class="st1" d="M524.1,30.6c0.9,0.3,1.7,0.7,2.6,1.1c0.5,0.2,1,0.6,0.9,1.1"/>
	<path class="st1" d="M553.7,10.3c-2.5,3.2-6.2,5.3-10.2,5.8"/>
	<path class="st1" d="M554.8,17.9c-2.9,0.7-5.8,1-8.8,0.7"/>
	<path class="st1" d="M545,22.8c3.3,0.5,6.3,2.8,7.7,5.8"/>
	<path class="st1" d="M492.6-7.8c-1.5,0.9-3.2,1.5-4.9,1.6"/>
	<path class="st1" d="M489-8.5c-0.5,0.6-1,1.1-1.7,1.4"/>
	<path class="st1" d="M524.9,0.8c-1,0.6-2.1,1.1-3.2,1.5"/>
	<path class="st1" d="M525.3,2.7c-1,0.4-2,0.5-3.1,0.5c0.1,0,0.2,0,0.4,0"/>
	<path class="st1" d="M531,34.5c0.4,1.3,1.6,2.3,3,2.5"/>
	<path class="st1" d="M532.2,34.1c1.5,0.6,3.1,0.9,4.7,0.9"/>
	<path class="st1" d="M535.9,32.5c0.6,0.4,1.2,0.8,1.9,1.2"/>
	<path class="st1" d="M508.6,47c0.6,0.9,1.3,1.6,2.2,2.1c1.5,0.9,3.3,1.1,5,1.4"/>
	<path class="st1" d="M513.2,46.2c2.4,1.3,4.8,2.7,7.1,4.2"/>
	<path class="st1" d="M516.6,43.1c1.6,0.1,3.2,0.9,4.2,2.1"/>
	<g>
		<path class="st1" d="M488.6,17.6c2,1.3,3.9,3.3,4,5.7c0.1,2.7-2,5-4.4,6.2c-4.8,2.3-10.5,1.2-15.4-0.8c-0.4-0.2-0.7-0.3-1-0.6
			c-0.5-0.5-0.6-1.2-0.6-1.9c-0.2-2.4,0.2-4.8,1-7.1c0.8-2.3,1.6-2.8,4-3.4C480.3,14.6,484.9,15.3,488.6,17.6z"/>
		<path class="st1" d="M472.6,20.8c3.1-1.8,6.8-2.4,10.3-1.7"/>
		<path class="st1" d="M472.6,22.8c1.9-0.2,3.9-0.1,5.8,0.3"/>
		<path class="st1" d="M472.4,25.4c2.4,1.5,5.4,1.9,8.3,1.9"/>
	</g>
</g>
<g>
	<path class="st0" d="M-282.6-226.4c-2.8,2.8-6.3,5-10.2,5.7c-5.7,1-11.8-1.7-15-6.5c-1.8-2.7-2.6-5.8-3.4-8.9
		c-1.3-4.9-2.5-10.1-1.4-15.1c0.5-2.4,1.6-4.6,2.7-6.8c1.1-2.2,2.3-4.4,4-6.1c1.7-1.7,4-2.9,6.3-3.8c3.1-1.2,6.9-1.7,9.6,0.2
		c1,0.7,1.8,1.7,2.6,2.7c2.6,3.3,5.2,6.5,7.8,9.8c0.5,0.6,1,1.3,1.3,2c0.4,1.1,0.2,2.2,0.2,3.4c-0.1,2.4,0.4,4.7,1,7
		c0.5,1.9,1.8,4.6,1.5,6.6C-276.4-233-280.1-228.8-282.6-226.4z"/>
	<path class="st0" d="M-185.3-250.1c0.3-7.5,0.7-14.9,1.1-22.3c0.3-5.9,0.7-11.8,1-17.8c0-0.6,0.1-1.3,0.6-1.7
		c0.5-0.4,1.1-0.3,1.7-0.2c21.6,3.2,43.9,6.7,62.6,18c2.2,1.3,4.3,2.7,6,4.5c2.1,2.2,3.7,4.9,5,7.6c4.3,9.1,5.6,20.2,1,29.2
		c-2.8,5.4-7.5,9.7-12.7,12.9c-5.2,3.1-11,5.2-16.8,7.2c-2.5,0.8-4.9,1.7-7.5,2.3c-4.8,1.1-9.8,1.3-14.7,1.5
		c-4.7,0.2-9.4,0.3-14.1,0.3c-2.4,0-4.7,0-7.1,0c-1.8,0-5.1,0.6-6.7-0.1c-2.5-1.1-0.8-8.9-0.7-11.3c0.2-4.8,0.4-9.6,0.5-14.4
		C-185.7-239.6-185.5-244.9-185.3-250.1z"/>
	<path class="st1" d="M-140.1-247c1.9-3.8,3-8.2,1.5-12.2c-1.8-4.9-7-7.7-11.9-9.4c-1.9-0.7-3.9-1.2-6-1.2c-3.4,0-6.7,1.6-8.8,4.1
		c-2.2,2.6-3.1,6.1-2.7,9.4c0.4,3.3,2.1,6.2,4,9c1.3,1.9,2.7,3.7,4.7,4.9c3.1,1.9,7.6,2.1,11,0.8
		C-145.1-242.8-141.8-243.7-140.1-247z"/>
	<path class="st2" d="M-153.9-253.5c1.3,0.1,2.8,0.1,3.7-0.8c0.7-0.7,0.9-2,0.4-2.9c-0.7-1.3-2.5-1.6-4-1.5c-0.3,0-0.6,0.1-0.9,0.2
		c-0.2,0.1-0.3,0.3-0.4,0.5c-0.6,1.1-0.4,2.5,0.4,3.4c0.8,0.9,2.2,1.2,3.4,0.7"/>
	<path class="st0" d="M-214.7-212.9c-11.1-2.4-22.2-4.8-32.6-9c-10.4-4.2-19.9-10.2-29.4-16.2c-2.1-1.3-4.3-2.7-5.3-5
		c-1.1-2.4-0.6-5.4,0.7-7.7c1.3-2.3,3.4-4.1,5.5-5.8c8.6-6.8,18.2-12.2,27.8-17.5c7.8-4.3,15.6-8.7,23.9-11.9c13-5,27-7.3,40.9-6.5
		c-2.3,4.6-0.8,10.1-0.6,15.3c0.1,3.9-0.6,7.7-1.1,11.6c-1.9,15.1-0.1,30.6-2,45.7c-0.3,2.5-0.7,4.9-0.6,7.4c0.2,3,0.2,3.5-3,3.4
		c-2.8-0.1-5.6-0.4-8.4-0.8C-204.1-210.6-209.4-211.8-214.7-212.9z"/>
	<path class="st0" d="M-256.6-217.8c-1,0.3-2.1,0.5-3.1,0.3c-1-0.2-1.8-0.8-2.6-1.4c-0.3-0.2-0.6-0.4-0.7-0.7
		c-0.3-0.4-0.3-0.9-0.3-1.4c-0.1-1.3-0.2-2.7,0.5-3.9c0.8-1.5,2.7-2.2,4.5-2.1c2.1,0.1,8.1,2.2,8.7,4.5
		C-248.8-219.4-254.7-218.3-256.6-217.8z"/>
	<path class="st0" d="M-207-205.7c-2.2,0.7-4.5,0.9-6.7,1.6c-0.9,0.3-1.9,0.7-2.9,0.9s-2.1,0-2.8-0.8c-0.4-0.5-0.7-1.1-0.8-1.7
		c-0.4-1.8-0.3-3.8,0.9-5.1c1.5-1.6,4-1.6,6.1-1.3c2.8,0.3,7.9,0.3,10.3,1.9C-200.4-208.8-205.3-206.3-207-205.7z"/>
	<path class="st0" d="M-237.3-289c-2.6-1.3-5.4-1.9-8.3-2.3c-3.7-0.5-7.4-0.8-11.1-0.8c-1.7,0-3.4,0.1-4.9,0.8
		c-0.6,0.3-1.1,0.7-1.3,1.2c-0.2,0.5-0.2,1.1-0.2,1.7c0.5,5.4,3.1,10.5,7,14.2c1.3,1.2,3.2,2.4,4.9,1.8c0.6-0.2,1.1-0.6,1.7-1
		c4-3,8.6-4.9,13.2-6.9c1.7-0.8,4.5-1.8,3.9-4.2C-233-286.4-235.7-288.1-237.3-289z"/>
	<path class="st0" d="M-276.7-272.3c-0.7,0.1-1.5,0.2-2.1,0.6c-1.1,0.8-1.4,2.2-1.4,3.6c0,2.2,0.8,4.4,2.3,6.1
		c1.5,1.7,3.6,2.8,5.8,3c0.4,0,1.5-0.1,1.2-0.1c-1.2,0.1,0.6-0.4,0.9-0.6c1.9-1.6,8.7-5.3,5.8-8.2
		C-266.9-270.6-273-272.6-276.7-272.3z"/>
	<path class="st1" d="M-190.6-225.2c-3-1-5.6-3.4-6.2-6.5c-0.1-0.4-0.1-0.7,0-1.1c0.1-0.4,0.4-0.7,0.6-1c0.8-0.9,1.5-1.8,2.5-2.5
		c0.9-0.7,2.1-1.1,3.3-1.1"/>
	<path class="st1" d="M-209.2-240.6c-2.2,0.1-4.4,1.1-6,2.7c-0.4,0.4-0.7,0.8-0.9,1.3c-0.2,0.5-0.2,1-0.2,1.5c0.1,1.5,0.6,2.9,1.5,4
		c1.4,1.8,4.6,4,6.9,3.1c2.7-1.1,4-3.4,7.4-2.6"/>
	<path class="st1" d="M-219.1-234.1c-1.2-0.5-2.5-1-3.6-1.7s-2.1-1.7-2.5-3c-0.3-0.9-0.4-1.9-0.3-2.9c0.1-2,0.6-3.9,1.8-5.5
		c1.2-1.6,3.1-2.6,5-2.4"/>
	<path class="st1" d="M-224.5-217.7c-1.9-0.5-3.5-2.2-3.9-4.2c-0.3-1.7,0.2-3.4,1.2-4.8c1-1.4,2.3-2.4,3.8-3.2
		c0.9-0.5,1.8-0.9,2.8-1c1.2-0.1,2.3,0.1,3.4,0.4"/>
	<path class="st1" d="M-201.8-216.3c-1.2-1.1-2.4-2.2-3.6-3.3c-0.6-0.5-1.2-1-1.9-1.3c-1.1-0.5-2.3-0.5-3.5-0.4
		c-1.4,0-2.9,0.1-4.1,0.8c-1.2,0.7-2,2.3-1.4,3.5"/>
	<path class="st1" d="M-198.1-212.1c0.2-1.6-0.5-3.3-0.4-4.9c0.1-2.8,2.4-5.5,5.2-5.9"/>
	<path class="st1" d="M-232.4-224c-1.1,0.2-2.1-0.4-2.9-1.1c-1.3-1.1-2.5-2.4-3.1-4c-0.6-1.6-0.6-3.5,0.2-4.9c1-1.9,3.1-2.8,5.1-3.6
		c1.8-0.7,3.7-1.4,5.6-1"/>
	<path class="st1" d="M-241.1-232.3c-1.3-0.5-2.5-1.2-3.6-2.1c-0.8-0.7-1.6-1.7-1.7-2.8c-0.2-1.5,0.8-2.9,1.8-4
		c1.8-1.8,4.1-3.1,6.6-3.8"/>
	<path class="st1" d="M-231.5-242.4c-1-1.2-2-2.3-2.7-3.7c-0.6-1.4-0.8-3.1-0.2-4.4c0.6-1.3,1.9-2.1,2.9-3.1
		c0.8-0.8,1.6-1.6,2.6-2.2c2-1.1,4.6-0.6,6.8,0"/>
	<path class="st1" d="M-218.1-254.6c-1.8-0.3-3.1-2.4-2.9-4.2c0.2-1.9,1.4-3.5,3-4.5c1.6-1.1,3.5-1.6,5.4-1.6"/>
	<path class="st1" d="M-209-261.3c-1.1-1.3-1.5-3.2-1-4.9c0.5-1.7,1.9-3,3.5-3.5c1.4-0.4,3-0.3,4.4-0.1"/>
	<path class="st1" d="M-191.1-262.7c-0.7-2.2-1.3-4.7-0.1-6.7c0.7-1.1,1.8-1.8,3.1-2"/>
	<path class="st1" d="M-197.3-267.9c-1.4-0.7-2.9-1.7-3.4-3.3c-0.7-1.7,0-3.8,1.4-5.1c1.3-1.3,3.2-1.9,5.1-2.2"/>
	<path class="st1" d="M-189.1-275.3c-1-0.5-1.7-1.4-2.1-2.4c-0.4-1-0.4-2.1-0.4-3.2c0-1,0.1-2,0.5-2.9c0.7-1.4,2-2.2,3.3-3"/>
	<path class="st1" d="M-228.6-259.2c-0.3-1.8-1.4-3.5-1.8-5.3c-0.5-2.2,0-4.7,1.5-6.4c1.4-1.8,3.7-2.8,6-2.7"/>
	<path class="st1" d="M-217.1-268.1c-0.9-0.5-1.7-1.1-2.4-1.7c-0.6-0.5-1.2-1.1-1.5-1.8c-0.5-1.2-0.1-2.5,0.3-3.6
		c0.5-1.2,1.2-2.4,2.3-3.3c1-0.8,2.5-1.3,3.8-1"/>
	<path class="st1" d="M-207.5-275.9c-1.3-0.7-2.8-1.5-3.4-2.9c-0.3-0.6-0.3-1.4-0.2-2.1c0.3-3.5,3.2-6.6,6.6-7.2"/>
	<path class="st1" d="M-196.5-283.2c-1.4-0.2-2.5-1.4-2.8-2.8c-0.3-1.4,0-2.8,0.3-4.2"/>
	<path class="st1" d="M-238.9-248.3c-0.5-0.8-1-1.6-1.5-2.5c-0.9-1.4-1.8-2.9-1.9-4.5c-0.1-2.3,1.4-4.4,3.2-5.7
		c1.5-1.2,3.3-1.9,5.2-2.3"/>
	<path class="st1" d="M-250.1-236.4c-1.7-0.4-3.3-1.2-4.4-2.6c-1.1-1.3-1.7-3.1-1.4-4.9c0.2-1.2,0.9-2.3,1.7-3.3
		c2.1-2.6,5.1-4.8,8.5-4.7"/>
	<path class="st1" d="M-253.2-227.7c0.3-2.5,2.3-4.7,4.7-5.1c0.5-0.1,1-0.1,1.5,0c0.6,0.2,1.1,0.6,1.5,1c0.7,0.7,1.2,1.5,1.6,2.4"/>
	<path class="st1" d="M-262.4-232.3c-0.1-1.8,0.2-3.6,0.9-5.3c0.2-0.4,0.4-0.8,0.7-1.1c0.9-0.9,2.3-0.9,3.5-0.8"/>
	<path class="st1" d="M-269.4-240.2c-0.4-1.2-0.6-2.6,0-3.7c0.5-1,1.6-1.6,2.7-1.9c1.4-0.4,2.9-0.4,4.4,0"/>
	<path class="st1" d="M-259.5-244.5c-1-0.5-1.9-1.1-2.8-1.7c-0.8-0.6-1.6-1.2-2.2-2.1c-0.6-0.8-0.9-1.9-0.6-2.8
		c0.2-0.9,0.9-1.6,1.6-2.2c1.3-1,2.9-1.6,4.4-2.2c1.2-0.5,2.5-1,3.7-1.4"/>
	<path class="st1" d="M-249.9-256c-0.5-0.8-0.9-1.7-1.4-2.5c-0.7-1.3-1.5-2.8-1.2-4.2c0.1-0.8,0.5-1.5,1-2.1
		c0.5-0.8,1.1-1.5,1.8-2.1c2.1-1.6,5.1-1.4,7.7-2.1"/>
	<path class="st1" d="M-237.6-267.5c-1.8-0.8-2.6-3.1-2-4.9c0.6-1.9,2.3-3.2,4.1-3.8c1.9-0.6,3.9-0.6,5.8-0.3"/>
	<path class="st1" d="M-227.1-276.6c-1.2-0.3-2.2-1.4-2.4-2.6c-0.2-1.2,0.5-2.5,1.5-3.2"/>
	<path class="st1" d="M-257-260.1c-1.2-0.4-2.4-0.9-3.5-1.5c-0.6-0.3-1.3-0.8-1.3-1.5"/>
	<path class="st1" d="M-296.8-232.7c3.3-4.3,8.3-7.1,13.7-7.9"/>
	<path class="st1" d="M-298.2-242.9c3.8-1,7.9-1.3,11.8-0.9"/>
	<path class="st1" d="M-285.1-249.5c-4.5-0.7-8.5-3.7-10.4-7.8"/>
	<path class="st1" d="M-214.4-208.3c2-1.3,4.3-2,6.6-2.2"/>
	<path class="st1" d="M-209.6-207.3c0.6-0.8,1.4-1.4,2.3-1.9"/>
	<path class="st1" d="M-258-219.8c1.4-0.8,2.8-1.5,4.4-2"/>
	<path class="st1" d="M-258.5-222.5c1.3-0.5,2.8-0.7,4.2-0.7c-0.2,0-0.3,0-0.5,0"/>
	<path class="st1" d="M-266.3-265.3c-0.6-1.8-2.2-3.1-4-3.4"/>
	<path class="st1" d="M-267.8-264.7c-2-0.8-4.2-1.2-6.4-1.3"/>
	<path class="st1" d="M-272.8-262.6c-0.8-0.5-1.7-1-2.5-1.6"/>
	<path class="st1" d="M-236-282.2c-0.7-1.2-1.8-2.2-3-2.9c-2-1.2-4.4-1.5-6.7-1.9"/>
	<path class="st1" d="M-242.3-281c-3.3-1.7-6.5-3.6-9.5-5.7"/>
	<path class="st1" d="M-246.9-276.8c-2.2-0.1-4.3-1.2-5.6-2.9"/>
	<g>
		<path class="st1" d="M-209.1-242.5c-2.8-1.7-5.2-4.5-5.4-7.7c-0.1-3.6,2.7-6.8,5.9-8.4c6.4-3.1,14.2-1.6,20.7,1.1
			c0.5,0.2,1,0.4,1.4,0.8c0.6,0.6,0.8,1.6,0.8,2.5c0.2,3.2-0.2,6.5-1.3,9.5c-1.1,3.1-2.2,3.8-5.4,4.6
			C-197.9-238.5-204.1-239.4-209.1-242.5z"/>
		<path class="st1" d="M-187.6-246.7c-4.2,2.4-9.2,3.2-13.9,2.2"/>
		<path class="st1" d="M-187.5-249.5c-2.6,0.2-5.3,0.1-7.9-0.4"/>
		<path class="st1" d="M-187.3-253c-3.3-2.1-7.3-2.5-11.1-2.6"/>
	</g>
</g>
<g>
	<path class="st0" d="M44.8,67.9c-2.1,2.1-4.7,3.7-7.6,4.2c-4.2,0.7-8.8-1.3-11.1-4.9c-1.3-2-1.9-4.3-2.5-6.6
		c-1-3.7-1.9-7.5-1.1-11.2c0.4-1.8,1.2-3.4,2-5.1c0.8-1.6,1.7-3.3,3-4.6c1.3-1.3,2.9-2.2,4.7-2.8c2.3-0.9,5.1-1.3,7.1,0.1
		c0.8,0.5,1.4,1.3,1.9,2c1.9,2.4,3.9,4.8,5.8,7.2c0.4,0.5,0.7,0.9,0.9,1.5c0.3,0.8,0.1,1.7,0.1,2.5c-0.1,1.8,0.3,3.5,0.7,5.2
		c0.4,1.4,1.4,3.4,1.1,4.9C49.3,63.1,46.6,66.2,44.8,67.9z"/>
	<path class="st0" d="M117,50.8c0.2-5.5,0.5-11.1,0.9-16.6c0.2-4.4,0.5-8.8,0.7-13.2c0-0.5,0.1-1,0.4-1.3c0.3-0.3,0.8-0.2,1.3-0.1
		c16.1,2.4,32.6,5,46.5,13.4c1.6,1,3.2,2,4.5,3.3c1.6,1.6,2.8,3.6,3.7,5.7c3.2,6.8,4.2,15,0.8,21.7c-2.1,4-5.6,7.2-9.4,9.5
		c-3.9,2.3-8.2,3.9-12.5,5.4c-1.8,0.6-3.7,1.2-5.5,1.7c-3.6,0.8-7.3,1-10.9,1.1c-3.5,0.1-7,0.2-10.5,0.2c-1.7,0-3.5,0-5.2,0
		c-1.3,0-3.8,0.5-5-0.1c-1.9-0.8-0.6-6.6-0.5-8.4c0.1-3.6,0.3-7.1,0.4-10.7C116.7,58.5,116.8,54.6,117,50.8z"/>
	<path class="st1" d="M150.5,52.7c1.4-2.8,2.2-6.1,1.1-9.1c-1.3-3.6-5.2-5.7-8.8-7c-1.4-0.5-2.9-0.9-4.4-0.9c-2.5,0-4.9,1.2-6.5,3.1
		s-2.3,4.5-2,7c0.3,2.4,1.6,4.6,3,6.6c1,1.4,2,2.8,3.5,3.6c2.3,1.4,5.6,1.5,8.1,0.6C146.8,55.8,149.3,55.1,150.5,52.7z"/>
	<path class="st2" d="M143,47.2c0.5-0.5,0.7-1.5,0.3-2.1c-0.5-1-1.8-1.2-2.9-1.1c-0.2,0-0.5,0-0.7,0.2c-0.1,0.1-0.2,0.2-0.3,0.4
		c-0.4,0.8-0.3,1.9,0.3,2.5c0.6,0.7,1.7,0.9,2.5,0.6"/>
	<path class="st0" d="M95.2,78c-8.2-1.8-16.5-3.5-24.2-6.7c-7.7-3.1-14.8-7.6-21.8-12c-1.5-1-3.2-2-3.9-3.7c-0.8-1.8-0.5-4,0.5-5.7
		c1-1.7,2.5-3.1,4.1-4.3c6.4-5.1,13.5-9,20.7-13c5.8-3.2,11.6-6.4,17.8-8.8c9.6-3.7,20.1-5.4,30.4-4.8c-1.7,3.4-0.6,7.5-0.5,11.3
		c0.1,2.9-0.5,5.7-0.8,8.6c-1.4,11.2-0.1,22.7-1.5,33.9c-0.2,1.8-0.5,3.7-0.4,5.5c0.1,2.3,0.1,2.6-2.3,2.5c-2.1-0.1-4.2-0.3-6.2-0.6
		C103,79.7,99.1,78.8,95.2,78z"/>
	<path class="st0" d="M64.1,74.3c-0.7,0.2-1.5,0.4-2.3,0.2c-0.7-0.2-1.3-0.6-1.9-1.1c-0.2-0.2-0.4-0.3-0.6-0.5
		c-0.2-0.3-0.2-0.7-0.2-1c-0.1-1-0.1-2,0.3-2.9c0.6-1.1,2-1.7,3.3-1.6c1.6,0.1,6,1.6,6.5,3.3C69.8,73.1,65.5,74,64.1,74.3z"/>
	<path class="st0" d="M100.9,83.3c-1.6,0.5-3.4,0.7-5,1.2c-0.7,0.2-1.4,0.6-2.1,0.7s-1.6,0-2.1-0.6c-0.3-0.3-0.5-0.8-0.6-1.3
		c-0.3-1.3-0.2-2.8,0.7-3.8c1.1-1.2,2.9-1.2,4.5-1c2.1,0.2,5.9,0.2,7.7,1.4C105.8,81.1,102.1,82.9,100.9,83.3z"/>
	<path class="st0" d="M78.4,21.5c-1.9-1-4-1.4-6.1-1.7c-2.7-0.4-5.5-0.6-8.2-0.6c-1.2,0-2.5,0.1-3.7,0.6c-0.4,0.2-0.8,0.5-1,0.9
		c-0.2,0.4-0.2,0.8-0.1,1.3c0.4,4,2.3,7.8,5.2,10.5c1,0.9,2.3,1.8,3.6,1.3c0.5-0.2,0.8-0.5,1.2-0.8c3-2.3,6.4-3.7,9.8-5.2
		c1.3-0.6,3.3-1.3,2.9-3.1C81.6,23.4,79.6,22.1,78.4,21.5z"/>
	<path class="st0" d="M49.1,33.9c-0.5,0-1.1,0.2-1.5,0.5C46.8,35,46.5,36,46.5,37c0,1.6,0.6,3.3,1.7,4.5s2.6,2.1,4.3,2.2
		c0.3,0,1.1-0.1,0.9-0.1c-0.9,0.1,0.5-0.3,0.7-0.4c1.4-1.2,6.5-3.9,4.3-6.1C56.4,35.2,51.9,33.7,49.1,33.9z"/>
	<path class="st1" d="M113,68.9c-2.2-0.8-4.2-2.5-4.6-4.8c0-0.3-0.1-0.5,0-0.8c0.1-0.3,0.3-0.5,0.5-0.7c0.6-0.7,1.1-1.3,1.8-1.8
		c0.7-0.5,1.6-0.9,2.4-0.8"/>
	<path class="st1" d="M99.3,57.5c-1.7,0.1-3.3,0.8-4.5,2c-0.3,0.3-0.5,0.6-0.7,1C94,60.7,94,61.1,94,61.5c0,1.1,0.4,2.2,1.1,3
		c1,1.3,3.4,3,5.1,2.3c2-0.8,3-2.5,5.5-1.9"/>
	<path class="st1" d="M91.9,62.2C91,61.9,90,61.5,89.2,61c-0.8-0.5-1.5-1.3-1.9-2.2c-0.3-0.7-0.3-1.4-0.2-2.1
		c0.1-1.4,0.4-2.9,1.3-4.1c0.9-1.2,2.3-2,3.7-1.8"/>
	<path class="st1" d="M87.9,74.4c-1.4-0.4-2.6-1.6-2.9-3.1c-0.2-1.2,0.2-2.5,0.9-3.6c0.7-1,1.7-1.8,2.8-2.4c0.7-0.4,1.4-0.6,2.1-0.7
		c0.9-0.1,1.7,0.1,2.5,0.3"/>
	<path class="st1" d="M104.7,75.4c-0.9-0.8-1.8-1.7-2.7-2.5c-0.4-0.4-0.9-0.7-1.4-1c-0.8-0.4-1.7-0.3-2.6-0.3c-1,0-2.1,0.1-3,0.6
		s-1.5,1.7-1.1,2.6"/>
	<path class="st1" d="M107.5,78.6c0.1-1.2-0.3-2.4-0.3-3.7c0.1-2.1,1.8-4,3.8-4.4"/>
	<path class="st1" d="M82,69.7c-0.8,0.2-1.6-0.3-2.2-0.8c-1-0.8-1.8-1.8-2.3-3c-0.5-1.2-0.5-2.6,0.1-3.7c0.8-1.4,2.3-2.1,3.8-2.7
		c1.3-0.5,2.8-1.1,4.2-0.7"/>
	<path class="st1" d="M75.6,63.6c-1-0.3-1.9-0.9-2.6-1.5c-0.6-0.6-1.2-1.3-1.3-2.1c-0.1-1.1,0.6-2.2,1.4-3c1.3-1.3,3.1-2.3,4.9-2.8"
		/>
	<path class="st1" d="M82.7,56.1c-0.7-0.9-1.5-1.7-2-2.8s-0.6-2.3-0.1-3.3c0.5-0.9,1.4-1.6,2.2-2.3c0.6-0.6,1.2-1.2,1.9-1.6
		c1.5-0.8,3.4-0.4,5.1,0"/>
	<path class="st1" d="M92.7,47.1c-1.4-0.3-2.3-1.8-2.2-3.1c0.1-1.4,1.1-2.6,2.2-3.4c1.2-0.8,2.6-1.2,4-1.2"/>
	<path class="st1" d="M99.3,42c-0.8-1-1.1-2.4-0.7-3.6c0.4-1.2,1.4-2.3,2.6-2.6c1.1-0.3,2.2-0.2,3.3,0"/>
	<path class="st1" d="M112.7,41c-0.5-1.6-0.9-3.5,0-4.9c0.5-0.8,1.4-1.4,2.3-1.5"/>
	<path class="st1" d="M108.1,37.2c-1.1-0.5-2.1-1.3-2.6-2.4c-0.5-1.3,0-2.8,1-3.8s2.4-1.4,3.8-1.6"/>
	<path class="st1" d="M114.2,31.7c-0.7-0.3-1.2-1-1.5-1.8c-0.3-0.8-0.3-1.6-0.3-2.4c0-0.7,0.1-1.5,0.4-2.2c0.5-1,1.5-1.7,2.5-2.2"/>
	<path class="st1" d="M84.8,43.6c-0.2-1.4-1-2.6-1.4-3.9c-0.4-1.6,0-3.5,1.1-4.8c1.1-1.3,2.8-2.1,4.5-2"/>
	<path class="st1" d="M93.4,37c-0.6-0.4-1.2-0.8-1.8-1.3c-0.4-0.4-0.9-0.8-1.1-1.4c-0.3-0.9-0.1-1.8,0.2-2.7
		c0.4-0.9,0.9-1.8,1.7-2.4c0.8-0.6,1.8-1,2.8-0.7"/>
	<path class="st1" d="M100.5,31.2c-1-0.5-2.1-1.1-2.5-2.1c-0.2-0.5-0.2-1-0.2-1.5c0.2-2.6,2.3-4.9,4.9-5.3"/>
	<path class="st1" d="M108.6,25.8c-1-0.1-1.8-1.1-2.1-2.1c-0.2-1,0-2.1,0.2-3.1"/>
	<path class="st1" d="M77.2,51.7c-0.4-0.6-0.8-1.2-1.1-1.8c-0.6-1-1.3-2.1-1.4-3.3c-0.1-1.7,1-3.2,2.4-4.2c1.1-0.9,2.5-1.4,3.9-1.7"
		/>
	<path class="st1" d="M68.9,60.6c-1.3-0.3-2.5-0.9-3.3-1.9c-0.8-1-1.3-2.3-1-3.6c0.2-0.9,0.7-1.7,1.3-2.5c1.5-2,3.8-3.5,6.3-3.5"/>
	<path class="st1" d="M66.6,67c0.2-1.8,1.7-3.5,3.5-3.8c0.4-0.1,0.8-0.1,1.1,0c0.4,0.1,0.8,0.4,1.1,0.7c0.5,0.5,0.9,1.1,1.2,1.8"/>
	<path class="st1" d="M59.8,63.6c-0.1-1.3,0.1-2.7,0.6-3.9c0.1-0.3,0.3-0.6,0.5-0.8c0.6-0.7,1.7-0.7,2.6-0.6"/>
	<path class="st1" d="M54.5,57.7c-0.3-0.9-0.4-1.9,0-2.7c0.4-0.7,1.2-1.2,2-1.4c1.1-0.3,2.2-0.3,3.2,0"/>
	<path class="st1" d="M61.9,54.5c-0.7-0.4-1.4-0.8-2.1-1.3c-0.6-0.4-1.2-0.9-1.6-1.5c-0.4-0.6-0.6-1.4-0.4-2.1
		c0.2-0.7,0.7-1.2,1.2-1.6c1-0.8,2.1-1.2,3.3-1.7c0.9-0.4,1.8-0.7,2.7-1.1"/>
	<path class="st1" d="M69,46c-0.3-0.6-0.7-1.2-1-1.9c-0.5-1-1.1-2-0.9-3.1c0.1-0.6,0.4-1.1,0.7-1.6c0.4-0.6,0.8-1.1,1.4-1.6
		c1.6-1.2,3.8-1.1,5.7-1.6"/>
	<path class="st1" d="M78.2,37.4c-1.3-0.6-1.9-2.3-1.5-3.7c0.4-1.4,1.7-2.4,3.1-2.9s2.9-0.4,4.3-0.2"/>
	<path class="st1" d="M85.9,30.7c-0.9-0.2-1.6-1-1.8-1.9c-0.1-0.9,0.3-1.9,1.1-2.3"/>
	<path class="st1" d="M63.8,43c-0.9-0.3-1.7-0.7-2.6-1.1c-0.5-0.2-1-0.6-0.9-1.1"/>
	<path class="st1" d="M34.2,63.3c2.5-3.2,6.2-5.3,10.2-5.8"/>
	<path class="st1" d="M33.1,55.7c2.9-0.7,5.8-1,8.8-0.7"/>
	<path class="st1" d="M42.9,50.8c-3.3-0.5-6.3-2.8-7.7-5.8"/>
	<path class="st1" d="M95.3,81.4c1.5-0.9,3.2-1.5,4.9-1.6"/>
	<path class="st1" d="M98.9,82.1c0.5-0.6,1-1.1,1.7-1.4"/>
	<path class="st1" d="M63,72.9c1-0.6,2.1-1.1,3.2-1.5"/>
	<path class="st1" d="M62.6,70.9c1-0.4,2-0.5,3.1-0.5c-0.1,0-0.2,0-0.4,0"/>
	<path class="st1" d="M56.9,39.1c-0.4-1.3-1.6-2.3-3-2.5"/>
	<path class="st1" d="M55.8,39.5c-1.5-0.6-3.1-0.9-4.7-0.9"/>
	<path class="st1" d="M52,41.1c-0.6-0.4-1.2-0.8-1.9-1.2"/>
	<path class="st1" d="M79.3,26.6c-0.6-0.9-1.3-1.6-2.2-2.1c-1.5-0.9-3.3-1.1-5-1.4"/>
	<path class="st1" d="M74.7,27.4c-2.4-1.3-4.8-2.7-7.1-4.2"/>
	<path class="st1" d="M71.3,30.5c-1.6-0.1-3.2-0.9-4.2-2.1"/>
	<g>
		<path class="st1" d="M99.3,56c-2-1.3-3.9-3.3-4-5.7c-0.1-2.7,2-5,4.4-6.2c4.8-2.3,10.5-1.2,15.4,0.8c0.4,0.2,0.7,0.3,1,0.6
			c0.5,0.5,0.6,1.2,0.6,1.9c0.2,2.4-0.2,4.8-1,7.1c-0.8,2.3-1.6,2.8-4,3.4C107.7,59,103,58.4,99.3,56z"/>
		<path class="st1" d="M115.3,52.9c-3.1,1.8-6.8,2.4-10.3,1.7"/>
		<path class="st1" d="M115.3,50.8c-1.9,0.2-3.9,0.1-5.8-0.3"/>
		<path class="st1" d="M115.5,48.2c-2.4-1.5-5.4-1.9-8.3-1.9"/>
	</g>
</g>
<g>
	<path class="st3" d="M-969.3-235.9c0,0-2.5-0.1-2.8,1.3c-0.3,1.4-0.5,2.7,1.2,3.4c1.6,0.6,2.1,0.4,2.1,0.4L-969.3-235.9z"/>
	<path class="st3" d="M-922-241.9c0,0,2-3.8,3.5-4.4c1.5-0.6,4.2-1.8,5.6-0.9s2.4,3.1,0.4,4.6s-3.6,2.6-3.6,3.2
		c0.1,0.6,0.3,1.5,1.1,1.7s2.7,1.9,2,3.2c-0.7,1.3-1.1,2.5-3.8,2.2s-6.2-3.6-6.2-3.6l-0.4-4.4L-922-241.9z"/>
	<path class="st3" d="M-953.7-247.6c0,0-2.7,0.1-5,0.9c-2.2,0.7-8.3,4.6-9.4,7.1c-1.1,2.5-1.3,2.6-1.2,3.7s0.2,4.9,1,5.6
		c0.8,0.7,3,2.3,7.3,2.5c4.3,0.2,8.2,0.1,12.8,0c4.6-0.1,12.8-0.1,16.7-2.7c3.9-2.7,8-5.4,8-5.4s3-2.8,2.7-3.5
		c-0.2-0.8-2.4-3.4-6.8-4.8c-4.3-1.5-9.9-3.4-13.8-3.4C-945.4-247.6-953.7-247.6-953.7-247.6z"/>
	<path class="st3" d="M-958.6-247c0,0,1.3-3.1,3.3-4.5c1.9-1.5,4.7-2.6,6-1.9c1.3,0.7,2.2,2.7,2.2,4.3c-0.1,1.6-0.3,1.7-0.3,1.7
		s-10.5,0-11.2,0.8C-958.9-246.5-958.6-247-958.6-247z"/>
	<path class="st3" d="M-956.2-227.4c0,0-0.6,1.1-0.6,2.2c0.1,1-0.5,3.5,0.7,4.1c1.2,0.6,4.6-0.1,5.2-1.7c0.6-1.6,1.5-4.5,1.3-4.8
		C-949.6-227.9-956.2-227.4-956.2-227.4z"/>
	<path class="st3" d="M-947.5-227.5c0,0-0.5,2.8,0,3.6c0.5,0.8,1.2,2.3,2.8,2.4s3.1-0.5,3.1-2.2c0.1-1.7-0.5-3.8-0.5-3.8l-0.1-0.2
		L-947.5-227.5z"/>
	<path class="st3" d="M-943.7-244.5c0,0,4.2,0.3,1.5,2.2"/>
	<path class="st3" d="M-937.2-242.6c0,0,1.4,0.5,0.3,1.2"/>
	<path class="st3" d="M-932.7-241.4c0,0,2,1,0.7,1.6"/>
	<path class="st3" d="M-943.2-239.9c0,0,1.1-0.4,1.4,0.4c0.4,0.7,0.6,1.1-0.7,1.2"/>
	<path class="st3" d="M-942.9-236.6c0,0,1.6-0.3,1.4,0.7c-0.2,1,0.1,1-0.8,1"/>
	<path class="st3" d="M-943.4-232.2c0,0,1.3,0.1,0.9,0.7c-0.5,0.5-1.2,1-1.2,1"/>
	<path class="st3" d="M-936.9-240c0,0,0.6,0.4,0.6,0.8s-0.6,0.8-0.6,0.8"/>
	<path class="st3" d="M-936.6-236.6c0,0,1.3,0.2,1.2,0.7c-0.2,0.5,0.1,1.5-0.9,1.7"/>
	<path class="st3" d="M-953.7-247.6c0,0,4.1,2.7,4.2,7.6c0.1,4.9-1.1,9.8-4.2,12.3"/>
	<path class="st3" d="M-958.3-242.9c0,0-2.8,0.4-3.2,1.4c-0.4,1-1.9,3.6-0.6,6.1s4.6,1.8,6,1.3s4.2-2.5,3.6-4.8
		C-953.2-241.2-953.8-243.1-958.3-242.9z"/>
	<ellipse class="st4" cx="-957.8" cy="-237.8" rx="0.7" ry="0.9"/>
</g>
<g>
	<path class="st3" d="M-558.3-79c0,0,2.5-0.1,2.8,1.3c0.3,1.4,0.5,2.7-1.2,3.4c-1.6,0.6-2.1,0.4-2.1,0.4L-558.3-79z"/>
	<path class="st3" d="M-605.6-85.1c0,0-2-3.8-3.5-4.4s-4.2-1.8-5.6-0.9c-1.4,0.9-2.4,3.1-0.4,4.6c2,1.5,3.6,2.6,3.6,3.2
		c-0.1,0.6-0.3,1.5-1.1,1.7c-0.8,0.3-2.7,1.9-2,3.2c0.7,1.3,1.1,2.5,3.8,2.2c2.7-0.4,6.2-3.6,6.2-3.6l0.4-4.4L-605.6-85.1z"/>
	<path class="st3" d="M-574-90.8c0,0,2.7,0.1,5,0.9c2.2,0.7,8.3,4.6,9.4,7.1c1.1,2.5,1.3,2.6,1.2,3.7s-0.2,4.9-1,5.6
		c-0.8,0.7-3,2.3-7.3,2.5c-4.3,0.2-8.2,0.1-12.8,0c-4.6-0.1-12.8-0.1-16.7-2.7c-3.9-2.7-8-5.4-8-5.4s-3-2.8-2.7-3.5
		c0.2-0.8,2.4-3.4,6.8-4.8c4.3-1.5,9.9-3.4,13.8-3.4C-582.3-90.8-574-90.8-574-90.8z"/>
	<path class="st3" d="M-569.1-90.1c0,0-1.3-3.1-3.3-4.5c-1.9-1.5-4.7-2.6-6-1.9c-1.3,0.7-2.2,2.7-2.2,4.3c0.1,1.6,0.3,1.7,0.3,1.7
		s10.5,0,11.2,0.8C-568.8-89.6-569.1-90.1-569.1-90.1z"/>
	<path class="st3" d="M-571.5-70.5c0,0,0.6,1.1,0.6,2.2c-0.1,1,0.5,3.5-0.7,4.1c-1.2,0.6-4.6-0.1-5.2-1.7s-1.5-4.5-1.3-4.8
		S-571.5-70.5-571.5-70.5z"/>
	<path class="st3" d="M-580.1-70.7c0,0,0.5,2.8,0,3.6c-0.5,0.8-1.2,2.3-2.8,2.4c-1.6,0.1-3.1-0.5-3.1-2.2s0.5-3.8,0.5-3.8l0.1-0.2
		L-580.1-70.7z"/>
	<path class="st3" d="M-583.9-87.7c0,0-4.2,0.3-1.5,2.2"/>
	<path class="st3" d="M-590.4-85.8c0,0-1.4,0.5-0.3,1.2"/>
	<path class="st3" d="M-594.9-84.6c0,0-2,1-0.7,1.6"/>
	<path class="st3" d="M-584.5-83c0,0-1.1-0.4-1.4,0.4c-0.4,0.7-0.6,1.1,0.7,1.2"/>
	<path class="st3" d="M-584.8-79.7c0,0-1.6-0.3-1.4,0.7c0.2,1-0.1,1,0.8,1"/>
	<path class="st3" d="M-584.3-75.4c0,0-1.3,0.1-0.9,0.7c0.5,0.5,1.2,1,1.2,1"/>
	<path class="st3" d="M-590.8-83.1c0,0-0.6,0.4-0.6,0.8c0,0.4,0.6,0.8,0.6,0.8"/>
	<path class="st3" d="M-591.1-79.8c0,0-1.3,0.2-1.2,0.7s-0.1,1.5,0.9,1.7"/>
	<path class="st3" d="M-574-90.8c0,0-4.1,2.7-4.2,7.6s1.1,9.8,4.2,12.3"/>
	<path class="st3" d="M-569.4-86.1c0,0,2.8,0.4,3.2,1.4c0.4,1,1.9,3.6,0.6,6.1s-4.6,1.8-6,1.3s-4.2-2.5-3.6-4.8
		C-574.4-84.4-573.9-86.3-569.4-86.1z"/>
	<ellipse class="st4" cx="-569.9" cy="-80.9" rx="0.7" ry="0.9"/>
</g>
<g>
	<path class="st3" d="M-280.1-480.3c0,0-2.5-0.1-2.8,1.3c-0.3,1.4-0.5,2.7,1.2,3.4c1.6,0.6,2.1,0.4,2.1,0.4L-280.1-480.3z"/>
	<path class="st3" d="M-232.8-486.3c0,0,2-3.8,3.5-4.4c1.5-0.6,4.2-1.8,5.6-0.9c1.4,0.9,2.4,3.1,0.4,4.6c-2,1.5-3.6,2.6-3.6,3.2
		c0.1,0.6,0.3,1.5,1.1,1.7c0.8,0.3,2.7,1.9,2,3.2c-0.7,1.3-1.1,2.5-3.8,2.2c-2.7-0.4-6.2-3.6-6.2-3.6l-0.4-4.4L-232.8-486.3z"/>
	<path class="st3" d="M-264.4-492c0,0-2.7,0.1-5,0.9c-2.2,0.7-8.3,4.6-9.4,7.1c-1.1,2.5-1.3,2.6-1.2,3.7s0.2,4.9,1,5.6
		c0.8,0.7,3,2.3,7.3,2.5c4.3,0.2,8.2,0.1,12.8,0c4.6-0.1,12.8-0.1,16.7-2.7c3.9-2.7,8-5.4,8-5.4s3-2.8,2.7-3.5s-2.4-3.4-6.8-4.8
		c-4.3-1.5-9.9-3.4-13.8-3.4C-256.1-492-264.4-492-264.4-492z"/>
	<path class="st3" d="M-269.4-491.4c0,0,1.3-3.1,3.3-4.5c1.9-1.5,4.7-2.6,6-1.9c1.3,0.7,2.2,2.7,2.2,4.3s-0.3,1.7-0.3,1.7
		s-10.5,0-11.2,0.8C-269.7-490.9-269.4-491.4-269.4-491.4z"/>
	<path class="st3" d="M-267-471.8c0,0-0.6,1.1-0.6,2.2c0.1,1-0.5,3.5,0.7,4.1c1.2,0.6,4.6-0.1,5.2-1.7s1.5-4.5,1.3-4.8
		S-267-471.8-267-471.8z"/>
	<path class="st3" d="M-258.3-471.9c0,0-0.5,2.8,0,3.6c0.5,0.8,1.2,2.3,2.8,2.4c1.6,0.1,3.1-0.5,3.1-2.2c0.1-1.7-0.5-3.8-0.5-3.8
		l-0.1-0.2L-258.3-471.9z"/>
	<path class="st3" d="M-254.5-488.9c0,0,4.2,0.3,1.5,2.2"/>
	<path class="st3" d="M-248-487c0,0,1.4,0.5,0.3,1.2"/>
	<path class="st3" d="M-243.5-485.9c0,0,2,1,0.7,1.6"/>
	<path class="st3" d="M-253.9-484.3c0,0,1.1-0.4,1.4,0.4c0.4,0.7,0.6,1.1-0.7,1.2"/>
	<path class="st3" d="M-253.6-481c0,0,1.6-0.3,1.4,0.7c-0.2,1,0.1,1-0.8,1"/>
	<path class="st3" d="M-254.2-476.6c0,0,1.3,0.1,0.9,0.7s-1.2,1-1.2,1"/>
	<path class="st3" d="M-247.6-484.4c0,0,0.6,0.4,0.6,0.8s-0.6,0.8-0.6,0.8"/>
	<path class="st3" d="M-247.3-481c0,0,1.3,0.2,1.2,0.7s0.1,1.5-0.9,1.7"/>
	<path class="st3" d="M-264.4-492c0,0,4.1,2.7,4.2,7.6s-1.1,9.8-4.2,12.3"/>
	<path class="st3" d="M-269.1-487.3c0,0-2.8,0.4-3.2,1.4c-0.4,1-1.9,3.6-0.6,6.1s4.6,1.8,6,1.3s4.2-2.5,3.6-4.8
		C-264-485.6-264.6-487.5-269.1-487.3z"/>
	<ellipse class="st4" cx="-268.6" cy="-482.2" rx="0.7" ry="0.9"/>
</g>
</svg>
