<?xml version="1.0" encoding="utf-8"?>
<!-- Generator: Adobe Illustrator 22.0.1, SVG Export Plug-In . SVG Version: 6.00 Build 0)  -->
<svg version="1.1" id="Layer_1" xmlns="http://www.w3.org/2000/svg" xmlns:xlink="http://www.w3.org/1999/xlink" x="0px" y="0px"
	 viewBox="0 0 114.8 78.5" style="enable-background:new 0 0 114.8 78.5;" xml:space="preserve">
<style type="text/css">
	.st0{fill:#FFFFFF;stroke:#12100B;stroke-width:0.25;stroke-miterlimit:10;}
	.st1{fill:#12100B;}
	.st2{fill:none;stroke:#12100B;stroke-width:0.25;stroke-linecap:round;stroke-linejoin:round;stroke-miterlimit:10;}
	.st3{fill:#FFFFFF;stroke:#12100B;stroke-width:0.25;stroke-linecap:round;stroke-linejoin:round;stroke-miterlimit:10;}
	.st4{fill:none;stroke:#FFFFFF;stroke-width:0.25;stroke-linecap:round;stroke-linejoin:round;stroke-miterlimit:10;}
	.st5{fill:#FFFFFF;}
	.st6{fill:none;stroke:#FFFFFF;stroke-width:0.1;stroke-linecap:round;stroke-linejoin:round;stroke-miterlimit:10;}
	.st7{fill:#FFFFFF;stroke:#000000;stroke-width:0.25;stroke-miterlimit:10;}
</style>
<g>
	<g>
		<path class="st0" d="M81,27.5c0,0-1.3-5.1-13-4.9s-13.3,5.9-13.3,5.9s0.4,4.5,12.5,5.4C78.3,34.2,81.3,29.8,81,27.5z"/>
		<path class="st1" d="M63.2,23l8.6-3.9c0,0,0.3-0.1,0.4,0.4c0.1,0.6,1.6,3.3,1.6,3.3S69,21.9,63.2,23z"/>
		<path class="st1" d="M71.3,33.8L71,37.5c0,0-0.3,0.5-1.3,0.1c-1.1-0.4-6.5-3-7.8-4.5C63.5,33.5,66.7,34.1,71.3,33.8z"/>
		<path class="st1" d="M81.1,27.5c0,0,4.8-4.7,5.1-5.1c0.4-0.4,1.1-0.6,1.2,0.5s1.2,7.6,1.2,7.6s0.3,1.1-1.1,0.3
			S81.1,27.5,81.1,27.5z"/>
		<path class="st2" d="M63.4,23.1c0.3,0.1,0.6,0.3,0.7,0.5c0.5,0.8,0.9,1.5,1.3,2.4c0.2,0.4,0.4,0.9,0.5,1.3
			c0.3,1.1,0.2,2.2-0.2,3.3c-0.4,1.1-1,2-1.7,2.9"/>
		<path class="st2" d="M68.4,22.8c0.6,0.9,1.2,1.7,1.8,2.6c0.2,0.4,0.5,0.8,0.6,1.2c0.2,0.5,0.2,1.1,0.2,1.7c0,1.3,0,2.7-0.7,3.8
			c-0.4,0.6-0.9,1.1-1.4,1.6"/>
		<path class="st2" d="M74.1,23.2c0.4,0.9,0.9,1.8,1.2,2.7c0.5,1.1,0.9,2.3,0.8,3.5c-0.1,1.5-0.8,2.6-1.6,3.9"/>
		<path class="st3" d="M57.8,27.9c-0.1,0.3-0.1,0.6-0.1,0.8c0,0.6,0.1,1.3,0.7,1.7c0.2,0.1,0.4,0.2,0.6,0.3c0.2,0.1,0.3,0.1,0.5,0.2
			c0.5,0.1,1.1-0.1,1.5-0.4c0.1,0,0.2-0.1,0.3-0.2c0.1-0.1,0.2-0.4,0.2-0.6c0.1-0.6,0.2-1.1,0-1.7C61.1,26.3,58.4,26.1,57.8,27.9z"
			/>
		<path class="st1" d="M60,28.2c0.1,0,0.2,0.2,0.2,0.3c0.1,0.2,0.1,0.6-0.1,0.7c-0.2,0.2-0.5,0.1-0.7,0c0,0-0.1-0.1-0.2-0.1
			c0,0-0.1-0.1-0.1-0.2c0-0.2,0-0.3,0.1-0.4C59.4,28.2,59.9,28.2,60,28.2z"/>
		<path class="st2" d="M68,25.1c0.4,0.2,0.5,0.8,0.2,1.2"/>
		<path class="st2" d="M68.5,28.2c0.3,0.4,0.3,1,0,1.4"/>
		<path class="st2" d="M68.5,31.5c0,0.2,0,0.5-0.2,0.7c-0.1,0.2-0.4,0.3-0.6,0.2"/>
		<path class="st2" d="M72.3,25.3c0.3,0.4,0.3,0.9,0.2,1.3"/>
		<path class="st2" d="M73.1,27.9c0,0.2,0.1,0.4,0.2,0.6c0.1,0.2,0,0.5-0.2,0.6"/>
		<path class="st2" d="M72.8,31.3c0.2,0.4,0.2,0.9,0,1.2"/>
		<path class="st2" d="M77.9,27.9c0.4,0.5,0.3,1.4-0.2,1.8"/>
	</g>
	<g>
		<path class="st0" d="M97,8c0,0-0.8-3.1-7.8-2.9s-8,3.5-8,3.5s0.2,2.7,7.6,3.2C95.3,12.1,97.2,9.4,97,8z"/>
		<path class="st1" d="M86.2,5.3l5.2-2.3c0,0,0.2-0.1,0.2,0.3s0.9,2,0.9,2S89.7,4.6,86.2,5.3z"/>
		<path class="st1" d="M91.1,11.8L90.9,14c0,0-0.2,0.3-0.8,0.1c-0.6-0.2-3.9-1.8-4.7-2.7C86.4,11.6,88.3,12,91.1,11.8z"/>
		<path class="st1" d="M97.1,8c0,0,2.9-2.8,3.1-3.1c0.2-0.3,0.7-0.4,0.7,0.3c0,0.7,0.7,4.6,0.7,4.6s0.2,0.6-0.7,0.2S97.1,8,97.1,8z"
			/>
		<path class="st2" d="M86.3,5.3c0.2,0,0.3,0.2,0.4,0.3c0.3,0.5,0.6,0.9,0.8,1.4c0.1,0.3,0.2,0.5,0.3,0.8c0.2,0.7,0.1,1.4-0.1,2
			c-0.2,0.6-0.6,1.2-1,1.8"/>
		<path class="st2" d="M89.4,5.1c0.4,0.5,0.7,1,1.1,1.6c0.1,0.2,0.3,0.5,0.4,0.7C91,7.8,91,8.1,91,8.5c0,0.8,0,1.6-0.4,2.3
			c-0.2,0.4-0.5,0.7-0.8,1"/>
		<path class="st2" d="M92.8,5.4c0.3,0.5,0.5,1.1,0.8,1.6c0.3,0.7,0.5,1.4,0.5,2.1c0,0.9-0.5,1.6-1,2.4"/>
		<path class="st3" d="M83,8.2c-0.1,0.2-0.1,0.3-0.1,0.5c0,0.4,0.1,0.8,0.4,1c0.1,0.1,0.2,0.1,0.3,0.2c0.1,0,0.2,0.1,0.3,0.1
			c0.3,0,0.6-0.1,0.9-0.2c0.1,0,0.1-0.1,0.2-0.1c0.1-0.1,0.1-0.2,0.1-0.3c0-0.3,0.1-0.7,0-1C85,7.3,83.3,7.1,83,8.2z"/>
		<path class="st1" d="M84.3,8.4c0.1,0,0.1,0.1,0.1,0.2c0.1,0.1,0.1,0.3,0,0.4c-0.1,0.1-0.3,0.1-0.4,0c0,0-0.1-0.1-0.1-0.1
			c0,0,0-0.1,0-0.1c0-0.1,0-0.2,0-0.3C83.9,8.4,84.2,8.4,84.3,8.4z"/>
		<path class="st2" d="M89.1,6.6c0.2,0.1,0.3,0.5,0.1,0.7"/>
		<path class="st2" d="M89.4,8.4c0.2,0.3,0.2,0.6,0,0.9"/>
		<path class="st2" d="M89.4,10.4c0,0.1,0,0.3-0.1,0.4c-0.1,0.1-0.3,0.2-0.4,0.1"/>
		<path class="st2" d="M91.7,6.6c0.2,0.2,0.2,0.5,0.1,0.8"/>
		<path class="st2" d="M92.2,8.2c0,0.1,0.1,0.3,0.1,0.4c0,0.1,0,0.3-0.1,0.4"/>
		<path class="st2" d="M92,10.3c0.1,0.2,0.1,0.5,0,0.7"/>
		<path class="st2" d="M95.1,8.2c0.3,0.3,0.2,0.8-0.1,1.1"/>
	</g>
	<g>
		<path d="M5.4,55.3c0,0-1.7-0.5,1.9-2.9s18.8-2.8,18.8-2.8s5-4.2,5.6-4.4c0.6-0.2,0.5,1.6,1.1,2.8c0.5,1.2,1.7,3.3,1.7,3.3l5.6,0.9
			c0,0,1.9-1.1,2.4-1.2c0.5-0.1,2.3,1.5,1.7,2.7c2.4,0.1,2.4,0.1,2.4,0.1s6.4-3.7,8.7-3.6c2.3,0.1,0,1.9,0,1.9s-1.9,2-1.3,4.4
			c0.5,2.4,1.8,3.3,1.7,3.7c0,0.4-0.5,0.5-2,0c-1.5-0.5-5.5-3.5-5.5-3.5h-4.9c0,0-1.5,5.6-2.4,5.1S36.8,58,36.8,58s-5.7,0.1-4.9,0.7
			c0.8,0.5,2.3,2.6,1.6,3.2c-0.7,0.6-1.4,2.1-2.1,2c-0.8-0.2-2.5-4.3-2.5-4.3S12.8,60.7,5.4,55.3z"/>
		<path class="st4" d="M26.2,49.6c1.7,0.4,3.5,0.5,5.2,1c1,0.3,2.1,0.6,3.1,0.7"/>
		<path class="st4" d="M40.2,52.3c0.8,0.1,1.3,0.4,2.1,0.6c0.9,0.3,1.6,0.6,1.9,0.8"/>
		<path class="st4" d="M43.3,57c-1.7,0.6-3.2,0.8-5,1c-0.4,0-1,0.1-1.4,0.1"/>
		<path class="st4" d="M28.9,59.6c0.7-0.2,1.4-0.4,2.1-0.7c0.3-0.1,0.6-0.1,0.8-0.2"/>
		<path class="st4" d="M46.8,53.9c0.3,0,0.6,0.3,0.8,0.5c0.4,0.3,0.7,0.6,0.9,1.1c0.2,0.4,0.2,1.1-0.2,1.4"/>
		<path class="st4" d="M27.3,49.9c0.8-0.7,1.6-1.5,2.3-2.3"/>
		<path class="st4" d="M28.3,50c0.8-0.5,1.2-0.8,1.9-1.4c0.6-0.6,1.1-1.4,1.3-2.3"/>
		<path class="st4" d="M29.4,50.2c0.7-0.5,1.3-0.9,1.9-1.5c0.1-0.1,0.2-0.2,0.2-0.3"/>
		<path class="st4" d="M30.8,50.4c0.3-0.3,0.4-0.3,0.8-0.6c0.4-0.2,0.7-0.5,0.8-0.9"/>
		<path class="st4" d="M32,50.8c0.3-0.3,0.6-0.4,0.8-0.8"/>
		<path class="st4" d="M32.9,51c0.2-0.2,0.6-0.4,0.6-0.9"/>
		<path class="st4" d="M29.5,59.6c0,0.2,0.2,0.3,0.3,0.5c0.6,0.8,1,1.7,1.3,2.7"/>
		<path class="st4" d="M29.9,59.3c0.6,0.9,1.6,1.4,1.9,2.4"/>
		<path class="st4" d="M30.9,59c0.1,0.3,0.3,0.5,0.5,0.7c0.5,0.5,0.9,1,1.2,1.6"/>
		<path class="st4" d="M31.4,58.9c0.4,0.3,0.7,0.6,1,0.9"/>
		<path class="st4" d="M37.9,58c0.5,1.3,1.4,2,2.5,2.9"/>
		<path class="st4" d="M39.1,57.9c0.5,0.7,0.8,1.1,1.5,1.7"/>
		<path class="st4" d="M40.1,57.7c0.4,0.7,0.9,1.2,1.3,1.9"/>
		<path class="st4" d="M41,57.5c0,0.2,0.2,0.4,0.3,0.6c0.1,0.2,0.3,0.4,0.4,0.6"/>
		<path class="st4" d="M42,57.4c0.1,0.4,0.3,0.7,0.4,1.1"/>
		<path class="st4" d="M41.1,52.5c0.5-0.1,0.7-0.2,1-0.6"/>
		<path class="st4" d="M42,52.7c0.3-0.2,0.5-0.5,0.7-0.9"/>
		<path class="st4" d="M42.5,52.9c0.3-0.1,0.5-0.3,0.6-0.6"/>
		<path class="st4" d="M43.1,53.2c0.2-0.1,0.4-0.3,0.5-0.5"/>
		<path class="st4" d="M47.5,54.2c1.7-1,3.5-1.5,5.3-2.1"/>
		<path class="st4" d="M48.2,54.9c0.3-0.3,0.7-0.4,1.1-0.6c1.3-0.4,2.6-0.8,4-0.9"/>
		<path class="st4" d="M48.6,55.4c1.4-0.2,2.6-0.4,4-0.4"/>
		<path class="st4" d="M48.7,55.9c1.4,0.3,2.9,0.4,4.3,0.3"/>
		<path class="st4" d="M48.6,56.6c1.8,0.7,3.5,1.2,5.3,1.8"/>
		<path class="st4" d="M12.6,50.9c1.2,1.6,1.6,3.8,0.9,5.8c-0.2,0.6-0.6,1.3-1.1,1.7"/>
		<path class="st5" d="M8.2,53.6c-0.1,0.2-0.1,0.3-0.1,0.5c0,0.4,0.1,0.8,0.4,1c0.1,0.1,0.2,0.1,0.3,0.2c0.1,0,0.2,0.1,0.3,0.1
			c0.3,0,0.6-0.1,0.9-0.2c0.1,0,0.1-0.1,0.2-0.1c0.1-0.1,0.1-0.2,0.1-0.3c0-0.3,0.1-0.7,0-1C10.2,52.7,8.6,52.5,8.2,53.6z"/>
		<path d="M9.5,53.8c0.1,0,0.1,0.1,0.1,0.2c0.1,0.1,0.1,0.3,0,0.4c-0.1,0.1-0.3,0.1-0.4,0c0,0-0.1-0.1-0.1-0.1c0,0,0-0.1,0-0.1
			c0-0.1,0-0.2,0-0.3C9.2,53.8,9.5,53.8,9.5,53.8z"/>
	</g>
	<g>
		<path d="M61.1,63.4c0,0-0.9-0.3,0.9-1.5c1.8-1.2,9.4-1.4,9.4-1.4s2.5-2.1,2.8-2.2c0.3-0.1,0.3,0.8,0.5,1.4
			c0.3,0.6,0.9,1.7,0.9,1.7l2.8,0.5c0,0,0.9-0.6,1.2-0.6c0.3,0,1.1,0.7,0.9,1.3c1.2,0.1,1.2,0.1,1.2,0.1s3.2-1.9,4.3-1.8
			s0,0.9,0,0.9s-0.9,1-0.7,2.2c0.3,1.2,0.9,1.7,0.9,1.9c0,0.2-0.3,0.3-1,0c-0.7-0.3-2.7-1.7-2.7-1.7H80c0,0-0.7,2.8-1.2,2.5
			c-0.5-0.3-2.1-1.9-2.1-1.9s-2.9,0.1-2.5,0.3c0.4,0.3,1.1,1.3,0.8,1.6s-0.7,1.1-1.1,1s-1.3-2.1-1.3-2.1S64.8,66.1,61.1,63.4z"/>
		<path class="st6" d="M71.5,60.5c0.9,0.2,1.8,0.3,2.6,0.5c0.5,0.1,1,0.3,1.5,0.4"/>
		<path class="st6" d="M78.5,61.9c0.4,0.1,0.7,0.2,1,0.3c0.5,0.1,0.8,0.3,0.9,0.4"/>
		<path class="st6" d="M80,64.2c-0.9,0.3-1.6,0.4-2.5,0.5c-0.2,0-0.5,0-0.7,0"/>
		<path class="st6" d="M72.8,65.5c0.4-0.1,0.7-0.2,1.1-0.3c0.1,0,0.3,0,0.4-0.1"/>
		<path class="st6" d="M81.8,62.7c0.2,0,0.3,0.1,0.4,0.2c0.2,0.2,0.4,0.3,0.4,0.5c0.1,0.2,0.1,0.6-0.1,0.7"/>
		<path class="st6" d="M72,60.6c0.4-0.3,0.8-0.8,1.1-1.2"/>
		<path class="st6" d="M72.5,60.7c0.4-0.2,0.6-0.4,0.9-0.7c0.3-0.3,0.5-0.7,0.6-1.1"/>
		<path class="st6" d="M73.1,60.8c0.4-0.2,0.7-0.5,1-0.8c0,0,0.1-0.1,0.1-0.1"/>
		<path class="st6" d="M73.8,60.9c0.1-0.2,0.2-0.2,0.4-0.3c0.2-0.1,0.4-0.3,0.4-0.5"/>
		<path class="st6" d="M74.4,61.1c0.2-0.1,0.3-0.2,0.4-0.4"/>
		<path class="st6" d="M74.9,61.2c0.1-0.1,0.3-0.2,0.3-0.4"/>
		<path class="st6" d="M73.1,65.5c0,0.1,0.1,0.2,0.1,0.2c0.3,0.4,0.5,0.9,0.6,1.3"/>
		<path class="st6" d="M73.4,65.4c0.3,0.4,0.8,0.7,1,1.2"/>
		<path class="st6" d="M73.9,65.2c0.1,0.1,0.2,0.3,0.3,0.4c0.2,0.2,0.4,0.5,0.6,0.8"/>
		<path class="st6" d="M74.1,65.1c0.2,0.1,0.4,0.3,0.5,0.5"/>
		<path class="st6" d="M77.4,64.7c0.3,0.6,0.7,1,1.2,1.4"/>
		<path class="st6" d="M77.9,64.6c0.2,0.4,0.4,0.6,0.7,0.9"/>
		<path class="st6" d="M78.5,64.6c0.2,0.3,0.4,0.6,0.6,0.9"/>
		<path class="st6" d="M78.9,64.5c0,0.1,0.1,0.2,0.2,0.3c0.1,0.1,0.1,0.2,0.2,0.3"/>
		<path class="st6" d="M79.4,64.4c0.1,0.2,0.1,0.4,0.2,0.6"/>
		<path class="st6" d="M79,62c0.2,0,0.4-0.1,0.5-0.3"/>
		<path class="st6" d="M79.4,62.1c0.1-0.1,0.3-0.3,0.3-0.4"/>
		<path class="st6" d="M79.6,62.2c0.1,0,0.3-0.1,0.3-0.3"/>
		<path class="st6" d="M80,62.3c0.1,0,0.2-0.2,0.3-0.2"/>
		<path class="st6" d="M82.2,62.8c0.8-0.5,1.7-0.8,2.7-1.1"/>
		<path class="st6" d="M82.5,63.2c0.1-0.1,0.3-0.2,0.5-0.3c0.7-0.2,1.3-0.4,2-0.5"/>
		<path class="st6" d="M82.7,63.4c0.7-0.1,1.3-0.2,2-0.2"/>
		<path class="st6" d="M82.8,63.7c0.7,0.1,1.4,0.2,2.1,0.2"/>
		<path class="st6" d="M82.7,64c0.9,0.4,1.7,0.6,2.7,0.9"/>
		<path class="st6" d="M64.7,61.2c0.6,0.8,0.8,1.9,0.5,2.9c-0.1,0.3-0.3,0.6-0.6,0.8"/>
		<path class="st5" d="M62.5,62.5c0,0.1,0,0.2,0,0.3c0,0.2,0,0.4,0.2,0.5c0.1,0,0.1,0.1,0.2,0.1c0.1,0,0.1,0,0.2,0
			c0.2,0,0.3,0,0.5-0.1c0,0,0.1,0,0.1-0.1c0,0,0.1-0.1,0.1-0.2c0-0.2,0-0.3,0-0.5C63.5,62,62.7,62,62.5,62.5z"/>
		<path d="M63.2,62.6C63.2,62.6,63.2,62.7,63.2,62.6c0.1,0.1,0.1,0.2,0,0.3c-0.1,0-0.1,0-0.2,0c0,0,0,0,0,0c0,0,0,0,0-0.1
			c0,0,0-0.1,0-0.1C63,62.6,63.1,62.6,63.2,62.6z"/>
	</g>
	<g>
		<path d="M85.8,71.2c0,0-0.9-0.3,0.9-1.5c1.8-1.2,9.4-1.4,9.4-1.4s2.5-2.1,2.8-2.2s0.3,0.8,0.5,1.4s0.9,1.7,0.9,1.7l2.8,0.5
			c0,0,0.9-0.6,1.2-0.6c0.3,0,1.1,0.7,0.9,1.3c1.2,0.1,1.2,0.1,1.2,0.1s3.2-1.9,4.3-1.8c1.1,0.1,0,0.9,0,0.9s-0.9,1-0.7,2.2
			c0.3,1.2,0.9,1.7,0.9,1.9s-0.3,0.3-1,0c-0.7-0.3-2.7-1.7-2.7-1.7h-2.5c0,0-0.7,2.8-1.2,2.5c-0.5-0.3-2.1-1.9-2.1-1.9
			s-2.9,0.1-2.5,0.3c0.4,0.3,1.1,1.3,0.8,1.6c-0.3,0.3-0.7,1.1-1.1,1c-0.4-0.1-1.3-2.1-1.3-2.1S89.5,73.9,85.8,71.2z"/>
		<path class="st6" d="M96.2,68.3c0.9,0.2,1.8,0.3,2.6,0.5c0.5,0.1,1,0.3,1.5,0.4"/>
		<path class="st6" d="M103.2,69.7c0.4,0.1,0.7,0.2,1,0.3c0.5,0.1,0.8,0.3,0.9,0.4"/>
		<path class="st6" d="M104.7,72c-0.9,0.3-1.6,0.4-2.5,0.5c-0.2,0-0.5,0-0.7,0"/>
		<path class="st6" d="M97.6,73.3c0.4-0.1,0.7-0.2,1.1-0.3c0.1,0,0.3,0,0.4-0.1"/>
		<path class="st6" d="M106.5,70.5c0.2,0,0.3,0.1,0.4,0.2c0.2,0.2,0.4,0.3,0.4,0.5c0.1,0.2,0.1,0.6-0.1,0.7"/>
		<path class="st6" d="M96.8,68.5c0.4-0.3,0.8-0.8,1.1-1.2"/>
		<path class="st6" d="M97.3,68.5c0.4-0.2,0.6-0.4,0.9-0.7s0.5-0.7,0.6-1.1"/>
		<path class="st6" d="M97.8,68.6c0.4-0.2,0.7-0.5,1-0.8c0,0,0.1-0.1,0.1-0.1"/>
		<path class="st6" d="M98.5,68.7c0.1-0.2,0.2-0.2,0.4-0.3c0.2-0.1,0.4-0.3,0.4-0.5"/>
		<path class="st6" d="M99.1,68.9c0.2-0.1,0.3-0.2,0.4-0.4"/>
		<path class="st6" d="M99.6,69c0.1-0.1,0.3-0.2,0.3-0.4"/>
		<path class="st6" d="M97.9,73.3c0,0.1,0.1,0.2,0.1,0.2c0.3,0.4,0.5,0.9,0.6,1.3"/>
		<path class="st6" d="M98.1,73.2c0.3,0.4,0.8,0.7,1,1.2"/>
		<path class="st6" d="M98.6,73c0.1,0.1,0.2,0.3,0.3,0.4c0.2,0.2,0.4,0.5,0.6,0.8"/>
		<path class="st6" d="M98.8,73c0.2,0.1,0.4,0.3,0.5,0.5"/>
		<path class="st6" d="M102.1,72.5c0.3,0.6,0.7,1,1.2,1.4"/>
		<path class="st6" d="M102.7,72.5c0.2,0.4,0.4,0.6,0.7,0.9"/>
		<path class="st6" d="M103.2,72.4c0.2,0.3,0.4,0.6,0.6,0.9"/>
		<path class="st6" d="M103.6,72.3c0,0.1,0.1,0.2,0.2,0.3c0.1,0.1,0.1,0.2,0.2,0.3"/>
		<path class="st6" d="M104.1,72.2c0.1,0.2,0.1,0.4,0.2,0.6"/>
		<path class="st6" d="M103.7,69.8c0.2,0,0.4-0.1,0.5-0.3"/>
		<path class="st6" d="M104.1,69.9c0.1-0.1,0.3-0.3,0.3-0.4"/>
		<path class="st6" d="M104.3,70c0.1,0,0.3-0.1,0.3-0.3"/>
		<path class="st6" d="M104.7,70.1c0.1,0,0.2-0.2,0.3-0.2"/>
		<path class="st6" d="M106.9,70.6c0.8-0.5,1.7-0.8,2.7-1.1"/>
		<path class="st6" d="M107.2,71c0.1-0.1,0.3-0.2,0.5-0.3c0.7-0.2,1.3-0.4,2-0.5"/>
		<path class="st6" d="M107.4,71.2c0.7-0.1,1.3-0.2,2-0.2"/>
		<path class="st6" d="M107.5,71.5c0.7,0.1,1.4,0.2,2.1,0.2"/>
		<path class="st6" d="M107.4,71.8c0.9,0.4,1.7,0.6,2.7,0.9"/>
		<path class="st6" d="M89.4,69c0.6,0.8,0.8,1.9,0.5,2.9c-0.1,0.3-0.3,0.6-0.6,0.8"/>
		<path class="st5" d="M87.2,70.3c0,0.1,0,0.2,0,0.3c0,0.2,0,0.4,0.2,0.5c0.1,0,0.1,0.1,0.2,0.1c0.1,0,0.1,0,0.2,0
			c0.2,0,0.3,0,0.5-0.1c0,0,0.1,0,0.1-0.1c0,0,0.1-0.1,0.1-0.2c0-0.2,0-0.3,0-0.5C88.2,69.9,87.4,69.8,87.2,70.3z"/>
		<path d="M87.9,70.4C87.9,70.4,87.9,70.5,87.9,70.4c0.1,0.1,0.1,0.2,0,0.3c-0.1,0-0.1,0-0.2,0c0,0,0,0,0,0c0,0,0,0,0-0.1
			c0,0,0-0.1,0-0.1C87.7,70.4,87.8,70.4,87.9,70.4z"/>
	</g>
	<g>
		<circle class="st7" cx="19.3" cy="31.5" r="2.8"/>
		<circle class="st7" cx="17.3" cy="42.2" r="2.8"/>
		<circle class="st7" cx="5.9" cy="45.7" r="2.8"/>
		<circle class="st7" cx="28.7" cy="11.9" r="2.4"/>
		<circle class="st7" cx="10" cy="33.3" r="1.3"/>
		<circle class="st7" cx="26.4" cy="26.5" r="1.3"/>
	</g>
</g>
</svg>
