<?xml version="1.0" encoding="utf-8"?>
<!-- Generator: Adobe Illustrator 22.0.1, SVG Export Plug-In . SVG Version: 6.00 Build 0)  -->
<svg version="1.1" id="Layer_1" xmlns="http://www.w3.org/2000/svg" xmlns:xlink="http://www.w3.org/1999/xlink" x="0px" y="0px"
	 viewBox="0 0 400 300" style="enable-background:new 0 0 400 300;" xml:space="preserve">
<style type="text/css">
	.st0{fill:#FFFFFF;stroke:#000000;stroke-miterlimit:10;}
	.st1{fill:none;stroke:#000000;stroke-miterlimit:10;}
	.st2{fill:none;stroke:#FFFFFF;stroke-miterlimit:10;}
	.st3{fill:#FFFFFF;}
	.st4{opacity:0.5;fill:#FFFFFF;stroke:#000000;stroke-miterlimit:10;enable-background:new    ;}
	.st5{stroke:#FFFFFF;stroke-miterlimit:10;}
	.st6{fill:#FFFFFF;stroke:#000000;stroke-linecap:round;stroke-linejoin:round;stroke-miterlimit:10;}
</style>
<path d="M141.8,79.5c0,0-0.9,0.4-2.4,1.2c-4.8,2.6-15.8,9.5-20.9,19.5c-6.5,13-15.5,32.1-11.8,43.5c3.7,11.4,23.3,44.9,47.1,49.8
	c23.8,4.8,115,4.7,128-2.6c13-7.2,36.2-52.2,26.5-73.3s-11.5-38.2-42-41.4s-64.4,2.3-80.8,2.4C169.1,78.6,151.7,73.6,141.8,79.5z"/>
<path d="M164.7,54.9c0,0-3.3-24.6,8.3-28.9s20.8,24.4,20.8,24.4s13.2-2.4,20.8,0.2c2.9-7.3,6.3-26.7,15.1-25.1s12.6,8.6,13.4,26.9
	l-8.7,0.9L198,54.9l-30.6,0.4L164.7,54.9z"/>
<path d="M102.4,207.1c0,0,10.2,26.8,20.9,36.1H69.5c0,0-7.3-8.7-8.7-10.3s-4.6-10.6-4.6-15.5s1.1-23.1,0-29
	c-1.1-6-3.3-11.5-11.1-16.3c-7.9-4.8-16.3-11.9-15.5-15.7s6.8-6.8,8.7-6.8s14.7,0.3,22.8,10.3s9,30.7,8.4,36.5s1.1,29.5,7.3,37.1
	C79.8,226.9,82,214.7,102.4,207.1z"/>
<path d="M305.4,220.9c0,0,18.6,21.5,23.1,26.6c3.5,3.9,5.8,5.9,6.3,6.4c2.2,2.1,2.9,2.9,2.9,2.9s2.9-0.1,5.9,1.6
	c3,1.6-1.8,3.9-4.5,3.6c1.9,5.4,1.6,6.9-1.9,7.6c-2.3,0.5-5.7-4.1-5.7-4.1s-1.3,6.8-5.4,4.3c-2.6-1.6-1.4-6-1.4-6
	s-16.9-8.1-28.6-27.3C301.4,228.8,301.9,225.5,305.4,220.9z"/>
<path class="st0" d="M146.4,91.1c0,0-18.7,1.6-21.8,7.7c-3.1,6.1-8.8,13.4-4.5,26.9c4.3,13.4,24.4,14.7,24.4,14.7s11.4,1.4,17.1,1.4
	c5.7,0,27.3-7.1,30.1-8.1s12.8-8.1,11.9-17.2c-0.9-9.1-4.8-13.3-13.3-16.4C181.8,97,167.6,88,146.4,91.1z"/>
<path class="st0" d="M219.9,94.4c0,0-4.7,4.3-4.7,12.4s1,13,5.5,17.1s5.3,10,22.4,12.4c17.1,2.4,39.9-4.1,42.5-5.3
	c2.6-1.2,15.3-6.5,15.5-19.3s-13.5-21.8-36.6-26.1C242.3,81.5,219.9,94.4,219.9,94.4z"/>
<path class="st1" d="M145.8,66.7c0,0-1.1-3.8,1.4-6.8c5.3-6.2,18.7-4.4,38.8-4.7s60.2-3.2,63.5-3.2s13,0,13.6,3.9s1.1,6.4,1.1,6.4
	s11.1,3.8,23.3,15.7s21.4,25.5,21.4,25.5s14.4,21.2,13.3,54.6s-9.3,49.8-16.3,60.8s-5.7,23.9-50.8,46.1c0.5,5.5-4.3,9.2-16.8,11.7
	c-12.5,2.4-51,2.2-58.1,0s-15.7-4.6-15.7-4.6s-6.8-2.2-7.3-9.8c-7.3-1.1-33.9-19.3-33.9-19.3s-15.5-15.3-22-39.9
	c-7.4-28.2-10-49.7-3-68.7C105.4,115.6,111.1,88.5,145.8,66.7z"/>
<path class="st2" d="M207.6,149.8c0,0,3.9,12.6-16.5,14.7"/>
<path class="st2" d="M207.2,155.8c0,0,4.9,10.3,19.7,7.8"/>
<path class="st2" d="M199.5,144.4c0,0,7.1,12.5,14.5,0"/>
<path class="st3" d="M198.2,163.1c0,0,0.1,6.4,3.6,7.6c3.6,1.2,9.9,2.5,12.2-0.5c2.3-3.1,2.9-5.3,2.8-7c-1.6-0.6-8.1-3.6-9.3-6.9
	C206.3,159.1,202.4,162.1,198.2,163.1z"/>
<path class="st0" d="M111.3,214.1c0,0,0-3.5,5.4-1.9c4.6-1.4,4.6-1.4,8.1-0.4c3.8,1,2.1,2,3.8,1c1.7-1,1.3-1.3,3.4-0.7
	c2,0.5,7.1,0.5,9.4,2c2.3,1.5,2.3,1.5,2.3,1.5s0.1-4.3,2.6-4.5c2.4-0.1,7.6-2.9,10-0.7s3.3,3.3,3.3,3.3s0.8-5.6,2.6-5.6
	s7.5,0.7,7.7,2.9c0.3,2.2,2.4-2.6,4.1-0.5c1.6,2,2,3.7,2.3,4.3c0.3,0.7,2.4-3.3,5.4-1.5s3.7,3,3.7,3l1.1-4.1c0,0,5.2-2.7,8.4,0
	s2.2,2.9,2.2,2.9s6.5-0.4,8.3,0.7c1.8,1.1,2.2,3.8,2.2,3.8v1.4c0,0,5-2,5.8,0s3.5,3.9,3.5,3.9l9.2-0.8c0,0-1.4-6.4,4.2-5.6
	c5.6,0.8,5.8,2.4,5.8,2.4l0.3-0.2c0,0-0.7-2.7,0.2-4.8c1-2,5-3.1,5.9-2.4c0.9,0.7,3.5,3.5,3.5,3.5s1.3-3.9,2.6-5.6
	c1.3-1.7,2.9-2.6,4.4-1.4c1.6,1.2,2.8,3.2,2.8,3.2l0.1,1.3c0,0,1.7-1.2,3.5-1.4c1.8-0.2,7.6-1.6,8,1.7s3.1-1.8,5.7-1.2
	s6.7,2.9,6.7,2.9h1c0,0-2.2-3.5,0-5.3s7.3-2.9,9.6-3.1c2.2-0.2,4.3-1.2,5.3,1.4s1.4-0.6,3.3,0.6c1.8,1.2,2.2,4.3,2.2,4.3
	s1.8-1.2,1,3.1s-8.1,11.6-9.4,14.5c-1.2,2.9-5.1,8.6-9.8,11.2c-4.7,2.6-13.8,14-31.8,16.5c-17.9,2.4-41.5,4.5-50.1,4.1
	c-8.6-0.4-19.3,0-26.9-1.6c-7.5-1.6-22-8.8-26.3-9.8s-5.1-3.9-10.6-7.9c-5.5-4.1-11-6.3-17.1-14.7
	C114.2,221.4,111.5,219.3,111.3,214.1z"/>
<path d="M127.3,222.4c0,0-2.3,4.6-0.5,6.6s1.2,2.5,3.6,3.1c2.3,0.5,8.8,1.2,9.1-0.9c0.3-2.1-0.1-5.6-3.8-7.3
	C132,222.1,127.7,221.4,127.3,222.4z"/>
<path d="M152.7,224.2c0,0-3.9,2-4,3.7c-0.1,1.6-0.8,4.8,0,5.5s4.6,3.6,6.8,4.1s4.2,1,6.6,0c2.4-1,5.5-3.1,3.5-5.6s-5.6-5.2-8.3-6.1
	S154,223.5,152.7,224.2z"/>
<path d="M161.8,224.6c0,0-1.1,1.2-1,2c0.1,0.9,1.4,4.2,4,4.2c2.5-0.1,4.3,0.1,4.6-1s-2.2-6.5-4.3-6.3S161.8,224.6,161.8,224.6z"/>
<path d="M175.4,220.8c0,0-1.1,1-0.9,2.1s1.7,3.4,2.6,4c1,0.7,3.4,1.5,4.8,0.5c1.4-1,2.3-3.3,1.6-4.7c-0.7-1.5-1.2-2.8-3-2.9
	S176.1,220,175.4,220.8z"/>
<path class="st1" d="M189.9,224.4c0,0-0.4-2.4,0.8-3.2s3-1.1,3.7,0s0.9,2.8,0.9,2.8"/>
<path class="st1" d="M203.9,232.2c0,0-1-2.2,0.8-2.8s2.4-0.8,3.3,0s1.9,2.8,2.1,2.8"/>
<path class="st1" d="M176.9,254.1c0,0,0.8-2.2,3-2c2.2,0.3,2.9,1.4,3.1,2.2"/>
<path class="st1" d="M208.5,255.2c0,0,0.6-3,2.3-2.8c1.8,0.2,3.9,2.8,3.9,2.8"/>
<path class="st1" d="M223.4,250.8c-0.1,0.3,0.4-1.6,2.4-2.4c2-0.8,2-1.7,3.7-0.3s2,4,2.2,4.1"/>
<path class="st1" d="M229.7,230.8c0,0,0.7-2.3,2.7-2.1s3.5,1.1,3.8,1.5s0.9,1.7,0.9,1.7"/>
<path class="st1" d="M238.6,225.9c0,0-0.7-1.7,1.7-2.4c2.3-0.7,3.7-1,4.3,0.6s0.6,2.9,0.6,2.9"/>
<path d="M248.1,241.1c0,0-8.1,2.5-8.8,0.6s-0.9-4.1,0-5.7c0.9-1.6,0.6-3,3.3-3.2s4.8-1.1,6.6-0.2s2.5,0.5,2.2,2.7
	C251.1,237.6,252.2,239.9,248.1,241.1z"/>
<path d="M249,227c0,0-2.3,0.5-1.9,2.3s-0.1,2.5,1.9,2.3s5.5-1.4,5.9-1.6c0.4-0.2-0.6-2.1-0.9-2.7s-1.3-1.2-2.5-1
	C250.3,226.4,249,227,249,227z"/>
<path d="M262.9,221.5c0,0-1.5-1.5-4.2-0.6c-2.7,0.9-4.2,0.8-4.6,2.3c-0.5,1.5-1,2.3-0.7,3s0.5,3.7,3.3,4.1c2.9,0.3,3.4,0.6,5.3,0
	s2.6-0.8,3.3-2.6c0.7-1.8,1.8-3,0.2-4.4C264,221.9,262.9,221.5,262.9,221.5z"/>
<path d="M266.2,227c0,0,4-0.1,5.6,0.3c1.6,0.4,5,0.7,5.9,1.8s3.1,0.8,1.2,3.2s0,4.5-4.2,4.7s-7.5,1-9.3-0.7s-2.4-2-2.2-4
	S262.7,227.2,266.2,227z"/>
<path d="M287.8,220.2c0,0-2.9,0.8-2.9,3.2c0.1,2.3-0.7,4.5,1.2,4.8c1.8,0.4,4.5,0.4,6.4-0.9c1.9-1.3,4.3-1.7,3.1-4.1
	c-1.2-2.4-0.8-3.4-2.9-3.4C290.7,219.8,290,218.9,287.8,220.2z"/>
<path d="M253.3,244.6c-0.5,0.6-2.5,1.6-2.3,4.1s-1,2.8,1.3,3.1s5.7,0.7,7.6-1.1c1.8-1.8,4.6-3.7,3.3-5.3c-1.3-1.6-1.9-1.7-5.9-1.3
	C253.3,244.6,253.3,244.6,253.3,244.6z"/>
<path d="M198.1,241c0,0,0-3.6,2.9-3.4c2.9,0.2,3.3,1.4,3.3,1.4"/>
<path d="M206.1,241.5c0,0-0.4,3.3,0.4,4.1c0.8,0.8,2,3.3,4.1,3.4s5.4,1.7,7.1,0.1c1.8-1.6,4.3-3.2,4.1-5.9c-0.1-2.7,1.4-3.4-0.9-5
	s-2.6-3.4-5.3-2.6c-2.7,0.7-4.2,1.5-5.6,2.5c-1.4,1.1-3.7,2-4.1,3.6"/>
<path d="M216.6,234.7c-0.1-0.2,0.1-3.9,3.2-3.9s2.9-0.3,5.1,1c2.2,1.3,4.2,4,3,5.3s-1.5,1.9-3.2,1.8
	C223,239,218.4,238.3,216.6,234.7z"/>
<path d="M189.5,248.6c0,0-1.1-0.1-1,1.8c0.1,1.9-0.4,3.4,1,4.2s0.7,1.2,3.9,1.2s6.6,0,7.4-1.6c0.8-1.6,1.9-3,1.3-4.6
	s-0.8-2.2-2.2-2.3c-1.5-0.1-5.5-0.7-7.8,0.1C189.9,248.1,189.5,248.6,189.5,248.6z"/>
<path d="M164.8,242.4c-0.1,0.1-3.5,0.7-3.3,3s-0.4,3,1.6,4.4s4.5,2.6,7.4,2.3s5.2,0.4,5.6-3.6c0.4-4,1.5-6.1-2.1-6.6
	C170.4,241.3,166.8,240.9,164.8,242.4z"/>
<path d="M176.9,233.8c-0.7,2.3-0.5,3,0.4,4.3s4.2,3.9,6,4s5.9-0.2,6-1.4c0.1-1.3,1.2-2.6-0.5-4.4c-1.7-1.8-2-5-4.6-4.9
	C181.6,231.4,177.8,230.9,176.9,233.8z"/>
<path d="M185.9,231c0,0,1-1.6,2.6-2.2c1.5-0.6,4.5-1,6,0s4,2.6,2.7,4.3s-0.7,3.4-3.7,3.5s-4.9,0.8-6.3-0.9
	C185.9,234.1,185,232.5,185.9,231z"/>
<path class="st4" d="M285.2,198.5c-0.3,0-9.4,1.8-11.6,7.5s0,4.7-4.9,11.7s-3.7,8.5-9.5,12.4c-5.8,3.9-6.6-0.5-10.6,6.5
	s-6.4,8.2-3.8,11.5c2.6,3.2,5.1,8.6,15.6,3.9c10.5-4.7,21.4-10.3,26.6-20.3s13.1-22.9,6.4-30.5C290.8,198.1,285.2,198.5,285.2,198.5
	z"/>
<path class="st4" d="M298,127.9c-0.1,0.1-3,4.3-1.7,7.4s1.8,1.8,2.5,6.5c0.8,4.6,1.8,4.8,1,8.5s-2.8,2.3-1.7,6.6
	c1.1,4.3,0.6,5.7,2.9,5.9c2.3,0.3,5.3,1.5,7.6-4.4s4.5-12.2,2.7-18.1c-1.8-5.9-3.6-14-9.1-14.5C300.1,125.6,298,127.9,298,127.9z"/>
<path class="st4" d="M303.4,169.1c-0.1,0-2,1-2.1,2.5s0.3,1.1-0.3,3.1c-0.6,2-0.3,2.3-1.3,3.6c-1.1,1.3-1.5,0.3-2,2.2
	c-0.4,1.9-0.9,2.4-0.1,3s1.7,1.8,3.8,0c2.1-1.8,4.1-3.8,4.6-6.5s1.4-6.3-0.6-7.7C304.6,168.6,303.4,169.1,303.4,169.1z"/>
<path class="st1" d="M159.2,263.8c0,0,9.5,4.9,19.9,4.9s44.1,0,45.5-0.1s23.8-0.7,28.6-2.3"/>
<path class="st5" d="M114.3,167.8c0,0-3,0.8-3,0c-0.1-0.8-2.5-3.8-3.3-1.7c-0.7,2.1,0.9,3.3-0.6,3.8s-2.5,1-1.9,2.5s2.6,2.1,2.7,4
	c0.2,1.8-3.1,1.9-3.3,3.1c-0.2,1.2,0.1,3.6,1.4,3.7s4.2,0,3.8,1.4c-0.4,1.4-2.7,1.8-2.4,3.3c0.3,1.5,0.5,2.2,1.9,2.5
	c1.3,0.4,3,0.5,3,1.6c0.1,1.1-1.2,2.4-1.1,4s-0.1,3.1,1.6,3.1c1.7-0.1,2.4-1.9,3.4-1.2s0.5,2.1,0.7,3.6s0.5,2.9,1.4,3.4
	s4.1-1.9,4.6,0s-2.5,2.2,0.3,3.5s2.9,2,4.1,1.2c1.2-0.8,0.2-2,2.7-1.5c2.5,0.5,3,0,3.1,1.4s1.9,5.1,1.9,5.1s0.3-0.4,0.7-8.1
	c0.4-7.7,0.7-9.9-5.3-20.4s-12.2-16.7-12.2-16.7S115.5,167.5,114.3,167.8z"/>
<path class="st4" d="M148.9,69.4c0,0-2.3,0.5-2.1,4.1s-1.6,6.9,3.7,10s20.7,9.5,27.6,3.8c6.9-5.7,9.9-12.7,10.3-15.3
	c0.4-2.5-13.6-0.5-13.9-0.5C174.1,71.5,148.9,69.4,148.9,69.4z"/>
<path class="st1" d="M154.4,59.3c0.6,0.4,43.8,2.2,54.2,1.8s46.7-4.1,46.7-4.1"/>
<path class="st1" d="M148,67.1c0,0,19.1,2.6,29.1,2.6s49.5-2,56.2-2.6s25.7-2,29.1-4.3"/>
<line class="st1" x1="123.3" y1="243.3" x2="41" y2="243.3"/>
<line class="st1" x1="372.1" y1="243.3" x2="289.8" y2="243.3"/>
<path class="st5" d="M145.4,172c-0.7-2.2-3.4-2.6-2.4-4s5-0.2,4.7-2.7s-1.1-4.7-3.8-4.8s-4.3-2.3-2-3.4s5.8-3.6,3-5
	s-4.6,1.2-5.9,1.1s-2-2.1-1.1-3.1s1.9-7.1-2-6.5s-4.1,1.6-4.5,3.1s-1.6,1.9-2.1,0.4s-3.9-2.8-4.3-0.5c-0.4,2.4,2.3,5.7,0,5.6
	c-2.3-0.1-5-1.3-5.8,0.6s0.3,2.9,1.4,3.9s3.1,2,1.2,2.4c-1.9,0.3-6.2-2.4-7.2-0.3c-1,2.1-1.3,3.7,1.1,5s5,2.4,3.5,3.2
	s-3.3-0.8-3.6,0.5c-0.3,1.3-1.4,3.4,0.7,4.4c2,1,5.5,1.1,3.4,3.1s-5.8,1.8-4.3,4.2s2.9,2.6,4.3,2.6s3.2,0.5,1.9,2.4
	c-1.3,1.8-3.3,3.7-1.8,4.7s3.8,0.7,4.5,0s2.2-0.4,2,1s-1.8,4.1-1.6,6c0.3,1.9,1.6,1.4,3.3,2c1.7,0.6,2,0.8-0.1,2
	c-2,1.2-3.6,0.9-1.8,1.8s3,0.8,5.1,0.5s4,2.6,4,2.6s10.7-26.3,10.6-29.2C145.8,172.9,145.4,172,145.4,172z"/>
<path class="st5" d="M134.4,216.7c0,0.2-1,2,1,2.2s2.4,0.5,2.6-1.2c0.1-1.8-1.7-6.7,0-7.5c1.7-0.9,3.1-0.2,4.6-0.6s-0.2-1.8-0.3-3.1
	c-0.1-1.2-1.8-1.6,0.7-1.6c2.4,0,3,1.6,4.5,0.8c1.5-0.7,0.5-1.8,0-2.9c-0.5-1-3.5-1.5-0.3-2.2s3.9-0.7,5-0.7s2.9-1.4,0.7-2.6
	c-2.2-1.2-3.1-1.3-2.5-2.4c0.5-1.2,2.1-1.4,3.5-1.6c1.4-0.1,4.1-0.1,2.2-2.1s-3-3.4-1.5-3.7s2.9,0.1,3.5-1s0.8-1.8-0.7-3
	c-1.4-1.2-3-2-2.2-2.9c0.7-0.8,4.8-1.8,3.4-3.4s-3.5-0.3-4.7-1.1s-1.4-3.4-1.2-4.3c0.2-1-0.7-1.5-2-0.6c-1.2,1-2.5,2.9-3.3,2.4
	c-0.8-0.4-2-0.3-2-0.3s-0.9,1.4-0.6,2c0.3,0.6-4.2,0.5-5.2,0.6c-1.1,0.1-2.8,2.5-2.3,3.2s4.8,1.6,4.9,2.9c0.1,1.3-0.3,2.2-2.9,2.1
	c-2.6-0.1-5.5,0.5-5,2.4c0.5,1.8,3.6,1.8,4.4,3.3c0.7,1.5,0.9,4.1-1.3,4.4c-2.2,0.3-3.6-0.5-4.1,1.5s-0.2,4.3,0.5,5.6
	s1.2,2.9,0.8,4.3s0.1,2,0.3,3.9C135.1,211.5,135,214.3,134.4,216.7z"/>
<g>
	<path class="st2" d="M184.7,152.2c0,0,5.5-1.1,7.1-0.5"/>
	<path class="st2" d="M186.3,158.8c0,0,5.2-3.6,7.1-2.8"/>
</g>
<g>
	<path class="st2" d="M226,152.2c0,0-5.5-1.1-7.1-0.5"/>
	<path class="st2" d="M224.4,158.8c0,0-5.2-3.6-7.1-2.8"/>
</g>
<g>
	<path class="st3" d="M234.5,30.2c0,0-1.8-1.9-3.7-1.3c-1.1,0.3-2.2,1.9-3.1,3.1c-2.5,3.2-6,12.3-5.7,14.3c0.5,2.8,2.2,4,7.9,4.5
		c2.8,0.2,8,2.9,9.8-0.5c1.6-2.9,1.3-7.3-1.4-14C237.6,34.4,237.2,32.8,234.5,30.2z"/>
	<path class="st6" d="M225.3,42.2c0,0-2.7,2.5-1.9,4.5"/>
</g>
<g>
	<path class="st3" d="M173.2,32c0,0,1.8-1.9,3.7-1.3c1.1,0.3,2.2,1.9,3.1,3.1c2.5,3.2,6,12.3,5.7,14.3c-0.5,2.8-2.2,4-7.9,4.5
		c-2.8,0.2-8,2.9-9.8-0.5c-1.6-2.9-1.3-7.3,1.4-14C170.1,36.3,170.5,34.7,173.2,32z"/>
	<path class="st6" d="M182.4,44.1c0,0,2.7,2.5,1.9,4.5"/>
</g>
</svg>
