<svg xmlns="http://www.w3.org/2000/svg" viewBox="0 0 843.2320557 860.7837524"><style>.st0{fill:#FFFFFF;}</style><g id="Layer_1"><path d="M406.976 777.854c-5.267-1.314-10.55-2.57-15.798-3.953-20.985-5.526-41.028-13.327-59.49-24.882-15.746-9.855-29.49-21.923-40.587-36.9-5.543-7.48-10.23-15.463-13.946-24-.73-1.68-1.698-2.93-3.305-3.902-15.048-9.11-30.05-18.294-45.068-27.45-.54-.33-1.126-.59-1.824-.95-1.072.637-2.16 1.283-3.244 1.93-3.464 2.072-7.17 3.49-11.144 4.243-3.578.677-6.966.434-10.152-1.553-5.29-3.298-10.753-6.33-15.92-9.808-21.766-14.65-42.68-30.49-63.845-45.975-2.703-1.978-5.24-4.205-7.723-6.46-4.242-3.85-6.48-8.62-6.325-14.45.056-2.064-.12-4.135-.178-5.794-9.106-6.652-17.887-13.047-26.646-19.47-21.923-16.08-43.894-32.096-65.727-48.298-9.487-7.04-14.733-16.738-15.758-28.485-.47-5.4-.265-10.868-.146-16.3.044-2.044.565-4.116 1.14-6.097.536-1.84 1.426-3.58 3.297-4.52.54 1.283 1.66 1.438 2.8 1.282 2.384-.324 4.295.52 6.21 1.886 4.423 3.153 9.063 6.004 13.448 9.204C53.25 486.28 79.41 505.47 105.58 524.644c.896.656 1.735 1.39 2.52 2.022.28 6.463 1.762 8.917 7.442 13.22 12.872 9.75 26.065 19.036 39.37 28.177 15.28 10.498 30.705 20.766 46.58 30.343 1.502.905 3.066 1.717 4.65 2.464 1.672.787 3.4.764 5.097-.013 7.11-3.256 14.234-6.485 21.32-9.795.978-.457 1.864-1.23 2.6-2.033.335-.368.435-1.278.214-1.735-.212-.44-.997-.89-1.493-.85-1.086.083-2.194.362-3.21.766-1.48.59-2.884 1.368-4.33 2.047-5.894 2.77-11.762 5.6-17.593 7.922-32.338-20.63-64-41.617-94.127-64.746 0-3.303-.113-6.338.027-9.363.198-4.306.403-8.627.932-12.902.625-5.064 1.37-10.126 3.178-14.962 3.826-10.23 13.403-15.985 24.233-14.492 1.267.174 2.542.316 3.792.57 2.063.423 3.374-.452 4.21-2.26 1.45.645 3.004 1.12 4.33 1.96 9.446 5.986 18.965 11.867 28.235 18.117 18.42 12.42 36.69 25.058 55.03 37.592 2.112 1.442 4.275 2.81 6.426 4.19 2.498 1.605 3.594 3.974 3.756 6.845.053.957.02 1.918.02 2.877.03 12.95.11 25.897.044 38.845-.013 2.69.697 4.884 2.272 7.07 5.524 7.665 10.204 15.85 14.355 24.332.973 1.988 1.686 4.103 2.52 6.16l-14.22-8.68c-1.986-4.708-2.88-6.04-4.884-7.246l-.195 4.19c-1.396-.756-2.823-1.462-4.184-2.28-4.52-2.714-9.007-5.487-13.53-8.2-2.328-1.398-4.684-2.754-7.072-4.046-.822-.444-1.764-.72-2.685-.898-.35-.068-.963.254-1.15.577-.2.34-.19.968-.002 1.334.277.543.72 1.064 1.216 1.42 1.56 1.112 3.147 2.198 4.78 3.2 13.633 8.342 27.274 16.67 40.923 24.983 1.225.747 2.503 1.42 3.805 2.02.554.256 1.23.28 1.858.335.77.068 1.477-1.01 1.057-1.697-.64-1.047-1.406-2.016-2.12-3.018 1.08-.916 2.113-.126 3.12.14 1.502.393 2.886 1.405 4.79.68.658-1.056 1.428-2.252 2.16-3.47 7.566-12.595 18.25-21.41 31.98-26.636 5.53-2.104 11.29-3.22 17.022-4.492 2.544-.245 5.085-.573 7.635-.72 10.574-.612 21.122-.01 31.617 1.17 16.062 1.808 31.892 4.905 47.44 9.373 11.523 3.312 22.845 7.194 33.844 11.983 1.31.57 2.652 1.16 3.81 1.98 1.874 1.328 2.384 3.285 1.546 4.973-1.032 2.075-2.7 2.95-5.016 2.44-1.39-.31-2.768-.754-4.077-1.312-23.525-10.014-48.026-16.435-73.317-19.937-3.25-.45-6.53-.68-10.95-1.13 1.71 1.17 2.443 1.706 3.21 2.19 4.6 2.894 9.245 5.72 13.806 8.672 18.557 12.01 35.87 25.686 53.088 39.505 18.62 14.945 36.3 30.883 52.486 48.458 8.36 9.076 16.376 18.405 22.36 29.282 2.23 4.054 4.313 8.19 6.472 12.283 1.182 2.242 2.232 4.597 4.562 5.843 1.898-.3 3.004-1.428 3.882-2.795.776-1.206 1.502-2.455 2.132-3.743 4.424-9.04 8.816-18.095 13.22-27.143.326-.667.365-1.618 1.877-1.506 1.74 2.536 3.65 5.28 5.518 8.05 1.16 1.723 2.202 3.528 3.406 5.218.816 1.146 1.61 2.433 3.427 2.58 1.045-1.288 1.416-2.743.737-4.368-.676-1.616-1.338-3.25-2.167-4.79-2.59-4.81-5.883-9.14-9.378-13.312-2.36-2.818-4.845-5.533-7.29-8.28-1.463-1.64-2.265-3.418-1.412-5.674 2.078-.837 3.86-.192 5.39 1.024 1.24.984 2.4 2.148 3.33 3.425 3.48 4.78 6.874 9.622 10.254 14.473 3.043 4.367 5.11 9.213 6.636 14.28.965 3.21 1.884 6.45 2.538 9.735 1.28 6.43 2.408 12.914 2.025 19.503-.55 9.45-2.058 18.772-5.328 27.68-3.686 10.036-7.73 19.94-11.573 29.92-1.204 3.127-2.265 6.308-3.39 9.464-.107.3-.223.603-.292.913-.346 1.58-.06 2.747.74 2.977 1.143.33 1.806-.492 2.384-1.188.812-.976 1.535-2.05 2.152-3.16 6.838-12.313 12.77-25.057 17.34-38.374 5.01-14.588 6.756-29.532 4.04-44.887-2.033-11.51-6.043-22.29-12.727-31.79-5.6-7.96-12.01-15.365-18.297-22.816-3.29-3.9-7.102-7.356-10.654-11.036-4.78-4.948-9.503-9.95-14.303-14.876-12.293-12.617-25.528-24.22-38.738-35.847-21.147-18.613-42.846-36.53-66.337-52.153-9.984-6.64-20.2-12.907-31.146-17.892-3.65-1.663-7.402-2.992-11.344-3.748-5.427-1.04-9.754.954-13.144 5.072-1.308 1.587-2.21 3.505-3.34 5.242-.3.458-.48 1.27-1.364.887-1.55-8.982-.345-14.99 1.463-21.68 1.644-6.09 5.07-10.954 9.754-15.06 1.432-1.254 3-1.708 4.84-1.562 4.05.323 7.893 1.464 11.387 3.457 5.69 3.245 11.352 6.56 16.833 10.138 12.192 7.96 23.775 16.78 35.42 25.507 23.69 17.753 46.937 36.04 68.5 56.38 13.495 12.732 27.117 25.328 40.63 38.038 3.726 3.504 7.408 7.075 10.863 10.842 4.537 4.947 8.927 10.038 13.203 15.214 5.293 6.408 10.494 12.9 15.57 19.48 4.516 5.854 7.934 12.385 10.78 19.182 2.543 6.075 4.39 12.41 4.41 19.04.018 5.42-.21 10.886-.923 16.253-.82 6.165-2.24 12.253-3.503 18.353-.844 4.076-.91 4.85.227 8.46 1.842.068 2.938-1.17 3.647-2.554.94-1.833 1.692-3.796 2.255-5.78 2.317-8.173 3.793-16.537 4.527-24.973 1.01-11.592-.057-22.994-4.812-33.824-2.19-4.985-4.54-9.897-7.676-14.352-3.955-5.62-8.092-11.112-12.183-16.635-4.495-6.068-10.015-11.206-15.206-16.636-7.073-7.4-14.016-14.942-21.416-22.003-13.307-12.698-26.84-25.163-40.42-37.572-7.908-7.23-15.892-14.4-24.196-21.166-11.53-9.39-23.29-18.506-35.136-27.5-12.86-9.765-25.717-19.56-39.39-28.19-4.59-2.896-9.27-5.685-14.08-8.188-5.733-2.98-11.846-4.785-18.428-4.48-.795.038-1.635.082-2.38-.132-.53-.15-.935-.732-1.46-1.175 2.993-8.17 6.982-15.585 12.89-21.834 10.117-10.703 22.275-18.09 36.495-22 15.85-4.355 31.717-3.432 47.418.55 21.845 5.542 42.19 14.682 61.35 26.53 7.362 4.553 14.12 9.92 21.073 15.034 17.288 12.714 33.735 26.44 49.665 40.797 11.41 10.282 22.677 20.733 32.632 32.47 7.138 8.416 14.043 17.03 21.068 25.54 5.513 6.68 10.395 13.802 14.57 21.375 5.337 9.676 10.12 19.627 12.353 30.545 1.44 7.04 2.456 14.166 3.707 21.245.922 5.225 1.078 10.49.956 15.772-.28 11.99-.918 23.96-2.084 35.898-1.228 12.568-2.627 25.11-5.608 37.417-.454 1.877-.75 3.775.132 5.632-.31 1.06-.482 2.186-.953 3.17-3.383 7.072-7.17 13.92-11.463 20.49-7.267 11.117-17.613 18.396-29.59 23.524-7.237 3.098-14.888 4.822-22.716 5.64-3.828.4-7.666.228-11.462-.506-2.43-.47-4.62-.19-6.89 1.08-6.307 3.525-13.114 4.57-20.354 4.14-6.22-.372-12.022-1.56-17.24-5.364-4.876 1.75-9.675 3.446-14.452 5.2-3.6 1.322-7.145 2.793-10.76 4.07-5.91 2.085-11.97 3.475-18.288 3.38-3.712-.054-7.337-.487-10.504-2.695.82-.994.34-1.815-.455-2.446-3.124-2.476-6.232-4.977-9.444-7.335-15.18-11.148-30.076-22.655-44.317-34.984-7.113-6.158-14.027-12.547-21.052-18.808-1.177-1.05-2.323-2.427-3.73-2.863-2.24-.696-4.685-.728-7.044-1.04zm-135.904-106.64c-.675-3.768-1.155-7.583-2.07-11.29-1.455-5.89-3.182-11.713-4.83-17.554-.564-1.996-1.28-3.948-1.846-5.943-.464-1.64-1.43-2.768-2.89-3.633-3.576-2.117-7.084-4.347-10.655-6.473-.616-.367-1.406-.447-2.24-.696-1.978 4.127-3.664 8.1-5.744 11.86-2.084 3.763-4.56 7.31-6.864 10.954-4.14-2.38-8.27-4.772-12.42-7.133-1.52-.866-3.035-1.782-4.652-2.43-.778-.31-1.786-.052-2.623-.052-.415 1.45-.135 2.506.815 3.27 1.115.894 2.277 1.75 3.496 2.493 20.56 12.54 41.12 25.085 61.723 37.557 2.58 1.56 5.377 2.775 8.133 4.017.774.35 1.762.224 2.75.326l-.574-2.596c1.06-.663 1.766.204 2.58.6 5.73 2.797 9.182 1.712 12.285-3.873.31-.557.66-1.113.85-1.714 1.005-3.19 2.13-6.353 2.905-9.6 1.416-5.94 1.388-12.046 1.643-18.107.37-8.812 1.58-17.487 4.135-25.94 2.004-6.636 4.873-12.832 9.663-17.99.247-.265.264-.743.397-1.15-.48-.07-.797-.174-1.102-.148-.473.04-.95.13-1.407.26-14.997 4.227-26.64 12.788-34.272 26.53-.775 1.396-1.568 2.783-2.403 4.143-1.19 1.942-3.02 2.782-5.234 2.84-.796.02-1.596-.07-2.39-.133-1.647-.133-3.142.236-4.705 1.307.17 1.244.243 2.494.524 3.695.508 2.174 1.09 4.335 1.73 6.476 3.07 10.262 6.157 20.52 12.648 29.308.18.244.33.615.28.888-.043.236-.39.417-.605.622-4.408-2.662-8.83-5.302-13.214-8-1.324-.813-2.548-1.79-3.818-2.69zm120.59 93.164c2.798 1.18 5.717 1.858 9.243 2.342-.748-.953-1.145-1.582-1.66-2.093-4.76-4.73-9.558-9.422-14.312-14.158-10.072-10.035-20.224-19.996-29.45-30.835-8.648-10.156-15.474-21.477-21.254-33.46-.402-.832-.935-1.6-1.446-2.462-2.093 1.325-.934 2.933-.796 4.388-.944-1.46-2.046-2.84-2.806-4.39-4.64-9.45-6.975-19.507-7.506-29.983-.25-4.935-.27-9.88-.4-14.998l-.12.007c-.015.152-.018.307-.046.456-1.133 5.985-1.404 12.028-1.478 18.11-.08 6.567-1.103 13.05-2.926 19.358-1.288 4.456-3.002 8.784-6.1 12.367-4.465 5.16-9.938 7.3-16.71 5.427-1.122-.31-2.277-.496-3.94-.852.755 1.38 1.184 2.225 1.665 3.038 9.87 16.64 23.16 30.018 39.03 40.935 17.958 12.354 37.778 20.595 58.65 26.5.756.213 1.574.207 2.363.303zM107.475 564.604c.033-1.275.102-2.55.09-3.822-.044-5.594-.077-11.187-.187-16.78-.047-2.363 1.17-4.893-.087-7.04-1.273-2.18-3.115-4.047-4.84-5.93-.96-1.047-2.154-1.9-3.31-2.75-10.17-7.48-20.363-14.933-30.54-22.405-18.166-13.338-36.32-26.69-54.495-40.014-1.255-.92-2.33-2.246-4.445-2.232-.248 1.163-.72 2.367-.725 3.574-.02 4.312-.02 8.632.224 12.935.416 7.36 3.49 13.517 8.894 18.53 1.64 1.52 3.22 3.106 4.826 4.66h-2.602c-.544 1.3.118 2.06.82 2.674 1.8 1.57 3.612 3.137 5.525 4.562 6.776 5.048 13.606 10.023 20.4 15.05 18.58 13.748 37.147 27.516 55.74 41.25 1.37 1.01 2.715 2.18 4.667 2.408.825-1.62.385-3.147.044-4.67zm239.086 71.8l-.85-.038c-.31.696-.816 1.37-.896 2.093-.42 3.805-.917 7.618-1.048 11.44-.39 11.367.196 22.685 2.34 33.882 2.094 10.93 7.053 20.528 14.123 28.994 8.404 10.064 17.074 19.906 26.685 28.866 12.63 11.775 25.192 23.623 37.9 35.313 13.533 12.45 27.325 24.612 41.848 35.91 6.182 4.81 12.432 9.56 19.388 13.22 2.52 1.326 5.22 2.532 7.98 3.133 3.975.865 7.65-.02 10.02-3.8.93-1.486 1.867-2.982 2.63-4.556 2.942-6.086 4.815-12.526 5.83-19.187.697-4.59.832-9.24.198-13.862-.112-.82-.716-1.57-1.4-2.993-.534 2.3-.986 3.83-1.23 5.393-.47 2.993-.766 6.014-1.23 9.008-1.06 6.816-2.752 13.453-5.79 19.687-.557 1.146-1.112 2.32-1.856 3.344-2.123 2.924-4.91 3.886-8.374 2.764-1.798-.582-3.6-1.35-5.18-2.374-3.35-2.17-6.614-4.486-9.816-6.874-15.525-11.58-30.197-24.19-44.5-37.228-11.932-10.877-23.692-21.943-35.575-32.875-11.905-10.95-23.015-22.654-33.397-35.05-6.457-7.71-11.21-16.32-13.403-26.198-1.663-7.49-2.996-15.045-3.328-22.73-.312-7.182-.49-14.37-.75-21.552-.046-1.246-.21-2.486-.32-3.73zM227.074 546.84c-.808-.187-1.252-.4-1.675-.36-.62.054-1.254.215-1.83.456-2.242.94-4.052 2.482-5.698 4.235-3.558 3.79-5.922 8.295-7.355 13.216-.97 3.335-1.462 6.82-2.023 10.26-.197 1.21-.222 2.59 1.232 3.307 1.437-.627 1.336-1.967 1.54-3.214 1.674-10.178 5.272-19.3 14.035-25.614.69-.496 1.093-1.388 1.774-2.287z"/><path d="M784.275 703.557c-6.116 2.628-12.674 3.134-19.16 3.988-3.007.396-6.008.84-9.022 1.172-1.397.153-2.35.826-3.157 1.907-1.147 1.536-2.29 3.083-3.55 4.526-5.447 6.24-12.134 10.835-19.53 14.44-3.802 1.853-7.854 2.653-12.172 2.243-6.135 5.66-12.41 11.036-20.64 13.524-5.95 1.8-11.95 1.878-18.034 1.325.272-2.858.608-5.71.806-8.575.572-8.292 1.156-16.584 1.607-24.883.435-7.987.72-15.98-.54-23.936-.75-4.734-1.367-9.492-2.197-14.212-1.356-7.716-3.028-15.36-5.94-22.673-5.84-14.655-13.615-28.182-23.613-40.408-6.075-7.43-12.037-14.953-18.25-22.262-4.763-5.6-9.805-10.967-14.794-16.372-2.275-2.463-4.72-4.77-7.16-7.22-.03-.557-.112-1.194-.09-1.828.45-13.42 1.12-26.82 2.882-40.152 1.118-8.447 2.824-16.67 6.79-24.333 2.65-5.126 4.418-10.543 4.88-16.403.335-4.237 1.274-8.426 1.946-12.652.093-2.683 1.644-9.888 1.835-10.977.497-2.832 1.157-5.636 1.63-8.47 3.237-19.437 8.49-38.355 14.756-57 4.095-12.185 9.65-23.607 17.497-33.926 5.778-7.6 12.96-13.277 21.536-17.123 11.848-5.314 24.023-6.03 36.404-1.643 8.883 3.15 16.657 8.023 23.55 14.408 4.45 4.12 8.572 8.62 13.676 11.925.134.548.275 1.002.354 1.465 1.924 11.362 2.553 22.867 3.706 34.31.945 9.38 1.383 18.81 2.314 28.19 1.454 14.65 1.72 29.35 2.27 44.04.444 11.82.726 23.643 1.106 35.464.256 7.986.697 15.97.795 23.957.08 6.71-.16 13.426-.355 20.136-.3 10.225-.663 20.445-2.018 30.608-.548 4.113-.734 8.277-1.002 12.423-.052.814-.453 1.904.86 2.42.294-.352.737-.657.85-1.056 1.3-4.605 2.895-9.162 3.743-13.853 2.052-11.352 2.166-22.895 2.777-34.38.458-8.633.07-17.258-.34-25.886-.495-10.38-.784-20.767-1.154-31.152-.28-7.827-.567-15.654-.813-23.482-.226-7.193-.2-14.4-.645-21.578-.723-11.643-1.727-23.268-2.638-34.9-.362-4.62-.67-9.25-1.215-13.852-1.15-9.68-2.443-19.343-3.658-29.016-.085-.677-.01-1.374-.01-2.033.497-.04.684-.113.812-.055 7.482 3.386 12.12 9.196 14.195 17.04 3.024 11.442 5.193 23.076 7.077 34.742 2.677 16.573 4.523 33.268 5.67 50.015 1.102 16.1 2.272 32.2 2.02 48.377-.236 15.03.058 30.07.084 45.108.02 10.087-.87 20.124-2.118 30.116-1.864 14.92-4.825 29.653-8.552 44.208-4.248 16.59-9.45 32.86-17.92 47.89-1.02 1.81-2.01 3.64-2.874 5.525-1.264 2.754-2.44 5.55-3.578 8.36-.477 1.182-.507 2.398.315 3.482 3.39-1.5 3.535-1.402 5.102-3.683 2.62-3.813 5.21-7.665 7.504-11.678 7.023-12.29 11.567-25.596 15.494-39.113 3.972-13.67 6.755-27.605 9.077-41.648 2.485-15.02 3.958-30.12 4.042-45.328.05-8.95-.427-17.905-.64-26.86-.016-.697-.4-1.62.924-2.018 1.424 2.023 2.953 4.05 4.33 6.177 3.648 5.636 7.162 11.36 10.875 16.95 1.4 2.105 2.038 4.215 1.845 6.73-.477 6.215-.817 12.44-1.21 18.66-.172 2.712-.387 5.422-.493 8.136-.07 1.755.18 3.455 1.745 4.725 1.88-.45 2.574-1.924 3.01-3.434.488-1.68.816-3.43.978-5.173.4-4.296.688-8.604.982-12.91.174-2.553.132-5.128.457-7.66.198-1.533.777-3.066 1.463-4.463.255-.52 1.35-.96 1.978-.87.653.097 1.34.788 1.758 1.395.323.47.356 1.213.336 1.83-.057 1.756-.155 3.515-.328 5.264-1.165 11.766-2.573 23.494-4.398 35.187-2.847 18.24-7.447 35.947-14.654 52.96-6.103 14.405-11.5 29.162-21.18 41.75-.922 1.197-1.4 2.504-1.005 4.03zm-38.066-307.09c-.202 1.43-.506 2.518-.483 3.6.15 7.35.287 14.702.587 22.047.704 17.237 1.536 34.47 2.24 51.707.51 12.452.888 24.91 1.366 37.36.05 1.257.332 2.516.62 3.747.177.77.532 1.53 1.59 1.452 1.544-.995 1.65-2.556 1.636-4.188-.02-2.715-.047-5.43.006-8.146.097-4.948.457-9.9.327-14.843-.18-6.857-.773-13.703-1.074-20.558-.385-8.78-.54-17.57-1.004-26.346-.65-12.286-1.47-24.562-2.28-36.838-.124-1.902-.474-3.808-.922-5.664-.285-1.184-.678-2.46-2.61-3.33z"/><path class="st0" d="M150.993 479.024c-.837 1.808-2.148 2.683-4.21 2.26-1.25-.254-2.526-.396-3.792-.57-10.83-1.493-20.406 4.26-24.232 14.492-1.81 4.836-2.553 9.898-3.18 14.962-.528 4.275-.733 8.596-.93 12.903-.14 3.026-.028 6.06-.028 9.364 30.126 23.13 61.79 44.115 94.127 64.745 5.83-2.324 11.7-5.154 17.594-7.923 1.446-.68 2.85-1.458 4.33-2.046 1.016-.403 2.124-.682 3.21-.766.497-.04 1.282.41 1.494.85.22.458.12 1.368-.215 1.735-.736.802-1.622 1.575-2.6 2.032-7.086 3.31-14.21 6.54-21.32 9.795-1.7.777-3.426.8-5.097.013-1.585-.747-3.15-1.56-4.65-2.464-15.876-9.577-31.3-19.845-46.58-30.343-13.306-9.14-26.5-18.428-39.37-28.178-5.68-4.302-7.164-6.756-7.442-13.22-.785-.632-1.624-1.365-2.52-2.02-26.17-19.176-52.33-38.366-78.535-57.493-4.385-3.2-9.025-6.05-13.447-9.204-1.916-1.366-3.827-2.21-6.21-1.886-1.142.156-2.26 0-2.8-1.283 2.395-2.502 5.304-2.977 8.338-1.64 2.61 1.153 5.203 2.495 7.508 4.16 15.94 11.522 31.8 23.15 47.69 34.74 1.032.753 2.09 1.467 3.31 2.322.318-1.616-.778-2.47-1.4-3.45-10.836-17.023-20.376-34.73-28.255-53.32-8.45-19.94-14.768-40.52-18.352-61.893-2.678-15.976-3.684-32.085-3-48.272.44-10.377.883-20.764 1.732-31.113 2.86-34.905 9.527-68.978 22.787-101.566 13.405-32.944 33.078-61.545 59-85.91 16.738-15.732 35.185-29.18 54.5-41.5 18.198-11.612 36.847-22.477 55.7-32.978 18.383-10.24 38.046-17.33 58.358-22.697 14.077-3.72 28.35-6.474 42.77-8.36C330.657 1.29 346.112-.066 361.65 0c10.234.045 20.477-.037 30.698.365 9.098.36 18.19 1.12 27.252 2.04 12.563 1.275 25.06 3.102 37.474 5.45 55.36 10.47 107.493 29.348 155.01 60.007 49.53 31.958 90.15 72.824 121.622 122.71 2.893 4.587 5.654 9.256 8.477 13.885.44.943.878 1.888 1.43 3.074 4.808-3.245 9.762-5.222 15.13-6.125.993-.152 1.986-.302 2.98-.453 2.597.473 5.198.877 8.026.615-2.05-7.18-4.113-14.053-5.957-20.984-1.72-6.475-3.23-13.006-4.788-19.523-.545-2.28-.4-4.45 1.528-6.142 1.527.988 2.47 2.303 3.082 4.09 2.906 8.466 5.24 17.088 7.423 25.76 1.442 5.727 3.028 11.418 4.428 17.155.447 1.83 1.217 3.172 2.94 4.07 2.993 1.564 4.64 4.308 5.87 7.32.444 1.086.46 2.19-.534 3.07-.75-.23-1.562-.345-2.24-.713-2.66-1.445-5.27-2.983-7.91-4.463-7.295-4.086-14.66-3.74-22.016-.227-4.558 2.175-8.13 5.564-11.29 9.45-5.28 6.492-9.393 13.677-12.6 21.374-5.153 12.363-10.24 24.754-15.263 37.172-1.852 4.58-3.462 9.26-5.133 13.91-.668 1.86-1.466 3.55-3.478 4.29-1.27-.25-1.963-1.037-2-2.314-.044-1.59-.01-3.182-.01-5-.125-.204-.36-.616-.623-1.008-.625-.93-1.243-1.863-1.9-2.768-15.128-20.78-32.408-39.587-52.103-56.095-15.696-13.156-32.216-25.24-49.417-36.366-25.59-16.553-52.67-30.146-81.395-40.356-16.864-5.993-34.09-10.8-51.506-14.92-10.732-2.54-21.51-4.83-32.506-5.91-8.588-.84-17.168-1.765-25.766-2.493-5.57-.47-11.163-.864-16.75-.922-11.188-.117-22.37-.066-33.56.506-13.76.703-27.383 2.454-40.955 4.534-13.412 2.056-26.792 4.426-39.993 7.648-1.61.394-3.135.56-4.67-.163.134-.588.07-1.44.436-1.717 1.255-.945 2.574-1.928 4.03-2.457 2.994-1.09 6.06-2.02 9.155-2.79 13.34-3.328 26.818-5.927 40.437-7.88 11.72-1.68 23.467-3.183 35.288-3.495 13.264-.35 26.552-.27 39.818.07 8.617.22 17.233 1.056 25.815 1.943 7.943.82 15.87 1.906 23.753 3.18 12.155 1.964 24.037 5.198 35.907 8.394 10.477 2.82 21.016 5.415 31.287 9 33.85 11.816 65.475 28.014 94.994 48.288 18.858 12.95 37.332 26.437 53.876 42.354 13.855 13.33 26.855 27.408 37.913 43.194.328.47.64 1.164 1.733.754.163-.392.406-.946.624-1.51 4.776-12.362 9.42-24.778 14.37-37.07 3.468-8.614 7.68-16.882 13.538-24.185 1.888-2.353 3.892-4.613 5.846-6.918-3.008-2.144-2.997-2.15-5.16-5.936-1.268-2.22-2.546-4.436-3.874-6.62-17.38-28.593-38.33-54.303-62.434-77.48-38.667-37.178-83.136-65.135-133.29-84.108-29.683-11.23-60.2-19.225-91.554-24.157-19.455-3.062-38.998-5.03-58.68-5.58-22.573-.63-45.093.11-67.498 3.094-18.235 2.43-36.23 6.055-53.84 11.44-15.77 4.822-31.172 10.65-45.51 18.838-17.76 10.14-35.392 20.52-52.838 31.19-18.03 11.028-35.13 23.395-50.92 37.5-23.656 21.127-42.685 45.748-56.448 74.4-12.417 25.85-20.05 53.132-24.65 81.333-2.707 16.584-4.325 33.28-5.076 50.07-.58 12.945-1.03 25.87-.09 38.828 1.183 16.328 4.15 32.31 8.585 48.045 7.022 24.906 17.573 48.294 30.383 70.71 6.827 11.947 14.532 23.33 22.318 34.657.612.888 1.56 1.58 2.444 2.237 5 3.725 10.023 7.424 15.062 11.097.56.407 1.28.594 2.234 1.022 0-1.9-.052-3.34.01-4.773.33-7.85 1.212-15.637 3.64-23.138 2.694-8.314 7.837-14.546 16.09-17.952 3.285-1.356 6.724-1.963 10.23-2.315 1.564.136 3.15.157 4.69.433 3.398.608 6.232 2.1 7.693 5.476z"/><path d="M703.812 297.183c2.012-.74 2.81-2.432 3.478-4.29 1.67-4.652 3.28-9.33 5.133-13.91 5.022-12.42 10.11-24.81 15.262-37.174 3.208-7.698 7.32-14.883 12.6-21.376 3.16-3.885 6.733-7.274 11.29-9.45 7.358-3.51 14.722-3.858 22.016.228 2.643 1.48 5.253 3.018 7.913 4.463.677.368 1.49.483 2.24.714 1.758 4.966 3.6 9.906 5.266 14.905 6.662 20.01 13.145 40.075 18.745 60.415 1.702 6.182 3.14 12.38 2.862 18.872-.18 4.18-.75 8.277-1.907 12.286-2.618 9.076-5.976 17.87-10.164 26.34-.867-4.518-1.744-9.036-2.596-13.56-.62-3.285-1.14-6.592-1.845-9.86-.217-1.01-.895-1.92-1.373-2.895-1.886 1.052-1.625 2.54-1.402 3.94.675 4.247 1.39 8.49 2.134 12.726 2.667 15.216 5.355 30.43 8.018 45.647.1.57.012 1.174.012 2.08-2.205-.83-4.134-1.47-5.73-2.837-1.096-6.44-2.19-12.88-3.3-19.315-.02-.11-.216-.214-.35-.272-.125-.055-.28-.044-.652-.09-1.17 2.336-2.323 4.777-3.6 7.15-1.28 2.383-2.683 4.7-4.033 7.046-1.628-.61-3.326-1.083-4.86-1.873-1.08-.557-2.142-1.395-2.867-2.365-4.048-5.41-9.347-9.067-15.688-11.164-2.093-.692-3.518-1.888-4.914-3.493-4.812-5.533-9.988-10.718-15.874-15.125-7.875-5.898-16.775-9.634-26.226-12.163-.814-2.88-1.61-5.764-2.446-8.635-2.604-8.93-5.834-17.695-7.142-26.97zm78.834-3.157c-.492-.346-.934-.88-1.462-.986-1.56-.313-3.155-.65-4.732-.634-12.2.135-21.9 4.97-28.64 15.353-3.4 5.238-6.212 10.775-8.574 16.54-.596 1.458-.958 3.035-1.22 4.592-.105.624.35 1.342.576 2.104 2.104-1.26 2.537-3.23 3.25-4.96 2.643-6.41 6.252-12.18 10.868-17.358 4.02-4.513 8.77-7.937 14.533-9.744 3.946-1.237 8.007-2.112 12.028-3.1 1.21-.297 2.502-.343 3.373-1.808zm-33.714 1.16c1.19 1.023 2.055.65 2.79-.032 4.33-4.02 9.408-6.435 15.25-7.306.768-.115 1.603-.39 2.203-.853.565-.436 1.17-1.206 1.203-1.856.052-1.09-.915-1.642-1.916-1.676-1.422-.05-2.9-.117-4.268.195-5.454 1.24-9.955 4.13-13.517 8.42-.76.917-1.194 2.104-1.745 3.106zM760.533 154.923c-1.93 1.693-2.073 3.862-1.528 6.142 1.56 6.517 3.067 13.048 4.788 19.523 1.844 6.93 3.908 13.804 5.956 20.984-2.83.262-5.43-.142-8.028-.615-.87-3.537-1.624-7.108-2.638-10.603-.98-3.376-.988-7.06-3.104-10.583-1.5 4.84-2.802 9.238-3.328 13.816-.29 2.524-.42 5.072 1.307 7.234l4.782.59c-5.367.902-10.32 2.88-15.13 6.124-.55-1.186-.99-2.13-1.43-3.075.164-.734.563-1.505.453-2.196-.99-6.205-.687-12.317.933-18.394 1.838-6.894 3.533-13.826 5.385-20.716.533-1.98 1.276-3.928 2.136-5.793.737-1.597 1.87-2.996 3.666-3.54 2.09-.632 4.067-.393 5.777 1.103zM811.904 375.617c.722 3.015.505 6.025-.09 9.023-2.518 12.657-5.013 25.32-7.586 37.965-1.524 7.492-3.14 14.965-4.788 22.43-.85 3.863-1.86 7.69-2.8 11.553-3.786-.22-4.588-.84-4.623-4.148-.02-1.894.14-3.83.525-5.68 2.832-13.574 5.812-27.117 8.597-40.7 1.342-6.55 2.365-13.167 3.532-19.753.52-1.61 1.252-3.188 1.516-4.84.54-3.38 2.42-5.257 5.716-5.85z"/><path class="st0" d="M406.976 777.854c2.36.313 4.805.345 7.045 1.04 1.407.437 2.553 1.814 3.73 2.864 7.026 6.26 13.94 12.65 21.053 18.808 14.24 12.33 29.138 23.836 44.318 34.983 3.213 2.357 6.32 4.858 9.445 7.334.796.63 1.274 1.452.455 2.445-1.64-.543-3.422-.843-4.9-1.68-3.042-1.72-6.033-3.578-8.853-5.642-24.71-18.08-48.543-37.227-70.688-58.412-.57-.544-1.07-1.16-1.604-1.742zM346.56 636.404c.11 1.243.274 2.483.32 3.73.26 7.182.438 14.37.75 21.55.33 7.686 1.664 15.24 3.327 22.73 2.194 9.88 6.946 18.49 13.403 26.198 10.382 12.397 21.492 24.1 33.397 35.05 11.883 10.933 23.643 22 35.576 32.876 14.302 13.038 28.974 25.65 44.5 37.228 3.2 2.388 6.465 4.705 9.816 6.874 1.58 1.023 3.38 1.792 5.178 2.374 3.465 1.122 6.25.16 8.374-2.763.744-1.024 1.3-2.197 1.857-3.343 3.036-6.234 4.73-12.87 5.787-19.686.465-2.993.76-6.014 1.23-9.007.245-1.563.697-3.094 1.23-5.393.685 1.423 1.29 2.174 1.4 2.993.635 4.623.5 9.273-.198 13.862-1.015 6.66-2.888 13.1-5.83 19.187-.763 1.574-1.7 3.07-2.63 4.555-2.37 3.78-6.045 4.666-10.02 3.8-2.76-.6-5.46-1.806-7.98-3.132-6.955-3.66-13.205-8.41-19.387-13.22-14.523-11.298-28.315-23.46-41.848-35.91-12.708-11.69-25.27-23.538-37.9-35.313-9.61-8.96-18.28-18.802-26.686-28.866-7.07-8.466-12.03-18.063-14.123-28.994-2.145-11.197-2.73-22.515-2.34-33.883.13-3.822.627-7.635 1.047-11.44.08-.723.585-1.398.895-2.094l.85.038zM391.663 764.378c-2.466-2.49-4.942-4.972-7.397-7.474-7.947-8.104-15.978-16.13-23.79-24.362-3.847-4.052-7.558-8.292-10.848-12.8-5.935-8.13-11.392-16.6-15.527-25.83-.842-1.882-1.416-3.885-2.113-5.82-.137-1.446-1.296-3.054.797-4.38.51.864 1.044 1.63 1.445 2.462 5.78 11.984 12.605 23.305 21.252 33.46 9.227 10.84 19.38 20.8 29.45 30.835 4.755 4.735 9.553 9.427 14.313 14.157.515.51.912 1.14 1.66 2.093-3.526-.484-6.445-1.162-9.242-2.342zM22.88 503.33c3.638 2.582 7.304 5.125 10.91 7.75 24.417 17.78 48.82 35.577 73.234 53.363.123.09.3.11.45.16.34 1.524.78 3.05-.044 4.67-1.952-.227-3.298-1.396-4.667-2.408-18.593-13.733-37.16-27.5-55.74-41.25-6.794-5.026-13.624-10-20.4-15.05-1.913-1.424-3.725-2.99-5.524-4.56-.704-.615-1.366-1.374-.822-2.674h2.602zM233.932 648.438c1.022.726 2.008 1.513 3.073 2.17 10.37 6.385 20.752 12.755 31.142 19.11.93.57 1.947 1 2.925 1.495 1.27.902 2.494 1.878 3.817 2.692 4.384 2.697 8.805 5.337 13.213 8l-.083-.074c.585 1.31.97 1.532 1.904 1.102l-.107-.094c-.265 1.282-.26 1.288 1.023 1.024l-.26.03.572 2.594c-.987-.102-1.975.023-2.75-.326-2.755-1.242-5.553-2.456-8.13-4.017-20.604-12.472-41.163-25.016-61.724-37.557-1.22-.744-2.38-1.6-3.496-2.494-.95-.763-1.23-1.82-.815-3.27.837 0 1.845-.258 2.623.054 1.617.647 3.13 1.563 4.653 2.43 4.15 2.36 8.28 4.752 12.42 7.132zM271.578 629.007c.713 1.002 1.48 1.97 2.12 3.018.42.688-.29 1.765-1.058 1.697-.627-.056-1.304-.08-1.858-.335-1.302-.6-2.58-1.273-3.805-2.02-13.65-8.314-27.29-16.64-40.922-24.984-1.634-1-3.22-2.087-4.78-3.2-.498-.355-.94-.876-1.217-1.42-.187-.365-.2-.993 0-1.334.19-.324.8-.646 1.15-.578.922.18 1.864.454 2.686.898 2.388 1.292 4.744 2.648 7.072 4.046 4.523 2.713 9.01 5.486 13.53 8.2 1.36.818 2.788 1.524 4.185 2.28 1.694 1.02 3.387 2.037 5.08 3.055l14.22 8.682-.105-.01c1.107.996 2.106 2.192 3.82 2.07l-.117-.065zM227.074 546.84c-.68.898-1.085 1.79-1.773 2.286-8.762 6.313-12.36 15.436-14.033 25.613-.205 1.246-.104 2.586-1.54 3.213-1.455-.717-1.43-2.097-1.233-3.307.56-3.44 1.052-6.925 2.023-10.26 1.433-4.92 3.797-9.426 7.355-13.215 1.646-1.752 3.456-3.293 5.698-4.234.576-.24 1.21-.402 1.83-.457.422-.04.866.173 1.674.36zM746.21 396.468c1.932.87 2.325 2.146 2.61 3.33.448 1.856.798 3.762.923 5.664.81 12.276 1.63 24.552 2.28 36.837.464 8.774.618 17.565 1.003 26.345.3 6.855.894 13.7 1.073 20.558.13 4.942-.23 9.895-.328 14.843-.053 2.715-.027 5.43-.006 8.146.013 1.632-.092 3.193-1.635 4.187-1.058.076-1.413-.683-1.59-1.453-.288-1.23-.57-2.49-.62-3.746-.478-12.45-.855-24.908-1.365-37.36-.705-17.237-1.537-34.47-2.24-51.706-.3-7.345-.437-14.697-.588-22.047-.023-1.082.28-2.17.482-3.6z"/><path d="M269.975 140.487c-6.942 2.41-13.825 5.03-20.645 7.834-27.515 11.318-53.86 24.75-77.066 43.534-20.33 16.462-37.476 35.695-50.405 58.523-9.93 17.53-16.752 36.2-20.245 56.076-1.747 9.94-2.53 19.942-3.025 30.013-.393 8.016-.05 15.99.506 23.94 1.074 15.338 3.82 30.416 8.063 45.213 6.7 23.373 16.596 45.266 30.214 65.444.446.66.824 1.367 1.234 2.05-3.504.353-6.943.96-10.228 2.316-8.253 3.406-13.396 9.638-16.09 17.952-2.428 7.5-3.31 15.287-3.64 23.137-.062 1.433-.01 2.872-.01 4.772-.954-.428-1.674-.615-2.234-1.023-5.04-3.674-10.06-7.373-15.062-11.098-.884-.658-1.832-1.35-2.443-2.237-7.785-11.327-15.49-22.71-22.317-34.656-12.81-22.418-23.36-45.806-30.382-70.712-4.434-15.735-7.4-31.717-8.584-48.045-.94-12.957-.49-25.883.09-38.827.75-16.79 2.37-33.487 5.075-50.07 4.603-28.202 12.235-55.484 24.652-81.334 13.763-28.652 32.792-53.273 56.447-74.4 15.79-14.105 32.89-26.472 50.92-37.5 17.446-10.67 35.078-21.05 52.838-31.19 14.338-8.187 29.74-14.016 45.51-18.838 17.61-5.385 35.605-9.01 53.84-11.44C339.393 6.94 361.913 6.2 384.486 6.83c19.682.55 39.225 2.518 58.68 5.58 31.353 4.93 61.87 12.926 91.554 24.156 50.154 18.973 94.623 46.93 133.29 84.108 24.105 23.177 45.055 48.887 62.434 77.48 1.328 2.184 2.606 4.4 3.875 6.62 2.16 3.786 2.15 3.792 5.158 5.935-1.954 2.304-3.958 4.564-5.846 6.917-5.858 7.303-10.07 15.57-13.54 24.185-4.95 12.292-9.592 24.708-14.368 37.07-.218.564-.46 1.118-.624 1.51-1.092.41-1.405-.285-1.733-.754-11.058-15.786-24.058-29.865-37.913-43.194-16.544-15.917-35.018-29.403-53.876-42.354-29.52-20.274-61.143-36.472-94.994-48.287-10.27-3.586-20.81-6.18-31.287-9-11.87-3.197-23.752-6.43-35.906-8.395-7.883-1.274-15.81-2.36-23.752-3.18-8.582-.887-17.198-1.724-25.815-1.944-13.266-.338-26.554-.42-39.818-.07-30.924.818-61 7.2-90.03 17.273zM713.34 204.04c1.428-1.907 1.3-3.303.703-4.638-.847-1.89-1.614-3.873-2.796-5.548-4.61-6.53-9.11-13.16-14.124-19.373-12.068-14.955-25.342-28.81-39.433-41.877-17.535-16.26-36.815-30.19-57.097-42.792-15.082-9.37-30.52-18.093-46.89-25.007-17.647-7.45-35.343-14.8-53.837-20-3.58-1.008-7.163-1.593-10.862-1.554-.61.005-1.284-.03-1.27 1.196 3.052 1.43 6.156 3.095 9.415 4.365 5.498 2.146 11.153 3.894 16.64 6.07 13.8 5.47 27.823 10.494 41.26 16.76 39.677 18.505 75.884 42.268 107.46 72.816 14.978 14.492 28.86 29.91 40.834 47.005 2.292 3.273 4.7 6.467 7.123 9.643.744.975 1.72 1.772 2.872 2.936zm-638.483-6.192c-1.42 1.163-2.236 1.628-2.777 2.31-1.916 2.413-2.94 5.285-3.918 8.16-9.228 27.11-14.062 55.003-15.038 83.606-.454 13.28.02 26.507 1.513 39.71 1.186 10.49 2.893 20.89 5.5 31.114 4.384 17.207 10.517 33.816 17.53 50.11 6.656 15.47 14.858 30.043 25.207 43.364 1.273 1.638 2.62 3.227 4.04 4.74.606.644 1.484 1.035 2.75 1.883-.218-1.316-.156-2.157-.496-2.78-.993-1.818-2.156-3.544-3.236-5.317-4.234-6.952-8.72-13.767-12.64-20.892-9.34-16.97-16.5-34.886-22.748-53.204-6.274-18.4-10.023-37.306-11.656-56.62-1.023-12.1-1.226-24.24-.528-36.394.678-11.814 1.565-23.61 3.488-35.276 2.575-15.608 6.228-30.984 11.424-45.96.834-2.404 1.547-4.836 1.585-8.554zM67.92 309.012c.19-1.693.407-2.637.382-3.574-.192-7.195.32-14.36.867-21.523.73-9.552 1.75-19.067 3.567-28.484 1.63-8.452 3.265-16.903 4.854-25.364.2-1.057.128-2.165.208-3.776-1.05.592-1.89.796-2.24 1.325-.6.91-1.01 1.99-1.297 3.053-1.126 4.15-2.21 8.315-3.243 12.492-2.495 10.09-4.005 20.335-4.98 30.68-.884 9.4-1.27 18.795-.644 28.214.126 1.888.592 3.76.994 5.618.07.327.607.553 1.533 1.34z"/><path class="st0" d="M782.646 294.026c-.87 1.465-2.164 1.51-3.373 1.808-4.02.988-8.082 1.863-12.028 3.1-5.763 1.807-10.512 5.23-14.533 9.744-4.616 5.18-8.225 10.95-10.868 17.36-.713 1.728-1.146 3.698-3.25 4.958-.226-.762-.68-1.48-.576-2.104.262-1.557.624-3.134 1.22-4.59 2.362-5.767 5.174-11.304 8.574-16.543 6.74-10.383 16.44-15.22 28.64-15.354 1.577-.017 3.173.32 4.732.634.528.106.97.64 1.462.986zM748.932 295.186c.55-1.002.985-2.19 1.745-3.105 3.562-4.29 8.063-7.18 13.517-8.42 1.37-.313 2.846-.245 4.268-.196 1 .034 1.968.586 1.916 1.675-.032.65-.638 1.42-1.203 1.855-.6.464-1.435.738-2.204.853-5.84.87-10.92 3.286-15.248 7.306-.735.683-1.6 1.055-2.79.032z"/><path d="M271.694 629.072c-1.713.122-2.712-1.074-3.82-2.07 1.172.32 2.36.593 3.498 1 .208.075.22.7.322 1.07zM289.924 682.932c-.934.43-1.32.207-1.904-1.1 1.006-.837 1.536-.53 1.904 1.1z"/><path d="M290.84 683.862c-1.282.264-1.288.258-1.023-1.024.883-.2 1.233.132 1.023 1.024z"/><path class="st0" d="M713.34 204.04c-1.153-1.165-2.13-1.962-2.873-2.937-2.424-3.176-4.83-6.37-7.123-9.642-11.974-17.093-25.856-32.512-40.834-47.004-31.576-30.548-67.783-54.31-107.46-72.815-13.437-6.266-27.46-11.29-41.26-16.76-5.487-2.176-11.142-3.924-16.64-6.07-3.26-1.27-6.364-2.934-9.415-4.364-.015-1.227.66-1.19 1.27-1.197 3.698-.04 7.28.545 10.86 1.552 18.495 5.2 36.19 12.55 53.837 20 16.372 6.915 31.81 15.64 46.89 25.01 20.283 12.6 39.563 26.53 57.098 42.79 14.09 13.068 27.365 26.923 39.433 41.88 5.014 6.21 9.515 12.843 14.124 19.372 1.182 1.675 1.95 3.657 2.796 5.548.598 1.335.725 2.73-.704 4.637zM74.857 197.848c-.038 3.718-.75 6.15-1.585 8.555-5.196 14.975-8.85 30.35-11.424 45.96-1.923 11.664-2.81 23.46-3.488 35.275-.698 12.155-.495 24.295.528 36.393 1.633 19.316 5.382 38.222 11.656 56.622 6.247 18.318 13.41 36.235 22.748 53.204 3.92 7.125 8.406 13.94 12.64 20.892 1.08 1.773 2.243 3.5 3.236 5.318.34.622.278 1.463.495 2.78-1.265-.85-2.143-1.24-2.748-1.885-1.42-1.51-2.768-3.1-4.04-4.738-10.35-13.32-18.552-27.894-25.21-43.364-7.01-16.294-13.144-32.903-17.53-50.11-2.605-10.225-4.312-20.623-5.498-31.113-1.494-13.204-1.967-26.43-1.513-39.71.976-28.604 5.81-56.497 15.038-83.607.98-2.875 2.002-5.747 3.918-8.16.54-.682 1.356-1.147 2.777-2.31z"/><path class="st0" d="M67.92 309.012c-.926-.787-1.462-1.013-1.533-1.34-.402-1.86-.868-3.73-.994-5.618-.627-9.42-.24-18.814.645-28.213.974-10.345 2.484-20.59 4.98-30.68 1.032-4.177 2.116-8.34 3.243-12.492.29-1.064.698-2.144 1.3-3.053.348-.53 1.19-.733 2.238-1.325-.08 1.61-.01 2.72-.207 3.776-1.588 8.46-3.223 16.912-4.853 25.365-1.816 9.418-2.837 18.933-3.568 28.485-.55 7.164-1.06 14.328-.868 21.523.025.937-.192 1.88-.382 3.574z"/><g><path class="st0" d="M832.174 531.914c-.558-11.808-1.46-23.606-2.488-35.383-.902-10.346-1.984-20.687-3.37-30.98-1.618-12.032-3.63-24.012-5.514-36.01-1.437-9.16-3.173-18.273-5.83-27.155-1.14-3.82-1.208-7.448-.438-11.274.662-3.282 1.06-6.623 1.468-9.952.286-2.337-.3-4.458-2.176-6.045-.823-.698-1.44-.27-1.922.504.722 3.015.505 6.025-.09 9.023-2.518 12.657-5.013 25.32-7.586 37.965-1.524 7.492-3.14 14.965-4.788 22.43-.852 3.863-1.86 7.69-2.8 11.553-3.786-.22-4.588-.84-4.623-4.148-.02-1.894.14-3.83.525-5.68 2.832-13.574 5.812-27.117 8.597-40.7 1.342-6.55 2.365-13.167 3.532-19.753-.25-.917-.577-1.823-.74-2.756-1.082-6.26-2.185-12.52-3.174-18.794-.815-5.17-1.48-10.364-2.213-15.546-.866-4.52-1.743-9.038-2.595-13.56-.62-3.287-1.14-6.594-1.844-9.862-.218-1.01-.896-1.92-1.374-2.895-1.886 1.053-1.625 2.54-1.402 3.94.675 4.247 1.39 8.49 2.134 12.726 2.667 15.216 5.355 30.43 8.018 45.647.1.57.012 1.174.012 2.08-2.205-.83-4.134-1.47-5.73-2.837l-11.934-5.48c-1.628-.61-3.326-1.083-4.86-1.873-1.08-.557-2.142-1.395-2.867-2.365-4.048-5.41-9.347-9.067-15.687-11.164-2.094-.692-3.518-1.888-4.915-3.493-4.81-5.533-9.988-10.718-15.874-15.125-7.875-5.898-16.776-9.634-26.225-12.163-4.142-.227-8.296-.776-12.426-.626-17.08.622-31.085 7.885-42.283 20.563-9.33 10.564-15.67 22.9-20.322 36.13-5.733 16.305-10.184 32.955-13.35 49.948-.964 5.18-2.03 10.34-3.05 15.51l-1.926 10.394c-.698 5.056-1.39 10.112-2.094 15.167-.572 4.113-1.158 8.224-1.75 12.427-5.322 5.974-7.873 13.38-9.297 21.112-1.355 7.372-2.072 14.867-2.97 22.32-.86 7.15-1.117 14.338-1.1 21.538.002.59-.11 1.18-.19 1.974-1.94-.148-2.73-1.467-3.726-2.34-6.727-5.907-13.346-11.937-20.124-17.785-10.17-8.774-20.525-17.35-31.528-25.057-14-9.806-28.052-19.55-43.14-27.693-11.584-6.25-23.786-10.906-36.295-14.832-8.09-2.54-16.326-4.415-24.794-5.257-11.564-1.15-23.048-.735-34.224 2.482-15.677 4.513-29.32 12.636-40.357 24.74-5.988 6.565-10.474 14.105-12.504 22.9-.694 3.006-2.02 5.502-4.253 7.79-5.075 5.198-7.387 11.848-8.837 18.834-1.62 7.8-1.724 15.54.856 23.186.304.9.538 1.823.865 2.947-1.3 2.434-2.628 4.974-4.01 7.484-2.466 4.48-4.995 8.923-7.437 13.414-.913 1.678-1.66 3.447-2.483 5.174 2.544-.245 5.085-.573 7.635-.72 10.574-.612 21.122-.01 31.617 1.17 16.062 1.808 31.892 4.905 47.44 9.373 11.524 3.312 22.845 7.193 33.844 11.983 1.31.57 2.652 1.16 3.81 1.98 1.874 1.33 2.384 3.285 1.546 4.973-1.032 2.075-2.7 2.95-5.016 2.44-1.39-.31-2.767-.754-4.077-1.312-23.525-10.014-48.026-16.435-73.317-19.937-3.25-.45-6.528-.68-10.95-1.13 1.71 1.17 2.443 1.706 3.21 2.19 4.6 2.894 9.244 5.72 13.806 8.672 18.557 12.01 35.87 25.686 53.088 39.505 18.62 14.945 36.3 30.883 52.486 48.458 8.36 9.076 16.376 18.405 22.36 29.282 2.23 4.054 4.313 8.19 6.472 12.283 1.182 2.242 2.232 4.597 4.562 5.843 1.897-.3 3.004-1.428 3.882-2.795.776-1.206 1.502-2.455 2.132-3.743 4.424-9.04 8.816-18.095 13.22-27.143.326-.667.365-1.618 1.877-1.506 1.74 2.536 3.65 5.28 5.518 8.05 1.16 1.723 2.202 3.528 3.406 5.218.816 1.146 1.61 2.433 3.427 2.582 1.045-1.29 1.416-2.745.737-4.37-.676-1.616-1.338-3.25-2.167-4.79-2.59-4.81-5.883-9.14-9.378-13.312-2.36-2.818-4.844-5.533-7.29-8.278-1.463-1.643-2.265-3.42-1.412-5.676 2.078-.837 3.86-.192 5.39 1.024 1.24.984 2.4 2.148 3.33 3.425 3.48 4.78 6.874 9.622 10.254 14.473 3.043 4.367 5.11 9.213 6.636 14.28.966 3.21 1.884 6.45 2.538 9.735 1.28 6.43 2.408 12.914 2.025 19.503-.55 9.45-2.058 18.772-5.328 27.68-3.686 10.036-7.73 19.94-11.573 29.92-1.203 3.127-2.265 6.308-3.39 9.464-.107.3-.223.603-.29.914-.348 1.58-.06 2.746.74 2.976 1.14.33 1.804-.492 2.382-1.188.812-.976 1.535-2.05 2.152-3.16 6.838-12.313 12.77-25.057 17.34-38.374 5.01-14.588 6.756-29.532 4.04-44.887-2.033-11.51-6.042-22.29-12.727-31.79-5.6-7.96-12.01-15.365-18.297-22.815-3.29-3.9-7.102-7.357-10.654-11.037-4.78-4.948-9.503-9.95-14.303-14.876-12.292-12.617-25.528-24.22-38.738-35.847-21.147-18.613-42.846-36.53-66.337-52.153-9.984-6.64-20.2-12.907-31.146-17.892-3.65-1.663-7.402-2.992-11.344-3.748-5.427-1.04-9.754.954-13.145 5.072-1.306 1.587-2.207 3.504-3.34 5.242-.298.458-.477 1.27-1.362.887-1.55-8.982-.345-14.99 1.463-21.68 1.644-6.09 5.07-10.954 9.754-15.06 1.432-1.254 3-1.708 4.84-1.562 4.05.323 7.893 1.464 11.387 3.457 5.69 3.245 11.352 6.56 16.833 10.138 12.192 7.96 23.775 16.78 35.42 25.507 23.69 17.753 46.937 36.04 68.5 56.38 13.495 12.732 27.117 25.328 40.63 38.038 3.726 3.504 7.408 7.075 10.863 10.842 4.537 4.947 8.927 10.038 13.202 15.214 5.295 6.408 10.496 12.9 15.573 19.48 4.516 5.854 7.934 12.385 10.78 19.18 2.543 6.077 4.39 12.412 4.41 19.04.018 5.422-.21 10.888-.923 16.255-.82 6.165-2.24 12.253-3.503 18.353-.844 4.076-.91 4.85.227 8.46 1.842.068 2.938-1.17 3.647-2.554.94-1.833 1.692-3.796 2.255-5.78 2.317-8.173 3.793-16.537 4.527-24.972 1.01-11.594-.057-22.996-4.812-33.826-2.19-4.985-4.54-9.897-7.676-14.352-3.955-5.62-8.092-11.112-12.183-16.635-4.495-6.068-10.015-11.206-15.206-16.636-7.073-7.4-14.016-14.942-21.416-22.003-13.307-12.698-26.84-25.163-40.42-37.572-7.908-7.23-15.892-14.402-24.196-21.166-11.53-9.39-23.29-18.507-35.136-27.5-12.86-9.765-25.717-19.56-39.39-28.19-4.59-2.896-9.27-5.685-14.08-8.188-5.733-2.98-11.846-4.785-18.428-4.48-.795.038-1.635.082-2.38-.132-.53-.15-.935-.732-1.46-1.175 2.993-8.17 6.982-15.585 12.89-21.834 10.117-10.703 22.275-18.09 36.495-22 15.85-4.355 31.717-3.432 47.418.55 21.845 5.542 42.19 14.682 61.35 26.53 7.362 4.553 14.12 9.92 21.073 15.034 17.288 12.714 33.735 26.44 49.665 40.797 11.41 10.282 22.677 20.733 32.632 32.47 7.138 8.416 14.043 17.03 21.068 25.54 5.513 6.68 10.395 13.802 14.57 21.375 5.337 9.676 10.12 19.627 12.353 30.545 1.44 7.04 2.456 14.166 3.707 21.245.922 5.225 1.08 10.49.956 15.772-.28 11.99-.918 23.96-2.084 35.898-1.228 12.57-2.627 25.11-5.608 37.417-.454 1.877-.75 3.775.13 5.63 1.804-.606 2.74-1.948 3.478-3.654 2.423-5.595 3.602-11.52 4.768-17.443 1.012-5.142 1.29-10.43 3.072-15.418.272-2.858.608-5.71.806-8.575.572-8.292 1.156-16.584 1.607-24.883.435-7.987.72-15.98-.54-23.936-.75-4.735-1.367-9.492-2.197-14.212-1.356-7.716-3.028-15.36-5.94-22.673-5.84-14.655-13.615-28.182-23.613-40.408-6.075-7.43-12.037-14.953-18.25-22.262-4.763-5.6-9.805-10.967-14.794-16.372-2.275-2.463-4.72-4.77-7.16-7.22-.03-.557-.112-1.194-.09-1.828.45-13.42 1.12-26.82 2.882-40.152 1.118-8.447 2.824-16.67 6.79-24.333 2.65-5.126 4.418-10.543 4.88-16.403.335-4.237 1.274-8.425 1.946-12.652h.064s1.555-7.497 1.55-7.653c-.024-1.108.03-2.236.22-3.325.498-2.832 1.158-5.636 1.63-8.47 3.238-19.437 8.49-38.355 14.757-57 4.095-12.185 9.65-23.607 17.497-33.926 5.78-7.6 12.96-13.277 21.536-17.123 11.848-5.314 24.023-6.03 36.404-1.642 8.883 3.147 16.657 8.022 23.55 14.407 4.45 4.12 8.572 8.62 13.676 11.925.134.548.275 1.002.354 1.465 1.924 11.362 2.553 22.867 3.706 34.31.945 9.38 1.383 18.81 2.314 28.19 1.454 14.65 1.72 29.35 2.27 44.04.444 11.82.727 23.643 1.106 35.464.256 7.986.697 15.97.795 23.957.08 6.71-.16 13.426-.355 20.136-.3 10.225-.662 20.445-2.018 30.608-.548 4.113-.734 8.277-1.002 12.423-.052.814-.453 1.904.86 2.42.294-.352.738-.657.85-1.056 1.3-4.605 2.895-9.163 3.743-13.853 2.052-11.35 2.166-22.894 2.777-34.38.458-8.633.07-17.258-.34-25.886-.495-10.38-.784-20.767-1.154-31.152-.28-7.827-.567-15.654-.813-23.482-.226-7.193-.2-14.4-.645-21.578-.723-11.643-1.727-23.268-2.638-34.9-.362-4.62-.67-9.25-1.215-13.85-1.15-9.682-2.443-19.345-3.658-29.018-.085-.677-.01-1.374-.01-2.033.497-.04.684-.113.812-.055 7.482 3.386 12.12 9.196 14.195 17.04 3.024 11.442 5.193 23.076 7.077 34.742 2.677 16.573 4.524 33.268 5.67 50.015 1.103 16.1 2.272 32.2 2.02 48.377-.237 15.03.058 30.07.084 45.108.02 10.087-.87 20.124-2.118 30.116-1.864 14.92-4.825 29.653-8.552 44.208-4.248 16.59-9.45 32.86-17.92 47.89-1.02 1.81-2.01 3.64-2.874 5.525-1.264 2.754-2.44 5.55-3.578 8.36-.477 1.182-.507 2.398.315 3.482 3.39-1.5 3.535-1.402 5.102-3.683 2.62-3.813 5.21-7.665 7.504-11.678 7.023-12.29 11.567-25.596 15.494-39.113 3.972-13.67 6.754-27.605 9.077-41.648 2.486-15.02 3.958-30.12 4.042-45.328.05-8.952-.427-17.905-.64-26.86-.016-.697-.4-1.62.924-2.018 1.424 2.023 2.953 4.05 4.33 6.177 3.648 5.636 7.162 11.36 10.876 16.95 1.397 2.105 2.036 4.215 1.843 6.73-.477 6.215-.817 12.44-1.21 18.66-.172 2.71-.387 5.422-.493 8.136-.07 1.755.18 3.455 1.745 4.725 1.88-.45 2.574-1.924 3.01-3.434.488-1.68.816-3.43.98-5.173.4-4.296.687-8.604.98-12.91.174-2.553.132-5.128.458-7.66.197-1.533.776-3.066 1.462-4.463.255-.52 1.35-.96 1.978-.87.653.097 1.34.788 1.758 1.395.323.47.356 1.213.336 1.83-.057 1.756-.155 3.515-.328 5.264-1.165 11.766-2.573 23.494-4.398 35.187-2.847 18.24-7.447 35.947-14.654 52.96-6.103 14.404-11.5 29.162-21.18 41.75-.922 1.197-1.4 2.504-1.005 4.03 2.694.503 4.55-1.07 6.39-2.62 3.483-2.933 5.904-6.664 8.08-10.62 4.71-8.564 8.247-17.652 12.07-26.614 6.287-14.732 11.415-29.833 14.336-45.623.93-5.024 1.356-10.186 2.763-15.068 1.835-6.362 2.665-12.84 3.21-19.346 1.437-17.22 1.866-34.49 1.05-51.752z"/></g></g><g id="lines"><path d="M92.465 104.32c1.513-2.847 3.653-5.19 5.867-7.376 3.29-3.252 6.877-6.204 10.28-9.346 1.637-1.51 3.13-3.178 4.71-4.75 1.356-1.347 2.538-3.05 4.16-3.91 4.15-2.192 7.552-5.357 11.278-8.09 4.367-3.2 8.47-6.77 12.872-9.92 2.705-1.937 5.582-3.91 8.69-4.946 5.48-1.826 10.573-4.494 15.94-6.533 1.64-.623 3.262-1.31 4.942-1.794.42-.122 1.36.323 1.476.692.133.422-.255 1.19-.65 1.556-.57.527-1.327.88-2.048 1.212-1.596.734-3.222 1.402-4.83 2.11-5.968 2.63-11.74 5.68-17.68 8.373-1.57.71-2.91 1.93-4.334 2.945-1.686 1.203-3.344 2.444-5.023 3.657-.775.56-1.623 1.03-2.35 1.642-5.005 4.22-9.992 8.437-15.798 11.595-1.468.798-2.545 2.35-3.735 3.618-1.632 1.74-3.034 3.73-4.827 5.274-5.2 4.483-10.53 8.81-15.843 13.16-.79.648-1.535 1.765-3.097.828zM607.88 843.987c1.436-.117 3.53-.117 5.553-.49 3.007-.556 5.99-.938 9.04-.52 2.847.393 5.478-.307 7.643-2.104 3.358-2.787 7.31-3.96 11.47-4.365 5.674-.553 9.616-3.623 13.283-7.695 4.345-4.825 7.305-10.418 10.202-16.108.643-1.263 1.376-2.524 2.306-3.575.39-.442 1.446-.536 2.11-.39.33.074.722 1.1.627 1.608-.232 1.236-.608 2.48-1.153 3.613-.828 1.724-1.877 3.34-2.778 5.03-.976 1.83-1.868 3.705-2.84 5.538-.52.98-1.013 2.01-1.718 2.85-2.15 2.566-4.406 5.04-6.602 7.568-2.833 3.26-6.364 5.277-10.62 6.01-1.416.245-2.836.47-4.257.68-2.583.38-4.87 1.356-6.955 2.98-3.287 2.557-6.856 3.793-11.185 2.7-2.088-.528-4.46-.307-6.642.006-2.9.417-5.736.258-8.58-.17-.92-.14-1.893-.457-2.652-.97-.57-.386-1.203-1.248-1.154-1.844.073-.907 1.065-1.022 1.9-.9.79.114 1.57.284 3 .55zM813.95 686.906c.424-1.363.43-2.468.986-2.996 3.5-3.326 5.213-7.65 6.7-12.024 2.566-7.55 5.64-14.942 7.177-22.826.394-2.025 1.073-4.022 1.852-5.94 2.48-6.096 4.142-12.398 5.11-18.9.2-1.35.074-2.98 2.196-3.575.38.766 1.095 1.552 1.1 2.343.018 2.06.008 4.192-.492 6.168-2.506 9.9-5.026 19.802-7.84 29.617-1.58 5.515-3.53 10.95-5.722 16.253-1.264 3.06-3.205 5.876-5.1 8.622-1.17 1.69-2.837 3.025-5.966 3.258zM842.362 647.533c.444 1.034.91 1.594.867 2.114-.153 1.887-.228 3.837-.782 5.624-1.36 4.392-2.952 8.71-4.49 13.045-.477 1.345-.976 2.702-1.653 3.952-.594 1.098-1.338 2.168-2.22 3.044-.867.86-1.847 1.86-3.318 1.368-.91-.303-.746-1.633.183-3.842 1.536-3.655 2.928-7.37 4.432-11.038 1.566-3.82 3.147-7.636 4.828-11.406.412-.926 1.237-1.668 2.152-2.86zM630.308 860.748c-2.137.15-4.126-.122-5.673-1.82-.56-.616-.394-1.732.383-1.97.744-.228 1.527-.444 2.296-.454 6.992-.096 13.45-2.068 19.54-5.41.963-.528 1.98-1.017 3.032-1.296.513-.136 1.537.1 1.674.436.26.635.2 1.513-.02 2.196-.18.554-.735 1.032-1.217 1.432-.73.606-1.49 1.214-2.326 1.648-5.556 2.88-11.406 4.792-17.69 5.238zM126.727 63.59c-1.168 1.16-2.2 2.31-3.363 3.307-2.06 1.764-4.2 3.433-6.304 5.143-.124.1-.223.233-.35.328-2.028 1.517-4.187 2.89-6.052 4.585-1.757 1.6-3.438 3.236-5.396 4.448-1.083-.825-.73-1.664-.258-2.215 2.168-2.532 4.213-5.172 7.175-6.937 1.9-1.134 3.58-2.64 5.353-3.986 1.65-1.254 3.258-2.56 4.94-3.766 1.2-.857 2.55-1.323 4.254-.905z"/></g><g id="soundwave"><path d="M620.042 464.704c-1.34-2.35-2.703-4.69-4.012-7.056-1.1-1.987-2.446-3.763-4.314-5.07-2.75-1.924-5.93-.882-6.78 2.352-.523 1.994-.725 4.09-.88 6.157-.182 2.39-.038 4.804-.25 7.188-.228 2.538-.442 5.13-1.13 7.564-1.833 6.505-7.524 8.156-12.52 3.607-1.616-1.47-2.826-3.452-3.984-5.345-3.585-5.86-6.984-11.837-10.602-17.676-1.758-2.836-3.646-5.638-6.366-7.64-1.417.316-1.302 1.432-1.204 2.306.533 4.76.978 9.543 1.8 14.257 1.07 6.136 2.505 12.208 3.704 18.324.552 2.82 1.126 5.664 1.3 8.52.144 2.36.015 4.825-.523 7.118-1.092 4.656-4.922 6.52-9.185 4.412-2.098-1.037-4.06-2.6-5.67-4.316-2.616-2.79-4.858-5.93-7.322-8.868-1.95-2.325-3.954-4.607-6.02-6.828-.598-.643-1.493-1.01-2.364-1.575-1.115 1.83-.52 3.402-.356 4.915.308 2.868.573 5.718.044 8.596-.45 2.443-1.424 4.608-3.327 6.2-.81.68-1.9 1.213-2.935 1.377-.834.133-1.958-.15-2.62-.673-.867-.688-.308-1.758.04-2.65.057-.15.096-.317.19-.44 3.022-3.867 3.146-8.177 2.156-12.758-.33-1.53-.263-3.203-.075-4.774.682-5.705 5.548-8.223 10.478-5.364 1.632.946 3.164 2.22 4.42 3.63 2.864 3.222 5.513 6.636 8.285 9.942 1.744 2.08 3.52 4.137 5.348 6.145.612.672 1.307 1.446 2.608.997.125-.306.432-.714.433-1.124.007-1.915.05-3.843-.15-5.742-.2-1.902-.534-3.814-1.05-5.653-2.3-8.172-3.706-16.524-5.05-24.885-.635-3.942-1.3-7.93-.466-11.915.32-1.526.863-3.104 1.7-4.402 1.58-2.447 4.035-3.14 6.697-2.008 1.297.552 2.6 1.317 3.598 2.295 1.818 1.783 3.655 3.635 5.05 5.745 3.79 5.727 7.368 11.594 10.993 17.428 1.096 1.763 2.004 3.646 3.134 5.386.576.887 1.454 1.58 2.505 2.686.544-.958 1.107-1.548 1.213-2.212.328-2.042.542-4.108.688-6.173.25-3.505.315-7.026.655-10.52.152-1.565.593-3.164 1.225-4.607 2.8-6.4 10.295-8.554 16.024-4.578 1.552 1.078 2.87 2.525 4.175 3.915.974 1.037 1.755 2.256 2.62 3.394-.64 3.464-1.283 6.93-1.925 10.394z"/><path class="st0" d="M627.05 470.784c3.316 1.327 6.294-.646 8.483-3.3 1.318-1.6 2.528-3.296 3.687-5.016.802-1.188 1.39-2.52 2.16-3.733.68-1.075 1.39-2.16 2.25-3.09 2.027-2.188 3.763-2.114 5.56.145.495.623.893 1.324 1.353 1.976.55.783 1.046 1.622 1.697 2.315 3.482 3.71 7.617 2.84 10.68.25.6-.506.87-1.69.86-2.56-.01-1.04-.876-1.694-1.936-1.78-1.557-.13-3.122-.154-4.82-.23-.862-1.27-1.7-2.625-2.655-3.894-4.054-5.392-10.025-5.95-14.85-1.23-1.574 1.542-2.762 3.498-4.026 5.334-1.448 2.104-2.728 4.324-4.196 6.413-.53.754-1.346 1.342-2.118 1.88-.546.38-6.8-9.33-7.212-9.954l-1.926 10.394c.7.864 3.347 4.614 7.01 6.08z"/></g></svg>