<?xml version="1.0" encoding="utf-8"?>
<!-- Generator: Adobe Illustrator 22.0.1, SVG Export Plug-In . SVG Version: 6.00 Build 0)  -->
<svg version="1.1" id="Layer_1" xmlns="http://www.w3.org/2000/svg" xmlns:xlink="http://www.w3.org/1999/xlink" x="0px" y="0px"
	 viewBox="0 0 410.7 272.7" style="enable-background:new 0 0 410.7 272.7;" xml:space="preserve">
<style type="text/css">
	.st0{fill:#041620;}
</style>
<g>
	<path class="st0" d="M136.6,67.1c4.4-5.8,8.6-11.3,13.3-17.5c-19.7,5.6-33.9-0.2-43.2-18c-9.4,17.7-23.4,23.7-43.1,18
		c4.8,6.3,8.8,11.6,13,17.1C96.9,53.6,116.8,55.1,136.6,67.1z"/>
	<circle class="st0" cx="106.6" cy="22.7" r="5"/>
	<circle class="st0" cx="58.8" cy="45.1" r="5"/>
	<circle class="st0" cx="154.2" cy="45.1" r="5"/>
</g>
<path class="st0" d="M398.8,187.1c-7.8-8.2-16.1-1.2-27.6,18.5c-7,12-7,12-18.5,19.6c-18.4,12.1-17.7-8-12.9-24.6
	c5.7-20,24.1-63.7,24.1-63.7s-5.8-25.1-28-6.8c-20.3-4.8-35.7-11.6-57,8.7c-19.3,21.4-25.1,61.8-25.1,61.8s-13.6,32.7-24.9,24.6
	c0,0-8.2-3.6,2.6-34.2c22.5-63.6,36.7-108.2,36.7-108.2s1-10.6-11.6-13.5c-12.6-2.9-16.5,4.6-19.3,10.6
	c-4.4,9.4-43.5,122.7-43.5,122.7s-5.8,25.1-22.2,23.2s-6.8-18.3-4.8-23.2c1.9-4.8,39.1-111.8,39.1-111.8s5.9-15.8-9.4-21.8
	c-14.2-4-20.1,4.2-23,16.8c-2.9,12.6-33.8,105.3-33.8,105.3s-15.5,30.9-42.5,34.8s-53.1-6.8-49.3-36.2c5.9-20.5,26.1-22.7,34.8-17.9
	c8.7,4.8,26.2,6.2,34.8-7.5c8-16.5,0.5-26.4-7.8-27.3c0,0-43.6-0.6-25.3-35.4c9.4-12.2,29.1-14.8,35.9,0.6
	c6.8,15.4,10.6,16.2,26.1,12.9s6.2-25,0-34.2c-7-10.4-53.1-35.7-86.9,6.8c-14.5,21.2-14.5,42.5,0,53.1C36.3,142.7-0.3,173.7,18,220
	c11.6,25.1,60.9,53.1,114.9,15.4c12.6,20.3,42.5,29,65.7,4.8c22.2,22.2,53.1,11.6,59.9-1.9c6.8,28,42.5,15.5,52.2,1
	c12.6,21.2,32.8,19.3,46.4,10.6C371.7,240.2,406.7,195.5,398.8,187.1z M318.8,172.6c0,0-9.1,24.3-13.4,35.9s-6.9,13.4-14.1,14.5
	c-10.9-2.2-8.3-10.9-8.3-10.9s11.6-33.7,16.7-43.8c5.1-10.1,9.1-9.4,9.1-9.4C323.9,158.9,318.8,172.6,318.8,172.6z"/>
</svg>
