<svg xmlns="http://www.w3.org/2000/svg" viewBox="0 0 1780 1500"><style>.st0{fill:#FFFFFF;}</style><path class="st0" d="M1004.7 1202.7c-6.1-1.3-12.1-3.8-18.5-4.7-2 4.1-3.6 8-6.5 11.6-7.5-3.2-14.7-7-23-8.5-1.1 2-1.2 4-1.6 6-1.7 8-3.5 15.9-5.3 23.9-.1.5-.4.9-.6 1.3-317.3 144.7-687.2 6.8-832.6-309.2-141.6-312.9-8-680.5 306-827.9C736.7-49.8 1108 84 1255.7 401c138.2 302.9 16.7 646.3-251 801.7zm-3-6c1.3-.7 2.4-1.3 3.4-2 16.6-9.9 32.7-20.7 48.3-32.1 30.6-22.5 59-47.6 85-75.4 31.3-33.4 58.6-69.7 81.9-109.1 18.1-30.6 33.4-62.5 46-95.8 10.9-28.9 19.6-58.4 26.1-88.6 3.3-15.3 6-30.7 8.1-46.3 1.4-10.1 2.3-20.3 3.3-30.5 1.5-14.6 2-29.3 2.3-44.1.2-9.4-.2-18.9-.3-28.3-.3-18.2-1.8-36.4-3.9-54.5-2.1-17.9-5-35.8-8.7-53.5-6.7-32.6-16.1-64.4-28.1-95.5-17.6-45.7-40.3-88.7-68.1-129-31.1-45-67.4-85.3-109.1-120.7C1025.4 138.2 955.1 99 877 73.7c-22.1-7.1-44.5-13-67.2-17.6-17.2-3.5-34.6-6.2-52.1-8.2-13.4-1.5-26.7-2.7-40.1-3.3-16.5-.7-32.9-.9-49.4-.4-14.9.4-29.7 1.4-44.5 2.9-18 1.8-35.8 4.4-53.6 7.8C547 59.3 524.3 65 501.8 72c-36.2 11.3-71.1 25.9-104.7 43.6-51.6 27.4-98.4 61.4-140.4 101.9-23.4 22.6-44.9 46.9-64.5 72.8-36.7 48.7-65.7 101.6-86.8 158.9C94 480 85.2 511.5 78.9 543.7c-2.3 11.6-4.2 23.3-5.8 35-1.5 10.4-2.3 21-3.4 31.5-1.5 14-1.9 28.1-2.2 42.1-.2 10.1.2 20.1.3 30.2.2 12 1 24 2.1 35.9 1.5 17.2 3.8 34.3 6.7 51.3 3.2 18.6 7.2 37 12.1 55.2 11.3 41.8 26.8 81.9 46.5 120.5 32.7 63.8 75.3 120.2 127.4 169.4 22.8 21.5 47.3 41.2 73.1 59 57.9 39.8 120.8 69 188.7 87.5 15.6 4.2 31.3 7.9 47.2 10.8 11.3 2.1 22.7 3.8 34.1 5.3 11.2 1.5 22.6 2.5 33.9 3.5 7.5.6 15 .7 22.5 1.2 13.1.9 26.2.8 39.3.5 17.4-.4 34.8-1.3 52.1-3.5 12.7-1.6 25.4-3.1 38-5.2 18.9-3.1 37.6-7.3 56.2-12.3 32-8.6 63.1-19.6 93.3-33.3 1.1-.5 2.2-1.2 3.2-1.7.5-2.5 1-4.7 1.4-6.9 1.3-7.1 2.6-14.1 4-21.2.9-4.6 3.4-5.7 7.7-4.8 1.1.2 2.1.7 3.2 1.1 2.7 1 5.4 2 8.1 2.9 3.2 1.1 6.3 2.1 9.5 2.7 1.5-1.7 1.7-3.6 2.2-5.4.9-3.1 2.4-4.1 5.7-3.8 3.2.3 6.2 1.5 9.2 2.7 2.1.9 4.3 1.8 6.5 2.8z"/><path d="M1001.7 1196.7c-2.2-.9-4.4-1.9-6.6-2.8-3-1.2-5.9-2.4-9.2-2.7-3.2-.3-4.8.6-5.7 3.8-.5 1.8-.7 3.7-2.2 5.4-3.2-.6-6.4-1.6-9.5-2.7-2.7-.9-5.4-1.9-8.1-2.9-1.1-.4-2.1-.9-3.2-1.1-4.3-.9-6.8.2-7.7 4.8-1.4 7.1-2.6 14.1-4 21.2-.4 2.2-.9 4.4-1.4 6.9-1 .5-2 1.1-3.2 1.7-30.2 13.7-61.3 24.7-93.3 33.3-18.5 5-37.2 9.2-56.2 12.3-12.6 2.1-25.3 3.6-38 5.2-17.3 2.2-34.7 3.1-52.1 3.5-13.1.3-26.2.5-39.3-.5-7.5-.5-15-.6-22.5-1.2-11.3-1-22.6-2.1-33.9-3.5-11.4-1.5-22.8-3.2-34.1-5.3-15.9-2.9-31.6-6.6-47.2-10.8-67.9-18.5-130.7-47.6-188.7-87.5-25.9-17.8-50.3-37.4-73.1-59-52.1-49.2-94.7-105.5-127.4-169.4-19.8-38.5-35.3-78.7-46.5-120.5-4.9-18.2-9-36.6-12.1-55.2-2.9-17-5.2-34.1-6.7-51.3-1.1-11.9-1.9-23.9-2.1-35.9-.2-10.1-.5-20.2-.3-30.2.3-14.1.8-28.1 2.2-42.1 1.1-10.5 2-21 3.4-31.5 1.6-11.7 3.6-23.4 5.8-35 6.3-32.2 15.1-63.7 26.5-94.5 21.1-57.2 50.1-110.2 86.8-158.9 19.6-26 41.1-50.3 64.5-72.8 42.1-40.5 88.9-74.6 140.5-101.9 33.5-17.8 68.4-32.3 104.7-43.6 22.4-7 45.2-12.7 68.3-17.1 17.8-3.4 35.6-6 53.6-7.8 14.8-1.5 29.6-2.4 44.5-2.9 16.5-.5 33-.3 49.4.4 13.4.6 26.8 1.8 40.1 3.3 17.5 2 34.8 4.7 52.1 8.2 22.7 4.6 45.1 10.4 67.2 17.6 78.1 25.3 148.3 64.6 210.9 117.7 41.7 35.4 78 75.7 109.1 120.7 27.8 40.3 50.5 83.3 68.1 129 12 31.1 21.3 62.9 28.1 95.5 3.7 17.7 6.6 35.5 8.7 53.5 2.1 18.1 3.6 36.3 3.9 54.5.2 9.4.5 18.9.3 28.3-.3 14.7-.8 29.4-2.3 44.1-1 10.2-1.9 20.4-3.3 30.5-2.1 15.5-4.8 30.9-8.1 46.3-6.5 30.2-15.2 59.7-26.1 88.6-12.6 33.3-27.9 65.2-46 95.8-23.3 39.4-50.6 75.8-81.9 109.1-26 27.7-54.3 52.9-85 75.4-15.6 11.5-31.7 22.2-48.3 32.1-1.1.6-2.2 1.2-3.4 1.9zM469.6 663.2c.2 120.3 97.4 217.1 217 217 122 0 217.3-99.7 217-217.5-.2-117.4-95.4-216.5-217-216.5-119.4-.1-216.9 96.5-217 217z"/><path class="st0" d="M469.6 663.2c.2-120.4 97.7-217.1 217.1-217 121.6.1 216.8 99.2 217 216.5.2 117.8-95 217.4-217 217.5-119.8 0-217-96.7-217.1-217zm228.8.4c0-7-4.8-12.9-12.4-13.1-7.3-.2-12.6 5.3-13 12-.4 7 5.1 13.1 12.1 13.4 5.6.3 12.6-3.5 13.3-12.3zm-10.6-21.4c-2.1-2.1-4.1-2.6-6.2-2.4-6.4.6-11.5 3.4-15 8.9-1 1.5-1.6 3.2-1.1 5 .3.9.7 1.8 1.9 1.7.2-.2.5-.4.6-.7 2.3-5 6.4-7.8 11.5-9.3 2-.6 4-1.2 5.9-1.8.8-.3 1.4-.8 2.4-1.4zm-.8 43c.9 2.1 2.5 2.4 4.1 2.2 3.7-.3 7.1-1.5 9.8-4.3 1.4-1.4 2.2-3.1 2.4-5 0-.8-.5-1.6-.9-2.6-3.4 1-4.5 4.4-7.2 5.7-2.7 1.3-5.4 2.6-8.2 4z"/><path d="M698.4 663.6c-.6 8.8-7.7 12.5-13.3 12.3-7-.3-12.6-6.5-12.1-13.4.4-6.7 5.8-12.2 13-12 7.5.2 12.4 6.1 12.4 13.1zm-16-5.7c-.3 2-.1 3.8 1.3 5 1.1.9 1.4 2 1.8 3.2.3 1.1 1 2.2 1.5 3.2 2-.2 3.4-.8 4.3-2.6-1-1.1-2.1-2.2-2.9-3 .9-2 1.7-3.7 2.5-5.3-3.1-2.6-5.8-2-8.5-.5zM687.8 642.2c-1 .6-1.6 1.1-2.3 1.3-2 .7-4 1.2-5.9 1.8-5.1 1.6-9.2 4.4-11.5 9.3-.1.3-.4.5-.6.7-1.3.2-1.7-.8-1.9-1.7-.5-1.8.1-3.5 1.1-5 3.5-5.5 8.6-8.3 15-8.9 2-.1 4 .5 6.1 2.5zM687 685.2c2.8-1.4 5.4-2.6 8.1-4 2.7-1.3 3.8-4.7 7.2-5.7.3.9.9 1.7.9 2.6-.1 1.9-1 3.6-2.4 5-2.7 2.8-6.1 4-9.8 4.3-1.5.2-3.1-.2-4-2.2z"/><path class="st0" d="M682.4 657.9c2.8-1.5 5.5-2.1 8.4.5-.8 1.7-1.5 3.4-2.5 5.3.8.9 1.9 1.9 2.9 3-1 1.7-2.3 2.4-4.3 2.6-.5-1-1.1-2.1-1.5-3.2-.4-1.2-.7-2.3-1.8-3.2-1.4-1.2-1.5-3-1.2-5zM1038.8 193.7c3.7.3 5.8 1.6 7.8 3.2 13.4 10.7 26.3 21.8 38.8 33.6 32.8 31 61.7 65.2 86.8 102.8 22 32.9 40.4 67.7 55.4 104.4 3.3 8.1 6.3 16.4 9.4 24.6.4 1.2.7 2.4 1 3.7 0 .2-.2.6-.5.7-.2.1-.7.2-.9.1-.4-.2-.8-.6-1-.9-.7-1.3-1.3-2.6-1.9-3.8-6.3-12.9-12.5-25.9-18.7-38.8-1.5-3.2-2.9-6.4-4.4-9.6-5.9-13-12.6-25.4-20.1-37.5-4.7-7.6-9.2-15.4-13.7-23.1-9.2-15.6-19.3-30.5-30.6-44.6-10.3-12.9-20.5-25.8-31.5-38-10-11.1-20.3-21.7-31-32-2-1.9-3.7-4-5.7-5.9-7-6.8-14.1-13.5-21.1-20.3-5.4-5.3-10.6-10.6-15.9-16-.7-.7-1.1-1.3-2.2-2.6zM133.5 864.8c2.3.9 2.6 2.8 3.3 4.4 3.6 7.6 7.2 15.3 10.8 23 .6 1.3 1.2 2.6 1.9 3.9 6.4 13.1 12.4 26.3 19.2 39.1s14.5 25.2 21.9 37.7c6.3 10.8 12.7 21.5 19.9 31.6 9.8 13.9 20.5 27 31.2 40.1 14.2 17.3 29.7 33.5 45.8 49.1 13.8 13.4 27.4 26.9 41 40.4 1.1 1.1 2.4 2 2.8 3.9-3.1.1-5.2-1.6-7.3-3.3-8.1-6.8-16.3-13.4-24.2-20.4-44.6-39.3-82.4-84.4-113.4-135.1-21.3-34.7-38.8-71.2-52.4-109.6-.5-1.4-1.6-2.8-.5-4.8zM329.2 1088.3c-1.2-.4-2.1-.5-2.6-.9-4-3.1-8.2-6.1-12-9.5-15.8-14.5-30.3-30.2-44.3-46.5-13.3-15.6-26-31.5-37.6-48.5-14.4-21.2-27.3-43.2-38.7-66.1-3.7-7.5-6.4-15.3-8.9-23.2-.9-2.9-1.8-5.8-2.5-8.7-.4-1.5-.4-3.2-.5-4.7 0-.5.4-1.2.9-1.5.7-.4 1.2.2 1.5.8.5 1 1 2 1.4 3 23.2 55.4 54.8 105.6 94.5 150.8 3.4 3.8 6.6 7.8 9.9 11.7 9 10.8 19 20.7 29.1 30.5 2.4 2.3 4.7 4.8 7 7.3 1.4 1.2 2.6 2.7 2.8 5.5zM1187.6 453.6c-1.6-.4-1.8-1.8-2.3-2.9-2.6-5.8-5-11.7-7.7-17.5-22.2-48.4-50.9-92.6-85.9-132.7-2.8-3.2-5.6-6.5-8.4-9.9-9.9-12.2-21-23.3-32.3-34.1-2.4-2.3-4.7-4.8-7-7.3-1-1.2-1.7-2.7-2.5-4-.1-.2.1-.6.2-.8.2-.2.6-.4.8-.3.6.2 1.2.4 1.7.8 3.7 2.8 7.6 5.4 10.9 8.6 14.8 13.7 29 28 41.8 43.6 6.5 7.9 13.5 15.4 19.8 23.4 23 29.2 42.7 60.6 59.2 93.9 3.9 7.9 6.9 16.1 9.4 24.6 1.1 3.7 2 7.4 2.9 11.1.7 1.1.7 2.4-.6 3.5zM975.7 244.1c4.2.7 7.3 2.3 10.4 3.9 7.4 3.8 14.2 8.5 21.1 13.3 16.8 11.7 31.3 25.8 45.4 40.5 24.2 25.1 45.7 52.2 64.2 81.7 7.3 11.6 13.8 23.8 19.6 36.2.9 2 1.7 4.1 2.5 6.2.7 1.7.8 3.3.3 5-1.2.4-1.7-.3-2-1-2.3-4-4.6-8-6.9-12.1-7.9-13.7-15.9-27.4-23.9-41-6.2-10.7-13.3-20.7-20.9-30.4-11.9-15.1-24.4-29.6-38.1-43.1-1.5-1.5-3-2.9-4.5-4.3-11.2-9.8-21.3-20.8-32.9-30.1-9.2-7.4-18.6-14.6-28.6-21-1.8-1.1-3.5-2.3-5.7-3.8zM231.6 900.9c2.1.1 2.3 1.6 2.9 2.6 7.2 12.4 14.3 24.9 21.6 37.3 5.3 9.1 10.7 18.2 16.4 27 4.2 6.4 8.9 12.5 13.6 18.5 11.5 14.8 23.8 28.9 37.1 42 1.6 1.6 3.2 3.2 4.9 4.6 11.6 10.1 22 21.5 34 31 7.6 6.1 15.3 12.1 23.5 17.5 2.9 1.9 5.7 4 8.6 5.9-2.7-.4-5.2-1.2-7.7-2.5-18.2-9.7-34.4-22-49.4-36.1-32-30-59.9-63.5-83.2-100.6-7.5-11.9-14.2-24.3-19.9-37.1-.8-1.7-1.4-3.6-2.1-5.3-.7-1.5-.9-3.1-.3-4.8zM1092.3 444.4c-2.1-.8-2.7-2.6-3.5-4.1-2.7-4.7-5.2-9.5-7.9-14.2-11.9-21-25.9-40.7-40.7-59.8-17.7-22.8-37.2-43.8-57.8-64-2.2-2.1-4.5-4-6.8-6.1-1.8-1.7-2.3-3.4-1.3-4 1.6-1 2.7.2 3.8 1.1 13.7 11.3 26.5 23.5 38.4 36.8 18.9 21.1 36.5 43.2 52.1 66.9 7.9 12 14.8 24.6 20.6 37.8 1 2.3 1.9 4.7 2.7 7.2.3.7.3 1.5.4 2.4zM278.1 887.2c2.5 1.3 3.1 3 4 4.5 2.8 4.9 5.3 9.8 8.1 14.7 10.1 17.5 21.3 34.1 33.5 50.2 13.4 17.7 27.5 34.9 43 51 9.1 9.5 18 19.1 28 27.7.9.8 1.7 1.9 2.3 3 .5.7-.7 2.1-1.6 1.8-.9-.3-1.8-.7-2.5-1.3-9.9-8.6-20-17-29-26.6-18.7-19.8-36-40.7-51.9-62.9-11.4-15.9-21.6-32.4-29.6-50.3-1.2-2.8-2.3-5.6-3.4-8.5-.2-.8-.4-1.7-.9-3.3zM1063 437.7c-1.9 0-2.6-1.5-3.5-2.8-2.8-4.5-5.5-9-8.4-13.4-17.7-27.5-38.3-52.7-61.6-75.7-2.4-2.4-4.8-4.7-7.1-7.1-.6-.7-1.2-1.4-1.7-2.1.7-1.6 1.9-1.6 2.9-1.2 1.2.4 2.3 1.2 3.3 2 12 9.6 23.7 19.5 33.2 31.7 12 15.3 24.8 30.1 34.9 46.9 2.6 4.4 5 8.9 7.4 13.4.7 1.3 1.1 2.7 1.5 4 .6 1.6.6 1.6-.9 4.3zM390.3 995.1c-1 1.7-2.1 1.9-3.2 1.4-1.2-.5-2.3-1.2-3.2-2-12-9.6-23.7-19.5-33.3-31.7-12.1-15.5-25-30.4-35.1-47.3-2.5-4.1-4.7-8.3-7-12.5-.7-1.4-1.2-2.9-1.6-4.5-.2-.9-.1-1.9 0-2.8.1-.5.6-1.2 1-1.4.5-.1 1.4.1 1.7.5 1 1.2 1.9 2.6 2.7 3.9 12.4 20.6 26.4 40 41.9 58.3 9.7 11.5 20.1 22.3 30.9 32.8 1.7 1.8 3.4 3.5 5.2 5.3zM1078.8 510.3l-1.5-3.9c-7-18.2-15.6-35.7-24.7-52.9-14.1-26.5-31.3-50.8-50.8-73.6-1.3-1.6-2.8-3-4.3-4.5-1-1-2.1-2-3-3.1s-2.2-2-1.8-3.7c.3-.9 1.9-.5 4 1.4 2.9 2.5 5.8 5 8.3 7.9 10.5 12.1 20.9 24.2 30 37.4 17.7 25.8 32.2 53.2 42.3 82.9.8 2.4 1.4 4.9 2.1 7.4.4 1.5.5 3-.6 4.7zM291.9 821.4c9.6 25.1 21.3 48.8 34.7 71.7 12.2 20.9 26.6 40.2 42.3 58.6 2 2.3 4.2 4.4 6.3 6.6 1.1 1.2 2 2.5 2.9 3.8.2.3.1 1-.2 1.3-.2.3-.9.4-1.2.3-.7-.3-1.4-.8-2-1.3-3.1-2.8-6.4-5.4-9.1-8.5-10.4-12.1-20.9-24.2-30-37.4-17.4-25.2-31.5-52.1-41.6-81.1-1.2-3.5-2-7.1-2.9-10.6-.2-1-.6-2.2.8-3.4zM430.2 966.9c-2.9-.2-4.9-1.4-6.7-3-9.8-9.1-19.4-18.6-28.2-28.7-4.9-5.6-9.8-11.4-14.5-17.2-9.7-11.9-18-24.8-25.2-38.4-1-2-1.8-4.1-2.8-6.1-.6-1.3-.7-2.7-.6-4.1 1.2-.5 1.6.4 2 .9 2.7 3.8 5.4 7.5 7.9 11.4 11.6 17.7 23.7 34.8 37.6 50.8 7.5 8.7 15.6 16.9 23.5 25.3 1.7 1.9 3.5 3.7 5.1 5.7.7.9 1.1 2.1 1.9 3.4zM1054.5 349.2c2.4-.9 3.6.3 4.7 1.4 2.9 2.7 6 5.4 8.5 8.4 4 4.8 7.7 9.8 11.4 14.8 2.5 3.3 4.9 6.7 7.3 10.1 7.7 10.8 15.4 21.6 23 32.5 4.2 6 8 12.3 11 19.1 1 2.2 1.8 4.5 2.4 6.7.5 1.7.3 3.5-1.1 4.9-.6.6-1.6.6-2.1 0-.5-.7-.8-1.3-1.2-2-2.1-3.9-4.3-7.8-6.4-11.8-.7-1.4-1.1-3-1.9-4.3-3.2-5.5-6.4-11.1-9.8-16.4-11-16.9-23-33.1-35.4-48.9-2.4-3-5-5.9-7.4-8.8-.9-1.1-1.7-2.3-2.4-3.5-.3-.8-.4-1.4-.6-2.2zM316.5 982.8c-1 .1-1.8.4-2.3.2-1.2-.7-2.4-1.6-3.5-2.5-6.4-5.6-11.8-12.1-16.8-19-5.7-7.9-11.2-15.9-16.9-23.9-5.1-7.2-10.2-14.3-15.2-21.5-4.5-6.4-8.6-13.1-11.7-20.3-.9-2-1.6-4.2-2.2-6.3-.5-1.6-.1-3.1.9-4.5.6-.8 2-.9 2.4-.1.6.9 1 2 1.6 3 1.9 3.5 4 6.9 5.7 10.5 8.7 18.6 21.3 34.8 33.2 51.3 6.4 8.8 12.9 17.4 20.1 25.6 1.8 2.2 3.7 4.3 4.7 7.5zM1018.2 463.1c-1.7-1.4-2.7-3-3.8-4.5-3.9-5.7-7.7-11.4-11.5-17.1-9.7-14.5-20.1-28.4-31.4-41.7-7.7-9-15.8-17.6-24.2-26-2.5-2.5-4.9-5-6.7-8.4 2.1-.5 3.5.5 4.9 1.3.9.6 1.7 1.4 2.5 2.2 17.9 16.5 34.3 34.4 48.8 54 7.3 9.8 13.6 20.1 19.1 31 .8 1.6 1.6 3.2 2.1 4.8.6 1.2 1 2.6.2 4.4zM927.6 392.1c2.3 1.2 3.7 3 5.3 4.5 20.9 20.1 39.3 42.3 54.9 66.8 1.5 2.3 3 4.5 4.3 6.9.8 1.5 1.7 3.1.6 5-2.4-.5-3.8-2.3-5.1-4-3.6-4.6-7.3-9.3-10.7-14.1-11.4-15.8-23.2-31.2-36.1-45.9-2.6-3-5.4-5.9-7.9-9-1.7-2.1-3.2-4.4-4.7-6.6-.4-.6-.6-1.4-.9-2.2 0-.2.2-.6.3-1.4zM443.3 939.5c-2.1-.4-2.9-1.9-4.1-3-21.6-20.5-40.6-43.4-56.6-68.5-1.5-2.3-3-4.5-4.3-6.9-.7-1.3-1.5-2.8-.3-4.6 2.3.8 3.8 2.4 5.1 4.2 3.5 4.5 7.1 9.1 10.4 13.7 11.9 16.5 24.2 32.5 37.6 47.8 2.2 2.5 4.5 4.9 6.6 7.6 1.8 2.2 3.4 4.6 4.9 7.1.6.6.5 1.6.7 2.6zM328.7 1001.8c2-.1 2.8 1.2 3.8 2.2 4.1 4.2 8.3 8.4 12.4 12.7 12.9 13.3 27 25.3 41.5 36.9 3.7 3 7.5 5.9 11.3 8.9.9.8 2.2 1.5 1.6 3.2-2.1.8-4.1-.1-5.9-1.1-2.9-1.6-5.9-3.3-8.5-5.3-17.6-13.1-33.9-27.6-48.3-44.2-2.2-2.5-4.3-5.2-6.3-7.8-.8-1-1.4-2.1-1.9-3.3-.2-.7.2-1.5.3-2.2zM1042 330c-1.7.2-2.5-1-3.5-2-4-4.1-8.1-8.2-12.1-12.3-15.4-15.9-32.4-30-49.8-43.5-1.5-1.2-3-2.4-4.4-3.7-.5-.5-.6-1.3-.9-2 2.5-1 4.4-.1 6.2.9 2.8 1.5 5.6 3.1 8.1 5 18.3 13.6 35.2 28.7 50 46 2.1 2.4 4 5 5.8 7.6 1 1.4.9 1.5.6 4z"/><path class="st0" d="M1129.9 317.1c3.3 2.7 5.9 5.9 8.5 9 8.2 9.7 15.7 19.8 22.6 30.4 7.4 11.2 14.7 22.5 20.8 34.5 4.3 8.5 8.4 17.2 11.7 26.2.7 2 1.7 4 1.5 7.3-1.7-3.3-3.1-5.8-4.3-8.3-7.5-16.4-16.4-32.1-26-47.4-8.6-13.5-17.9-26.4-27.1-39.6-2.6-4-5.1-8.1-7.7-12.1zM240.9 1014.6c-3.4-2.2-5.7-5.4-8.2-8.4-16.7-20.1-31.1-41.7-43.4-64.7-4.7-8.9-9-18-12.3-27.5-.5-1.5-.9-3-1.4-4.6-.1-.3.1-.6.3-1.3 1 1.8 1.9 3.3 2.6 4.9 11.7 25.6 26.4 49.6 42.5 72.6 5.8 8.2 11.4 16.6 17.1 24.8 1 1.4 1.9 2.8 2.8 4.2zM459.3 889.1c-2.2-.2-3.9-1.5-5.4-2.8-2.4-2.1-4.7-4.4-6.8-6.8-8.8-10.2-16.9-20.9-24.2-32.2-1-1.5-1.8-3-2.4-4.7-.6-1.3-.6-2.8.2-3.9 1.2-.6 1.8.2 2.3.7 1 1 2 2.1 2.8 3.3 8 11.2 16.6 22 25.4 32.5 2.1 2.6 4.2 5.3 6.1 8 1.6 2.4 1.6 2.4 2 5.9zM949.4 493.5c-1.8-.8-3-2.3-4.1-3.9-8.4-11.7-17.3-23-26.6-34-1.9-2.2-3.5-4.6-5.2-6.9-1.2-1.7-2-3.5-2.5-5.7.7 0 1.2-.1 1.6 0 3 1.2 5.5 3.4 7.6 5.7 3.5 3.9 7.1 7.8 10.3 12 5.9 7.8 11.5 15.7 17.2 23.6 1.3 1.8 2.4 3.8 2.8 6 .1 1 0 1.3-1.1 3.2zM467.1 857.9c-1.8-1.1-3.2-1.8-4.4-2.8-1.9-1.6-3.9-3.4-5.5-5.3-7.9-9.4-15-19.4-21.1-30.1-1.6-2.8-2.8-5.7-4.1-8.6-.6-1.4-1.2-3 .3-4.5 1.8.1 2.6 1.6 3.5 2.9 2.8 4 5.8 8 8.4 12.2 6.2 10.1 13 19.7 20.2 29 1.1 1.4 1.9 2.9 2.7 4.5.2.5 0 1.4 0 2.7zM903.5 474.3c1.3.5 2.2.8 2.9 1.2 2.8 1.8 5.2 4.2 7.4 6.8 7 8.4 13.3 17.2 18.9 26.4 2.4 3.9 4.2 8.2 6.2 12.4.6 1.3 1 2.7-.1 4-.9.5-1.6-.1-2.1-.7-1-1.1-1.9-2.2-2.7-3.3-3-4.5-6.1-9-9-13.5-5.8-9.2-12-18.1-18.8-26.5-1.4-1.8-2.6-3.6-2.7-6.8zM429.5 888.3c-.7-.3-1.3-.4-1.7-.7-2.2-1.8-4.4-3.7-6.6-5.5-3-2.4-5.7-5.1-8.1-8.1-7.3-9-13.3-18.7-18.5-29-.6-1.3-1.3-2.6-1.7-4-.3-1.1-.4-2.4-.5-3.6 1.4-.3 1.6.6 2 1.2 3 4.5 6 9.1 8.9 13.6 4.8 7.4 10 14.4 15.6 21.2 3.7 4.4 7 9.1 10.5 13.6.1.3 0 .6.1 1.3zM977.6 494.7c-.9-1.3-1.8-2.5-2.7-3.8-3.4-5.1-6.6-10.2-10.1-15.2-4.1-5.7-8.4-11.3-12.6-16.9-2.1-2.8-4.2-5.6-6.4-8.4l-3.6-4.5c-.4-.5-.7-1.2-1.1-2 .7 0 1.1-.2 1.2-.1 2.6 2.1 5.2 4.2 7.7 6.4 2.4 2.1 4.7 4.3 6.8 6.7 7.9 9.3 14.2 19.7 19.7 30.6 1.8 3.4 1.7 3.5 1.1 7.2zM376.6 1120.1c-2.9 1.3-5.3.4-7.3-.7-8.6-4.9-16.9-10.2-23.5-17.8-.5-.6-.9-1.3-1.3-2-.1-.2 0-.6 0-1.2.6 0 1.2-.2 1.7 0 1.2.5 2.3 1.1 3.4 1.8l20.4 13.2c2.5 1.7 4.8 3.6 6.6 6.7zM1026.8 234c-1.6-.4-2.4-.4-3.1-.7-1.9-1.1-3.8-2.3-5.7-3.5-5.5-3.5-11-7-16.4-10.7-2.3-1.6-4.3-3.7-6.5-5.6-.4-.4-.6-1-1-1.6 1.6-1 3-.6 4.3-.2 1.5.4 3.1.9 4.4 1.8 6.3 3.8 12.5 7.7 17.9 12.7 1.7 1.6 3.3 3.5 4.8 5.3.6.3.7 1 1.3 2.5zM469.8 802c1.2-.4 1.8.1 2.3.7 1.1 1.4 2.2 2.8 3.2 4.2 4.6 6.5 9.1 13 13.7 19.6.8 1.2 2 2.2 1.5 4.1-.7 0-1.6.3-2.1-.1-1.7-1.1-3.6-2.2-4.9-3.7-4.8-5.6-8.9-11.6-12.1-18.3-.7-1.6-1.3-3.3-1.8-4.9-.1-.5.2-1.2.2-1.6zM880.5 501.2c2.5-.1 4.3 1.1 5.6 2.7 6.1 6.8 11.3 14.2 14.6 22.9.4 1 .4 2.1.7 3.8-1.1-.5-2-.6-2.4-1.1-1.3-1.4-2.4-2.9-3.5-4.5-4.6-6.5-9.2-13-13.7-19.6-.9-1.2-2.2-2.2-1.3-4.2zM235.4 839.2c1.9.9 2.2 2.2 2.6 3.3 2.1 6.1 4.4 12.2 6.3 18.4.7 2.1 1.7 4.6-.2 6.9-2.3-.5-3.5-2.2-4.3-4.1-3.2-6.8-5-14-5-21.6 0-.9.3-1.8.6-2.9zM1126.6 463.8c2.8 1.4 4.1 3.3 5.1 5.5 2.5 5.9 3.8 12.1 4.5 18.4.2 1.6.1 3.2-1 4.7-.3-.1-.9-.2-1.1-.4-.7-1.2-1.3-2.5-1.8-3.9-1.9-5.5-3.9-11.1-5.6-16.7-.6-1.8-.7-3.7-.9-5.6 0-.5.4-1 .8-2zM366.9 834.1c2.7 1.7 3 4.4 4.2 6.6 1 1.8 1.7 3.7 1.4 6.2-3.6-1.5-5.1-4.4-6.3-7.5-.7-2.2-.7-2.3.7-5.3zM1004.2 497.5c-1.8-.1-2.4-1.4-2.8-2.5-1.2-3.1-3.6-6-3.2-9.9 3.7 1.5 5.1 4.5 6.3 7.5.7 1.6.9 3.4-.3 4.9zM875.7 494.1c-3.3-1.8-5.1-4.9-7.6-7.1.2-1.6 1.1-2.2 2.3-1.6 1.2.7 2.3 1.7 3.2 2.7 1.4 1.5 1.6 2.3 2.1 6zM502.9 845.1c-.8 1.4-1.5 1.9-2.6 1.4-3.4-1.8-5.1-4.5-5.3-8.4.5 0 .9-.1 1.1.1 2.2 2.3 4.5 4.5 6.8 6.9zM241 1014.7c-.1.3-.2.6-.1.9 0 .1.4.2.7.2v-.5l-.6-.6c-.1-.1 0 0 0 0z"/></svg>