<svg xmlns="http://www.w3.org/2000/svg" viewBox="0 0 1780 1500"><style>.st0{fill:#FFFFFF;}</style><path d="M1779.2 71.8c0-4.9-.9-9.4-3.2-13.8-6.7-12.4-13-25-19.5-37.4-3.1-5.9-6.4-11.8-9.8-17.6-1-1.7-2.6-2.8-4.7-2.9-2.9-.1-5.8-.1-8.6-.1H5.4c-1 0-1.9 0-2.9.1S.1 1.5.1 2.7C.1 7.4 0 12.2 0 17v1404.4c0 1.9.1 3.8 0 5.8 0 2.9.6 5.7 2 8.3 1.5 2.8 2.9 5.7 4.3 8.6 7.1 14 14.3 27.9 21.4 41.9 1.6 3.1 3.3 6.2 5 9.3 1 1.9 2.7 2.7 4.7 2.7 8.6.1 17.3.1 25.9.1h1680.9c7.7 0 15.4-.2 23-.4 2.5-.1 5.1-.4 7.6-1 1.9-.5 3.4-1.9 3.5-4.1.3-3.5.6-7 .6-10.5.1-41.9.1-83.8.1-125.8V210.1c.2-46.1.1-92.2.2-138.3z"/><path class="st0" d="M1689.6 1347.5V993.3c0-1.9 0-3.8-.1-5.8 0-1.3-1.1-2.5-2.3-2.6-1 0-1.9-.1-2.9-.1-17.6.2-35.2.5-52.8.5-42.2.1-84.5 0-126.7 0h-261.3c-2.7 4.4-5.4 8.7-8.1 13-65.7 103.9-153.7 183.2-264 237.6-42.6 21-87.1 36.6-133.3 47.7-16.5 3.9-33.1 7.2-49.9 9.7-13.3 2-26.6 3.6-40 4.8-17.9 1.6-35.7 2.4-53.7 2.8-14.1.3-28.1-.6-42.2-1.2-16.6-.7-33.2-2.5-49.7-4.7s-32.8-5.2-49.1-8.7c-44.2-9.5-87-23.4-128.1-42.2-121-55.2-216.2-139.8-286-253-1.2-1.9-2.2-3.9-3.6-5.7-.5-.7-1.6-1-2.4-1.3-.6-.2-1.3-.1-1.9-.1-20.2.2-40.3.4-60.5-.4-.6 0-1.3-.1-1.9.2-.5.2-1.2.8-1.3 1.3-.2 2.5-.3 5.1-.3 7.6 0 74.9 0 149.8-.1 224.6 0 43.5-.1 87-.1 130.6 0 2.5 1 3.5 3.3 3.5 12.2-.1 24.3-.3 36.5-.3 458.2 0 916.5-.1 1374.7 0 67.2 0 134.4-.7 201.6.6 1.6 0 3.2-.2 4.7-.5.5-.1 1.1-.8 1.2-1.3.3-.4.3-1.4.3-2.4zM1050.9 1398.6H502.8c-25.9 0-51.8-.1-77.8-.3-12.8-.1-25.6-.4-38.4-.7-1.6 0-3.1-.4-4.6-.8-.5-.1-.8-.9-1.1-1.4-.4-.7.4-2 1.2-2.1 2.2-.4 4.4-.9 6.6-.9 7.7-.2 15.4-.4 23-.4 52.8-.1 105.6-.2 158.4-.2h1135.6c4.8 0 9.6.1 14.4.3 1.2.1 2.5.6 3.6 1.1.5.2 1.1 1 1 1.5-.1.9-.5 1.9-1.2 2.4-.7.6-1.8.8-2.7.8-4.8.3-9.6.7-14.4.7h-655.5zM1704.9 281.9c1.6 2.5 2 5.4 2.1 8.3.1 4.8.4 9.6.4 14.4.1 15.7.2 31.4.2 47v417.5c0 41.6-.1 83.2-.1 124.8 0 5.5-.2 10.9-1.6 16.2-.2.9-.7 1.7-1 2.6-1.6-.9-2.4-2.2-2.6-3.9-.8-5.7-1.2-11.4-1.1-17.2v-62.4c-.1-159.3-.3-318.7-.4-478 0-19.2.5-38.4.8-57.6 0-2.9.4-5.7.6-8.6-.1-1.1.8-1.9 2.7-3.1zM1583 328.9c.9 16.8-13 37.1-37 36.8-23.8-.3-36.4-20.3-36.5-36.7 0-17.1 13.4-37.1 37.2-36.9 24 .3 37.2 20.7 36.3 36.8zM458.8 1481.5c-1.6.2-3.1.6-4.7.7-5.1.5-10.2 1-15.3 1.3-3.8.2-7.7.2-11.5.2-21.1.1-42.2.1-63.4.2l-302.4.3H50.9c-5.5-.1-8.6-1.3-7.9-3.2 1.4-3.6 4.7-2.5 7.5-2.7 1.3-.1 2.6 0 3.8 0 24.6 0 49.3-.1 73.9 0l252.5.3c17.3 0 34.6.1 51.8.5 8.8 0 17.4.5 26.3 2.4zM1019.2 31.4c1.1-1.3 2.6-1.8 4.2-1.9 5.4-.3 10.9-.7 16.3-.7 21.1-.2 42.2-.4 63.4-.4h202.6c3.5 0 7 .2 10.6.3.9 0 2 .1 2.8.5.7.4 1.3 1.3 1.7 2.1.1.1-.8 1.1-1.3 1.2-4 1.2-8.2 1.4-12.3 1.5-19.5.3-39 .8-58.5.8-51.8.1-103.7.1-155.5 0-19.8 0-39.7-.3-59.5-.5-3.8 0-7.7-.4-11.5-.8-1.4-.2-2.5-.9-3-2.1zM1756.6 1471.4c-.4 1.3-.9 2.5-2.3 2.8-2.2.5-4.4 1-6.6 1.2-2.5.2-5.1.1-7.7.1h-234.1c-5.4 0-10.9-.2-16.3-1-.6-.1-1.4-.1-1.8-.5-.6-.6-1.2-1.4-1.4-2.3-.1-.4.4-1.2.9-1.4 1.1-.6 2.3-1.2 3.6-1.3 3.8-.3 7.7-.5 11.5-.5h241.7c2.6 0 5.1.1 7.7.2 2 .2 3.6 1.2 4.8 2.7zM295.3 1392.4c-2 2.1-3.9 2.6-5.8 2.7-2.9.2-5.7.4-8.6.4-18.5.1-37.1.3-55.6.3-50.5.1-101 .2-151.5.2-11.2 0-22.4-.3-33.5-.5-2.6-.1-5.1-.3-7.7-.4-1-.1-3.1-1.8-2.8-2.1.7-.6 1.5-1.4 2.3-1.5 5.1-.5 10.2-1 15.3-1.1 13.7-.3 27.5-.5 41.2-.5 47.9 0 95.9.2 143.8.3 15 0 30 .1 45.1.2 3.8 0 7.7.3 11.5.7 1.8 0 3.7.4 6.3 1.3zM261 141.1c-1.1.4-2.2.9-3.4 1.2-7.2 1.4-14.6 1.8-21.9 1.8H182c-27.2 0-54.3.1-81.5 0-21.4-.1-42.8-.3-64.2-.4-1.9 0-3.8-.1-5.7-.4-.8-.1-1.7-.8-2.3-1.5-.4-.4-.5-1.1-.4-1.7.1-.5.5-1.2 1-1.4.8-.4 1.8-.6 2.7-.7 3.5-.1 7-.2 10.5-.2 18.8-.2 37.7-.5 56.5-.5 44.4-.1 88.8 0 133.2-.1 8 0 15.9.7 23.9 1.2 2.2.1 4 .6 5.3 2.7zM1653.1 1446.9h-78.7c-4.2 0-8.3.2-12.4-1-.9-.3-1.7-.8-2.5-1.3-.7-.4-1-2.1-.3-2.4 1.4-.7 2.8-1.6 4.3-1.9 2.5-.4 5.1-.4 7.6-.4 49.3 0 98.6 0 147.8.1 6.7 0 13.4.6 20.1 1 1.2.1 2.4.6 3.6 1 .3.1.7.4.7.6-.1.6-.2 1.5-.5 1.7-1.1.6-2.3 1.3-3.4 1.3-12.4.8-24.9 1.5-37.4 1.4-16.2-.2-32.5-.1-48.9-.1zM1624 28.5h73.8c2.9 0 5.7.1 8.6.2.9 0 1.9.3 2.7.8.7.5 1.5 1.4 1.5 2.1 0 .8-.6 1.8-1.3 2.3-.7.6-1.7.8-2.7.9-3.2.3-6.4.6-9.5.6-41.5 0-83 .1-124.5 0-11.5 0-23-.6-34.5-1-1.2 0-2.5-.5-3.6-.9-.5-.2-.7-1-1-1.5-.3-.6 0-1.2.7-1.5 1.2-.4 2.4-1.1 3.6-1.2 3.2-.3 6.4-.5 9.6-.5l72.8-.3h3.8zM20.3 23.6c.8-.5 1.6-1.3 2.4-1.3 5.1-.4 10.2-.8 15.3-.9 30.1-.2 60.1-.3 90.2-.4 26.2 0 52.4.1 78.7.2 5.4 0 10.9.1 16.2 1.1 1.2.2 2.4.6 3.2.8.9.8.8 1.3-.2 1.4-9.5 1.3-19.1 1.7-28.7 1.7-44.1 0-88.3.1-132.4-.1-13.4 0-26.8-.7-40.3-1-1.5-.1-3.1-.1-4.4-1.5zM105.7 1434.3h71.9c1.9 0 3.8 0 5.7.1.8 0 2 1.1 1.9 1.8-.1 1-.6 1.7-1.6 2.1-1.2.5-2.4 1.1-3.6 1.2-1.9.2-3.8.2-5.7.2H39.2c-3.5 0-7-.2-10.5-.6-1.1-.1-2.1-1.2-3.1-2-.6-.5-.1-2.3.6-2.4 1.9-.2 3.8-.5 5.6-.5 24.7.1 49.3.1 73.9.1zM1446.2 557.2c7.6 1.4 15.2 1.3 22.9 1.4 18.8.1 36.7-4.1 54.1-10.7 4.8-1.8 9.4-4 14.1-5.9 1.2-.5 2.4-.7 3.7-.9.5 0 1.2.5 1.4.9.3.5.3 1.3.1 1.8-.4.8-.9 1.8-1.7 2.2-2.7 1.7-5.4 3.4-8.3 4.7-7.2 3.4-14.6 6.4-22.4 8.1-3.1.7-6.2 1.7-9.2 2.4-16.3 4.1-32.8 4.4-49.4 2.6-7.9-.9-15.6-3.3-23.1-6-.3-.1-.7-.3-.8-.5-.3-.5-.5-1.1-.5-1.7-.1-.8.4-1.2 1.2-1.1 6 1 11.9 1.8 17.9 2.7zM1185.8 61h-46.9c-2.2 0-4.5-.2-6.6-.6-.8-.1-1.6-.9-2.2-1.6-.3-.4-.5-1.2-.3-1.7.1-.5.7-1.2 1.1-1.3 1.5-.3 3.1-.6 4.7-.6 16.3-.2 32.5-.5 48.8-.4 17.2 0 34.4.3 51.6.5.6 0 1.3 0 1.9.1 2 .1 4.8 1.9 4.3 2.9-.9 1.8-2.6 2.7-4.7 2.7-1.9 0-3.8.1-5.7.1h-45.9c-.1 0-.1-.1-.1-.1zM127.9 161.9c-6.4 2.2-11.9 2.7-17.6 2.9-19.5.8-38.9.7-58.4.3-6.1-.1-12.1-.2-18.2-.5-1.2-.1-2.4-.6-3.6-1.2-.4-.2-.6-1-.7-1.6 0-.2.3-.6.5-.8.5-.4 1-.9 1.6-1 1.6-.3 3.1-.5 4.7-.6 24.9-.6 49.8-1 74.6-.1 5.6.3 10.9 1 17.1 2.6zM1627.7 62.5c.3-1.6.7-2.8 2.2-3.1 1.9-.4 3.8-.7 5.7-.8 22-.3 44.1-.5 66.1-.8 2.3 0 4.4.2 6.4 1.6 1 .7 1.2 2.5.2 3.2-1.3 1-2.7 1.7-4.3 1.8-1.9.1-3.8.1-5.7.1l-56.5-.3c-3.5 0-7-.2-10.5-.5-1.3 0-2.4-.8-3.6-1.2zM92.9 1452.3c-.5.8-.8 2-1.4 2.2-2.7.8-5.5 1.9-8.3 1.9-16.9 0-33.8.9-50.6-1.1-.6-.1-1.4-.1-1.8-.5-.6-.6-1.1-1.5-1.3-2.4-.1-.4.5-1.2 1-1.4 1.2-.5 2.4-.9 3.7-1 3.8-.3 7.6-.7 11.4-.7 12.4-.1 24.8-.1 37.3-.1 3.5.3 6.9.6 10 3.1zM1374 536.3c-.4.4-.7 1-1.2 1.2-.6.2-1.3.1-1.8-.2-8.1-4.5-15.3-10.3-21.7-17.1-.9-.9-1.5-2.1-2.3-3.1-1.2-1.6-.1-4-1.8-5.2-1.2-.8-3-.7-4.3-1.4-1.8-1-2.5-2.8-2.2-4.9.1-.4 1-.8 1.5-.8.6 0 1.2.4 1.6.8 1.4 1.3 2.6 2.8 2.7 4.9.1 1.1.7 2 1.6 2 1.8.1 3 .9 4.1 2 5.7 6 12.2 11.2 18.8 16.2 1.5 1.1 2.8 2.5 4.2 3.9.5.4.6 1.1.8 1.7zM1684.9 153.7c-5.4-.1-10.8-.3-16.2-.5-1.2 0-2.6-.2-3.7-.7-.8-.3-1.7-1.2-1.8-2-.1-.7.8-1.7 1.5-2.1 1.1-.5 2.4-.7 3.7-.7 6-.2 12.1-.4 18.1-.4 4.8-.1 9.5-.1 14.3 0 1.3 0 2.6.2 3.7.6.8.3 1.6 1.2 1.3 2.3-.2.8-.5 2-1.1 2.4-1 .6-2.4.9-3.6 1-5.4 0-10.8 0-16.2.1 0-.1 0-.1 0 0zM331.4 1391c5.1.1 10.2.2 15.3.4 1.2.1 2.5.5 3.6 1 .5.2.7.9 1 1.5s-.1 1.1-.8 1.4c-3 1.2-6.2 1.7-9.4 1.6-5.8-.1-11.5-.3-17.3-.5-2.5-.1-5.1-.5-7.6-.9-.4-.1-.8-1-.8-1.5s.3-1.4.7-1.6c.8-.4 1.8-.6 2.7-.7 4.2-.2 8.3-.3 12.5-.5.1 0 .1-.1.1-.2zM1584.4 62.5c-3.8-.1-7.6-.2-11.4-.4-.9-.1-1.9-.4-2.7-.8-.5-.3-.8-.9-1-1.5-.3-.7.5-2.1 1.3-2.3.6-.1 1.2-.4 1.9-.4 7.3-.1 14.6-.2 21.9-.2 1.3 0 2.5.3 3.8.4 1.5.2 2.7 1.5 2.4 2.4-.3 1-1 1.4-1.9 1.8-2.8 1-5.6.9-8.5.9-2 0-3.9 0-5.8.1 0-.1 0-.1 0 0zM44.9 179.5c4.1.1 8.2.1 12.3.5 1.5.1 3 .8 4.4 1.4.5.2.7 1 .9 1.5.1.1-.2.6-.3.6-2.4.8-4.8 2-7.2 2.1-7.3.4-14.6.1-21.8-.8-.6-.1-1.2-.4-1.7-.8-.4-.3-.7-1-.7-1.4.1-.6.5-1.3.9-1.5.8-.4 1.7-.8 2.6-.8 3.5-.2 7-.4 10.4-.5.2-.2.2-.3.2-.3zM50.6 47.8h-25c-1.2 0-2.5-.4-3.6-.8-.4-.1-.5-1-.7-1.6 0-.2.2-.6.4-.7.6-.3 1.2-.6 1.8-.6 2.2-.2 4.5-.3 6.7-.3h42.2c2.2 0 4.5-.2 6.5 1 .2.1.1.5.1.8s.1.8-.1.9c-.5.4-1 .9-1.6 1-2.2.2-4.5.4-6.7.4-6.7.1-13.4 0-20.2 0 .2 0 .2-.1.2-.1zM1599.9 472.3c-5.2.2-8.6-5-6.9-9.8 1-2.8 2.7-4.9 5.5-6.1 2-.8 3.8-.5 5.4.6 2.7 1.9 4.3 4.6 4.9 7.8.2.8-.1 1.9-.5 2.7-1.6 3.5-4.5 5-8.4 4.8zM1329.6 472.3c-5.8.4-9.3-5.4-7-10.3.6-1.4 1.5-2.8 2.6-3.8 2.8-2.8 6.8-3.3 9.8.5.4.5.9.9 1.2 1.5 1.1 2.2 2.9 4.3 1.6 7-1.6 3.5-4.3 5.1-8.2 5.1zM40 433.7c-2.6-.1-5.1-.2-7.6-.5-.5-.1-1.1-.6-1.5-1-.2-.2-.6-.6-.5-.8.1-.5.3-1.2.8-1.5.5-.4 1.2-.6 1.8-.6 4.8-.2 9.6-.4 14.4-.4 1.2 0 2.5.6 3.6 1.1.4.2.7.9.8 1.4.1.2-.3.6-.5.7-.8.5-1.6 1.2-2.5 1.3-2.9.2-5.7.1-8.6.1-.2 0-.2.1-.2.2zM1557.5 536.2c-.4.8-.5 1.4-.9 1.9-1.8 2.4-4.4 3.4-7.2 3.9-.7.1-1.7-.7-2.3-1.2-.6-.5-.3-2 .3-2.6 2.2-2.4 5.2-3.4 8.3-3.6.5-.1 1.2 1 1.8 1.6z"/><path d="M1538.6 1126.1v49.8c0 2.2.1 4.5-.3 6.7-1.6 9.3-13.1 11.8-18.8 7-2-1.7-3.3-3.9-3.7-6.5-.3-1.9-.4-3.8-.4-5.7 0-33.8.1-67.7.1-101.5 0-1.9-.1-3.9.2-5.7.6-4 2.4-7.2 6.2-9.1 7.6-3.8 16.2 1 16.6 9.5.1 1.9 0 3.8 0 5.7.1 16.6.1 33.2.1 49.8zm-4.9-20.3c-.1-4.5-5-7.4-9-5.3-1.7.9-3.1 2.1-3.9 4-1 2.3-.3 5.5 1.8 6.7 1.1.6 2.3 1.1 3.6 1.3 3.9.6 7.6-2.8 7.5-6.7zM1599.9 1141.3v32.5c0 2.2.1 4.5-.1 6.7-.4 5.2-3 8.8-8.1 10.8-7.5 2.9-14.3-3.8-14.8-9.4-.1-1.6-.1-3.2-.1-4.8v-71.8c0-1.6-.1-3.2.1-4.8.6-8 6.4-11.7 13.8-10.9 4.8.5 8.2 3.8 8.9 8.6.3 2.2.4 4.4.4 6.7v36.4h-.1zm-4.7 38.3c-.1-2.3-.9-4.3-2.9-5.7-2.1-1.3-4.2-1.4-6.3-.1-1.7 1-3 2.3-3.8 4.2-.7 1.6-.5 3.1.3 4.5 1.4 2.4 4.8 3.9 7.4 3.2 2.9-.9 5-3.3 5.3-6.1zM209.6 1280.3c-14.1-.5-27.9-10.8-28-27.1 0-16.1 13.2-29 28.7-28.5 15.8.5 27.8 13.9 27.6 27.7-.3 15.5-12.8 28.6-28.3 27.9zm-20.8-28.6c-.9 8.9 4.8 15.9 10.9 19 .9.4 1.7.9 2.6 1.2 6.7 2.2 13.3 2.3 19.3-1.9 5-3.4 7.9-8.3 9.1-14.2.7-3.5.4-6.9-1.1-10.3-2.3-5.2-5.8-9.2-10.8-11.8-6-3.2-12.1-3.6-18.2 0-7.1 4.1-12.1 9.4-11.8 18zM130.4 1280.3c-15.8.1-27.1-13.7-27.4-27.8-.3-13.4 11.8-28.2 29.4-27.9 14.4.3 26.8 13.2 26.8 28.4 0 18-15.8 27.4-28.8 27.3zm21.9-26.7c-.1-1.5-.1-3.1-.3-4.7-.4-3.3-1.6-6.2-3.7-8.7-3.6-4.2-8-7.3-13.5-8.6-1.5-.4-3.2-.6-4.7-.3-8.9 1.4-15.3 6.1-18.8 14.5-.6 1.4-1.1 3-1.2 4.6-.6 9.2 3.4 16 11.1 20.7 1.1.7 2.3 1.2 3.5 1.5 6.9 1.5 13.4.7 19.2-3.5 5.2-3.9 8.1-9 8.4-15.5zM1470.2 1236c12.6-.4 24.2 11 26.7 21.1 4.7 18.9-10 35-29.3 34.5-6.2-.2-11.8-2.5-16.5-6.9-5-4.8-8.2-10.5-9.4-17.4-.8-4.9-.1-9.6 2-14 5.3-11.1 14.1-16.9 26.5-17.3zm20.4 27.2c.5-6.9-3.2-12.5-9.4-16.7-1.1-.7-2.2-1.4-3.3-2-4.5-2.3-9-2.7-13.9-1-6.4 2.3-10.9 6.4-13.9 12.4-1.4 3-2 6-1.7 9.3 1.1 13.6 14.9 22.7 27.8 18.3 9.1-3.2 14.5-10.4 14.4-20.3zM1368.9 1263.9c.4-15.8 12.9-28.1 28.1-27.9 18.2.3 28.5 16.7 28.1 28.3-.6 15-13.3 27.7-27.9 27.3-15.8-.4-29-12.1-28.3-27.7zm28.8 20.6c3.2.3 6.9-.6 10.2-2.8 4.7-3.1 7.9-7.5 9.4-12.9 1-3.4 1.1-7 0-10.4-2.4-7-7.1-11.9-14.1-14.7-5.5-2.2-10.7-1.7-15.6 1.3-2.2 1.3-4.3 2.8-6.1 4.6-5.8 5.7-7.1 12.8-4.8 20.3 2.5 8.9 10.6 14.5 21 14.6zM1606.2 1263.7c.5 11.6-9.4 27.8-27.1 28-15.9.2-28.8-12.2-29-27.1-.2-18 15.9-28.6 27.7-28.6 17.2.1 29.2 15.3 28.4 27.7zm-27.1 20.8c3.7.2 7-.8 10-2.7 9.4-6.1 15.9-20.8 3.6-32.8-1.4-1.3-2.9-2.5-4.6-3.5-6.6-3.9-13.1-4.3-19.9-.2-7.5 4.5-11.7 10.7-11 19.7 0 .6.1 1.3.1 1.9.1 2.6 1 5 2.4 7.2 4.5 7.2 11.2 10.3 19.4 10.4zM238.4 1336.6c-.6.7-.8 1.3-1.2 1.5-3 1.3-6.2 1.6-9.4 1.8-7 .3-14.1.7-21.1.7-30.7.1-61.4.1-92.1 0-9.9 0-19.8-.4-29.7-.7-1.6 0-3.1-.5-4.6-.9-.5-.1-.9-.9-1.2-1.4-.3-.6.5-2 1.3-2.2 1.5-.4 3.1-.9 4.6-.9 8-.3 16-.5 24-.6 33.9-.1 67.8 0 101.7 0 5.4 0 10.9.3 16.3.5 3.9.2 7.6.9 11.4 2.2zM1590.4 1330.4h78.7c.6 0 1.3.1 1.9.3.5.2 1 .7 1.3 1.1.5.6.1 2-.7 2.4-1.1.6-2.2 1.3-3.4 1.5-2.2.3-4.5.3-6.7.3-12.5.1-25 .2-37.4.2-34.2-.1-68.5-.3-102.7-.5-3.5 0-7-.2-10.5-.4-.9-.1-1.8-.5-2.7-.8-.8-.3-1.6-1.5-1.2-2.2.3-.5.7-1.1 1.2-1.4.8-.4 1.8-.6 2.7-.7 3.5-.2 7-.3 10.6-.3h69.1c-.2.3-.2.4-.2.5zM1612 1000.3c15.9.3 31.9.6 47.8 1 2.2 0 4.5.3 6.7.5.6.1 1.4.1 1.8.5.6.6 1.1 1.5 1.4 2.3.1.3-.5 1.1-1 1.3-1.2.5-2.4 1-3.6 1.1-3.8.3-7.6.5-11.5.5-30.9.1-61.9.1-92.8.2-1.9 0-3.8-.2-5.7-.4-.7-.1-2.3-1.9-2.4-2.7-.1-1 .9-2.5 2.1-2.9s2.4-.9 3.6-1c2.2-.2 4.5-.1 6.7-.1h46.9v-.3zM1174.9 1280.3c5.7 0 11.5-.1 17.2 0 2.7 0 4.5 2.2 4.6 5.1.2 3.3-1.6 5.8-4.6 6.2-1.3.2-2.5.3-3.8.3h-26.8c-1 0-1.9 0-2.9-.1-3.5-.3-6.1-4.3-5-7.8.6-1.9 1.9-3.3 4.1-3.5 1.6-.2 3.2-.3 4.8-.3h12.4v.1zM1295.4 1291.8c-5.1 0-10.2.1-15.3 0-3.3-.1-5.7-2.7-5.8-6.3-.1-2.1 1.8-4.6 3.8-4.9 1.3-.2 2.5-.4 3.8-.4h28.7c1.3 0 2.6.1 3.8.5.8.3 1.7.9 2.2 1.6 1.5 1.9 1.5 4.2.6 6.4-.6 1.5-2 2.5-3.6 2.9-1.2.3-2.5.4-3.8.4-4.9-.1-9.6-.1-14.4-.2zM1114 1291.8c-5.4 0-10.8.1-16.3 0-4-.1-6.7-4.3-5.2-8.3.6-1.6 1.7-2.7 3.4-3 1.3-.2 2.5-.4 3.8-.4h28.7c1.3 0 2.5.2 3.8.5s2.1 1.4 2.7 2.5c.3.6.4 1.2.4 1.8.4 3.7-1.6 6.4-5.1 6.7-1.3.1-2.5.2-3.8.2-4.1.1-8.2.1-12.4 0zM1235.9 1280.2c5.1 0 10.2-.1 15.3 0 3.3.1 4.9 2.1 5.1 5.6.2 3.6-2.5 5.5-5.1 5.8-.9.1-1.9.2-2.9.2h-27.7c-1 0-1.9-.1-2.9-.2-1.7-.2-3-1.2-3.7-2.7-.6-1.1-.9-2.4-1-3.6-.2-2.2 1.8-4.6 3.8-4.9 1.6-.2 3.2-.4 4.8-.4h14.3v.2zM127.3 1197.7c1.1-1.5 1.9-2.4 2.5-3.5 2.8-4.5 2.2-10.5-1.4-14-1.4-1.4-3.2-1.9-4.9-2.8-1-.5-2.8.8-3-1.1-.1-1.4 1.5-1.9 2.4-2.7 3.4-2.8 7.2-3.7 11.6-3.1 5.7.8 9 4.3 11 9.4 1.9 4.9.8 9.4-2.2 13.5-.5.8-1.3 1.4-2.1 1.9-4.2 2.8-8.7 3.3-13.9 2.4zM192.1 1176.4c4.1-4.7 8.6-6.7 14.5-5.8 5.3.8 8.6 3.9 10.6 8.6 1.5 3.7 1.3 7.5-.1 11.2-1.5 3.9-4.7 6.1-8.5 7-2.4.6-5 .4-7.6.5-.9 0-1.3-1.1-.8-1.9.7-1 1.6-2 2.2-3.1 2.9-6.2.6-12.3-5.7-15-1.3-.5-2.8-.9-4.6-1.5zM103.2 1324.4c-6.7-.4-13.4-.9-20-1.3-1.3-.1-2.5-.6-3.2-1.8-.3-.4-.3-1.4.1-1.7.7-.6 1.6-1.2 2.4-1.4 2.8-.4 5.7-.9 8.5-.9 9.2-.1 18.5-.1 27.8-.2 4.5 0 8.9 1 13.1 2.4.7.2 1.1.6 1.6 0 0 .7-.5.9-1.1 1.3-1.4.9-2.7 1.6-4.4 1.8-4.7.8-9.4 1.6-14.3 1.4-3.5-.1-7 0-10.5 0v.4z"/><path d="M205.5 1157.2c11.9-.3 20.7 10.2 20.2 19.9 0 .5-.5 1.1-.9 1.5-.5.6-1.7 0-2.2-1.1-.4-.9-.7-1.8-1.1-2.6-.9-1.7-1.8-3.4-2.9-4.9-6.7-8.7-19.8-9.2-27.8-1.1-1.5 1.5-2.4 3.7-3.5 5.6-.5.8-.6 1.9-1.7 2.1-.3.1-.7.3-.9.2-.5-.2-1.3-.5-1.4-.9-.4-1.9-.1-3.7.7-5.6 2.9-7.1 11.7-13.7 21.5-13.1zM135.1 1157.1c9.4-.4 18.8 8.4 19.2 19.5 0 1.2-.5 2.1-1.4 1.9-1-.1-1.7-.5-2.1-1.5-.9-2-1.7-4.2-2.9-6-6.7-9.8-20-10.5-28.4-2.6-1.3 1.3-2.2 3.1-3.2 4.7-.7 1.1-1.2 2.2-1.9 3.2-.3.3-1.2.5-1.6.3-.5-.2-.9-.9-1-1.4-.2-.6-.2-1.3 0-1.9.4-1.5.7-3.1 1.5-4.5 4.4-7.7 11.2-11.6 21.8-11.7zM1647.5 1024.6h-16.2c-2.5 0-5.1-.2-7.3-1.6-.4-.3-.8-1-.7-1.4.1-.5.5-1.3 1-1.5 1.1-.5 2.4-.9 3.6-1 3.2-.2 6.3-.3 9.5-.2 9.5 0 19 .1 28.6.2 2.5 0 5.1 0 7.3 1.7.2.2.6.5.5.7-.1.5-.3 1.2-.7 1.3-.8.4-1.8.7-2.7.8-2.8.3-5.7.6-8.5.6-4.8.1-9.5 0-14.3 0-.1.3-.1.3-.1.4zM1638.1 1314c9-3.4 18.2-2.8 27.5-2.3 1.1.1 2.2 1 3.3 1.6.6.3.5 2.1-.2 2.4-.9.4-1.7 1-2.6 1.1-6.7.1-13.4.1-20.1 0-2.8-.1-5.3-1.5-7.9-2.8zM1482.9 1334.9c-2.8-.3-5.6-.6-8.4-1.1-.3-.1-.7-1-.7-1.5s.5-1.1.9-1.6c.2-.2.6-.3.9-.4 5.7-.8 11.4-.7 17 .3.5.1.9.8 1.3 1.3s-.6 2-1.4 2.1c-.9.1-1.9.4-2.8.4-2.2.1-4.4 0-6.7 0 0 .2 0 .3-.1.5zM155.5 1186.8c-.1 1.1-1.4 2.4-2.7 2.5-.9.1-1.9-.2-2.3-1.2-.5-1.2-.2-2.9.8-3.3.8-.3 1.9-.3 2.6 0 .8.5 1.2 1.4 1.6 2zM226.9 1187.5c.3 1.2-.7 2.5-2 2.7-1.4.1-2.5-.7-2.7-2-.1-1.1.7-1.7 1.6-2 1.4-.6 2.9.1 3.1 1.3zM1529.5 352.3c5.3 3.3 12.5 5.1 20.4 4.4 4.8-.4 9.3-1.9 13.6-4 .9-.4 1.7-.8 2.6-1.1.2-.1.7.2.8.4.1.5.3 1.1.1 1.6-.2.6-.7 1.1-1.2 1.4-10.2 7.8-31.5 9.6-43.3-4.5-.3-.4-.4-1.2-.2-1.6.3-.6 1-.4 1.6.1.5.4 1.1.6 1.7.9.8.5 1.6 1 3.9 2.4zM1553.7 304.4c.3 2.6-2.1 5.2-5.3 5.7-2.4.4-5.1-1.6-5.7-3.9-.7-2.5 2.4-6.7 5.2-6.8 2.7-.2 5.5 2.1 5.8 5zM1596.8 467.5c.3-1.2.7-2.4 1-3.7.2-.9.4-1.8.5-2.6 1.7-.1 3.2-.2 4.8-.3 1 0 2.2.5 1.8 1.4-1.1 2.4 1.2 4.2.9 6.4-.1.9-1.2 1.8-2 1.2-2.1-1.4-4.5-2-7-2.4zM1326.2 467.4c.4-2 .8-4 1.3-6.2h6.4c.3 2.1-.2 4.2 1 6.3.6 1-.1 2.4-.8 2.4-.6 0-1.4.2-1.7-.1-1.7-1.7-4.1-1.4-6.2-2.4zM208.5 1269.1c-5.5.1-9.8-2.2-13.3-6.3-.6-.7-1-1.6-1.3-2.5-.2-.5 0-1.3.3-1.7.3-.4 1.2-.7 1.6-.5 2.6 1.2 5.2 2.5 7.7 3.7 2.7 1.3 5.5 1.4 8.4.6 3-.9 6.1-1.8 9.2-2.6.5-.1 1.4.3 1.6.7.2.4.1 1.3-.2 1.8-3.3 5-8.2 6.9-14 6.8zM133.2 1269.2c-6.8 0-11.6-1.9-14.8-7-.3-.4-.3-1.4 0-1.8s1.2-.7 1.7-.6c2.5.6 5 1 7.3 2 4.2 1.8 8.1 1.1 12-.8 2-1 3.9-2.1 5.9-3 .3-.2 1 .4 1.5.7.2.1.2.6.2.9-.2.9-.3 1.9-.8 2.7-3.5 4.6-8.2 7-13 6.9zM1472.5 1280.5c-7.3 0-12.2-1.8-15.5-6.8-.3-.5-.4-1.3-.2-1.8.2-.4.9-.8 1.4-.8.9 0 1.9.1 2.8.4 2.1.6 4.3 1.3 6.4 2 2.9 1.1 5.7.7 8.4-.5 2.6-1.2 5.1-2.5 7.7-3.7.4-.2 1.3.1 1.7.4.3.3.4 1.1.2 1.7-.3.9-.6 1.9-1.2 2.6-3.4 4.1-7.7 6.5-11.7 6.5zM1393.7 1280.5c-4-.1-8.6-2.5-12-7.2-.7-1-1.1-2.3-.4-3.5.1-.3.5-.7.7-.6.6 0 1.3.2 1.8.4 2 1 3.9 2.2 5.9 3.1 3.3 1.5 6.6 2 10.2.6 2.6-1 5.5-1.6 8.3-2.2.5-.1 1.3.3 1.5.7.2.5.1 1.3-.2 1.8-3.4 5-8.2 7-15.8 6.9zM1577.3 1280.5c-7 0-12.6-3.5-15.1-9.5-.3-.7 0-1.3.7-1.5.3-.1.6-.3.9-.2.9.3 1.8.6 2.6 1 2 .9 4 2 6 2.9 2.7 1.2 5.5 1.3 8.4.3 2.7-1 5.5-1.6 8.3-2.3.5-.1 1.7.2 1.7.4.1.8.1 1.8-.2 2.6-.4.8-1.1 1.6-1.8 2.2-3.4 2.8-7.2 4.2-11.5 4.1z"/></svg>