<svg xmlns="http://www.w3.org/2000/svg" viewBox="0 0 1780 1500"><style>.st0{fill:#FFFFFF;}</style><path d="M1315.3 996.4c-.9-3 .1-5.7 1.8-8.1 6.4-9.2 12.8-18.3 19.3-27.5 2.9-4.1 5.8-8.2 8.8-12.3 2.5-3.4 4.1-3.9 8.3-2.8.4.1.8.2 1.3.3.4-.5.8-.9 1.2-1.5 9.3-13.6 18.7-27.1 27.8-40.8 6.6-9.9 10.8-20.8 14.3-32.1 2.8-9.2 4.7-18.6 5.7-28.1 1-9.9 1.1-19.8.2-29.7-.8-8.1-1.4-16.2-2.1-24.3-.9-9.5-1.8-19.1-2.7-28.6-.6-6.3-1.1-12.6-1.6-18.9-.7-7.5-1.5-14.9-2.2-22.4-.6-6.1-1.1-12.3-1.7-18.4-.7-7.6-1.5-15.1-2.2-22.6-.5-5.6-1-11.1-1.5-16.7-.8-8-1.6-16.1-2.3-24.1-.4-3.9-.7-7.8-1-11.7-.8-8.6-1.6-17.2-2.5-26-.7-.1-1.4-.1-2.1-.2-4-.3-8-.4-11.9-.9-3.3-.4-4.5-1.1-4.6-5.2-.3-14.5-.5-29.1-.6-43.7-.1-26.6-.1-53.1-.1-79.7v-79.9c0-.6 0-1.3.1-1.9.3-1.2.9-2 2.3-2 2.1 0 4.3-.2 6.4-.3.5 0 .9-.1 1.5-.1.8-3.3 1.5-6.6 2.3-10-13.4-7.2-22.5-17.8-26.9-32.3-3.2-10.6-3.1-21.3.4-31.9 6-18.2 22.8-35.5 49.8-36.8.5-2 1-4.1 1.5-6.1 1.7-6.7 3.5-13.4 5.2-20.1.2-.8.2-1.8-.2-2.5-1.1-2.1-1-4.1-.4-6.2 3.1-12.4 6.1-24.8 9.1-37.2.1-.5.2-1.1.4-1.8-2.2-.7-4.2-1.4-6.4-2-3.2-.9-4.4-2.6-3.8-5.8.6-3.7 1.3-7.4 2.1-11 2.1-9.2 4.2-18.4 6.3-27.5v-.7l-8.7-2.1c-1.3-.3-2.6-.6-4-.9-2.4-.6-3.1-1.4-2.9-3.9.2-2.9.6-5.7 1.2-8.5 2.9-13 5.9-26 8.8-39 1.7-7.5 3.5-15.1 5.3-22.6.3-1.3.8-2.6 1.3-3.8.9-2.4 2.7-3.5 5.2-3 3.8.7 7.5 1.4 11.3 2.2 17.1 3.9 34.2 7.9 51.3 11.8 10.6 2.4 21.2 4.9 31.7 7.3 1.5.3 2.9 1 4.4 1.3 4.6.9 5.6 4.7 5 8.1-1 5.3-2.1 10.5-3.3 15.7-3.9 17.2-7.9 34.4-11.9 51.6-.2.8-.4 1.6-.6 2.3-.8 2.9-2.7 4.2-5.7 3.7-2.4-.4-4.7-1-7-1.5-2.2-.5-4.5-1-6.9-1.5-.2.6-.3 1.1-.5 1.6-2.3 10-4.5 20.1-6.9 30.1-.7 2.8-1.9 5.5-2.5 8.3-.7 3-2.7 3.9-5.7 3.3-1.6-.3-3.1-.7-4.7-1.1-.6-.1-1.2-.2-2-.4-.4 1.9-.8 3.7-1.2 5.4-2.5 11.1-5 22.1-7.5 33.2-.4 1.8-1 3.5-2.7 4.6-.5.3-1 1.2-.9 1.8.5 5.1-1.2 9.8-2.2 14.6-1.8 8.6-3.6 17.2-5.5 25.7-.3 1.2-.1 2.1.5 3.1 5 8.5 7.6 17.7 7.3 27.7v.7c-.4 2 .4 3.3 2.2 4.3.8.4 1.4 1 2.2 1.7.8-.5 1-1.7 2.3-1.7 1.5 0 2.8.5 4 1.3 5.2 3.7 10.5 7.4 15.6 11.1 3 2.2 6 4.5 8.9 6.8 1.5 1.1 1.6 2.6.9 4.2-.5 1.1-1 2.2-1.7 3.2-4.9 6.9-9.8 13.8-14.8 20.7-1 1.4-2.2 2.7-3.3 4.1-.9 1.2-2.1 1.6-3.6 1.3-3.7-.7-7.4-1.3-11.1-1.9-1.3-.2-2.4-.8-3.4-1.6-5.3-4.2-10.6-8.2-15.9-12.3l-1.8-1.2c-1.5 1.1-3.1 2.1-4.5 3.2-.4.3-.8.8-.9 1.3-.9 3.8-1.7 7.6-2.6 11.6 2.6.2 5 .5 7.5.4 3.1 0 3.5 1.2 4.1 3.5.1.6.1 1.3.1 1.9l-.3 125.7c0 15.9-.2 31.8-.2 47.7 0 5.5.3 11 .3 16.5 0 4.5-.3 8.9-.5 13.4-.1 1.9-1 3.3-2.8 3.8-1.9.5-3.9.8-5.9 1-2.3.2-4.6 0-7.1 0 .2 2.8.4 5.3.7 7.8.6 6.4 1.2 12.7 1.8 19.1 1.1 11 2.1 21.9 3.2 32.9.5 5.6 1 11.3 1.5 16.9.8 7.9 1.6 15.9 2.3 23.8.5 5.7 1 11.5 1.6 17.2.7 7.9 1.5 15.9 2.3 23.8.6 6 1.1 12.1 1.6 18.1.7 7.6 1.5 15.3 2.2 22.9.5 5.3 1 10.7 1.5 16 .5 6.3 1.2 12.6 1.5 18.9.5 11 .1 22-1.2 33-2.1 17.7-6.5 34.8-13.6 51.2-3.9 9-8.9 17.5-14.5 25.7-8.6 12.6-17.2 25.2-25.8 37.9-.4.5-.7 1.1-1.1 1.7.4.9.8 1.9 1.3 2.8.8 1.5.7 3.1 0 4.6-.5 1-1 2-1.6 2.9-9.5 13.5-18.9 26.9-28.4 40.4-1.7 2.4-3.8 3.7-7.1 4 .7.6 1.1.9 1.6 1.2 3.3 2.5 6.7 4.9 10 7.5 1.8 1.4 3.5 3 5.1 4.7 1 1 .5 2.4.1 3.6-.4.9-.9 1.7-1.5 2.5-6.8 9.8-13.6 19.5-20.5 29.3-11.3 16.1-22.7 32.1-34.1 48.1-15.4 21.6-30.7 43.1-46.2 64.6-5.6 7.9-11.5 15.6-17.2 23.4-.6.8-1.2 1.7-2 2.4-1.1 1-1.8 1-2.9-.1-.3-.3-.6-.8-1-1-5.4-2.3-9.7-6.1-14.4-9.4-16.1-11.3-32.1-22.7-48.2-34.1-1-.7-2.1-1.5-3.1-2.3-1.7-1.2-2.1-2.9-1.4-4.7.6-1.8 1.4-3.6 2.5-5.1 5.9-8.5 11.8-16.9 17.8-25.3 14-19.9 28-39.7 42.1-59.5 14.4-20.3 28.9-40.5 43.4-60.7 4.1-5.8 8.3-11.6 12.4-17.4.2-.3.4-.7.7-1 2.2-2.8 4.8-3.2 7.7-1.2 4.4 3 8.8 6.1 13.2 9.2.2 0 .4.1.5.1.3.2.2.1.2-.1zm96.9-591.4c-2.3-.5-4.4-.6-6.2-1.3-3.6-1.5-6.1 0-8.3 2.6-.5.6-1.1 1.2-1.5 1.8-4.5 6.2-7.8 13-9.7 20.4-2.2 8.6-4 17.4-4.6 26.3-.3 4-.6 8-.4 12 .2 4.7.8 9.4 1.3 14 .8 7.9 1.6 15.9 2.4 23.8.5 5.4 1 10.8 1.6 16.2.7 6.7 1.5 13.3 2.2 20 .6 5.6 1.1 11.3 1.6 16.9.9 8.9 1.8 17.8 2.7 26.6.6 5.8 1.1 11.6 1.6 17.4.9 8.6 1.8 17.3 2.7 25.9.6 5.5 1.1 11.1 1.6 16.7.7 7.4 1.5 14.7 2.2 22.1.4 4 .7 8.1 1.2 12.1.7 6 1.5 12 2.2 18 .6 5.4 1.1 10.8 1.6 16.2 1 10.1 2.1 20.1 3.2 30.2.6 5.6 1.1 11.3 1.6 16.9.9 9.3 1.9 18.5 2.8 27.8.4 3.6.7 7.3 1.1 10.9.6 6.5 1.2 13 1.6 19.5.3 4.9.1 9.9.2 14.9.2 7.1-.9 14-1.9 20.9-1.9 13.1-5.7 25.7-10.8 37.8-2.1 4.9-4.8 9.5-7.2 14.3-7 14.3-15.9 27.5-25.2 40.4-1.3 1.8-2.4 3.7-3.5 5.3 4.7 3.4 9.1 6.6 13.6 9.8.4-.5.8-1 1.2-1.6 7.9-11.5 15.7-23.1 23.6-34.6 7.1-10.3 13.2-21.1 17.6-32.8 4.8-12.7 8.1-25.9 9.8-39.3.7-5.6 1-11.3 1.5-16.9.7-7.9.4-15.8-.2-23.7-.6-8.4-1.5-16.8-2.3-25.2-.5-5.6-1-11.3-1.5-16.9-.7-7.6-1.5-15.2-2.2-22.8-.4-4.4-.7-8.7-1.2-13.1-.7-7.4-1.5-14.9-2.2-22.3l-2.1-23.1-2.7-27.6c-.6-6.2-1.1-12.4-1.7-18.6-1.1-11.2-2.1-22.4-3.2-33.6-.8-8.6-1.6-17.1-2.4-25.7l-1.5-17.1c-.9-9.5-1.8-19-2.8-28.6-.4-4.1-.7-8.3-1.1-12.4-.7-7.8-1.5-15.5-2.2-23.3-.4-4.4-.8-8.7-1.2-13.1-.8-8.9-1.9-17.8-1.9-26.7 0-6.8.4-13.5 1.4-20.3 1.5-10.2 3.9-20.2 6.2-30.2.5-2.3.9-4.5 1.4-6.9zm106.1-305.6c-1.8-.3-3.6-.6-5.3-1-18.9-4.4-37.8-8.7-56.7-13.1-2.5-.6-5-1.2-7.5-1.6-2.3-.4-3.2.2-3.7 2.6-.3 1.2-.4 2.5-.7 3.8l-11.1 49.5c-.6 2.9-1.3 5.7-1.9 8.6-.5 2.2-.1 2.8 2.2 3.4l.9.3c20.1 4.6 40.3 9.2 60.4 13.9 2.5.6 5.1 1.1 7.7 1.7 5.2-22.9 10.4-45.4 15.7-68.1zm-100.9 152.3c-.6 3.1-1.2 6.2-1.8 9.2-3.8 17.3-7.7 34.7-11.5 52-3.3 14.7-6.5 29.4-9.9 44.1-2.2 9.5-4.6 18.9-7 28.3-.6 2.2-1.4 4.4-2.1 6.6 11.1 2.5 21.9 5 32.7 7.5.3-1.8.5-3.7.9-5.6 1.5-6.8 3-13.5 4.5-20.3 3.4-15.1 6.7-30.2 10.1-45.3 2.6-11.4 5.1-22.9 7.7-34.3 2.7-11.7 5.5-23.4 8.3-34.9-10.5-2.4-21.2-4.8-31.9-7.3zm-30.3 83.2c-2-1.5-3.9-2.7-5.7-4.1-4.4-3.3-8.8-6.6-13.1-10.1-3-2.4-2.8-4.3-1.7-6.5 1.7-3.6 3.7-7 5.8-10.4 1.9-3 4-5.7 6.1-8.6 1.9-2.7 3.9-5.4 6.4-7.7 1.7-1.6 2.4-1.8 4.4-.7 2.6 1.5 5.2 3.2 8 4.9.7-3 1.4-5.9 2-8.8-17.5.1-38.8 13.5-43.2 38-3.8 21.4 8.2 40.9 23.2 48.2 2.6-11.4 5.2-22.7 7.8-34.2zm63.2-124c0-.1-.1-.2-.1-.2l-15.3-3.9c-1.1-.3-2.1.1-2.7 1.1-.4.7-.8 1.4-1 2.1-2.8 10.9-5.6 21.7-8.3 32.6-.3 1.2.1 2.6.2 4 9.5 2.2 18.7 4.3 28.2 6.5.5-1.4 1.1-2.7 1.5-4.1l5.7-24.9c.8-3.6 1.7-7.2 2.6-11.1-2-.3-3.8-.7-5.6-1-.3 1.1-.6 2-.8 2.8-1.3 5.9-2.5 11.8-3.9 17.7-.9 3.9-2.2 7.7-3.3 11.5-.4 1.4-1.1 2.5-2.9 2.7-.1-1.1-.4-2.1-.4-3.1.1-2 .3-4 .6-5.9 1.9-8.9 3.7-17.8 5.5-26.8zm-107.6 793.9c10.2-14.2 20.2-28.1 30.2-42-4.2-3.7-8.9-6.3-13.8-8.8-1.8-.9-1.8-.9-3 .8-4.9 7.2-9.8 14.4-14.7 21.5-4.3 6.2-8.6 12.4-13 18.7 4.9 3.4 9.6 6.6 14.3 9.8zm141.7-648.2c-6.9-4.9-13.7-9.8-20.7-14.8-5.9 8.2-11.6 16.3-17.4 24.4 7.1 5 14 9.9 20.8 14.8 5.9-8.2 11.6-16.3 17.3-24.4zm-28.8-15.3c-5.3-3.7-10.4-7.3-15.7-11-1.8 7.9-3.5 15.6-5.2 23.2 2.7 2.2 5.2 4.2 7.8 6.2 4.5-6.3 8.8-12.4 13.1-18.4zM1192 1150.9c.7 1 1.2 1.8 1.8 2.3 1.7 1.6 3.4 3.2 5.2 4.6 5.5 4.2 11.1 8.3 16.8 12.4 6.8 4.9 13.7 9.7 20.6 14.4 2.3 1.6 4.8 2.8 7.3 4.1 1.1.6 2.2.7 3.6 0-.3-.7-.5-1.3-.9-1.7-1.4-1.4-2.7-3-4.3-4.1-11.4-8.1-22.6-16.5-34.5-23.9-3.7-2.3-7.3-4.6-10.9-6.9-1.3-.9-2.7-1.6-4.7-1.2zm183.7-839.7c4.9 3.5 9.6 6.8 14.6 10.3 1.8-7.8 3.6-15.3 5.3-22.7-2.6-1.9-5-3.7-7.4-5.4-4.2 6-8.3 11.8-12.5 17.8zm-150 817.5s0-.1 0 0c.4-.1.8-.1 1.2-.1 4.8-.4 8.2-4.4 7.4-8.8-.9-4.9-5.8-8-10.7-7.1-3.4.7-6.2 3.9-6.3 8.6-.1 3.4 2.3 6.1 6 7.1.8.2 1.6.2 2.4.3zm41.4 27.6c4.9 0 8.8-3.2 8.9-7.2.1-4.6-4.1-9.1-8.5-9-5.9.2-8.4 4.2-8.5 8.7-.2 4.3 3.3 7.5 8.1 7.5zm112.7-187c-10 13.8-19.4 27.8-30.1 40.8 1.3 1.1 2.5 2.2 3.8 3.2 9.7-13.8 19.4-27.4 29-41.1-.8-.8-1.7-1.8-2.7-2.9zm100.3-796.5c0-1 .1-1.4 0-1.8-.2-1-.5-1.9-1.9-2.1-1.2-.2-1.8.5-2.3 1.3-.4.8-.8 1.7-1 2.7-.5 1.8-.9 3.7-1.3 5.6-1.8 8.2-3.7 16.4-5.5 24.7-.2.9-.2 1.9-.1 2.8.1.9.4 1.7 1.5 1.9s1.9-.3 2.4-1.2c.3-.5.5-1 .7-1.5.5-1.7 1-3.4 1.4-5.1 1.9-8.5 3.9-17.1 5.8-25.6.1-.7.2-1.5.3-1.7zm-69.9 289.8c6.1-2.7 9.6-7.1 10.4-13.3.9-7-1.4-12.8-7.1-17.5-.5 2.8-1 5.3-1.4 7.8-.1.6.2 1.2.5 1.8 2.1 4.6 1.7 8.8-1.5 12.7-.4.5-.8 1.2-.8 1.8-.2 2.1-.1 4.3-.1 6.7zm-132.5 677.2c1.7-2.4 3.4-4.8 5.1-7.3.9-1.3.3-3.8-.8-4.6-1.5-1-3.2-.9-4.5.6-1.4 1.6-2.6 3.4-3.9 5.1-.5.7-1.1 1.5-1.5 2.1 1.9 1.4 3.6 2.7 5.6 4.1zm-41.5-27.4c1.7-2.4 3.5-4.8 5.1-7.2.9-1.4.5-3.8-.7-4.6-1.4-1.1-3.3-1-4.5.5-2 2.3-3.8 4.8-5.6 7.2 2 1.3 3.7 2.6 5.7 4.1zm211.5-784.6c.6-4.3-1.4-13.4-3.5-16.5-.9 4.1-1.8 8-2.7 12 2.1 1.5 4.1 2.9 6.2 4.5zm-165.3 712.4c2.5-.1 4.2-1.5 4.2-3.6 0-2.4-1.7-4.3-4-4.2-2 0-4.1 2-4 4 .1 2.1 1.8 3.8 3.8 3.8zm63.4 7.6c2 .1 4.1-1.9 4.2-3.8.1-2.1-1.6-4-3.6-4-2.5 0-4.3 1.4-4.4 3.4-.1 2.3 1.6 4.3 3.8 4.4zm-27 30.6c-2.6 0-4.3 1.3-4.4 3.4-.1 2.4 1.6 4.4 3.7 4.4 2.1.1 4.1-1.8 4.2-3.8.1-2.2-1.5-4-3.5-4zm-63.7-7.6c-2.1 0-4 1.9-4 4 0 2.2 1.6 3.9 3.7 3.8 2.6-.1 4.2-1.4 4.2-3.6 0-2.5-1.6-4.3-3.9-4.2zm30.1 29.5c2.6 0 4.3-1.3 4.4-3.4.1-2.3-1.7-4.3-3.8-4.4-2.1 0-4.2 1.8-4.2 3.8s1.3 4.2 3.6 4zm4-43.7c-2.5 0-4.3 1.3-4.4 3.4-.1 2.4 1.6 4.3 3.8 4.3 2.1 0 4.2-1.8 4.2-3.8.1-2.2-1.5-3.9-3.6-3.9zm27.6-38.4c-2.6 0-4.3 1.3-4.3 3.4 0 2.5 1.5 4.3 3.8 4.3 2.2 0 4.1-1.7 4.1-3.8 0-2.2-1.5-3.9-3.6-3.9zm-4 43.7c2.7 0 4.3-1.2 4.3-3.4.1-2.4-1.6-4.3-3.8-4.4-2.1 0-4.1 1.8-4.1 3.8 0 2.3 1.5 4 3.6 4zm27.6-5.3c0-2.2-1.7-3.9-3.8-3.8-1.9.1-3.8 2-3.7 3.7.1 1.8 2.1 3.7 4.1 3.7 1.9 0 3.4-1.7 3.4-3.6zm-41.8 27.3c-.1-1.8-2.2-3.7-4.1-3.7-1.8 0-3.4 1.7-3.4 3.6 0 2.2 1.7 3.9 3.8 3.8 1.9-.1 3.7-2 3.7-3.7zm-6.7-56.6c1.9 0 3.8-1.9 3.8-3.6 0-1.9-2.2-3.8-4.3-3.7-1.8.1-3.2 1.6-3.2 3.5 0 2.2 1.6 3.9 3.7 3.8zm-8.6 45.8c-.1-2.3-1.7-3.8-3.8-3.7-2 .1-3.8 1.9-3.7 3.7.1 1.8 2.2 3.6 4.1 3.6s3.5-1.7 3.4-3.6zm42.8-27.5c0-1.9-2.1-3.9-4.1-3.9-1.7 0-3.2 1.6-3.2 3.5-.1 2.3 1.4 3.9 3.5 3.9 1.9.1 3.8-1.6 3.8-3.5zm-16.9 45.6c-1.9 0-3.8 1.8-3.8 3.6 0 2 2.1 3.8 4.1 3.8 1.8 0 3.2-1.5 3.2-3.5.1-2.3-1.4-3.9-3.5-3.9zm-1.7-60.2c-2-.1-3.9 1.5-4 3.3-.1 2 1.7 3.9 3.9 4 1.8.1 3.3-1.4 3.5-3.2.1-2.3-1.2-4-3.4-4.1zm-39.5 31.5c.2-1.9-1.4-3.8-3.6-4-2-.2-3.6 1-3.8 3.1-.2 2.3 1.1 4 3.2 4.2 2.1.1 4.1-1.5 4.2-3.3zm33.2-48c1.8 0 3.2-1.4 3.2-3.4.1-2.2-1.3-3.7-3.5-3.7-2 0-3.5 1.3-3.4 3.1.1 2.3 1.7 4 3.7 4zm26.6 58.3c1.8 0 3.4-1.4 3.4-3 .1-2.1-1.8-4.1-3.8-4.1-1.8 0-3.1 1.5-3.2 3.5 0 2.1 1.4 3.6 3.6 3.6zm-23.8 2c1.7.1 3.2-1.5 3.3-3.4.1-2.2-1.3-3.6-3.4-3.8-1.9-.1-3.4 1.3-3.5 2.9-.3 2.1 1.6 4.2 3.6 4.3zm30.8-42c0-2.3-1.3-3.6-3.5-3.5-1.8 0-3.3 1.4-3.3 3.1 0 2.2 1.8 4.2 3.8 4.1 1.8-.2 3-1.7 3-3.7zm-64.3 56.5c2 0 3.6-1.3 3.6-3.1 0-2.1-1.7-4-3.6-4.1-1.7-.1-3.2 1.5-3.3 3.4-.2 2.3 1.1 3.7 3.3 3.8zm26.2 18.3c0 2.3 1.3 3.6 3.5 3.6 1.8 0 3.3-1.4 3.3-3.1.1-2.2-1.7-4.1-3.8-4.1-1.8.1-3 1.5-3 3.6zm-1.9-60.3c0 2.3 1.2 3.6 3.4 3.6 1.9 0 3.3-1.2 3.4-3 .1-2.1-1.8-4.2-3.7-4.2-1.7 0-3.1 1.6-3.1 3.6zm-18.1 2.1c0-2.3-1.2-3.6-3.4-3.6-1.9 0-3.3 1.3-3.4 3-.1 2.2 1.7 4.1 3.7 4.1 1.9 0 3.1-1.4 3.1-3.5zm-15 110.9c-1.6-1.1-3-2.2-4.5-3.3-1.8 1.5-2.1 3.2-.8 4.6 1.4 1.4 3.3 1 5.3-1.3zm-46.2-31.1c-1.2.7-1.8 1.7-1.4 3.3.3 1.3 1 2 2.2 2.2 1.7.2 2.9-.7 3.7-2.1-1.6-1.2-2.9-2.2-4.5-3.4z"/><path class="st0" d="M1412.2 405c-.5 2.5-.9 4.6-1.4 6.8-2.3 10-4.7 20-6.2 30.2-1 6.7-1.4 13.5-1.4 20.3 0 9 1.1 17.8 1.9 26.7.4 4.4.8 8.7 1.2 13.1.7 7.8 1.5 15.5 2.2 23.3.4 4.1.7 8.3 1.1 12.4.9 9.5 1.9 19 2.8 28.6l1.5 17.1c.8 8.6 1.6 17.1 2.4 25.7 1.1 11.2 2.2 22.4 3.2 33.6.6 6.2 1.1 12.4 1.7 18.6l2.7 27.6 2.1 23.1c.7 7.4 1.5 14.9 2.2 22.3.4 4.4.7 8.7 1.2 13.1.7 7.6 1.5 15.2 2.2 22.8.5 5.6 1 11.3 1.5 16.9.8 8.4 1.7 16.8 2.3 25.2.6 7.9.9 15.8.2 23.7-.5 5.6-.8 11.3-1.5 16.9-1.7 13.5-5 26.6-9.8 39.3-4.4 11.7-10.5 22.5-17.6 32.8-7.9 11.5-15.7 23.1-23.6 34.6-.4.6-.8 1.1-1.2 1.6-4.5-3.3-8.9-6.5-13.6-9.8 1.1-1.6 2.2-3.6 3.5-5.3 9.4-12.9 18.2-26 25.2-40.4 2.3-4.8 5.1-9.4 7.2-14.3 5.1-12.1 8.9-24.7 10.8-37.8 1-6.9 2.1-13.9 1.9-20.9-.1-5 .1-9.9-.2-14.9-.4-6.5-1-13-1.6-19.5-.3-3.7-.7-7.3-1.1-10.9-.9-9.3-1.9-18.5-2.8-27.8-.6-5.6-1-11.3-1.6-16.9-1-10.1-2.1-20.1-3.2-30.2-.6-5.4-1-10.8-1.6-16.2-.7-6-1.5-12-2.2-18-.5-4-.8-8.1-1.2-12.1-.7-7.4-1.5-14.7-2.2-22.1-.6-5.6-1.1-11.1-1.6-16.7-.9-8.6-1.8-17.3-2.7-25.9-.6-5.8-1.1-11.6-1.6-17.4-.9-8.9-1.8-17.8-2.7-26.6-.6-5.6-1.1-11.3-1.6-16.9-.7-6.7-1.5-13.3-2.2-20-.6-5.4-1.1-10.8-1.6-16.2-.8-7.9-1.6-15.9-2.4-23.8-.5-4.7-1.1-9.4-1.3-14-.1-4 .1-8 .4-12 .6-8.9 2.4-17.7 4.6-26.3 1.9-7.4 5.2-14.2 9.7-20.4l1.5-1.8c2.2-2.6 4.7-4.1 8.3-2.6 1.9.8 3.9.9 6.2 1.4zm5.3 471.1c1.8.2 2.7-.6 3.2-1.6 1.1-2.5 2.4-5.1 3.3-7.7 3-9.8 4.4-19.9 4.9-30.1.2-4.6.1-9.3 0-13.9-.1-3.3-.3-6.7-.4-10-.1-2.8 0-5.6-.3-8.3-.8-9.6-1.8-19.2-2.7-28.8-.6-7.1-1.3-14.1-1.9-21.2-1-11.1-1.9-22.2-2.9-33.3-1-10.6-1.9-21.3-2.9-31.9-.7-8-1.5-16-2.3-24-.7-7.6-1.4-15.2-2.1-22.9-.7-7.1-1.5-14.3-2.3-21.4-.7-5.7-1.5-11.3-2.3-17-.1-.7-.6-1.3-.9-2-.2 0-.4.1-.6.1-.2 1.7-.5 3.4-.5 5 .2 5.7.6 11.5.9 17.2s.7 11.3 1.2 17c.7 8.5 1.5 17 2.2 25.5.5 6.3 1.1 12.5 1.6 18.8 1 11.1 2.1 22.2 3.2 33.3.6 6.8 1.3 13.6 1.9 20.5 1 11 2 22.1 3 33.1.5 6.1 1 12.2 1.5 18.4.4 4.6.7 9.2 1.1 13.8.4 5.6 1 11.1 1.2 16.7.2 5.3 0 10.6-.3 15.8-.4 5.4-.9 10.8-1.9 16.1-1.2 6.6-2.9 13-4.4 19.6-.5.9-.4 2-.5 3.2zm-22.9-419.4c-1.5 1.5-2.2 2.5-2.3 4.2-.2 4.1-.6 8.3-.4 12.4.4 7.6 1.2 15.1 1.9 22.6.9 10.1 1.9 20.2 3 30.2.6 5.8 1.4 11.5 2.1 17.3 1 8.1 2 16.3 3.1 24.4.6 4.3 1.2 8.7 1.9 13 .3 1.5.8 3 2.6 4.1.3-.9.6-1.5.7-2.2.1-1 0-2.1-.1-3.1-.5-5.9-1-11.8-1.5-17.6l-1.5-16.2-2.7-26.4c-.4-4.1-.8-8.3-1.2-12.4-.9-9-1.8-17.9-2.6-26.9-.5-6-.7-12.1-1.2-18.1 0-1.7-.3-3.6-1.8-5.3zm18 442.2c-.5.4-1 .6-1.2 1-1 1.5-1.9 3.1-2.9 4.7-5.5 9-10.9 18-16.5 26.9-3.9 6.3-8.1 12.4-12.1 18.7-.4.6-1 1.2-.7 2.2 1.3.6 2.6.2 3.5-.7 1.3-1.2 2.6-2.4 3.6-3.8 4.1-6 8.3-11.9 12.2-18.1 3.5-5.6 6.7-11.4 9.8-17.3 1.5-2.9 2.7-6 3.8-9 .6-1.4 1-2.8.5-4.6zM1518.3 99.4c-5.3 22.8-10.4 45.2-15.7 67.9-2.7-.6-5.2-1.1-7.7-1.7-20.1-4.6-40.3-9.2-60.4-13.9l-.9-.3c-2.2-.6-2.6-1.2-2.2-3.4.6-2.9 1.3-5.8 1.9-8.6l11.1-49.5c.3-1.2.5-2.5.7-3.8.5-2.3 1.4-3 3.7-2.6 2.5.5 5 1.1 7.5 1.6 18.9 4.4 37.8 8.7 56.7 13.1 1.7.6 3.5.8 5.3 1.2zm-9.5 7.6c-.1 0-.2 0-.3-.1 0-.6.2-1.3 0-1.9-.3-.9-.4-2.1-1.6-2.5-1-.3-2.3.4-3 1.6-.3.5-.5 1-.7 1.5-.6 2-1.3 3.9-1.8 5.9-1.6 7.1-3.3 14.1-4.8 21.2-1.5 6.7-2.8 13.4-4.2 20.1-.2 1.2-.3 2.6-.1 3.8.1.8.6 1.6 1.7 1.8 1.1.3 1.7-.2 2.3-.9.4-.5.8-1.2 1-1.9.6-1.7 1.1-3.3 1.5-5 2.5-10.5 5.1-21.1 7.5-31.6 1-3.8 1.7-7.9 2.5-12zM1417.4 251.7c10.7 2.5 21.4 4.9 31.8 7.3-2.7 11.6-5.6 23.2-8.3 34.9-2.6 11.4-5.2 22.9-7.7 34.3-3.4 15.1-6.8 30.2-10.1 45.3-1.5 6.8-3 13.5-4.5 20.3-.4 1.9-.6 3.8-.9 5.6-10.8-2.5-21.6-5-32.7-7.5.7-2.2 1.5-4.4 2.1-6.6 2.4-9.4 4.8-18.8 7-28.3 3.4-14.7 6.7-29.4 9.9-44.1 3.9-17.3 7.7-34.7 11.5-52 .7-3 1.3-6 1.9-9.2zm-6.2 131.5c1.9-.5 2.4-1.5 2.7-2.8 1.7-6.4 3.5-12.8 5-19.2 3.4-14.1 6.8-28.2 10.1-42.3 2.4-10.1 4.8-20.2 7-30.3 1-4.3 1.7-8.8 2.4-13.2.1-.9-.1-1.9-.4-2.8-.4-1.1-1.2-1.3-2-.5-.8.9-1.7 2-2.1 3.1-1.3 3.6-2.7 7.2-3.6 10.9-2.6 10.5-4.9 21.1-7.3 31.7-2.5 11.1-5.2 22.2-7.4 33.4-1.9 9.3-3.3 18.7-4.7 28-.4 1.4.1 2.6.3 4zM1387.1 334.9c-2.6 11.5-5.2 22.8-7.8 34.1-15-7.3-27.1-26.8-23.2-48.2 4.4-24.5 25.7-37.9 43.2-38-.7 3-1.4 5.8-2 8.8-2.8-1.7-5.4-3.4-8-4.9-1.9-1.1-2.7-.9-4.4.7-2.5 2.3-4.4 5-6.4 7.7-2 2.9-4.2 5.6-6.1 8.6-2.1 3.4-4.1 6.8-5.8 10.4-1 2.3-1.3 4.1 1.7 6.5 4.3 3.5 8.7 6.7 13.1 10.1 1.9 1.5 3.7 2.8 5.7 4.2zM1450.3 210.9c-1.8 9-3.6 17.9-5.3 26.9-.4 1.9-.5 3.9-.6 5.9-.1 1 .2 2 .4 3.1 1.8-.2 2.5-1.3 2.9-2.7 1.1-3.8 2.4-7.6 3.3-11.5 1.4-5.9 2.6-11.8 3.9-17.7.2-.8.5-1.7.8-2.8 1.8.3 3.6.6 5.6 1-.9 3.8-1.8 7.5-2.6 11.1l-5.7 24.9c-.3 1.4-1 2.8-1.5 4.1-9.5-2.2-18.7-4.3-28.2-6.5-.1-1.4-.5-2.8-.2-4 2.7-10.9 5.5-21.8 8.3-32.6.2-.8.6-1.5 1-2.1.6-1 1.5-1.3 2.7-1.1l15.3 3.9c-.2 0-.2.1-.1.1zM1342.7 1004.8c-4.7-3.2-9.4-6.4-14.4-9.7 4.4-6.3 8.8-12.5 13-18.7 4.9-7.2 9.8-14.3 14.7-21.5 1.2-1.8 1.2-1.8 3-.8 4.8 2.5 9.6 5.1 13.8 8.8-9.9 13.8-19.9 27.8-30.1 41.9zM1484.4 356.6c-5.7 8.1-11.4 16.2-17.2 24.4-6.8-4.9-13.7-9.8-20.8-14.8 5.8-8.1 11.5-16.1 17.4-24.4 6.9 4.9 13.7 9.8 20.6 14.8zm-31.4 6.8c.2.4.4 1.5 1 2 2.8 2.4 5.7 4.6 8.6 6.9.5.4 1.2.5 1.8.7 1.1.3 2.7-.5 3.1-1.4.4-1 0-2.1-1.4-3.2-2.5-2-5-4-7.6-5.8-1.1-.7-2.5-1.1-3.7-1.3-1.3-.3-1.7.2-1.8 2.1zM1455.6 341.3c-4.3 6-8.6 12.1-13.1 18.4-2.6-2.1-5.1-4.1-7.8-6.2 1.7-7.6 3.4-15.2 5.2-23.2 5.3 3.7 10.4 7.3 15.7 11zM1192 1150.9c2.1-.4 3.4.3 4.7 1.1 3.7 2.3 7.2 4.7 10.9 6.9 11.9 7.4 23.1 15.7 34.5 23.9 1.6 1.1 2.9 2.7 4.3 4.1.4.4.6 1.1.9 1.7-1.4.7-2.5.5-3.6 0-2.5-1.3-5-2.5-7.3-4.1-6.9-4.7-13.8-9.5-20.6-14.4-5.7-4-11.2-8.2-16.8-12.4-1.8-1.4-3.5-3-5.2-4.6-.7-.5-1.1-1.2-1.8-2.2z"/><path class="st0" d="M1375.7 311.2c4.2-6 8.3-11.8 12.5-17.7 2.3 1.7 4.8 3.5 7.4 5.4-1.7 7.5-3.5 14.9-5.3 22.7-5-3.6-9.7-7-14.6-10.4zM1225.7 1128.7c-.8-.1-1.6-.1-2.4-.3-3.7-.9-6.1-3.6-6-7.1.1-4.6 2.9-7.9 6.3-8.6 4.9-1 9.8 2.2 10.7 7.1.8 4.3-2.6 8.3-7.4 8.8-.4 0-.8 0-1.2.1 0-.1 0 0 0 0zM1267.1 1156.3c-4.7 0-8.3-3.2-8.2-7.5.1-4.5 2.6-8.5 8.5-8.7 4.4-.2 8.6 4.4 8.5 9 0 4-4 7.2-8.8 7.2zM1379.8 969.3c1 1.1 1.9 2 2.7 2.9-9.7 13.7-19.3 27.3-29 41.1-1.2-1.1-2.4-2.1-3.8-3.2 10.7-13 20.1-26.9 30.1-40.8zM1480.1 172.8c0 .2-.2 1-.3 1.8-1.9 8.5-3.8 17.1-5.8 25.6-.4 1.7-.9 3.4-1.4 5.1-.2.5-.4 1.1-.7 1.5-.5.9-1.3 1.4-2.4 1.2s-1.4-1.1-1.5-1.9c-.1-.9-.1-1.9.1-2.8 1.8-8.2 3.6-16.5 5.5-24.7.4-1.9.8-3.7 1.3-5.6.2-.9.6-1.8 1-2.7.5-.8 1.1-1.5 2.3-1.3 1.3.2 1.6 1.1 1.9 2.1.1.3 0 .7 0 1.7zM1410.2 462.6c0-2.5-.1-4.6 0-6.8 0-.6.4-1.3.8-1.8 3.2-3.9 3.6-8.1 1.5-12.7-.3-.6-.6-1.2-.5-1.8.4-2.5.9-5 1.4-7.8 5.7 4.8 8.1 10.6 7.1 17.5-.8 6.3-4.2 10.8-10.3 13.4zM1277.7 1139.8c-1.9-1.4-3.7-2.7-5.6-4.1.5-.6 1-1.4 1.5-2.1 1.3-1.7 2.5-3.5 3.9-5.1 1.3-1.5 3-1.6 4.5-.6 1.2.8 1.7 3.3.8 4.6-1.7 2.5-3.5 4.9-5.1 7.3zM1236.2 1112.4c-2-1.5-3.7-2.8-5.6-4.2 1.8-2.3 3.6-4.8 5.6-7.2 1.2-1.5 3.1-1.6 4.5-.5 1.2.9 1.6 3.3.7 4.6-1.7 2.5-3.4 4.8-5.2 7.3zM1447.7 327.8c-2.1-1.5-4-2.9-6.2-4.5.9-4 1.8-7.9 2.7-12 2.1 3.1 4 12.1 3.5 16.5zM1282.4 1040.2c-2 0-3.7-1.7-3.8-3.8 0-1.9 2-3.9 4-4 2.2 0 3.9 1.8 4 4.2.1 2.1-1.6 3.5-4.2 3.6zM1345.8 1047.8c-2.2-.1-3.9-2.1-3.8-4.4.1-2 1.9-3.4 4.4-3.4 2 0 3.7 2 3.6 4-.1 1.9-2.3 3.9-4.2 3.8zM1318.8 1078.4c2 0 3.6 1.8 3.5 4-.1 2-2.1 3.9-4.2 3.8-2.2-.1-3.8-2-3.7-4.4.1-2.1 1.8-3.5 4.4-3.4zM1255.1 1070.8c2.3 0 3.9 1.7 3.9 4.2 0 2.2-1.6 3.5-4.2 3.6-2.1 0-3.7-1.6-3.7-3.8 0-2.1 1.9-4 4-4zM1285.2 1100.3c-2.3.1-3.6-2-3.6-3.9 0-2 2.1-3.8 4.2-3.8 2.2 0 3.9 2 3.8 4.4-.1 2.1-1.8 3.4-4.4 3.3zM1289.2 1056.6c2.1 0 3.7 1.8 3.6 3.9 0 2-2.1 3.8-4.2 3.8-2.2 0-3.9-2-3.8-4.3.1-2.1 1.9-3.5 4.4-3.4zM1316.8 1018.2c2.1 0 3.6 1.7 3.6 3.9 0 2.1-1.9 3.8-4.1 3.8s-3.8-1.9-3.8-4.3c0-2.2 1.7-3.5 4.3-3.4zM1312.8 1061.9c-2.1 0-3.6-1.7-3.6-3.9.1-2 2-3.8 4.1-3.8 2.2 0 3.8 1.9 3.8 4.4-.1 2.1-1.7 3.4-4.3 3.3zM1340.4 1056.6c0 2-1.5 3.6-3.4 3.6-2 0-4-1.9-4.1-3.7-.1-1.7 1.8-3.6 3.7-3.7 2.1-.1 3.8 1.6 3.8 3.8zM1298.6 1083.9c.1 1.8-1.8 3.6-3.7 3.7-2.1.1-3.7-1.5-3.8-3.8 0-1.9 1.6-3.6 3.4-3.6 1.9 0 4 1.9 4.1 3.7zM1291.9 1027.3c-2.1 0-3.7-1.6-3.7-3.8 0-1.9 1.5-3.4 3.2-3.5 2.1-.1 4.3 1.8 4.3 3.7 0 1.8-1.9 3.6-3.8 3.6zM1283.3 1073.1c.1 1.9-1.5 3.6-3.3 3.7-1.9 0-4-1.8-4.1-3.6-.1-1.8 1.7-3.6 3.7-3.7 2-.2 3.6 1.3 3.7 3.6zM1326.1 1045.6c0 1.8-1.9 3.6-3.8 3.6-2.2 0-3.6-1.6-3.5-3.9 0-1.9 1.5-3.4 3.2-3.5 2.1-.1 4.2 1.9 4.1 3.8zM1309.2 1091.2c2.1 0 3.6 1.6 3.6 3.9 0 2-1.4 3.4-3.2 3.5-2.1.1-4.2-1.8-4.1-3.8-.1-1.9 1.8-3.6 3.7-3.6zM1307.5 1031c2.2.1 3.5 1.7 3.3 4.1-.1 1.9-1.7 3.3-3.5 3.2-2.1-.1-4-2.1-3.9-4 .2-1.8 2.1-3.4 4.1-3.3zM1268 1062.5c-.2 1.8-2.2 3.4-4.1 3.2-2.1-.2-3.4-1.9-3.2-4.2.2-2 1.7-3.3 3.8-3.1 2.1.3 3.7 2.1 3.5 4.1zM1301.2 1014.5c-2 0-3.6-1.8-3.7-4-.1-1.8 1.4-3.1 3.4-3.1 2.2 0 3.5 1.4 3.5 3.7 0 2-1.4 3.4-3.2 3.4zM1327.8 1072.8c-2.1 0-3.5-1.5-3.5-3.7 0-2 1.4-3.5 3.2-3.5 2 0 3.8 2 3.8 4.1-.2 1.7-1.7 3-3.5 3.1zM1304 1074.8c-2-.1-3.9-2.2-3.6-4.3.2-1.6 1.7-3 3.5-2.9 2.1.1 3.5 1.5 3.4 3.8-.1 1.9-1.6 3.5-3.3 3.4zM1334.8 1032.8c0 2-1.2 3.6-3 3.6-2 .1-3.9-1.9-3.8-4.1 0-1.7 1.5-3 3.3-3.1 2.2 0 3.5 1.3 3.5 3.6zM1270.5 1089.3c-2.2 0-3.5-1.5-3.4-3.7.1-1.9 1.6-3.5 3.3-3.4 1.9.1 3.6 2 3.6 4.1.1 1.6-1.5 3-3.5 3zM1296.7 1107.6c0-2.1 1.2-3.5 3-3.5 2.1-.1 3.9 1.9 3.8 4.1 0 1.7-1.5 3-3.3 3.1-2.2-.1-3.5-1.4-3.5-3.7zM1294.8 1047.3c0-2 1.4-3.5 3.1-3.5 2 0 3.8 2.1 3.7 4.2-.1 1.7-1.5 2.9-3.4 3-2.2-.1-3.4-1.4-3.4-3.7zM1276.7 1049.4c0 2.1-1.3 3.5-3.1 3.5-2 0-3.8-2-3.7-4.1.1-1.7 1.5-2.9 3.4-3 2.2 0 3.4 1.3 3.4 3.6zM1261.7 1160.3c-2 2.3-3.9 2.7-5.3 1.3-1.3-1.4-1-3.1.8-4.6 1.5 1.1 3 2.1 4.5 3.3zM1215.5 1129.2c1.6 1.2 3 2.3 4.4 3.4-.8 1.4-1.9 2.3-3.7 2.1-1.2-.1-1.9-.9-2.2-2.2-.3-1.6.3-2.6 1.5-3.3z"/><path d="M1417.5 876.1c.1-1.2 0-2.3.2-3.3 1.5-6.5 3.2-13 4.4-19.6 1-5.3 1.5-10.7 1.9-16.1.4-5.3.5-10.5.3-15.8-.2-5.6-.8-11.1-1.2-16.7-.3-4.6-.7-9.2-1.1-13.8-.5-6.1-.9-12.2-1.5-18.4-1-11-2-22.1-3-33.1-.6-6.8-1.3-13.6-1.9-20.5-1-11.1-2.1-22.2-3.2-33.3-.6-6.3-1.1-12.5-1.6-18.8-.7-8.5-1.5-17-2.2-25.5-.5-5.6-.8-11.3-1.2-17-.4-5.7-.7-11.5-.9-17.2-.1-1.7.3-3.4.5-5 .2 0 .4-.1.6-.1.3.7.8 1.3.9 2 .8 5.7 1.6 11.3 2.3 17 .9 7.1 1.6 14.2 2.3 21.4.8 7.6 1.4 15.2 2.1 22.9.8 8 1.6 16 2.3 24 1 10.6 2 21.3 2.9 31.9 1 11.1 2 22.2 2.9 33.3.6 7.1 1.2 14.1 1.9 21.2l2.7 28.8c.2 2.8.2 5.6.3 8.3.1 3.3.4 6.7.4 10 .1 4.6.2 9.3 0 13.9-.5 10.2-1.9 20.3-4.9 30.1-.8 2.6-2.1 5.2-3.3 7.7-.2 1.2-1.1 1.9-2.9 1.7zM1394.6 456.7c1.5 1.6 1.8 3.6 2 5.4.4 6 .7 12.1 1.2 18.1.8 9 1.7 17.9 2.6 26.9.4 4.1.7 8.3 1.2 12.4l2.7 26.4 1.5 16.2c.5 5.9 1 11.8 1.5 17.6.1 1 .1 2.1.1 3.1-.1.7-.4 1.3-.7 2.2-1.8-1.1-2.4-2.6-2.6-4.1-.7-4.3-1.4-8.6-1.9-13-1.1-8.1-2.1-16.3-3.1-24.4-.7-5.8-1.5-11.5-2.1-17.3-1.1-10.1-2-20.1-3-30.2-.7-7.5-1.5-15.1-1.9-22.6-.2-4.1.1-8.3.4-12.4-.1-1.8.6-2.8 2.1-4.3zM1412.6 898.9c.5 1.8 0 3.3-.5 4.6-1.2 3-2.3 6.1-3.8 9-3.1 5.8-6.3 11.7-9.8 17.3-3.8 6.2-8 12.1-12.2 18.1-1 1.4-2.3 2.6-3.6 3.8-1 .9-2.2 1.2-3.5.7-.3-1 .3-1.6.7-2.2 4-6.2 8.2-12.4 12.1-18.7 5.6-8.9 11-17.9 16.5-26.9 1-1.6 1.9-3.1 2.9-4.7.3-.4.7-.6 1.2-1zM1508.8 107c-.8 4.1-1.5 8.1-2.5 12.2-2.5 10.6-5 21.1-7.5 31.6-.4 1.7-.9 3.4-1.5 5-.2.7-.6 1.3-1 1.9-.6.7-1.2 1.1-2.3.9-1-.3-1.6-1-1.7-1.8-.2-1.2-.2-2.6.1-3.8 1.3-6.7 2.7-13.4 4.2-20.1 1.5-7.1 3.2-14.2 4.8-21.2.5-2 1.2-4 1.8-5.9.2-.5.4-1 .7-1.5.7-1.2 2-1.8 3-1.6 1.3.3 1.3 1.5 1.6 2.5.2.6 0 1.3 0 1.9.1-.1.2-.1.3-.1zM1411.2 383.2c-.2-1.4-.7-2.7-.5-3.9 1.5-9.4 2.9-18.7 4.7-28 2.2-11.2 4.9-22.3 7.4-33.4 2.4-10.6 4.7-21.2 7.3-31.7.9-3.7 2.3-7.3 3.6-10.9.4-1.2 1.3-2.2 2.1-3.1.8-.9 1.6-.7 2 .5.3.9.5 1.9.4 2.8-.7 4.4-1.4 8.8-2.4 13.2-2.2 10.1-4.6 20.2-7 30.3-3.3 14.1-6.7 28.2-10.1 42.3-1.6 6.4-3.3 12.8-5 19.2-.1 1.2-.6 2.2-2.5 2.7zM1453 363.4c.1-1.8.5-2.4 1.7-2.2 1.3.2 2.7.6 3.7 1.3 2.6 1.8 5.1 3.8 7.6 5.8 1.4 1.1 1.9 2.2 1.4 3.2-.4 1-2 1.7-3.1 1.4-.6-.1-1.3-.3-1.8-.7-2.9-2.2-5.8-4.5-8.6-6.9-.5-.5-.7-1.5-.9-1.9z"/></svg>