<?xml version="1.0" encoding="utf-8"?>
<!-- Generator: Adobe Illustrator 22.0.1, SVG Export Plug-In . SVG Version: 6.00 Build 0)  -->
<svg version="1.1" id="Layer_1" xmlns="http://www.w3.org/2000/svg" xmlns:xlink="http://www.w3.org/1999/xlink" x="0px" y="0px"
	 viewBox="0 0 82 62" style="enable-background:new 0 0 82 62;" xml:space="preserve">
<style type="text/css">
	.st0{fill:#FFFFFF;stroke:#000000;stroke-linecap:round;stroke-linejoin:round;stroke-miterlimit:10;}
</style>
<image style="overflow:visible;enable-background:new    ;" width="564" height="564" xlink:href="../../../../../자료/포폴/12b45725a26852390ba07c17819cb78f.jpg"  transform="matrix(1 0 0 1 1299.6414 -89.2314)">
</image>
<path class="st0" d="M26.2,18.4c-5.6,6.4-11.3,12.8-16.9,19.2c-0.4,0.5-0.9,1.1-0.7,1.7c0.1,0.4,0.5,0.6,0.9,0.9
	c2.2,1.8,1.5,5.4,0.6,8.1c14.8,0.1,29.7-0.1,44.5-0.6c0.6,0,1.2,0,1.7-0.3c2.9-2.1,7.3-7.6,8.8-9.8c5.3-8.4,7-8.6,8-13.1
	c0.5-4.2,0.5-8.1-2.2-9.8c-1.4-0.8-4-0.9-5.6-0.9c-7.1,0-14.2,0-21.3,0C36.9,13.8,31.3,12.6,26.2,18.4z"/>
<path class="st0" d="M8.7,39.2c15.5,0,30.2-0.4,45.8-0.4c0.6,0,1.3,0,1.8-0.3c0.5-0.2,0.9-0.7,1.2-1.1C63,31.1,67.8,24.3,72.1,17"/>
<path class="st0" d="M56.1,39.3c0.3,2.2,0.4,4.3,0.5,6.5"/>
<path class="st0" d="M14.5,41.2c11.7-0.6,23.3-0.8,35-0.8"/>
<path class="st0" d="M33.3,42.6c5.8,0,11.7,0,17.5,0"/>
<path class="st0" d="M16.5,45.3c6.5,0,13,0,19.5,0"/>
<path class="st0" d="M44.2,45c3.3,0.7,6.7,0.9,10,0.6"/>
<path class="st0" d="M63.9,25.3c-0.4-0.7-1.5,0.4-2.4,0.3c-0.7-0.1-0.8-1.1-0.8-1.8c0.6,1.1-0.5,2.5-1.7,2.4s-2-1.5-1.7-2.7
	c-0.4,1-0.6,2.1-0.5,3.1c-1.8,0.3-3.7-1.1-3.9-2.9c-0.3,1-1,1.9-1.9,2.4c0.1-0.6-0.2-1.2-0.6-1.6c-0.7,0.4-1.1,1.2-1,2
	c-2.2-0.7-4.3-1.5-6.5-2.2c-0.3-0.1-0.6-0.2-0.9-0.1c-0.8,0.2-1,1.2-1,2c-0.3-1-1.5-1.7-2.6-1.4c-0.7,0.2-1.5,0.7-2.2,0.5
	c-0.3-0.1-0.5-0.4-0.8-0.5c-0.4-0.2-1-0.1-1.4,0.1c-1.5,0.6-2.9,1.6-3.9,2.8c0.8-0.5,1.5-1.2,1.9-2.1c0.1-0.2,0.2-0.4,0.1-0.7
	c-0.4-1-2.9-0.1-3.5,0.2c-1.5,0.7-2.1,1.4-3.9,1.1"/>
</svg>
