<?xml version="1.0" encoding="utf-8"?>
<!-- Generator: Adobe Illustrator 22.0.1, SVG Export Plug-In . SVG Version: 6.00 Build 0)  -->
<svg version="1.1" id="Layer_1" xmlns="http://www.w3.org/2000/svg" xmlns:xlink="http://www.w3.org/1999/xlink" x="0px" y="0px"
	 viewBox="0 0 109.6 35.8" style="enable-background:new 0 0 109.6 35.8;" xml:space="preserve">
<style type="text/css">
	.st0{fill:none;}
	.st1{stroke:#FFFFFF;stroke-width:0.5;stroke-miterlimit:10;}
</style>
<image style="overflow:visible;enable-background:new    ;" width="564" height="564" xlink:href="../../../../../자료/포폴/12b45725a26852390ba07c17819cb78f.jpg"  transform="matrix(1 0 0 1 1313.933 -98.7731)">
</image>
<path class="st0" d="M70.3,20c4.6,5.3,8.7,0.6,8.9-0.3c0.1-0.3,0.1-0.6,0.1-1.1c-3.1-0.1-6.3-0.2-9.2-0.4
	C70.3,18.8,70.3,19.4,70.3,20z"/>
<path class="st1" d="M105.2,17.3c0.3-3.4-0.9-6.7-1.4-7.5c-0.8-1.1-2.8-4.4-8.2-4.5c-5.4-0.1-9.3,0.3-12.4,3.6
	c-3.1,3.3-3.8,5.4-3.9,6.6c0,0.2,0,0.5,0,0.8c0,0-0.1,0-0.1,0c-3.3-0.1-6.5-0.1-9.6-0.1v0c0,0-0.1,0-0.1,0c-1.8-4.1-6.4-5.5-6.4-5.5
	s-5.3-2-11.3,0c-0.7-1.4-1.3-2.7-1.5-3.1c-0.5-0.9-3.3,0.6-2.9,3.1c0.1,0.5,0.4,1.1,0.7,1.8c0,0,0,0,0,0c-1.9,1.2-3.8,3-5.4,5.6
	c0,0-1,2.9-1.1,5.6s-2.3,1.7-3.2,1.4c-0.9-0.3-27.7-6.6-27.7-6.6s-1,0-1.6-1c0,0-0.6-1.1-1.3-4.3s-0.7-3.9-1.9-4
	c-1.2-0.1-3.2,3.2-2.1,6.1c1.1,2.9,2.2,4.2,6.8,5.2s24.4,6.2,28.6,6.8c4.2,0.6,5.8,2.4,8.8,3.4s17,3.3,22.6-6.6
	c5.4,2.5,9.4-0.9,9.7-1.6c0.8,2.3,2.8,3.8,4.3,4.4c5.1,2.1,15.2,1.4,20.1-6.7c0.1-0.2,0.1-0.4,0.2-0.6c0,0,1.3-0.3,1.3-1.2
	C106.2,17.9,106.1,17.6,105.2,17.3z M81.3,15.6c0.4-2,1.1-3.5,3.6-5.9c4.2-4,13.4-3.2,17,0.6c1.7,1.7,1.7,4.8,1.5,6.9
	c-4.7-0.3-14.1-0.6-22.1-0.7c0,0,0,0,0,0C81.2,16.2,81.3,15.9,81.3,15.6z M58.1,11.4c5.2,0.4,8,2.5,9.7,4.8
	c-6.7-0.1-11.6-0.1-11.6-0.1s-1.7,0.1-2.1-0.7c0,0-0.7-1.4-1.4-3c0,0,0-0.1-0.1-0.1C54.9,11.6,56.1,11.3,58.1,11.4z M65.5,27.3
	c-2.9,2.9-13.8,2.6-15.8,2.2c-2-0.4-3.9-2.2-4.9-3.9s0-6.4,0-6.4c0.9-2.3,2.5-4,4.3-5.2c0.3,0.5,0.7,1,0.9,1.4
	c0.6,1.1,3.5,2.2,5.4,2.3c0.6,0,5.1,0.1,12.4,0.4c0.8,0,1,0.3,1.1,0.4C69.6,20.8,68.4,24.4,65.5,27.3z M79.2,19.7
	c-0.3,0.9-4.3,5.6-8.9,0.3c0-0.6-0.1-1.2-0.1-1.8c3,0.2,6,0.3,9.1,0.4C79.3,19,79.3,19.4,79.2,19.7z M95.2,24.8
	c-2.8,0.9-9.9,0.7-11.8-0.7c-1.3-1-2.1-3.1-2.3-5.4c0,0,0,0,0,0c7.9,0.3,17.1,0.6,21.9,0.8C102.1,21.2,98,23.9,95.2,24.8z"/>
</svg>
