<?xml version="1.0" encoding="utf-8"?>
<!-- Generator: Adobe Illustrator 22.0.1, SVG Export Plug-In . SVG Version: 6.00 Build 0)  -->
<svg version="1.1" id="Layer_1" xmlns="http://www.w3.org/2000/svg" xmlns:xlink="http://www.w3.org/1999/xlink" x="0px" y="0px"
	 viewBox="0 0 340 280" style="enable-background:new 0 0 340 280;" xml:space="preserve">
<style type="text/css">
	.st0{fill:#010101;}
	.st1{fill:none;stroke:#010101;stroke-width:0.75;stroke-linecap:round;stroke-linejoin:round;stroke-miterlimit:10;}
	.st2{fill:#FFFFFF;}
	.st3{fill:#FFFFFF;stroke:#010101;stroke-width:0.25;stroke-linecap:round;stroke-linejoin:round;stroke-miterlimit:10;}
</style>
<g>
	<g>
		<path class="st0" d="M75.9,85c0,0,12.1-6.4,12.4-18.6s-8.9-19.7-8.9-19.7l7.9-20c0,0-1.3-5.4-7.9-2.2c-6.6,3.1-16,11.4-16,11.4
			s-3.9-5-11.8-4.8c1.2-7.7-0.6-13.6-0.6-13.6s-2.6-2.4-5,0.3c-2.4,2.6-9.6,10.8-11.9,18c-5.1,8.1-17.2,24.1-15.4,53.6
			c1.8,29.5,10.7,60.1,17,73.6c-2.4,3.6-1.2,5.8,2.1,5c0,0,3.2,6.9,5.3,0.2c2.2,0.8,5.8-1.3,1.1-4.7l-3.4-28.6l18.6,9.2l4.2,16.4
			c0,0-4.1,5,1.1,4.5c1.2,3.5,4.4,4.3,5.2,0.5c3.3,0.5,4.9-2.2,0.5-5.5c0.1-2.3,1.8-9.9,1.8-9.9s14.6,7.9,22.2,6.7
			c2.3,3.2,25.7,34.6,25.7,34.6s-2.5,2.5-2.5,3.8c0,1.3,0.7,2.6,3.5,1.5c0,0,1.6,6.7,4.9,0.5c2.5,1.1,8-0.4,1.6-5.1
			c0.1-5.3-3.6-34.6-3.6-34.6l9.7-3l11.7,27.6c0,0-3.2,3.8-2.7,5c0.5,1.1,1.8,3,4.6,0.4c0.7,3.7,2.5,3.5,3.3,3s1.5-1.9,1.3-3.4
			c2.7,1.4,5.9,0.1,4.9-2.4c-1-2.5-2.8-2.7-2.8-2.7s3.8-28.7-7.4-59.9c6.8,0.1,15.3,0.3,21.9-4.9c6.7-5.2,17.6-14.2,15.9-28.4
			s-6.1-25.5-22.4-29.1s-24.7,3.1-26.5,8.5c-1.8,5.4-0.7,10.4,5.1,10.2c5.7-0.2,11.9-6.7,23.4-0.1c9.5,10.7,7.7,21.4,3.7,25.5
			c-4,4.2-14.1,6.1-24.8,4.4c-4.1-0.7-5.6-0.6-5.6-0.6s-7.4-6.9-12.7-10.8C119.7,93,113.1,88.8,75.9,85z"/>
		<g>
			<path class="st1" d="M98.3,67.2c0,0-3-0.2-3.8,0.2"/>
			<path class="st1" d="M98.7,72.3c0,0-4.7-2.5-6.2-1.6"/>
		</g>
		<ellipse class="st2" cx="129.3" cy="125" rx="1.4" ry="2.4"/>
		<g>
			<path class="st0" d="M129,124.3l0.2,0.3c0.1,0.1,0.1,0.1,0.1,0.2h0c0-0.1,0.1-0.2,0.1-0.2l0.2-0.3h0.3l-0.5,0.7l0.5,0.7h-0.3
				l-0.2-0.3c-0.1-0.1-0.1-0.2-0.2-0.2h0c0,0.1-0.1,0.2-0.1,0.2l-0.2,0.3h-0.3l0.5-0.7l-0.5-0.7H129z"/>
		</g>
		<path class="st3" d="M86.8,63.2h-8.2c0,0-3.3-0.6-0.4-2c3-1.4,7.3-2.7,7.3-2.7S87.6,60.2,86.8,63.2z"/>
		<ellipse class="st0" cx="85" cy="60.9" rx="0.4" ry="1.2"/>
	</g>
</g>
<path class="st0" d="M231.2,129.9c0,0,18.3,0,25.2,7.2c0,0,13.7-8.4,18.7-5.5c4.9,2.9,1,16-9.4,22.1c-0.2,7,4.5,25.8-19.3,30.1
	c0,0,2.7,5.5,7,5.9c4.3,0.4,9.6,2.3,14.1,5.5s20.7,16.2,22.6,19.1c1.8,2.9,3.1,2.1,6.6,0c3.5-2.1,11.1-8,8.8-13.5
	s-10.7-18.3-11.3-20.3c-0.6-2.1-2.1-9.8,2.7-10.9c4.7-1,13.9-4.9,20.1,4.7s5.5,22.6,3.9,28.1s-3.1,20.3-26.5,25.8
	c0,0,2.3,33.2-1,33.6c-3.3,0.4-3.5,4.1-3.5,0c0-4.1-2.5-13.3-7.2-18.9c-4.7-5.5-4.7-7-4.7-7l-2.5,0.8c0,0-0.8,17.2-2.1,20.3
	c-1.2,3.1-5.3,4.3-5.5,2.7c-0.2-1.6-1-14.1-6.4-19.5c0,0-1.6,17.2-2.3,20.1s-4.7,2.9-5.1,1.6c-0.4-1.2-1.8-17.8-3.3-21.1
	s-2.9-5.5-2.9-5.5s-0.6,5.7-1.6,10.5c-1,4.7,0.4,15.2,0.4,15.2s-2.3,3.1-3.1,1.6s-12.5-35.7-12.5-35.7s-5.1-19.3-5.1-24
	s-1-14.8-1-14.8s-4.5-1.6-9.6-4.5c-5.1-2.9-13.3-10.9-14.8-20.5s5.9-20.5,14.1-25.4c0,0-2.3-20.5,3.1-20.7
	C223.2,116.9,231.2,129.9,231.2,129.9z"/>
</svg>
