<?xml version="1.0" encoding="utf-8"?>
<!-- Generator: Adobe Illustrator 22.0.1, SVG Export Plug-In . SVG Version: 6.00 Build 0)  -->
<svg version="1.1" id="Layer_1" xmlns="http://www.w3.org/2000/svg" xmlns:xlink="http://www.w3.org/1999/xlink" x="0px" y="0px"
	 viewBox="0 0 160 220" style="enable-background:new 0 0 160 220;" xml:space="preserve">
<style type="text/css">
	.st0{fill:#FFFFFF;stroke:#010101;stroke-miterlimit:10;}
	.st1{fill:none;stroke:#010101;stroke-linecap:round;stroke-linejoin:round;stroke-miterlimit:10;}
	.st2{fill:#010101;}
	.st3{fill:#FFFFFF;}
	.st4{fill:none;stroke:#FFFFFF;stroke-linecap:round;stroke-linejoin:round;stroke-miterlimit:10;}
	.st5{fill:none;stroke:#FFFFFF;stroke-width:0.5;stroke-linecap:round;stroke-linejoin:round;stroke-miterlimit:10;}
	.st6{fill:#FFFFFF;stroke:#010101;stroke-width:0.75;stroke-linecap:round;stroke-linejoin:round;stroke-miterlimit:10;}
	.st7{fill:#FFFFFF;stroke:#000000;stroke-linecap:round;stroke-linejoin:round;stroke-miterlimit:10;}
	.st8{fill:none;stroke:#000000;stroke-linecap:round;stroke-linejoin:round;stroke-miterlimit:10;}
</style>
<g>
	<path class="st0" d="M65.3,190.9c0,0-0.9,0.4-0.6,0.8c0.3,0.4,0.7,1,1,0.6C66.1,192.1,66,191.5,65.3,190.9z"/>
	<g>
		<g>
			<path class="st1" d="M13,89.7c0,0,5.8,0.8,7.2,1.9"/>
			<path class="st1" d="M12.4,96.7c0,0,6.3-1.9,8-0.4"/>
			<path class="st2" d="M28.8,111.9c0,0-5.2-9.2-3.9-21.8c0.9-7.9,4.4-17.2,10.5-26.3c3.3-5,6.8-8.3,8.6-6.7c1.8,1.6,5.5,9,2.8,13.8
				c0,0,7.6-2.6,14.7-0.9c3.5-3.1,10.8-9.7,11.9-10s3.6-1.4,5.7,2.4s-2,14.3-3.4,15.3c1.6,2.2,14.5,16,1.6,28.7
				c3.6,3.7,6.1,7.3,1.8,15.6c0.5,8.1,1.1,16.6,7.4,27.5c2.2-3.1,6-4.8,9-4c3.1,0.8,5.3,1.8,7.8,6.2c2.7-3.7,6.8-1.6,6.8-1.6
				s4.4,1.9,1.7,6.1c1.5,2.7,11.6,11,9.1,20.5c-0.5,2.3-0.9,2.6-0.9,2.6s4.5-3.5,5.4-4.8c0.9-1.3,5.7-5.5,6-13s-1-13.6-7.5-16.9
				c-6.4-3.3-11.2-2.8-12-12.6c-0.4-5.5,5.8-12.8,14.1-11.9c0,0,7.9-0.3,14,10.4s9.7,20.1,6.9,32.6c-3.5,15.8-22.3,28.5-25.8,29.9
				c-3.5,1.4-5.5,2.4-5.5,2.4s0.6,1.7-3.2,5.5s-11.2,9.6-19.3,11c-8.1,1.4-24.9,0.8-34.9-7S41.4,188,35.1,173.4
				C28,157,27.1,136,27.1,136s0.9-16.2,1.5-19.4C29.3,113.4,28.8,111.9,28.8,111.9z"/>
			<path class="st1" d="M92.6,86.5c0,0-5.4,2.2-7.1,2"/>
			<path class="st1" d="M89.6,80.1c0,0-4.6,4.8-6.8,4.3"/>
		</g>
		<path class="st3" d="M61.4,85c0,0,0.5,0.4,1.4-0.1s6-2.8,8.1-3c2.1-0.2,4.8-1.1,3.6-1.9c-1.2-0.8-5.9-1.3-9.7,1.2
			C63.4,82.2,61.2,84,61.4,85z"/>
		<ellipse transform="matrix(0.9912 -0.1322 0.1322 0.9912 -10.3784 9.4685)" class="st2" cx="66.1" cy="82.9" rx="0.2" ry="0.7"/>
		<path class="st3" d="M54.7,85.9c0,0-1.2,0.2-2.1-0.1c-1-0.3-6.5-1.4-8.6-1.1c-2.1,0.3-4.9,0-3.9-1c1-1,5.6-2.8,9.7-1.1
			S54.7,84.8,54.7,85.9z"/>
		
			<ellipse transform="matrix(0.9952 -9.814932e-02 9.814932e-02 0.9952 -8.0662 5.2106)" class="st2" cx="48.9" cy="84.6" rx="0.2" ry="0.7"/>
		<path class="st4" d="M61.2,88.9c0,0-1.7,1.8-3.3,1"/>
		<path class="st0" d="M78.1,65.6c0,0-0.8-5.3-5.1-2.3c-1.9,1.3-6.7,5.5-7.2,6.6c-0.5,1-1.1,2,2.1,4.3
			C72.2,77.2,77.3,79.5,78.1,65.6z"/>
		<path class="st0" d="M46,62c0,0-1.8-7-5.9-1.6c-1.4,1.8-5.3,6.9-5.5,8.1c-0.2,1.1-1.6,3.6,3.1,3.7C43.3,72.3,47.9,73.2,46,62z"/>
		<path class="st4" d="M32.1,117.9c0,0,3-8.5,9-11.8c6.5-3.5,12.1,4.3,13.2,6.1c1.1,1.8,7.4,10.9,2.6,15.7c-4.4,4.5-7.4-0.1-7.4-0.1
			s-3-7.5-4.3-8.1"/>
		<path class="st4" d="M64.9,111.4c0,0,7.2-8.2,13.5-5.1"/>
		<path class="st4" d="M70.8,114c0,0-5,7.5-3.3,11.9c1.7,4.5,3.7,3.5,3.7,3.5s4.9,0.3,8.7-7.5"/>
		<path class="st4" d="M82.1,177.3c0,0-1.9-7.1-12-9.1c-10.1-2-15.6,8.6-15.6,8.6"/>
		<path class="st4" d="M88.8,194.6c0,0-10.6-14.3-5.2-21.6c1.4-1.6,4.6-2.6,6.2-0.1c2.3,3.5,3.2,9.7,5.5,12.8s8.1,8.5,8,11.7"/>
		<path class="st4" d="M110.7,172.4c0,0-11.9-12.2-7.5-21.3"/>
		<path class="st4" d="M86.8,148.4c0,0-3,4.7-1.8,8.4"/>
		<line class="st0" x1="117.4" y1="183" x2="120" y2="179"/>
		<path class="st4" d="M59.3,90.1c0,0,0.9,1.4,0.2,3.4c0,0-0.6,1.4-1.3,1.4"/>
		<path class="st4" d="M59.5,93.6c0,0,0.6,0.9,1.7,1"/>
		<path class="st3" d="M87.2,177.7c0,0-0.6,0.8,0,1.7c0.6,0.9,1.2,2.1,2,1.2c0.8-0.9,1.5-2.1,0.2-3.3
			C88.1,176.1,87.2,177.7,87.2,177.7z"/>
		<path class="st3" d="M84.4,175.2c0,0-1,0.4-0.4,1.3c0.6,0.8,1.2,0.8,1.8,0.3C86.4,176.3,85.5,174.5,84.4,175.2z"/>
		<path class="st3" d="M86,173.8c0,0-0.5,0.7,0,1.2c0.5,0.5,1,0.8,1.3,0.2S86.6,173.2,86,173.8z"/>
		<path class="st3" d="M88.5,173.5c0,0-0.8,0-0.7,0.7s0.5,1.4,1,1C89.4,174.8,89.2,173.5,88.5,173.5z"/>
		<path class="st5" d="M107.5,158.1c0,0,1.8-1,0.9-3.2"/>
		<path class="st5" d="M108.5,157c0,0,2.4-0.4,1.9-2.2"/>
		<path class="st5" d="M109.8,156.5c0,0,1.5,0.3,2-0.6"/>
		<path class="st3" d="M107.9,157.9c0,0,0,1,0.7,1.3s1.3-0.1,1.6-0.7c0.3-0.7,0.1-1.3-0.3-1.6C109.5,156.5,108.7,156.6,107.9,157.9z
			"/>
		<path class="st6" d="M68.4,68.8c0,0-2.9,1.1-2.9,2.3"/>
		<path class="st6" d="M45.6,70.1c0,0-0.3-3.1-1.5-3.4"/>
	</g>
	<g>
		<g>
			<path class="st7" d="M109.2,39.8c0,0-7.4,1.4-9.2,5.1c-1.8,3.7-3.9,8.1-4,10.5c-0.1,2.4,0.3,8.9,2.9,12.2
				c2.6,3.3,5.4,5.7,10.8,6.2s9.6-0.1,12.4-2.1c2.8-2,7.2-6.6,7.9-12.2s0.4-13.5-5.8-17.1C118,38.8,114.5,39,109.2,39.8z"/>
			<path class="st8" d="M96.1,58c-0.1-2,1.6-4.2,3.4-5.2s3.9-1.3,5.9-1.3c2.1-0.1,4.2,0,6.2,0.2c1.3,0.1,2.7,0.4,3.8,1
				c1.4,0.7,2.5,2,3.4,3.3c2.9,4,5.6,10.2,4.1,14.9"/>
			<path class="st8" d="M96.7,52.6c4.4-2.7,10.1-3.8,15.2-2.9s9.7,4,12.4,8.4c0.6,1,1.1,2.1,1.4,3.3c0.6,2.1,0.5,4.6,0.3,6.8"/>
			<path class="st8" d="M98.1,49.2c3.3-3.2,8.3-4.8,13.2-4.5c3.6,0.2,6.9,1.8,9.8,3.8c2.1,1.5,4.1,3.2,5.4,5.4
				c1.8,2.9,2.7,7.3,1.8,10.6"/>
			<path class="st8" d="M100.6,44c3.2-2.1,7.3-2,11-1.4c3.7,0.6,7.2,2.1,10.5,3.9c1.4,0.8,2.9,1.6,4,2.8c2.6,2.7,3.7,7.7,3.7,11.4"
				/>
			<path class="st8" d="M112.6,39.3c2.5,0.5,5,1.2,6.8,2.9c0.5,0.5,1,1.1,1.6,1.6c2.3,2,6.4,1.9,8.2,4.4"/>
			<path class="st8" d="M102.1,51.9c-5.7,6.4-1.7,14.3-1.4,14.5"/>
			<path class="st8" d="M105.4,53.9c-1.9,2.9-2.1,4.9-2.1,8.5c0,0.6,0.7,3.1,1.3,3.1"/>
			<path class="st8" d="M107.4,56.5c-0.9,1.6-1.3,3.6-1.1,5.5"/>
			<path class="st8" d="M111.3,60.2c-0.7,1.9-1.1,3.8-1.2,5.8c0,1,0,2,0.5,3c0.3,0.7,0.8,1.3,1.3,1.9c0.8,0.8,1.7,1.5,2.6,2.1"/>
			<path class="st8" d="M115.6,58c-0.4,1.4-0.9,2.8-1.3,4.3c-0.2,0.6-0.4,1.3-0.4,1.9c-0.1,1.6,1,3.1,2.5,3.6"/>
			<path class="st8" d="M108.6,68.4c-0.1,0.9,1.1,3.7,3.1,5.3"/>
			<path class="st8" d="M122.1,62.4c-1.6,2.3-1.8,5.3-0.6,7.8"/>
		</g>
		<path class="st8" d="M101.2,43.5c-0.9,1.1-3.8,1.3-5.1,0.6s-2.2-1.8-2.9-3.1c-1.5-2.6-2.2-5.6-2.1-8.6c0.1-3.9,1.5-7.7,1.3-11.6
			c-0.2-3.9-2.1-7.7-5.1-10.2c-3-2.5-7.1-3.6-11-3.1"/>
	</g>
</g>
</svg>
