<?xml version="1.0" encoding="utf-8"?>
<!-- Generator: Adobe Illustrator 22.0.1, SVG Export Plug-In . SVG Version: 6.00 Build 0)  -->
<svg version="1.1" id="Layer_1" xmlns="http://www.w3.org/2000/svg" xmlns:xlink="http://www.w3.org/1999/xlink" x="0px" y="0px"
	 viewBox="0 0 160 480" style="enable-background:new 0 0 160 480;" xml:space="preserve">
<style type="text/css">
	.st0{fill:none;stroke:#010101;stroke-width:2;stroke-linecap:round;stroke-linejoin:round;stroke-miterlimit:10;}
	.st1{fill:#010101;}
	.st2{fill:none;stroke:#FFFFFF;stroke-width:5;stroke-linecap:round;stroke-linejoin:round;stroke-miterlimit:10;}
</style>
<g>
	<g>
		<path class="st0" d="M14.5,83.8c0,0,10,2.4,12.2,4.5"/>
		<path class="st0" d="M12.2,96c0,0,11.3,0.7,14.1,0.7"/>
		<path class="st1" d="M120.4,124.6c8.2-7.2,12-22.6,10-32.8c-2.6-13.1-10.9-23.6-12.2-25.9c1-9.7,0.9-18.9-2.3-25.8
			s-7-7.1-11.3-3.9c-4.2,3.2-6.9,10.7-9.9,19.9c-12.4-2.9-26.9-0.5-26.9-0.5c-2.5-11.8-8.8-21.5-13-21.9c-6.4-0.6-7.7,3.8-10.2,14.1
			c-1.6,6.7-0.8,18.5-0.8,18.5S33.5,79,31.3,89c-4,18.2,4.1,30,8.3,33.7c12,10.5,20.8,12.4,42.3,12.4
			C105.1,134.9,113.5,130.6,120.4,124.6z"/>
		<path class="st0" d="M148.9,91.7c0,0-9.8,3-12.8,2.2"/>
		<path class="st0" d="M144.8,80c0,0-8.7,4.2-11.5,7.4"/>
	</g>
	<path class="st2" d="M75.5,91.8c3.3-6,6.7-12,10-18c0,14.1,0,28.2,0,42.2"/>
</g>
<g>
	<g>
		<path class="st0" d="M14.5,241.9c0,0,10,2.4,12.2,4.5"/>
		<path class="st0" d="M12.2,254.1c0,0,11.3,0.7,14.1,0.7"/>
		<path class="st1" d="M120.4,282.6c8.2-7.2,12-22.6,10-32.8c-2.6-13.1-10.9-23.6-12.2-25.9c1-9.7,0.9-18.9-2.3-25.8
			c-3.1-7-7-7.1-11.3-3.9c-4.2,3.2-6.9,10.7-9.9,19.9c-12.4-2.9-26.9-0.5-26.9-0.5c-2.5-11.8-8.8-21.5-13-21.9
			c-6.4-0.6-7.7,3.8-10.2,14.1c-1.6,6.7-0.8,18.5-0.8,18.5s-10.4,12.9-12.6,22.9c-4,18.2,4.1,30,8.3,33.7
			c12,10.5,20.8,12.4,42.3,12.4C105.1,293,113.5,288.7,120.4,282.6z"/>
		<path class="st0" d="M148.9,249.8c0,0-9.8,3-12.8,2.2"/>
		<path class="st0" d="M144.8,238.1c0,0-8.7,4.2-11.5,7.4"/>
	</g>
	<path class="st2" d="M72.1,245.6c1.7-2.7,2.7-5.9,4.6-8.4c2-2.5,5.5-4.3,8.4-2.9c2.2,1.1,3.2,3.8,3.1,6.2c-0.2,2.5-1.3,4.7-2.5,6.9
		c-4,7.5-8.8,14.6-14.2,21.1c6-1,12.1-1.2,18.2-0.7"/>
</g>
<g>
	<g>
		<path class="st0" d="M14.5,400c0,0,10,2.4,12.2,4.5"/>
		<path class="st0" d="M12.2,412.1c0,0,11.3,0.7,14.1,0.7"/>
		<path class="st1" d="M120.4,440.7c8.2-7.2,12-22.6,10-32.8c-2.6-13.1-10.9-23.6-12.2-25.9c1-9.7,0.9-18.9-2.3-25.8
			s-7-7.1-11.3-3.9c-4.2,3.2-6.9,10.7-9.9,19.9c-12.4-2.9-26.9-0.5-26.9-0.5c-2.5-11.8-8.8-21.5-13-21.9c-6.4-0.6-7.7,3.8-10.2,14.1
			c-1.6,6.7-0.8,18.5-0.8,18.5s-10.4,12.9-12.6,22.9c-4,18.2,4.1,30,8.3,33.7c12,10.5,20.8,12.4,42.3,12.4
			C105.1,451.1,113.5,446.7,120.4,440.7z"/>
		<path class="st0" d="M148.9,407.8c0,0-9.8,3-12.8,2.2"/>
		<path class="st0" d="M144.8,396.2c0,0-8.7,4.2-11.5,7.4"/>
	</g>
	<path class="st2" d="M70.3,397.6c-0.3-1.3,4.9-7.8,11.3-2.3c2.8,2.4,2.8,8-0.1,10.1c-2.4,1.8-2.4,1.8-6,3.2
		c4.2,0.3,9.6-2.4,14.1,4.9c2.9,4.7,0.1,11.4-3.9,15.1c-2.6,2.4-6.5,3.8-9.9,2.8c-3.4-1.1-5.9-5.1-4.6-8.4"/>
</g>
</svg>
