<?xml version="1.0" encoding="utf-8"?>
<!-- Generator: Adobe Illustrator 22.0.1, SVG Export Plug-In . SVG Version: 6.00 Build 0)  -->
<svg version="1.1" id="Layer_1" xmlns="http://www.w3.org/2000/svg" xmlns:xlink="http://www.w3.org/1999/xlink" x="0px" y="0px"
	 viewBox="0 0 82 62" style="enable-background:new 0 0 82 62;" xml:space="preserve">
<style type="text/css">
	.st0{fill:#FFFFFF;stroke:#000000;stroke-linecap:round;stroke-linejoin:round;stroke-miterlimit:10;}
	.st1{fill:none;stroke:#000000;stroke-linecap:round;stroke-linejoin:round;stroke-miterlimit:10;}
</style>
<image style="overflow:visible;enable-background:new    ;" width="564" height="564" xlink:href="../../../../../자료/포폴/12b45725a26852390ba07c17819cb78f.jpg"  transform="matrix(1 0 0 1 1299.6414 -89.2314)">
</image>
<g>
	<path class="st0" d="M17.7,34.9c0,0-11.5,2.3-10.4,8.5c0.7,2,5.1,12.6,33.6,11.5s31.7-10.1,31.7-10.1s4.7-8.4-12.3-11.6
		C25.5,31.9,17.7,34.9,17.7,34.9z"/>
	<path class="st0" d="M38.8,55c-24,0.4-28.7-7.3-28.7-7.3s1,2.9,2.5,4.3c1.3,1.2,8.1,5.2,26.4,5c18.2-0.3,24.8-2.4,27.9-7.3
		C66.6,49.9,62.2,54.6,38.8,55z"/>
	<path class="st1" d="M67.9,56.6"/>
	<path class="st0" d="M27,45.4c0,0,0.5,1.3,1.5,1.6c1.1,0.4,10.1,3.8,22.1-0.9c2.2-0.5,1.9-2.9,1.9-2.9s7.6-4.7,11-22.2
		c0.5-5.9,0.6-8.3-1.3-10S54,5.1,37.3,6.5s-24.2,5.7-24.4,8.4C12.7,17.6,15.8,39.4,27,45.4z"/>
	<path class="st0" d="M61.1,31c0,0,4,1.4,6.9-1.5s10.1-12.8,3.1-18.3c-2.8-1.9-6.7-1.5-7.8,0.2c0,0-0.2,0.4-0.1,0.9
		C63.8,14.6,64.7,18.9,61.1,31z"/>
	<path class="st1" d="M66.2,16.1c0,0,4.5-0.8,3.2,4s-5,5.3-5,5.3"/>
	<line class="st1" x1="64.3" y1="23.2" x2="67.9" y2="23.1"/>
	<path class="st1" d="M22.1,17.2c0,0,17.9-7.2,32.4-0.6"/>
	<path class="st1" d="M14.4,14.9c0,0,1.6,6.4,24.9,5.1c0,0,21.5-1.6,22.3-6.6"/>
	<path class="st1" d="M13,16.6c0,0,1.9,2.3,4,3.3s34.3,7.3,46.6-4.6"/>
	<path class="st1" d="M14.3,22.9c0,0,6.8,5.7,24.7,4.6s24.4-6.8,24.4-6.8"/>
	<path class="st1" d="M31.2,45.8c0,0,11,1.8,18.3-1.8"/>
</g>
</svg>
