<?xml version="1.0" encoding="utf-8"?>
<!-- Generator: Adobe Illustrator 22.0.1, SVG Export Plug-In . SVG Version: 6.00 Build 0)  -->
<svg version="1.1" id="Layer_1" xmlns="http://www.w3.org/2000/svg" xmlns:xlink="http://www.w3.org/1999/xlink" x="0px" y="0px"
	 viewBox="0 0 319.3 229.3" style="enable-background:new 0 0 319.3 229.3;" xml:space="preserve">
<style type="text/css">
	.st0{fill:#FFFFFF;}
	.st1{fill:#FFFFFF;stroke:#000000;stroke-linecap:round;stroke-linejoin:round;stroke-miterlimit:10;}
	.st2{stroke:#FFFFFF;stroke-miterlimit:10;}
	.st3{fill:none;stroke:#FFFFFF;stroke-width:2;stroke-linecap:round;stroke-linejoin:round;stroke-miterlimit:10;}
	.st4{fill:#231F20;}
	.st5{fill:none;stroke:#000000;stroke-linecap:round;stroke-linejoin:round;stroke-miterlimit:10;}
</style>
<text transform="matrix(1 0 0 1 495.2123 190.0178)" class="st4" style="font-family:'PyunjiR-HM'; font-size:12.7066px;">“용기란 두려움이 없는 것이 아닌</text>
<text transform="matrix(1 0 0 1 495.2123 205.2178)" class="st4" style="font-family:'PyunjiR-HM'; font-size:12.7066px;">  두려움에도 불구하고 행동하는 것”</text>
<image style="overflow:visible;enable-background:new    ;" width="564" height="564" xlink:href="../../../../../자료/포폴/12b45725a26852390ba07c17819cb78f.jpg"  transform="matrix(1 0 0 1 1413.6414 -39.2314)">
</image>
<g>
	<path class="st0" d="M120.6,56.3l-0.8,6.3c0,0,22.4,11.4,23.5,11.4s28.6-4.9,29.6-3.9s14-8.8,14-8.8L181.9,42h-40.2L120.6,56.3z"/>
	<path class="st1" d="M82.5,206.3l6.5,1.9l133.6,0.1l13.4-28.7l-17.7-64.3H93c0,0-19.7,68.3-17.4,77.7
		C78,202.3,80.5,205.8,82.5,206.3z"/>
	<path class="st2" d="M117.5,56.3c0,0-2.3-46.3,42.8-37c7.5,1.8,12-1.5,17.8,6.3s8,20.5,9.8,26s-11.5,2.8-13,1.8s-7.5-5.8-7.5-5.8
		s-2.3,5-9.5,5.8s-9.5,1.5-11,3s-8,5.5-17.3,4.8S117.5,58.6,117.5,56.3z"/>
	<g>
		<path class="st0" d="M155.9,61.1c0,0-41.6-3-55.1-3.8s-40,0.5-40.5,3.8c-0.5,3.3,4.5,38.3,4.5,38.3l7.3,60.3c0,0-1.5,3.3,2.3,3.5
			s36.3-4.3,72,1.5c14,0,21.5-0.5,25.8-2.3s33.5-7,71.5-4.3c1.5-26.8,6.8-53.3,7.8-62s0.8-20,2.5-27.8s0-13,0-13
			S198.1,46.1,155.9,61.1z"/>
		<path class="st1" d="M64,64.8c0,0-1,3.3,0,6.8s11.8,84.3,11.8,84.3s-1,3,3.3,2.8s56.5-2,76.9,3c4.9,0,11.4-1.3,13.6-1.8
			s21.8-6.3,71-4.3c1.8-25.5,5.8-58.8,6.5-66.8s1.8-28.5,1.8-28.5s-4.3-2-15.8-2s-42.5-0.3-56.5,2.5s-20.3,4-20.3,4
			s-10.2-1.8-16.9-2s-70-0.5-72,0.5C65.3,64.3,64,64.8,64,64.8z"/>
		<line class="st1" x1="155.9" y1="67.8" x2="156.2" y2="72.3"/>
		<line class="st1" x1="157.4" y1="151.6" x2="157.4" y2="161.5"/>
	</g>
	<path class="st3" d="M15.3,209.5c96.5-2.2,192.2-2.1,288.7,0.4"/>
	<g>
		<path class="st4" d="M81.5,90.1c-0.3,0.3-0.4,0.7-0.5,1s-0.1,0.7-0.1,1.2h1v2.9H80v-2.9c0-0.5,0.1-1,0.2-1.6
			c0.2-0.5,0.4-0.9,0.6-1.2L81.5,90.1z M83.9,90.1c-0.3,0.3-0.4,0.7-0.5,1s-0.1,0.7-0.1,1.2h1v2.9h-1.9v-2.9c0-0.5,0.1-1,0.2-1.6
			c0.2-0.5,0.4-0.9,0.6-1.2L83.9,90.1z"/>
		<path class="st4" d="M89.4,96.6c0,0.5-0.1,1-0.1,1.4l0.9-0.1c0-0.7,0.1-1.3,0.2-1.7c0.1-0.5,0.1-1,0.2-1.5c0-0.3,0.2-0.4,0.5-0.4
			c0.3,0.1,0.4,0.3,0.3,0.6c-0.1,0.7-0.2,1.3-0.3,1.8C91,97.2,91,97.6,91,97.9c0.2,0,0.5,0,0.8,0s0.6,0,1,0.1c0.3,0,0.4,0.3,0.2,0.7
			c-0.2,0.4-0.3,0.7-0.4,0.7s-0.1,0-0.1-0.1s0-0.1-0.1-0.1c-0.9,0-1.6,0-2.2,0.1s-1.3,0.3-2,0.5c-0.3,0.1-0.4-0.1-0.4-0.6
			s0.1-0.8,0.2-0.8l0.4-0.1c0-0.4,0.1-0.9,0.1-1.5s0.1-1.4,0.3-2.3c0-0.3,0.2-0.4,0.5-0.3s0.4,0.2,0.4,0.5
			C89.6,95.4,89.5,96.1,89.4,96.6z M90.5,89.1c0,0.1,0,0.2,0,0.2c0.3,0,0.6,0.3,0.9,0.7c0.3,0.4,0.4,1,0.4,1.7
			c0,0.8-0.2,1.5-0.5,2.1s-0.8,0.9-1.3,0.9s-1-0.3-1.3-0.8s-0.5-1.2-0.5-2c0-0.9,0.2-1.6,0.6-2.1s0.9-0.8,1.5-0.8
			C90.5,88.9,90.5,89,90.5,89.1z M91.3,101.2c0.1,0.1,0.1,0.2,0.1,0.2c0.3,0,0.5,0.2,0.8,0.7s0.4,1.1,0.4,1.7c0,0.8-0.2,1.5-0.6,2.2
			c-0.4,0.6-0.8,1-1.3,1s-0.9-0.2-1.2-0.6s-0.4-1-0.4-1.7c0-0.8,0.2-1.6,0.7-2.4s0.9-1.2,1.3-1.2C91.1,101.1,91.2,101.1,91.3,101.2z
			 M90.7,90.6c-0.2-0.2-0.3-0.2-0.4,0c0,0.1-0.1,0.1-0.2,0S90,90.3,90,90.1c-0.3,0-0.5,0.2-0.7,0.6C89.1,91,89,91.5,89,92
			c0,0.4,0.1,0.7,0.3,1c0.2,0.2,0.4,0.4,0.6,0.4c0.3,0,0.6-0.2,0.8-0.5c0.2-0.3,0.2-0.7,0.2-1C91,91.3,90.9,90.8,90.7,90.6z
			 M91.6,103.2c-0.1-0.2-0.2-0.2-0.4-0.1c-0.1,0.1-0.2,0-0.2-0.1c-0.1-0.2-0.1-0.3-0.1-0.6c-0.4,0.2-0.7,0.6-0.9,1.2
			c-0.2,0.6-0.3,1-0.3,1.3s0.1,0.6,0.3,0.7c0.2,0.1,0.4,0.2,0.6,0.2c0.3,0,0.6-0.2,0.8-0.5c0.2-0.3,0.3-0.7,0.3-1
			C91.8,103.7,91.7,103.3,91.6,103.2z"/>
		<path class="st4" d="M98.9,97.7c-0.1,1.1-0.3,2.4-0.5,3.7c-0.1,0.4-0.2,0.6-0.5,0.5s-0.4-0.3-0.3-0.8c0.2-1.1,0.3-2.5,0.5-4.1
			s0.3-2.8,0.4-3.6c0-0.4-0.1-0.7-0.4-1s-1-0.5-2.2-0.7c-0.3-0.1-0.4-0.3-0.4-0.7s0.2-0.6,0.5-0.6c0.4,0.1,0.8,0.2,1.3,0.3
			c0.5,0.1,1,0.3,1.5,0.6c0.2,0.1,0.4,0.4,0.5,0.7c0.1,0.3,0.1,0.9,0.1,1.6C99.2,95.2,99.1,96.5,98.9,97.7z M102.8,89.9
			c0.3,0,0.4,0.2,0.4,0.6c-0.2,2-0.4,4.3-0.5,6.6c-0.2,2.4-0.3,5-0.3,7.9c0,0.1,0,0.2,0.1,0.2s0.1,0.1,0.1,0.1
			c0,0.1-0.1,0.2-0.2,0.4c-0.1,0.1-0.2,0.2-0.3,0.2c-0.1,0-0.2-0.1-0.3-0.3c-0.1-0.2-0.1-0.5-0.1-0.9c0-2.6,0.1-4.9,0.2-7.1
			c0.1-2.1,0.3-4.5,0.5-7.2C102.3,90.1,102.5,89.9,102.8,89.9z"/>
		<path class="st4" d="M108.8,95c-0.9,0.4-1.4,1-1.4,1.8c0,0.2,0.2,0.5,0.5,0.8s0.6,0.4,0.9,0.4c0.2,0,0.4-0.1,0.8-0.4
			c0.3-0.3,0.6-0.6,0.9-1c0.2-0.2,0.4-0.2,0.5,0.1c0.1,0.3,0.1,0.6,0,0.8c-0.4,0.5-0.8,1-1.1,1.3c-0.4,0.3-0.8,0.5-1.2,0.5
			c-0.3,0-0.7-0.2-1.2-0.7c-0.6-0.4-0.8-1-0.8-1.6c0-1.3,0.4-2.2,1.3-2.5c0.9-0.4,1.3-0.8,1.3-1.4c0-0.2-0.2-0.6-0.6-0.9
			c-0.4-0.4-1-0.6-1.6-0.8c-0.1-0.1-0.1-0.3-0.1-0.7c0-0.4,0.1-0.6,0.3-0.5c0.6,0.2,1.3,0.5,2,1s1.1,1.1,1.1,1.8
			C110.2,93.9,109.8,94.6,108.8,95z M111,103.2c0,0.5-0.1,1.1-0.1,1.7c0,0.3,0,0.5,0,0.5c0,0.1,0.1,0.1,0.2,0.1
			c0.6-0.1,1.1-0.3,1.6-0.4s1.1-0.3,1.6-0.4c0.2-0.1,0.3,0.1,0.3,0.5s-0.1,0.6-0.2,0.7c-0.7,0.2-1.3,0.3-1.8,0.5s-1.1,0.3-1.8,0.5
			c-0.3,0.1-0.5,0-0.7-0.3s-0.2-0.6-0.2-1.1c0-0.8,0.1-1.6,0.2-2.2s0.2-1.3,0.3-2.1c0-0.3,0.2-0.4,0.4-0.3c0.2,0.1,0.3,0.3,0.3,0.6
			C111.1,102.1,111.1,102.6,111,103.2z M115.1,94c0.3,0,0.4,0.2,0.3,0.6c0,0.4-0.2,0.6-0.6,0.6H113c-0.1,0.9-0.1,1.7-0.1,2.6
			s-0.1,1.7-0.1,2.6c0,0.3-0.1,0.5-0.4,0.6s-0.4-0.1-0.4-0.5c0-2,0.1-3.6,0.2-5.1c0.1-1.4,0.3-3,0.5-4.9c0-0.3,0.2-0.5,0.5-0.5
			s0.4,0.2,0.3,0.5c-0.1,0.5-0.1,1-0.2,1.5c-0.1,0.6-0.1,1.1-0.2,1.8h2V94z"/>
		<path class="st4" d="M127.3,97.5c0.1,0.2,0.2,0.3,0.2,0.5s-0.1,0.4-0.2,0.7c-0.1,0.3-0.2,0.4-0.3,0.4c-0.1,0-0.1-0.1-0.1-0.3
			c0-0.2,0-0.3-0.2-0.3c-0.1,0-0.2,0-0.3,0c-0.1,0-0.2,0-0.4,0c-0.2,1.4-0.4,2.7-0.5,4s-0.3,2.7-0.4,4.3c0,0.4,0,0.6,0,0.7
			s0.1,0.2,0.1,0.3c0,0.1,0,0.2-0.1,0.3c-0.1,0.1-0.2,0.1-0.3,0.1c-0.1,0-0.2-0.1-0.4-0.4c-0.1-0.2-0.2-0.5-0.2-0.9
			c0.1-1.5,0.2-2.9,0.4-4.3c0.1-1.4,0.3-2.8,0.4-4.1c-0.6,0-1,0.1-1.4,0.2s-0.9,0.3-1.4,0.5c-0.2,0.1-0.4,0.2-0.6,0.3
			c-0.2,0.1-0.4,0.2-0.6,0.2c-0.1,0-0.2-0.3-0.3-0.8c-0.1-0.5-0.1-0.8,0.1-0.8c1-0.3,2.1-0.5,3.2-0.7s2.1-0.2,2.8-0.2
			C127.1,97.2,127.2,97.3,127.3,97.5z M126.5,89.8c0,0.4-0.1,0.7-0.4,0.7c-0.5,0.1-1,0.2-1.5,0.3c-0.5,0.1-0.8,0.3-1,0.5
			c-0.2,0.1-0.3,0.4-0.4,0.8s-0.2,0.8-0.2,1.2c0,0.2,0,0.4,0.1,0.5s0.1,0.2,0.2,0.1c0.5-0.1,0.9-0.2,1.4-0.3c0.5-0.1,1-0.1,1.5-0.2
			c0.3,0,0.4,0.1,0.5,0.5c0,0.4-0.1,0.6-0.4,0.6c-0.6,0.1-1.1,0.2-1.7,0.3c-0.5,0.1-1,0.2-1.5,0.4c-0.4,0.1-0.7,0-0.9-0.3
			c-0.2-0.3-0.2-0.8-0.2-1.4c0-0.5,0.1-0.9,0.2-1.3s0.1-0.7,0.2-1c-0.4,0.3-0.6,0.2-0.7-0.2c-0.1-0.4,0-0.7,0.3-0.8
			c0.7-0.2,1.4-0.4,1.9-0.6c0.6-0.1,1.2-0.2,2-0.3C126.4,89.2,126.5,89.4,126.5,89.8z"/>
		<path class="st4" d="M132.3,96.9c-0.9,0.4-1.3,1.1-1.3,2.1c0,0.4,0.1,0.8,0.2,1c0.1,0.2,0.2,0.3,0.3,0.3c0.6,0,1.1-0.2,1.4-0.6
			c0.4-0.4,1-0.5,2-0.4c0.2,0,0.3,0.2,0.3,0.6s-0.1,0.6-0.3,0.6c-0.8-0.1-1.4,0.1-1.9,0.5s-1,0.5-1.6,0.5c-0.5,0-0.8-0.2-1-0.7
			s-0.3-1.1-0.3-1.7c0-1.6,0.4-2.6,1.3-3c0.9-0.4,1.3-1.1,1.3-2.1c0-0.3-0.2-0.8-0.7-1.3s-1.1-1-1.8-1.4c-0.3-0.1-0.3-0.4-0.2-0.9
			c0.1-0.4,0.3-0.6,0.5-0.4c0.7,0.4,1.4,0.9,2.1,1.6c0.6,0.7,0.9,1.5,0.9,2.3C133.6,95.5,133.1,96.5,132.3,96.9z M137.4,104.4
			c0.1,0.1,0.1,0.2,0.1,0.5c0,0.2,0,0.4-0.1,0.6s-0.2,0.3-0.3,0.3s-0.2-0.1-0.2-0.3c-0.1-0.2-0.1-0.9-0.1-2.1c0-0.6,0-1.5,0.1-2.9
			c0-1.4,0.1-2.3,0.1-2.7c-0.3,0-0.6,0-0.9,0.1c-0.3,0.1-0.7,0.1-1.1,0.2c-0.2,0-0.3-0.2-0.4-0.6c-0.1-0.4,0-0.6,0.2-0.6
			c0.4-0.1,0.8-0.1,1.2-0.2c0.4,0,0.7-0.1,1.1-0.1c0-0.4,0-0.8,0.1-1.1c0-0.4,0-0.7,0.1-1.1c-0.2,0-0.6,0-1,0
			c-0.4,0.1-0.7,0.1-1,0.2c-0.2,0-0.3-0.2-0.4-0.5c-0.1-0.4,0-0.6,0.1-0.6c0.4-0.1,0.8-0.1,1.2-0.2s0.8-0.1,1.1-0.1
			c0-0.4,0.1-0.8,0.1-1.3c0.1-0.4,0.1-0.9,0.2-1.4c0-0.3,0.2-0.5,0.5-0.4s0.4,0.2,0.4,0.4c-0.3,1.7-0.5,3.8-0.6,6.3
			c-0.2,2.5-0.3,4.7-0.3,6.8C137.3,104.1,137.3,104.3,137.4,104.4z"/>
		<path class="st4" d="M146.5,96.3c0.1,0.2,0.2,0.4,0.2,0.6s-0.1,0.4-0.2,0.6c-0.1,0.2-0.2,0.2-0.3,0.2s-0.1,0-0.1-0.1
			s0-0.2-0.2-0.2c-0.1,0-0.2,0-0.4,0s-0.4,0-0.5,0.1c0,0.4-0.1,0.9-0.1,1.5c-0.1,0.6-0.1,1.2-0.2,1.9c0,0.4-0.2,0.5-0.5,0.5
			s-0.4-0.2-0.4-0.6c0-0.6,0.1-1.2,0.2-1.8c0.1-0.6,0.1-1.1,0.1-1.4c-0.4,0.1-0.7,0.1-1.1,0.2c-0.3,0.1-0.6,0.2-0.8,0.3
			c-0.2,0.1-0.4,0.3-0.6,0.4c-0.2,0.2-0.4,0.3-0.6,0.3c-0.1,0-0.3-0.3-0.5-0.8c-0.2-0.6-0.1-0.9,0.2-1c1-0.3,1.9-0.5,2.8-0.7
			c0.9-0.2,1.6-0.2,2.3-0.2C146.2,96,146.3,96.1,146.5,96.3z M145.5,101.4c0.2,0.3,0.3,0.8,0.3,1.5c0,0.4-0.1,0.9-0.3,1.5
			s-0.3,1.1-0.4,1.6c0.2-0.1,0.4-0.3,0.6-0.5c0.2-0.2,0.4-0.4,0.6-0.5c0.2-0.2,0.3-0.1,0.4,0.2c0.1,0.3,0,0.7-0.3,1.1
			c-0.3,0.3-0.5,0.5-0.8,0.8c-0.3,0.2-0.6,0.4-0.9,0.4c-0.4,0-0.6-0.4-0.5-1.2c0.1-0.8,0.3-1.7,0.6-2.8c0.1-0.3,0.1-0.6,0.1-0.9
			s-0.1-0.4-0.4-0.4c-0.3,0-0.6,0.2-0.9,0.7c-0.3,0.4-0.6,0.8-0.8,1.1c0,0.4,0,0.9,0,1.3s0.1,0.9,0.1,1.3s-0.1,0.7-0.3,0.6
			c-0.3,0-0.4-0.2-0.4-0.5c-0.1-0.9-0.2-1.8-0.2-2.7c0-0.9,0-1.7,0-2.6c0-0.3,0.2-0.5,0.4-0.6c0.3-0.1,0.4,0.1,0.4,0.4
			c0,0.2,0,0.3,0,0.5s0,0.4,0,0.6c0.2-0.4,0.5-0.7,0.8-1s0.7-0.4,0.9-0.4C145,100.9,145.3,101.1,145.5,101.4z M144,88.7
			c0.1,0.1,0.1,0.2,0,0.3c0.1-0.2,0.4-0.2,0.9-0.1c0.5,0.2,0.8,0.9,0.9,2.1c0.1,0.8-0.1,1.5-0.4,2.1c-0.4,0.6-0.8,0.9-1.3,0.9
			s-1-0.2-1.3-0.7c-0.3-0.4-0.5-1.1-0.5-1.8c0-0.7,0.2-1.4,0.5-2c0.4-0.6,0.6-0.9,0.8-0.9C143.8,88.7,143.9,88.7,144,88.7z
			 M144.8,90.2c-0.2-0.2-0.4-0.2-0.5,0c0,0.1-0.1,0.2-0.2,0.2s-0.2-0.3-0.1-0.9c-0.2,0.1-0.4,0.4-0.5,0.8c-0.2,0.4-0.2,0.8-0.2,1.3
			c0,0.4,0.1,0.7,0.3,1c0.2,0.2,0.4,0.4,0.7,0.4c0.4,0,0.6-0.2,0.8-0.5s0.2-0.7,0.2-1.1C145.2,90.7,145.1,90.4,144.8,90.2z"/>
		<path class="st4" d="M151.4,92c0.1,0.2,0.1,0.3,0,0.4c0.7-0.2,1.1,0,1.4,0.6c0.3,0.5,0.4,1.2,0.4,1.9c0,1-0.2,1.7-0.6,2.2
			c-0.4,0.5-0.9,0.8-1.5,0.8c-0.7,0-1.1-0.3-1.5-0.9c-0.3-0.6-0.5-1.2-0.5-2s0.2-1.5,0.6-2.2s0.9-1,1.5-1
			C151.3,91.7,151.4,91.8,151.4,92z M152.1,93.7c-0.2-0.2-0.4-0.2-0.6-0.1c-0.1,0.1-0.2,0-0.3-0.2c0-0.2-0.1-0.3,0-0.5
			c-0.3,0-0.7,0.2-0.9,0.5c-0.3,0.4-0.4,0.8-0.4,1.4c0,0.5,0.1,1,0.3,1.2c0.2,0.3,0.5,0.4,0.8,0.4s0.6-0.2,0.9-0.5
			c0.3-0.3,0.4-0.7,0.4-1.3C152.4,94.3,152.3,93.9,152.1,93.7z M156.4,89.9c0.3,0,0.4,0.2,0.4,0.6c-0.2,2-0.4,4.3-0.5,6.6
			c-0.2,2.4-0.3,5-0.3,7.9c0,0.1,0,0.2,0.1,0.2s0.1,0.1,0.1,0.1c0,0.1-0.1,0.2-0.2,0.4c-0.1,0.1-0.2,0.2-0.3,0.2s-0.2-0.1-0.3-0.3
			c-0.1-0.2-0.1-0.5-0.1-0.9c0-2.6,0.1-4.9,0.2-7.1c0.1-2.1,0.3-4.5,0.5-7.2C156,90.1,156.1,89.9,156.4,89.9z"/>
		<path class="st4" d="M167.5,91c0,0.1,0,0.2,0,0.2c0.3,0,0.6,0.2,0.8,0.6c0.3,0.4,0.4,1,0.4,1.7c0,0.9-0.1,1.6-0.4,2.2
			c-0.3,0.6-0.7,0.9-1.3,0.9c-0.5,0-1-0.2-1.3-0.7c-0.3-0.4-0.5-1.1-0.5-1.8c0-0.9,0.2-1.6,0.6-2.3c0.4-0.6,0.9-1,1.5-1
			C167.4,90.8,167.5,90.9,167.5,91z M167.7,92.6c-0.2-0.2-0.3-0.2-0.4-0.1c-0.1,0.2-0.2,0.2-0.2,0s-0.1-0.3,0-0.4
			c-0.3,0-0.5,0.2-0.7,0.6s-0.3,0.8-0.3,1.3c0,0.4,0.1,0.7,0.3,1c0.2,0.2,0.4,0.4,0.7,0.4s0.6-0.1,0.8-0.4s0.2-0.6,0.2-1
			C168,93.2,167.9,92.8,167.7,92.6z M168,102.4c-0.1,0.6-0.1,1.3-0.1,2.1c0,0.7,0,1.1,0,1.3c0,0.2,0.1,0.2,0.2,0.2l1.1-0.2
			c0-0.4,0-0.7,0-1s0-0.6,0-1c-0.1-0.1-0.2,0-0.4,0c-0.2,0.1-0.4,0.2-0.6,0.4c-0.1,0.1-0.2-0.1-0.3-0.3c-0.1-0.3-0.1-0.5,0-0.7
			c0.2-0.2,0.4-0.4,0.6-0.5c0.2-0.1,0.4-0.2,0.6-0.1c0-0.3,0-0.5,0-0.8c0-0.2,0-0.5,0-0.7c0-0.4,0.2-0.6,0.4-0.6
			c0.3,0,0.4,0.2,0.4,0.5s0,0.6,0,0.8c0,0.3,0,0.6,0,0.9c0.2,0.2,0.3,0.4,0.3,0.7s-0.1,0.4-0.3,0.4c0,0.4,0,0.9,0,1.3s0,0.9,0,1.4
			c0,0.3,0,0.6-0.1,0.7c-0.1,0.2-0.2,0.2-0.3,0.2s-0.2,0-0.3-0.1s-0.1-0.3-0.1-0.6c-0.1,0.1-0.1,0.2-0.2,0.3
			c-0.1,0.1-0.1,0.1-0.2,0.1l-0.9,0.2c-0.2,0-0.3-0.1-0.5-0.4s-0.3-1-0.3-1.9c0-0.8,0-1.6,0.1-2.5s0.2-1.6,0.3-2.2
			c0-0.2,0.2-0.2,0.5-0.1c0.3,0.2,0.4,0.4,0.3,0.7C168.1,101.3,168,101.8,168,102.4z M172.2,99.3C172.2,99.2,172.2,99.3,172.2,99.3
			c0,0.2,0,0.4-0.1,0.6s-0.2,0.2-0.3,0.2s-0.2-0.1-0.2-0.3c-0.1-0.2-0.1-0.8-0.1-1.8c0-0.5,0-1.1,0.1-2c0.1-0.8,0.2-1.7,0.2-2.5
			c-0.3,0.4-0.6,0.7-1,0.9c-0.4,0.2-0.8,0.3-1.1,0.3c-0.2,0-0.3-0.2-0.4-0.6c-0.1-0.4,0-0.6,0.1-0.6c0.4,0,0.8-0.1,1.1-0.3
			c0.3-0.2,0.6-0.5,0.9-0.9c0.2-0.2,0.3-0.5,0.4-0.7c0.1-0.2,0.2-0.6,0.3-1c0.1-0.3,0.2-0.4,0.5-0.2c0.2,0.1,0.4,0.3,0.3,0.5
			c-0.2,1.6-0.4,3-0.5,4.3S172.2,97.8,172.2,99.3C172.2,99.3,172.2,99.4,172.2,99.3z M172.1,101.8c-0.2,0.4-0.3,0.7-0.3,1
			c0.2,0.2,0.5,0.6,0.8,1.1s0.6,1.1,0.9,1.6c0.1,0.3,0.1,0.6-0.1,0.9c-0.2,0.3-0.3,0.3-0.5,0.1c-0.3-0.6-0.5-1.1-0.8-1.6
			s-0.5-0.8-0.7-0.9c-0.1,0.5-0.2,0.9-0.3,1.3s-0.1,1-0.3,1.7c-0.1,0.4-0.2,0.5-0.5,0.5s-0.4-0.3-0.3-0.8c0.2-1.1,0.4-2.2,0.6-3.3
			c0.2-1,0.5-2.1,1-3.2c0-0.1,0.2-0.1,0.5,0s0.4,0.3,0.3,0.6C172.3,101.1,172.2,101.4,172.1,101.8z"/>
		<path class="st4" d="M181.6,98.5c-0.2,0.4-0.3,0.6-0.5,0.6c-0.1,0-0.1,0-0.1-0.1c0.1-0.1,0-0.1-0.1-0.1c-0.9,0.1-1.8,0.1-2.8,0.2
			c-0.9,0.1-1.8,0.2-2.8,0.4c-0.2,0-0.4-0.1-0.4-0.2c-0.1-0.2-0.1-0.4-0.1-0.6s0-0.4,0.1-0.6s0.2-0.3,0.3-0.3s0.2,0.1,0.1,0.3
			c-0.1,0.2-0.1,0.2,0,0.2c0.9-0.1,1.9-0.2,2.8-0.3c0.9-0.1,1.9,0,2.9,0.1C181.6,97.8,181.8,98,181.6,98.5z M177,91.2
			c-0.1,0.6-0.1,1.2-0.2,1.6c0,0.4,0,0.6,0.1,0.7s0.2,0.1,0.3,0.1c0.6-0.1,1.2-0.1,1.7-0.2s1-0.2,1.4-0.4c0.3-0.1,0.4,0,0.4,0.4
			s-0.1,0.6-0.2,0.7c-0.6,0.2-1.3,0.4-1.9,0.5c-0.6,0.1-1.1,0.2-1.5,0.2s-0.7-0.1-0.9-0.3c-0.2-0.2-0.3-0.7-0.2-1.4
			c0.1-0.9,0.1-1.6,0.2-2.2c0.1-0.6,0.2-1.2,0.3-1.9c0.1-0.3,0.2-0.4,0.5-0.4c0.2,0.1,0.3,0.2,0.3,0.5C177.1,90,177,90.6,177,91.2z
			 M177.6,103.6c-0.1,0.6-0.1,1.2-0.1,1.8c0,0.4,0.1,0.6,0.1,0.6c0.1,0,0.2,0,0.3,0c0.4-0.2,0.8-0.3,1.3-0.4s1.1-0.1,1.6-0.1
			c0.2,0,0.3,0.2,0.3,0.6s-0.1,0.6-0.2,0.6c-0.7,0-1.2,0-1.7,0.1s-1,0.3-1.6,0.5c-0.3,0.1-0.5,0-0.7-0.3s-0.2-0.7-0.2-1.1
			c0-0.8,0-1.6,0-2.2s0.1-1.3,0.2-2.1c0-0.3,0.2-0.4,0.4-0.3s0.4,0.3,0.3,0.6C177.7,102.4,177.6,103,177.6,103.6z"/>
		<path class="st4" d="M192.4,95.4c-0.3,1.6-0.5,2.8-0.7,3.6c-0.1,0.2-0.2,0.3-0.5,0.1c-0.3-0.1-0.4-0.4-0.3-0.7
			c0.3-1.1,0.5-2.2,0.7-3.4s0.3-2,0.4-2.5c0-0.2,0-0.4-0.1-0.5s-0.3-0.2-0.4-0.2c-0.4-0.1-0.8-0.1-1.2-0.2c-0.4,0-0.8,0-1.2,0
			c-0.2,0-0.3-0.2-0.3-0.6s0.1-0.6,0.3-0.6c0.3,0,0.8,0,1.3,0.1c0.6,0,1.1,0.1,1.5,0.2c0.3,0.1,0.6,0.2,0.8,0.4
			c0.2,0.2,0.3,0.6,0.3,1.2C192.8,92.7,192.6,93.8,192.4,95.4z M194.5,101.4c-0.1,0.2-0.2,0.5-0.3,0.8c0.4,0.5,0.8,1,1.2,1.6
			s0.8,1.2,1.2,1.9c0.2,0.3,0.2,0.6,0,0.9s-0.4,0.3-0.5,0.1c-0.5-0.8-0.9-1.5-1.3-2.1c-0.4-0.6-0.7-1-1-1.2
			c-0.3,0.6-0.6,1.1-0.8,1.8c-0.3,0.6-0.5,1.3-0.8,1.9c-0.1,0.4-0.3,0.5-0.6,0.3s-0.4-0.5-0.2-0.9c0.5-1.1,0.9-2.2,1.3-3.3
			c0.4-1,0.9-2.1,1.4-3.3c0.1-0.2,0.2-0.2,0.5,0c0.2,0.2,0.3,0.4,0.2,0.7C194.7,100.9,194.6,101.2,194.5,101.4z M196,99.3
			C196,99.2,196,99.3,196,99.3c0,0.2,0,0.4-0.1,0.6s-0.2,0.2-0.3,0.2s-0.2-0.1-0.2-0.3c-0.1-0.2-0.1-0.8-0.1-1.8c0-0.5,0-1.1,0.1-2
			c0.1-0.8,0.2-1.7,0.2-2.5c-0.3,0.4-0.6,0.7-1,0.9c-0.4,0.2-0.8,0.3-1.1,0.3c-0.2,0-0.3-0.2-0.4-0.6c-0.1-0.4,0-0.6,0.1-0.6
			c0.4,0,0.8-0.1,1.1-0.3c0.3-0.2,0.6-0.5,0.9-0.9c0.2-0.2,0.3-0.5,0.4-0.7c0.1-0.2,0.2-0.6,0.3-1c0.1-0.3,0.2-0.4,0.5-0.2
			c0.2,0.1,0.4,0.3,0.3,0.5c-0.2,1.6-0.4,3-0.5,4.3S196,97.8,196,99.3C196,99.3,196,99.4,196,99.3z"/>
		<path class="st4" d="M201.7,92c0.1,0.2,0.1,0.3,0,0.4c0.7-0.2,1.1,0,1.4,0.6c0.3,0.5,0.4,1.2,0.4,1.9c0,1-0.2,1.7-0.6,2.2
			c-0.4,0.5-0.9,0.8-1.5,0.8c-0.7,0-1.1-0.3-1.5-0.9c-0.3-0.6-0.5-1.2-0.5-2s0.2-1.5,0.6-2.2c0.4-0.7,0.9-1,1.5-1
			C201.5,91.7,201.6,91.8,201.7,92z M202.3,93.7c-0.2-0.2-0.4-0.2-0.6-0.1c-0.1,0.1-0.2,0-0.3-0.2c0-0.2-0.1-0.3,0-0.5
			c-0.3,0-0.7,0.2-0.9,0.5c-0.3,0.4-0.4,0.8-0.4,1.4c0,0.5,0.1,1,0.3,1.2c0.2,0.3,0.5,0.4,0.8,0.4s0.6-0.2,0.9-0.5
			c0.3-0.3,0.4-0.7,0.4-1.3C202.6,94.3,202.5,93.9,202.3,93.7z M206.7,89.9c0.3,0,0.4,0.2,0.4,0.6c-0.2,2-0.4,4.3-0.5,6.6
			c-0.2,2.4-0.3,5-0.3,7.9c0,0.1,0,0.2,0.1,0.2s0.1,0.1,0.1,0.1c0,0.1-0.1,0.2-0.2,0.4c-0.1,0.1-0.2,0.2-0.3,0.2s-0.2-0.1-0.3-0.3
			c-0.1-0.2-0.1-0.5-0.1-0.9c0-2.6,0.1-4.9,0.2-7.1c0.1-2.1,0.3-4.5,0.5-7.2C206.2,90.1,206.4,89.9,206.7,89.9z"/>
		<path class="st4" d="M217.3,92c0.1,0.2,0.1,0.3,0,0.4c0.7-0.2,1.1,0,1.4,0.6c0.3,0.5,0.4,1.2,0.4,1.9c0,1-0.2,1.7-0.6,2.2
			c-0.4,0.5-0.9,0.8-1.5,0.8c-0.7,0-1.1-0.3-1.5-0.9c-0.3-0.6-0.5-1.2-0.5-2s0.2-1.5,0.6-2.2c0.4-0.7,0.9-1,1.5-1
			C217.2,91.7,217.3,91.8,217.3,92z M218,93.7c-0.2-0.2-0.4-0.2-0.6-0.1c-0.1,0.1-0.2,0-0.3-0.2c0-0.2-0.1-0.3,0-0.5
			c-0.3,0-0.7,0.2-0.9,0.5c-0.3,0.4-0.4,0.8-0.4,1.4c0,0.5,0.1,1,0.3,1.2c0.2,0.3,0.5,0.4,0.8,0.4s0.6-0.2,0.9-0.5
			c0.3-0.3,0.4-0.7,0.4-1.3C218.3,94.3,218.2,93.9,218,93.7z M222.8,94.9c0.3,0,0.7,0.1,1,0.2c0.2,0,0.3,0.1,0.3,0.2
			c0.1,0.1,0.1,0.2,0.1,0.3c0,0.1-0.1,0.3-0.3,0.5s-0.4,0.3-0.6,0.2c-0.3-0.1-0.5-0.1-0.8-0.1s-0.5,0-0.7,0
			c-0.1,1.7-0.2,3.2-0.2,4.6s0,2.7,0,4c0,0.3-0.1,0.5-0.4,0.6c-0.3,0.1-0.4-0.1-0.4-0.6c0-1.2,0-2.6,0-4s0.1-3,0.2-4.6
			c-0.3,0-0.4-0.2-0.3-0.6c0.1-0.4,0.2-0.7,0.4-0.7c0.1-1.2,0.2-2.1,0.2-2.8c0-0.7,0.1-1.2,0.1-1.6c0-0.3,0.2-0.5,0.4-0.5
			s0.4,0.2,0.3,0.5c0,0.5-0.1,1.1-0.1,1.9c-0.1,0.8-0.1,1.6-0.2,2.4C222.1,94.9,222.4,94.9,222.8,94.9z"/>
		<path class="st4" d="M227.4,93.3c-0.1,0.9-0.2,1.7-0.2,2.4c0,0.7-0.1,1.2,0,1.4c0,0.2,0.1,0.3,0.2,0.3c0.6-0.1,1.2-0.1,1.7-0.2
			s1-0.2,1.4-0.4c0.3-0.1,0.4,0.1,0.4,0.5s-0.1,0.7-0.2,0.7c-0.6,0.2-1.3,0.3-2,0.4s-1.2,0.2-1.6,0.2c-0.4,0-0.6-0.2-0.7-0.7
			c-0.1-0.5-0.1-1.1,0-1.9c0-0.9,0.1-1.9,0.2-2.9c0.1-1.1,0.2-1.9,0.4-2.6c0.1-0.4,0.3-0.6,0.5-0.5c0.3,0.1,0.4,0.3,0.3,0.7
			C227.7,91.5,227.5,92.4,227.4,93.3z M230.6,103.2c0,0.5-0.1,1.1-0.1,1.7c0,0.3,0,0.5,0,0.5c0,0.1,0.1,0.1,0.2,0.1
			c0.6-0.1,1.1-0.3,1.6-0.4s1.1-0.3,1.6-0.4c0.2-0.1,0.3,0.1,0.3,0.5s-0.1,0.6-0.2,0.7c-0.7,0.2-1.3,0.3-1.8,0.5s-1.1,0.3-1.8,0.5
			c-0.3,0.1-0.5,0-0.7-0.3s-0.2-0.6-0.2-1.1c0-0.8,0.1-1.6,0.2-2.2c0.1-0.6,0.2-1.3,0.3-2.1c0-0.3,0.2-0.4,0.4-0.3s0.3,0.3,0.3,0.6
			C230.7,102.1,230.6,102.6,230.6,103.2z M233.1,89.9c0.3,0,0.4,0.2,0.4,0.6c-0.2,2-0.4,3.9-0.5,5.6s-0.2,3.6-0.3,5.7
			c0,0.4-0.2,0.6-0.5,0.5c-0.3,0-0.5-0.1-0.5-0.3c0-0.1,0-0.2,0.1-0.2c0.1-0.1,0.1-0.2,0.1-0.5c0.1-1.8,0.2-3.6,0.3-5.5
			s0.3-3.7,0.5-5.4C232.7,90.1,232.8,89.9,233.1,89.9z"/>
		<path class="st4" d="M90.3,123c0.1,0.2,0.2,0.3,0.2,0.5s-0.1,0.4-0.2,0.7c-0.1,0.3-0.2,0.4-0.3,0.4c-0.1,0-0.1-0.1-0.1-0.3
			c0-0.2,0-0.3-0.2-0.3c-0.1,0-0.2,0-0.3,0s-0.2,0-0.4,0c-0.2,1.4-0.4,2.7-0.5,4c-0.1,1.3-0.3,2.7-0.4,4.3c0,0.4,0,0.6,0,0.7
			c0,0.1,0.1,0.2,0.1,0.3s0,0.2-0.1,0.3s-0.2,0.1-0.3,0.1c-0.1,0-0.2-0.1-0.4-0.4c-0.1-0.2-0.2-0.5-0.2-0.9c0.1-1.5,0.2-2.9,0.4-4.3
			c0.1-1.4,0.3-2.8,0.4-4.1c-0.6,0-1,0.1-1.4,0.2s-0.9,0.3-1.4,0.5c-0.2,0.1-0.4,0.2-0.6,0.3c-0.2,0.1-0.4,0.2-0.6,0.2
			c-0.1,0-0.2-0.3-0.3-0.8c-0.1-0.5-0.1-0.8,0.1-0.8c1-0.3,2.1-0.5,3.2-0.7s2.1-0.2,2.8-0.2C90,122.7,90.2,122.8,90.3,123z
			 M89.5,115.3c0,0.4-0.1,0.7-0.4,0.7c-0.5,0.1-1,0.2-1.5,0.3c-0.5,0.1-0.8,0.3-1,0.5c-0.2,0.1-0.3,0.4-0.4,0.8s-0.2,0.8-0.2,1.2
			c0,0.2,0,0.4,0.1,0.5s0.1,0.2,0.2,0.1c0.5-0.1,0.9-0.2,1.4-0.3c0.5-0.1,1-0.1,1.5-0.2c0.3,0,0.4,0.1,0.5,0.5
			c0,0.4-0.1,0.6-0.4,0.6c-0.6,0.1-1.1,0.2-1.7,0.3c-0.5,0.1-1,0.2-1.5,0.4c-0.4,0.1-0.7,0-0.9-0.3c-0.2-0.3-0.2-0.8-0.2-1.4
			c0-0.5,0.1-0.9,0.2-1.3s0.1-0.7,0.2-1c-0.4,0.3-0.6,0.2-0.7-0.2c-0.1-0.4,0-0.7,0.3-0.8c0.7-0.2,1.4-0.4,1.9-0.6
			c0.6-0.1,1.2-0.2,2-0.3C89.3,114.6,89.5,114.8,89.5,115.3z"/>
		<path class="st4" d="M95.2,122.4c-0.9,0.4-1.3,1.1-1.3,2.1c0,0.4,0.1,0.8,0.2,1s0.2,0.3,0.3,0.3c0.6,0,1.1-0.2,1.4-0.6
			c0.4-0.4,1-0.5,2-0.4c0.2,0,0.3,0.2,0.3,0.6S98,126,97.8,126c-0.8-0.1-1.4,0.1-1.9,0.5s-1,0.5-1.6,0.5c-0.5,0-0.8-0.2-1-0.7
			s-0.3-1.1-0.3-1.7c0-1.6,0.4-2.6,1.3-3s1.3-1.1,1.3-2.1c0-0.3-0.2-0.8-0.7-1.3s-1.1-1-1.8-1.4c-0.3-0.1-0.3-0.4-0.2-0.9
			c0.1-0.4,0.3-0.6,0.5-0.4c0.7,0.4,1.4,0.9,2.1,1.6c0.6,0.7,0.9,1.5,0.9,2.3C96.5,121,96.1,122,95.2,122.4z M100.3,129.9
			c0.1,0.1,0.1,0.2,0.1,0.5c0,0.2,0,0.4-0.1,0.6c-0.1,0.2-0.2,0.3-0.3,0.3c-0.1,0-0.2-0.1-0.2-0.3s-0.1-0.9-0.1-2.1
			c0-0.6,0-1.5,0.1-2.9c0-1.4,0.1-2.3,0.1-2.7c-0.3,0-0.6,0-0.9,0.1s-0.7,0.1-1.1,0.2c-0.2,0-0.3-0.2-0.4-0.6s0-0.6,0.2-0.6
			c0.4-0.1,0.8-0.1,1.2-0.2c0.4,0,0.7-0.1,1.1-0.1c0-0.4,0-0.8,0.1-1.1c0-0.4,0-0.7,0.1-1.1c-0.2,0-0.6,0-1,0
			c-0.4,0.1-0.7,0.1-1,0.2c-0.2,0-0.3-0.2-0.4-0.5c-0.1-0.4,0-0.6,0.1-0.6c0.4-0.1,0.8-0.1,1.2-0.2s0.8-0.1,1.1-0.1
			c0-0.4,0.1-0.8,0.1-1.3c0.1-0.4,0.1-0.9,0.2-1.4c0-0.3,0.2-0.5,0.5-0.4s0.4,0.2,0.4,0.4c-0.3,1.7-0.5,3.8-0.6,6.3
			c-0.2,2.5-0.3,4.7-0.3,6.8C100.3,129.5,100.3,129.8,100.3,129.9z"/>
		<path class="st4" d="M109.4,121.7c0.1,0.2,0.2,0.4,0.2,0.6s-0.1,0.4-0.2,0.6s-0.2,0.2-0.3,0.2c-0.1,0-0.1,0-0.1-0.1s0-0.2-0.2-0.2
			c-0.1,0-0.2,0-0.4,0c-0.2,0-0.4,0-0.5,0.1c0,0.4-0.1,0.9-0.1,1.5c-0.1,0.6-0.1,1.2-0.2,1.9c0,0.4-0.2,0.5-0.5,0.5
			s-0.4-0.2-0.4-0.6c0-0.6,0.1-1.2,0.2-1.8c0.1-0.6,0.1-1.1,0.1-1.4c-0.4,0.1-0.7,0.1-1.1,0.2c-0.3,0.1-0.6,0.2-0.8,0.3
			c-0.2,0.1-0.4,0.3-0.6,0.4c-0.2,0.2-0.4,0.3-0.6,0.3c-0.1,0-0.3-0.3-0.5-0.8c-0.2-0.6-0.1-0.9,0.2-1c1-0.3,1.9-0.5,2.8-0.7
			s1.6-0.2,2.3-0.2C109.1,121.5,109.3,121.6,109.4,121.7z M108.4,126.9c0.2,0.3,0.3,0.8,0.3,1.5c0,0.4-0.1,0.9-0.3,1.5
			c-0.2,0.6-0.3,1.1-0.4,1.6c0.2-0.1,0.4-0.3,0.6-0.5s0.4-0.4,0.6-0.5c0.2-0.2,0.3-0.1,0.4,0.2s0,0.7-0.3,1.1
			c-0.3,0.3-0.5,0.5-0.8,0.8c-0.3,0.2-0.6,0.4-0.9,0.4c-0.4,0-0.6-0.4-0.5-1.2s0.3-1.7,0.6-2.8c0.1-0.3,0.1-0.6,0.1-0.9
			c0-0.2-0.1-0.4-0.4-0.4s-0.6,0.2-0.9,0.7c-0.3,0.4-0.6,0.8-0.8,1.1c0,0.4,0,0.9,0,1.3s0.1,0.9,0.1,1.3c0,0.4-0.1,0.7-0.3,0.6
			c-0.3,0-0.4-0.2-0.4-0.5c-0.1-0.9-0.2-1.8-0.2-2.7s0-1.7,0-2.6c0-0.3,0.2-0.5,0.4-0.6c0.3-0.1,0.4,0.1,0.4,0.4c0,0.2,0,0.3,0,0.5
			s0,0.4,0,0.6c0.2-0.4,0.5-0.7,0.8-1s0.7-0.4,0.9-0.4C107.9,126.4,108.2,126.6,108.4,126.9z M106.9,114.2c0.1,0.1,0.1,0.2,0,0.3
			c0.1-0.2,0.4-0.2,0.9-0.1c0.5,0.2,0.8,0.9,0.9,2.1c0.1,0.8-0.1,1.5-0.4,2.1c-0.4,0.6-0.8,0.9-1.3,0.9s-1-0.2-1.3-0.7
			c-0.3-0.4-0.5-1.1-0.5-1.8c0-0.7,0.2-1.4,0.5-2c0.4-0.6,0.6-0.9,0.8-0.9C106.8,114.1,106.9,114.2,106.9,114.2z M107.8,115.6
			c-0.2-0.2-0.4-0.2-0.5,0c0,0.1-0.1,0.2-0.2,0.2s-0.2-0.3-0.1-0.9c-0.2,0.1-0.4,0.4-0.5,0.8c-0.2,0.4-0.2,0.8-0.2,1.3
			c0,0.4,0.1,0.7,0.3,1c0.2,0.2,0.4,0.4,0.7,0.4c0.4,0,0.6-0.2,0.8-0.5c0.2-0.3,0.2-0.7,0.2-1.1C108.2,116.2,108,115.9,107.8,115.6z
			"/>
		<path class="st4" d="M114.4,117.4c0.1,0.2,0.1,0.3,0,0.4c0.7-0.2,1.1,0,1.4,0.6c0.3,0.5,0.4,1.2,0.4,1.9c0,1-0.2,1.7-0.6,2.2
			s-0.9,0.8-1.5,0.8c-0.7,0-1.1-0.3-1.5-0.9c-0.3-0.6-0.5-1.2-0.5-2s0.2-1.5,0.6-2.2s0.9-1,1.5-1
			C114.2,117.2,114.3,117.3,114.4,117.4z M115,119.2c-0.2-0.2-0.4-0.2-0.6-0.1c-0.1,0.1-0.2,0-0.3-0.2c0-0.2-0.1-0.3,0-0.5
			c-0.3,0-0.7,0.2-0.9,0.5c-0.3,0.4-0.4,0.8-0.4,1.4c0,0.5,0.1,1,0.3,1.2c0.2,0.3,0.5,0.4,0.8,0.4s0.6-0.2,0.9-0.5s0.4-0.7,0.4-1.3
			C115.3,119.7,115.2,119.4,115,119.2z M118.2,128.4c0,0.1,0,0.2,0,0.4c0,0.1,0,0.1-0.1,0.3c0,0.1-0.1,0.2-0.2,0.2s-0.2-0.1-0.3-0.3
			c-0.1-0.2-0.2-0.5-0.2-1.1s0-1.4,0.1-2.7c0.1-1.2,0.1-2.4,0.2-3.4c-0.3-0.1-0.6-0.1-0.9-0.1s-0.6,0-0.9,0.1
			c-0.3,0-0.4-0.2-0.4-0.5c0-0.4,0.1-0.6,0.3-0.6c0.4-0.1,0.8-0.1,1.1-0.1c0.3,0,0.6,0,0.9,0c0-0.9,0.1-1.7,0.2-2.5s0.1-1.5,0.2-2
			c0-0.3,0.2-0.5,0.5-0.5s0.4,0.2,0.4,0.5c-0.2,2-0.3,4-0.4,5.8s-0.2,3.9-0.3,6.3C118.2,128.3,118.2,128.4,118.2,128.4z
			 M119.4,132.1c-0.3,0.1-0.4-0.1-0.4-0.6c0-2.4,0.1-5.1,0.3-8c0.1-2.9,0.3-5.4,0.5-7.3c0-0.4,0.2-0.6,0.5-0.6
			c0.3,0.1,0.4,0.2,0.3,0.5c-0.3,2.9-0.4,5.5-0.5,8c-0.1,2.4-0.2,4.9-0.2,7.4C119.8,131.7,119.7,131.9,119.4,132.1z"/>
		<path class="st4" d="M127.3,116.7c0,0.4-0.1,0.7-0.4,0.7c-0.5,0.1-1,0.2-1.5,0.3c-0.5,0.1-0.8,0.3-1,0.5c-0.2,0.1-0.3,0.5-0.4,1.1
			s-0.2,1.3-0.3,1.9c0,0.2,0,0.4,0,0.5s0.1,0.2,0.2,0.1c0.5-0.1,1-0.2,1.5-0.2s1-0.2,1.5-0.2c0.3-0.1,0.4,0.1,0.5,0.5
			c0,0.4-0.1,0.6-0.4,0.7c-0.6,0.2-1.1,0.3-1.7,0.4c-0.5,0.1-1,0.2-1.5,0.3c-0.4,0.1-0.7,0-0.9-0.4c-0.2-0.3-0.2-0.8-0.2-1.4
			c0.1-0.9,0.2-1.6,0.3-2.1c0.1-0.5,0.2-1,0.3-1.3c-0.4,0.3-0.6,0.2-0.7-0.2c-0.1-0.4,0-0.7,0.3-0.8c0.7-0.2,1.4-0.4,1.9-0.6
			c0.6-0.1,1.2-0.2,2-0.3C127.2,116.1,127.3,116.3,127.3,116.7z M125.5,125.4c-0.1,0.7-0.1,1.3-0.2,1.8c0.6-0.1,1-0.2,1.4-0.2
			s0.8,0,1.4,0c0.2,0,0.3,0.2,0.3,0.6c0,0.4-0.1,0.6-0.3,0.6c-1,0-1.8,0.1-2.5,0.2c-0.7,0.1-1.5,0.3-2.4,0.6
			c-0.2,0.1-0.3-0.1-0.4-0.4c-0.1-0.3,0-0.6,0.1-0.8c0.1-0.1,0.3-0.2,0.7-0.3c0.4-0.1,0.6-0.2,0.7-0.2c0.1-0.9,0.2-1.7,0.3-2.5
			c0.1-0.8,0.2-1.5,0.3-2.3c0-0.4,0.2-0.5,0.4-0.3c0.2,0.1,0.3,0.4,0.3,0.9C125.7,123.9,125.6,124.7,125.5,125.4z"/>
		<path class="st4" d="M141.5,121.7c0.1,0.2,0.2,0.4,0.2,0.6s-0.1,0.4-0.2,0.6c-0.1,0.2-0.2,0.2-0.3,0.2s-0.1,0-0.1-0.1
			s0-0.2-0.2-0.2c-0.1,0-0.2,0-0.4,0s-0.4,0-0.5,0.1c0,0.4-0.1,0.9-0.1,1.5c-0.1,0.6-0.1,1.2-0.2,1.9c0,0.4-0.2,0.5-0.5,0.5
			s-0.4-0.2-0.4-0.6c0-0.6,0.1-1.2,0.2-1.8c0.1-0.6,0.1-1.1,0.1-1.4c-0.4,0.1-0.7,0.1-1.1,0.2c-0.3,0.1-0.6,0.2-0.8,0.3
			c-0.2,0.1-0.4,0.3-0.6,0.4c-0.2,0.2-0.4,0.3-0.6,0.3c-0.1,0-0.3-0.3-0.5-0.8c-0.2-0.6-0.1-0.9,0.2-1c1-0.3,1.9-0.5,2.8-0.7
			c0.9-0.2,1.6-0.2,2.3-0.2C141.2,121.5,141.4,121.6,141.5,121.7z M137.3,114.1c0,0.3-0.1,0.6-0.1,0.9c0.3,0,0.8,0.1,1.4,0.1
			c0.6,0,1,0.1,1.3,0.2c0-0.3,0-0.6,0-1.1c0-0.4,0-0.8,0-1c0-0.3,0.1-0.4,0.4-0.5c0.2,0,0.4,0.1,0.4,0.4s0,0.7,0,1.1s0,0.8,0,1.2
			c0.2,0.1,0.2,0.3,0.2,0.7c0,0.3-0.1,0.5-0.2,0.4c0,0.6,0,1-0.1,1.3c0,0.3-0.1,0.7-0.1,1.1c0,0.2-0.1,0.3-0.4,0.5
			c-0.2,0.1-0.3,0-0.4-0.3c-0.5,0-1,0.1-1.3,0.2c-0.4,0.1-0.8,0.2-1.2,0.4c-0.4,0.1-0.7-0.1-0.8-0.6s-0.2-1-0.2-1.6
			c0-0.7,0-1.5,0.1-2.3c0-0.8,0.2-1.5,0.3-2.1c0.1-0.2,0.2-0.3,0.4-0.2c0.2,0.1,0.3,0.2,0.3,0.5
			C137.4,113.6,137.4,113.8,137.3,114.1z M137.2,117.6c0,0.3,0,0.5,0.1,0.6c0,0.1,0.2,0.2,0.3,0.1c0.4-0.1,0.8-0.2,1.1-0.2
			c0.4-0.1,0.7-0.1,1.1-0.2c0-0.2,0-0.5,0-0.7c0-0.3,0-0.5,0-0.7c-0.5-0.1-0.9-0.2-1.4-0.2s-0.9,0-1.4-0.1v1.4H137.2z M140.5,127.4
			c0.2,0.3,0.2,0.6,0.2,0.9c0,0.2-0.1,0.6-0.3,1.2c-0.2,0.6-0.4,1.2-0.6,1.7c-0.1,0.2-0.1,0.4,0,0.5s0.2,0.2,0.3,0.2
			c0.4,0,0.8-0.3,1.3-0.9c0.5-0.6,0.9-1.3,1.2-2.3c0.1-0.3,0.2-0.3,0.4-0.1s0.2,0.5,0.1,0.8c-0.4,1.2-0.9,2.1-1.4,2.7
			c-0.5,0.6-1.1,1-1.6,1s-0.8-0.2-1-0.5s-0.3-0.7-0.3-1.3s0.2-1.3,0.6-2.1c0.4-0.8,0.4-1.2-0.1-1.2c-0.3,0-0.6,0-1,0
			c-0.3,0-0.7,0-0.9,0c-0.3,0-0.4-0.2-0.3-0.6c0-0.4,0.1-0.6,0.4-0.6c0.4,0,0.8,0,1.1,0s0.6,0,0.9,0.1
			C140.1,126.9,140.4,127.1,140.5,127.4z"/>
		<path class="st4" d="M149.6,123c0.1,0.2,0.2,0.3,0.2,0.5s-0.1,0.4-0.2,0.7c-0.1,0.3-0.2,0.4-0.3,0.4s-0.1-0.1-0.1-0.3
			c0-0.2,0-0.3-0.2-0.3c-0.1,0-0.2,0-0.3,0s-0.2,0-0.4,0c-0.2,1.4-0.4,2.7-0.5,4c-0.1,1.3-0.3,2.7-0.4,4.3c0,0.4,0,0.6,0,0.7
			c0,0.1,0.1,0.2,0.1,0.3s0,0.2-0.1,0.3s-0.2,0.1-0.3,0.1s-0.2-0.1-0.4-0.4c-0.1-0.2-0.2-0.5-0.2-0.9c0.1-1.5,0.2-2.9,0.4-4.3
			c0.1-1.4,0.3-2.8,0.4-4.1c-0.6,0-1,0.1-1.4,0.2s-0.9,0.3-1.4,0.5c-0.2,0.1-0.4,0.2-0.6,0.3c-0.2,0.1-0.4,0.2-0.6,0.2
			c-0.1,0-0.2-0.3-0.3-0.8s-0.1-0.8,0.1-0.8c1-0.3,2.1-0.5,3.2-0.7c1.1-0.2,2.1-0.2,2.8-0.2C149.3,122.7,149.4,122.8,149.6,123z
			 M148.7,119.7c-0.1,1.1-0.3,1.9-0.4,2.4c-0.1,0.4-0.2,0.5-0.5,0.4s-0.3-0.4-0.3-0.7c0.2-0.9,0.3-1.7,0.4-2.5s0.1-1.3,0.2-1.7
			c0-0.4,0-0.7-0.1-0.8c-0.1-0.2-0.2-0.3-0.4-0.3c-0.2-0.1-0.6-0.1-1-0.2c-0.5,0-0.9,0-1.3,0c-0.2,0-0.4-0.2-0.4-0.6
			s0.1-0.6,0.4-0.6c0.4,0,0.9,0,1.3,0c0.4,0,0.8,0.1,1.3,0.2c0.4,0.1,0.6,0.3,0.8,0.5c0.2,0.3,0.3,0.7,0.3,1.4
			C148.9,117.8,148.8,118.6,148.7,119.7z"/>
		<path class="st4" d="M156.5,117.8c0.1,0.2,0.1,0.4,0.1,0.5c0,0.2,0,0.4-0.1,0.6c-0.1,0.1-0.2,0.2-0.3,0.2s-0.2,0-0.1-0.1
			c0-0.1,0-0.1,0-0.1c-0.6,0-1.1,0.1-1.7,0.2c-0.6,0.1-1.1,0.2-1.7,0.4c-0.3,0.1-0.5-0.2-0.5-0.6c0-0.5,0.1-0.7,0.4-0.7
			c0.6-0.1,1.2-0.2,1.7-0.3c0.5-0.1,1.1-0.1,1.7-0.2C156.2,117.5,156.4,117.6,156.5,117.8z M154.9,120.3c-0.1,0.1-0.1,0.1-0.2,0.2
			c0.4,0,0.7,0.2,1,0.5s0.4,0.8,0.4,1.5s-0.2,1.4-0.6,2c-0.4,0.7-0.9,1-1.5,1c-0.5,0-0.9-0.2-1.1-0.6c-0.2-0.4-0.3-0.9-0.3-1.4
			c0-1,0.2-1.8,0.7-2.6c0.5-0.7,1-1.2,1.4-1.4c0.2-0.1,0.2,0,0.3,0.2c0,0.2,0,0.3-0.1,0.4C155,120.1,155,120.2,154.9,120.3z
			 M154.6,115.3c0.4,0.2,0.8,0.5,1.2,0.7c0.2,0.1,0.3,0.3,0.2,0.7c-0.1,0.3-0.2,0.5-0.4,0.4c-0.5-0.2-1-0.4-1.3-0.6
			s-0.7-0.5-1.1-0.8c-0.1-0.1-0.1-0.4,0-0.7c0.1-0.4,0.2-0.5,0.4-0.3C153.9,114.9,154.2,115.1,154.6,115.3z M153.7,124
			c0.1,0.2,0.2,0.3,0.4,0.3c0.3,0,0.6-0.2,0.9-0.5c0.3-0.3,0.4-0.7,0.4-1.2c0-0.3-0.1-0.6-0.3-0.9s-0.4-0.5-0.7-0.6
			c-0.3,0.1-0.5,0.4-0.7,0.9s-0.3,0.9-0.3,1.1C153.6,123.5,153.6,123.8,153.7,124z M160.1,120.4c0.3,0,0.7,0.1,1,0.2
			c0.2,0,0.3,0.1,0.3,0.2c0.1,0.1,0.1,0.2,0.1,0.3c0,0.1-0.1,0.3-0.3,0.5s-0.4,0.3-0.6,0.2c-0.3-0.1-0.5-0.1-0.8-0.1s-0.5,0-0.7,0
			c-0.1,1.7-0.2,3.2-0.2,4.6s0,2.7,0,4c0,0.3-0.1,0.5-0.4,0.6c-0.3,0.1-0.4-0.1-0.4-0.6c0-1.2,0-2.6,0-4s0.1-3,0.2-4.6
			c-0.3,0-0.4-0.2-0.3-0.6s0.2-0.7,0.4-0.7c0.1-1.2,0.2-2.1,0.2-2.8c0-0.7,0.1-1.2,0.1-1.6c0-0.3,0.2-0.5,0.4-0.5s0.4,0.2,0.3,0.5
			c0,0.5-0.1,1.1-0.1,1.9c-0.1,0.8-0.1,1.6-0.2,2.4C159.5,120.4,159.8,120.4,160.1,120.4z"/>
		<path class="st4" d="M165.1,125.1c-0.1,0.8-0.2,1.5-0.2,2c0.6-0.1,1.1-0.2,1.8-0.3c0.6-0.1,1.2-0.1,1.8-0.1c0.2,0,0.3,0.2,0.3,0.6
			s-0.1,0.6-0.3,0.6c-1,0-1.8,0.1-2.5,0.2c-0.7,0.1-1.5,0.3-2.4,0.6c-0.2,0.1-0.3-0.1-0.4-0.4c-0.1-0.3,0-0.6,0.1-0.8
			c0.1-0.1,0.2-0.2,0.3-0.2c0.1-0.1,0.3-0.1,0.3-0.1c0.1-0.9,0.2-1.8,0.3-2.6c0.1-0.9,0.3-1.7,0.5-2.4c0.1-0.3,0.2-0.5,0.5-0.4
			c0.2,0.1,0.3,0.4,0.2,0.8C165.3,123.5,165.2,124.3,165.1,125.1z M167.7,121.8c-0.1,1.1-0.2,2.1-0.3,3c0,0.4-0.2,0.6-0.5,0.5
			s-0.4-0.4-0.3-0.8c0.1-1.1,0.2-2.1,0.3-2.9c0.1-0.9,0.2-1.7,0.2-2.4c0-0.3,0-0.5,0-0.7c-0.1-0.2-0.2-0.3-0.3-0.3
			c-0.3-0.1-0.7-0.3-1.2-0.4s-1-0.2-1.6-0.2c-0.3,0-0.4-0.3-0.4-0.7c0-0.5,0.1-0.7,0.4-0.6c0.6,0.1,1.2,0.1,1.6,0.2
			c0.5,0.1,1,0.3,1.6,0.5c0.4,0.1,0.6,0.4,0.7,0.7c0.1,0.3,0.1,0.8,0.1,1.3C167.9,119.8,167.8,120.7,167.7,121.8z"/>
		<path class="st4" d="M177.7,118.6c-0.3,0.1-0.7,0.2-1.3,0.3c-0.3,0-0.5-0.1-0.5-0.5s0.1-0.6,0.4-0.6c0.4-0.1,0.9-0.2,1.3-0.2
			c0.5-0.1,1-0.1,1.7-0.2c-0.2-0.3-0.5-0.7-1-1s-1-0.6-1.5-0.9c-0.1-0.1-0.1-0.3,0-0.6c0.1-0.4,0.3-0.5,0.4-0.4
			c0.4,0.2,0.8,0.4,1.1,0.6s0.6,0.5,1,0.9c0.3,0.4,0.5,0.7,0.5,0.9c0,0.3-0.1,0.4-0.2,0.5c0.1,0,0.2,0.1,0.3,0.2s0.2,0.2,0.2,0.4
			c0,0.2,0,0.4-0.1,0.5c0,0.1-0.1,0.2-0.2,0.2c-0.1,0-0.2,0.1-0.4,0.2s-0.4,0.4-0.7,0.8c0.4,0,0.7,0.3,1,0.8s0.4,1,0.4,1.6
			c0,0.7-0.2,1.3-0.6,1.8c-0.4,0.5-0.9,0.7-1.5,0.7c-0.5,0-0.9-0.2-1.1-0.6c-0.2-0.4-0.3-0.8-0.3-1.2c0-0.8,0.2-1.6,0.6-2.3
			c0.4-0.7,1-1.3,1.8-1.9C178.4,118.4,178,118.5,177.7,118.6z M177.5,122.9c0.1,0.1,0.3,0.2,0.4,0.2c0.4,0,0.8-0.1,1-0.4
			c0.3-0.3,0.4-0.6,0.4-0.9c0-0.2-0.1-0.5-0.2-1c-0.2-0.4-0.4-0.7-0.6-0.8c-0.3,0.1-0.6,0.4-0.8,0.9c-0.3,0.6-0.4,1-0.4,1.3
			C177.3,122.6,177.4,122.8,177.5,122.9z M182.2,126.8c0.1-0.2,0.3-0.3,0.6-0.2c0.5,0.2,1,0.5,1.3,1s0.5,1,0.5,1.6
			c0,1-0.2,1.8-0.6,2.4c-0.4,0.6-0.9,0.9-1.4,0.9s-0.9-0.2-1.2-0.6s-0.4-1-0.4-1.7c0-0.5,0.1-1.1,0.3-1.7c0.2-0.6,0.5-1,0.8-1.1
			C182.1,127.2,182.1,127,182.2,126.8z M182.8,117.6c0,0.5-0.1,0.9-0.1,1.4c0.2-0.1,0.4-0.1,0.6-0.1c0.2,0,0.4,0,0.5,0
			c0-0.6,0.1-1.2,0.1-1.6s0.1-0.9,0.1-1.3c0-0.2,0.2-0.3,0.4-0.3c0.3,0.1,0.4,0.2,0.4,0.4c-0.1,1.5-0.2,2.9-0.3,4.1
			s-0.1,2.7-0.2,4.4c0,0.4-0.2,0.5-0.4,0.5c-0.3,0-0.4-0.2-0.4-0.7c0-1.1,0.1-1.9,0.1-2.6s0.1-1.3,0.1-1.7c-0.2,0-0.4,0-0.6,0
			c-0.2,0-0.3,0-0.5,0.1c0,0.7-0.1,1.4-0.1,1.9c0,0.6-0.1,1.1-0.1,1.8c0,0.6-0.2,0.9-0.5,0.9s-0.4-0.3-0.4-0.8
			c0.1-1.7,0.2-3.1,0.2-4.3c0.1-1.2,0.2-2.4,0.3-3.8c0-0.3,0.2-0.4,0.5-0.4s0.4,0.2,0.4,0.4C182.9,116.7,182.8,117.2,182.8,117.6z
			 M183.5,128.6c-0.2-0.3-0.5-0.4-0.7-0.4c-0.4,0-0.6,0.3-0.7,0.9c-0.1,0.5-0.2,1-0.2,1.3s0.1,0.6,0.2,0.7c0.1,0.2,0.3,0.2,0.5,0.2
			c0.3,0,0.6-0.2,0.9-0.5c0.3-0.3,0.4-0.8,0.4-1.3C183.8,129.2,183.7,128.9,183.5,128.6z"/>
		<path class="st4" d="M189.8,122c0,0.4-0.1,0.7-0.1,1.1c0.4-0.1,0.8-0.1,1.2-0.1s0.9,0,1.5,0c0.2,0,0.3,0.3,0.3,0.7
			c0,0.5-0.1,0.7-0.3,0.7c-0.1,0-0.1-0.1-0.1-0.2s-0.1-0.2-0.1-0.1c-0.9,0-1.7,0.1-2.4,0.2s-1.4,0.4-2.1,0.7
			c-0.2,0.1-0.3-0.1-0.4-0.4c-0.1-0.4,0-0.6,0.2-0.8c0.1-0.1,0.3-0.2,0.7-0.3c0.4-0.2,0.7-0.2,0.8-0.3c0.1-0.6,0.1-1,0.2-1.5
			c0.1-0.4,0.1-1,0.2-1.6c0-0.2,0.2-0.3,0.4-0.4c0.2,0,0.3,0.2,0.3,0.7C189.9,121.1,189.8,121.6,189.8,122z M191.7,114.8
			c0,0.4-0.1,0.7-0.4,0.7c-0.5,0.1-1,0.2-1.5,0.3c-0.5,0.1-0.8,0.3-1,0.5c-0.2,0.1-0.3,0.5-0.4,1c-0.1,0.6-0.2,1-0.2,1.5
			c0,0.2,0,0.4,0.1,0.5s0.1,0.2,0.2,0.1c0.5-0.1,0.9-0.2,1.4-0.3c0.5-0.1,1-0.1,1.5-0.2c0.3,0,0.4,0.1,0.5,0.5
			c0,0.4-0.1,0.6-0.4,0.6c-0.6,0.1-1.1,0.2-1.7,0.3c-0.5,0.1-1,0.2-1.5,0.4c-0.4,0.1-0.7,0-0.9-0.3s-0.2-0.8-0.2-1.4
			c0-0.5,0.1-1,0.2-1.6s0.2-1,0.3-1.3c-0.4,0.3-0.6,0.2-0.7-0.2c-0.1-0.4,0-0.7,0.3-0.8c0.7-0.2,1.4-0.4,1.9-0.6
			c0.6-0.1,1.2-0.2,2-0.3C191.6,114.2,191.7,114.4,191.7,114.8z M191,126.7c0.1,0.1,0.1,0.2,0.1,0.2c0.3,0,0.5,0.2,0.8,0.7
			s0.4,1.1,0.4,1.7c0,0.8-0.2,1.5-0.6,2.2c-0.4,0.6-0.8,1-1.3,1s-0.9-0.2-1.2-0.6s-0.4-1-0.4-1.7c0-0.8,0.2-1.6,0.7-2.4
			c0.5-0.8,0.9-1.2,1.3-1.2C190.8,126.5,190.9,126.6,191,126.7z M191.3,128.6c-0.1-0.2-0.2-0.2-0.4-0.1c-0.1,0.1-0.2,0-0.2-0.1
			c-0.1-0.2-0.1-0.3-0.1-0.6c-0.4,0.2-0.7,0.6-0.9,1.2s-0.3,1-0.3,1.3s0.1,0.6,0.3,0.7c0.2,0.1,0.4,0.2,0.6,0.2
			c0.3,0,0.6-0.2,0.8-0.5s0.3-0.7,0.3-1C191.4,129.2,191.4,128.8,191.3,128.6z"/>
		<path class="st4" d="M199.3,117.8c0.1,0.2,0.1,0.4,0.1,0.5c0,0.2,0,0.4-0.1,0.6c-0.1,0.1-0.2,0.2-0.3,0.2s-0.2,0-0.1-0.1
			c0-0.1,0-0.1,0-0.1c-0.6,0-1.1,0.1-1.7,0.2c-0.6,0.1-1.1,0.2-1.7,0.4c-0.3,0.1-0.5-0.2-0.5-0.6c0-0.5,0.1-0.7,0.4-0.7
			c0.6-0.1,1.2-0.2,1.7-0.3c0.5-0.1,1.1-0.1,1.7-0.2C199.1,117.5,199.2,117.6,199.3,117.8z M197.8,120.3c-0.1,0.1-0.1,0.1-0.2,0.2
			c0.4,0,0.7,0.2,1,0.5s0.4,0.8,0.4,1.5s-0.2,1.4-0.6,2c-0.4,0.7-0.9,1-1.5,1c-0.5,0-0.9-0.2-1.1-0.6c-0.2-0.4-0.3-0.9-0.3-1.4
			c0-1,0.2-1.8,0.7-2.6c0.5-0.7,1-1.2,1.4-1.4c0.2-0.1,0.2,0,0.3,0.2c0,0.2,0,0.3-0.1,0.4C197.9,120.1,197.8,120.2,197.8,120.3z
			 M197.5,115.3c0.4,0.2,0.8,0.5,1.2,0.7c0.2,0.1,0.3,0.3,0.2,0.7c-0.1,0.3-0.2,0.5-0.4,0.4c-0.5-0.2-1-0.4-1.3-0.6
			c-0.4-0.2-0.7-0.5-1.1-0.8c-0.1-0.1-0.1-0.4,0-0.7c0.1-0.4,0.2-0.5,0.4-0.3C196.7,114.9,197.1,115.1,197.5,115.3z M196.5,124
			c0.1,0.2,0.2,0.3,0.4,0.3c0.3,0,0.6-0.2,0.9-0.5c0.3-0.3,0.4-0.7,0.4-1.2c0-0.3-0.1-0.6-0.3-0.9s-0.4-0.5-0.7-0.6
			c-0.3,0.1-0.5,0.4-0.7,0.9s-0.3,0.9-0.3,1.1C196.4,123.5,196.4,123.8,196.5,124z M202.9,120.4c0.3,0,0.7,0.1,1,0.2
			c0.2,0,0.3,0.1,0.3,0.2c0.1,0.1,0.1,0.2,0.1,0.3c0,0.1-0.1,0.3-0.3,0.5s-0.4,0.3-0.6,0.2c-0.3-0.1-0.5-0.1-0.8-0.1s-0.5,0-0.7,0
			c-0.1,1.7-0.2,3.2-0.2,4.6s0,2.7,0,4c0,0.3-0.1,0.5-0.4,0.6c-0.3,0.1-0.4-0.1-0.4-0.6c0-1.2,0-2.6,0-4s0.1-3,0.2-4.6
			c-0.3,0-0.4-0.2-0.3-0.6c0.1-0.4,0.2-0.7,0.4-0.7c0.1-1.2,0.2-2.1,0.2-2.8c0-0.7,0.1-1.2,0.1-1.6c0-0.3,0.2-0.5,0.4-0.5
			s0.4,0.2,0.3,0.5c0,0.5-0.1,1.1-0.1,1.9c-0.1,0.8-0.1,1.6-0.2,2.4C202.3,120.4,202.6,120.4,202.9,120.4z"/>
		<path class="st4" d="M212.1,123.9c-0.2,0.4-0.3,0.6-0.5,0.6c-0.1,0-0.1,0-0.1-0.1c0.1-0.1,0-0.1-0.1-0.1c-0.9,0.1-1.8,0.1-2.8,0.2
			c-0.9,0.1-1.8,0.2-2.8,0.4c-0.2,0-0.4-0.1-0.4-0.2c-0.1-0.2-0.1-0.4-0.1-0.6s0-0.4,0.1-0.6s0.2-0.3,0.3-0.3s0.2,0.1,0.1,0.3
			c-0.1,0.2-0.1,0.2,0,0.2c0.9-0.1,1.9-0.2,2.8-0.3c0.9-0.1,1.9,0,2.9,0.1C212,123.3,212.2,123.5,212.1,123.9z M207.4,116.7
			c-0.1,0.6-0.1,1.2-0.2,1.6c0,0.4,0,0.6,0.1,0.7s0.2,0.1,0.3,0.1c0.6-0.1,1.2-0.1,1.7-0.2s1-0.2,1.4-0.4c0.3-0.1,0.4,0,0.4,0.4
			s-0.1,0.6-0.2,0.7c-0.6,0.2-1.3,0.4-1.9,0.5c-0.6,0.1-1.1,0.2-1.5,0.2s-0.7-0.1-0.9-0.3c-0.2-0.2-0.3-0.7-0.2-1.4
			c0.1-0.9,0.1-1.6,0.2-2.2c0.1-0.6,0.2-1.2,0.3-1.9c0.1-0.3,0.2-0.4,0.5-0.4c0.2,0.1,0.3,0.2,0.3,0.5
			C207.6,115.5,207.5,116.1,207.4,116.7z M208,129.1c-0.1,0.6-0.1,1.2-0.1,1.8c0,0.4,0.1,0.6,0.1,0.6c0.1,0,0.2,0,0.3,0
			c0.4-0.2,0.8-0.3,1.3-0.4c0.5-0.1,1.1-0.1,1.6-0.1c0.2,0,0.3,0.2,0.3,0.6c0,0.4-0.1,0.6-0.2,0.6c-0.7,0-1.2,0-1.7,0.1
			s-1,0.3-1.6,0.5c-0.3,0.1-0.5,0-0.7-0.3s-0.2-0.7-0.2-1.1c0-0.8,0-1.6,0-2.2c0-0.6,0.1-1.3,0.2-2.1c0-0.3,0.2-0.4,0.4-0.3
			s0.4,0.3,0.3,0.6C208.1,127.9,208,128.5,208,129.1z"/>
		<path class="st4" d="M222.8,120.9c-0.3,1.6-0.5,2.8-0.7,3.6c-0.1,0.2-0.2,0.3-0.5,0.1c-0.3-0.1-0.4-0.4-0.3-0.7
			c0.3-1.1,0.5-2.2,0.7-3.4s0.3-2,0.4-2.5c0-0.2,0-0.4-0.1-0.5s-0.3-0.2-0.4-0.2c-0.4-0.1-0.8-0.1-1.2-0.2c-0.4,0-0.8,0-1.2,0
			c-0.2,0-0.3-0.2-0.3-0.6s0.1-0.6,0.3-0.6c0.3,0,0.8,0,1.3,0.1c0.6,0,1.1,0.1,1.5,0.2c0.3,0.1,0.6,0.2,0.8,0.4
			c0.2,0.2,0.3,0.6,0.3,1.2C223.2,118.2,223.1,119.3,222.8,120.9z M224.9,126.9c-0.1,0.2-0.2,0.5-0.3,0.8c0.4,0.5,0.8,1,1.2,1.6
			c0.4,0.6,0.8,1.2,1.2,1.9c0.2,0.3,0.2,0.6,0,0.9c-0.2,0.3-0.4,0.3-0.5,0.1c-0.5-0.8-0.9-1.5-1.3-2.1c-0.4-0.6-0.7-1-1-1.2
			c-0.3,0.6-0.6,1.1-0.8,1.8s-0.5,1.3-0.8,1.9c-0.1,0.4-0.3,0.5-0.6,0.3s-0.4-0.5-0.2-0.9c0.5-1.1,0.9-2.2,1.3-3.3
			c0.4-1,0.9-2.1,1.4-3.3c0.1-0.2,0.2-0.2,0.5,0c0.2,0.2,0.3,0.4,0.2,0.7C225.1,126.4,225,126.7,224.9,126.9z M226.5,124.8
			C226.5,124.7,226.5,124.8,226.5,124.8c0,0.2,0,0.4-0.1,0.6s-0.2,0.2-0.3,0.2s-0.2-0.1-0.2-0.3c-0.1-0.2-0.1-0.8-0.1-1.8
			c0-0.5,0-1.1,0.1-2c0.1-0.8,0.2-1.7,0.2-2.5c-0.3,0.4-0.6,0.7-1,0.9c-0.4,0.2-0.8,0.3-1.1,0.3c-0.2,0-0.3-0.2-0.4-0.6
			c-0.1-0.4,0-0.6,0.1-0.6c0.4,0,0.8-0.1,1.1-0.3c0.3-0.2,0.6-0.5,0.9-0.9c0.2-0.2,0.3-0.5,0.4-0.7c0.1-0.2,0.2-0.6,0.3-1
			c0.1-0.3,0.2-0.4,0.5-0.2c0.2,0.1,0.4,0.3,0.3,0.5c-0.2,1.6-0.4,3-0.5,4.3S226.5,123.3,226.5,124.8
			C226.5,124.8,226.5,124.8,226.5,124.8z"/>
		<path class="st4" d="M230.6,120.5c0.3-0.3,0.4-0.7,0.5-1s0.1-0.7,0.1-1.2h-1v-2.9h1.9v2.9c0,0.5-0.1,1-0.2,1.6
			c-0.2,0.5-0.4,0.9-0.6,1.2L230.6,120.5z M232.9,120.5c0.3-0.3,0.4-0.7,0.5-1s0.1-0.7,0.1-1.2h-1v-2.9h1.9v2.9c0,0.5-0.1,1-0.2,1.6
			c-0.2,0.5-0.4,0.9-0.6,1.2L232.9,120.5z"/>
	</g>
	<path class="st5" d="M99.6,177.3c-0.4,4.6-2.1,8.9-3.7,13.2c-0.3,0.9-0.7,1.8-1,2.7c-0.7,1.9-1.5,3.8-2.2,5.7"/>
	<path class="st5" d="M207.5,176.2c2.1,4.5,3.3,9.6,6,13.8c3,4.7,6,10.1,8.4,15"/>
	<path class="st5" d="M107,167c-0.9,3.3-2.9,6.3-5.6,8.4"/>
	<path class="st5" d="M198.7,165c1.6,2,3.5,3.7,5.6,5.1"/>
	<path class="st5" d="M97.5,191.4c0.9,2.8,0.8,5.8-0.3,8.5c-0.9,2.2-2.4,4.1-2.8,6.4"/>
	<path class="st5" d="M210.3,190c1.1,4.5,2.4,9,4.1,13.3"/>
	<g>
		<path class="st1" d="M58.1,139.5c0,0,1.8,10.8,2.3,20s-2.5,39.8,1.8,44s8.5,11,17.3,10.5s11.8-3,13-13.3S78.2,155.4,73,145.2
			s-5.3-12.5-5.3-12.5s2.8-3.3,3-5.2c1.8,0,2.3,0.4,3.3-1.3s-3-6.4-4.8-7.6c0.3-2.3,1.4-2.4,0.4-4.8s-3.4-5.5-7.1-6.4
			s-3.1-1.4-0.8-1.2s6,0.3,6.6-0.6s-0.1-4.2-8.1-5.2s-12.6-0.3-14.3,3.4s-2.4,4.8-1.3,8.6s0.5,9.4,1.3,12.2s6.6,7.8,9.2,10.8
			S57.9,137.9,58.1,139.5z"/>
		<path class="st1" d="M59.8,106.3c-1.9-0.5-4-0.5-6-0.5c-0.5,0-1.1,0-1.6,0.2c-0.7,0.2-1.3,0.7-1.9,1.1"/>
		<path class="st1" d="M53.4,111c1.2,0,2.4,0.2,3.6,0.5c0.9,0.2,1.8,0.5,2.6,0.9c1.5,0.8,2.7,2,3.9,3.1c1.3,1.1,2.9,2,4.5,1.9
			c0.7-0.1,1.4-0.3,1.8-0.9"/>
		<path class="st1" d="M52.6,112.4c1.4,0.5,2.9,1,4.3,1.5c1.9,0.7,3.8,1.4,5.7,2.1s3.8,1.4,5.7,2.3c0.5,0.2,1,0.5,1.3,0.9"/>
		<path class="st1" d="M54.4,120.1c1.4,0.2,2.8,0.3,4.2,0.6c0.6,0.2,1.2,0.4,1.8,0.6c2,0.8,3.9,1.5,5.8,2.5c1.7,0.9,3.3,2,4.3,3.6"
			/>
		<path class="st1" d="M68.3,125.7c0.3,0.7-0.2,1.6-0.9,1.9c-0.7,0.3-1.6,0.2-2.3-0.2c-0.7-0.3-1.4-0.8-2.1-1.1
			c-1-0.4-2-0.6-3.1-0.7c-2.5-0.4-5-0.7-7.5-0.6"/>
		<path class="st1" d="M55.6,125.4c-0.7,0-1.5,0.4-1.9,1"/>
		<path class="st1" d="M64,126.1c-0.3-0.4,0-0.9,0.4-1.1s0.9,0,1.3,0.1"/>
		<path class="st1" d="M69.4,125.5c0-0.2-0.1-1.4-0.1-1.6c0-0.3,0-0.7,0.2-0.9c0.2-0.3,0.6-0.4,1-0.4c0.5,0,1,0.1,1.4,0.4"/>
		<path class="st1" d="M65.8,115.3c-0.1-0.6-0.2-1.3,0-1.9s0.6-1.2,1.2-1.3c0.4-0.1,0.8,0.1,1.1,0.5"/>
		<path class="st1" d="M65.4,102.9c-0.5-0.1-1,0.3-1.3,0.7s-0.3,1-0.3,1.5c0,0.1,0,0.2,0.1,0.3c0.2,0.3,0.6,0.6,0.7,0.6"/>
	</g>
	<g>
		<path class="st1" d="M255.7,141.3c0,0-1.8,10.8-2.3,20s2.5,39.8-1.8,44s-8.5,11-17.3,10.5s-11.8-3-13-13.3s14.3-45.3,19.5-55.5
			s5.3-12.5,5.3-12.5s-2.8-3.3-3-5.3c-1.8,0-2.3,0.4-3.3-1.3s3-6.4,4.8-7.6c-0.3-2.3-1.4-2.4-0.4-4.8s3.4-5.5,7.1-6.4
			s3.1-1.4,0.8-1.2s-6,0.3-6.6-0.6s0.1-4.2,8.1-5.2s12.6-0.3,14.3,3.4s2.4,4.8,1.3,8.6s-0.5,9.4-1.3,12.2s-6.6,7.8-9.2,10.8
			S256,139.7,255.7,141.3z"/>
		<path class="st1" d="M254.1,108.1c1.9-0.5,4-0.5,6-0.5c0.5,0,1.1,0,1.6,0.2c0.7,0.2,1.3,0.7,1.9,1.1"/>
		<path class="st1" d="M260.5,112.8c-1.2,0-2.4,0.2-3.6,0.5c-0.9,0.2-1.8,0.5-2.6,0.9c-1.5,0.8-2.7,2-3.9,3.1
			c-1.3,1.1-2.9,2-4.5,1.9c-0.7-0.1-1.4-0.3-1.8-0.9"/>
		<path class="st1" d="M261.3,114.2c-1.4,0.5-2.9,1-4.3,1.5c-1.9,0.7-3.8,1.4-5.7,2.1s-3.8,1.4-5.7,2.3c-0.5,0.2-1,0.5-1.3,0.9"/>
		<path class="st1" d="M259.5,121.9c-1.4,0.2-2.8,0.3-4.2,0.6c-0.6,0.2-1.2,0.4-1.8,0.6c-2,0.8-3.9,1.5-5.8,2.5
			c-1.7,0.9-3.3,2-4.3,3.6"/>
		<path class="st1" d="M245.6,127.5c-0.3,0.7,0.2,1.6,0.9,1.9c0.7,0.3,1.6,0.2,2.3-0.2c0.7-0.3,1.4-0.8,2.1-1.1c1-0.4,2-0.6,3.1-0.7
			c2.5-0.4,5-0.7,7.5-0.6"/>
		<path class="st1" d="M258.2,127.3c0.7,0,1.5,0.4,1.9,1"/>
		<path class="st1" d="M249.8,127.9c0.3-0.4,0-0.9-0.4-1.1s-0.9,0-1.3,0.1"/>
		<path class="st1" d="M244.6,126.3c0-0.2,0-0.4,0-0.6c0-0.3,0-0.7-0.2-0.9c-0.2-0.3-0.6-0.4-1-0.4c-0.5,0-1,0.1-1.4,0.4"/>
		<path class="st1" d="M247.8,118.3c0.1-0.6,0.2-1.3,0-1.9s-0.6-1.2-1.2-1.3c-0.4-0.1-0.8,0.1-1.1,0.5"/>
		<path class="st1" d="M248.5,104.7c0.5-0.1,1,0.3,1.3,0.7c0.3,0.5,0.4,1,0.3,1.5c-0.1,0.6-1.6,1.2-1.9,1.2"/>
	</g>
	<path class="st5" d="M99.3,168.1c1.1,0.2,2,1.2,2,2.3c0.1,1.1-0.7,2.2-1.7,2.5"/>
	<path class="st5" d="M205,163.3c-0.3,1.7,0.1,3.5,1,5"/>
	<path class="st5" d="M201,174c1.3,0.6,2.7,1.1,4,1.7"/>
	<path class="st5" d="M106.7,177.4c-0.8,1.5-2.7,2.4-4.4,1.9"/>
</g>
</svg>
