<?xml version="1.0" encoding="utf-8"?>
<!-- Generator: Adobe Illustrator 22.0.1, SVG Export Plug-In . SVG Version: 6.00 Build 0)  -->
<svg version="1.1" id="Layer_1" xmlns="http://www.w3.org/2000/svg" xmlns:xlink="http://www.w3.org/1999/xlink" x="0px" y="0px"
	 viewBox="0 0 300 180" style="enable-background:new 0 0 300 180;" xml:space="preserve">
<style type="text/css">
	.st0{fill:none;stroke:#010101;stroke-linecap:round;stroke-linejoin:round;stroke-miterlimit:10;}
	.st1{fill:#010101;}
	.st2{fill:#FFFFFF;stroke:#010101;stroke-miterlimit:10;}
	.st3{fill:none;stroke:#FFFFFF;stroke-miterlimit:10;}
	.st4{fill:#FFFFFF;}
</style>
<g>
	<path class="st0" d="M61.8,114c0,0-1.5,1.1-1.7,2.5"/>
	<path class="st0" d="M70.9,116.8c0,0-0.2,2.9-0.6,3.9"/>
	<path class="st0" d="M57.3,103.6c0,0-2,0.5-2.2,1.8"/>
	<path class="st0" d="M11.5,80.2c0,0,14.7,3.1,46.1,10.6c31.5,7.5,51.2,6.7,64.1,10c12.9,3.3,56.1,9.4,69.4,14.9
		c13.2,5.4,24.5,8.3,38.3,11.7s25.6,2.7,32.7,6.6c7.1,3.9,23.1,10.6,25.8,11.3"/>
	<path class="st1" d="M72.2,110.1c0.8,0.3,2.5,7,0.4,7.3c-2.2,0.3-5-4.6-4.8-6.3c0.3-1.7-3,4.2-6,2.9s-0.2-5.4,2-7.4
		c-4.6-0.7-6.8-1.3-6.4-4c0.4-2.7,5.9-2.1,6.5-0.8s5.7-9.2,11-12s16.8-7.6,26.4-6.4s13.7,2.1,13.7,2.1s4.6-13.1,9.2-16.9
		s10.6-7.5,10.6-7.5s3-17,6.6-21.6c1.6-2,2.1-3.9,7.9-1.3c3.6,1.6,9,11.2,9.6,17c0.2,1.7-0.2,4.3-0.2,4.3s16.9,1.8,23.6,5
		c3.6-5.2,17-18.9,24-15.9c7,3,3.8,13.2,2.5,18.5c-1.3,5.3-4.9,11.8-4.9,11.8s10.4,17.6,10.9,18.3c5.5,8.1,11.6,26.4,11.6,29.3
		c0,0.6-20.8-5.4-20.8-5.4l-79.4-16.3l-16.6-3c0,0-17-0.7-26.9,3C72.7,108.4,72.2,110.1,72.2,110.1z"/>
	<path class="st0" d="M49.4,113.5c0,0-6.6-0.2-7.1,2.8"/>
	<path class="st0" d="M49,109.2c0,0-4.4-0.7-8.5,0.4"/>
	<path class="st0" d="M59.3,121.2c0,0-2.2,3.4-2.9,6.8"/>
	<path class="st0" d="M74.5,128.8c0,0,1.1,2.2,1.3,4.3"/>
	<line class="st0" x1="118.2" y1="62.1" x2="124.8" y2="65.3"/>
	<line class="st0" x1="122.8" y1="55" x2="129.5" y2="62.2"/>
	<path class="st0" d="M105.6,76.2c0,0,3.3,0.9,4.7,1.6c1.4,0.6,1.9,1.4,1.9,1.4"/>
	<path class="st2" d="M126.4,71.2c0,0-7,6-4.6,11.4s6.7,6.6,12.7,3.6c5.9-3,8.7-10.2,3.9-15.8C133.6,64.8,126.4,71.2,126.4,71.2z"/>
	<path class="st2" d="M161.7,75.5c0,0-6.6,2.1-7.2,8.4c-0.4,4.2,0.2,9.8,6.3,11.4c6.1,1.6,12.1,0.9,13.6-3
		c1.5-3.9,2.9-12.8-2.1-15.2C167.2,74.8,164.3,74.7,161.7,75.5z"/>
	<ellipse transform="matrix(0.1536 -0.9881 0.9881 0.1536 49.9331 231.5164)" class="st1" cx="160.1" cy="86.6" rx="3.1" ry="0.8"/>
	<ellipse transform="matrix(0.1536 -0.9881 0.9881 0.1536 31.0147 196.2522)" class="st1" cx="130.1" cy="80" rx="3.1" ry="0.8"/>
	<g>
		<path class="st3" d="M135.2,96.2c0,0,3.5,4.1,8,1.2"/>
		<path class="st3" d="M138.8,98.4c0,0-5.3,8.8,3.2,9.6c1.1,0,5,0.6,4.8,0.7"/>
	</g>
	<path class="st4" d="M207.2,51.8c-1-2.2-6.4-1.5-9.1,1.4c-2.6,2.8-6.8,6.1-8.9,9.5c-3.4,5.8,2.1,11.2,11.7,14.5
		C205.3,71.2,211.1,58.4,207.2,51.8z"/>
	<path class="st0" d="M196.4,61.2c0,0-2.6-1.4-4.1,0.7"/>
</g>
</svg>
