<?xml version="1.0" encoding="utf-8"?>
<!-- Generator: Adobe Illustrator 22.0.1, SVG Export Plug-In . SVG Version: 6.00 Build 0)  -->
<svg version="1.1" id="Layer_1" xmlns="http://www.w3.org/2000/svg" xmlns:xlink="http://www.w3.org/1999/xlink" x="0px" y="0px"
	 viewBox="0 0 1920 891" style="enable-background:new 0 0 1920 891;" xml:space="preserve">
<style type="text/css">
	.st0{fill:#010101;}
</style>
<path class="st0" d="M-2.3,14.5c0,0,50.7,121.5,183.9,173.5c133.2,52.1,154.7,35.3,191.5,119.2c36.8,83.8,75.1,130.8,177.1,135.9
	c102,5.2,204.1-99.2,294-34.9c90,64.3,157.5,119.8,266.5,107.7c109-12.1,142.4-98.8,266.7-58.9c124.3,39.9,174.5-84,264.5-127.1
	c90-43,216.3-21.5,244-106h34.6v665.9L-2,891.7l1-318l-1.3-375.4V14.5z"/>
</svg>
