<?xml version="1.0" encoding="utf-8"?>
<!-- Generator: Adobe Illustrator 22.0.1, SVG Export Plug-In . SVG Version: 6.00 Build 0)  -->
<svg version="1.1" id="Layer_1" xmlns="http://www.w3.org/2000/svg" xmlns:xlink="http://www.w3.org/1999/xlink" x="0px" y="0px"
	 viewBox="0 0 1920 891" style="enable-background:new 0 0 1920 891;" xml:space="preserve">
<style type="text/css">
	.st0{fill:#010101;}
</style>
<path class="st0" d="M1865.8,86.2c0,0-10.2,22-17.1,48.2c-6.8,26.2,10.2,52.4,13.7,62c3.4,9.6,6.8,31.7,10.2,77.2
	c3.4,45.5-89,119.9-89,119.9s-10.2,35.8-17.1,59.7c-6.8,23.9-17.1,34-20.5,44.2c-3.4,10.2-17.1,27-23.9,41.8
	c-6.8,14.8,18.8,45.8,18.8,50c0,2.4,8.5,22.1,15.7,38.5c-16.5-12-27.7-19.7-30.8-24.8c-3.8-6.1-11.8-11.1-17.4-7.7
	c-5.6,3.4,9,10.7,11.2,11.5c2.1,0.8,4,1.1,3,3c-1,1.9-8.1,5.1,1.2,8.1c0,0,2.4,0.6,1.2,3c-1.1,2.4,1.2,5.7,4.2,6.8
	c3,1.1,0.6,3,1.1,5.4c0.5,2.4,3.7,0.7,4.6,1.2c0.8,0.5,1.8,5.7,5.7,4.7c3.9-1,16.7,2.6,19.4,8.7c2.7,6.1-0.4,2.4-1.7,3.6
	c-1.3,1.2,3.2,4.7,2.9,7.1c-0.3,2.4-2.6-0.8-3.2,0.4c-0.6,1.2,1.1,8,2.1,10.7c1,2.7-3.7-2.8-5.4-1.1c-1.7,1.8,3.1,11.7,2.3,13.6
	c-0.8,1.9-4-1.2-5.1-0.3c-1.1,0.9-2.1,9.7-0.2,13.2c1.9,3.5-3.4-0.8-4.4-5.1c-1-4.3-5.2-38-34.1-39.9c-29-2-36.1-12.1-36.9-20.5
	c-0.8-8.5,1.8-18.5-2-20.5c-3.7-2-4.3,1.3-4.3,1.3s-3.7-9.6-6.7-10c-3-0.4-3.6,4.1-3.6,4.1s-6.1-14.9-13.6-14.7
	c-7.6,0.2-9.9,7.3-2.8,13.1c7,5.8,21.3,7.9,19.5,11.4c-1.8,3.5-7.3,2-8.6,5.8c-1.4,3.8,3.8,8.6,3.8,8.6s-5.7,1.1-7.3,5.4
	s8,8.1,11.8,8.9c3.8,0.8-0.1,4.4,3.3,6.7c3.4,2.3,11.3-1.3,12.2-0.1c0.9,1.2-1.9,5.4-0.2,6.7c1.7,1.3,11.9-2.9,12.1-1.7
	c0.2,1.1-2.7,4.7-1,6.1c1.6,1.5,15-7.4,20.4-6.4c5.4,1,17.9,7.3,17.8,12.7c-0.1,5.3-5.3,3.5-5.9,6.4c-0.6,2.9,4.8,9.4,4.6,12.6
	c-0.2,3.2-3.4-1.6-4.3,0.5c-0.9,2.1,5.3,9.7,5,11.4c-0.3,1.7-3.7-1.7-4.1,0.1c-0.4,1.8,4.5,10.3,5.8,11.9c1.3,1.6-2.3,0.2-2.5,2
	c-0.2,1.8,5.9,7.9,4.6,10.1c-1.3,2.2-8.3-6.4-8.6-9.3c-0.3-2.9-4.6-1.6-6-7.5c-1.4-5.9-4.7,0.4-7.8-5.7c-3.1-6.1-6.1,0.9-12.4-5
	c-6.3-5.8-4.2,3-10,2.5c-5.9-0.5-5.2-3.5-10.4-0.5c-5.3,3.1-7.2-8.5-6.3-11.3c1-2.8-0.9-11.8-4.6-13.5c-3.7-1.7-3.4,2.4-3.4,2.4
	s-1.8-13.9-5.4-15.1c-3.6-1.2-4.1,1.6-4.1,1.6s-5.5-15.4-9.8-14.8c-3.4,0.4-2.6,2.7-2.1,3.7c-1.3-2.2-7.7-13.1-13-13.4
	c-5.9-0.3-2.6,4.6-2.6,4.6s-12.6-7.6-18.1-2.3c-5.5,5.3,19.8,10.1,19.8,10.1s-2.7,1.4-3.5,3.5c-0.8,2.1,7,4,10.8,4.1
	c3.8,0.1-4.1,3.7,6.8,7.4c0,0,4.8,2.1,6,10.3c1.2,8.1,8.6,30.6,30.4,35.7c18.2,4.3,45.4,18.8,56.4,32.7c-0.7,1.9-1.2,2.7-2.8,4.7
	c-1.2-1-2.5-1.4-3.7-0.3c-3,2.6-5.3-4.2-9.7-1.4c-4.5,2.8-6.1-4.2-10-0.7c-3.9,3.6-6.9,0.6-9-2.1c-2.1-2.7-2.9-4.2-6.3-4.1
	c-3.4,0.1,1.8-5.2-1.7-6.3c-3.5-1.1-0.4-6.2-4.8-6.6c-4.4-0.5-2.3-5.4-5.4-5.5c-3.1-0.1-5.4,15.5-0.1,20.6c1.9,1.8,4.8,3.9,8.1,6
	c0.8,1.3,1.1,2.9-0.8,4.4c-2.7,2.3,1.8,4-0.4,6.7c-2.2,2.7,2.1,4.8,0.1,6.5c-2,1.8,1.8,4.3,2.6,6.1s-1.1,1.4-1.1,1.4
	c-10.2-4.3-20.3-28.8-21.8-43.7c-1.6-14.8-15.8-21.6-21.1-23.1c-5.3-1.5-6.3-4.8-6.3-4.8c-1.6-7.5-4.6-2.6-4.3-5.1
	c0.3-2.5-0.4-7.8-1.8-7.5c-1.5,0.3-2.6,2-2.6,2s-1-17.2-5-14c-4,3.2,0,12.2,0,12.2s-3-2.6-3.3,1.3c-0.3,3.6,6.6,8.9,7.8,9.8
	c-0.5-0.4-2.1-1.2-2.7,1.1c-0.7,2.8,9,7.7,9,7.7s-1.9,0.1-1.4,2.6c0.5,2.5,9.5,4.8,9.5,4.8s-2.7-0.6-1.9,2c0.8,2.6,6.6,4.6,8.5,4.2
	c1.9-0.4,9.4,1.9,6.9,5.1c-2.5,3.2-0.4,3-0.6,6.9c-0.2,3.9-5.8,1.8-2.5,6.4c3.3,4.7-1.5,6,2.2,8.6c3.8,2.6-0.7,4.2,3.1,5.6
	c3.8,1.4,2.6,4.1,4.5,4.6c1.9,0.5,7,5.8,5.4,6.5c-1.6,0.6-5.1-3.9-6.3-3.9c-1.2,0-0.5,2.5-1.5,1.5c-1-1-6.2-5-7.4-4.9
	c-1.2,0.1,0.8,2.7-0.4,2.7c-1.2,0.1-5.7-4.7-7.1-4.3c-1.4,0.5,1.4,3-0.7,2.8c-2.1-0.1-6-4.3-7.9-4.1c-1.9,0.2-1.2,3.8-4.7,3.4
	c-3.5-0.4-6.7-9.1-6.9-12.8c-0.2-3.7,6.7-11.8,5.9-13c-0.8-1.2-3.4,0.4-4.2,0.2c-0.7-0.2,2.9-6.6,2.2-7.9c-0.7-1.2-3.7,0.3-4.4-0.4
	c-0.7-0.7,2.3-5.6,1.1-8.1c-1.2-2.4-3.9-0.2-4.1-2.7c-0.2-2.6-1.9-9.2-4.9-8.5c-3,0.7-4.2,4.3-4.2,4.3s-2.7-3.8-5.4-3.2
	c-2.6,0.6-2.1,4.3-4.5,5.2c-2.5,0.9-2.7-8.7-5.9-13.8c-3.3-5.1-8.2-4.2-8.9,0.8c-0.8,5,8.6,10.2,8.6,10.2s-3,0-3,2
	c0,2,6.1,5.3,6.1,5.3s-2.2,0.1-1.2,2.7c1,2.6,7.9,1.8,13.4,3c5.5,1.3,11.6,6.8,10.5,26.1c-1.1,19.3,20.8,24.9,23.5,25.9
	c2.7,1,5.1,4.9,3,3.3c-2.2-1.5-8.1-1.6-8.8-1c-0.7,0.6,1.1,3-0.2,3.4c-1.3,0.4-7.5-3.6-8.8-2.7c-1.3,1,1.9,4.6,0.2,3.7
	c-1.7-0.9-6.1-2.6-6.9-2.3c-0.8,0.3,1.1,2.1-0.5,2.1c-1.6,0-3.6-3.3-4.4-2.5c-0.9,0.8,1.3,3.1-2.5,0.8c-3.8-2.3-5.1-11.1-4.1-13.5
	c1-2.5-2.3-3.5-2.6-4.1c-0.3-0.6,1.1-2.6-0.4-3.1c-1.5-0.5-3,0.9-3.5-1.2c-0.5-2.1-2.4-3.9-4.2-3.4c-1.7,0.5-1.9-1.1-1.9-1.1
	c-1.2-6.4-3.9-2-5.2-1.4c-1.3,0.5-1.3-0.7-1.7-2.2c-0.4-1.5-3.9-11.8-6.7-8.3c-2.7,3.4-0.1,9.1,3.6,12.1c3.7,3,9.7,14.5,18.7,30.4
	c8.9,16,27,6.7,38.1,4.1c11.1-2.6,23,4.6,23,4.6l12.4,1.4c-34.9,23.6-82.3,39.1-110.6,38.9c-35-0.3-81.8-8.1-128-26.4
	c0.7-3.1,1.4-6.2,1.8-9.3c2.9-4.5,17.3-25.2,40.6-26.2c6.2-0.3,11.8-1.3,16.8-3.1c1-0.1,2-0.5,2.9-1.1c7.8-3.3,14.3-8.5,20.1-15.3
	c4.7,1.9,22.2,7.6,38.6-4.6c2.8-2.1,3.4-6.1,1.3-9c-2.1-2.8-6.1-3.4-9-1.3c-8.7,6.4-17.9,5.4-22.9,4c2.4-3.7,4.7-7.6,7.1-11.8
	c1.7-3.1,0.6-7-2.5-8.7c-3.1-1.7-7-0.6-8.7,2.5c-9,16.4-17.1,26.1-26.5,31.2c-2.3-2.4-5.5-6.2-8.7-11.5c5.1-5,13.8-15.3,22.9-34.8
	c1.5-3.2,0.1-7-3.1-8.5c-3.2-1.5-7-0.1-8.5,3.1c-6.6,14.1-12.8,22.7-17.1,27.7c-1.2-3.5-2.3-7.3-3-11.4c-0.6-3.5-3.9-5.9-7.4-5.3
	c-3.5,0.6-5.9,3.9-5.3,7.4c2.8,17.2,10.6,29.7,16.8,37.4c-1.3,0.2-2.7,0.3-4.1,0.3c-17.3,0.7-30.5,9.5-39.2,18
	c-0.3-3.1-0.8-6.2-1.6-9.2c-1.1-4.3-3-8.5-4.8-12.5c-5.5-12-10.7-23.4,1.5-44.2c1.8-3.1,0.8-7-2.3-8.8c-3.1-1.8-7-0.8-8.8,2.3
	c-7.3,12.4-9.4,22.7-9.1,31.5c-7.1-3-17.1-9-23.9-20.4c-1.8-3-5.8-4-8.8-2.2c-3,1.8-4,5.8-2.2,8.8c6.3,10.5,14.6,17.3,22.2,21.7
	c6.4,3.8,12.3,5.7,15.6,6.7c1.3,3.6,2.8,6.9,4.1,9.9c1.7,3.6,3.2,7.1,4.1,10.3c1.9,7.3,1.9,15.3,0.8,23.6c0,0.2-0.1,0.4-0.1,0.7
	c-0.3,2.4-0.8,4.8-1.3,7.2c-23.7-9.6-52.6-10.4-76.9-8.3c1.4-21,5.3-49.8,15.9-72.4c0.1-0.2,0.2-0.5,0.4-0.7
	c4.2-8.9,9.5-16.9,16.1-22.9c2.9-2.7,6.7-5,10.7-7.6c3.3-2.1,6.9-4.4,10.5-7.1c4,1.3,11,3.1,19.8,3.6c10.3,0.5,23-0.8,36.1-7.1
	c3.8-1.8,5.4-6.4,3.5-10.2c-1.8-3.8-6.4-5.4-10.2-3.5c-14.1,6.8-28,6.2-36.9,4.6c6-8.5,10.6-20.1,11.5-37.1c0.2-4.2-3-7.8-7.2-8
	c-4.2-0.2-7.8,3-8,7.2c-1.5,28.6-14,36.5-27.3,44.8c-4.4,2.8-8.9,5.6-12.9,9.2c-2.7,2.5-5.2,5.2-7.5,8c-3.2-14-10.5-31.4-27.1-43.3
	c-1.4-1-2.6-2-3.9-3c11.1-3.6,27-11,41-26.1c2.9-3.1,2.7-7.9-0.4-10.8c-3.1-2.8-7.9-2.7-10.8,0.4c-3.4,3.7-6.9,6.7-10.4,9.4
	c-1-7.7-1.6-20.4,1.1-38.6c0.6-4.2-2.3-8-6.4-8.6c-4.1-0.6-8,2.3-8.6,6.4c-3.6,25.2-1.8,41.1,0,49.3c-6.5,3.1-12.3,4.8-16,5.7
	c-6.1-11.2-7.7-26-6-48.1c0.3-4.2-2.8-7.9-7-8.2c-4.2-0.3-7.9,2.8-8.2,7c-0.4,5.7-0.7,11.1-0.7,16.3c-5.8-1.9-15.7-6.9-20.1-18.9
	c-1.4-3.9-5.8-6-9.8-4.5c-3.9,1.4-6,5.8-4.5,9.8c8.3,22.7,29.3,28.5,35.3,29.7c0.9,6.8,2.5,13.1,5,19c-0.7,0.8-4.1,4.2-13.2,8
	c-0.6,0-1.1,0-1.7,0.1c-8.1-3.3-29.6-30.4-47.6-60.3c-2.2-3.6-6.8-4.8-10.4-2.6c-3.6,2.2-4.8,6.8-2.6,10.4
	c0.4,0.7,10.8,18,23.3,34.8c14.9,20.1,25.8,30.5,34.8,32.7c4.3,5.8,14.4,20.1,21.7,37.6c-16.3-7.3-41.5-21.8-52.2-44.6
	c-1.8-3.8-6.3-5.4-10.1-3.7c-3.8,1.8-5.4,6.3-3.7,10.1c5.8,12.4,14.9,22.5,24.7,30.7c-3.7,0.3-7.7,0.3-11.5-0.4
	c-4.2-0.7-8.1,2-8.8,6.2c-0.7,4.1,2,8.1,6.2,8.8c2.2,0.4,4.4,0.6,6.6,0.7c10.3,0.5,20-1.6,25-3.1c12.5,7.4,24,12,30,14.1
	c0.9,4,1.6,8,1.9,12.1c0.1,1.4,0.2,2.7,0.4,4c-17.9-9-50.9-22.8-83.9-23.2c-0.7,0-1.3,0-2-0.1c-6.5-0.3-12.3-2-17.5-4.5
	c1.8-3.2,11-21.4,7.2-48.5c-0.6-4.2-4.4-7.1-8.6-6.5c-4.2,0.6-7.1,4.4-6.5,8.6c2.8,20-3,34-4.9,37.9c-17.1-15-24.7-37.6-24.8-38
	c-1.3-4-5.6-6.2-9.6-4.9c-4,1.3-6.2,5.6-4.9,9.6c0.8,2.4,19.6,58.8,68.6,61.4c0.9,0,1.8,0.1,2.7,0.1c37.4,0.4,76.5,20.9,87.1,26.8
	c4.1,18,10,26.7,12.9,30c-0.5,4.7-0.8,9.2-1.1,13.4c-18.9,2.6-32.8,6.1-35.6,6.8c-4.4,1.1-21.2,5.9-49.3,10.5
	c-0.1-0.7-0.2-1.4-0.3-2c0-0.2,0-0.4-0.1-0.6c-1-6.9-0.9-13.6,0.6-19.7c0.7-2.7,2-5.6,3.4-8.6c1.2-2.5,2.4-5.3,3.5-8.3
	c2.8-0.8,7.7-2.4,13.1-5.6c6.3-3.7,13.3-9.4,18.5-18.2c1.5-2.5,0.7-5.8-1.9-7.4s-5.8-0.7-7.4,1.9c-5.7,9.5-14.1,14.5-20,17
	c0.3-7.3-1.5-16-7.6-26.4c-1.5-2.6-4.8-3.4-7.4-1.9c-2.6,1.5-3.4,4.8-1.9,7.4c10.2,17.5,5.9,26.9,1.3,37c-1.5,3.3-3.1,6.8-4,10.4
	c-0.6,2.5-1.1,5.1-1.3,7.7c-7.3-7.1-18.3-14.5-32.8-15.1c-1.2,0-2.3-0.2-3.5-0.3c5.2-6.4,11.7-17,14-31.3c0.5-2.9-1.5-5.7-4.4-6.2
	c-2.9-0.5-5.7,1.5-6.2,4.4c-0.6,3.5-1.4,6.6-2.5,9.6c-3.6-4.2-8.8-11.4-14.3-23.2c-1.3-2.7-4.5-3.8-7.1-2.6
	c-2.7,1.3-3.8,4.5-2.6,7.1c7.6,16.3,14.9,24.9,19.1,29.1c-2.6,4.4-5.4,7.6-7.2,9.6c-7.9-4.2-14.6-12.3-22.2-26.1
	c-1.4-2.6-4.7-3.5-7.3-2.1c-2.6,1.4-3.5,4.7-2.1,7.3c1.9,3.5,3.9,6.8,5.9,9.9c-4.2,1.1-11.9,2-19.2-3.4c-2.4-1.8-5.7-1.3-7.5,1.1
	c-1.8,2.4-1.3,5.7,1.1,7.5c13.7,10.2,28.3,5.4,32.3,3.8c4.9,5.7,10.3,10,16.8,12.8c0.7,0.5,1.5,0.8,2.4,0.9c4.2,1.5,8.8,2.4,14,2.6
	c19.5,0.8,31.6,18.3,33.9,21.9c0.1,0.5,0.1,0.9,0.2,1.4c-12.8,1.9-27.6,3.7-44.2,5.1c-19.5,1.6-47.8,4.6-77.9,7.6
	c0.5-0.5,0.9-0.9,1.4-1.4c9.2-7.8,28.5-18.6,20.4-36.3c-8-17.7-14-29-14.2-34c-0.2-5.1-3.4-10.9-8.1-10.7c-4.7,0.2,1.9,9.7,2.9,11
	c1,1.3,2.1,2.1,0.8,2.9c-1.3,0.8-6.8,0.3-2.1,5.4c0,0,1.3,1.2-0.3,2.3c-1.6,1.1-1.2,4,0.3,5.7c1.5,1.7-0.7,2.1-1.2,3.7
	c-0.5,1.6,2.1,1.7,2.4,2.3c0.3,0.6-0.9,4.1,1.9,4.8c2.8,0.7,9.4,7.4,9,12.1c-0.5,4.7-1.1,1.4-2.3,1.6c-1.2,0.3,0.3,4-0.6,5.4
	c-1,1.4-1.4-1.4-2.1-0.9c-0.7,0.5-2.1,5.3-2.4,7.4c-0.3,2-1.3-3-3-2.5c-1.7,0.5-2.1,8.3-3.3,9.2c-1.1,0.9-2.1-2.1-3-2
	c-1,0.2-4.7,5.3-4.7,8.1c-0.1,2.8-1.8-1.7-1-4.7c0.9-3,9.9-25.3-7.3-36.5c-17.2-11.2-18.2-19.9-15.8-25.4c2.4-5.5,7.5-10.9,5.9-13.4
	c-1.6-2.5-3.1-0.7-3.1-0.7s1-7.2-0.7-8.5c-1.7-1.3-3.6,1.3-3.6,1.3s1.4-11.3-3.4-13.8c-4.7-2.5-8.6,1.1-6.3,7.1
	c2.3,6,10.4,12.2,8.1,13.8c-2.3,1.5-5.2-1.3-7.3,0.6c-2.2,1.9-0.6,6.6-0.6,6.6s-3.9-1.3-6.4,0.9c-2.5,2.2,2.2,7.8,4.2,9.6
	c2.1,1.8-1.6,2.7-0.3,5.3c1.3,2.6,7.4,3.1,7.6,4.1c0.2,1-3,2.7-2.4,4s8.4,2.3,8.1,3.1c-0.3,0.8-3.3,2-2.8,3.4
	c0.5,1.5,11.8,0.6,14.8,3.1c3,2.5,8.5,10.7,6.6,14c-1.9,3.3-4.5,0.3-5.9,1.9c-1.4,1.6-0.3,7.5-1.5,9.4s-1.6-2.2-2.8-1.2
	c-1.3,0.9-0.1,7.8-0.9,8.8c-0.8,1-1.7-2.3-2.6-1.4c-0.9,0.9-0.8,7.9-0.5,9.4c0.3,1.5-1.5-0.7-2.2,0.3c-0.7,1,0.8,6.4-0.5,7.7
	c-0.3,0-0.5,0-0.8,0.1c-1.2-1.1-2.2-7-1.5-8.6c0.8-1.9-2.3-2.6-1.1-6.7c1.2-4.1-3-1.4-2.8-6.2c0.2-4.8-4-1.5-5.9-7.3
	c-1.9-5.8-3.6,0.4-7.1-1.9s-2-4-6.3-3.9c-4.3,0.1-1.6-7.8,0-9.1c1.6-1.4,3.5-7.6,1.8-9.9c-1.7-2.3-2.9,0.3-2.9,0.3s3.7-9.2,1.9-11.2
	c-1.8-2-3.1-0.4-3.1-0.4s1.9-11.4-1-12.6c-2.2-0.9-2.6,0.8-2.6,1.5c0-1.8-0.3-10.7-3.4-12.8c-3.5-2.2-3.2,2-3.2,2s-5.2-9-10.4-7.7
	c-5.3,1.4,8.8,13.1,8.8,13.1s-2.2-0.1-3.4,0.9c-1.2,1,2.9,4.9,5.3,6.3c2.3,1.4-3.8,0.8,1.6,6.9c0,0,2.2,3,0.2,8.4
	c-2.1,5.4-5.3,21.9,6.5,32.6c6.8,6.2,14.5,16.9,19.3,27c-5.9,0.5-11.7,1-17.4,1.5c-0.1-0.3-0.1-0.6-0.2-0.9
	c-0.3-2.4-0.3-3.6-2.5-4.7c-2.2-1.1,2.9-2.6,1.1-4.5c-1.8-1.9,1.9-4-0.7-5.8c-2.6-1.8,0.4-4.1-1.5-5.3c-1.9-1.1-8.7,7.8-7.2,12.7
	c0.6,1.8,1.6,4.1,3,6.5c0.1,1.1-0.3,2.1-2,2.5c-0.3,0.1-0.6,0.2-0.7,0.3c-2.8,0.2-5.6,0.4-8.4,0.6c0-7.6,1.8-16.4,4.3-22.2
	c4.2-9.7-2.3-18.8-5.1-21.5c-2.8-2.7-2.2-5.1-2.2-5.1c1.6-5.2-2-3.2-0.9-4.7c1-1.5,2.5-5,1.4-5.3c-1-0.3-2.3,0.4-2.3,0.4
	s5.3-11,1.7-10.4c-3.6,0.6-4.2,7.5-4.2,7.5s-1-2.7-2.5-0.3c-1.4,2.1,1,7.7,1.5,8.7c-0.2-0.4-0.9-1.5-2-0.3c-1.4,1.5,2.9,7.9,2.9,7.9
	s-1.2-0.6-1.8,1.1c-0.6,1.7,4.2,6.3,4.2,6.3s-1.5-1.3-1.9,0.6c-0.4,1.9,2.5,5.1,3.8,5.5c1.3,0.4,5.2,4.4,2.5,5.5
	c-2.6,1.1-1.3,1.7-2.7,4.1c-1.4,2.4-4.2-0.9-3.8,3.1c0.4,4-3,3.2-1.6,6.1c1.4,2.9-1.9,2.4,0,4.5c1.9,2.2,0.2,3.4,1.2,4.4
	c0.6,0.6,1.4,2.9,1.5,4.4c-0.5,0-1,0.1-1.5,0.1c-0.5-1.3-1-3-1.4-3.3c-0.8-0.4-1.2,1.4-1.5,0.4c-0.2-1-2.1-5.2-2.9-5.6
	c-0.8-0.3-0.5,1.9-1.2,1.6c-0.7-0.4-1.9-4.9-3-5.1c-1-0.2-0.1,2.3-1.4,1.5c-1.3-0.8-2.2-4.7-3.5-5.3c-1.3-0.6-2,1.9-4.1,0.5
	c-2.1-1.5-1-7.9,0.2-10.3c1.1-2.3,8.2-4.9,8.1-6c-0.1-1-2.3-0.9-2.6-1.3c-0.4-0.4,4.1-3.1,4.1-4.1c0-1-2.4-1.1-2.6-1.8
	c-0.2-0.7,3.4-2.7,3.5-4.6c0.1-1.9-2.4-1.4-1.6-3.1c0.8-1.7,2-6.3-0.1-7c-2.1-0.6-4.1,1.2-4.1,1.2s-0.4-3.3-2.2-3.9
	c-1.8-0.6-2.8,2-4.6,1.7c-1.8-0.3,1.4-6.3,1.1-10.6c-0.3-4.3-3.6-5.4-5.8-2.6c-2.2,2.8,1.8,9.3,1.8,9.3s-1.9-1-2.6,0.2
	c-0.7,1.3,1.9,5.4,1.9,5.4s-1.4-0.7-1.7,1.3c-0.3,2,4.3,3.8,7.2,6.5c3,2.7,4.8,8.2-2.5,19.8c-7.4,11.5,4.3,22.6,5.6,24.1
	c0.5,0.5,0.8,1.3,1,2c-0.4,0-0.7,0-1.1,0.1c-1.4-1.4-3.7-2.7-4.3-2.5c-0.6,0.2-0.4,2.2-1.3,2s-3.4-4.8-4.5-4.7
	c-1.2,0.1-0.4,3.5-1.1,2.4c-0.7-1.1-2.9-3.7-3.5-3.8c-0.6-0.1-0.1,1.7-1.1,1.1c-1-0.6-1.1-3.3-1.9-3.1c-0.8,0.2-0.3,2.4-1.8-0.4
	c-1.6-2.7,0.6-8.6,2.1-9.8c1.5-1.2-0.2-3-0.2-3.5c0-0.5,1.6-1.2,0.8-2.1c-0.8-0.9-2.2-0.5-1.8-1.9c0.4-1.4-0.2-3.3-1.4-3.5
	c-1.3-0.3-0.8-1.3-0.8-1.3c1.5-4.4-1.8-2.6-2.7-2.7c-1-0.1-0.6-0.9-0.3-2c0.3-1.1,1.6-8.6-1.3-7.5c-2.9,1.2-3.2,5.6-1.9,8.7
	c1.3,3.1,1,12.3,1.1,25.2c0,4.7,1.9,7.8,4.7,9.9c-13.5,0.1-22.9-0.7-25.9-2.9c-4.8-3.5-18.8-9.3-36.7-15.9c1.4-3.2,8.8-19.6,22.7-26
	c15.5-7.1,45.8-14.5,41.6-41.6c-4.2-27.1-8.1-44.7-6.5-51.7c1.6-7-0.6-16.2-6.9-17.7c-6.4-1.5-1.1,13.9-0.2,16c0.9,2.1,2,3.6,0,4.2
	c-2,0.6-9.4-2.1-4.9,6.6c0,0,1.3,2.1-1.3,3c-2.5,0.9-3.1,4.9-1.8,7.8c1.3,2.9-1.7,2.6-3,4.6c-1.3,2,2.2,3.1,2.4,4.1
	c0.2,1-2.7,5.3,0.8,7.3c3.5,2,10.1,13.6,7.7,19.8c-2.4,6.2-2,1.5-3.7,1.4c-1.7-0.1-1,5.6-2.9,7.1c-1.9,1.5-1.4-2.4-2.6-2
	c-1.2,0.4-4.8,6.5-6,9.1c-1.2,2.6-0.6-4.6-3.1-4.6c-2.5,0.1-6,10.5-7.9,11.3c-1.9,0.7-2-3.7-3.4-3.8c-1.4-0.1-8.3,5.4-9.5,9.2
	c-1.1,3.8-1.9-3,0.4-6.7c2.3-3.7,23-30.6,3.8-52.4c-19.2-21.8-17.2-34-11.8-40.6c5.4-6.6,14.3-11.9,13-15.9c-1.3-4-4-2.1-4-2.1
	s4.2-9.5,2.3-11.9s-5.4,0.4-5.4,0.4s6.2-14.8,0.7-20c-5.5-5.2-12.1-1.7-11.3,7.3c0.9,9.1,9.5,20.6,5.8,21.8c-3.8,1.2-6.5-3.7-10.2-2
	c-3.6,1.8-3.3,8.8-3.3,8.8s-4.8-3.2-9-1.2c-4.2,2,0,11.4,2.1,14.6c2.1,3.2-3.1,3-2.3,7.1c0.8,4,8.9,7,8.7,8.5
	c-0.2,1.5-5.1,2.5-4.8,4.6c0.3,2.1,10.5,6.3,9.8,7.3c-0.6,1-5.2,1.5-5.1,3.6c0.1,2.2,15.8,5.3,19,9.8c3.2,4.5,7.6,17.8,3.7,21.5
	c-3.8,3.7-6.2-1.2-8.7,0.4c-2.5,1.6-3.2,10.1-5.6,12.2c-2.4,2.1-1.3-3.5-3.4-2.7c-2.1,0.8-3.1,10.6-4.5,11.6c-1.4,1-1.5-3.8-3-2.9
	c-1.5,1-4.1,10.5-4.3,12.6c-0.2,2.1-1.7-1.5-3.2-0.4c-1.4,1.1-1.3,9.7-3.8,10.4c-2.5,0.7-1.4-10.4,0.4-12.7c1.8-2.3-2.2-4.4,1-9.6
	c3.2-5.2-3.6-3-1.5-9.5c2.1-6.5-4.9-3.6-5.3-12.2c-0.4-8.6-5.1-0.8-8.9-5.3c-3.8-4.5-1.2-6.1-7.1-7.7c-5.9-1.5,0.8-11.1,3.5-12.4
	c2.6-1.3,7.7-9,6.2-12.8c-1.5-3.8-4.1-0.6-4.1-0.6s8.5-11.1,6.8-14.5c-1.7-3.4-4-1.8-4-1.8s6.9-14.8,3.5-17.5
	c-2.7-2.1-3.8,0.1-4.1,1.1c0.7-2.4,3.7-14.7,0.2-18.7c-4-4.4-5.1,1.5-5.1,1.5s-3.6-14.3-11.3-14.4c-7.7-0.1,7,21.1,7,21.1
	s-2.9-0.9-4.9,0c-2,1,2.1,7.8,4.8,10.6c2.6,2.8-5.5-0.3-0.4,10c0,0,1.9,4.9-3,11.5c-4.9,6.6-15.5,27.8-3.6,46.8
	c10.6,16.9,20.3,49.3,16.5,66.3c-1.6-0.5-3.1-1-4.7-1.6c-0.1-1.8-0.6-3.2-2.5-3.3c-4-0.2-0.8-6.7-5.9-7.8c-5.1-1.2-1.4-7.3-6.6-7.5
	c-5.3-0.2-5.3-4.4-4.9-7.8c0.4-3.4,0.9-5.1-1.6-7.4c-2.5-2.3,5-2.4,3.2-5.7c-1.7-3.3,4.1-4.7,1.3-8.1c-2.8-3.4,2.2-5.5,0-7.7
	c-2.2-2.2-14.8,7.3-14.6,14.6c0.1,2.6,0.6,6.1,1.6,10c-0.3,1.5-1.3,2.8-3.7,2.6c-3.5-0.3-1.5,4.1-5,4.5c-3.5,0.4-1.9,4.9-4.5,4.7
	c-2-0.1-2,2.4-2.2,4.5c-0.9-0.3-1.9-0.6-2.8-0.9c-1.8-11.3,7.4-32.9,15.9-43.6c9.3-11.6,4-26.5,1.3-31.2c-2.7-4.7-1.1-7.8-1.1-7.8
	c4.2-6.4-1.5-5.1,0.5-6.7c2-1.6,5.2-5.8,4-6.6c-1.3-0.8-3.3-0.4-3.3-0.4s11.4-12.9,6.3-13.5c-5.1-0.5-8.6,8.7-8.6,8.7
	s-0.3-4-3.3-1.4c-2.7,2.4-1.6,10.9-1.3,12.4c-0.1-0.7-0.6-2.3-2.6-1.1c-2.5,1.5,0.9,11.8,0.9,11.8s-1.4-1.3-2.8,0.8
	c-1.4,2.1,3.4,10.1,3.4,10.1s-1.5-2.3-2.8,0.1c-1.3,2.4,1.5,7.9,3.1,9c1.6,1.1,5.4,7.9,1.3,8.5c-4,0.5-2.4,1.9-5.3,4.5
	c-2.9,2.7-5.4-2.9-6.3,2.8c-0.9,5.6-5.3,3.2-4.5,7.7c0.9,4.5-3.5,2.5-1.7,6.2c1.7,3.7-1.1,4.8-0.1,6.4c1,1.7,0.8,9.1-0.7,8.4
	c-1.6-0.7-0.8-6.4-1.7-7.2c-0.9-0.8-2.2,1.4-2.1,0c0-1.4-0.9-7.9-1.9-8.7c-0.9-0.8-1.3,2.4-2.2,1.7c-0.9-0.8-0.7-7.4-2.1-8
	s-1.1,3.1-2.5,1.5c-1.4-1.6-1.2-7.3-2.7-8.5c-1.5-1.2-3.5,1.9-5.7-0.9c-2.2-2.8,1.7-11.2,4.1-13.9c2.4-2.8,13.1-3.6,13.3-5
	c0.3-1.4-2.7-2.1-3.1-2.8c-0.4-0.7,6.7-2.7,7.1-4.1c0.4-1.4-2.8-2.4-2.8-3.4c0-1,5.6-2.4,6.4-5c0.8-2.6-2.7-2.9-1-4.8
	c1.7-2,5.2-7.9,2.5-9.5c-2.6-1.6-6.1,0.1-6.1,0.1s0.8-4.6-1.5-6.1c-2.3-1.5-4.5,1.6-6.9,0.5c-2.4-1.1,4.2-8.1,5.5-14
	c1.3-5.9-2.9-8.7-6.9-5.7c-4,3-1.1,13.3-1.1,13.3s-2.1-2.1-3.6-0.7c-1.4,1.5,0.6,8,0.6,8s-1.6-1.5-2.8,1.1
	c-1.2,2.6,4.3,6.8,7.4,11.6c3,4.8,3.4,13-11,25.9c-14.4,12.9-2.8,32.3-1.5,35c1.2,2.7,0.2,7.1-0.2,4.5c-0.5-2.6-4.6-6.8-5.6-6.8
	c-0.9,0-1.4,2.9-2.5,2.3c-1.2-0.6-2.8-7.8-4.4-8.1c-1.6-0.2-1.8,4.6-2.4,2.8c-0.6-1.8-2.5-6.1-3.3-6.5c-0.8-0.4-0.7,2.3-1.9,1.1
	c-1.1-1.1-0.2-4.8-1.4-4.9c-1.2-0.1-1.3,3.1-2.4-1.2c-1.1-4.3,4.1-11.5,6.6-12.5c2.5-1,0.8-4.2,1.1-4.8c0.2-0.6,2.6-1.1,1.9-2.5
	c-0.7-1.4-2.8-1.5-1.7-3.3c1.1-1.8,1-4.5-0.6-5.3c-1.6-0.8-0.6-2.1-0.6-2.1c3.6-5.4-1.4-4.2-2.7-4.7c-1.3-0.6-0.4-1.5,0.3-2.8
	c0.8-1.3,5.5-11.1,1.1-10.6c-4.4,0.5-6.5,6.4-6,11.2c0.5,4.7-3.2,17.1-8.1,34.7c-4.9,17.6,14.5,23.8,24.2,29.7
	c2.5,1.5,4.6,3.5,6.3,5.7c-21.6-4.1-39.2-2.6-58.5-1.8c6.1-3.1,10.8-8.1,10.8-17.1c0-19.4-0.3-33.1,1.6-37.8
	c1.9-4.7,1.4-11.3-2.9-13.1c-4.3-1.8-2.3,9.6-1.9,11.2c0.4,1.6,1,2.7-0.5,2.9c-1.5,0.2-6.3-2.5-4.1,4.1c0,0,0.7,1.6-1.2,2
	c-1.9,0.4-2.7,3.1-2.1,5.3c0.6,2.2-1.5,1.6-2.6,2.9c-1.1,1.3,1.2,2.4,1.2,3.1c0.1,0.7-2.5,3.4-0.3,5.2c2.2,1.8,5.5,10.6,3.2,14.7
	c-2.4,4.1-1.6,0.8-2.8,0.5c-1.2-0.3-1.3,3.8-2.8,4.6c-1.5,0.9-0.7-1.8-1.6-1.7c-0.9,0.2-4.1,4-5.2,5.7c-1.1,1.7,0.1-3.3-1.7-3.5
	c-1.7-0.2-5.4,6.7-6.8,7c-1.4,0.3-1-2.8-2-3c-1-0.2-6.4,2.9-7.6,5.4c-1.2,2.5-1-2.3,1-4.6c2-2.4,19.4-18.9,8.4-36.2
	c-11-17.3-8.3-25.6-3.8-29.6c4.5-4,11.3-6.8,10.8-9.7c-0.5-2.9-2.5-1.9-2.5-1.9s3.9-6.1,2.9-8c-1-1.9-3.8-0.3-3.8-0.3
	s5.9-9.7,2.7-13.9c-3.3-4.2-8.3-2.5-8.7,3.9c-0.4,6.4,4.4,15.4,1.7,15.9c-2.8,0.4-4.2-3.3-6.9-2.5c-2.7,0.8-3.3,5.8-3.3,5.8
	s-3-2.8-6.2-1.9c-3.2,0.9-1.3,7.9-0.1,10.4c1.1,2.5-2.5,1.8-2.4,4.7c0.1,2.9,5.4,5.9,5.2,6.9c-0.3,1-3.8,1.2-3.9,2.7
	c0,1.5,6.6,5.6,6.1,6.2c-0.6,0.6-3.8,0.4-3.9,2c-0.1,1.5,10.5,5.4,12.2,9c1.7,3.5,3.3,13.2,0.3,15.4c-3.1,2.2-4.2-1.5-6.1-0.7
	c-1.9,0.8-3.3,6.7-5.2,7.9c-1.9,1.2-0.5-2.6-2.1-2.3c-1.6,0.3-3.3,7.1-4.4,7.6c-1.1,0.5-0.6-2.8-1.8-2.3s-4,6.9-4.4,8.3
	c-0.4,1.4-1-1.2-2.2-0.6c-1.1,0.6-2,6.7-3.8,6.9c-1.8,0.2,0.2-7.4,1.6-8.8c1.5-1.4-1-3.3,1.8-6.6c2.8-3.3-2.2-2.5,0-6.8
	c2.2-4.3-3-3.1-2.4-9.1c0.7-6-3.5-1.1-5.6-4.6c-2.2-3.5-0.2-4.4-4.1-6.1c-4-1.7,1.8-7.7,3.8-8.3c2-0.6,6.3-5.4,5.7-8.3
	c-0.6-2.8-2.8-0.9-2.8-0.9s7.2-6.8,6.4-9.4c-0.8-2.5-2.6-1.7-2.6-1.7s6.4-9.6,4.3-11.8c-1.7-1.8-2.7-0.2-3,0.4
	c0.7-1.5,4.3-9.9,2.2-13.1c-2.3-3.5-3.7,0.5-3.7,0.5s-1-10.4-6.3-11.3c-5.3-0.9,2.6,15.5,2.6,15.5s-1.9-1-3.4-0.5
	c-1.5,0.4,0.6,5.7,2.2,7.9c1.5,2.2-3.8-0.8-1.4,7c0,0,0.8,3.6-3.3,7.7c-4.1,4.1-13.8,17.7-7.6,32.3c4.1,9.5,6.9,24.7,6.3,36.7
	c-3.6,0-7.4,0-11.1,0.1c-1.1-1.7,0.5-4.4-2.5-4.9c-2.5-0.5-3.1-2-3-3.7c2.1-3.6,3.6-7.1,4.4-9.7c2.3-7.5-7.9-20.8-10.7-19.1
	c-2.8,1.7,1.7,5.2-2.2,7.9c-3.9,2.7,1.7,5.8-1,8.6c-2.7,2.8,4.9,5,1.7,6.7c-3.2,1.7-3.2,3.5-3.7,7.1c-0.5,3.6-1.8,7.9-7.2,6.6
	c-2.3-0.5-3.2,0.5-4,1.8c-6.3,0.3-12.7,0.7-19.3,1c5.9-17.7,20.7-39.3,33.2-50.8c17.6-16,12.8-40.7,9.7-48.8
	c-3.1-8.1,0.3-12.6,0.3-12.6c8.1-9.1-1-8.3,2.5-10.4c3.5-2.1,9.7-7.9,7.9-9.4c-1.8-1.5-5-1.4-5-1.4s21-17.6,13.2-19.6
	c-7.9-2.1-15.6,11.5-15.6,11.5s0.5-6.3-4.8-3c-4.8,3-5.1,16.4-5.2,19.1c0-1.1-0.5-3.7-3.9-2.3c-4.3,1.7-1.4,18.8-1.4,18.8
	s-1.9-2.3-4.6,0.6c-2.7,3,2.8,16.8,2.8,16.8s-1.8-4-4.4-0.5c-2.6,3.5,0.4,12.8,2.7,14.8c2.3,2.1,6.5,13.8,0,13.7
	c-6.5-0.1-4.3,2.3-9.4,5.8c-5.2,3.5-7.7-5.8-10.6,2.8c-2.8,8.6-9.2,3.7-8.9,11c0.3,7.2-6.1,3.1-4.3,9.3c1.8,6.2-2.8,7.2-1.7,10.1
	c1.2,2.8-0.9,14.5-3.2,13c-2.3-1.4,0.3-10.2-0.9-11.7c-1.2-1.6-3.7,1.7-3.4-0.5c0.4-2.2,0.5-12.6-0.8-14.1c-1.3-1.4-2.7,3.5-3.9,2.1
	c-1.2-1.4,0.6-11.7-1.3-13.2c-1.9-1.4-2.5,4.6-4.3,1.8c-1.8-2.8-0.1-11.7-2.2-14.1c-2.1-2.3-5.9,2.1-8.8-2.8
	c-2.8-4.9,5.4-17.2,9.9-20.9c4.5-3.7,21.4-2.5,22.2-4.6c0.8-2.2-3.7-4-4.1-5.2c-0.4-1.2,11.2-2.6,12.1-4.6c0.9-2.1-3.9-4.5-3.6-6.1
	c0.3-1.5,9.4-2.3,11.4-6.2c1.9-3.9-3.5-5.2-0.4-7.9c3.1-2.7,10.1-11.1,6.3-14.3c-3.7-3.2-9.6-1.3-9.6-1.3s2.3-7.1-0.9-9.9
	c-3.2-2.8-7.5,1.4-11-0.9c-3.5-2.3,8.6-11.6,12.1-20.6s-2.3-14.5-9.4-10.7c-7.1,3.7-5,20.7-5,20.7s-2.8-3.9-5.4-1.9
	c-2.6,1.9-1,12.8-1,12.8s-2.2-2.7-4.6,1c-2.5,3.7,5.2,11.7,8.8,20c3.6,8.3,2.2,21.3-23.6,38.1c-25.8,16.8-12.3,50.2-11,54.6
	c1.3,4.5-1.4,11.2-1.5,7c-0.1-4.2-5.6-11.9-7.1-12.1c-1.5-0.3-2.8,4.2-4.6,2.9c-1.7-1.3-2.4-13-4.9-13.8c-2.5-0.8-4,6.8-4.5,3.8
	c-0.4-3-2.4-10.2-3.5-11c-1.1-0.8-1.7,3.4-3.2,1.3c-1.5-2.1,0.9-7.7-0.9-8c-1.8-0.4-2.8,4.6-3.4-2.5c-0.7-7.1,9.3-17,13.5-18.1
	c4.1-1,2.3-6.3,2.8-7.2c0.5-0.9,4.4-1,3.6-3.5c-0.8-2.5-4-3-1.8-5.6c2.2-2.6,2.7-6.8,0.4-8.5c-2.3-1.7-0.4-3.4-0.4-3.4
	c7.1-7.6-1.2-6.9-3.1-8.1c-1.9-1.2-0.3-2.4,1.2-4.3c1.6-1.9,11.4-16.2,4.4-16.4c-7-0.3-11.8,8.5-12.1,16.1
	c-0.3,7.6-9.3,24.5-21.3,51c-12,26.5,16.9,42.6,30.6,54.3c6.1,5.2,9.9,12.3,12.2,18.7c-8.8-0.3-17.8-0.8-27.1-1.7
	c-15.6-1.6-28.9-2.6-40.3-3.5c1.3-1.7,3.6-4,6.6-4.9c4.9-1.4,13.9-1.7,13.9-9.9c0-8.2-0.1-13.9,0.7-15.9c0.8-2,0.6-4.8-1.2-5.5
	c-1.8-0.7-1,4-0.8,4.7c0.2,0.7,0.4,1.2-0.2,1.2c-0.6,0.1-2.7-1-1.7,1.7c0,0,0.3,0.7-0.5,0.8c-0.8,0.2-1.2,1.3-0.9,2.2
	c0.3,0.9-0.6,0.7-1.1,1.2c-0.5,0.5,0.5,1,0.5,1.3c0,0.3-1,1.4-0.1,2.2c0.9,0.7,2.3,4.5,1.3,6.2c-1,1.7-0.7,0.3-1.2,0.2
	c-0.5-0.1-0.6,1.6-1.2,1.9c-0.6,0.4-0.3-0.8-0.7-0.7c-0.4,0.1-1.7,1.7-2.2,2.4c-0.5,0.7,0-1.4-0.7-1.5c-0.7-0.1-2.3,2.8-2.9,2.9
	c-0.6,0.1-0.4-1.2-0.8-1.3c-0.4-0.1-2.7,1.2-3.2,2.3c-0.5,1.1-0.4-1,0.4-1.9c0.9-1,8.2-7.9,3.5-15.2c-4.6-7.3-3.5-10.8-1.6-12.5
	c1.9-1.7,4.8-2.8,4.6-4.1c-0.2-1.2-1.1-0.8-1.1-0.8s1.7-2.6,1.2-3.4c-0.4-0.8-1.6-0.1-1.6-0.1s2.5-4.1,1.1-5.9
	c-1.4-1.8-3.5-1.1-3.6,1.6c-0.2,2.7,1.9,6.5,0.7,6.7c-1.2,0.2-1.8-1.4-2.9-1c-1.2,0.4-1.4,2.4-1.4,2.4s-1.3-1.2-2.6-0.8
	c-1.3,0.4-0.5,3.3-0.1,4.4c0.5,1.1-1.1,0.8-1,2c0,1.2,2.3,2.5,2.2,2.9c-0.1,0.4-1.6,0.5-1.6,1.1c0,0.6,2.8,2.3,2.6,2.6
	c-0.2,0.2-1.6,0.2-1.7,0.8c-0.1,0.7,4.4,2.3,5.1,3.8c0.7,1.5,1.4,5.6,0.1,6.5c-1.3,0.9-1.8-0.6-2.6-0.3c-0.8,0.4-1.4,2.8-2.2,3.3
	c-0.8,0.5-0.2-1.1-0.9-1c-0.7,0.1-1.4,3-1.9,3.2c-0.5,0.2-0.3-1.2-0.7-1s-1.7,2.9-1.8,3.5c-0.2,0.6-0.4-0.5-0.9-0.3
	c-0.5,0.3-0.8,2.8-1.6,2.9c-0.8,0.1,0.1-3.1,0.7-3.7c0.6-0.6-0.4-1.4,0.7-2.8c1.2-1.4-0.9-1.1,0-2.9c0.9-1.8-1.3-1.3-1-3.8
	c0.3-2.5-1.5-0.5-2.4-2c-0.9-1.5-0.1-1.9-1.7-2.6c-1.7-0.7,0.8-3.2,1.6-3.5c0.8-0.3,2.7-2.3,2.4-3.5c-0.3-1.2-1.2-0.4-1.2-0.4
	s3-2.9,2.7-4c-0.3-1.1-1.1-0.7-1.1-0.7s2.7-4,1.8-5c-0.7-0.8-1.1-0.1-1.3,0.2c0.3-0.6,1.8-4.2,0.9-5.5c-1-1.5-1.6,0.2-1.6,0.2
	s-0.4-4.4-2.6-4.7c-2.2-0.4,1.1,6.5,1.1,6.5s-0.8-0.4-1.4-0.2c-0.6,0.2,0.3,2.4,0.9,3.3c0.7,0.9-1.6-0.3-0.6,2.9
	c0,0,0.3,1.5-1.4,3.2c-1.7,1.7-5.8,7.4-3.2,13.6c2.6,6.1,4,17.9,1,21.8c0,0-0.6,0.6-0.7-0.3c-0.1-0.9,0.8-2.7-0.3-2.9
	c-1.2-0.2,0.1-2-1.4-2.6c-1.4-0.6-0.1-2.2-1.6-2.5c-1.1-0.2-1.3-0.9-1.3-1.6c0.9-1.5,1.5-3,1.9-4.1c1-3.1-3.3-8.7-4.5-8
	c-1.2,0.7,0.7,2.2-0.9,3.3c-1.6,1.1,0.7,2.4-0.4,3.6c-1.1,1.2,2.1,2.1,0.7,2.8s-1.4,1.5-1.6,3c-0.2,1.5-0.8,3.3-3,2.8
	c-2.3-0.5-1.4,2.6-3.7,2.4c-2.3-0.1-1.7,3-3.5,2.7c-0.6-0.1-0.9,0.1-1.2,0.5c-0.8-0.1-1.6-0.2-2.4-0.3c1-7.8,8.6-19.8,15-25.5
	c7.4-6.7,5.4-17.1,4.1-20.5c-1.3-3.4,0.1-5.3,0.1-5.3c3.4-3.8-0.4-3.5,1-4.4c1.5-0.9,4.1-3.3,3.3-4c-0.8-0.7-2.1-0.6-2.1-0.6
	s8.8-7.4,5.5-8.3c-3.3-0.9-6.6,4.8-6.6,4.8s0.2-2.7-2-1.3c-2,1.3-2.2,6.9-2.2,8c0-0.5-0.2-1.5-1.6-1c-1.8,0.7-0.6,7.9-0.6,7.9
	s-0.8-1-1.9,0.3c-1.1,1.2,1.2,7.1,1.2,7.1s-0.8-1.7-1.8-0.2c-1.1,1.5,0.2,5.4,1.1,6.2c1,0.9,2.7,5.8,0,5.8c-2.7-0.1-1.8,1-4,2.4
	c-2.2,1.5-3.3-2.4-4.5,1.2c-1.2,3.6-3.9,1.6-3.7,4.6c0.1,3-2.6,1.3-1.8,3.9c0.8,2.6-1.2,3-0.7,4.2c0.5,1.2-0.4,6.1-1.4,5.5
	c-1-0.6,0.1-4.3-0.4-4.9c-0.5-0.7-1.6,0.7-1.4-0.2c0.2-0.9,0.2-5.3-0.3-5.9c-0.5-0.6-1.1,1.5-1.6,0.9c-0.5-0.6,0.3-4.9-0.5-5.5
	c-0.8-0.6-1,2-1.8,0.8c-0.8-1.2-0.1-4.9-0.9-5.9c-0.9-1-2.5,0.9-3.7-1.2c-1.2-2.1,2.3-7.2,4.2-8.8c1.9-1.6,9-1,9.3-2
	c0.3-0.9-1.6-1.7-1.7-2.2c-0.2-0.5,4.7-1.1,5.1-2c0.4-0.9-1.6-1.9-1.5-2.6c0.1-0.7,4-1,4.8-2.6c0.8-1.6-1.5-2.2-0.2-3.3
	c1.3-1.1,4.2-4.7,2.7-6c-1.6-1.4-4-0.5-4-0.5s1-3-0.4-4.2c-1.4-1.2-3.2,0.6-4.6-0.4c-1.5-1,3.6-4.9,5.1-8.7c1.5-3.8-1-6.1-4-4.5
	c-3,1.6-2.1,8.7-2.1,8.7s-1.2-1.6-2.3-0.8c-1.1,0.8-0.4,5.4-0.4,5.4s-0.9-1.1-2,0.4c-1,1.6,2.2,4.9,3.7,8.4c1.5,3.5,0.9,9-9.9,16
	c-10.9,7.1-5.2,21.1-4.6,23c0.5,1.9-0.6,4.7-0.6,2.9c0-1.8-2.4-5-3-5.1c-0.6-0.1-1.2,1.8-1.9,1.2c-0.7-0.5-1-5.5-2.1-5.8
	c-1.1-0.3-1.7,2.9-1.9,1.6c-0.2-1.3-1-4.3-1.5-4.6c-0.5-0.3-0.7,1.4-1.3,0.5c-0.6-0.9,0.4-3.2-0.4-3.4c-0.8-0.2-1.2,1.9-1.4-1
	c-0.3-3,3.9-7.2,5.7-7.6c1.7-0.4,1-2.7,1.2-3c0.2-0.4,1.8-0.4,1.5-1.5c-0.3-1-1.7-1.2-0.8-2.3c0.9-1.1,1.1-2.9,0.2-3.6
	c-1-0.7-0.2-1.4-0.2-1.4c3-3.2-0.5-2.9-1.3-3.4c-0.8-0.5-0.1-1,0.5-1.8c0.7-0.8,4.8-6.8,1.8-6.9c-2.9-0.1-5,3.6-5.1,6.8
	c-0.1,3.2-3.9,10.3-9,21.4c-5.1,11.1,7.1,17.9,12.9,22.9c2.4,2,3.9,4.8,4.9,7.3c-2-0.8-3.8-1.8-5.4-2.9
	c-6.1-4.2-20.7-16.9-39.1-30.8c2.4-6.8,4.3-13.8,5.4-20.8c2.3-3.7,14.4-21.1,33.9-21.9c5.2-0.2,9.8-1.1,14-2.6
	c0.9-0.1,1.7-0.4,2.4-0.9c6.5-2.8,12-7.1,16.8-12.8c4,1.6,18.6,6.4,32.3-3.8c2.4-1.8,2.9-5.1,1.1-7.5c-1.8-2.4-5.1-2.9-7.5-1.1
	c-7.3,5.4-15,4.5-19.2,3.4c2-3.1,4-6.4,5.9-9.9c1.4-2.6,0.5-5.9-2.1-7.3c-2.6-1.4-5.9-0.5-7.3,2.1c-7.6,13.7-14.3,21.8-22.2,26.1
	c-1.9-2-4.6-5.2-7.2-9.6c4.3-4.2,11.5-12.8,19.1-29.1c1.3-2.7,0.1-5.9-2.6-7.1c-2.7-1.3-5.9-0.1-7.1,2.6
	c-5.5,11.8-10.7,19-14.3,23.2c-1-2.9-1.9-6.1-2.5-9.6c-0.5-2.9-3.2-4.9-6.2-4.4c-2.9,0.5-4.9,3.2-4.4,6.2c2.4,14.4,8.9,24.9,14,31.3
	c-1.1,0.1-2.3,0.2-3.5,0.3c-14.5,0.6-25.5,8-32.8,15.1c-0.3-2.6-0.7-5.2-1.3-7.7c-0.9-3.6-2.5-7.1-4-10.4c-4.6-10.1-8.9-19.6,1.3-37
	c1.5-2.6,0.6-5.9-1.9-7.4c-2.6-1.5-5.9-0.6-7.4,1.9c-6.1,10.4-7.9,19-7.6,26.4c-5.9-2.5-14.3-7.5-20-17c-1.5-2.5-4.8-3.4-7.4-1.9
	c-2.5,1.5-3.4,4.8-1.9,7.4c5.3,8.8,12.2,14.5,18.5,18.2c5.4,3.2,10.3,4.8,13.1,5.6c1.1,3,2.3,5.8,3.5,8.3c1.4,3,2.7,5.9,3.4,8.6
	c1.6,6.1,1.6,12.8,0.6,19.7c0,0.2-0.1,0.4-0.1,0.6c-0.8,5.4-2.2,11-4,16.5c-21.5-15.4-46.7-30.7-69.6-35.8
	c-10.7-2.4-19.1-4.2-26.7-6.4c1.6-7,4-18.5,5.7-32.2c3.6-2.6,11.4-9.7,19.4-26.3c11.6-3.4,54.3-14.6,90.9-6.5
	c0.9,0.2,1.8,0.4,2.7,0.5c48.3,8.5,79.4-42.2,80.7-44.4c2.2-3.6,1-8.3-2.6-10.4c-3.6-2.2-8.3-1-10.4,2.6
	c-0.2,0.3-12.6,20.7-32.7,31.4c-1-4.3-3.5-19.2,3.8-38c1.5-3.9-0.4-8.3-4.4-9.8c-3.9-1.5-8.3,0.4-9.8,4.4
	c-9.9,25.5-4.9,45.4-3.9,48.9c-5.7,1.2-11.7,1.5-18.1,0.4c-0.6-0.1-1.3-0.2-1.9-0.4c-32.2-7.1-67.5-1-87,3.7
	c0.4-1.2,0.8-2.5,1.3-3.8c1.2-3.9,2.8-7.7,4.6-11.4c6.3-0.7,18.6-2.6,32.4-7c4.6,2.5,13.6,6.8,23.7,8.6c2.2,0.4,4.4,0.6,6.6,0.8
	c4.2,0.2,7.8-3,8-7.2c0.2-4.2-3-7.8-7.2-8c-3.9-0.2-7.8-1.1-11.3-2.2c11.5-5.7,22.6-13.6,31-24.3c2.6-3.3,2-8.1-1.3-10.7
	c-3.3-2.6-8.1-2-10.7,1.3c-15.6,19.8-43.4,28.2-60.9,31.7c11.1-15.4,24.1-27.1,29.6-31.7c9.2-0.2,22.3-7.9,41.3-24
	c15.9-13.6,30-28,30.6-28.6c2.9-3,2.8-7.8-0.2-10.8c-3-2.9-7.8-2.9-10.8,0.2c-24.4,25.2-51.6,46.8-60.1,48c-0.5-0.2-1-0.3-1.5-0.4
	c-8.1-5.7-10.6-9.8-11.1-10.8c3.8-5.2,6.7-11,9.1-17.4c6.1,0.2,27.8-0.7,41-20.9c2.3-3.5,1.3-8.2-2.2-10.5
	c-3.5-2.3-8.2-1.3-10.5,2.2c-7,10.7-17.7,13.3-23.8,13.9c1.1-5.1,2.1-10.4,3-16.1c0.6-4.2-2.3-8-6.4-8.7c-4.2-0.6-8,2.2-8.7,6.4
	c-3.3,22-8.2,36-16.7,45.5c-3.5-1.7-8.7-4.7-14.3-9.2c3.6-7.6,9-22.7,11.1-48.1c0.4-4.2-2.8-7.9-6.9-8.2c-4.2-0.4-7.9,2.8-8.2,6.9
	c-1.5,18.3-4.9,30.5-7.7,37.9c-2.8-3.4-5.5-7.2-8-11.5c-2.1-3.7-6.7-4.9-10.4-2.8c-3.7,2.1-4.9,6.7-2.8,10.4
	c10.2,17.9,24,28.7,34,34.7c-1.4,0.7-2.9,1.4-4.5,2.1c-18.9,7.9-29.9,23.1-36.2,36.1c-1.6-3.3-3.4-6.5-5.5-9.5
	c-3-4.4-6.8-8.2-10.5-11.9c-11-11.1-21.5-21.6-16.5-49.8c0.7-4.1-2-8.1-6.2-8.8c-4.1-0.7-8.1,2-8.8,6.2c-3,16.8-1.1,29.1,2.8,38.7
	c-9.1-0.5-22.7-3-35-12.8c-0.5-0.4-0.9-0.7-1.4-0.9c-5.7-14.9-10.5-26.8-12.5-31.7c-1.8-4.3-7.9-10.2-16-16.8
	c4.7-6.7,18.5-23.4,39.3-24.3c6.2-0.3,11.8-1.3,16.8-3.1c1-0.1,2-0.5,2.9-1.1c7.8-3.3,14.3-8.5,20.1-15.3c4.8,1.9,22.2,7.6,38.6-4.6
	c2.8-2.1,3.4-6.1,1.3-9c-2.1-2.8-6.1-3.4-9-1.3c-8.7,6.4-17.9,5.4-22.9,4c2.4-3.7,4.7-7.6,7.1-11.8c1.7-3.1,0.6-7-2.5-8.7
	c-3.1-1.7-7-0.6-8.7,2.5c-9,16.4-17.1,26.1-26.5,31.2c-2.3-2.4-5.5-6.2-8.7-11.5c5.1-5,13.8-15.3,22.9-34.8c1.5-3.2,0.1-7-3.1-8.5
	c-3.2-1.5-7-0.1-8.5,3.1c-6.6,14.1-12.8,22.7-17.1,27.7c-1.2-3.5-2.3-7.3-3-11.4c-0.6-3.5-3.9-5.9-7.4-5.3c-3.5,0.6-5.9,3.9-5.3,7.4
	c2.8,17.2,10.6,29.7,16.8,37.4c-1.3,0.2-2.7,0.3-4.1,0.3c-17.3,0.7-30.5,9.5-39.2,18c-0.3-3.1-0.8-6.2-1.6-9.2
	c-1.1-4.3-3-8.5-4.8-12.5c-5.5-12-10.7-23.4,1.5-44.2c1.8-3.1,0.8-7-2.3-8.8c-3.1-1.8-7-0.8-8.8,2.3c-7.3,12.4-9.4,22.7-9.1,31.5
	c-7.1-3-17.1-9-23.9-20.4c-0.8-1.3-2-2.2-3.4-2.7c7.1-19.6,16.8-41.9,24.4-50.3c13.7-15.1,44.4-49.6,20.5-66.2
	c-23.9-16.5-47.8-9.6-52.9-11.5c-5.1-1.9-23.9-31.4-23.9-31.4s-48.2-13.8-56.3-29.2C46.4,151.9-0.1,81.3-0.1,81.3v809.6H1920v-868
	L1865.8,86.2z M1312.2,635.4c0,0.1,0.1,0.2,0.1,0.2l-0.2-0.1C1312.1,635.5,1312.2,635.5,1312.2,635.4z M1339.8,725.9
	c-2.5-29.6-19.4-57.6-29-71.2c4.1-2.1,7.2-4.2,9.3-6c3.7,4.6,8.1,8.9,13.7,12.9c22.4,16.1,23.2,46,23.1,52.3
	c-5.7,12.5-9.6,26.4-12.2,39.9C1342.7,747.1,1340.8,738,1339.8,725.9z M143.7,409.8c0-2.6,2-10.2,5.1-19.8
	c5.8,8,12.8,13.6,19.2,17.3c6.4,3.8,12.3,5.7,15.6,6.7c1.3,3.6,2.8,6.9,4.1,9.9c1.7,3.6,3.2,7.1,4.1,10.3c1.2,4.8,1.6,9.9,1.5,15.1
	C170.8,432.6,143.7,415,143.7,409.8z M384.8,514.1l-0.2,0.1c0.1-0.1,0.1-0.1,0.2-0.2C384.8,514,384.8,514.1,384.8,514.1z
	 M357.7,534.5c6.3-2.6,11.6-5.8,16.2-9.4c1.7,2.2,4.2,4.9,7.8,7.9c-12.4,11.1-35.2,34.5-44.3,62.9c-3.7,11.6-7.6,20-11.1,26.1
	c0.5-13.7-0.2-28.1-2.9-41.6C324.7,574.1,332.3,545.1,357.7,534.5z M268.3,613.1c-1-14.4-13.2-50.6-25-82.5c5.9,2.5,11.6,4.1,16.9,5
	c8.7,1.5,16,1.3,20.1,1c2.9,3.5,5.9,6.5,8.7,9.3c3.3,3.4,6.5,6.5,8.7,9.8c5.1,7.3,8.4,16.3,10.5,25.9c0,0.3,0.1,0.5,0.2,0.8
	c7,33.2-0.5,74.9-4.4,92.7c-7.3-3.4-14.7-8.1-23.8-15.3C256.3,640.9,270,638.7,268.3,613.1z"/>
</svg>
