<?xml version="1.0" encoding="utf-8"?>
<!-- Generator: Adobe Illustrator 22.0.1, SVG Export Plug-In . SVG Version: 6.00 Build 0)  -->
<svg version="1.1" id="Layer_1" xmlns="http://www.w3.org/2000/svg" xmlns:xlink="http://www.w3.org/1999/xlink" x="0px" y="0px"
	 viewBox="0 0 1920 891" style="enable-background:new 0 0 1920 891;" xml:space="preserve">
<style type="text/css">
	.st0{fill:#010101;}
</style>
<path class="st0" d="M1707.9,392.9c-57.1,76.6,43.5,200.7-8.2,201.5c-8.9,0.1-19.6,0.9-31.3,2.1c-2.2-2.8-4.6-5.4-7.2-7.7
	c-0.9-1.9-5-11.5-0.2-19.8c1.3-2.2,2.1-4.4,2.6-6.5c0.2-0.4,0.2-0.7,0.2-1.1c0.6-3.5,0.2-6.9-0.9-10.4c1.7-1.2,7.5-6,6.9-14.4
	c-0.1-1.5-1.4-2.5-2.8-2.4c-1.5,0.1-2.5,1.4-2.4,2.8c0.3,4.5-2.1,7.4-3.6,8.8c-0.7-1.6-1.6-3.3-2.6-5c-0.7-1.3-2.3-1.7-3.6-1
	c-1.3,0.7-1.7,2.3-1,3.6c3.7,6.7,5.3,11.7,5,16.1c-1.3,0.3-3.4,0.5-5.9,0.5c-0.6-2.9-2.3-8.1-7-15.6c-0.8-1.2-2.4-1.6-3.6-0.8
	c-1.2,0.8-1.6,2.4-0.8,3.6c3.5,5.4,5.1,9.4,5.8,12c-1.5-0.3-3-0.8-4.6-1.5c-1.3-0.6-2.9,0.1-3.5,1.4c-0.6,1.3,0.1,2.9,1.4,3.5
	c6.6,2.8,12.6,2.8,16.6,2.4c-0.2,0.5-0.5,1-0.7,1.5c-3.6,6.2-3.4,12.7-2.4,17.6c-1.2-0.6-2.3-1.1-3.5-1.5c-1.8-0.6-3.6-0.8-5.4-1.1
	c-5.4-0.7-10.5-1.4-15-10.2c-0.7-1.3-2.3-1.8-3.6-1.1c-1.3,0.7-1.8,2.3-1.1,3.6c2.7,5.2,5.8,8.3,8.9,10.1c-2.6,1.8-6.9,4-12.3,3.8
	c-1.5,0-2.7,1.1-2.7,2.6c0,1.5,1.1,2.7,2.6,2.7c5,0.1,9.2-1.3,12.4-2.9c2.7-1.4,4.7-3,5.7-4c1.5,0.4,3,0.6,4.3,0.7
	c1.6,0.2,3.2,0.4,4.5,0.9c3,1,5.8,2.7,8.4,5c0,0,0.1,0.1,0.1,0.1c1.7,1.4,3.2,3,4.7,4.7c-18,2.1-38,5.4-57.6,9.8
	c-0.7-2.7-2.2-6.3-5.1-10.9c1.6-5.6,8.2-26.3,21.2-39.4c0.3-0.3,0.6-0.6,0.9-1c16.2-17.8,3.4-44,2.8-45.1c-0.9-1.8-3.2-2.6-5-1.7
	c-1.8,0.9-2.6,3.2-1.7,5c0.1,0.2,5.2,10.7,4.4,21.8c-2-0.7-8.9-3.6-14.8-11.6c-1.2-1.7-3.6-2-5.2-0.8c-1.7,1.2-2,3.6-0.8,5.2
	c7.9,10.7,17.4,13.9,19.2,14.5c-1,2.7-2.4,5.3-4.5,7.6c-0.2,0.2-0.4,0.5-0.7,0.7c-11.4,11.5-18.1,27.7-21.3,37
	c-0.4-0.5-0.8-1-1.2-1.5c-1.3-1.5-2.4-3.2-3.5-4.9c1.4-2.8,3.8-8.4,5.6-15.3c2.2-1.2,6.4-3.8,9.8-7.6c0.7-0.8,1.4-1.6,2-2.5
	c1.2-1.7,0.8-4-0.9-5.2c-1.7-1.2-4-0.8-5.2,0.9c-1.1,1.6-2.5,2.9-3.9,4.1c0.6-6.3,0.3-12.9-1.9-19.2c-0.7-1.9-2.8-3-4.8-2.3
	c-1.9,0.7-3,2.8-2.3,4.8c4.1,11.7,0.3,25.4-2.9,33.6c-3.5-8.7-4.9-17.2-5.4-20.6c2.3-3.9,2.6-11.3,0.9-23.4
	c-1.4-10.2-3.8-19.8-3.8-20.2c-0.5-2-2.5-3.2-4.5-2.8c-2,0.5-3.2,2.5-2.8,4.5c4,16.7,5.9,33.7,4.1,37.5c-0.2,0.1-0.4,0.3-0.6,0.5
	c-4.5,1.8-6.9,1.8-7.4,1.8c-1.2-2.9-2.8-5.7-4.8-8.4c1.7-2.5,7-11.7,2.1-22.5c-0.9-1.9-3.1-2.7-4.9-1.8c-1.9,0.9-2.7,3.1-1.8,4.9
	c2.6,5.7,0.9,10.9-0.5,13.5c-1.8-1.8-3.8-3.6-5.9-5.4c-1.6-1.3-3.9-1.2-5.3,0.4c-1.4,1.6-1.2,3.9,0.4,5.3
	c8.2,7.1,12.8,12.9,14.5,18.9c-1.6,1-4.2,2.4-7.6,3.5c-2.2-3.5-7.1-9.7-17-17.2c-1.6-1.2-4-0.9-5.2,0.7c-1.2,1.6-0.9,4,0.7,5.2
	c7.2,5.5,11.4,10.1,13.7,13.1c-2.1,0.3-4.4,0.4-6.9,0.3c-2.1-0.1-3.8,1.5-3.9,3.6c-0.1,2.1,1.5,3.8,3.6,3.9
	c10.1,0.5,18.2-2.4,23.3-5c-0.1,0.8-0.2,1.6-0.3,2.4c-1.7,9.9,1.7,18.5,5.5,24.5c-1.8-0.2-3.6-0.3-5.4-0.2c-2.6,0.1-5.2,0.7-7.7,1.2
	c-7.5,1.7-14.6,3.2-25-6.2c-1.5-1.4-3.9-1.3-5.3,0.2c-1.4,1.5-1.3,3.9,0.2,5.3c6.2,5.6,11.8,8.1,16.8,9c-2.6,3.6-7.2,8.7-14.5,11.1
	c-2,0.7-3,2.8-2.3,4.7c0.7,2,2.8,3,4.7,2.3c6.7-2.3,11.6-6.2,15.1-10c2.9-3.2,4.8-6.3,5.7-8.1c2.2-0.3,4.3-0.7,6.1-1.1
	c2.3-0.5,4.4-1,6.3-1.1c4.4-0.2,9,0.8,13.6,2.5c0.1,0,0.1,0,0.2,0.1c6.2,2.3,12.3,5.9,17.9,9.8c-27.5,6.7-53.4,15.4-70.9,25.7
	c-2.3-2.9-4.9-5.6-7.6-8c-1.1-2.3-5.9-13.8-0.2-23.7c1.5-2.7,2.5-5.3,3.1-7.8c0.2-0.4,0.3-0.9,0.3-1.4c0.7-4.1,0.2-8.2-1.1-12.5
	c2-1.5,9-7.2,8.2-17.2c-0.1-1.7-1.6-3-3.4-2.9c-1.7,0.1-3,1.6-2.9,3.4c0.4,5.3-2.5,8.8-4.3,10.6c-0.9-2-1.9-4-3.1-6
	c-0.8-1.5-2.8-2.1-4.3-1.2c-1.5,0.8-2.1,2.8-1.2,4.3c4.4,8.1,6.3,13.9,5.9,19.2c-1.6,0.3-4,0.6-7,0.6c-0.7-3.4-2.7-9.7-8.4-18.6
	c-0.9-1.5-2.9-1.9-4.4-1c-1.5,0.9-1.9,2.9-1,4.4c4.1,6.4,6.1,11.3,7,14.4c-1.8-0.4-3.6-1-5.5-1.8c-1.6-0.7-3.5,0.1-4.1,1.7
	c-0.7,1.6,0.1,3.5,1.7,4.1c7.8,3.3,15.1,3.4,19.9,2.9c-0.3,0.6-0.5,1.2-0.9,1.8c-4.3,7.4-4,15.1-2.8,21c-1.4-0.7-2.8-1.3-4.2-1.8
	c-2.1-0.7-4.3-1-6.4-1.3c-6.4-0.9-12.5-1.7-17.9-12.2c-0.8-1.5-2.7-2.2-4.2-1.4c-1.5,0.8-2.2,2.7-1.4,4.2c3.2,6.3,7,9.9,10.7,12
	c-3.1,2.1-8.2,4.7-14.7,4.6c-1.7,0-3.2,1.3-3.2,3.1c0,1.7,1.3,3.2,3.1,3.2c6,0.2,11-1.5,14.8-3.5c3.3-1.7,5.6-3.6,6.9-4.7
	c1.8,0.4,3.6,0.7,5.2,0.9c1.9,0.3,3.8,0.5,5.3,1c3.5,1.2,6.9,3.3,10,5.9c0,0,0.1,0.1,0.1,0.1c2.4,2.1,4.7,4.4,6.8,7
	c-3.3,2.2-6.3,4.6-8.7,6.9c-14.8,14.5-70.1,27.6-137.7,26.4c0.3-2.3,0.2-4.6-0.4-6.7c-2.9-10.9,7.4-15.4,7.4-15.4s8.3-4.1,7.4-14.7
	c-0.9-10.6,10.1-15.2,10.1-15.2c-17.3-2-16.5,10-16.9,12.8c-0.4,2.9-1,8-15.4,11.8c-2.9,0.8-5.1,2.1-6.8,3.9
	c-0.1-0.1-0.2-0.3-0.3-0.4c-7.4-10.7,2.2-19.6,2.2-19.6s7.4-7.6,2.4-18.9c-5-11.2,5.1-20.4,5.1-20.4c-19.5,4.5-14.1,17.2-13.4,20.4
	c0.6,3.2,1.9,8.8-11.4,18.1c-0.4-0.8-0.9-1.6-1.5-2.3c-8.5-11.1,0.6-25.3,0.6-25.3s7-12,0.8-24.5c-6.1-12.5,3.5-27.3,3.5-27.3
	c-19.7,11.9-13,26-12.1,30c0.9,3.9,2.9,10.8-11,27.4c-7,8.4-7.5,17.9-6,26.9c-8.4-6.5-4.5-16.9-4.5-16.9s3.2-10.1-6.3-17.9
	c-9.5-7.8-4.5-20.5-4.5-20.5c-15.5,12.7-4.9,21.6-2.9,24.3c2,2.7,5.9,7.2-2.6,22.2c-3.4,6-2.7,11.5-0.3,16.7
	c-5.9-4.4-4.9-12.1-4.9-12.1s0.8-9.2-8.8-14c-9.5-4.8-7.8-16.5-7.8-16.5c-10.6,13.8,0,19.2,2.2,21.1c2.2,1.9,6.3,5,2.1,19.3
	c-3.9,13.1,9.9,20.5,17.5,26.4c-36.3-6.5-73.2-17.6-107.2-35c2.9-3,7.4-6.6,12.9-7.6c9.7-2,27.9-2,29.1-18
	c1.2-15.9,1.4-26.4,3.3-30.1c1.8-3.7,1.9-9.2-1.6-10.9c-3.4-1.7-2.5,7.7-2.3,9c0.2,1.3,0.7,2.3-0.6,2.4c-1.2,0.1-5-2.4-3.6,3.1
	c0,0,0.4,1.3-1.1,1.5c-1.6,0.2-2.4,2.4-2.1,4.2c0.4,1.8-1.3,1.2-2.3,2.2c-1,1,0.8,2.1,0.8,2.6c0,0.6-2.3,2.6-0.6,4.2
	c1.7,1.6,3.9,9,1.7,12.2c-2.2,3.2-1.3,0.6-2.3,0.3c-1-0.3-1.3,3-2.6,3.6c-1.2,0.6-0.4-1.5-1.2-1.5c-0.7,0.1-3.6,3-4.6,4.3
	c-1,1.3,0.3-2.7-1.1-3c-1.4-0.3-4.8,5.1-6,5.3c-1.2,0.2-0.6-2.4-1.4-2.6c-0.8-0.3-5.4,1.9-6.6,3.9c-1.2,2-0.7-1.9,1.1-3.7
	c1.8-1.8,17.1-14.2,9.2-29.1c-7.9-14.9-5.2-21.5-1.2-24.5c3.9-3,9.7-4.8,9.5-7.3c-0.2-2.4-2-1.7-2-1.7s3.6-4.8,2.9-6.4
	c-0.7-1.6-3.1-0.5-3.1-0.5s5.5-7.6,3.1-11.2c-2.4-3.7-6.6-2.6-7.4,2.6c-0.7,5.3,2.6,12.9,0.3,13.1c-2.3,0.2-3.2-3-5.5-2.5
	c-2.3,0.5-3.1,4.5-3.1,4.5s-2.3-2.5-4.9-1.9c-2.7,0.6-1.5,6.4-0.8,8.5c0.8,2.1-2.2,1.3-2.3,3.7c-0.1,2.4,4.1,5.2,3.8,6
	c-0.3,0.8-3.2,0.7-3.3,2c-0.1,1.2,5.1,5,4.6,5.4c-0.5,0.5-3.1,0.1-3.4,1.4s8.2,5.1,9.4,8.1c1.2,3,1.9,11.1-0.8,12.7
	c-2.7,1.6-3.4-1.5-5-1c-1.6,0.6-3.2,5.3-4.8,6.2c-1.6,0.9-0.3-2.2-1.6-2c-1.3,0.2-3.2,5.6-4.1,6c-0.9,0.4-0.3-2.4-1.3-2
	c-1,0.3-3.7,5.4-4.1,6.5c-0.4,1.2-0.8-1.1-1.7-0.6c-1,0.4-2.1,5.3-3.5,5.4c-1.5,0.1,0.6-6.1,1.9-7.1c1.3-1.1-0.6-2.8,1.9-5.3
	c2.5-2.5-1.6-2.2,0.4-5.6c2-3.4-2.3-2.7-1.4-7.6c0.9-4.9-2.8-1.1-4.3-4.2c-1.6-3,0.2-3.6-3-5.3c-3.1-1.7,2-6.2,3.6-6.6
	c1.7-0.4,5.6-4,5.2-6.4c-0.3-2.4-2.2-0.9-2.2-0.9s6.3-5.2,5.8-7.3c-0.5-2.1-2-1.5-2-1.5s5.9-7.5,4.3-9.4c-1.3-1.5-2.2-0.4-2.5,0.1
	c0.7-1.3,4.1-7.8,2.6-10.5c-1.6-3-3.1,0.2-3.1,0.2s-0.1-8.6-4.4-9.7c-4.3-1.1,1.1,12.9,1.1,12.9s-1.5-0.9-2.8-0.7
	c-1.3,0.3,0.2,4.7,1.3,6.6c1.1,1.9-3.1-0.9-1.6,5.6c0,0,0.4,3-3.2,6.1c-3.6,3.1-12.5,13.6-8.3,26c3.3,9.7,4.5,26,1.8,36
	c-1.9-1.2-3.9-2.4-5.8-3.7c-0.1-0.6-0.5-1.1-1.2-1.5c-2.7-1.3,0.2-4.3-2.7-5.1c-2.9-0.8-2.4-3.2-1.7-5.1c0.7-1.9,1.2-2.7,0.1-4.4
	c-1.1-1.7,3.1-0.7,2.6-2.8c-0.5-2.1,2.9-2.1,1.8-4.4c-1.1-2.3,2-2.8,1-4.4c-0.9-1.6-9.3,2.1-10.2,6.3c-0.3,1.5-0.5,3.6-0.4,5.9
	c-0.4,0.8-1.1,1.4-2.4,1c-1.9-0.6-1.4,2.1-3.4,1.9c-0.5-0.1-0.8,0.1-1,0.2c-1.2-0.9-2.4-1.9-3.6-2.8c2.9-6,8.4-12.9,13-16.5
	c6.8-5.3,5.8-14.4,4.9-17.5c-0.9-3.1,0.5-4.6,0.5-4.6c3.2-3.1-0.1-3.1,1.2-3.7c1.3-0.7,3.7-2.6,3.1-3.2c-0.6-0.6-1.8-0.7-1.8-0.7
	s8.2-5.8,5.3-6.8c-2.8-1-6,3.7-6,3.7s0.4-2.3-1.7-1.2c-1.8,1-2.3,6-2.4,6.9c0-0.4,0-1.4-1.3-1c-1.6,0.5-1.1,6.8-1.1,6.8
	s-0.6-0.9-1.7,0.1c-1.1,1,0.6,6.2,0.6,6.2s-0.5-1.5-1.6-0.3c-1,1.2-0.2,4.7,0.6,5.5c0.8,0.8,2,5.2-0.4,5c-2.3-0.2-1.6,0.7-3.6,1.8
	c-2,1.1-2.7-2.3-3.9,0.7c-1.3,3.1-3.4,1.1-3.6,3.7c-0.1,2.6-2.3,1-1.8,3.3s-1.2,2.6-0.9,3.6c0.3,1.1-0.7,5.2-1.5,4.7
	c-0.8-0.6,0.4-3.7,0-4.3c-0.4-0.6-1.4,0.5-1.2-0.3c0.2-0.8,0.5-4.6,0.1-5.1c-0.4-0.6-1.1,1.2-1.5,0.6c-0.4-0.5,0.6-4.3-0.1-4.8
	c-0.7-0.6-1,1.6-1.6,0.5c-0.6-1.1,0.3-4.3-0.4-5.2c-0.7-0.9-2.2,0.6-3.1-1.3c-0.9-1.9,2.5-6.1,4.2-7.3c1.8-1.2,7.9-0.3,8.2-1.1
	c0.3-0.8-1.3-1.6-1.4-2c-0.1-0.4,4.2-0.6,4.6-1.3c0.4-0.7-1.3-1.8-1.1-2.3c0.1-0.6,3.5-0.6,4.3-1.9c0.8-1.4-1.1-2,0.1-2.9
	c1.2-0.9,4-3.8,2.7-5c-1.3-1.3-3.4-0.7-3.4-0.7s1-2.5,0-3.6c-1.1-1.1-2.8,0.3-4-0.6c-1.2-0.9,3.5-4,5-7.2c1.5-3.2-0.4-5.3-3.1-4.2
	c-2.7,1.2-2.4,7.4-2.4,7.4s-0.9-1.5-1.9-0.9c-1,0.6-0.7,4.6-0.7,4.6s-0.7-1-1.7,0.2c-1,1.3,1.5,4.4,2.6,7.5
	c1.1,3.1,0.2,7.8-9.7,13.2c-9.9,5.4-5.9,17.9-5.6,19.6c0,0.1,0,0.2,0,0.3c-0.7-0.5-1.5-1-2.2-1.5c-0.3-0.5-0.6-0.8-0.8-0.9
	c-0.1,0-0.2,0-0.3,0.1c-0.6-0.4-1.3-0.9-1.9-1.3c-0.2-1.3-0.4-2.8-0.9-3c-0.7-0.3-1.2,1.1-1.5,1.4c-0.1,0-0.1-0.1-0.2-0.1
	c0,0,0,0,0-0.1c-0.1-1.1-0.6-3.8-1-4.1c-0.4-0.3-0.7,1.2-1.2,0.4c-0.5-0.8,0.5-2.8-0.1-3c-0.6-0.2-1.1,1.6-1.2-1
	c-0.1-2.6,3.9-5.9,5.4-6.2c1.5-0.3,1-2.2,1.2-2.6c0.2-0.3,1.6-0.3,1.4-1.2c-0.2-0.9-1.4-1.2-0.5-2.1c0.9-0.9,1.2-2.4,0.4-3.1
	c-0.8-0.7-0.1-1.3-0.1-1.3c2.8-2.6-0.2-2.5-0.9-3c-0.7-0.5-0.1-0.9,0.6-1.5c0.6-0.6,4.6-5.6,2.1-5.9c-2.5-0.3-4.5,2.8-4.9,5.5
	c-0.3,2.7-4.1,9.3-9.3,18.6c-0.9,1.7-1.4,3.3-1.4,4.8c-15.6-8.8-30.6-14.3-45.2-17.3c1.4-2.1,3.1-4.1,5.3-5.6
	c8.1-5.7,24.7-13,19.5-28.1c-5.2-15.1-9.2-24.8-9-28.9c0.2-4.1-2-9.2-5.8-9.4c-3.8-0.2,0.8,8.1,1.6,9.2c0.7,1.1,1.5,1.9,0.4,2.4
	c-1.1,0.6-5.6-0.2-2.1,4.3c0,0,0.9,1.1-0.4,1.9c-1.4,0.8-1.3,3.1-0.2,4.7c1.1,1.5-0.7,1.6-1.3,2.9c-0.5,1.3,1.6,1.6,1.8,2.1
	c0.2,0.5-1,3.3,1.2,4.1c2.2,0.8,7.2,6.7,6.4,10.5c-0.7,3.8-1,1-2,1.2c-1,0.1,0,3.3-0.9,4.3c-0.9,1.1-1-1.2-1.7-0.9
	c-0.7,0.4-2.1,4.2-2.5,5.8c-0.4,1.6-0.8-2.6-2.2-2.3c-1.4,0.3-2.4,6.6-3.4,7.3c-1,0.6-1.5-1.9-2.3-1.8c-0.8,0.1-4.2,4-4.5,6.3
	c-0.3,2.3-1.4-1.5-0.4-3.9c0.9-2.4,10-19.9-3.2-30.4c-13.2-10.5-13.3-17.7-10.9-22c2.4-4.3,7-8.3,5.8-10.5c-1.1-2.2-2.5-0.8-2.5-0.8
	s1.4-5.8,0.1-7c-1.3-1.2-3.1,0.8-3.1,0.8s2-9.1-1.7-11.5c-3.7-2.4-7.1,0.3-5.7,5.4c1.4,5.1,7.6,10.8,5.6,11.9c-2,1.1-4.1-1.5-6-0.1
	c-1.9,1.4-1,5.4-1,5.4s-3.1-1.4-5.3,0.2c-2.2,1.6,1.2,6.5,2.7,8.1c1.6,1.6-1.5,2.1-0.6,4.3c0.9,2.2,5.8,3.1,5.9,4
	c0.1,0.9-2.7,2-2.3,3.1c0.4,1.2,6.7,2.5,6.4,3.2c-0.3,0.6-2.8,1.4-2.5,2.6c0.3,1.2,9.6,1.4,11.9,3.7c2.3,2.3,6.2,9.4,4.4,11.9
	c-1.8,2.5-3.7-0.1-4.9,1.1c-1.2,1.2-0.8,6.1-1.9,7.6c-1.1,1.5-1.1-1.9-2.2-1.2c-1.1,0.7-0.7,6.4-1.4,7.1c-0.7,0.7-1.2-2-2-1.3
	c-0.8,0.7-1.2,6.4-1.1,7.6c0.1,1.2-1.1-0.7-1.9,0.1c-0.7,0.8,0.2,5.7-1.1,6.4c-1.3,0.7-1.9-5.8-1.1-7.3c0.8-1.5-1.7-2.3-0.4-5.6
	c1.3-3.3-2.4-1.4-1.9-5.3c0.5-3.9-3.2-1.6-4.3-6.4c-1.1-4.9-3,0.1-5.6-2.1c-2.6-2.2-1.3-3.4-4.8-3.7c-3.5-0.3-0.7-6.5,0.7-7.5
	c1.4-1,3.5-5.9,2.2-8c-1.2-2-2.4,0.1-2.4,0.1s3.7-7.3,2.4-9c-1.3-1.8-2.5-0.6-2.5-0.6s2.4-9.2,0.2-10.3c-1.8-0.9-2.1,0.5-2.2,1.1
	c0.1-1.5,0.6-8.8-1.8-10.7c-2.7-2.1-2.8,1.4-2.8,1.4s-3.5-7.8-7.9-7.1s6.2,11.4,6.2,11.4s-1.8-0.2-2.8,0.5c-1.1,0.8,2,4.2,3.8,5.5
	c1.8,1.3-3.2,0.4,0.8,5.8c0,0,1.6,2.6-0.5,6.9c-2.1,4.3-6,17.5,2.8,27.1c5.5,6,11.4,16.3,14.4,25.5c-4.5,0.1-9,0.4-13.5,0.9
	c-1.2-0.7-1.5-2.3-1.6-3.7c-0.1-2,0-3-1.7-4.1s2.6-1.9,1.3-3.6c-1.3-1.7,1.9-3.1-0.1-4.8c-2-1.7,0.7-3.3-0.8-4.4
	c-1.5-1.1-7.7,5.7-6.8,9.9c0.3,1.5,1,3.4,1.9,5.5c0,0.9-0.4,1.7-1.8,1.9c-2,0.2-0.4,2.5-2.4,3.1c-1.2,0.4-1.1,1.4-1.3,2.2
	c-1.3,0.3-2.6,0.5-3.9,0.8c-0.8-6.9,1.9-17.8,5.2-23.9c4.1-7.6-0.5-15.6-2.5-18c-2-2.4-1.4-4.4-1.4-4.4c1.7-4.1-1.4-2.7-0.4-3.9
	c1-1.1,2.4-3.9,1.6-4.2c-0.8-0.3-1.9,0.1-1.9,0.1s5.2-8.6,2.2-8.3c-3,0.2-4,5.8-4,5.8s-0.6-2.2-2-0.5c-1.3,1.6,0.2,6.4,0.5,7.2
	c-0.1-0.4-0.6-1.3-1.6-0.4c-1.3,1.1,1.8,6.7,1.8,6.7s-0.9-0.6-1.5,0.8c-0.6,1.4,3,5.5,3,5.5s-1.1-1.2-1.6,0.3
	c-0.5,1.5,1.7,4.4,2.7,4.8c1,0.4,3.9,4,1.6,4.7c-2.2,0.7-1.2,1.3-2.6,3.1c-1.4,1.8-3.4-1.1-3.3,2.2c0.1,3.3-2.7,2.4-1.8,4.9
	c1,2.5-1.7,1.8-0.4,3.7c1.4,1.9-0.1,2.8,0.6,3.7c0.7,0.8,1.4,5.1,0.4,4.9c-1-0.2-1.1-3.5-1.7-3.9c-0.6-0.4-1.1,1-1.2,0.2
	c-0.1-0.8-1.3-4.4-2-4.8c-0.6-0.3-0.5,1.5-1.1,1.2c-0.6-0.4-1.2-4.1-2-4.4c-0.8-0.3-0.3,1.9-1.3,1.1c-1-0.8-1.5-4-2.4-4.6
	c-1-0.6-1.8,1.4-3.4,0.1c-1.6-1.4-0.2-6.6,0.9-8.4c1.1-1.8,7.1-3.4,7.1-4.3c0-0.8-1.8-0.9-2-1.3c-0.3-0.4,3.6-2.2,3.6-3.1
	c0.1-0.8-1.9-1.1-2-1.7c-0.1-0.6,3-1.9,3.2-3.5c0.2-1.6-1.8-1.4-1.1-2.7c0.7-1.3,2.1-5,0.5-5.7c-1.7-0.7-3.4,0.7-3.4,0.7
	s-0.1-2.7-1.5-3.3c-1.5-0.6-2.4,1.4-3.9,1c-1.5-0.4,1.6-5,1.7-8.6c0.1-3.5-2.5-4.7-4.5-2.6c-2,2.1,0.7,7.7,0.7,7.7s-1.4-1-2.1,0
	c-0.7,1,1.2,4.5,1.2,4.5s-1.1-0.7-1.5,0.9c-0.4,1.6,3.2,3.4,5.4,5.9c2.2,2.4,3.3,7.1-3.6,16c-6.9,8.9,1.8,18.8,2.7,20.2
	c1,1.4,0.9,4,0.3,2.6c-0.5-1.4-3.4-3.4-3.9-3.3c-0.5,0.1-0.5,1.8-1.2,1.6c-0.7-0.2-2.4-4.2-3.3-4.2c-1,0-0.6,2.8-1.1,1.8
	c-0.5-1-2.1-3.2-2.5-3.4c-0.5-0.1-0.2,1.4-0.9,0.8c-0.8-0.5-0.6-2.7-1.3-2.7c-0.7,0.1-0.4,1.9-1.5-0.4c-1.1-2.4,1.2-7,2.5-7.9
	c1.3-0.8,0-2.5,0.1-2.8c0.1-0.4,1.4-0.9,0.8-1.6c-0.6-0.8-1.7-0.5-1.3-1.7c0.4-1.2,0.1-2.7-0.9-3c-1-0.3-0.6-1.1-0.6-1.1
	c1.5-3.5-1.2-2.2-2-2.4c-0.8-0.2-0.4-0.8-0.1-1.6c0.3-0.8,2-6.9-0.5-6.2c-2.4,0.7-3,4.4-2.3,7c0.8,2.7-0.1,10.1-1.1,20.7
	c-1,10.6,10.7,12.1,16.9,14.5c3.1,1.2,5.5,3.7,7.1,5.8c-12,3.7-23.9,8.5-35.9,14c-0.6-2.6-1.7-5-3.3-6.9c-7.1-8.8,0.7-17.1,0.7-17.1
	s5.9-7.1,0.9-16.5c-5.1-9.4,3.2-17.9,3.2-17.9c-16.6,5.1-11.1,15.7-10.3,18.5c0.8,2.8,2.3,7.7-9.4,16.9c-2.4,1.9-3.8,4-4.7,6.3
	c-0.1-0.1-0.3-0.2-0.4-0.3c-11-6.8-5.8-18.8-5.8-18.8s3.7-10-5.4-18.2c-9.1-8.3-3.5-20.7-3.5-20.7c-16.1,11.9-6,21.3-4.1,24.1
	c1.9,2.7,5.3,7.3-3.2,21.2c-0.7-0.6-1.5-1.1-2.2-1.5c-12.3-6.8-9.6-23.4-9.6-23.4s1.6-13.8-9-22.8c-10.6-9-7.7-26.4-7.7-26.4
	c-13.3,18.8-1.5,29.1,0.9,32.3c2.4,3.2,6.9,8.7,0.9,29.5c-3.1,10.5,0.3,19.4,5.2,27.1c-10.3-2.6-10.9-13.7-10.9-13.7
	s-1.1-10.6-12.9-13.9c-11.8-3.3-12.3-17-12.3-17c-9.1,17.9,4.1,21.8,7.1,23.4c2.9,1.6,8.3,4.3,6.5,21.4c-0.7,6.8,2.2,11.7,6.4,15.4
	c-7.2-1.7-9.3-9.2-9.3-9.2s-3-8.7-13.6-9.3c-10.7-0.5-13.7-12-13.7-12c-4.2,16.9,7.7,17.6,10.5,18.4c2.8,0.8,7.8,2,9.6,16.8
	c1.8,14.8,20.2,14.9,29,17.9c4.9,1.7,7,5.2,7.8,8c-28.9,14.7-59.4,28.9-92.9,37.4c-47.7,12-95.5,5.4-140.2-11.5c0-0.4,0-0.8,0-1.1
	c0.8-2,5.3-11.4,14.7-13.3c2.5-0.5,4.6-1.3,6.6-2.4c0.4-0.1,0.8-0.4,1.1-0.7c2.9-1.9,5.2-4.4,7.1-7.5c2,0.5,9.5,1.7,15.4-4.4
	c1-1,1-2.7-0.1-3.7c-1-1-2.7-1-3.7,0c-3.1,3.2-7,3.3-9.1,3.1c0.7-1.7,1.4-3.4,2.1-5.2c0.5-1.4-0.2-2.9-1.6-3.4
	c-1.4-0.5-2.9,0.2-3.4,1.6c-2.6,7.3-5.2,11.7-8.7,14.4c-1.1-0.8-2.6-2.2-4.3-4.1c1.7-2.4,4.6-7.1,7-15.6c0.4-1.4-0.4-2.9-1.8-3.3
	c-1.4-0.4-2.9,0.4-3.3,1.8c-1.8,6.1-3.7,10.1-5.1,12.4c-0.7-1.3-1.4-2.8-2-4.4c-0.5-1.4-2-2.1-3.3-1.7c-1.4,0.5-2.1,2-1.7,3.3
	c2.3,6.8,6.3,11.4,9.3,14.1c-0.5,0.2-1.1,0.3-1.7,0.4c-7,1.4-11.7,5.9-14.7,9.9c-0.3-1.2-0.7-2.5-1.2-3.6c-0.7-1.7-1.8-3.2-2.8-4.7
	c-3-4.5-5.9-8.8-2.3-18c0.5-1.4-0.2-2.9-1.5-3.4c-1.4-0.5-2.9,0.1-3.4,1.5c-2.1,5.5-2.3,9.8-1.6,13.4c-3.1-0.8-7.5-2.5-11-6.7
	c-0.9-1.1-2.6-1.3-3.7-0.3c-1.1,0.9-1.3,2.6-0.3,3.7c3.2,3.8,7.1,6.1,10.4,7.4c2.9,1.1,5.3,1.5,6.8,1.7c0.7,1.4,1.6,2.6,2.3,3.8
	c0.9,1.4,1.8,2.7,2.3,3.9c1.2,2.7,1.7,5.9,1.8,9.2c-16.5-6.5-32.5-14.5-47.8-23.3c1.5-2.3,3.3-5.9,4.8-11.1
	c5.3-2.5,25.1-11.3,43.5-10.3c0.5,0,0.9,0,1.3,0c24.1,0.4,35.2-26.6,35.6-27.8c0.8-1.9-0.2-4.1-2.1-4.9c-1.9-0.8-4.1,0.2-4.9,2.1
	c-0.1,0.2-4.5,11-13.4,17.8c-0.8-2-3.2-9-1.1-18.7c0.4-2-0.9-4-2.9-4.4c-2-0.4-4,0.9-4.4,2.9c-2.8,13.1,1.1,22.3,1.9,24
	c-2.6,1-5.5,1.7-8.7,1.6c-0.3,0-0.6,0-1,0c-16.2-0.9-32.8,4.8-41.9,8.6c0.1-0.6,0.2-1.3,0.3-2c0.3-2,0.8-3.9,1.4-5.9
	c3-0.8,8.8-2.7,15.1-5.9c2.4,0.9,7.1,2.3,12.2,2.3c1.1,0,2.2,0,3.3-0.1c2-0.2,3.5-2.1,3.3-4.1c-0.2-2.1-2.1-3.5-4.1-3.3
	c-1.9,0.2-3.9,0.1-5.7-0.2c5.1-3.7,9.9-8.3,13.1-14.2c1-1.8,0.3-4.1-1.5-5.1c-1.8-1-4.1-0.4-5.1,1.5c-6,10.8-18.8,17.1-27,20.1
	c4.2-8.4,9.6-15.1,11.9-17.7c4.5-0.8,10.2-5.5,18.1-14.9c6.7-7.8,12.3-15.9,12.6-16.3c1.2-1.7,0.8-4-0.9-5.2c-1.7-1.2-4-0.8-5.2,0.9
	c-9.9,14.2-21.5,26.9-25.4,28c-0.2,0-0.4-0.1-0.6-0.1c-4.4-2.2-5.9-4-6.3-4.4c1.4-2.8,2.4-5.8,3.1-9.2c3-0.4,13.4-2.5,18.2-13.4
	c0.8-1.9,0-4.1-1.9-4.9c-1.9-0.8-4.1,0-4.9,1.9c-2.6,5.8-7.5,7.9-10.5,8.6c0.2-2.5,0.2-5.2,0.2-8c0-2.1-1.7-3.7-3.8-3.7
	c-2.1,0-3.7,1.7-3.7,3.8c0.1,10.9-1.2,18.1-4.5,23.4c-1.8-0.6-4.6-1.6-7.7-3.3c1.2-4,2.6-11.7,1.6-24.2c-0.2-2.1-2-3.6-4-3.4
	c-2.1,0.2-3.6,2-3.4,4c0.7,9,0,15.2-0.7,18.9c-1.6-1.4-3.2-3-4.8-4.9c-1.3-1.6-3.6-1.9-5.3-0.6c-1.6,1.3-1.9,3.6-0.6,5.3
	c6.3,7.9,13.9,12,19.2,14.1c-0.6,0.5-1.3,0.9-2,1.4c-8.6,5.3-12.7,13.6-14.7,20.3c-1-1.5-2.2-2.9-3.4-4.2c-1.8-1.9-3.9-3.4-6-4.9
	c-6.2-4.5-12.1-8.8-11.9-22.8c0-2.1-1.6-3.8-3.7-3.8c-2.1,0-3.8,1.6-3.8,3.7c-0.1,8.4,1.7,14.2,4.4,18.5c-4.4,0.5-11.3,0.3-17.9-3.5
	c-1.8-1-4.1-0.4-5.1,1.4c-1,1.8-0.4,4.1,1.4,5.1c6.2,3.5,12.4,4.6,17.4,4.7c4.4,0.1,7.8-0.6,9.8-1.1c1.7,1.5,3.4,2.7,4.9,3.8
	c1.9,1.4,3.7,2.7,5,4.1c3,3.2,5.4,7.2,7.1,11.7c0,0.1,0.1,0.3,0.2,0.4c2.5,6.5,3.9,14,4.7,21.1c-24.5-15.1-47.3-32.5-67.5-50.2
	c1.9-6.7,3.3-14.3,3.2-21.5c1-2.3,6.4-13.6,17.6-15.9c3-0.6,5.6-1.6,7.9-2.8c0.4-0.1,0.8-0.4,1.2-0.7c3.6-2.2,6.3-5.3,8.6-9
	c2.5,0.6,11.4,1.9,18.4-5.2c1.2-1.2,1.2-3.2-0.1-4.5c-1.2-1.2-3.2-1.2-4.5,0.1c-3.7,3.8-8.3,4-10.8,3.8c0.9-2,1.7-4.1,2.5-6.3
	c0.6-1.6-0.3-3.5-1.9-4c-1.6-0.6-3.4,0.3-4,1.9c-3.1,8.7-6.2,14-10.4,17.2c-1.3-1-3.2-2.6-5.1-4.9c2.1-2.8,5.5-8.5,8.4-18.6
	c0.5-1.7-0.5-3.4-2.2-3.9c-1.7-0.5-3.4,0.5-3.9,2.2c-2.1,7.3-4.4,12-6.1,14.8c-0.9-1.6-1.7-3.4-2.3-5.3c-0.6-1.7-2.3-2.5-4-2
	c-1.7,0.6-2.5,2.3-2,4c2.7,8.1,7.5,13.6,11.1,16.8c-0.6,0.2-1.3,0.4-2,0.5c-8.3,1.7-14,7-17.6,11.8c-0.4-1.5-0.9-2.9-1.5-4.3
	c-0.9-2-2.1-3.9-3.3-5.7c-3.6-5.4-7-10.5-2.7-21.5c0.6-1.6-0.2-3.4-1.8-4.1c-1.6-0.6-3.5,0.2-4.1,1.8c-2.5,6.6-2.8,11.8-1.9,16
	c-3.7-0.9-9-3-13.2-8c-1.1-1.3-3.1-1.5-4.4-0.4c-1.3,1.1-1.5,3.1-0.4,4.4c3.9,4.6,8.4,7.3,12.4,8.8c3.4,1.3,6.4,1.8,8.1,2
	c0.9,1.7,1.9,3.1,2.8,4.5c1.1,1.6,2.1,3.2,2.8,4.7c1.5,3.4,2.1,7.3,2.2,11.5c0,0.1,0,0.1,0,0.2c0.1,5.6-0.9,11.6-2.3,17.2
	c-19.1-17.3-35.9-34.8-49.5-50.8c-16.4-19.4-30.6-35.2-44.4-48.3c2.3-2.9,8-9,15.4-10.4c9.7-2,27.9-2,29.1-18
	c1.2-15.9,1.4-26.4,3.3-30.1c1.8-3.7,1.9-9.2-1.6-10.9c-3.4-1.7-2.5,7.7-2.3,9c0.2,1.3,0.7,2.3-0.6,2.4c-1.2,0.1-5-2.4-3.6,3.1
	c0,0,0.4,1.3-1.1,1.5c-1.6,0.2-2.4,2.4-2.1,4.2c0.4,1.8-1.3,1.2-2.3,2.2c-1,1,0.8,2.1,0.8,2.6c0,0.6-2.3,2.6-0.6,4.2
	c1.7,1.6,3.9,9,1.7,12.2c-2.2,3.2-1.3,0.6-2.3,0.3c-1-0.3-1.3,3-2.6,3.6c-1.3,0.6-0.4-1.5-1.2-1.5c-0.7,0.1-3.6,3-4.6,4.3
	c-1,1.3,0.3-2.7-1.1-3c-1.4-0.3-4.8,5.1-6,5.3c-1.2,0.2-0.6-2.3-1.4-2.6c-0.8-0.3-5.4,1.9-6.6,3.9c-1.2,2-0.7-1.9,1.1-3.7
	c1.8-1.8,17.1-14.2,9.2-29.1c-7.9-14.9-5.2-21.5-1.2-24.5c3.9-3,9.7-4.8,9.5-7.3c-0.2-2.4-2-1.7-2-1.7s3.6-4.8,2.9-6.4
	c-0.7-1.6-3.1-0.5-3.1-0.5s5.5-7.6,3.1-11.2c-2.4-3.7-6.6-2.6-7.4,2.6c-0.7,5.3,2.6,12.9,0.3,13.1c-2.3,0.2-3.2-3-5.5-2.5
	c-2.3,0.5-3.1,4.5-3.1,4.5s-2.3-2.5-4.9-1.9c-2.6,0.6-1.5,6.4-0.8,8.6c0.8,2.1-2.2,1.3-2.3,3.7c-0.1,2.4,4.1,5.2,3.8,6
	c-0.3,0.8-3.2,0.7-3.3,2c-0.1,1.2,5.1,5,4.6,5.4c-0.5,0.5-3.1,0.1-3.3,1.4c-0.2,1.3,8.2,5.1,9.4,8.1c1.2,3,1.9,11.1-0.8,12.7
	c-2.7,1.6-3.4-1.5-5-1c-1.6,0.6-3.2,5.3-4.8,6.2c-1.6,0.9-0.3-2.2-1.6-2c-1.3,0.2-3.2,5.6-4.1,6c-0.9,0.4-0.3-2.4-1.3-2
	c-1,0.3-3.7,5.4-4.1,6.5c-0.4,1.2-0.8-1.1-1.7-0.6c-1,0.4-2.1,5.3-3.5,5.4c-1.5,0.1,0.6-6.1,1.9-7.1c1.3-1.1-0.6-2.8,1.9-5.3
	c2.5-2.5-1.6-2.2,0.4-5.6c2-3.4-2.3-2.7-1.4-7.6c0.9-4.9-2.8-1.1-4.3-4.2c-1.6-3,0.2-3.6-3-5.3c-3.1-1.6,2-6.2,3.6-6.6
	s5.5-4,5.2-6.4c-0.3-2.4-2.2-0.9-2.2-0.9s6.3-5.2,5.8-7.3c-0.5-2.1-2-1.5-2-1.5s5.9-7.5,4.3-9.4c-1.3-1.5-2.2-0.4-2.5,0.1
	c0.7-1.3,4.1-7.8,2.6-10.5c-1.6-3-3.1,0.2-3.1,0.2s-0.1-8.6-4.4-9.7c-4.3-1.1,1.1,12.9,1.1,12.9s-1.5-0.9-2.8-0.7
	c-1.3,0.3,0.2,4.7,1.3,6.6c1.1,1.9-3.1-0.9-1.6,5.6c0,0,0.4,3-3.2,6.1c-3.6,3.1-12.5,13.6-8.3,26c3.1,9.3,4.5,24.7,2.1,34.8
	c-2.9-2.2-5.7-4.4-8.6-6.4c0-1.1,0.2-2.3-1.4-2.7c-2.9-0.8-2.4-3.2-1.7-5.1c0.7-1.9,1.2-2.7,0.1-4.4c-1.1-1.7,3.1-0.7,2.6-2.8
	c-0.5-2.1,2.9-2.1,1.8-4.4c-1.1-2.3,2-2.8,1-4.4c-0.9-1.6-9.3,2.1-10.2,6.3c-0.3,1.5-0.5,3.6-0.5,5.9c-0.4,0.8-1.1,1.4-2.4,1
	c-1.7-0.6-1.5,1.5-2.8,1.8c-1.7-1-3.4-1.9-5.1-2.9c2.9-6,8.4-12.6,12.9-16.2c6.8-5.3,5.8-14.4,4.9-17.5c-0.9-3,0.4-4.6,0.4-4.6
	c3.2-3.1-0.1-3.1,1.2-3.7c1.3-0.7,3.7-2.6,3.1-3.2c-0.6-0.6-1.8-0.7-1.8-0.7s8.2-5.8,5.3-6.8s-6,3.7-6,3.7s0.4-2.3-1.7-1.2
	c-1.8,1-2.3,6-2.4,6.9c0-0.4,0-1.4-1.3-1c-1.6,0.5-1.1,6.8-1.1,6.8s-0.6-0.9-1.7,0.1c-1.1,1,0.6,6.2,0.6,6.2s-0.5-1.5-1.6-0.3
	c-1,1.2-0.2,4.7,0.6,5.5c0.8,0.8,2,5.2-0.4,5c-2.3-0.2-1.6,0.7-3.6,1.8c-2,1.1-2.7-2.3-3.9,0.7c-1.3,3.1-3.4,1.1-3.6,3.7
	c-0.1,2.6-2.3,1-1.8,3.3c0.5,2.3-1.2,2.6-0.9,3.6s-0.7,5.2-1.5,4.7c-0.8-0.6,0.4-3.7,0-4.3c-0.4-0.6-1.4,0.5-1.2-0.3
	c0.2-0.8,0.5-4.6,0.1-5.1c-0.4-0.6-1.1,1.2-1.5,0.6c-0.4-0.5,0.6-4.3-0.1-4.8c-0.7-0.6-1,1.6-1.6,0.5c-0.6-1.1,0.3-4.3-0.4-5.2
	c-0.7-0.9-2.2,0.6-3.1-1.3c-0.9-1.9,2.5-6.1,4.2-7.3c1.7-1.2,7.9-0.3,8.2-1.1c0.3-0.8-1.2-1.6-1.4-2c-0.1-0.4,4.2-0.6,4.6-1.3
	c0.4-0.7-1.3-1.8-1.1-2.3c0.1-0.6,3.5-0.6,4.3-1.9c0.8-1.4-1.1-2,0.1-2.9c1.2-0.9,4-3.8,2.7-5c-1.3-1.3-3.4-0.7-3.4-0.7s1-2.5,0-3.6
	c-1.1-1.1-2.8,0.3-4-0.6c-1.2-0.9,3.5-4,5-7.2c1.5-3.2-0.4-5.3-3.1-4.2c-2.7,1.2-2.4,7.4-2.4,7.4s-0.9-1.5-1.9-0.9
	c-1,0.6-0.7,4.6-0.7,4.6s-0.7-1.1-1.7,0.2c-1,1.3,1.5,4.4,2.6,7.5c1.1,3.1,0.2,7.8-9.7,13.2c-9.9,5.4-5.9,17.9-5.6,19.6
	c0.3,1.7-0.8,4-0.7,2.5c0.1-1.5-1.7-4.5-2.2-4.6c-0.5-0.1-1.2,1.5-1.7,0.9c-0.6-0.5-0.5-4.8-1.4-5.2c-0.9-0.4-1.7,2.4-1.7,1.3
	c-0.1-1.1-0.6-3.8-1-4.1c-0.4-0.3-0.7,1.2-1.2,0.4c-0.5-0.8,0.5-2.8-0.1-3c-0.6-0.2-1.1,1.6-1.2-1c-0.1-2.6,3.9-5.9,5.4-6.2
	c1.5-0.3,1-2.2,1.2-2.6c0.2-0.3,1.6-0.3,1.4-1.2c-0.2-0.9-1.4-1.2-0.5-2.1c0.9-0.9,1.2-2.4,0.4-3.1c-0.8-0.7-0.1-1.3-0.1-1.3
	c2.8-2.6-0.2-2.5-0.9-3c-0.7-0.5-0.1-0.9,0.6-1.5c0.6-0.6,4.6-5.6,2.1-5.9c-2.5-0.3-4.5,2.8-4.9,5.5c-0.3,2.7-4.1,9.3-9.3,18.6
	c-3.3,6-0.3,10.7,3.5,14.5c-22.3-8.3-49.1-14.7-84.2-20.8c-108.6-19.1-150-131.9-150-131.9L-0.5,233.5l1,658.5l1919.5-0.1V217.8
	C1920,217.8,1765,316.2,1707.9,392.9z M616.3,544.7L616.3,544.7C616.2,544.7,616.2,544.7,616.3,544.7
	C616.3,544.6,616.3,544.7,616.3,544.7z M604.8,556.7c2.9-1.8,5.2-3.7,7.1-5.9c1,0.9,2.5,2,4.4,3.2c-4,4.9-10.4,14-14.1,24.6
	c-0.1,0.1-0.1,0.3-0.2,0.5c-1,2.9-1.8,5.8-2.2,8.9c-0.9,5.9-2.1,10.3-3.3,13.5c-0.8-6.7-2.3-13.6-4.7-19.9
	C591.9,578.6,593.2,563.9,604.8,556.7z M1565.6,550.5L1565.6,550.5C1565.6,550.6,1565.5,550.5,1565.6,550.5
	C1565.5,550.5,1565.6,550.5,1565.6,550.5z M1567,567.1c0.6-3.3,0.7-6.4,0.3-9.2c1.4-0.1,3.2-0.5,5.3-1.2c1.1,6.3,3.6,17.1,9,26.9
	c0.1,0.2,0.2,0.3,0.2,0.4c1.5,2.6,3.2,5.2,5.2,7.5c3.8,4.6,6.3,8.4,7.9,11.5c-5.6-3.8-11.7-7.3-18-9.7
	C1574.8,591.3,1564.7,580.5,1567,567.1z"/>
</svg>
