<?xml version="1.0" encoding="utf-8"?>
<!-- Generator: Adobe Illustrator 22.0.1, SVG Export Plug-In . SVG Version: 6.00 Build 0)  -->
<svg version="1.1" id="Layer_1" xmlns="http://www.w3.org/2000/svg" xmlns:xlink="http://www.w3.org/1999/xlink" x="0px" y="0px"
	 viewBox="0 0 1920 891" style="enable-background:new 0 0 1920 891;" xml:space="preserve">
<g>
	<path d="M-0.2,82.8c0,0,55,197,59.3,245.6c4.3,48.5-26,191.9-16.9,261c9.2,69.2-0.3,138.1,41.1,176.2c41.5,38.1,123,99.7,197,103.6
		c73.9,4,356.5-9.5,397.5-3.4c41,6.1,248,25.8,248,25.8H-0.2V82.8z"/>
	<path d="M1919.9,389.1c0,0-45.7,148.8-46.9,166c-1.3,17.2,8,52.7,11.5,60.8c3.5,8.1,23,53.3,16.6,56.7c-6.4,3.4-23,57.2-23,57.2
		l3.3,66.8l-22.5,32.5l-147.4,36.6L1096,892.3h824V389.1z"/>
</g>
</svg>
