<?xml version="1.0" encoding="utf-8"?>
<!-- Generator: Adobe Illustrator 22.0.1, SVG Export Plug-In . SVG Version: 6.00 Build 0)  -->
<svg version="1.1" id="Layer_1" xmlns="http://www.w3.org/2000/svg" xmlns:xlink="http://www.w3.org/1999/xlink" x="0px" y="0px"
	 viewBox="0 0 118.3 109" style="enable-background:new 0 0 118.3 109;" xml:space="preserve">
<style type="text/css">
	.st0{fill:#FFFFFF;stroke:#231F20;stroke-width:0.25;stroke-linecap:round;stroke-linejoin:round;stroke-miterlimit:10;}
	.st1{fill:none;stroke:#231F20;stroke-width:0.25;stroke-linecap:round;stroke-linejoin:round;stroke-miterlimit:10;}
	.st2{fill:#FFFFFF;stroke:#010101;stroke-width:0.1;stroke-linecap:round;stroke-linejoin:round;stroke-miterlimit:10;}
	.st3{fill:none;stroke:#010101;stroke-width:0.1;stroke-linecap:round;stroke-linejoin:round;stroke-miterlimit:10;}
	.st4{fill:#010101;}
	.st5{fill:#FFFFFF;}
	.st6{fill:none;stroke:#FFFFFF;stroke-width:0.25;stroke-linecap:round;stroke-linejoin:round;stroke-miterlimit:10;}
	.st7{fill:none;stroke:#010101;stroke-width:0.25;stroke-linecap:round;stroke-linejoin:round;stroke-miterlimit:10;}
</style>
<g>
	<path class="st0" d="M22,76.1c0,0-16.8,21.1-17.4,22.2s-1.1,2.4-1.1,3.8c0,1.4-0.6,1.9,0.5,1.4s14.8-5.2,24.6,0.2
		c4.5,0.7,4.9,0.8,4.9,0.8s1-1.5,3.5-1.5s13.9,0.4,22.4,4.8C63.1,101,76,83.4,76,83.4s-0.7-0.6-0.7-1.5s-0.2-2-0.2-2.3
		c0-0.3-0.1-1.6-0.1-1.6s-11.7-3.9-27.3-1.9C44.4,75.5,34.9,72.3,22,76.1z"/>
	<path class="st1" d="M31.3,104.2c-0.3-0.8-0.2-1.7,0.1-2.4c0.3-0.8,0.8-1.4,1.3-2.1C35.4,95.9,37.9,92,40,88"/>
	<path class="st1" d="M4.2,99.1c2.2-0.9,4.6-1.4,7-1.7c2-0.2,4-0.3,6-0.3c2.5,0,5.1,0.1,7.5,0.7c2.5,0.6,4.9,1.7,6.6,3.6"/>
	<path class="st1" d="M31.5,101.5c0.6-0.8,1.3-1.5,2.1-2.1c0.8-0.5,1.7-0.7,2.6-0.9c2.4-0.5,4.9-0.3,7.3,0.2
		c2.4,0.5,4.7,1.3,7.1,2.1c2.4,0.9,4.9,1.7,7.3,2.6"/>
	<path class="st1" d="M57.7,103.4c2-2.8,3.9-5.6,5.9-8.4c1.3-1.8,2.6-3.7,3.8-5.5c0.9-1.2,1.7-2.5,2.6-3.7c1.7-2.4,3.2-5.3,4.9-7.7"
		/>
	<g>
		<path class="st2" d="M30.3,94.3c-0.2,0.2-0.5,0.4-0.8,0.4c-0.4,0.1-0.9-0.1-1.2-0.5c-0.1-0.2-0.2-0.4-0.3-0.7
			c-0.1-0.4-0.2-0.8-0.1-1.2c0-0.2,0.1-0.4,0.2-0.5c0.1-0.2,0.2-0.3,0.3-0.5c0.1-0.1,0.3-0.2,0.5-0.3c0.2-0.1,0.5-0.1,0.7,0
			c0.1,0.1,0.1,0.1,0.2,0.2c0.2,0.2,0.4,0.5,0.6,0.7c0,0,0.1,0.1,0.1,0.2c0,0.1,0,0.2,0,0.3c0,0.2,0,0.4,0.1,0.5
			c0,0.1,0.1,0.4,0.1,0.5C30.7,93.8,30.5,94.1,30.3,94.3z"/>
		<path class="st2" d="M37.7,92.5c0-0.6,0.1-1.1,0.1-1.7c0-0.5,0.1-0.9,0.1-1.4c0,0,0-0.1,0-0.1c0,0,0.1,0,0.1,0
			c1.7,0.2,3.4,0.5,4.8,1.4c0.2,0.1,0.3,0.2,0.5,0.3c0.2,0.2,0.3,0.4,0.4,0.6c0.3,0.7,0.4,1.5,0.1,2.2c-0.2,0.4-0.6,0.7-1,1
			s-0.8,0.4-1.3,0.6c-0.2,0.1-0.4,0.1-0.6,0.2c-0.4,0.1-0.8,0.1-1.1,0.1c-0.4,0-0.7,0-1.1,0c-0.2,0-0.4,0-0.5,0c-0.1,0-0.4,0-0.5,0
			c-0.2-0.1-0.1-0.7-0.1-0.9c0-0.4,0-0.7,0-1.1C37.7,93.3,37.7,92.9,37.7,92.5z"/>
		<path class="st3" d="M41.2,92.7c0.1-0.3,0.2-0.6,0.1-0.9c-0.1-0.4-0.5-0.6-0.9-0.7C40.2,91,40.1,91,39.9,91
			c-0.3,0-0.5,0.1-0.7,0.3S39,91.7,39.1,92c0,0.3,0.2,0.5,0.3,0.7c0.1,0.1,0.2,0.3,0.4,0.4c0.2,0.1,0.6,0.2,0.8,0.1
			C40.8,93,41.1,93,41.2,92.7z"/>
		<path class="st4" d="M40.1,92.2c0.1,0,0.2,0,0.3-0.1c0.1-0.1,0.1-0.2,0-0.2c-0.1-0.1-0.2-0.1-0.3-0.1c0,0,0,0-0.1,0c0,0,0,0,0,0
			C40,91.9,40,92.1,40.1,92.2c0,0,0.1,0,0.2,0"/>
		<path class="st2" d="M35.5,95.3c-0.8-0.2-1.7-0.4-2.5-0.7c-0.8-0.3-1.5-0.8-2.3-1.2c-0.2-0.1-0.3-0.2-0.4-0.4
			c-0.1-0.2,0-0.4,0.1-0.6c0.1-0.2,0.3-0.3,0.4-0.4c0.7-0.5,1.4-0.9,2.1-1.3c0.6-0.3,1.2-0.7,1.8-0.9c1-0.4,2.1-0.6,3.1-0.5
			c-0.2,0.4-0.1,0.8,0,1.2c0,0.3,0,0.6-0.1,0.9c-0.1,1.2,0,2.3-0.2,3.5c0,0.2-0.1,0.4,0,0.6c0,0.2,0,0.3-0.2,0.3
			c-0.2,0-0.4,0-0.6-0.1C36.3,95.5,35.9,95.4,35.5,95.3z"/>
		<path class="st2" d="M32.3,94.9c-0.1,0-0.2,0-0.2,0c-0.1,0-0.1-0.1-0.2-0.1c0,0,0,0-0.1-0.1c0,0,0-0.1,0-0.1c0-0.1,0-0.2,0-0.3
			c0.1-0.1,0.2-0.2,0.3-0.2c0.2,0,0.6,0.2,0.7,0.3C32.9,94.8,32.4,94.9,32.3,94.9z"/>
		<path class="st2" d="M36.1,95.9c-0.2,0.1-0.3,0.1-0.5,0.1c-0.1,0-0.1,0.1-0.2,0.1c-0.1,0-0.2,0-0.2-0.1c0,0,0-0.1-0.1-0.1
			c0-0.1,0-0.3,0.1-0.4c0.1-0.1,0.3-0.1,0.5-0.1c0.2,0,0.6,0,0.8,0.1C36.6,95.6,36.2,95.8,36.1,95.9z"/>
		<path class="st2" d="M33.7,89.5c-0.2-0.1-0.4-0.1-0.6-0.2c-0.3,0-0.6-0.1-0.8-0.1c-0.1,0-0.3,0-0.4,0.1c0,0-0.1,0.1-0.1,0.1
			c0,0,0,0.1,0,0.1c0,0.4,0.2,0.8,0.5,1.1c0.1,0.1,0.2,0.2,0.4,0.1c0,0,0.1,0,0.1-0.1c0.3-0.2,0.7-0.4,1-0.5
			c0.1-0.1,0.3-0.1,0.3-0.3C34.1,89.7,33.9,89.6,33.7,89.5z"/>
		<path class="st2" d="M30.7,90.8c-0.1,0-0.1,0-0.2,0c-0.1,0.1-0.1,0.2-0.1,0.3c0,0.2,0.1,0.3,0.2,0.5c0.1,0.1,0.3,0.2,0.4,0.2
			c0,0,0.1,0,0.1,0c-0.1,0,0,0,0.1,0c0.1-0.1,0.7-0.4,0.4-0.6C31.5,90.9,31,90.8,30.7,90.8z"/>
		<path class="st3" d="M37.3,94.4c-0.2-0.1-0.4-0.3-0.5-0.5c0,0,0-0.1,0-0.1c0,0,0-0.1,0-0.1c0.1-0.1,0.1-0.1,0.2-0.2
			c0.1-0.1,0.2-0.1,0.2-0.1"/>
		<path class="st3" d="M35.9,93.2c-0.2,0-0.3,0.1-0.5,0.2c0,0-0.1,0.1-0.1,0.1c0,0,0,0.1,0,0.1c0,0.1,0,0.2,0.1,0.3
			c0.1,0.1,0.3,0.3,0.5,0.2c0.2-0.1,0.3-0.3,0.6-0.2"/>
		<path class="st3" d="M35.1,93.7c-0.1,0-0.2-0.1-0.3-0.1c-0.1-0.1-0.2-0.1-0.2-0.2c0-0.1,0-0.1,0-0.2c0-0.1,0-0.3,0.1-0.4
			c0.1-0.1,0.2-0.2,0.4-0.2"/>
		<path class="st3" d="M34.7,95c-0.1,0-0.3-0.2-0.3-0.3c0-0.1,0-0.3,0.1-0.4c0.1-0.1,0.2-0.2,0.3-0.2c0.1,0,0.1-0.1,0.2-0.1
			c0.1,0,0.2,0,0.3,0"/>
		<path class="st3" d="M36.5,95.1c-0.1-0.1-0.2-0.2-0.3-0.3c0,0-0.1-0.1-0.1-0.1c-0.1,0-0.2,0-0.3,0c-0.1,0-0.2,0-0.3,0.1
			c-0.1,0.1-0.2,0.2-0.1,0.3"/>
		<path class="st3" d="M36.7,95.4c0-0.1,0-0.3,0-0.4c0-0.2,0.2-0.4,0.4-0.5"/>
		<path class="st3" d="M34.1,94.5c-0.1,0-0.2,0-0.2-0.1c-0.1-0.1-0.2-0.2-0.2-0.3c0-0.1,0-0.3,0-0.4c0.1-0.1,0.2-0.2,0.4-0.3
			c0.1-0.1,0.3-0.1,0.4-0.1"/>
		<path class="st3" d="M33.4,93.8c-0.1,0-0.2-0.1-0.3-0.2c-0.1-0.1-0.1-0.1-0.1-0.2c0-0.1,0.1-0.2,0.1-0.3c0.1-0.1,0.3-0.2,0.5-0.3"
			/>
		<path class="st3" d="M34.2,93.1C34.1,93,34,92.9,34,92.8c0-0.1-0.1-0.2,0-0.3c0-0.1,0.1-0.2,0.2-0.2c0.1-0.1,0.1-0.1,0.2-0.2
			c0.2-0.1,0.3,0,0.5,0"/>
		<path class="st3" d="M35.2,92.1c-0.1,0-0.2-0.2-0.2-0.3c0-0.1,0.1-0.3,0.2-0.3c0.1-0.1,0.3-0.1,0.4-0.1"/>
		<path class="st3" d="M35.9,91.6c-0.1-0.1-0.1-0.2-0.1-0.4S36,91,36.1,91c0.1,0,0.2,0,0.3,0"/>
		<path class="st3" d="M37.3,91.5c-0.1-0.2-0.1-0.4,0-0.5c0.1-0.1,0.1-0.1,0.2-0.2"/>
		<path class="st3" d="M36.8,91.1c-0.1-0.1-0.2-0.1-0.3-0.2c-0.1-0.1,0-0.3,0.1-0.4c0.1-0.1,0.2-0.1,0.4-0.2"/>
		<path class="st3" d="M37.4,90.5c-0.1,0-0.1-0.1-0.2-0.2c0-0.1,0-0.2,0-0.2c0-0.1,0-0.2,0-0.2c0.1-0.1,0.2-0.2,0.3-0.2"/>
		<path class="st3" d="M34.4,91.8c0-0.1-0.1-0.3-0.1-0.4c0-0.2,0-0.4,0.1-0.5c0.1-0.1,0.3-0.2,0.5-0.2"/>
		<path class="st3" d="M35.3,91.1c-0.1,0-0.1-0.1-0.2-0.1c0,0-0.1-0.1-0.1-0.1c0-0.1,0-0.2,0-0.3c0-0.1,0.1-0.2,0.2-0.3
			c0.1-0.1,0.2-0.1,0.3-0.1"/>
		<path class="st3" d="M36,90.5c-0.1-0.1-0.2-0.1-0.3-0.2c0,0,0-0.1,0-0.2c0-0.3,0.2-0.5,0.5-0.5"/>
		<path class="st3" d="M36.9,89.9c-0.1,0-0.2-0.1-0.2-0.2c0-0.1,0-0.2,0-0.3"/>
		<path class="st3" d="M33.6,92.6c0-0.1-0.1-0.1-0.1-0.2c-0.1-0.1-0.1-0.2-0.1-0.3c0-0.2,0.1-0.3,0.2-0.4c0.1-0.1,0.3-0.1,0.4-0.2"
			/>
		<path class="st3" d="M32.8,93.5c-0.1,0-0.3-0.1-0.3-0.2c-0.1-0.1-0.1-0.2-0.1-0.4c0-0.1,0.1-0.2,0.1-0.3c0.2-0.2,0.4-0.4,0.6-0.4"
			/>
		<path class="st3" d="M32.5,94.2c0-0.2,0.2-0.4,0.4-0.4c0,0,0.1,0,0.1,0c0,0,0.1,0,0.1,0.1c0.1,0.1,0.1,0.1,0.1,0.2"/>
		<path class="st3" d="M31.8,93.8c0-0.1,0-0.3,0.1-0.4c0,0,0-0.1,0.1-0.1c0.1-0.1,0.2-0.1,0.3-0.1"/>
		<path class="st3" d="M31.3,93.2c0-0.1,0-0.2,0-0.3c0-0.1,0.1-0.1,0.2-0.1c0.1,0,0.2,0,0.3,0"/>
		<path class="st3" d="M32,92.9c-0.1,0-0.1-0.1-0.2-0.1c-0.1,0-0.1-0.1-0.2-0.2c0-0.1-0.1-0.1,0-0.2c0-0.1,0.1-0.1,0.1-0.2
			c0.1-0.1,0.2-0.1,0.3-0.2c0.1,0,0.2-0.1,0.3-0.1"/>
		<path class="st3" d="M32.8,92c0-0.1-0.1-0.1-0.1-0.2c-0.1-0.1-0.1-0.2-0.1-0.3c0-0.1,0-0.1,0.1-0.2c0-0.1,0.1-0.1,0.1-0.2
			c0.2-0.1,0.4-0.1,0.6-0.2"/>
		<path class="st3" d="M33.7,91.1c-0.1-0.1-0.2-0.2-0.2-0.4c0-0.1,0.2-0.2,0.3-0.3c0.1,0,0.3,0,0.4,0"/>
		<path class="st3" d="M34.5,90.4c-0.1,0-0.2-0.1-0.2-0.2c0-0.1,0-0.2,0.1-0.2"/>
		<path class="st3" d="M32.2,91.7c-0.1,0-0.2-0.1-0.3-0.1c0,0-0.1-0.1-0.1-0.1"/>
		<path class="st3" d="M29.2,93.8c0.3-0.3,0.6-0.5,1-0.6"/>
		<path class="st3" d="M29.1,93c0.3-0.1,0.6-0.1,0.9-0.1"/>
		<path class="st3" d="M30.1,92.5c-0.3-0.1-0.6-0.3-0.8-0.6"/>
		<path class="st3" d="M35.5,95.7c0.2-0.1,0.3-0.2,0.5-0.2"/>
		<path class="st3" d="M35.9,95.8c0-0.1,0.1-0.1,0.2-0.1"/>
		<path class="st3" d="M32.2,94.8c0.1-0.1,0.2-0.1,0.3-0.2"/>
		<path class="st3" d="M32.1,94.6c0.1,0,0.2-0.1,0.3-0.1c0,0,0,0,0,0"/>
		<path class="st3" d="M31.5,91.3c0-0.1-0.2-0.2-0.3-0.3"/>
		<path class="st3" d="M31.4,91.4c-0.2-0.1-0.3-0.1-0.5-0.1"/>
		<path class="st3" d="M31,91.5c-0.1,0-0.1-0.1-0.2-0.1"/>
		<path class="st3" d="M33.8,90c-0.1-0.1-0.1-0.2-0.2-0.2c-0.2-0.1-0.3-0.1-0.5-0.1"/>
		<path class="st3" d="M33.4,90.1c-0.3-0.1-0.5-0.3-0.7-0.4"/>
		<path class="st3" d="M33,90.4c-0.2,0-0.3-0.1-0.4-0.2"/>
		<g>
			<path class="st3" d="M35.9,93.1c-0.2-0.1-0.4-0.3-0.4-0.6c0-0.3,0.2-0.5,0.5-0.6c0.5-0.2,1.1-0.1,1.6,0.1c0,0,0.1,0,0.1,0.1
				c0,0,0.1,0.1,0.1,0.2c0,0.2,0,0.5-0.1,0.7c-0.1,0.2-0.2,0.3-0.4,0.4C36.8,93.4,36.3,93.3,35.9,93.1z"/>
			<path class="st3" d="M37.5,92.7c-0.3,0.2-0.7,0.2-1.1,0.2"/>
			<path class="st3" d="M37.6,92.5c-0.2,0-0.4,0-0.6,0"/>
			<path class="st3" d="M37.6,92.3c-0.3-0.2-0.6-0.2-0.9-0.2"/>
		</g>
	</g>
	<path class="st1" d="M4.2,100.4c3.2-1.5,6.8-2.1,10.3-1.7"/>
	<path class="st1" d="M4.9,100.9c1.9-0.7,3.9-1,5.9-1"/>
	<path class="st1" d="M20.2,99c1.7,0,3.3,0.1,5,0.3c0.7,0.1,1.3,0.1,1.9,0.5c0.5,0.3,0.9,0.7,1.3,1c0.9,0.6,2,0.7,2.6,1.6"/>
	<path class="st1" d="M24.8,100.4c1.6,0.3,3,1.1,4.3,2.1c0.4,0.3,0.7,0.7,0.9,1.2"/>
	<path class="st1" d="M29.3,102c0.6,0.5,1.2,1.1,1.6,1.7c0.9-1.4,2.4-2.1,4-2.5"/>
	<path class="st1" d="M32.3,104.2c0.3-0.8,0.9-1.5,1.7-1.9"/>
	<path class="st1" d="M33.1,104.4c0.3-0.9,0.9-1.7,1.8-2.1"/>
	<path class="st1" d="M32.3,101.5c0.9-1.2,2.6-1.4,4-1.5c3-0.2,6-0.2,8.9,0.3c4.2,0.7,8.2,2.5,12.2,4.3"/>
	<path class="st1" d="M57.6,103.7c0.5,1.4,1,2.8,1.7,4.1"/>
	<path class="st1" d="M46.9,101.7c3.4,0.4,6.6,1.5,9.5,3.4"/>
	<path class="st1" d="M42.8,102.5c3.5,0.4,7,1,10.4,1.9"/>
	<path class="st1" d="M73.1,82.9c-0.7,2-2.1,3.5-3.5,5.1c-3.6,4.2-6.7,8.8-9.2,13.6"/>
	<path class="st1" d="M64.9,96.2c-1.7,2.8-3.4,5.5-5.3,8.2"/>
	<path class="st1" d="M70.6,89.4c-1.4,1.6-2.7,3.3-4,5"/>
	<path class="st1" d="M4.2,102.6c1.2-0.7,2.6-1.1,4-1"/>
</g>
<path class="st1" d="M73.8,84.3c-0.4,0.7-0.9,1.4-1.4,2"/>
<path class="st4" d="M56,84c0,0,7.3,3.1,13.3,3.1s13.1,1.2,15.7,3c2.6,1.8,7.2,2.7,9.2,1.6c2-1.1,8.9-5.9,12.1-6.9
	c3.2-1,7.7-1.2,7.8-4.3c0.1-1.6,0.7-1,0.5-2.4c-0.2-1.1-1.3-1.3-1.3-1.3s-0.4-2.3-2.5-1.9c-0.6,0.1-0.8-1.1-2.7-0.8
	c-0.8,0.1-1.1-1.1-2.1-1.2c-1-0.1-1.5-0.2-1.3-1.7s1.3-8.8-2.6-13.5s-7.4-6.1-9.2-10.6c-1.8-4.5-4.5-8.7-7.2-11.5
	c-2.8-2.8-4.7-5.8-5.6-7.9S74.5,12.7,67,8S50.9,5.6,47.7,6.7s-12.2,7.7-15.2,8.8s-6.4,1.6-5.5,2.7c0.9,1.1,2.2,3.7,3.6,5.2
	s2.7,1.6,2.3,3.2c-0.4,1.6-1.7,4.4-1.6,7c0.1,2.6,2.1,8.4,3.4,9.9s-0.1,5.6-0.1,5.6L33.9,56c0,0-8.7-0.1-12.1,6.6s-2.4,9.5-3.9,9.7
	c-1.5,0.2-3.2-0.2-3.6-0.5c-0.4-0.3-3-1.4-4.3-1.7c-1.1-0.2-2.5-0.4-2.8,0.8c-0.2,0.7-0.8-0.2-1.9,0.6c-0.9,0.7-0.7,1.9-0.7,1.9
	S2.8,74,4,76c0.5,0.9,3.6,3,6.4,4.8c2.8,1.8,3.9,2.5,4.8,2.5c0.9,0,4.3-2,6.5-2.5s4.2-1.2,5.7-1.1c-0.4,1.9-1.5,4.5,3.1,6.6
	c1.7,0.4,2.8-0.1,3.6,0c0.8,0.1,2,0.7,3.7,0.2c1.3,1.2,1.4,1.6,2.8,1.6c1.4,0,1.1-0.2,2.2,0.4c1.1,0.6,3.7,0.6,5.5,0.4
	S55.1,85.6,56,84z"/>
<g>
	<path class="st5" d="M31.6,20.6c2.1,0.5,4,1.5,5.9,2.5c-1.3,0.4-2.2,0.3-3.1,1.4c-0.1,0.2-0.4,0.6-0.6,0.7c-0.4,0.1-1.4-1-1.7-1.3
		c-1.4-1.2-2.8-2.5-3.8-4.6C29.2,20.1,30.4,20.3,31.6,20.6z"/>
	<path class="st6" d="M41.1,18.4c0,1-0.2,1.9-0.7,2.8c-0.3,0.5-0.6,0.9-1,1.2s-1,0.4-1.6,0.2"/>
	<path class="st5" d="M54.7,23.6c2-0.1,4-0.1,6-0.1c0.3,0,0.6,0,0.9,0.2c0.3,0.2,0.5,0.5,0.6,0.9c0.4,1,0.9,2.1,1.3,3.1
		c-2-0.4-3.9-0.7-5.9-1.1c-0.9-0.2-1.8-0.3-2.6-0.7c-0.6-0.3-1.2-0.8-1.8-1.1c-0.5-0.2-1-0.4-1.4-0.7c-0.4-0.2-0.8-0.6-0.8-1.1
		C52.1,23.6,53.4,23.7,54.7,23.6z"/>
	<path class="st6" d="M59,14.2c-1.4,0.5-3.1,0.4-4.3,1.2c-0.5,0.4-1,0.9-1.3,1.5c-0.5,0.8-1,1.6-1.3,2.5c-0.2,0.5-0.4,1.1-0.8,1.6
		c-0.2,0.3-0.4,0.6-0.5,1c-0.1,0.4,0,0.8,0.3,1"/>
	<path class="st6" d="M66.4,24.4c-0.5,1.1-1.2,2.1-2.1,3"/>
	<path class="st6" d="M34.7,43.9c1.2,2,4.7,4.2,6.9,5c1.6,0.6,3.3,0.7,4.9,1.1c1.7,0.4,3.3,1.1,5,1.5s3.5,0.6,5.2,0.1
		c1.1-0.3,2.1-0.9,3.2-1.2c1.4-0.3,2.9,0.1,4.4-0.1c2.2-0.2,4.1-1.5,5.6-3.1c1.5-1.6,2.7-3.5,3.9-5.2c0.9-1.2,1.8-2.3,2.4-3.7
		c1.3-2.8,1-6,0.6-9.1"/>
	<path class="st6" d="M37.9,48.7c1.2,4.7,5.1,8.6,9.9,9.8c0.6,0.2,1.4,0.3,1.7,0.9c0.2,0.3,0.2,0.7,0.2,1c0,0.8,0,1.5-0.1,2.3
		c-0.2,1.3-0.8,2.5-1.4,3.7c-1.1,2.3-2.3,4.5-3.6,6.7c-1.1,1.8-2.4,3.5-3.9,5c-0.5,0.5-1,0.9-1.5,1.5c-1.6,1.9-2.1,4.8-1.3,7.1
		c0,0.3,0.6,0.9,0.7,0.8"/>
	<path class="st6" d="M62.5,76c2.2-3.3,4.4-6.7,6.6-10c1.4-2.2,2.8-4.4,4-6.7c1.1-2.2,2.1-4.6,3-6.9c0.8-1.9,1.6-3.9,2.3-5.8
		c0.7-2,1.4-4.1,1.6-6.2"/>
	<path class="st6" d="M78.4,58.4c3.8-4.2,9.9-6.3,15.4-5.2"/>
	<path class="st6" d="M90.1,55.2c-1.4,0.1-2.7,0.6-3.9,1.1c-2.8,1.1-5.5,2.2-8.1,3.6c-1.1,0.6-2.2,1.2-2.9,2.1
		c-0.4,0.5-0.7,1.1-1,1.7c-0.9,1.8-1.7,3.6-2.1,5.5c-0.4,1.9-0.5,4,0.2,5.8"/>
	<path class="st6" d="M86.2,85.3c-0.2,1-0.4,1.9-0.3,2.9c0,1,0.3,2,1,2.7"/>
	<path class="st6" d="M100,76.4c2-2.2,2.8-2.7,5.6-3.5"/>
	<path class="st6" d="M85.6,82.6c-0.8,1.3-1.2,2.8-1,4.3"/>
	<path class="st5" d="M106,79.4c-0.1,0.2-0.1,0.4,0,0.6c0.1,0.2,0.3,0.4,0.4,0.5c0.3,0.4,0.4,1,0.5,1.5c0.1,0.5,0.4,1.1,0.9,1.2
		c0.3,0.1,0.7,0,1-0.1c0.3-0.1,0.6-0.2,0.9-0.5c0.6-0.5,0.6-1.4,0.5-2.2c0-0.2,0-0.4-0.1-0.6c-0.1-0.3-0.4-0.5-0.6-0.6
		C108.4,78.8,106.6,78.1,106,79.4z"/>
	<path class="st5" d="M106.3,76.4c-0.2,0.3-0.2,0.7-0.2,1c0,0.1,0,0.2,0.1,0.3c0.1,0.1,0.2,0.1,0.2,0.1c1,0.3,2.6-0.4,2.4-1.7
		C108.6,74.9,106.7,75.6,106.3,76.4z"/>
	<path class="st5" d="M109.1,78.1c0,0.1,0,0.2,0,0.2c0,0.1,0.1,0.1,0.2,0.1c1,0.4,3.3-1.2,2.5-2.3C110.9,74.9,109.1,77.3,109.1,78.1
		z"/>
	<path class="st5" d="M111.3,79.6c0,0.1,0,0.1,0,0.2c0.1,0.1,0.2,0.1,0.3,0.1c0.6,0,2.9-0.9,2-1.7C112.7,77.5,111.3,78.8,111.3,79.6
		z"/>
	<path class="st5" d="M111.6,81.2c-0.5,0.3-1,0.8-1.1,1.4c0,0.1,0,0.1,0,0.2c0,0.1,0.1,0.1,0.2,0.1c0.7,0,1.4-0.1,1.9-0.5
		c0.3-0.3,0.9-1,0.5-1.4C112.8,80.5,111.9,81,111.6,81.2z"/>
	<path class="st5" d="M8.5,72.1c-0.1,0.7,0.6,1.1,0.9,1.4s0.7,0.5,1.2,0.5c0.2,0,0.5-0.1,0.6-0.3c0.2-0.3,0.1-0.8-0.2-1.1
		s-0.7-0.4-1.1-0.5c-0.2-0.1-0.4-0.1-0.7-0.2C9.1,71.8,8.5,71.9,8.5,72.1z"/>
	<path class="st5" d="M6.9,72.5C6.5,72.5,6.1,72.7,6,73c-0.1,0.3,0.1,0.7,0.4,0.9c0.4,0.5,0.9,1,1.6,0.9c0.1,0,0.2,0,0.3-0.1
		c0.1-0.1,0.1-0.2,0.2-0.4C8.5,73.5,7.4,72.6,6.9,72.5z"/>
	<path class="st5" d="M4.5,74.4c-0.1,0.1-0.2,0.3-0.2,0.3c-0.1,0.2,0,0.4,0.2,0.5c0.3,0.3,0.6,0.7,1,1c0.2,0.2,0.4,0.5,0.7,0.6
		c0.3,0.1,0.7,0,0.8-0.2c0.1-0.3,0-0.6-0.2-0.8c-0.2-0.2-0.4-0.6-0.6-0.7C6,74.9,5.2,73.8,4.5,74.4z"/>
	<path class="st5" d="M8.6,75.6c-0.2,0.1-0.3,0.1-0.5,0.2c-0.2,0.2-0.3,0.6-0.3,0.9c0,0.3,0,0.6,0.1,0.8c0.2,0.4,0.6,0.6,1,0.7
		c0.4,0,0.8-0.1,1.3-0.2c0.8-0.3,1.6-0.6,2.3-1c0.1-0.1,0.2-0.1,0.3-0.2c0.2-0.2,0.2-0.5,0.1-0.7c-0.1-0.2-0.3-0.4-0.5-0.5
		C11.2,74.8,9.8,75.2,8.6,75.6z"/>
	<path class="st6" d="M15.4,72.2c0.7,0.3,1.6,0.5,2.2,0.9c0.7,0.5,1.2,1.1,1.5,1.8"/>
	<path class="st6" d="M17.6,72.3c0.9-0.1,1.4-0.1,2.2,0.2c0.7,0.3,1.3,0.8,2,0.9"/>
	<path class="st6" d="M32,78.2c-0.5,0.5-0.9,1.1-1.6,1.3c-0.2,0.1-0.5,0.1-0.7,0.2c-0.8,0.3-1.2,2.2-1.2,3c0,2.1,0.5,3.1,1.2,3.4"/>
	<path class="st6" d="M35,80c-0.6,1-2.2,1.1-2.7,2.1c-0.2,0.3-0.2,0.7-0.2,1c0.1,0.7,0.2,1.7,0.8,2.2c0.5,0.4,0.6,1,1.2,1.2"/>
	<path class="st6" d="M42.8,80.2c-0.1,0.5-0.6,0.7-1.1,0.7s-1-0.1-1.4,0c-0.5,0.2-0.8,0.6-1.1,1.1c-0.9,1.6-1.2,3.1-0.7,4.9
		c0.1,0.2,0.7,1.2,0.9,1.3"/>
	<path class="st6" d="M46.5,81.7c-0.1,0.6-0.7,1.1-1.2,1.4c-0.6,0.3-1.2,0.6-1.7,1c-0.7,0.6-1,1.7-0.8,2.6c0.2,0.9,0.6,2.1,1.5,2.3"
		/>
</g>
<path class="st5" d="M48.2,43.1c0,0,0.2,0.3,0.7,0.2s3.6-0.6,4.7-0.4s2.7,0.1,2.1-0.5c-0.5-0.6-2.9-1.5-5.3-0.8
	C49.7,41.9,48.2,42.5,48.2,43.1z"/>
<ellipse transform="matrix(0.1314 -0.9913 0.9913 0.1314 2.0154 87.6173)" class="st4" cx="51" cy="42.7" rx="0.4" ry="0.1"/>
<path class="st5" d="M42.5,42.7c0,0-0.6-0.1-1.1-0.3c-0.5-0.3-3.2-1.6-4.3-1.8s-2.6-0.7-1.9-1.1s3.3-0.7,5.2,0.8
	C42.3,41.8,42.7,42.1,42.5,42.7z"/>
<ellipse transform="matrix(0.1653 -0.9862 0.9862 0.1653 -7.5315 73.4895)" class="st4" cx="39.7" cy="41.2" rx="0.4" ry="0.1"/>
<g>
	<path class="st7" d="M27.6,38.6c0,0,3-0.2,3.8,0.3"/>
	<path class="st7" d="M28,42.3c0,0,3.2-0.7,3.9-1"/>
</g>
<g>
	<path class="st6" d="M68.2,44.3c0,0-2.9-0.4-3.6-1"/>
	<path class="st6" d="M68.7,40.6c0,0-2.8,0-4,0.6"/>
</g>
<path class="st6" d="M42.8,46.6c0.3,0.6,0.9,0.9,1.5,1.1c0.4,0.2,0.9,0.3,1.4,0.1c0.3-0.1,0.6-0.4,0.8-0.6"/>
<path class="st6" d="M45.4,48c0,0.9,0.5,1.7,1.4,2"/>
<path class="st6" d="M56.3,83.8c0.3-0.9,0.8-1.8,1.5-2.5c0.3-0.3,0.7-0.6,0.9-1"/>
<path class="st6" d="M27.5,79.5c0.7-2.3,2.8-3.8,3.9-5.9c0.9-1.6,1.2-3.5,1.5-5.3"/>
<path class="st6" d="M33.8,56.2c-0.1,2.1-0.1,4.3-0.1,6.5"/>
<path class="st7" d="M34,23c1.1-0.2,2.3,0,3.4,0.4"/>
<path class="st7" d="M59.7,25.2c1.3,0.7,2.5,1.7,3.4,2.8"/>
</svg>
