<?xml version="1.0" encoding="utf-8"?>
<!-- Generator: Adobe Illustrator 22.0.1, SVG Export Plug-In . SVG Version: 6.00 Build 0)  -->
<svg version="1.1" id="Layer_1" xmlns="http://www.w3.org/2000/svg" xmlns:xlink="http://www.w3.org/1999/xlink" x="0px" y="0px"
	 viewBox="0 0 1920 1000" style="enable-background:new 0 0 1920 1000;" xml:space="preserve">
<style type="text/css">
	.st0{fill:#FFFFFF;stroke:#000000;stroke-miterlimit:10;}
</style>
<g>
	<g>
		<g>
			<circle class="st0" cx="595.2" cy="519.5" r="20.8"/>
			<circle class="st0" cx="533.3" cy="469.5" r="20.8"/>
			<circle class="st0" cx="540.6" cy="427.7" r="10"/>
			<circle class="st0" cx="484" cy="660.7" r="10"/>
			<circle class="st0" cx="505.8" cy="586.6" r="10"/>
			<circle class="st0" cx="470.7" cy="568.8" r="6.7"/>
		</g>
		<g>
			<circle class="st0" cx="1743.9" cy="490.3" r="20.8"/>
			<circle class="st0" cx="698.6" cy="320.5" r="20.8"/>
			<circle class="st0" cx="867.9" cy="58.3" r="10"/>
		</g>
		<circle class="st0" cx="843.5" cy="544.4" r="14.9"/>
		<circle class="st0" cx="822" cy="515" r="6.3"/>
		<circle class="st0" cx="1391" cy="616" r="6.3"/>
		<circle class="st0" cx="1421.4" cy="582.1" r="18"/>
		<circle class="st0" cx="1405.7" cy="644.1" r="14.7"/>
	</g>
	<g>
		<g>
			<circle class="st0" cx="301" cy="210.6" r="20.8"/>
			
				<ellipse transform="matrix(0.1602 -0.9871 0.9871 0.1602 42.2742 370.8874)" class="st0" cx="239.1" cy="160.6" rx="20.8" ry="20.8"/>
			<circle class="st0" cx="246.3" cy="118.9" r="10"/>
			<circle class="st0" cx="189.7" cy="351.8" r="10"/>
			<circle class="st0" cx="211.6" cy="277.8" r="10"/>
			<circle class="st0" cx="176.4" cy="260" r="6.7"/>
		</g>
		<g>
			<circle class="st0" cx="928.7" cy="26.4" r="20.8"/>
			<path class="st0" d="M866.8-2.8"/>
		</g>
		<circle class="st0" cx="549.3" cy="235.5" r="14.9"/>
		<circle class="st0" cx="527.7" cy="206.1" r="6.3"/>
		<circle class="st0" cx="1176.4" cy="418" r="6.3"/>
		<circle class="st0" cx="1217.3" cy="331.4" r="18"/>
		<circle class="st0" cx="1244" cy="283.8" r="14.7"/>
	</g>
	<g>
		<g>
			<circle class="st0" cx="1594" cy="734.5" r="20.8"/>
			<circle class="st0" cx="1532.1" cy="684.5" r="20.8"/>
			<circle class="st0" cx="1539.4" cy="642.8" r="10"/>
			<circle class="st0" cx="1482.8" cy="875.7" r="10"/>
			<circle class="st0" cx="1504.6" cy="801.7" r="10"/>
			<circle class="st0" cx="1469.5" cy="783.9" r="6.7"/>
		</g>
		<circle class="st0" cx="1842.3" cy="759.4" r="14.9"/>
		<circle class="st0" cx="1820.8" cy="730" r="6.3"/>
	</g>
	<g>
		<g>
			<circle class="st0" cx="1604" cy="140" r="20.8"/>
			<circle class="st0" cx="1542.2" cy="90" r="20.8"/>
			<circle class="st0" cx="1549.4" cy="48.2" r="10"/>
			<circle class="st0" cx="1492.8" cy="281.2" r="10"/>
			<circle class="st0" cx="1514.6" cy="207.1" r="10"/>
			<circle class="st0" cx="1479.5" cy="189.3" r="6.7"/>
		</g>
		<circle class="st0" cx="1852.3" cy="164.9" r="14.9"/>
		<circle class="st0" cx="1830.8" cy="135.5" r="6.3"/>
	</g>
	<g>
		<g>
			<circle class="st0" cx="185.4" cy="856.2" r="20.8"/>
			<circle class="st0" cx="123.5" cy="806.2" r="20.8"/>
			<circle class="st0" cx="130.8" cy="764.5" r="10"/>
			<circle class="st0" cx="96" cy="923.4" r="10"/>
			
				<ellipse transform="matrix(3.327797e-02 -0.9994 0.9994 3.327797e-02 -846.225 936.3297)" class="st0" cx="60.9" cy="905.6" rx="6.7" ry="6.7"/>
		</g>
		<g>
			<circle class="st0" cx="813.2" cy="672.1" r="20.8"/>
			<circle class="st0" cx="751.3" cy="622.1" r="20.8"/>
			<circle class="st0" cx="758.5" cy="580.3" r="10"/>
		</g>
		<circle class="st0" cx="433.7" cy="881.1" r="14.9"/>
		<circle class="st0" cx="412.2" cy="851.7" r="6.3"/>
		<circle class="st0" cx="981.2" cy="952.7" r="6.3"/>
		<circle class="st0" cx="1011.6" cy="918.8" r="18"/>
		<circle class="st0" cx="995.9" cy="980.8" r="14.7"/>
	</g>
</g>
</svg>
