<?xml version="1.0" encoding="utf-8"?>
<!-- Generator: Adobe Illustrator 22.0.1, SVG Export Plug-In . SVG Version: 6.00 Build 0)  -->
<svg version="1.1" id="Layer_1" xmlns="http://www.w3.org/2000/svg" xmlns:xlink="http://www.w3.org/1999/xlink" x="0px" y="0px"
	 viewBox="0 0 112.1 85.6" style="enable-background:new 0 0 112.1 85.6;" xml:space="preserve">
<style type="text/css">
	.st0{fill:#FFFFFF;stroke:#000000;stroke-miterlimit:10;}
	.st1{fill:none;stroke:#000000;stroke-linecap:round;stroke-linejoin:round;stroke-miterlimit:10;}
</style>
<g>
	<g>
		<path class="st0" d="M39.1,58.4c0,0-7.4,6-9.8-2.7s-4.1-22.1,0.1-29.1c-2.1-1.9-2-6.2,3.1-9.1s12.9-2.8,15.7,1.8
			s16,16.3,16.2,31.2c-1.7,4.8-3.5,3.6-3.5,3.6s-1.7,9.6-10.2,7C46.8,64,39.1,58.4,39.1,58.4z"/>
		<ellipse transform="matrix(0.9872 -0.1598 0.1598 0.9872 -2.9696 6.3895)" cx="38.3" cy="21.7" rx="6.1" ry="3.5"/>
		<path class="st1" d="M29.4,26.7c2.2,0.9,4.3,1.8,6.7,2.2c2.4,0.4,4.9,0.2,7-1c1.5-0.9,2.7-2.3,3.7-3.7c0.9-1.3,1.5-2.6,1.7-4.1"/>
		<path class="st1" d="M32.9,28.4c0,0-3,18.4,6.2,30"/>
		<path class="st1" d="M39.3,29.3c0,0,6.5,25.5,11.3,31.8"/>
		<path class="st1" d="M45.9,25.9c0,0,12.3,13.5,15,28.2"/>
	</g>
	<g>
		<path class="st0" d="M70.3,62.9c0,0-11.1,6.2-12.3-5.9S57.8,27,64.9,18.7c-2.3-3-1.2-8.7,6.2-11.3s17.7-0.7,20.3,6
			s17.3,25.3,14,45c-3.4,6-5.4,3.9-5.4,3.9s-4.5,12.3-15.1,6.8C79.2,72.1,70.3,62.9,70.3,62.9z"/>
		<ellipse transform="matrix(1.534357e-02 -0.9999 0.9999 1.534357e-02 62.3751 91.8331)" cx="77.8" cy="14.2" rx="4.7" ry="8.1"/>
		<path class="st1" d="M65,18.8c2.7,1.7,5.3,3.5,8.3,4.5c3,1.1,6.4,1.4,9.5,0.3c2.2-0.8,4.1-2.3,5.8-4c1.5-1.5,2.6-3.1,3.2-5.1"/>
		<path class="st1" d="M69.1,21.9c0,0-8.2,23.6,1.1,41"/>
		<path class="st1" d="M77.4,24.6c0,0,2.5,35.2,7.5,44.5"/>
		<path class="st1" d="M86.9,21.7c0,0,13,20.7,13.2,40.7"/>
	</g>
	<g>
		<path class="st0" d="M20.9,77.3c0,0-6.5,6.9-10.1-1.4S3.9,54.6,7.1,47.1c-2.3-1.6-2.8-5.9,1.9-9.4s12.4-4.5,15.8-0.3
			s18,14.1,20.1,28.9c-1.1,5-3,4-3,4s-0.5,9.8-9.2,8.2C29.2,81.9,20.9,77.3,20.9,77.3z"/>
		<path class="st0" d="M7.2,47.2c2.3,0.6,4.5,1.3,6.9,1.3s4.9-0.5,6.8-1.9c1.4-1.1,2.4-2.6,3.2-4.2c0.7-1.4,1.2-2.8,1.1-4.3"/>
		<path class="st0" d="M10.8,48.4c0,0-0.5,18.6,10,28.9"/>
		<path class="st0" d="M17.3,48.5c0,0,9.7,24.5,15.4,30"/>
		<path class="st0" d="M23.4,44.3c0,0,13.9,11.8,18.5,26"/>
		<ellipse transform="matrix(0.9581 -0.2865 0.2865 0.9581 -11.114 6.1009)" cx="15.3" cy="41" rx="6.1" ry="3.5"/>
	</g>
</g>
</svg>
