<?xml version="1.0" encoding="utf-8"?>
<!-- Generator: Adobe Illustrator 22.0.1, SVG Export Plug-In . SVG Version: 6.00 Build 0)  -->
<svg version="1.1" id="Layer_1" xmlns="http://www.w3.org/2000/svg" xmlns:xlink="http://www.w3.org/1999/xlink" x="0px" y="0px"
	 viewBox="0 0 100 50" style="enable-background:new 0 0 100 50;" xml:space="preserve">
<style type="text/css">
	.st0{fill:#FFFFFF;stroke:#010101;stroke-linecap:round;stroke-linejoin:round;stroke-miterlimit:10;}
	.st1{fill:none;stroke:#010101;stroke-linecap:round;stroke-linejoin:round;stroke-miterlimit:10;}
	.st2{fill:#010101;}
	.st3{fill:#FFFFFF;stroke:#231F20;stroke-miterlimit:10;}
	.st4{fill:#231F20;}
</style>
<g>
	<path class="st0" d="M-811.1-343.1c2.9-2.8,6.4-5.1,10.4-5.7c5.8-1,12,1.7,15.2,6.6c1.8,2.7,2.6,5.9,3.5,9c1.3,5,2.6,10.2,1.4,15.2
		c-0.5,2.4-1.6,4.7-2.7,6.9c-1.1,2.2-2.3,4.5-4.1,6.2c-1.8,1.8-4,3-6.3,3.9c-3.2,1.2-6.9,1.7-9.7-0.2c-1-0.7-1.9-1.7-2.7-2.7
		c-2.6-3.3-5.3-6.6-7.9-9.9c-0.5-0.6-1-1.3-1.3-2c-0.4-1.1-0.2-2.3-0.2-3.4c0.1-2.4-0.4-4.8-1-7.1c-0.5-1.9-1.9-4.6-1.5-6.6
		C-817.3-336.5-813.5-340.7-811.1-343.1z"/>
	<path class="st0" d="M-909.6-319.2c-0.3,7.5-0.7,15.1-1.2,22.6c-0.3,6-0.7,12-1,18c0,0.6-0.1,1.3-0.6,1.7c-0.5,0.4-1.1,0.3-1.7,0.2
		c-21.9-3.3-44.5-6.8-63.4-18.2c-2.2-1.3-4.3-2.8-6.1-4.6c-2.2-2.2-3.8-4.9-5.1-7.7c-4.3-9.2-5.7-20.4-1-29.5
		c2.8-5.5,7.6-9.8,12.9-13c5.3-3.2,11.2-5.3,17-7.3c2.5-0.9,5-1.7,7.6-2.3c4.9-1.1,9.9-1.4,14.9-1.5c4.8-0.2,9.5-0.3,14.3-0.3
		c2.4,0,4.8,0,7.1,0c1.8,0,5.1-0.6,6.8,0.1c2.5,1.1,0.8,9,0.7,11.4c-0.2,4.9-0.4,9.7-0.5,14.6C-909.2-329.8-909.4-324.5-909.6-319.2
		z"/>
	<path class="st1" d="M-955.3-322.3c-1.9,3.8-3,8.3-1.6,12.4c1.8,5,7,7.8,12,9.5c2,0.7,4,1.2,6.1,1.3c3.4,0,6.7-1.6,8.9-4.2
		s3.2-6.2,2.7-9.5c-0.4-3.3-2.1-6.3-4-9.1c-1.3-1.9-2.8-3.8-4.7-5c-3.1-1.9-7.7-2.1-11.1-0.8C-950.2-326.6-953.6-325.6-955.3-322.3z
		"/>
	<path class="st2" d="M-941.3-315.7c-1.3-0.1-2.8-0.1-3.8,0.8c-0.7,0.7-0.9,2-0.4,2.9c0.7,1.3,2.5,1.6,4,1.5c0.3,0,0.6-0.1,0.9-0.2
		c0.2-0.1,0.3-0.3,0.4-0.5c0.6-1.1,0.4-2.6-0.4-3.5c-0.8-0.9-2.3-1.2-3.4-0.8"/>
	<path class="st0" d="M-879.8-356.8c11.2,2.4,22.4,4.8,33,9.1c10.5,4.3,20.2,10.3,29.8,16.4c2.1,1.3,4.3,2.8,5.4,5
		c1.1,2.5,0.6,5.5-0.7,7.8c-1.4,2.3-3.5,4.2-5.6,5.9c-8.7,6.9-18.5,12.3-28.2,17.7c-7.9,4.4-15.8,8.8-24.2,12
		c-13.1,5.1-27.4,7.4-41.4,6.6c2.3-4.7,0.8-10.2,0.6-15.4c-0.1-3.9,0.6-7.8,1.1-11.7c1.9-15.3,0.1-30.9,2-46.3
		c0.3-2.5,0.7-5,0.6-7.5c-0.2-3.1-0.2-3.6,3.1-3.4c2.8,0.1,5.7,0.4,8.5,0.8C-890.6-359.1-885.2-358-879.8-356.8z"/>
	<path class="st0" d="M-837.4-351.9c1-0.3,2.1-0.5,3.1-0.3c1,0.2,1.8,0.8,2.6,1.4c0.3,0.2,0.6,0.4,0.8,0.7c0.3,0.4,0.3,0.9,0.3,1.4
		c0.1,1.3,0.2,2.8-0.5,4c-0.8,1.6-2.8,2.3-4.5,2.2c-2.1-0.1-8.2-2.2-8.8-4.5C-845.3-350.2-839.3-351.3-837.4-351.9z"/>
	<path class="st0" d="M-887.6-364.1c2.2-0.7,4.6-0.9,6.8-1.7c1-0.3,1.9-0.8,2.9-0.9c1-0.1,2.1,0,2.8,0.8c0.4,0.5,0.7,1.1,0.8,1.8
		c0.4,1.8,0.3,3.9-0.9,5.2c-1.5,1.6-4,1.6-6.2,1.3c-2.8-0.3-8-0.3-10.5-1.9C-894.3-361-889.3-363.6-887.6-364.1z"/>
	<path class="st0" d="M-856.9-279.8c2.6,1.3,5.5,1.9,8.4,2.4c3.7,0.5,7.5,0.8,11.2,0.8c1.7,0,3.5-0.1,5-0.8c0.6-0.3,1.1-0.7,1.4-1.2
		c0.2-0.5,0.2-1.1,0.2-1.7c-0.5-5.4-3.1-10.6-7.1-14.4c-1.3-1.3-3.2-2.4-4.9-1.8c-0.6,0.2-1.2,0.6-1.7,1c-4,3.1-8.8,5-13.4,7
		c-1.7,0.8-4.6,1.8-3.9,4.2C-861.3-282.4-858.6-280.7-856.9-279.8z"/>
	<path class="st0" d="M-817-296.7c0.7-0.1,1.5-0.2,2.1-0.6c1.1-0.8,1.5-2.3,1.5-3.6c0-2.2-0.8-4.5-2.3-6.2c-1.5-1.7-3.6-2.8-5.8-3
		c-0.4,0-1.6,0.1-1.2,0.1c1.2-0.1-0.6,0.4-0.9,0.6c-1.9,1.7-8.8,5.3-5.9,8.3C-826.9-298.4-820.8-296.4-817-296.7z"/>
	<path class="st1" d="M-904.2-344.4c3,1,5.7,3.5,6.3,6.6c0.1,0.4,0.1,0.7,0,1.1c-0.1,0.4-0.4,0.7-0.6,1c-0.8,0.9-1.5,1.8-2.5,2.5
		s-2.1,1.2-3.3,1.1"/>
	<path class="st1" d="M-885.4-328.8c2.3-0.1,4.5-1.1,6.1-2.7c0.4-0.4,0.7-0.8,0.9-1.3c0.2-0.5,0.2-1,0.2-1.5
		c-0.1-1.5-0.6-2.9-1.5-4.1c-1.4-1.8-4.6-4.1-7-3.2c-2.8,1.1-4.1,3.5-7.5,2.6"/>
	<path class="st1" d="M-875.3-335.4c1.3,0.5,2.5,1,3.6,1.7c1.1,0.7,2.1,1.7,2.6,3c0.3,0.9,0.4,1.9,0.3,2.9c-0.1,2-0.6,4-1.8,5.6
		s-3.1,2.7-5.1,2.5"/>
	<path class="st1" d="M-869.9-352c2,0.5,3.6,2.2,3.9,4.2c0.3,1.7-0.2,3.5-1.2,4.9c-1,1.4-2.4,2.5-3.9,3.3c-0.9,0.5-1.9,0.9-2.9,1
		c-1.2,0.1-2.3-0.1-3.5-0.4"/>
	<path class="st1" d="M-892.8-353.4c1.2,1.1,2.4,2.3,3.7,3.3c0.6,0.5,1.2,1,1.9,1.3c1.1,0.5,2.4,0.5,3.6,0.4c1.4,0,2.9-0.1,4.1-0.8
		s2.1-2.3,1.4-3.6"/>
	<path class="st1" d="M-896.6-357.7c-0.2,1.7,0.5,3.3,0.4,5c-0.1,2.9-2.4,5.5-5.2,6"/>
	<path class="st1" d="M-861.9-345.6c1.1-0.2,2.1,0.4,3,1.1c1.3,1.1,2.5,2.4,3.1,4c0.6,1.6,0.7,3.5-0.2,5c-1,1.9-3.2,2.8-5.2,3.6
		c-1.8,0.7-3.8,1.4-5.7,1"/>
	<path class="st1" d="M-853.1-337.2c1.3,0.5,2.6,1.2,3.6,2.1c0.9,0.8,1.6,1.7,1.8,2.8c0.2,1.5-0.8,3-1.9,4c-1.8,1.8-4.2,3.2-6.7,3.9
		"/>
	<path class="st1" d="M-862.8-327c1,1.2,2.1,2.4,2.7,3.8c0.6,1.4,0.8,3.1,0.2,4.5c-0.6,1.3-1.9,2.1-2.9,3.1
		c-0.9,0.8-1.6,1.7-2.6,2.2c-2.1,1.1-4.6,0.6-6.9,0"/>
	<path class="st1" d="M-876.4-314.7c1.9,0.3,3.1,2.4,2.9,4.3c-0.2,1.9-1.5,3.5-3,4.6c-1.6,1.1-3.6,1.6-5.5,1.6"/>
	<path class="st1" d="M-885.5-307.8c1.1,1.4,1.5,3.3,1,5c-0.5,1.7-1.9,3.1-3.6,3.6c-1.4,0.4-3,0.3-4.5,0.1"/>
	<path class="st1" d="M-903.7-306.4c0.7,2.2,1.3,4.8,0.1,6.8c-0.7,1.1-1.9,1.9-3.1,2.1"/>
	<path class="st1" d="M-897.4-301.2c1.5,0.7,2.9,1.8,3.5,3.3c0.7,1.8,0,3.9-1.4,5.2c-1.4,1.3-3.3,2-5.1,2.2"/>
	<path class="st1" d="M-905.7-293.7c1,0.5,1.7,1.4,2.1,2.5c0.4,1,0.4,2.2,0.4,3.3c0,1-0.1,2-0.5,2.9c-0.7,1.4-2.1,2.3-3.4,3.1"/>
	<path class="st1" d="M-865.7-310c0.3,1.9,1.4,3.5,1.9,5.3c0.5,2.2,0,4.7-1.5,6.5c-1.5,1.8-3.8,2.8-6.1,2.7"/>
	<path class="st1" d="M-877.4-301c0.9,0.5,1.7,1.1,2.4,1.7c0.6,0.5,1.2,1.1,1.5,1.9c0.5,1.2,0.1,2.5-0.3,3.7
		c-0.5,1.3-1.2,2.5-2.3,3.3c-1.1,0.9-2.5,1.3-3.8,1"/>
	<path class="st1" d="M-887.1-293c1.4,0.7,2.8,1.5,3.4,2.9c0.3,0.7,0.3,1.4,0.3,2.1c-0.3,3.5-3.2,6.7-6.7,7.3"/>
	<path class="st1" d="M-898.2-285.6c1.4,0.2,2.5,1.5,2.8,2.8c0.3,1.4,0,2.8-0.3,4.2"/>
	<path class="st1" d="M-855.3-321c0.5,0.8,1,1.7,1.6,2.5c0.9,1.4,1.8,2.9,1.9,4.6c0.1,2.3-1.4,4.4-3.2,5.8c-1.5,1.2-3.4,2-5.3,2.3"
		/>
	<path class="st1" d="M-844-333.1c1.7,0.4,3.3,1.3,4.5,2.6c1.1,1.3,1.7,3.2,1.4,4.9c-0.2,1.2-0.9,2.4-1.7,3.4
		c-2.1,2.7-5.2,4.8-8.6,4.8"/>
	<path class="st1" d="M-840.8-341.8c-0.3,2.5-2.3,4.7-4.8,5.2c-0.5,0.1-1.1,0.1-1.6,0c-0.6-0.2-1.1-0.6-1.5-1
		c-0.7-0.7-1.2-1.5-1.6-2.5"/>
	<path class="st1" d="M-831.5-337.2c0.1,1.8-0.2,3.7-0.9,5.4c-0.2,0.4-0.4,0.8-0.7,1.1c-0.9,0.9-2.3,0.9-3.6,0.8"/>
	<path class="st1" d="M-824.4-329.2c0.4,1.2,0.6,2.6,0,3.7c-0.5,1-1.6,1.6-2.8,1.9c-1.4,0.4-3,0.4-4.4,0"/>
	<path class="st1" d="M-834.4-324.8c1,0.5,1.9,1.1,2.8,1.8c0.8,0.6,1.6,1.2,2.2,2.1s0.9,1.9,0.6,2.9c-0.2,0.9-0.9,1.6-1.6,2.2
		c-1.3,1-2.9,1.7-4.5,2.3c-1.2,0.5-2.5,1-3.7,1.5"/>
	<path class="st1" d="M-844.1-313.2c0.5,0.8,0.9,1.7,1.4,2.5c0.7,1.3,1.5,2.8,1.2,4.3c-0.1,0.8-0.6,1.5-1,2.1
		c-0.5,0.8-1.1,1.5-1.9,2.1c-2.2,1.7-5.2,1.5-7.8,2.1"/>
	<path class="st1" d="M-856.6-301.5c1.8,0.8,2.6,3.1,2.1,5s-2.3,3.3-4.2,3.9c-1.9,0.6-3.9,0.6-5.9,0.3"/>
	<path class="st1" d="M-867.2-292.3c1.2,0.3,2.2,1.4,2.4,2.6c0.2,1.2-0.5,2.6-1.6,3.2"/>
	<path class="st1" d="M-837-309.1c1.2,0.4,2.4,0.9,3.5,1.5c0.6,0.3,1.3,0.8,1.3,1.6"/>
	<path class="st1" d="M-796.7-336.8c-3.4,4.3-8.4,7.2-13.9,8"/>
	<path class="st1" d="M-795.2-326.4c-3.9,1-7.9,1.3-11.9,0.9"/>
	<path class="st1" d="M-808.5-319.7c4.5,0.7,8.6,3.8,10.6,7.9"/>
	<path class="st1" d="M-880.1-361.5c-2,1.3-4.3,2-6.7,2.2"/>
	<path class="st1" d="M-884.9-362.5c-0.6,0.8-1.4,1.5-2.3,1.9"/>
	<path class="st1" d="M-836-349.9c-1.4,0.9-2.9,1.6-4.4,2.1"/>
	<path class="st1" d="M-835.5-347.2c-1.4,0.5-2.8,0.7-4.2,0.7c0.2,0,0.3,0,0.5,0"/>
	<path class="st1" d="M-827.6-303.8c0.6,1.8,2.2,3.2,4.1,3.4"/>
	<path class="st1" d="M-826.1-304.4c2.1,0.8,4.3,1.2,6.5,1.3"/>
	<path class="st1" d="M-821-306.5c0.8,0.5,1.7,1,2.5,1.6"/>
	<path class="st1" d="M-858.2-286.7c0.8,1.2,1.8,2.2,3,2.9c2,1.2,4.5,1.6,6.8,1.9"/>
	<path class="st1" d="M-851.9-287.9c3.3,1.7,6.6,3.7,9.7,5.8"/>
	<path class="st1" d="M-847.2-292.1c2.2,0.1,4.3,1.2,5.7,2.9"/>
	<g>
		<path class="st1" d="M-885.5-326.9c2.8,1.8,5.3,4.5,5.4,7.8c0.1,3.7-2.7,6.9-6,8.5c-6.5,3.2-14.3,1.7-21-1.1
			c-0.5-0.2-1-0.4-1.4-0.8c-0.6-0.7-0.8-1.6-0.8-2.5c-0.2-3.3,0.2-6.6,1.3-9.6c1.1-3.1,2.2-3.8,5.4-4.7
			C-896.9-330.9-890.5-330.1-885.5-326.9z"/>
		<path class="st1" d="M-907.3-322.6c4.2-2.4,9.3-3.2,14-2.3"/>
		<path class="st1" d="M-907.3-319.8c2.7-0.2,5.3-0.1,8,0.4"/>
		<path class="st1" d="M-907.5-316.2c3.3,2.1,7.4,2.6,11.3,2.6"/>
	</g>
</g>
<g>
	<path class="st0" d="M-135.4-483.6c2.1-2.1,4.7-3.7,7.6-4.2c4.2-0.7,8.8,1.3,11.1,4.9c1.3,2,1.9,4.3,2.5,6.6
		c1,3.7,1.9,7.5,1.1,11.2c-0.4,1.8-1.2,3.4-2,5.1c-0.8,1.6-1.7,3.3-3,4.6c-1.3,1.3-2.9,2.2-4.7,2.8c-2.3,0.9-5.1,1.3-7.1-0.1
		c-0.8-0.5-1.4-1.3-1.9-2c-1.9-2.4-3.9-4.8-5.8-7.2c-0.4-0.5-0.7-0.9-0.9-1.5c-0.3-0.8-0.1-1.7-0.1-2.5c0.1-1.8-0.3-3.5-0.7-5.2
		c-0.4-1.4-1.4-3.4-1.1-4.9C-140-478.8-137.3-481.9-135.4-483.6z"/>
	<path class="st0" d="M-207.7-466.1c-0.2,5.5-0.5,11.1-0.9,16.6c-0.2,4.4-0.5,8.8-0.7,13.2c0,0.5-0.1,1-0.4,1.3
		c-0.3,0.3-0.8,0.2-1.3,0.1c-16.1-2.4-32.6-5-46.5-13.4c-1.6-1-3.2-2-4.5-3.3c-1.6-1.6-2.8-3.6-3.7-5.7c-3.2-6.8-4.2-15-0.8-21.7
		c2.1-4,5.6-7.2,9.4-9.5c3.9-2.3,8.2-3.9,12.5-5.4c1.8-0.6,3.7-1.2,5.5-1.7c3.6-0.8,7.3-1,10.9-1.1c3.5-0.1,7-0.2,10.5-0.2
		c1.7,0,3.5,0,5.2,0c1.3,0,3.8-0.5,5,0.1c1.9,0.8,0.6,6.6,0.5,8.4c-0.1,3.6-0.3,7.1-0.4,10.7C-207.4-473.8-207.5-470-207.7-466.1z"
		/>
	<path class="st1" d="M-241.2-468.4c-1.4,2.8-2.2,6.1-1.1,9.1c1.3,3.6,5.2,5.7,8.8,7c1.4,0.5,2.9,0.9,4.4,0.9c2.5,0,4.9-1.2,6.5-3.1
		c1.6-1.9,2.3-4.5,2-7c-0.3-2.4-1.6-4.6-3-6.6c-1-1.4-2-2.8-3.5-3.6c-2.3-1.4-5.6-1.5-8.1-0.6C-237.5-471.5-240-470.8-241.2-468.4z"
		/>
	<path class="st2" d="M-230.9-463.5c-1-0.1-2.1-0.1-2.8,0.6c-0.5,0.5-0.7,1.5-0.3,2.1c0.5,1,1.8,1.2,2.9,1.1c0.2,0,0.5,0,0.7-0.2
		c0.1-0.1,0.2-0.2,0.3-0.4c0.4-0.8,0.3-1.9-0.3-2.5c-0.6-0.7-1.7-0.9-2.5-0.6"/>
	<path class="st0" d="M-185.8-493.7c8.2,1.8,16.5,3.5,24.2,6.7c7.7,3.1,14.8,7.6,21.8,12c1.5,1,3.2,2,3.9,3.7c0.8,1.8,0.5,4-0.5,5.7
		c-1,1.7-2.5,3.1-4.1,4.3c-6.4,5.1-13.5,9-20.7,13c-5.8,3.2-11.6,6.4-17.8,8.8c-9.6,3.7-20.1,5.4-30.4,4.8c1.7-3.4,0.6-7.5,0.5-11.3
		c-0.1-2.9,0.5-5.7,0.8-8.6c1.4-11.2,0.1-22.7,1.5-33.9c0.2-1.8,0.5-3.7,0.4-5.5c-0.1-2.3-0.1-2.6,2.3-2.5c2.1,0.1,4.2,0.3,6.2,0.6
		C-193.7-495.4-189.8-494.5-185.8-493.7z"/>
	<path class="st0" d="M-154.7-490c0.7-0.2,1.5-0.4,2.3-0.2c0.7,0.2,1.3,0.6,1.9,1.1c0.2,0.2,0.4,0.3,0.6,0.5c0.2,0.3,0.2,0.7,0.2,1
		c0.1,1,0.1,2-0.3,2.9c-0.6,1.1-2,1.7-3.3,1.6c-1.6-0.1-6-1.6-6.5-3.3C-160.5-488.8-156.2-489.7-154.7-490z"/>
	<path class="st0" d="M-191.5-499c1.6-0.5,3.4-0.7,5-1.2c0.7-0.2,1.4-0.6,2.1-0.7c0.7-0.1,1.6,0,2.1,0.6c0.3,0.3,0.5,0.8,0.6,1.3
		c0.3,1.3,0.2,2.8-0.7,3.8c-1.1,1.2-2.9,1.2-4.5,1c-2.1-0.2-5.9-0.2-7.7-1.4C-196.5-496.8-192.8-498.6-191.5-499z"/>
	<path class="st0" d="M-169.1-437.2c1.9,1,4,1.4,6.1,1.7c2.7,0.4,5.5,0.6,8.2,0.6c1.2,0,2.5-0.1,3.7-0.6c0.4-0.2,0.8-0.5,1-0.9
		c0.2-0.4,0.2-0.8,0.1-1.3c-0.4-4-2.3-7.8-5.2-10.5c-1-0.9-2.3-1.8-3.6-1.3c-0.5,0.2-0.8,0.5-1.2,0.8c-3,2.3-6.4,3.7-9.8,5.2
		c-1.3,0.6-3.3,1.3-2.9,3.1C-172.3-439.1-170.3-437.8-169.1-437.2z"/>
	<path class="st0" d="M-139.8-449.6c0.5,0,1.1-0.2,1.5-0.5c0.8-0.6,1.1-1.6,1.1-2.6c0-1.6-0.6-3.3-1.7-4.5c-1.1-1.2-2.6-2.1-4.3-2.2
		c-0.3,0-1.1,0.1-0.9,0.1c0.9-0.1-0.5,0.3-0.7,0.4c-1.4,1.2-6.5,3.9-4.3,6.1C-147.1-450.8-142.6-449.4-139.8-449.6z"/>
	<path class="st1" d="M-203.7-484.6c2.2,0.8,4.2,2.5,4.6,4.8c0,0.3,0.1,0.5,0,0.8c-0.1,0.3-0.3,0.5-0.5,0.7
		c-0.6,0.7-1.1,1.3-1.8,1.8c-0.7,0.5-1.6,0.9-2.4,0.8"/>
	<path class="st1" d="M-189.9-473.1c1.7-0.1,3.3-0.8,4.5-2c0.3-0.3,0.5-0.6,0.7-1c0.1-0.3,0.2-0.7,0.1-1.1c0-1.1-0.4-2.2-1.1-3
		c-1-1.3-3.4-3-5.1-2.3c-2,0.8-3,2.5-5.5,1.9"/>
	<path class="st1" d="M-182.6-477.9c0.9,0.4,1.8,0.7,2.7,1.2c0.8,0.5,1.5,1.3,1.9,2.2c0.3,0.7,0.3,1.4,0.2,2.1
		c-0.1,1.4-0.4,2.9-1.3,4.1s-2.3,2-3.7,1.8"/>
	<path class="st1" d="M-178.6-490.1c1.4,0.4,2.6,1.6,2.9,3.1c0.2,1.2-0.2,2.5-0.9,3.6c-0.7,1-1.7,1.8-2.8,2.4
		c-0.7,0.4-1.4,0.6-2.1,0.7c-0.9,0.1-1.7-0.1-2.5-0.3"/>
	<path class="st1" d="M-195.4-491.1c0.9,0.8,1.8,1.7,2.7,2.5c0.4,0.4,0.9,0.7,1.4,1c0.8,0.4,1.7,0.3,2.6,0.3c1,0,2.1-0.1,3-0.6
		c0.9-0.5,1.5-1.7,1.1-2.6"/>
	<path class="st1" d="M-198.2-494.3c-0.1,1.2,0.3,2.4,0.3,3.7c-0.1,2.1-1.8,4-3.8,4.4"/>
	<path class="st1" d="M-172.7-485.4c0.8-0.2,1.6,0.3,2.2,0.8c1,0.8,1.8,1.8,2.3,3c0.5,1.2,0.5,2.6-0.1,3.7c-0.8,1.4-2.3,2.1-3.8,2.7
		c-1.3,0.5-2.8,1.1-4.2,0.7"/>
	<path class="st1" d="M-166.2-479.3c1,0.3,1.9,0.9,2.6,1.5c0.6,0.6,1.2,1.3,1.3,2.1c0.1,1.1-0.6,2.2-1.4,3c-1.3,1.3-3.1,2.3-4.9,2.8
		"/>
	<path class="st1" d="M-173.3-471.8c0.7,0.9,1.5,1.7,2,2.8c0.5,1,0.6,2.3,0.1,3.3c-0.5,0.9-1.4,1.6-2.2,2.3
		c-0.6,0.6-1.2,1.2-1.9,1.6c-1.5,0.8-3.4,0.4-5.1,0"/>
	<path class="st1" d="M-183.3-462.7c1.4,0.3,2.3,1.8,2.2,3.1c-0.1,1.4-1.1,2.6-2.2,3.4c-1.2,0.8-2.6,1.2-4,1.2"/>
	<path class="st1" d="M-190-457.7c0.8,1,1.1,2.4,0.7,3.6c-0.4,1.2-1.4,2.3-2.6,2.6c-1.1,0.3-2.2,0.2-3.3,0"/>
	<path class="st1" d="M-203.3-456.7c0.5,1.6,0.9,3.5,0,4.9c-0.5,0.8-1.4,1.4-2.3,1.5"/>
	<path class="st1" d="M-198.7-452.9c1.1,0.5,2.1,1.3,2.6,2.4c0.5,1.3,0,2.8-1,3.8c-1,1-2.4,1.4-3.8,1.6"/>
	<path class="st1" d="M-204.8-447.4c0.7,0.3,1.2,1,1.5,1.8c0.3,0.8,0.3,1.6,0.3,2.4c0,0.7-0.1,1.5-0.4,2.2c-0.5,1-1.5,1.7-2.5,2.2"
		/>
	<path class="st1" d="M-175.5-459.3c0.2,1.4,1,2.6,1.4,3.9c0.4,1.6,0,3.5-1.1,4.8c-1.1,1.3-2.8,2.1-4.5,2"/>
	<path class="st1" d="M-184-452.7c0.6,0.4,1.2,0.8,1.8,1.3c0.4,0.4,0.9,0.8,1.1,1.4c0.3,0.9,0.1,1.8-0.2,2.7
		c-0.4,0.9-0.9,1.8-1.7,2.4c-0.8,0.6-1.8,1-2.8,0.7"/>
	<path class="st1" d="M-191.2-446.9c1,0.5,2.1,1.1,2.5,2.1c0.2,0.5,0.2,1,0.2,1.5c-0.2,2.6-2.3,4.9-4.9,5.3"/>
	<path class="st1" d="M-199.3-441.5c1,0.1,1.8,1.1,2.1,2.1c0.2,1,0,2.1-0.2,3.1"/>
	<path class="st1" d="M-167.9-467.4c0.4,0.6,0.8,1.2,1.1,1.8c0.6,1,1.3,2.1,1.4,3.3c0.1,1.7-1,3.2-2.4,4.2c-1.1,0.9-2.5,1.4-3.9,1.7
		"/>
	<path class="st1" d="M-159.6-476.3c1.3,0.3,2.5,0.9,3.3,1.9s1.3,2.3,1,3.6c-0.2,0.9-0.7,1.7-1.3,2.5c-1.5,2-3.8,3.5-6.3,3.5"/>
	<path class="st1" d="M-157.3-482.7c-0.2,1.8-1.7,3.5-3.5,3.8c-0.4,0.1-0.8,0.1-1.1,0c-0.4-0.1-0.8-0.4-1.1-0.7
		c-0.5-0.5-0.9-1.1-1.2-1.8"/>
	<path class="st1" d="M-150.4-479.3c0.1,1.3-0.1,2.7-0.6,3.9c-0.1,0.3-0.3,0.6-0.5,0.8c-0.6,0.7-1.7,0.7-2.6,0.6"/>
	<path class="st1" d="M-145.2-473.4c0.3,0.9,0.4,1.9,0,2.7c-0.4,0.7-1.2,1.2-2,1.4c-1.1,0.3-2.2,0.3-3.2,0"/>
	<path class="st1" d="M-152.6-470.2c0.7,0.4,1.4,0.8,2.1,1.3c0.6,0.4,1.2,0.9,1.6,1.5c0.4,0.6,0.6,1.4,0.4,2.1
		c-0.2,0.7-0.7,1.2-1.2,1.6c-1,0.8-2.1,1.2-3.3,1.7c-0.9,0.4-1.8,0.7-2.7,1.1"/>
	<path class="st1" d="M-159.7-461.7c0.3,0.6,0.7,1.2,1,1.9c0.5,1,1.1,2,0.9,3.1c-0.1,0.6-0.4,1.1-0.7,1.6c-0.4,0.6-0.8,1.1-1.4,1.6
		c-1.6,1.2-3.8,1.1-5.7,1.6"/>
	<path class="st1" d="M-168.8-453.1c1.3,0.6,1.9,2.3,1.5,3.7s-1.7,2.4-3.1,2.9c-1.4,0.5-2.9,0.4-4.3,0.2"/>
	<path class="st1" d="M-176.6-446.4c0.9,0.2,1.6,1,1.8,1.9s-0.3,1.9-1.1,2.3"/>
	<path class="st1" d="M-154.4-458.7c0.9,0.3,1.7,0.7,2.6,1.1c0.5,0.2,1,0.6,0.9,1.1"/>
	<path class="st1" d="M-124.9-479c-2.5,3.2-6.2,5.3-10.2,5.8"/>
	<path class="st1" d="M-123.8-471.4c-2.9,0.7-5.8,1-8.8,0.7"/>
	<path class="st1" d="M-133.6-466.5c3.3,0.5,6.3,2.8,7.7,5.8"/>
	<path class="st1" d="M-186-497.1c-1.5,0.9-3.2,1.5-4.9,1.6"/>
	<path class="st1" d="M-189.6-497.8c-0.5,0.6-1,1.1-1.7,1.4"/>
	<path class="st1" d="M-153.7-488.6c-1,0.6-2.1,1.1-3.2,1.5"/>
	<path class="st1" d="M-153.3-486.6c-1,0.4-2,0.5-3.1,0.5c0.1,0,0.2,0,0.4,0"/>
	<path class="st1" d="M-147.5-454.8c0.4,1.3,1.6,2.3,3,2.5"/>
	<path class="st1" d="M-146.4-455.2c1.5,0.6,3.1,0.9,4.7,0.9"/>
	<path class="st1" d="M-142.7-456.8c0.6,0.4,1.2,0.8,1.9,1.2"/>
	<path class="st1" d="M-170-442.3c0.6,0.9,1.3,1.6,2.2,2.1c1.5,0.9,3.3,1.1,5,1.4"/>
	<path class="st1" d="M-165.4-443.1c2.4,1.3,4.8,2.7,7.1,4.2"/>
	<path class="st1" d="M-161.9-446.2c1.6,0.1,3.2,0.9,4.2,2.1"/>
	<g>
		<path class="st1" d="M-190-471.7c2,1.3,3.9,3.3,4,5.7c0.1,2.7-2,5-4.4,6.2c-4.8,2.3-10.5,1.2-15.4-0.8c-0.4-0.2-0.7-0.3-1-0.6
			c-0.5-0.5-0.6-1.2-0.6-1.9c-0.2-2.4,0.2-4.8,1-7.1c0.8-2.3,1.6-2.8,4-3.4C-198.3-474.7-193.7-474-190-471.7z"/>
		<path class="st1" d="M-206-468.6c3.1-1.8,6.8-2.4,10.3-1.7"/>
		<path class="st1" d="M-206-466.5c1.9-0.2,3.9-0.1,5.8,0.3"/>
		<path class="st1" d="M-206.2-463.9c2.4,1.5,5.4,1.9,8.3,1.9"/>
	</g>
</g>
<g>
	<path class="st0" d="M-332.6-251.4c-2.8,2.8-6.3,5-10.2,5.7c-5.7,1-11.8-1.7-15-6.5c-1.8-2.7-2.6-5.8-3.4-8.9
		c-1.3-4.9-2.5-10.1-1.4-15.1c0.5-2.4,1.6-4.6,2.7-6.8c1.1-2.2,2.3-4.4,4-6.1c1.7-1.7,4-2.9,6.3-3.8c3.1-1.2,6.9-1.7,9.6,0.2
		c1,0.7,1.8,1.7,2.6,2.7c2.6,3.3,5.2,6.5,7.8,9.8c0.5,0.6,1,1.3,1.3,2c0.4,1.1,0.2,2.2,0.2,3.4c-0.1,2.4,0.4,4.7,1,7
		c0.5,1.9,1.8,4.6,1.5,6.6C-326.4-258-330.1-253.8-332.6-251.4z"/>
	<path class="st0" d="M-235.3-275.1c0.3-7.5,0.7-14.9,1.1-22.3c0.3-5.9,0.7-11.8,1-17.8c0-0.6,0.1-1.3,0.6-1.7
		c0.5-0.4,1.1-0.3,1.7-0.2c21.6,3.2,43.9,6.7,62.6,18c2.2,1.3,4.3,2.7,6,4.5c2.1,2.2,3.7,4.9,5,7.6c4.3,9.1,5.6,20.2,1,29.2
		c-2.8,5.4-7.5,9.7-12.7,12.9c-5.2,3.1-11,5.2-16.8,7.2c-2.5,0.8-4.9,1.7-7.5,2.3c-4.8,1.1-9.8,1.3-14.7,1.5
		c-4.7,0.2-9.4,0.3-14.1,0.3c-2.4,0-4.7,0-7.1,0c-1.8,0-5.1,0.6-6.7-0.1c-2.5-1.1-0.8-8.9-0.7-11.3c0.2-4.8,0.4-9.6,0.5-14.4
		C-235.7-264.6-235.5-269.9-235.3-275.1z"/>
	<path class="st1" d="M-190.1-272c1.9-3.8,3-8.2,1.5-12.2c-1.8-4.9-7-7.7-11.9-9.4c-1.9-0.7-3.9-1.2-6-1.2c-3.4,0-6.7,1.6-8.8,4.1
		c-2.2,2.6-3.1,6.1-2.7,9.4c0.4,3.3,2.1,6.2,4,9c1.3,1.9,2.7,3.7,4.7,4.9c3.1,1.9,7.6,2.1,11,0.8
		C-195.1-267.8-191.8-268.7-190.1-272z"/>
	<path class="st2" d="M-203.9-278.5c1.3,0.1,2.8,0.1,3.7-0.8c0.7-0.7,0.9-2,0.4-2.9c-0.7-1.3-2.5-1.6-4-1.5c-0.3,0-0.6,0.1-0.9,0.2
		c-0.2,0.1-0.3,0.3-0.4,0.5c-0.6,1.1-0.4,2.5,0.4,3.4c0.8,0.9,2.2,1.2,3.4,0.7"/>
	<path class="st0" d="M-264.7-237.9c-11.1-2.4-22.2-4.8-32.6-9c-10.4-4.2-19.9-10.2-29.4-16.2c-2.1-1.3-4.3-2.7-5.3-5
		c-1.1-2.4-0.6-5.4,0.7-7.7s3.4-4.1,5.5-5.8c8.6-6.8,18.2-12.2,27.8-17.5c7.8-4.3,15.6-8.7,23.9-11.9c13-5,27-7.3,40.9-6.5
		c-2.3,4.6-0.8,10.1-0.6,15.3c0.1,3.9-0.6,7.7-1.1,11.6c-1.9,15.1-0.1,30.6-2,45.7c-0.3,2.5-0.7,4.9-0.6,7.4c0.2,3,0.2,3.5-3,3.4
		c-2.8-0.1-5.6-0.4-8.4-0.8C-254.1-235.6-259.4-236.8-264.7-237.9z"/>
	<path class="st0" d="M-306.6-242.8c-1,0.3-2.1,0.5-3.1,0.3c-1-0.2-1.8-0.8-2.6-1.4c-0.3-0.2-0.6-0.4-0.7-0.7
		c-0.3-0.4-0.3-0.9-0.3-1.4c-0.1-1.3-0.2-2.7,0.5-3.9c0.8-1.5,2.7-2.2,4.5-2.1c2.1,0.1,8.1,2.2,8.7,4.5
		C-298.8-244.4-304.7-243.3-306.6-242.8z"/>
	<path class="st0" d="M-257-230.7c-2.2,0.7-4.5,0.9-6.7,1.6c-0.9,0.3-1.9,0.7-2.9,0.9s-2.1,0-2.8-0.8c-0.4-0.5-0.7-1.1-0.8-1.7
		c-0.4-1.8-0.3-3.8,0.9-5.1c1.5-1.6,4-1.6,6.1-1.3c2.8,0.3,7.9,0.3,10.3,1.9C-250.4-233.8-255.3-231.3-257-230.7z"/>
	<path class="st0" d="M-287.3-314c-2.6-1.3-5.4-1.9-8.3-2.3c-3.7-0.5-7.4-0.8-11.1-0.8c-1.7,0-3.4,0.1-4.9,0.8
		c-0.6,0.3-1.1,0.7-1.3,1.2c-0.2,0.5-0.2,1.1-0.2,1.7c0.5,5.4,3.1,10.5,7,14.2c1.3,1.2,3.2,2.4,4.9,1.8c0.6-0.2,1.1-0.6,1.7-1
		c4-3,8.6-4.9,13.2-6.9c1.7-0.8,4.5-1.8,3.9-4.2C-283-311.4-285.7-313.1-287.3-314z"/>
	<path class="st0" d="M-326.7-297.3c-0.7,0.1-1.5,0.2-2.1,0.6c-1.1,0.8-1.4,2.2-1.4,3.6c0,2.2,0.8,4.4,2.3,6.1
		c1.5,1.7,3.6,2.8,5.8,3c0.4,0,1.5-0.1,1.2-0.1c-1.2,0.1,0.6-0.4,0.9-0.6c1.9-1.6,8.7-5.3,5.8-8.2
		C-316.9-295.6-323-297.6-326.7-297.3z"/>
	<path class="st1" d="M-240.6-250.2c-3-1-5.6-3.4-6.2-6.5c-0.1-0.4-0.1-0.7,0-1.1c0.1-0.4,0.4-0.7,0.6-1c0.8-0.9,1.5-1.8,2.5-2.5
		c0.9-0.7,2.1-1.1,3.3-1.1"/>
	<path class="st1" d="M-259.2-265.6c-2.2,0.1-4.4,1.1-6,2.7c-0.4,0.4-0.7,0.8-0.9,1.3c-0.2,0.5-0.2,1-0.2,1.5c0.1,1.5,0.6,2.9,1.5,4
		c1.4,1.8,4.6,4,6.9,3.1c2.7-1.1,4-3.4,7.4-2.6"/>
	<path class="st1" d="M-269.1-259.1c-1.2-0.5-2.5-1-3.6-1.7c-1.1-0.7-2.1-1.7-2.5-3c-0.3-0.9-0.4-1.9-0.3-2.9c0.1-2,0.6-3.9,1.8-5.5
		s3.1-2.6,5-2.4"/>
	<path class="st1" d="M-274.5-242.7c-1.9-0.5-3.5-2.2-3.9-4.2c-0.3-1.7,0.2-3.4,1.2-4.8c1-1.4,2.3-2.4,3.8-3.2
		c0.9-0.5,1.8-0.9,2.8-1c1.2-0.1,2.3,0.1,3.4,0.4"/>
	<path class="st1" d="M-251.8-241.3c-1.2-1.1-2.4-2.2-3.6-3.3c-0.6-0.5-1.2-1-1.9-1.3c-1.1-0.5-2.3-0.5-3.5-0.4
		c-1.4,0-2.9,0.1-4.1,0.8s-2,2.3-1.4,3.5"/>
	<path class="st1" d="M-248.1-237.1c0.2-1.6-0.5-3.3-0.4-4.9c0.1-2.8,2.4-5.5,5.2-5.9"/>
	<path class="st1" d="M-282.4-249c-1.1,0.2-2.1-0.4-2.9-1.1c-1.3-1.1-2.5-2.4-3.1-4c-0.6-1.6-0.6-3.5,0.2-4.9c1-1.9,3.1-2.8,5.1-3.6
		c1.8-0.7,3.7-1.4,5.6-1"/>
	<path class="st1" d="M-291.1-257.3c-1.3-0.5-2.5-1.2-3.6-2.1c-0.8-0.7-1.6-1.7-1.7-2.8c-0.2-1.5,0.8-2.9,1.8-4
		c1.8-1.8,4.1-3.1,6.6-3.8"/>
	<path class="st1" d="M-281.5-267.4c-1-1.2-2-2.3-2.7-3.7c-0.6-1.4-0.8-3.1-0.2-4.4c0.6-1.3,1.9-2.1,2.9-3.1
		c0.8-0.8,1.6-1.6,2.6-2.2c2-1.1,4.6-0.6,6.8,0"/>
	<path class="st1" d="M-268.1-279.6c-1.8-0.3-3.1-2.4-2.9-4.2c0.2-1.9,1.4-3.5,3-4.5c1.6-1.1,3.5-1.6,5.4-1.6"/>
	<path class="st1" d="M-259-286.3c-1.1-1.3-1.5-3.2-1-4.9c0.5-1.7,1.9-3,3.5-3.5c1.4-0.4,3-0.3,4.4-0.1"/>
	<path class="st1" d="M-241.1-287.7c-0.7-2.2-1.3-4.7-0.1-6.7c0.7-1.1,1.8-1.8,3.1-2"/>
	<path class="st1" d="M-247.3-292.9c-1.4-0.7-2.9-1.7-3.4-3.3c-0.7-1.7,0-3.8,1.4-5.1c1.3-1.3,3.2-1.9,5.1-2.2"/>
	<path class="st1" d="M-239.1-300.3c-1-0.5-1.7-1.4-2.1-2.4c-0.4-1-0.4-2.1-0.4-3.2c0-1,0.1-2,0.5-2.9c0.7-1.4,2-2.2,3.3-3"/>
	<path class="st1" d="M-278.6-284.2c-0.3-1.8-1.4-3.5-1.8-5.3c-0.5-2.2,0-4.7,1.5-6.4c1.4-1.8,3.7-2.8,6-2.7"/>
	<path class="st1" d="M-267.1-293.1c-0.9-0.5-1.7-1.1-2.4-1.7c-0.6-0.5-1.2-1.1-1.5-1.8c-0.5-1.2-0.1-2.5,0.3-3.6
		c0.5-1.2,1.2-2.4,2.3-3.3c1-0.8,2.5-1.3,3.8-1"/>
	<path class="st1" d="M-257.5-300.9c-1.3-0.7-2.8-1.5-3.4-2.9c-0.3-0.6-0.3-1.4-0.2-2.1c0.3-3.5,3.2-6.6,6.6-7.2"/>
	<path class="st1" d="M-246.5-308.2c-1.4-0.2-2.5-1.4-2.8-2.8c-0.3-1.4,0-2.8,0.3-4.2"/>
	<path class="st1" d="M-288.9-273.3c-0.5-0.8-1-1.6-1.5-2.5c-0.9-1.4-1.8-2.9-1.9-4.5c-0.1-2.3,1.4-4.4,3.2-5.7
		c1.5-1.2,3.3-1.9,5.2-2.3"/>
	<path class="st1" d="M-300.1-261.4c-1.7-0.4-3.3-1.2-4.4-2.6s-1.7-3.1-1.4-4.9c0.2-1.2,0.9-2.3,1.7-3.3c2.1-2.6,5.1-4.8,8.5-4.7"/>
	<path class="st1" d="M-303.2-252.7c0.3-2.5,2.3-4.7,4.7-5.1c0.5-0.1,1-0.1,1.5,0c0.6,0.2,1.1,0.6,1.5,1c0.7,0.7,1.2,1.5,1.6,2.4"/>
	<path class="st1" d="M-312.4-257.3c-0.1-1.8,0.2-3.6,0.9-5.3c0.2-0.4,0.4-0.8,0.7-1.1c0.9-0.9,2.3-0.9,3.5-0.8"/>
	<path class="st1" d="M-319.4-265.2c-0.4-1.2-0.6-2.6,0-3.7c0.5-1,1.6-1.6,2.7-1.9c1.4-0.4,2.9-0.4,4.4,0"/>
	<path class="st1" d="M-309.5-269.5c-1-0.5-1.9-1.1-2.8-1.7c-0.8-0.6-1.6-1.2-2.2-2.1c-0.6-0.8-0.9-1.9-0.6-2.8
		c0.2-0.9,0.9-1.6,1.6-2.2c1.3-1,2.9-1.6,4.4-2.2c1.2-0.5,2.5-1,3.7-1.4"/>
	<path class="st1" d="M-299.9-281c-0.5-0.8-0.9-1.7-1.4-2.5c-0.7-1.3-1.5-2.8-1.2-4.2c0.1-0.8,0.5-1.5,1-2.1
		c0.5-0.8,1.1-1.5,1.8-2.1c2.1-1.6,5.1-1.4,7.7-2.1"/>
	<path class="st1" d="M-287.6-292.5c-1.8-0.8-2.6-3.1-2-4.9c0.6-1.9,2.3-3.2,4.1-3.8c1.9-0.6,3.9-0.6,5.8-0.3"/>
	<path class="st1" d="M-277.1-301.6c-1.2-0.3-2.2-1.4-2.4-2.6s0.5-2.5,1.5-3.2"/>
	<path class="st1" d="M-307-285.1c-1.2-0.4-2.4-0.9-3.5-1.5c-0.6-0.3-1.3-0.8-1.3-1.5"/>
	<path class="st1" d="M-346.8-257.7c3.3-4.3,8.3-7.1,13.7-7.9"/>
	<path class="st1" d="M-348.2-267.9c3.8-1,7.9-1.3,11.8-0.9"/>
	<path class="st1" d="M-335.1-274.5c-4.5-0.7-8.5-3.7-10.4-7.8"/>
	<path class="st1" d="M-264.4-233.3c2-1.3,4.3-2,6.6-2.2"/>
	<path class="st1" d="M-259.6-232.3c0.6-0.8,1.4-1.4,2.3-1.9"/>
	<path class="st1" d="M-308-244.8c1.4-0.8,2.8-1.5,4.4-2"/>
	<path class="st1" d="M-308.5-247.5c1.3-0.5,2.8-0.7,4.2-0.7c-0.2,0-0.3,0-0.5,0"/>
	<path class="st1" d="M-316.3-290.3c-0.6-1.8-2.2-3.1-4-3.4"/>
	<path class="st1" d="M-317.8-289.7c-2-0.8-4.2-1.2-6.4-1.3"/>
	<path class="st1" d="M-322.8-287.6c-0.8-0.5-1.7-1-2.5-1.6"/>
	<path class="st1" d="M-286-307.2c-0.7-1.2-1.8-2.2-3-2.9c-2-1.2-4.4-1.5-6.7-1.9"/>
	<path class="st1" d="M-292.3-306c-3.3-1.7-6.5-3.6-9.5-5.7"/>
	<path class="st1" d="M-296.9-301.8c-2.2-0.1-4.3-1.2-5.6-2.9"/>
	<g>
		<path class="st1" d="M-259.1-267.5c-2.8-1.7-5.2-4.5-5.4-7.7c-0.1-3.6,2.7-6.8,5.9-8.4c6.4-3.1,14.2-1.6,20.7,1.1
			c0.5,0.2,1,0.4,1.4,0.8c0.6,0.6,0.8,1.6,0.8,2.5c0.2,3.2-0.2,6.5-1.3,9.5c-1.1,3.1-2.2,3.8-5.4,4.6
			C-247.9-263.5-254.1-264.4-259.1-267.5z"/>
		<path class="st1" d="M-237.6-271.7c-4.2,2.4-9.2,3.2-13.9,2.2"/>
		<path class="st1" d="M-237.5-274.5c-2.6,0.2-5.3,0.1-7.9-0.4"/>
		<path class="st1" d="M-237.3-278c-3.3-2.1-7.3-2.5-11.1-2.6"/>
	</g>
</g>
<g>
	<path class="st0" d="M-790.8-20.7c-2.1,2.1-4.7,3.7-7.6,4.2c-4.2,0.7-8.8-1.3-11.1-4.9c-1.3-2-1.9-4.3-2.5-6.6
		c-1-3.7-1.9-7.5-1.1-11.2c0.4-1.8,1.2-3.4,2-5.1c0.8-1.6,1.7-3.3,3-4.6c1.3-1.3,2.9-2.2,4.7-2.8c2.3-0.9,5.1-1.3,7.1,0.1
		c0.8,0.5,1.4,1.3,1.9,2c1.9,2.4,3.9,4.8,5.8,7.2c0.4,0.5,0.7,0.9,0.9,1.5c0.3,0.8,0.1,1.7,0.1,2.5c-0.1,1.8,0.3,3.5,0.7,5.2
		c0.4,1.4,1.4,3.4,1.1,4.9C-786.3-25.6-789-22.5-790.8-20.7z"/>
	<path class="st0" d="M-718.6-37.9c0.2-5.5,0.5-11.1,0.9-16.6c0.2-4.4,0.5-8.8,0.7-13.2c0-0.5,0.1-1,0.4-1.3
		c0.3-0.3,0.8-0.2,1.3-0.1c16.1,2.4,32.6,5,46.5,13.4c1.6,1,3.2,2,4.5,3.3c1.6,1.6,2.8,3.6,3.7,5.7c3.2,6.8,4.2,15,0.8,21.7
		c-2.1,4-5.6,7.2-9.4,9.5s-8.2,3.9-12.5,5.4c-1.8,0.6-3.7,1.2-5.5,1.7c-3.6,0.8-7.3,1-10.9,1.1c-3.5,0.1-7,0.2-10.5,0.2
		c-1.7,0-3.5,0-5.2,0c-1.3,0-3.8,0.5-5-0.1c-1.9-0.8-0.6-6.6-0.5-8.4c0.1-3.6,0.3-7.1,0.4-10.7C-718.9-30.1-718.8-34-718.6-37.9z"/>
	<path class="st1" d="M-685.1-35.9c1.4-2.8,2.2-6.1,1.1-9.1c-1.3-3.6-5.2-5.7-8.8-7c-1.4-0.5-2.9-0.9-4.4-0.9
		c-2.5,0-4.9,1.2-6.5,3.1c-1.6,1.9-2.3,4.5-2,7c0.3,2.4,1.6,4.6,3,6.6c1,1.4,2,2.8,3.5,3.6c2.3,1.4,5.6,1.5,8.1,0.6
		C-688.8-32.8-686.3-33.5-685.1-35.9z"/>
	<path class="st2" d="M-692.5-41.4c0.5-0.5,0.7-1.5,0.3-2.1c-0.5-1-1.8-1.2-2.9-1.1c-0.2,0-0.5,0-0.7,0.2c-0.1,0.1-0.2,0.2-0.3,0.4
		c-0.4,0.8-0.3,1.9,0.3,2.5c0.6,0.7,1.7,0.9,2.5,0.6"/>
	<path class="st0" d="M-740.4-10.6c-8.2-1.8-16.5-3.5-24.2-6.7c-7.7-3.1-14.8-7.6-21.8-12c-1.5-1-3.2-2-3.9-3.7
		c-0.8-1.8-0.5-4,0.5-5.7s2.5-3.1,4.1-4.3c6.4-5.1,13.5-9,20.7-13c5.8-3.2,11.6-6.4,17.8-8.8c9.6-3.7,20.1-5.4,30.4-4.8
		c-1.7,3.4-0.6,7.5-0.5,11.3c0.1,2.9-0.5,5.7-0.8,8.6c-1.4,11.2-0.1,22.7-1.5,33.9c-0.2,1.8-0.5,3.7-0.4,5.5
		c0.1,2.3,0.1,2.6-2.3,2.5c-2.1-0.1-4.2-0.3-6.2-0.6C-732.5-8.9-736.5-9.8-740.4-10.6z"/>
	<path class="st0" d="M-771.5-14.3c-0.7,0.2-1.5,0.4-2.3,0.2c-0.7-0.2-1.3-0.6-1.9-1.1c-0.2-0.2-0.4-0.3-0.6-0.5
		c-0.2-0.3-0.2-0.7-0.2-1c-0.1-1-0.1-2,0.3-2.9c0.6-1.1,2-1.7,3.3-1.6c1.6,0.1,6,1.6,6.5,3.3C-765.7-15.5-770.1-14.7-771.5-14.3z"/>
	<path class="st0" d="M-734.7-5.3c-1.6,0.5-3.4,0.7-5,1.2c-0.7,0.2-1.4,0.6-2.1,0.7s-1.6,0-2.1-0.6c-0.3-0.3-0.5-0.8-0.6-1.3
		c-0.3-1.3-0.2-2.8,0.7-3.8c1.1-1.2,2.9-1.2,4.5-1c2.1,0.2,5.9,0.2,7.7,1.4C-729.8-7.5-733.5-5.7-734.7-5.3z"/>
	<path class="st0" d="M-757.2-67.1c-1.9-1-4-1.4-6.1-1.7c-2.7-0.4-5.5-0.6-8.2-0.6c-1.2,0-2.5,0.1-3.7,0.6c-0.4,0.2-0.8,0.5-1,0.9
		c-0.2,0.4-0.2,0.8-0.1,1.3c0.4,4,2.3,7.8,5.2,10.5c1,0.9,2.3,1.8,3.6,1.3c0.5-0.2,0.8-0.5,1.2-0.8c3-2.3,6.4-3.7,9.8-5.2
		c1.3-0.6,3.3-1.3,2.9-3.1C-754-65.2-756-66.5-757.2-67.1z"/>
	<path class="st0" d="M-786.4-54.7c-0.5,0-1.1,0.2-1.5,0.5c-0.8,0.6-1.1,1.6-1.1,2.6c0,1.6,0.6,3.3,1.7,4.5c1.1,1.2,2.6,2.1,4.3,2.2
		c0.3,0,1.1-0.1,0.9-0.1c-0.9,0.1,0.5-0.3,0.7-0.4c1.4-1.2,6.5-3.9,4.3-6.1C-779.2-53.5-783.7-54.9-786.4-54.7z"/>
	<path class="st1" d="M-722.6-19.7c-2.2-0.8-4.2-2.5-4.6-4.8c0-0.3-0.1-0.5,0-0.8c0.1-0.3,0.3-0.5,0.5-0.7c0.6-0.7,1.1-1.3,1.8-1.8
		c0.7-0.5,1.6-0.9,2.4-0.8"/>
	<path class="st1" d="M-736.3-31.2c-1.7,0.1-3.3,0.8-4.5,2c-0.3,0.3-0.5,0.6-0.7,1c-0.1,0.3-0.2,0.7-0.1,1.1c0,1.1,0.4,2.2,1.1,3
		c1,1.3,3.4,3,5.1,2.3c2-0.8,3-2.5,5.5-1.9"/>
	<path class="st1" d="M-743.7-26.4c-0.9-0.4-1.8-0.7-2.7-1.2c-0.8-0.5-1.5-1.3-1.9-2.2c-0.3-0.7-0.3-1.4-0.2-2.1
		c0.1-1.4,0.4-2.9,1.3-4.1c0.9-1.2,2.3-2,3.7-1.8"/>
	<path class="st1" d="M-747.7-14.2c-1.4-0.4-2.6-1.6-2.9-3.1c-0.2-1.2,0.2-2.5,0.9-3.6c0.7-1,1.7-1.8,2.8-2.4
		c0.7-0.4,1.4-0.6,2.1-0.7c0.9-0.1,1.7,0.1,2.5,0.3"/>
	<path class="st1" d="M-730.9-13.2c-0.9-0.8-1.8-1.7-2.7-2.5c-0.4-0.4-0.9-0.7-1.4-1c-0.8-0.4-1.7-0.3-2.6-0.3c-1,0-2.1,0.1-3,0.6
		c-0.9,0.5-1.5,1.7-1.1,2.6"/>
	<path class="st1" d="M-728.1-10c0.1-1.2-0.3-2.4-0.3-3.7c0.1-2.1,1.8-4,3.8-4.4"/>
	<path class="st1" d="M-753.6-18.9c-0.8,0.2-1.6-0.3-2.2-0.8c-1-0.8-1.8-1.8-2.3-3s-0.5-2.6,0.1-3.7c0.8-1.4,2.3-2.1,3.8-2.7
		c1.3-0.5,2.8-1.1,4.2-0.7"/>
	<path class="st1" d="M-760-25c-1-0.3-1.9-0.9-2.6-1.5c-0.6-0.6-1.2-1.3-1.3-2.1c-0.1-1.1,0.6-2.2,1.4-3c1.3-1.3,3.1-2.3,4.9-2.8"/>
	<path class="st1" d="M-752.9-32.5c-0.7-0.9-1.5-1.7-2-2.8c-0.5-1-0.6-2.3-0.1-3.3c0.5-0.9,1.4-1.6,2.2-2.3c0.6-0.6,1.2-1.2,1.9-1.6
		c1.5-0.8,3.4-0.4,5.1,0"/>
	<path class="st1" d="M-742.9-41.6c-1.4-0.3-2.3-1.8-2.2-3.1c0.1-1.4,1.1-2.6,2.2-3.4c1.2-0.8,2.6-1.2,4-1.2"/>
	<path class="st1" d="M-736.2-46.6c-0.8-1-1.1-2.4-0.7-3.6c0.4-1.2,1.4-2.3,2.6-2.6c1.1-0.3,2.2-0.2,3.3,0"/>
	<path class="st1" d="M-722.9-47.6c-0.5-1.6-0.9-3.5,0-4.9c0.5-0.8,1.4-1.4,2.3-1.5"/>
	<path class="st1" d="M-727.5-51.5c-1.1-0.5-2.1-1.3-2.6-2.4c-0.5-1.3,0-2.8,1-3.8c1-1,2.4-1.4,3.8-1.6"/>
	<path class="st1" d="M-721.4-56.9c-0.7-0.3-1.2-1-1.5-1.8c-0.3-0.8-0.3-1.6-0.3-2.4c0-0.7,0.1-1.5,0.4-2.2c0.5-1,1.5-1.7,2.5-2.2"
		/>
	<path class="st1" d="M-750.7-45c-0.2-1.4-1-2.6-1.4-3.9c-0.4-1.6,0-3.5,1.1-4.8c1.1-1.3,2.8-2.1,4.5-2"/>
	<path class="st1" d="M-742.2-51.6c-0.6-0.4-1.2-0.8-1.8-1.3c-0.4-0.4-0.9-0.8-1.1-1.4c-0.3-0.9-0.1-1.8,0.2-2.7
		c0.4-0.9,0.9-1.8,1.7-2.4c0.8-0.6,1.8-1,2.8-0.7"/>
	<path class="st1" d="M-735.1-57.4c-1-0.5-2.1-1.1-2.5-2.1c-0.2-0.5-0.2-1-0.2-1.5c0.2-2.6,2.3-4.9,4.9-5.3"/>
	<path class="st1" d="M-726.9-62.8c-1-0.1-1.8-1.1-2.1-2.1c-0.2-1,0-2.1,0.2-3.1"/>
	<path class="st1" d="M-758.4-36.9c-0.4-0.6-0.8-1.2-1.1-1.8c-0.6-1-1.3-2.1-1.4-3.3c-0.1-1.7,1-3.2,2.4-4.2
		c1.1-0.9,2.5-1.4,3.9-1.7"/>
	<path class="st1" d="M-766.7-28c-1.3-0.3-2.5-0.9-3.3-1.9c-0.8-1-1.3-2.3-1-3.6c0.2-0.9,0.7-1.7,1.3-2.5c1.5-2,3.8-3.5,6.3-3.5"/>
	<path class="st1" d="M-769-21.6c0.2-1.8,1.7-3.5,3.5-3.8c0.4-0.1,0.8-0.1,1.1,0c0.4,0.1,0.8,0.4,1.1,0.7c0.5,0.5,0.9,1.1,1.2,1.8"
		/>
	<path class="st1" d="M-775.8-25c-0.1-1.3,0.1-2.7,0.6-3.9c0.1-0.3,0.3-0.6,0.5-0.8c0.6-0.7,1.7-0.7,2.6-0.6"/>
	<path class="st1" d="M-781.1-30.9c-0.3-0.9-0.4-1.9,0-2.7c0.4-0.7,1.2-1.2,2-1.4c1.1-0.3,2.2-0.3,3.2,0"/>
	<path class="st1" d="M-773.7-34.1c-0.7-0.4-1.4-0.8-2.1-1.3c-0.6-0.4-1.2-0.9-1.6-1.5c-0.4-0.6-0.6-1.4-0.4-2.1
		c0.2-0.7,0.7-1.2,1.2-1.6c1-0.8,2.1-1.2,3.3-1.7c0.9-0.4,1.8-0.7,2.7-1.1"/>
	<path class="st1" d="M-766.6-42.6c-0.3-0.6-0.7-1.2-1-1.9c-0.5-1-1.1-2-0.9-3.1c0.1-0.6,0.4-1.1,0.7-1.6c0.4-0.6,0.8-1.1,1.4-1.6
		c1.6-1.2,3.8-1.1,5.7-1.6"/>
	<path class="st1" d="M-757.4-51.2c-1.3-0.6-1.9-2.3-1.5-3.7c0.4-1.4,1.7-2.4,3.1-2.9c1.4-0.5,2.9-0.4,4.3-0.2"/>
	<path class="st1" d="M-749.7-57.9c-0.9-0.2-1.6-1-1.8-1.9c-0.1-0.9,0.3-1.9,1.1-2.3"/>
	<path class="st1" d="M-771.8-45.6c-0.9-0.3-1.7-0.7-2.6-1.1c-0.5-0.2-1-0.6-0.9-1.1"/>
	<path class="st1" d="M-801.4-25.3c2.5-3.2,6.2-5.3,10.2-5.8"/>
	<path class="st1" d="M-802.4-32.9c2.9-0.7,5.8-1,8.8-0.7"/>
	<path class="st1" d="M-792.7-37.8c-3.3-0.5-6.3-2.8-7.7-5.8"/>
	<path class="st1" d="M-740.2-7.2c1.5-0.9,3.2-1.5,4.9-1.6"/>
	<path class="st1" d="M-736.7-6.5c0.5-0.6,1-1.1,1.7-1.4"/>
	<path class="st1" d="M-772.6-15.8c1-0.6,2.1-1.1,3.2-1.5"/>
	<path class="st1" d="M-772.9-17.7c1-0.4,2-0.5,3.1-0.5c-0.1,0-0.2,0-0.4,0"/>
	<path class="st1" d="M-778.7-49.5c-0.4-1.3-1.6-2.3-3-2.5"/>
	<path class="st1" d="M-779.8-49.1c-1.5-0.6-3.1-0.9-4.7-0.9"/>
	<path class="st1" d="M-783.6-47.5c-0.6-0.4-1.2-0.8-1.9-1.2"/>
	<path class="st1" d="M-756.3-62c-0.6-0.9-1.3-1.6-2.2-2.1c-1.5-0.9-3.3-1.1-5-1.4"/>
	<path class="st1" d="M-760.9-61.2c-2.4-1.3-4.8-2.7-7.1-4.2"/>
	<path class="st1" d="M-764.3-58.1c-1.6-0.1-3.2-0.9-4.2-2.1"/>
	<g>
		<path class="st1" d="M-736.3-32.6c-2-1.3-3.9-3.3-4-5.7c-0.1-2.7,2-5,4.4-6.2c4.8-2.3,10.5-1.2,15.4,0.8c0.4,0.2,0.7,0.3,1,0.6
			c0.5,0.5,0.6,1.2,0.6,1.9c0.2,2.4-0.2,4.8-1,7.1c-0.8,2.3-1.6,2.8-4,3.4C-727.9-29.6-732.6-30.3-736.3-32.6z"/>
		<path class="st1" d="M-720.3-35.8c-3.1,1.8-6.8,2.4-10.3,1.7"/>
		<path class="st1" d="M-720.3-37.8c-1.9,0.2-3.9,0.1-5.8-0.3"/>
		<path class="st1" d="M-720.1-40.4c-2.4-1.5-5.4-1.9-8.3-1.9"/>
	</g>
</g>
<g>
	<path class="st3" d="M-1019.3-260.9c0,0-2.5-0.1-2.8,1.3c-0.3,1.4-0.5,2.7,1.2,3.4c1.6,0.6,2.1,0.4,2.1,0.4L-1019.3-260.9z"/>
	<path class="st3" d="M-972-266.9c0,0,2-3.8,3.5-4.4c1.5-0.6,4.2-1.8,5.6-0.9c1.4,0.9,2.4,3.1,0.4,4.6c-2,1.5-3.6,2.6-3.6,3.2
		s0.3,1.5,1.1,1.7s2.7,1.9,2,3.2c-0.7,1.3-1.1,2.5-3.8,2.2c-2.7-0.4-6.2-3.6-6.2-3.6l-0.4-4.4L-972-266.9z"/>
	<path class="st3" d="M-1003.7-272.6c0,0-2.7,0.1-5,0.9c-2.2,0.7-8.3,4.6-9.4,7.1c-1.1,2.5-1.3,2.6-1.2,3.7c0.1,1.1,0.2,4.9,1,5.6
		c0.8,0.7,3,2.3,7.3,2.5c4.3,0.2,8.2,0.1,12.8,0c4.6-0.1,12.8-0.1,16.7-2.7c3.9-2.7,8-5.4,8-5.4s3-2.8,2.7-3.5
		c-0.2-0.8-2.4-3.4-6.8-4.8c-4.3-1.5-9.9-3.4-13.8-3.4C-995.4-272.6-1003.7-272.6-1003.7-272.6z"/>
	<path class="st3" d="M-1008.6-272c0,0,1.3-3.1,3.3-4.5c1.9-1.5,4.7-2.6,6-1.9c1.3,0.7,2.2,2.7,2.2,4.3s-0.3,1.7-0.3,1.7
		s-10.5,0-11.2,0.8C-1008.9-271.5-1008.6-272-1008.6-272z"/>
	<path class="st3" d="M-1006.2-252.4c0,0-0.6,1.1-0.6,2.2c0.1,1-0.5,3.5,0.7,4.1c1.2,0.6,4.6-0.1,5.2-1.7c0.6-1.6,1.5-4.5,1.3-4.8
		C-999.6-252.9-1006.2-252.4-1006.2-252.4z"/>
	<path class="st3" d="M-997.5-252.5c0,0-0.5,2.8,0,3.6c0.5,0.8,1.2,2.3,2.8,2.4s3.1-0.5,3.1-2.2c0.1-1.7-0.5-3.8-0.5-3.8l-0.1-0.2
		L-997.5-252.5z"/>
	<path class="st3" d="M-993.7-269.5c0,0,4.2,0.3,1.5,2.2"/>
	<path class="st3" d="M-987.2-267.6c0,0,1.4,0.5,0.3,1.2"/>
	<path class="st3" d="M-982.7-266.4c0,0,2,1,0.7,1.6"/>
	<path class="st3" d="M-993.2-264.9c0,0,1.1-0.4,1.4,0.4s0.6,1.1-0.7,1.2"/>
	<path class="st3" d="M-992.9-261.6c0,0,1.6-0.3,1.4,0.7c-0.2,1,0.1,1-0.8,1"/>
	<path class="st3" d="M-993.4-257.2c0,0,1.3,0.1,0.9,0.7c-0.5,0.5-1.2,1-1.2,1"/>
	<path class="st3" d="M-986.9-265c0,0,0.6,0.4,0.6,0.8s-0.6,0.8-0.6,0.8"/>
	<path class="st3" d="M-986.6-261.6c0,0,1.3,0.2,1.2,0.7c-0.2,0.5,0.1,1.5-0.9,1.7"/>
	<path class="st3" d="M-1003.7-272.6c0,0,4.1,2.7,4.2,7.6c0.1,4.9-1.1,9.8-4.2,12.3"/>
	<path class="st3" d="M-1008.3-267.9c0,0-2.8,0.4-3.2,1.4c-0.4,1-1.9,3.6-0.6,6.1s4.6,1.8,6,1.3s4.2-2.5,3.6-4.8
		C-1003.2-266.2-1003.8-268.1-1008.3-267.9z"/>
	<ellipse class="st4" cx="-1007.8" cy="-262.8" rx="0.7" ry="0.9"/>
</g>
<g>
	<path class="st3" d="M-608.3-104c0,0,2.5-0.1,2.8,1.3c0.3,1.4,0.5,2.7-1.2,3.4c-1.6,0.6-2.1,0.4-2.1,0.4L-608.3-104z"/>
	<path class="st3" d="M-655.6-110.1c0,0-2-3.8-3.5-4.4s-4.2-1.8-5.6-0.9c-1.4,0.9-2.4,3.1-0.4,4.6c2,1.5,3.6,2.6,3.6,3.2
		c-0.1,0.6-0.3,1.5-1.1,1.7c-0.8,0.3-2.7,1.9-2,3.2c0.7,1.3,1.1,2.5,3.8,2.2c2.7-0.4,6.2-3.6,6.2-3.6l0.4-4.4L-655.6-110.1z"/>
	<path class="st3" d="M-624-115.8c0,0,2.7,0.1,5,0.9c2.2,0.7,8.3,4.6,9.4,7.1c1.1,2.5,1.3,2.6,1.2,3.7s-0.2,4.9-1,5.6
		c-0.8,0.7-3,2.3-7.3,2.5c-4.3,0.2-8.2,0.1-12.8,0c-4.6-0.1-12.8-0.1-16.7-2.7c-3.9-2.7-8-5.4-8-5.4s-3-2.8-2.7-3.5
		c0.2-0.8,2.4-3.4,6.8-4.8c4.3-1.5,9.9-3.4,13.8-3.4C-632.3-115.8-624-115.8-624-115.8z"/>
	<path class="st3" d="M-619.1-115.1c0,0-1.3-3.1-3.3-4.5c-1.9-1.5-4.7-2.6-6-1.9c-1.3,0.7-2.2,2.7-2.2,4.3c0.1,1.6,0.3,1.7,0.3,1.7
		s10.5,0,11.2,0.8C-618.8-114.6-619.1-115.1-619.1-115.1z"/>
	<path class="st3" d="M-621.5-95.5c0,0,0.6,1.1,0.6,2.2c-0.1,1,0.5,3.5-0.7,4.1c-1.2,0.6-4.6-0.1-5.2-1.7s-1.5-4.5-1.3-4.8
		S-621.5-95.5-621.5-95.5z"/>
	<path class="st3" d="M-630.1-95.7c0,0,0.5,2.8,0,3.6c-0.5,0.8-1.2,2.3-2.8,2.4c-1.6,0.1-3.1-0.5-3.1-2.2s0.5-3.8,0.5-3.8l0.1-0.2
		L-630.1-95.7z"/>
	<path class="st3" d="M-633.9-112.7c0,0-4.2,0.3-1.5,2.2"/>
	<path class="st3" d="M-640.4-110.8c0,0-1.4,0.5-0.3,1.2"/>
	<path class="st3" d="M-644.9-109.6c0,0-2,1-0.7,1.6"/>
	<path class="st3" d="M-634.5-108c0,0-1.1-0.4-1.4,0.4c-0.4,0.7-0.6,1.1,0.7,1.2"/>
	<path class="st3" d="M-634.8-104.7c0,0-1.6-0.3-1.4,0.7c0.2,1-0.1,1,0.8,1"/>
	<path class="st3" d="M-634.3-100.4c0,0-1.3,0.1-0.9,0.7c0.5,0.5,1.2,1,1.2,1"/>
	<path class="st3" d="M-640.8-108.1c0,0-0.6,0.4-0.6,0.8c0,0.4,0.6,0.8,0.6,0.8"/>
	<path class="st3" d="M-641.1-104.8c0,0-1.3,0.2-1.2,0.7s-0.1,1.5,0.9,1.7"/>
	<path class="st3" d="M-624-115.8c0,0-4.1,2.7-4.2,7.6s1.1,9.8,4.2,12.3"/>
	<path class="st3" d="M-619.4-111.1c0,0,2.8,0.4,3.2,1.4c0.4,1,1.9,3.6,0.6,6.1s-4.6,1.8-6,1.3s-4.2-2.5-3.6-4.8
		C-624.4-109.4-623.9-111.3-619.4-111.1z"/>
	<ellipse class="st4" cx="-619.9" cy="-105.9" rx="0.7" ry="0.9"/>
</g>
<g>
	<path class="st3" d="M77.5,26.4c0,0,2.5-0.1,2.8,1.3s0.5,2.7-1.2,3.4S77,31.5,77,31.5L77.5,26.4z"/>
	<path class="st3" d="M30.2,20.4c0,0-2-3.8-3.5-4.4s-4.2-1.8-5.6-0.9c-1.4,0.9-2.4,3.1-0.4,4.6c2,1.5,3.6,2.6,3.6,3.2
		c-0.1,0.6-0.3,1.5-1.1,1.7s-2.7,1.9-2,3.2c0.7,1.3,1.1,2.5,3.8,2.2s6.2-3.6,6.2-3.6l0.4-4.4L30.2,20.4z"/>
	<path class="st3" d="M61.8,14.7c0,0,2.7,0.1,5,0.9c2.2,0.7,8.3,4.6,9.4,7.1s1.3,2.6,1.2,3.7s-0.2,4.9-1,5.6c-0.8,0.7-3,2.3-7.3,2.5
		s-8.2,0.1-12.8,0s-12.8-0.1-16.7-2.7s-8-5.4-8-5.4s-3-2.8-2.7-3.5c0.2-0.8,2.4-3.4,6.8-4.8c4.3-1.5,9.9-3.4,13.8-3.4
		S61.8,14.7,61.8,14.7z"/>
	<path class="st3" d="M66.8,15.3c0,0-1.3-3.1-3.3-4.5c-1.9-1.5-4.7-2.6-6-1.9c-1.3,0.7-2.2,2.7-2.2,4.3c0.1,1.6,0.3,1.7,0.3,1.7
		s10.5,0,11.2,0.8C67.1,15.8,66.8,15.3,66.8,15.3z"/>
	<path class="st3" d="M64.4,34.9c0,0,0.6,1.1,0.6,2.2c-0.1,1,0.5,3.5-0.7,4.1s-4.6-0.1-5.2-1.7c-0.6-1.6-1.5-4.5-1.3-4.8
		C57.8,34.4,64.4,34.9,64.4,34.9z"/>
	<path class="st3" d="M55.7,34.8c0,0,0.5,2.8,0,3.6s-1.2,2.3-2.8,2.4c-1.6,0.1-3.1-0.5-3.1-2.2c-0.1-1.7,0.5-3.8,0.5-3.8l0.1-0.2
		L55.7,34.8z"/>
	<path class="st3" d="M51.9,17.8c0,0-4.2,0.3-1.5,2.2"/>
	<path class="st3" d="M45.4,19.7c0,0-1.4,0.5-0.3,1.2"/>
	<path class="st3" d="M40.9,20.8c0,0-2,1-0.7,1.6"/>
	<path class="st3" d="M51.4,22.4c0,0-1.1-0.4-1.4,0.4c-0.4,0.7-0.6,1.1,0.7,1.2"/>
	<path class="st3" d="M51.1,25.7c0,0-1.6-0.3-1.4,0.7c0.2,1-0.1,1,0.8,1"/>
	<path class="st3" d="M51.6,30c0,0-1.3,0.1-0.9,0.7c0.5,0.5,1.2,1,1.2,1"/>
	<path class="st3" d="M45.1,22.3c0,0-0.6,0.4-0.6,0.8s0.6,0.8,0.6,0.8"/>
	<path class="st3" d="M44.7,25.7c0,0-1.3,0.2-1.2,0.7c0.2,0.5-0.1,1.5,0.9,1.7"/>
	<path class="st3" d="M61.8,14.7c0,0-4.1,2.7-4.2,7.6c-0.1,4.9,1.1,9.8,4.2,12.3"/>
	<path class="st3" d="M66.5,19.3c0,0,2.8,0.4,3.2,1.4c0.4,1,1.9,3.6,0.6,6.1s-4.6,1.8-6,1.3c-1.4-0.5-4.2-2.5-3.6-4.8
		S62,19.2,66.5,19.3z"/>
	<ellipse class="st4" cx="66" cy="24.5" rx="0.7" ry="0.9"/>
</g>
</svg>
