<?xml version="1.0" encoding="utf-8"?>
<!-- Generator: Adobe Illustrator 22.0.1, SVG Export Plug-In . SVG Version: 6.00 Build 0)  -->
<svg version="1.1" id="Layer_1" xmlns="http://www.w3.org/2000/svg" xmlns:xlink="http://www.w3.org/1999/xlink" x="0px" y="0px"
	 viewBox="0 0 300 200" style="enable-background:new 0 0 300 200;" xml:space="preserve">
<style type="text/css">
	.st0{fill:none;stroke:#000000;stroke-width:16;stroke-linecap:round;stroke-linejoin:round;stroke-miterlimit:10;}
</style>
<g>
	<path class="st0" d="M36.2,42.2v62c0,0,1.5,30,0,40.5s-1.5,10.5-1.5,10.5"/>
	<path class="st0" d="M36.9,109.5c0,0-0.2-7.7,7.8-10.7s21.5-3.5,25,8s1.5,42.6,3.5,46.5c2,4,2,4,2,4"/>
	<path class="st0" d="M130.7,152c0,0-6.3,9.8-15,8.8s-18.8-3.3-24.3-21.3c-2-6.6-1.5-12.7-0.1-17.8c2.5-8.8,7.8-14.5,7.8-14.5
		s6-7.3,14.5-5s14.8,5.3,14.1,11.3s-0.7,12.6-14.7,13.6c-14,1-24.7-4.4-34.7-9.9"/>
	<path class="st0" d="M146,39.2c0,0,1.8,1.5,1.8,6s-2.5,34.5-0.9,54.5s3.1,50.5,6.1,53.5s5.8,6.8,11,4s5.3-2.8,5.3-2.8"/>
	<path class="st0" d="M184.2,39.2c0,0,2,5.3,1.5,10S184,88.3,185,96.9s2.7,46.6,4,51.3s3.8,10.5,7.3,11.3s9.3-3.5,10-4.3"/>
	<path class="st0" d="M244,100.7c0,0-3.8-0.8-8.8,5s-16.3,17.5-13.8,31.5s5,21.2,12.8,22.3c7.8,1.2,19.8,0.7,26-7.3
		s11.5-19.8,7.8-28.7S260.7,99,244,100.7z"/>
</g>
</svg>
