<?xml version="1.0" encoding="utf-8"?>
<!-- Generator: Adobe Illustrator 22.0.1, SVG Export Plug-In . SVG Version: 6.00 Build 0)  -->
<svg version="1.1" id="Layer_1" xmlns="http://www.w3.org/2000/svg" xmlns:xlink="http://www.w3.org/1999/xlink" x="0px" y="0px"
	 viewBox="0 0 500 500" style="enable-background:new 0 0 500 500;" xml:space="preserve">
<style type="text/css">
	.st0{fill:#FFFFFF;stroke:#FFFFFF;stroke-linecap:round;stroke-linejoin:round;stroke-miterlimit:10;}
	.st1{fill:#FFFFFF;stroke:#FFFFFF;stroke-miterlimit:10;}
</style>
<g>
	<path class="st0" d="M45,248.9c0,0,31.1,7.3,38,13.9"/>
	<path class="st0" d="M37.8,286.7c0,0,35.1,2.3,43.8,2.3"/>
	<path class="st0" d="M374.9,375.7c25.7-22.5,37.5-70.4,31.2-102.2c-8.2-40.8-33.8-73.4-38-80.6c3.1-30.3,2.7-58.8-7-80.5
		s-21.9-22.2-35.1-12.3c-13,9.8-21.4,33.4-30.8,62c-38.7-9-83.8-1.6-83.8-1.6c-7.8-36.7-27.5-67.1-40.6-68.3
		c-20.1-1.9-24,11.8-31.8,43.8c-5.1,20.8-2.4,57.6-2.4,57.6s-32.5,40.2-39.2,71.4c-12.3,56.6,12.7,93.5,25.8,104.9
		c37.5,32.7,64.7,38.8,131.8,38.5C327.3,408,353.4,394.4,374.9,375.7z"/>
	<path class="st0" d="M463.6,273.3c0,0-30.6,9.2-39.8,7"/>
	<path class="st0" d="M450.9,237c0,0-27.1,13.1-35.8,23.2"/>
</g>
<g>
	<path class="st1" d="M218.4,264.2c0.5,2.4-0.9,4.4-4.1,6.1c-6.9,3.7-12.9,7-18,10c-5.1,3-11.1,6.5-18,10.4c4.4,3.5,9,7.2,13.7,11
		c4.7,3.8,9.5,7.9,14.2,12.1c2.3,2,3.1,4.1,2.3,6.3c-0.8,2.2-2.4,2.3-5,0.3c-6-4.9-11.6-9.4-17.1-13.4c-5.4-4-11.5-8.4-18.2-13.2
		c-0.9-0.8-1.5-1.9-1.8-3.3c-0.3-1.4,0.3-2.6,1.8-3.5c8.5-4.7,16.2-8.9,23-12.5c6.8-3.6,14.5-7.6,23-12
		C216.6,261.2,218,261.8,218.4,264.2z"/>
	<path class="st1" d="M278.6,249.5c1.8,2.2,2.2,4.2,1.1,5.8c-9.8,16.3-18.1,30.5-25,42.4c-6.9,11.9-14.9,26.1-24,42.6
		c-1.1,2-2.7,2.4-4.8,1.4c-2.1-1.1-2.7-2.5-1.6-4.4c9-16.5,16.8-30.7,23.4-42.6c6.6-11.9,14.7-26,24.5-42.4
		C274.7,248.3,276.8,247.3,278.6,249.5z"/>
	<path class="st1" d="M283.7,317c-0.5-2.3,0.9-4.3,4.1-6c6.9-3.7,12.9-7,18-10c5.1-3,11.1-6.4,18-10.4c-4.4-3.5-9-7.2-13.7-11
		c-4.7-3.8-9.5-7.9-14.2-12.1c-2.3-2.1-3-4.3-2.2-6.5c0.8-2.2,2.5-2.3,4.9-0.1c6,4.9,11.6,9.4,17.1,13.4c5.4,4,11.5,8.4,18.2,13.2
		c0.9,0.6,1.5,1.7,1.8,3.2c0.3,1.5-0.3,2.7-1.8,3.7c-8.4,4.7-16,8.9-22.9,12.5c-6.9,3.6-14.6,7.6-23.1,12
		C285.5,319.9,284.1,319.3,283.7,317z"/>
</g>
</svg>
