<?xml version="1.0" encoding="utf-8"?>
<!-- Generator: Adobe Illustrator 22.0.1, SVG Export Plug-In . SVG Version: 6.00 Build 0)  -->
<svg version="1.1" id="Layer_1" xmlns="http://www.w3.org/2000/svg" xmlns:xlink="http://www.w3.org/1999/xlink" x="0px" y="0px"
	 viewBox="0 0 455 338.5" style="enable-background:new 0 0 455 338.5;" xml:space="preserve">
<style type="text/css">
	.st0{fill:none;stroke:#010101;stroke-width:2;stroke-linecap:round;stroke-linejoin:round;stroke-miterlimit:10;}
	.st1{fill:#010101;}
	.st2{enable-background:new    ;}
	.st3{fill:#FFFFFF;}
</style>
<g>
	<g>
		<path class="st0" d="M19.5,169.9c0,0,31.1,7.3,38,13.9"/>
		<path class="st0" d="M12.3,207.7c0,0,35.1,2.3,43.8,2.3"/>
		<path class="st1" d="M349.4,296.7c25.7-22.5,37.5-70.4,31.2-102.2c-8.2-40.8-33.8-73.4-38-80.6c3.1-30.3,2.7-58.8-7-80.5
			s-21.9-22.2-35.1-12.3c-13,9.8-21.4,33.4-30.8,62c-38.7-9-83.8-1.6-83.8-1.6c-7.8-36.7-27.5-67.1-40.6-68.3
			c-20.1-1.9-24,11.8-31.8,43.8c-5.1,20.8-2.4,57.6-2.4,57.6S78.6,154.8,71.9,186c-12.3,56.6,12.7,93.5,25.8,104.9
			c37.5,32.7,64.7,38.8,131.8,38.5C301.8,329,327.9,315.4,349.4,296.7z"/>
		<path class="st0" d="M438.1,194.3c0,0-30.6,9.2-39.8,7"/>
		<path class="st0" d="M425.4,158c0,0-27.1,13.1-35.8,23.2"/>
	</g>
	<g class="st2">
		<path class="st3" d="M192.9,185.2c0.5,2.4-0.9,4.4-4.1,6.1c-6.9,3.7-12.9,7-18,10s-11.1,6.5-18,10.4c4.4,3.5,9,7.2,13.7,11
			s9.5,7.9,14.2,12.1c2.3,2,3.1,4.1,2.3,6.3c-0.8,2.2-2.4,2.3-5,0.3c-6-4.9-11.6-9.4-17.1-13.4c-5.4-4-11.5-8.4-18.2-13.2
			c-0.9-0.8-1.5-1.9-1.8-3.3s0.3-2.6,1.8-3.5c8.5-4.7,16.2-8.9,23-12.5s14.5-7.6,23-12C191.1,182.2,192.5,182.8,192.9,185.2z"/>
		<path class="st3" d="M253.1,170.5c1.8,2.2,2.2,4.2,1.1,5.8c-9.8,16.3-18.1,30.5-25,42.4c-6.9,11.9-14.9,26.1-24,42.6
			c-1.1,2-2.7,2.4-4.8,1.4c-2.1-1.1-2.7-2.5-1.6-4.4c9-16.5,16.8-30.7,23.4-42.6c6.6-11.9,14.7-26,24.5-42.4
			C249.2,169.3,251.3,168.3,253.1,170.5z"/>
		<path class="st3" d="M258.2,238c-0.5-2.3,0.9-4.3,4.1-6c6.9-3.7,12.9-7,18-10s11.1-6.4,18-10.4c-4.4-3.5-9-7.2-13.7-11
			s-9.5-7.9-14.2-12.1c-2.3-2.1-3-4.3-2.2-6.5s2.5-2.3,4.9-0.1c6,4.9,11.6,9.4,17.1,13.4c5.4,4,11.5,8.4,18.2,13.2
			c0.9,0.6,1.5,1.7,1.8,3.2s-0.3,2.7-1.8,3.7c-8.4,4.7-16,8.9-22.9,12.5s-14.6,7.6-23.1,12C260,240.9,258.6,240.3,258.2,238z"/>
	</g>
</g>
</svg>
