<?xml version="1.0" encoding="utf-8"?>
<!-- Generator: Adobe Illustrator 22.0.1, SVG Export Plug-In . SVG Version: 6.00 Build 0)  -->
<svg version="1.1" id="Layer_1" xmlns="http://www.w3.org/2000/svg" xmlns:xlink="http://www.w3.org/1999/xlink" x="0px" y="0px"
	 viewBox="0 0 800 600" style="enable-background:new 0 0 800 600;" xml:space="preserve">
<style type="text/css">
	.st0{fill:none;stroke:#000000;stroke-width:5;stroke-linecap:round;stroke-linejoin:round;stroke-miterlimit:10;}
	.st1{fill:#FFFFFF;stroke:#000000;stroke-miterlimit:10;}
	.st2{fill:none;stroke:#FFFFFF;stroke-width:5;stroke-linecap:round;stroke-linejoin:round;stroke-miterlimit:10;}
	.st3{fill:#FFFFFF;stroke:#000000;stroke-width:5;stroke-linecap:round;stroke-linejoin:round;stroke-miterlimit:10;}
</style>
<path class="st0" d="M37,298.8c0,0,55,13,67.2,24.6"/>
<path class="st0" d="M24.3,365.7c0,0,62,4.1,77.4,4.1"/>
<path d="M620.7,523.2c45.4-39.7,66.4-124.6,55.1-180.8c-14.4-72.3-59.9-130-67.2-142.7c5.6-53.6,4.8-104-12.4-142.5
	S557.4,18,534.1,35.6c-23,17.4-37.9,59.2-54.6,109.6c-68.5-15.9-148.4-2.8-148.4-2.8c-13.8-64.9-48.6-118.7-71.8-120.8
	c-35.2-3.3-42.2,20.9-56,77.4c-9,36.9-4.3,101.9-4.3,101.9s-57.5,71.2-69.4,126.3c-21.8,100.2,22.5,165.4,45.7,185.6
	c66.3,57.8,114.4,68.6,233.2,68.1C536.5,580.4,582.8,556.4,620.7,523.2z"/>
<path class="st0" d="M777.7,342.1c0,0-54.1,16.3-70.5,12.4"/>
<path class="st0" d="M755.2,277.8c0,0-48,23.2-63.4,41"/>
<path class="st1" d="M438,298.9c0,0,4.7,4.2,13.6,0.6c8.8-3.6,60.7-21.5,80.7-21.3c20,0.1,47.1-6.6,36-15s-55.8-17.6-94.3,2.4
	C459.9,273,436.6,288.4,438,298.9z"/>
<path class="st1" d="M328,265.6c-38.5-20-83.2-10.8-94.3-2.4c-11.1,8.4,16,15.1,36,15c20-0.2,71.9,17.7,80.7,21.3
	c8.9,3.6,13.6-0.6,13.6-0.6C365.4,288.4,342.1,273,328,265.6z"/>
<path class="st1" d="M585.5,61.4c-1.8-6.3-25.8-44.7-53.6-3.3c-12.3,18.4-41.7,72.9-42.3,84c-0.7,10.9-3.2,22,33.9,31.8
	c43.6,11.5,88.9,24.2,70-77.2C591.6,86.2,589.6,68.7,585.5,61.4z"/>
<path class="st1" d="M299.2,79.7c0,0-9.5-16.1-21-25.2c-15.1-12.1-36.9-23.6-52,17c-7.7,20.8-7.7,76.7-6.5,87.7
	c1.1,10.8,0.1,29.5,43,17.7C314.3,162.6,345.4,169.9,299.2,79.7z"/>
<g>
	<path class="st2" d="M419,354.5c0,0-18,20.1-35.9,0"/>
	<path class="st2" d="M399.1,364.5c0,0,7.4,13.9-1.2,32.9c0,0-7.3,13.1-13.6,12.2"/>
	<path class="st2" d="M398.5,398.5c0,0,4.8,9.1,15.8,11.4"/>
</g>
<path class="st3" d="M514.5,123.3c-13,7.2-26.6,18.5-27.9,31.2"/>
<path class="st3" d="M323.9,152.1c-7.9-24.1-27.9-36.1-25.8-35"/>
</svg>
