<?xml version="1.0" encoding="utf-8"?>
<!-- Generator: Adobe Illustrator 22.0.1, SVG Export Plug-In . SVG Version: 6.00 Build 0)  -->
<svg version="1.1" id="Layer_1" xmlns="http://www.w3.org/2000/svg" xmlns:xlink="http://www.w3.org/1999/xlink" x="0px" y="0px"
	 viewBox="0 0 300 200" style="enable-background:new 0 0 300 200;" xml:space="preserve">
<style type="text/css">
	.st0{fill:#FFFFFF;stroke:#010101;stroke-linecap:round;stroke-linejoin:round;stroke-miterlimit:10;}
	.st1{fill:none;stroke:#010101;stroke-linecap:round;stroke-linejoin:round;stroke-miterlimit:10;}
	.st2{fill:#010101;}
	.st3{fill:#FFFFFF;stroke:#231F20;stroke-miterlimit:10;}
	.st4{fill:#231F20;}
	.st5{fill:#FFFFFF;stroke:#000000;stroke-miterlimit:10;}
	.st6{fill:none;stroke:#000000;stroke-miterlimit:10;}
</style>
<g>
	<g>
		<path class="st0" d="M41.2,160c-2.1,2.1-4.7,3.7-7.6,4.2c-4.2,0.7-8.8-1.3-11.1-4.9c-1.3-2-1.9-4.3-2.5-6.6
			c-1-3.7-1.9-7.5-1.1-11.2c0.4-1.8,1.2-3.4,2-5.1c0.8-1.6,1.7-3.3,3-4.6c1.3-1.3,2.9-2.2,4.7-2.8c2.3-0.9,5.1-1.3,7.1,0.1
			c0.8,0.5,1.4,1.3,1.9,2c1.9,2.4,3.9,4.8,5.8,7.2c0.4,0.5,0.7,0.9,0.9,1.5c0.3,0.8,0.1,1.7,0.1,2.5c-0.1,1.8,0.3,3.5,0.7,5.2
			c0.4,1.4,1.4,3.4,1.1,4.9C45.8,155.1,43,158.2,41.2,160z"/>
		<path class="st0" d="M113.4,142.8c0.2-5.5,0.5-11.1,0.9-16.6c0.2-4.4,0.5-8.8,0.7-13.2c0-0.5,0.1-1,0.4-1.3
			c0.3-0.3,0.8-0.2,1.3-0.1c16.1,2.4,32.6,5,46.5,13.4c1.6,1,3.2,2,4.5,3.3c1.6,1.6,2.8,3.6,3.7,5.7c3.2,6.8,4.2,15,0.8,21.7
			c-2.1,4-5.6,7.2-9.4,9.5c-3.9,2.3-8.2,3.9-12.5,5.4c-1.8,0.6-3.7,1.2-5.5,1.7c-3.6,0.8-7.3,1-10.9,1.1c-3.5,0.1-7,0.2-10.5,0.2
			c-1.7,0-3.5,0-5.2,0c-1.3,0-3.8,0.5-5-0.1c-1.9-0.8-0.6-6.6-0.5-8.4c0.1-3.6,0.3-7.1,0.4-10.7
			C113.1,150.6,113.3,146.7,113.4,142.8z"/>
		<path class="st1" d="M147,144.8c1.4-2.8,2.2-6.1,1.1-9.1c-1.3-3.6-5.2-5.7-8.8-7c-1.4-0.5-2.9-0.9-4.4-0.9c-2.5,0-4.9,1.2-6.5,3.1
			c-1.6,1.9-2.3,4.5-2,7c0.3,2.4,1.6,4.6,3,6.6c1,1.4,2,2.8,3.5,3.6c2.3,1.4,5.6,1.5,8.1,0.6C143.3,147.9,145.8,147.2,147,144.8z"/>
		<path class="st2" d="M139.5,139.3c0.5-0.5,0.7-1.5,0.3-2.1c-0.5-1-1.8-1.2-2.9-1.1c-0.2,0-0.5,0-0.7,0.2c-0.1,0.1-0.2,0.2-0.3,0.4
			c-0.4,0.8-0.3,1.9,0.3,2.5c0.6,0.7,1.7,0.9,2.5,0.6"/>
		<path class="st0" d="M91.6,170.1c-8.2-1.8-16.5-3.5-24.2-6.7c-7.7-3.1-14.8-7.6-21.8-12c-1.5-1-3.2-2-3.9-3.7
			c-0.8-1.8-0.5-4,0.5-5.7c1-1.7,2.5-3.1,4.1-4.3c6.4-5.1,13.5-9,20.7-13c5.8-3.2,11.6-6.4,17.8-8.8c9.6-3.7,20.1-5.4,30.4-4.8
			c-1.7,3.4-0.6,7.5-0.5,11.3c0.1,2.9-0.5,5.7-0.8,8.6c-1.4,11.2-0.1,22.7-1.5,33.9c-0.2,1.8-0.5,3.7-0.4,5.5
			c0.1,2.3,0.1,2.6-2.3,2.5c-2.1-0.1-4.2-0.3-6.2-0.6C99.5,171.8,95.6,170.9,91.6,170.1z"/>
		<path class="st0" d="M60.5,166.4c-0.7,0.2-1.5,0.4-2.3,0.2c-0.7-0.2-1.3-0.6-1.9-1.1c-0.2-0.2-0.4-0.3-0.6-0.5
			c-0.2-0.3-0.2-0.7-0.2-1c-0.1-1-0.1-2,0.3-2.9c0.6-1.1,2-1.7,3.3-1.6c1.6,0.1,6,1.6,6.5,3.3C66.3,165.2,61.9,166,60.5,166.4z"/>
		<path class="st0" d="M97.3,175.4c-1.6,0.5-3.4,0.7-5,1.2c-0.7,0.2-1.4,0.6-2.1,0.7s-1.6,0-2.1-0.6c-0.3-0.3-0.5-0.8-0.6-1.3
			c-0.3-1.3-0.2-2.8,0.7-3.8c1.1-1.2,2.9-1.2,4.5-1c2.1,0.2,5.9,0.2,7.7,1.4C102.2,173.1,98.6,175,97.3,175.4z"/>
		<path class="st0" d="M74.8,113.6c-1.9-1-4-1.4-6.1-1.7c-2.7-0.4-5.5-0.6-8.2-0.6c-1.2,0-2.5,0.1-3.7,0.6c-0.4,0.2-0.8,0.5-1,0.9
			c-0.2,0.4-0.2,0.8-0.1,1.3c0.4,4,2.3,7.8,5.2,10.5c1,0.9,2.3,1.8,3.6,1.3c0.5-0.2,0.8-0.5,1.2-0.8c3-2.3,6.4-3.7,9.8-5.2
			c1.3-0.6,3.3-1.3,2.9-3.1C78,115.5,76,114.2,74.8,113.6z"/>
		<path class="st0" d="M45.6,126c-0.5,0-1.1,0.2-1.5,0.5c-0.8,0.6-1.1,1.6-1.1,2.6c0,1.6,0.6,3.3,1.7,4.5c1.1,1.2,2.6,2.1,4.3,2.2
			c0.3,0,1.1-0.1,0.9-0.1c-0.9,0.1,0.5-0.3,0.7-0.4c1.4-1.2,6.5-3.9,4.3-6.1C52.8,127.2,48.4,125.8,45.6,126z"/>
		<path class="st1" d="M109.5,161c-2.2-0.8-4.2-2.5-4.6-4.8c0-0.3-0.1-0.5,0-0.8c0.1-0.3,0.3-0.5,0.5-0.7c0.6-0.7,1.1-1.3,1.8-1.8
			c0.7-0.5,1.6-0.9,2.4-0.8"/>
		<path class="st1" d="M95.7,149.5c-1.7,0.1-3.3,0.8-4.5,2c-0.3,0.3-0.5,0.6-0.7,1c-0.1,0.3-0.2,0.7-0.1,1.1c0,1.1,0.4,2.2,1.1,3
			c1,1.3,3.4,3,5.1,2.3c2-0.8,3-2.5,5.5-1.9"/>
		<path class="st1" d="M88.3,154.3c-0.9-0.4-1.8-0.7-2.7-1.2c-0.8-0.5-1.5-1.3-1.9-2.2c-0.3-0.7-0.3-1.4-0.2-2.1
			c0.1-1.4,0.4-2.9,1.3-4.1s2.3-2,3.7-1.8"/>
		<path class="st1" d="M84.3,166.5c-1.4-0.4-2.6-1.6-2.9-3.1c-0.2-1.2,0.2-2.5,0.9-3.6c0.7-1,1.7-1.8,2.8-2.4
			c0.7-0.4,1.4-0.6,2.1-0.7c0.9-0.1,1.7,0.1,2.5,0.3"/>
		<path class="st1" d="M101.1,167.5c-0.9-0.8-1.8-1.7-2.7-2.5c-0.4-0.4-0.9-0.7-1.4-1c-0.8-0.4-1.7-0.3-2.6-0.3c-1,0-2.1,0.1-3,0.6
			c-0.9,0.5-1.5,1.7-1.1,2.6"/>
		<path class="st1" d="M104,170.7c0.1-1.2-0.3-2.4-0.3-3.7c0.1-2.1,1.8-4,3.8-4.4"/>
		<path class="st1" d="M78.5,161.8c-0.8,0.2-1.6-0.3-2.2-0.8c-1-0.8-1.8-1.8-2.3-3c-0.5-1.2-0.5-2.6,0.1-3.7
			c0.8-1.4,2.3-2.1,3.8-2.7c1.3-0.5,2.8-1.1,4.2-0.7"/>
		<path class="st1" d="M72,155.7c-1-0.3-1.9-0.9-2.6-1.5c-0.6-0.6-1.2-1.3-1.3-2.1c-0.1-1.1,0.6-2.2,1.4-3c1.3-1.3,3.1-2.3,4.9-2.8"
			/>
		<path class="st1" d="M79.1,148.2c-0.7-0.9-1.5-1.7-2-2.8s-0.6-2.3-0.1-3.3c0.5-0.9,1.4-1.6,2.2-2.3c0.6-0.6,1.2-1.2,1.9-1.6
			c1.5-0.8,3.4-0.4,5.1,0"/>
		<path class="st1" d="M89.1,139.1c-1.4-0.3-2.3-1.8-2.2-3.1c0.1-1.4,1.1-2.6,2.2-3.4c1.2-0.8,2.6-1.2,4-1.2"/>
		<path class="st1" d="M95.8,134.1c-0.8-1-1.1-2.4-0.7-3.6c0.4-1.2,1.4-2.3,2.6-2.6c1.1-0.3,2.2-0.2,3.3,0"/>
		<path class="st1" d="M109.1,133.1c-0.5-1.6-0.9-3.5,0-4.9c0.5-0.8,1.4-1.4,2.3-1.5"/>
		<path class="st1" d="M104.5,129.2c-1.1-0.5-2.1-1.3-2.6-2.4c-0.5-1.3,0-2.8,1-3.8s2.4-1.4,3.8-1.6"/>
		<path class="st1" d="M110.6,123.7c-0.7-0.3-1.2-1-1.5-1.8s-0.3-1.6-0.3-2.4c0-0.7,0.1-1.5,0.4-2.2c0.5-1,1.5-1.7,2.5-2.2"/>
		<path class="st1" d="M81.3,135.7c-0.2-1.4-1-2.6-1.4-3.9c-0.4-1.6,0-3.5,1.1-4.8c1.1-1.3,2.8-2.1,4.5-2"/>
		<path class="st1" d="M89.8,129.1c-0.6-0.4-1.2-0.8-1.8-1.3c-0.4-0.4-0.9-0.8-1.1-1.4c-0.3-0.9-0.1-1.8,0.2-2.7
			c0.4-0.9,0.9-1.8,1.7-2.4c0.8-0.6,1.8-1,2.8-0.7"/>
		<path class="st1" d="M97,123.3c-1-0.5-2.1-1.1-2.5-2.1c-0.2-0.5-0.2-1-0.2-1.5c0.2-2.6,2.3-4.9,4.9-5.3"/>
		<path class="st1" d="M105.1,117.9c-1-0.1-1.8-1.1-2.1-2.1c-0.2-1,0-2.1,0.2-3.1"/>
		<path class="st1" d="M73.7,143.8c-0.4-0.6-0.8-1.2-1.1-1.8c-0.6-1-1.3-2.1-1.4-3.3c-0.1-1.7,1-3.2,2.4-4.2
			c1.1-0.9,2.5-1.4,3.9-1.7"/>
		<path class="st1" d="M65.4,152.6c-1.3-0.3-2.5-0.9-3.3-1.9c-0.8-1-1.3-2.3-1-3.6c0.2-0.9,0.7-1.7,1.3-2.5c1.5-2,3.8-3.5,6.3-3.5"
			/>
		<path class="st1" d="M63,159.1c0.2-1.8,1.7-3.5,3.5-3.8c0.4-0.1,0.8-0.1,1.1,0c0.4,0.1,0.8,0.4,1.1,0.7c0.5,0.5,0.9,1.1,1.2,1.8"
			/>
		<path class="st1" d="M56.2,155.7c-0.1-1.3,0.1-2.7,0.6-3.9c0.1-0.3,0.3-0.6,0.5-0.8c0.6-0.7,1.7-0.7,2.6-0.6"/>
		<path class="st1" d="M51,149.8c-0.3-0.9-0.4-1.9,0-2.7c0.4-0.7,1.2-1.2,2-1.4c1.1-0.3,2.2-0.3,3.2,0"/>
		<path class="st1" d="M58.3,146.6c-0.7-0.4-1.4-0.8-2.1-1.3c-0.6-0.4-1.2-0.9-1.6-1.5c-0.4-0.6-0.6-1.4-0.4-2.1
			c0.2-0.7,0.7-1.2,1.2-1.6c1-0.8,2.1-1.2,3.3-1.7c0.9-0.4,1.8-0.7,2.7-1.1"/>
		<path class="st1" d="M65.5,138.1c-0.3-0.6-0.7-1.2-1-1.9c-0.5-1-1.1-2-0.9-3.1c0.1-0.6,0.4-1.1,0.7-1.6c0.4-0.6,0.8-1.1,1.4-1.6
			c1.6-1.2,3.8-1.1,5.7-1.6"/>
		<path class="st1" d="M74.6,129.5c-1.3-0.6-1.9-2.3-1.5-3.7c0.4-1.4,1.7-2.4,3.1-2.9s2.9-0.4,4.3-0.2"/>
		<path class="st1" d="M82.4,122.7c-0.9-0.2-1.6-1-1.8-1.9c-0.1-0.9,0.3-1.9,1.1-2.3"/>
		<path class="st1" d="M60.2,135.1c-0.9-0.3-1.7-0.7-2.6-1.1c-0.5-0.2-1-0.6-0.9-1.1"/>
		<path class="st1" d="M30.7,155.4c2.5-3.2,6.2-5.3,10.2-5.8"/>
		<path class="st1" d="M29.6,147.8c2.9-0.7,5.8-1,8.8-0.7"/>
		<path class="st1" d="M39.3,142.9c-3.3-0.5-6.3-2.8-7.7-5.8"/>
		<path class="st1" d="M91.8,173.5c1.5-0.9,3.2-1.5,4.9-1.6"/>
		<path class="st1" d="M95.4,174.2c0.5-0.6,1-1.1,1.7-1.4"/>
		<path class="st1" d="M59.5,164.9c1-0.6,2.1-1.1,3.2-1.5"/>
		<path class="st1" d="M59.1,163c1-0.4,2-0.5,3.1-0.5c-0.1,0-0.2,0-0.4,0"/>
		<path class="st1" d="M53.3,131.2c-0.4-1.3-1.6-2.3-3-2.5"/>
		<path class="st1" d="M52.2,131.6c-1.5-0.6-3.1-0.9-4.7-0.9"/>
		<path class="st1" d="M48.5,133.2c-0.6-0.4-1.2-0.8-1.9-1.2"/>
		<path class="st1" d="M75.8,118.7c-0.6-0.9-1.3-1.6-2.2-2.1c-1.5-0.9-3.3-1.1-5-1.4"/>
		<path class="st1" d="M71.1,119.5c-2.4-1.3-4.8-2.7-7.1-4.2"/>
		<path class="st1" d="M67.7,122.6c-1.6-0.1-3.2-0.9-4.2-2.1"/>
		<g>
			<path class="st1" d="M95.8,148.1c-2-1.3-3.9-3.3-4-5.7c-0.1-2.7,2-5,4.4-6.2c4.8-2.3,10.5-1.2,15.4,0.8c0.4,0.2,0.7,0.3,1,0.6
				c0.5,0.5,0.6,1.2,0.6,1.9c0.2,2.4-0.2,4.8-1,7.1c-0.8,2.3-1.6,2.8-4,3.4C104.1,151.1,99.5,150.4,95.8,148.1z"/>
			<path class="st1" d="M111.7,144.9c-3.1,1.8-6.8,2.4-10.3,1.7"/>
			<path class="st1" d="M111.8,142.9c-1.9,0.2-3.9,0.1-5.8-0.3"/>
			<path class="st1" d="M111.9,140.3c-2.4-1.5-5.4-1.9-8.3-1.9"/>
		</g>
	</g>
	<g>
		<path class="st3" d="M259.5,44.5c0,0,2.5-0.1,2.8,1.3c0.3,1.4,0.5,2.7-1.2,3.4c-1.6,0.6-2.1,0.4-2.1,0.4L259.5,44.5z"/>
		<path class="st3" d="M212.2,38.5c0,0-2-3.8-3.5-4.4s-4.2-1.8-5.6-0.9c-1.4,0.9-2.4,3.1-0.4,4.6c2,1.5,3.6,2.6,3.6,3.2
			c-0.1,0.6-0.3,1.5-1.1,1.7c-0.8,0.3-2.7,1.9-2,3.2c0.7,1.3,1.1,2.5,3.8,2.2c2.7-0.4,6.2-3.6,6.2-3.6l0.4-4.4L212.2,38.5z"/>
		<path class="st3" d="M243.9,32.8c0,0,2.7,0.1,5,0.9c2.2,0.7,8.3,4.6,9.4,7.1c1.1,2.5,1.3,2.6,1.2,3.7c-0.1,1.1-0.2,4.9-1,5.6
			c-0.8,0.7-3,2.3-7.3,2.5c-4.3,0.2-8.2,0.1-12.8,0c-4.6-0.1-12.8-0.1-16.7-2.7c-3.9-2.7-8-5.4-8-5.4s-3-2.8-2.7-3.5
			c0.2-0.8,2.4-3.4,6.8-4.8c4.3-1.5,9.9-3.4,13.8-3.4S243.9,32.8,243.9,32.8z"/>
		<path class="st3" d="M248.8,33.4c0,0-1.3-3.1-3.3-4.5c-1.9-1.5-4.7-2.6-6-1.9s-2.2,2.7-2.2,4.3c0.1,1.6,0.3,1.7,0.3,1.7
			s10.5,0,11.2,0.8C249.1,34,248.8,33.4,248.8,33.4z"/>
		<path class="st3" d="M246.4,53.1c0,0,0.6,1.1,0.6,2.2c-0.1,1,0.5,3.5-0.7,4.1s-4.6-0.1-5.2-1.7c-0.6-1.6-1.5-4.5-1.3-4.8
			C239.8,52.6,246.4,53.1,246.4,53.1z"/>
		<path class="st3" d="M237.7,52.9c0,0,0.5,2.8,0,3.6s-1.2,2.3-2.8,2.4c-1.6,0.1-3.1-0.5-3.1-2.2c-0.1-1.7,0.5-3.8,0.5-3.8l0.1-0.2
			L237.7,52.9z"/>
		<path class="st3" d="M233.9,35.9c0,0-4.2,0.3-1.5,2.2"/>
		<path class="st3" d="M227.4,37.8c0,0-1.4,0.5-0.3,1.2"/>
		<path class="st3" d="M222.9,39c0,0-2,1-0.7,1.6"/>
		<path class="st3" d="M233.4,40.6c0,0-1.1-0.4-1.4,0.4c-0.4,0.7-0.6,1.1,0.7,1.2"/>
		<path class="st3" d="M233.1,43.9c0,0-1.6-0.3-1.4,0.7c0.2,1-0.1,1,0.8,1"/>
		<path class="st3" d="M233.6,48.2c0,0-1.3,0.1-0.9,0.7c0.5,0.5,1.2,1,1.2,1"/>
		<path class="st3" d="M227.1,40.5c0,0-0.6,0.4-0.6,0.8c0,0.4,0.6,0.8,0.6,0.8"/>
		<path class="st3" d="M226.8,43.8c0,0-1.3,0.2-1.2,0.7c0.2,0.5-0.1,1.5,0.9,1.7"/>
		<path class="st3" d="M243.9,32.8c0,0-4.1,2.7-4.2,7.6c-0.1,4.9,1.1,9.8,4.2,12.3"/>
		<path class="st3" d="M248.5,37.5c0,0,2.8,0.4,3.2,1.4s1.9,3.6,0.6,6.1c-1.3,2.6-4.6,1.8-6,1.3s-4.2-2.5-3.6-4.8
			C243.4,39.2,244,37.3,248.5,37.5z"/>
		<ellipse class="st4" cx="248" cy="42.7" rx="0.7" ry="0.9"/>
	</g>
	<g>
		<circle class="st5" cx="275.6" cy="29.9" r="6.3"/>
		<circle class="st5" cx="182" cy="124.3" r="6.3"/>
		<circle class="st5" cx="140.5" cy="55.6" r="25.9"/>
		<circle class="st5" cx="181" cy="91.6" r="14.7"/>
		<path class="st6" d="M156.7,47.3c3.3,6.7,2.7,15.1-1.5,21.2"/>
		<path class="st6" d="M141.3,75.3c2.4,0.5,4.9-0.3,6.6-2"/>
		<path class="st6" d="M190.6,89.3c1,4.5-1.3,9.6-5.3,11.9"/>
		<path class="st6" d="M183.3,84.7c1-0.2,2.2,0.4,2.7,1.3"/>
	</g>
</g>
</svg>
