<?xml version="1.0" encoding="utf-8"?>
<!-- Generator: Adobe Illustrator 22.0.1, SVG Export Plug-In . SVG Version: 6.00 Build 0)  -->
<svg version="1.1" id="Layer_1" xmlns="http://www.w3.org/2000/svg" xmlns:xlink="http://www.w3.org/1999/xlink" x="0px" y="0px"
	 viewBox="0 0 500 500" style="enable-background:new 0 0 500 500;" xml:space="preserve">
<style type="text/css">
	.st0{fill:#010101;}
	.st1{fill:none;stroke:#FFFFFF;stroke-width:2;stroke-linecap:round;stroke-linejoin:round;stroke-miterlimit:10;}
	.st2{fill:none;stroke:#FFFFFF;stroke-width:2;stroke-miterlimit:10;}
	.st3{fill:none;stroke:#010101;stroke-linecap:round;stroke-linejoin:round;stroke-miterlimit:10;}
	.st4{fill:#FFFFFF;}
	.st5{fill:#FFFFFF;stroke:#010101;stroke-miterlimit:10;}
	.st6{fill:#FFFFFF;stroke:#010101;stroke-linecap:round;stroke-linejoin:round;stroke-miterlimit:10;}
	.st7{fill:none;stroke:#FFFFFF;stroke-linecap:round;stroke-linejoin:round;stroke-miterlimit:10;}
	.st8{fill:none;stroke:#231F20;stroke-miterlimit:10;}
	.st9{opacity:0.5;fill:#FFFFFF;stroke:#231F20;stroke-miterlimit:10;}
	.st10{fill:none;stroke:#FFFFFF;stroke-miterlimit:10;}
	.st11{fill:#FFFFFF;stroke:#231F20;stroke-miterlimit:10;}
	.st12{fill:#231F20;}
</style>
<g>
	<g>
		<path class="st0" d="M217.1,315c-59.5,2.7-77.6,57.1-80.7,60.8c-3,3.7-7.1,4.2-7.1,4.2l-14.3-5.4c0,0-2.2-4.5-6.6-4.7
			c-8-0.4-8.5,7.2-8.5,7.2s-5.9-2.9-8,2.8c-2.8,7.9,4.1,8.8,4.1,8.8s-4.8,0.8-3.6,7.3c1.1,5.7,11.7,6.5,20.1,9.6s28,3,34,4.7
			s19.2-11.5,19.2-11.5s4.4-8.8,15.8,1s75.1,12.5,75.1,12.5l19.5,11.5c0,0,0.7,7.7-2.7,7.4c-3.4-0.3-16.2,8.8-20.9,15.2
			c-4.7,6.4-0.7,18.9,5.2,19.9c-0.2,14.8,8.3,10.4,10.3,11.8c2,1.3,6.4,3.4,12.1,0c5.7-3.4,4-13.5,7.1-18.9
			c3-5.4,17.2-9.1,42.8-11.8s37.4-23.2,50.2-46.5c12.8-23.2,6.7-47.8,6.7-54.9c0-7.1-1.7-48.2-3-65c-1.3-16.8-7.1-24.3-9.1-31.3
			s-5.4-12.1-5.4-16.2c18.9-17,4.1-55.4,4.1-55.4s3.6-18,4.3-23.1c0.7-5.1-1.7-14.5-2.7-15.2c-1-0.7-11.5-1.3-25.9,9.8
			c-21.2-11.8-47.5-8.1-47.5-9.1s-12.9-18.3-18.5-17.9c-6,0.5-8.4,10.6-7.6,32.7c-34.4,35.1-16.9,65-16.9,65
			c-14.8,8.4-24.1,25.4-30.4,40.6c-6.6,15.7-11.7,33.5-11.4,50.8L217.1,315z"/>
		<path class="st1" d="M337.5,281.3c0.4,10.6-0.1,21.8-5.6,30.9c-6,10-16.9,15.9-24.3,24.8c-1.9,2.3-3.6,5-3.3,7.9
			c0.2,2.9,3.4,5.6,6.1,4.4c-3.2,2.4-3.2,7.9,0,10.4s8.2,1.8,10.7-1.3c-1.3,3.4,1.1,7.5,4.5,8.8s7.4,0.4,10.6-1.4s5.8-4.5,8.6-6.9
			c6.6-5.8,14.1-10.5,20.6-16.4c6.4-6,11.9-13.7,12.6-22.4"/>
		<path class="st1" d="M276.6,309.5c6.3-1.6,12.8-3.2,19.2-1.9c4.9,1,9.2,3.7,13.5,6.4c2.1,1.3,4.3,2.7,6,4.5c1.7,1.8,3,4.3,2.9,6.8
			"/>
		<path class="st2" d="M304.7,347.6c-11.5,14.1-19.5,31-23.1,48.9c-1.9,9.2-2.6,18.7-5.3,27.6"/>
		<path class="st3" d="M79.4,410.1c-2.9,0.4-6.1,2.7-5.5,5.5c0.6,2.7,3.9,3.7,6.7,4.1c-0.7,1.2-0.2,2.9,0.8,3.8
			c1.1,0.9,2.5,1.3,3.9,1.4c3.5,0.4,7.1-0.1,10.7,0.1c4.9,0.3,9.5,2,14.3,3.1c3.5,0.8,7.3,1.2,10.6-0.1c3.3-1.4,5.9-5,5-8.5
			c-0.6-2.2-2.4-3.9-4.5-4.9c-2.1-1-4.3-1.3-6.6-1.6c-6-0.9-12-1.7-18-2.6C91.1,409.6,85.3,409.3,79.4,410.1z"/>
		<path class="st3" d="M191.7,425.6c-1.1,0.9-2.2,2.3-1.7,3.7c0.6,1.6,2.7,1.7,4.3,1.7c6.5-0.2,12.9,0.9,19.3,2
			c2.9,0.5,5.8,1.1,8.7,1.7c3,0.6,6.3,1.2,9.2,0.1c2.9-1.1,5.2-4.5,4-7.3c-1.3-3-5.2-3.5-8.4-3.7
			C215.6,423.1,201.6,417.5,191.7,425.6z"/>
		<path class="st3" d="M205,453.5c-4-1.2-8.6-1.2-12.2,1c-2.3,1.4-4,3.5-6.3,4.8c-2.6,1.6-5.7,2.1-8.4,3.3s-5.3,3.8-5.1,6.8
			c0.2,2,1.6,3.8,3.3,4.7c1.8,0.9,3.8,1.2,5.8,1.1c3.1-0.1,6.9-0.7,8.9,1.7c0.6,0.7,0.9,1.5,1.5,2.2c1,1.2,2.6,1.6,4.2,1.8
			c6.2,0.8,12.4-1.5,18.6-1.5c3.5,0,7.1,0.8,10.6,0.6c8.8-0.6,15.8-7.2,21.9-13.4c0.4-0.4,0.8-0.8,0.9-1.3c0.2-1.2-1.1-2-2.2-2.4
			c-3.7-1.3-7.7-1.8-11.6-1.5c-2.6,0.2-5.2,0.8-7.8,0.6C218.8,461.4,212.8,455.8,205,453.5z"/>
		<path class="st3" d="M259.9,481.8c-1.6-0.3-3.4-0.6-5,0s-2.8,2.5-2.1,4c0.2,0.5,0.7,1,1.1,1.3c0.5,0.5,1.1,0.9,1.7,1.2
			c1.7,0.8,3.6,0.3,5.3-0.4c1.7-0.7,3.3-1.6,5.1-1.9c1.1-0.2,2.5-0.1,3.1-1.1c0.7-1,0-2.5-0.9-3.3c-1.6-1.3-4-1.6-5.9-0.8
			c-1,0.4-2,1.2-3,0.9"/>
		<path class="st3" d="M63.5,429.8c-0.8,0-1.6,0-2.1,0.6c-0.6,0.6-0.6,1.7-0.5,2.5c0.2,1.4,0.3,2.8,0.5,4.1c0,0.2,0,0.4,0.1,0.5
			c0.1,0.3,0.4,0.4,0.7,0.5c3.2,1.3,7,0.7,9.7-1.4c0.9-0.7,1.8-1.8,1.6-2.9C73,430.2,66,429.8,63.5,429.8z"/>
		<path class="st3" d="M94.5,431.2c-1.2-0.1-2.3-0.1-3.5-0.1c-0.9,0-1.9,0.2-2.3,1c-0.3,0.6-0.1,1.4,0.4,2c1,1.1,2.6,1.1,4,1.1
			c1.9,0,3.9,0,5.8,0c0.5,0,1.1,0,1.5-0.4c0.6-0.5,0.4-1.5-0.1-2.1s-1.3-0.8-2.1-0.9c-1.6-0.4-3.3-0.6-4.9-0.7"/>
		<path class="st4" d="M109.7,383c-1.7,0.6-3.4,1.3-4.4,2.8c-0.7,1.1-0.9,2.4-1.1,3.7c-0.3,2.1-0.6,4.3-0.9,6.4
			c-0.1,0.6-0.1,1.3,0.2,1.7c0.4,0.5,1,0.6,1.6,0.7c2.8,0.5,5.8,0.9,8.2-0.6c1.9-1.2,2.9-3.2,3.8-5.2c1.1-2.4,2.8-6.7,0.5-9
			C115.6,381.5,111.9,382.1,109.7,383z"/>
		<path class="st4" d="M103.7,376.7c-0.2-0.9-0.2-1.8,0-2.6s0.8-1.6,1.6-2c0,0,0.1,0,0.1,0c1.1-0.4,2.3,0,3.1,0.9
			C111.8,376.9,104.4,380.1,103.7,376.7z"/>
		<path class="st4" d="M101.4,382.1c0.3-0.8-0.3-2.2-1-2.6s-2.6-0.6-3.5-0.4c-1.7,0.4-3.1,1.9-3.4,3.6c-0.4,1.7,1.8,4.1,3.5,4.2
			c1.2,0.1,2.3-0.8,3-1.8C100.6,384.1,101.4,382.1,101.4,382.1z"/>
		<path class="st4" d="M95.9,396.3c-0.4-1.2-0.7-2.7,0.1-3.7c0.7-1,2.2-1.3,3.2-0.6c1,0.6,1.5,2,1.1,3.2c-0.4,1.1-1.6,1.9-2.8,1.9
			C97.5,397,96,396.6,95.9,396.3z"/>
		<path class="st1" d="M263,449.8c1.2,1,1.7,2.6,1.6,4.1c-0.1,1.5-0.6,3-1.1,4.4c-0.6,1.6-1.3,3.2-2.3,4.6c-1,1.4-2.3,2.7-3.9,3.3"
			/>
		<path class="st1" d="M275.6,461.3c0.3,2.5,0,5-1,7.3c-0.5,1.2-1.2,2.4-1.9,3.6c-0.7,1.2-1.5,2.3-2.3,3.4c-0.7,0.8-1.4,1.6-2.4,1.9
			"/>
		<path class="st1" d="M263.6,277.7c-7.1,11.8-9.4,26.4-6.3,39.7c1.7,7.3,4.9,14.1,7.1,21.3c1.3,4.1,2.2,8.7,0.4,12.6
			c-1.8,3.9-7.4,6.1-10.6,3.2c1.1,0.4,1.5,1.7,1.2,2.8c-0.3,1.1-1.2,1.9-2.1,2.5c-1.9,1.2-4.3,1.8-6.4,1.1s-3.9-2.7-3.8-5
			c0.8,1.9-0.4,4.2-2.2,5.3c-1.8,1-4,1-6,0.5c-8.1-2-13.2-10.2-15.1-18.2c-2.1-9-3.2-19.5-3.4-28.7"/>
		<path class="st3" d="M116.7,417.5c1.5,0.5,2.7,2,2.8,3.5c0,0.5,0,1-0.2,1.4c-0.5,1-1.8,1.3-3,1.2c-1.1-0.1-2.2-0.6-3.3-0.8"/>
		<path class="st3" d="M232.4,428.4c0,1.2-1.3,1.9-2.4,2.2c-2.5,0.7-5.2,0.8-7.8,0.5"/>
		<path class="st3" d="M229.9,466.1c2.8-0.3,5.7-0.5,8.5-0.4c-1.4,4.6-5.1,8.3-9.7,9.8c-5.1,1.6-10.6,0.5-15.9,0.7"/>
		<path class="st3" d="M204.7,476.1c-1,0.3-2,0.5-3,0.8"/>
		<path class="st3" d="M194.9,427.6c0,0.2,0,0.5,0,0.7c0.9,0.1,1.9,0.1,2.8,0.1"/>
		<path class="st3" d="M71.1,433.6c0.7,0.9,0,2.3-1,2.8c-1,0.5-2.2,0.4-3.4,0.2"/>
		<path class="st4" d="M329.3,192.7c0,0,0.7,1,2.5,0.6s12-1.6,15.6-0.8s8.9,0.6,7.2-1.3c-1.7-2-9.5-5.4-17.4-3.2
			C334.3,188.8,329.4,190.8,329.3,192.7z"/>
		<ellipse transform="matrix(0.173 -0.9849 0.9849 0.173 91.3148 491.9777)" class="st0" cx="338.6" cy="191.6" rx="1.2" ry="0.4"/>
		<path class="st4" d="M310.3,190.6c0,0-2.1-0.3-3.6-1.3c-1.5-1-10.5-5.9-14.2-6.5c-3.7-0.6-8.5-2.7-6.2-3.9s11.2-1.8,17.4,3.5
			C309.8,187.7,310.9,188.7,310.3,190.6z"/>
		<ellipse transform="matrix(0.2066 -0.9784 0.9784 0.2066 57.651 441.3901)" class="st0" cx="301" cy="185.1" rx="1.2" ry="0.4"/>
		<path class="st5" d="M375.7,146.5c0-1.2-1-6.3-8.1-3c-3.6,1.6-11.7,8-12.4,9.9c-0.6,1.9,1.4,3.8,6.3,8.9c5.2,5.5,11.8,12,14.3-7.1
			C376,153.3,376,147.9,375.7,146.5z"/>
		<path class="st5" d="M292.3,136.9c0,0-1.6-2.6-3.7-4.1c-2.7-2-8.5-5.9-9.7,2.4c-0.5,3.6-1.9,12.2-1.8,14c0.1,1.7,0,6.3,7.8,3.1
			C294,148.5,301.4,148.7,292.3,136.9z"/>
		<g>
			<path class="st1" d="M321.2,202.2c0,0-4.9,3.6-7.9-1.7"/>
			<path class="st1" d="M316.3,203.5c0,0,1,3.4-1.8,7.2c0,0-2.2,2.5-3.6,2"/>
			<path class="st1" d="M314.6,210.9c0,0,0.6,2.2,2.9,3.2"/>
		</g>
		<path class="st3" d="M362.3,155.3c-0.7-0.3-5,1.7-5.8,3.6"/>
		<path class="st6" d="M295.2,149.1c-0.3-0.7-1.5-4.1-4.2-5.3"/>
		<g>
			<path class="st3" d="M246.7,170.5c0,0,7.7,6.1,8.8,9"/>
			<path class="st3" d="M239.6,180.7c0,0,9.5,5.2,11.9,6.3"/>
		</g>
		<g>
			<path class="st3" d="M397.3,202.2c0,0-9.4,3-12.3,2.3"/>
			<path class="st3" d="M393.4,190.4c0,0-8.3,4.3-11,7.5"/>
		</g>
		<path class="st7" d="M254.6,222.1c-2.1,5.7,7,14,11.8,17.7c12.6,9.5,29,12.1,44.7,13.5c17,1.6,34.7,2.3,50.5-4
			c2.1-0.8,4.2-1.8,5.7-3.4c1.6-1.6,4.4-4,3.8-6.1"/>
		<g>
			<path class="st8" d="M372.4,235c0,0,0.4,4-2.6,6.4c-6.4,5.1-33.7,8.3-53.7,7.2c-27-1.5-61-23.3-60.8-27.2c0.2-4,0-4.1,0-4.1
				s-10.2-5.8-20-19.8S219,168.3,219,168.3s-10.2-23.5-2.9-56.1s18.4-47.2,27.3-56.7s10.1-22.4,58.5-35.9c0.5-5.5,6-8.3,18.7-8.3
				c12.7-0.1,50.5,7.4,57.1,10.8c6.5,3.4,14.6,7.5,14.6,7.5s6.3,3.4,5.4,11c7,2.4,29.7,25.3,29.7,25.3s12.4,17.9,14.2,43.3
				c2,29.1,0.6,50.7-9.9,68C421.2,194.5,410.6,220.1,372.4,235z"/>
			<path class="st9" d="M260,79.5c0.3,0.1,9.5-0.1,12.8-5.2c3.3-5.1,0.9-4.6,7-10.6s5.2-7.7,11.6-10.4s6.4,1.7,11.6-4.4
				c5.2-6.2,7.8-6.9,5.8-10.5s-3.4-9.4-14.6-6.8s-22.9,6.1-29.9,15c-7,8.8-17.1,20-12,28.8C254.4,78.9,260,79.5,260,79.5z"/>
			<path class="st9" d="M234.2,146.6c0.1-0.1,3.7-3.7,3.1-6.9c-0.7-3.3-1.4-2.1-1.3-6.8c0.1-4.7-0.9-5,0.6-8.5
				c1.5-3.5,3.2-1.8,2.9-6.2c-0.3-4.4,0.4-5.7-1.7-6.4c-2.2-0.7-4.9-2.4-8.3,2.9s-6.7,11.2-6,17.3c0.6,6.1,0.9,14.4,6.3,15.9
				C231.8,148.4,234.2,146.6,234.2,146.6z"/>
			<path class="st9" d="M236.6,105.1c0.1,0,2.1-0.6,2.6-2.1c0.4-1.4-0.1-1.2,0.9-3s0.7-2.2,2-3.3c1.3-1.1,1.6,0,2.3-1.8
				s1.3-2.2,0.6-2.9c-0.7-0.7-1.4-2-3.7-0.7s-4.8,3-5.8,5.5c-1,2.6-2.6,5.9-0.9,7.7C235.3,105.3,236.6,105.1,236.6,105.1z"/>
			<path class="st8" d="M395.9,38.9c0,0-8.4-6.6-18.7-8.5s-43.3-8.2-44.7-8.3c-1.4-0.1-23.5-3.7-28.6-3.1"/>
			<path class="st9" d="M369.9,231.8c0,0,2.4-0.1,2.9-3.6c0.5-3.5,2.9-6.5-1.7-10.5s-18.5-13.2-26.4-8.8
				c-7.9,4.3-12.1,10.7-12.9,13.1c-0.9,2.4,13.2,3,13.5,3.1C345.5,225.1,369.9,231.8,369.9,231.8z"/>
		</g>
		<path class="st10" d="M372.5,239.8c-6.4,5.1-36.4,9.9-56.5,8.8c-27-1.5-62-23.3-61.8-27.2"/>
	</g>
	<g>
		<path class="st11" d="M152.2,466.1c0,0-1.9-0.1-2.2,1s-0.4,2.1,0.9,2.6s1.6,0.3,1.6,0.3L152.2,466.1z"/>
		<path class="st11" d="M188.8,461.4c0,0,1.6-3,2.7-3.4c1.1-0.4,3.3-1.4,4.4-0.7c1.1,0.7,1.9,2.4,0.3,3.6c-1.6,1.2-2.8,2.1-2.8,2.5
			c0,0.4,0.2,1.1,0.9,1.3s2.1,1.5,1.5,2.5c-0.6,1-0.8,2-2.9,1.7s-4.8-2.8-4.8-2.8l-0.3-3.4L188.8,461.4z"/>
		<path class="st11" d="M164.3,457c0,0-2.1,0.1-3.9,0.7c-1.7,0.6-6.5,3.6-7.3,5.5c-0.8,1.9-1,2-0.9,2.9c0.1,0.9,0.1,3.8,0.8,4.4
			s2.3,1.8,5.6,1.9c3.4,0.1,6.4,0,9.9,0c3.6,0,9.9,0,12.9-2.1s6.2-4.2,6.2-4.2s2.3-2.1,2.1-2.7c-0.2-0.6-1.9-2.6-5.2-3.7
			s-7.7-2.6-10.7-2.6S164.3,457,164.3,457z"/>
		<path class="st11" d="M160.5,457.5c0,0,1-2.4,2.5-3.5c1.5-1.1,3.6-2,4.6-1.5c1,0.5,1.7,2.1,1.7,3.3c0,1.2-0.2,1.3-0.2,1.3
			s-8.1,0-8.7,0.6C160.3,457.9,160.5,457.5,160.5,457.5z"/>
		<path class="st11" d="M162.4,472.7c0,0-0.5,0.9-0.5,1.7c0,0.8-0.4,2.7,0.6,3.2c0.9,0.5,3.6-0.1,4-1.3c0.5-1.2,1.2-3.5,1-3.7
			C167.5,472.3,162.4,472.7,162.4,472.7z"/>
		<path class="st11" d="M169.1,472.6c0,0-0.4,2.1,0,2.8s0.9,1.8,2.2,1.8c1.3,0.1,2.4-0.4,2.4-1.7c0-1.3-0.4-2.9-0.4-2.9l-0.1-0.1
			L169.1,472.6z"/>
		<path class="st11" d="M172,459.4c0,0,3.3,0.2,1.2,1.7"/>
		<path class="st11" d="M177.1,460.9c0,0,1.1,0.4,0.2,0.9"/>
		<path class="st11" d="M180.5,461.8c0,0,1.6,0.7,0.6,1.2"/>
		<path class="st11" d="M172.5,463c0,0,0.8-0.3,1.1,0.3s0.4,0.8-0.6,1"/>
		<path class="st11" d="M172.7,465.6c0,0,1.2-0.3,1.1,0.5c-0.2,0.8,0.1,0.7-0.7,0.7"/>
		<path class="st11" d="M172.3,468.9c0,0,1,0.1,0.7,0.5c-0.3,0.4-0.9,0.8-0.9,0.8"/>
		<path class="st11" d="M177.3,462.9c0,0,0.5,0.3,0.5,0.7s-0.5,0.7-0.5,0.7"/>
		<path class="st11" d="M177.6,465.5c0,0,1,0.1,0.9,0.6c-0.1,0.4,0,1.1-0.7,1.3"/>
		<path class="st11" d="M164.3,457c0,0,3.2,2.1,3.3,5.9c0.1,3.8-0.9,7.6-3.3,9.5"/>
		<path class="st11" d="M160.7,460.6c0,0-2.1,0.3-2.5,1.1c-0.3,0.8-1.5,2.8-0.5,4.8s3.6,1.4,4.6,1c1.1-0.4,3.3-2,2.8-3.7
			C164.7,462,164.2,460.5,160.7,460.6z"/>
		<ellipse class="st12" cx="161.1" cy="464.6" rx="0.5" ry="0.7"/>
	</g>
</g>
</svg>
