<?xml version="1.0" encoding="utf-8"?>
<!-- Generator: Adobe Illustrator 22.0.1, SVG Export Plug-In . SVG Version: 6.00 Build 0)  -->
<svg version="1.1" id="Layer_1" xmlns="http://www.w3.org/2000/svg" xmlns:xlink="http://www.w3.org/1999/xlink" x="0px" y="0px"
	 viewBox="0 0 60 60" style="enable-background:new 0 0 60 60;" xml:space="preserve">
<style type="text/css">
	.st0{fill:none;stroke:#000000;stroke-width:7;stroke-linecap:round;stroke-linejoin:round;stroke-miterlimit:10;}
</style>
<path class="st0" d="M15.7,31.9c0.5,2,3.1,2.6,5.2,2.6c6.6-0.1,13.1-2.2,18.5-6c1.4-1,2.8-2.2,3.3-3.9c0.8-2.7-1.3-5.8-4-6.6
	s-5.8,0.3-7.9,2.2c-2.2,1.9-3.6,4.4-4.8,7c-0.7,1.4-1.3,2.8-1.9,4.2c-0.8,1.9-1.5,3.9-1.6,6s0.7,4.3,2.3,5.6
	c1.7,1.4,4.1,1.4,6.3,1.4c2.1,0,4.3,0,6.3-0.6s4-1.7,5.1-3.5"/>
</svg>
