<?xml version="1.0" encoding="utf-8"?>
<!-- Generator: Adobe Illustrator 22.0.1, SVG Export Plug-In . SVG Version: 6.00 Build 0)  -->
<svg version="1.1" id="Layer_1" xmlns="http://www.w3.org/2000/svg" xmlns:xlink="http://www.w3.org/1999/xlink" x="0px" y="0px"
	 viewBox="0 0 100 100" style="enable-background:new 0 0 100 100;" xml:space="preserve">
<style type="text/css">
	.st0{fill:none;stroke:#000000;stroke-width:6;stroke-linecap:round;stroke-linejoin:round;stroke-miterlimit:10;}
	.st1{fill:#FFFFFF;stroke:#000000;stroke-miterlimit:10;}
</style>
<g>
	<g>
		<path class="st0" d="M20.5,20.2c-5.9,11.7-8.8,22.4-8,35.5c0.1,1.1,0.3,4.9,0.9,5.8c1.3,1.8,3.9,1.7,6,1.4
			c10.2-1.4,21.8-7.1,31.3-11"/>
		<path class="st0" d="M69.4,18.1c1.3,14.1-3.4,27.9-3.8,42.1"/>
		<path class="st0" d="M71.7,28.1c4.3-0.4,7.6-0.3,9.8,0"/>
		<path class="st0" d="M68.4,42.1c6.5,0.5,13,0.3,19.4-0.6"/>
	</g>
	<path d="M44.7,82c2.1,3.1,6.9,4.1,10.6,3.8c3.7-0.3,8.7-0.2,11.9-2.1c5.8-3.5,8.4-10.3,5.3-17.4c-2-4.6-6-7.9-11.1-8.1
		C50.2,57.6,37.2,71,44.7,82z"/>
	<g>
		<path class="st1" d="M56.1,78.8c0,0,1.7-0.9,3.3,0c1.9,0.3,4.1,0.1,4.6-1.6c0.5-1.7,0.2-2.7-1.5-4.2c-1.7-1.6-3.9-2.2-4.6-2.3
			c-0.7,0-2.3,0.3-4.7,2.3s-1.5,4.1-1.5,4.1S52.7,79.6,56.1,78.8z"/>
		<ellipse class="st1" cx="50.7" cy="71.5" rx="2" ry="2.8"/>
		<ellipse class="st1" cx="55.4" cy="67.8" rx="2" ry="2.8"/>
		<ellipse class="st1" cx="60.7" cy="67.8" rx="2" ry="2.8"/>
		<ellipse class="st1" cx="65.3" cy="71.1" rx="2" ry="2.8"/>
	</g>
</g>
</svg>
