<svg xmlns="http://www.w3.org/2000/svg" viewBox="342.339 5725.707 1855.022 4970.586"><path data-name="Union 45" d="M1539.202 10696.293c.41-.684.957-.82 1.368 0zm-622.582 0c.41-1.368.958-.957 1.37 0zm43.512-4.378c.958-.684 1.5-1.1 2.19-1.643.273.547.684 1.095.547 1.643a2.41 2.41 0 0 1-1.096 1.23.165.165 0 0 1-.078.02c-.292 0-.814-.625-1.564-1.25zm1176.475.82a.71.71 0 0 0 .547-.273c.137 0 .41.136.547.136a2.392 2.392 0 0 1-.683.546zm-38.312-4.1a17.4 17.4 0 0 0 2.326-1.506c.274.547.82 1.1.685 1.505a2.058 2.058 0 0 1-1.37 1.23.18.18 0 0 1-.077.018c-.292-.002-.82-.628-1.563-1.252zm-891.32.82c.138-.272.274-.683.41-.957.138.138.412.274.412.412a6.73 6.73 0 0 1-.41.957c-.137-.142-.273-.28-.41-.415zm807.442-12.313c.137-.138.273-.273.273-.41.137.137.274.41.137.546 0 .136-.137.273-.273.41 0-.14-.136-.414-.136-.55zm-1358.734-.274c.136 0 .273-.136.41-.136 0 .136.137.41.137.547a1.39 1.39 0 0 1-.41.135 1.036 1.036 0 0 0-.137-.552zm-154.344-5.89c.135-.135.273-.408.41-.408.273-.137.684.136 1.094.273-.273.273-.547.684-.684.684-.275 0-.548-.41-.82-.548zm157.082-2.735l.41-.138v.41zm580.573-11.084l.41-.41c.274.136.685.41.96.545-.14.136-.412.412-.412.412a2.228 2.228 0 0 1-.96-.548zm442.786-2.19q.822-.204 1.643-.41a2.016 2.016 0 0 1 .137 1.23 1.42 1.42 0 0 1-1.094.55 6.234 6.234 0 0 1-.686-1.37zm-271.61-2.873c-.135 0-.135-.273-.135-.41.136 0 .273-.138.547-.138 0 .273.136.41.136.683a.826.826 0 0 1-.548-.136zm378.887-2.188a3.736 3.736 0 0 1-1.23 0c-.82-.138-2.053 0-1.916-1.234a1.88 1.88 0 0 1 1.096-1.368 3.354 3.354 0 0 0 2.463-2.874c.272-1.78.82-3.558 1.23-5.335 0-.275.136-.412.136-.685a2.055 2.055 0 0 0-1.915-2.326 8.707 8.707 0 0 1-2.462-.823c-.136 0-.136-.957.136-1.094a5.02 5.02 0 0 1 6.98 1.64c2.6 4.516 1.5 8.76-.823 13a2.793 2.793 0 0 1-2.505 1.216 6.754 6.754 0 0 1-1.19-.123zm-165.84-2.465l.547.41-.547.138zm-288.713 0l.41.274-.41.272zm452.227-5.473a6.04 6.04 0 0 1-1.093-1.506 12.83 12.83 0 0 0 .684-1.094 1.926 1.926 0 0 1 .547.274 10.188 10.188 0 0 1 .958 1.64c.136.275-.41.685-.547.96a1.93 1.93 0 0 1-.548-.275zm-555.123 0c-.136 0-.136-.274-.273-.41.273.135.41.41.684.546a.5.5 0 0 1-.413-.137zm-.957-1.1a.5.5 0 0 1 .41.138c.136.138.136.41.274.547-.276-.27-.412-.405-.686-.68zm549.65-4.788c.41-.138.822-.547 1.1-.41s.41.683.546 1.093l-1.23.41a9.768 9.768 0 0 1-.418-1.09zm138.474-7.663c-.137 0-.274-.41-.274-.546.138-1.78 1.37-1.37 2.464-1.37-.256 1.026-.632 1.93-1.913 1.93-.09.004-.182 0-.278-.01zm3.558-3.284l-1.368 1.37a1.293 1.293 0 0 1 1.366-1.365zm-24.22-.136c.138 0 .41-.137.547-.137a.825.825 0 0 1-.138.547c0 .137-.136.137-.273.137-.002-.132-.14-.27-.14-.54zm24.766-.548c0 .137 0 .41-.136.41 0 .138-.273.138-.41.274.134-.268.407-.406.544-.68zm13.958.41c-.273-.137-.41-.683-.547-1.094.41-.137.82-.41.957-.274a1.6 1.6 0 0 1 .82 1.095 3.444 3.444 0 0 1-1 .31.725.725 0 0 1-.233-.032zm-223.72-2.462c.548-1.78 1.234-3.558 1.918-5.336.136-.274.957-.684 1.094-.547.41.41.958.958.958 1.368a5.748 5.748 0 0 1-2.874 4.927.827.827 0 0 1-.547.136c-.14-.132-.277-.27-.55-.54zm-1370.777-10.942a1.636 1.636 0 0 1 .546-1.095 9.454 9.454 0 0 0 1.78.957c-.958.547-1.37.822-1.78 1.095a1.276 1.276 0 0 1-.547-.957zm1546.74-1.917v-.41a.824.824 0 0 1 .547-.136c.546.273.546.546-.136.546-.058.115-.115.16-.173.16-.078 0-.157-.08-.237-.158zm71.836-2.6c0-.136.273-.272.41-.41.138.41.274.685.41 1.095 0 0-.272.274-.41.41-.137-.41-.273-.682-.41-1.093zm-61.3-14.092l.41.273-.41.138zm-600.553-2.326c.136-.274.684-.274 1.095-.547a3.4 3.4 0 0 1 .547.958c-.41.273-.958.41-1.37.684-.135-.41-.408-.82-.27-1.094zm418.977-1.37c.55-.682.822-1.23 1.233-1.64.546.41 1.23.684 1.368 1.095s-.546 1.23-.957 1.368a.41.41 0 0 1-.136.02c-.394.002-.895-.475-1.508-.84zm-71.7-1.23c.274 0 .822-.273.958-.137.275.138.41.686.684.958-.273.136-.684.41-1.23.684-.137-.547-.274-.956-.413-1.504zm520.918-2.325c0-1.23.137-2.052 1.23-2.326a1.138 1.138 0 0 1 1.096.412 2.862 2.862 0 0 1 .273 1.778c-.137.547-.957.958-1.368 1.1-.55-.004-.958-.69-1.232-.963zm-375.876-6.295c.41-.137.684-.273 1.094-.41.138 0 .274.273.41.548-.41.135-.683.273-1.094.41-.136 0-.273-.41-.41-.543zm112.065-17.1c0-.138.136-.274.273-.41.138.272 0 .546 0 .957a1.04 1.04 0 0 1-.272-.55zm-555.535-10.672c.136-.274.274-.686.41-.958.138.137.41.273.41.41-.135.274-.272.685-.41.958zm428.282-7.526c.41-.41.684-.958 1.094-1.368a.823.823 0 0 1 .55-.138c.135.41.41.822.272 1.095a5.842 5.842 0 0 1-1.23 1.368 5.65 5.65 0 0 1-.686-.96zm-1318.78-1.506a4.072 4.072 0 0 0 1.095-.547c.136.275.41.823.272.96a2.755 2.755 0 0 1-1.094.545c-.137-.276-.137-.686-.274-.96zm2.874-6.7a6.063 6.063 0 0 1-1.095-1.506 3.836 3.836 0 0 1 1.506-.684q.408 1.026.82 2.053c-.33 0-.745.175-1.038.175a.442.442 0 0 1-.194-.044zm30.376-32.156c.274 0 .41 0 .547.136.138 0 .138.273.138.41-.137.137-.41.137-.548.274 0-.28-.136-.555-.136-.827zm971.092-1.1l.41.137-.41.135zm453.6-10.535a4.542 4.542 0 0 1-.822-1.37 4.223 4.223 0 0 0 1.23-.546c.138.547.412.958.548 1.5 0 .118-.61.44-.865.44a.13.13 0 0 1-.095-.023zm-116.58-5.473a1.428 1.428 0 0 1 1.367-1.78 1.356 1.356 0 0 1 .958.685c-.136.82-.41 1.5-.683 2.736-.825-.824-1.51-1.098-1.646-1.644zm10.81-4.38a1.04 1.04 0 0 1 .546-.273c.136 0 .273.274.547.274a1.04 1.04 0 0 1-.548.274.713.713 0 0 1-.55-.276zm266.82-3.83a2.382 2.382 0 0 1-.82-1.642 1.684 1.684 0 0 1 1.915-1.78c.275.41.823.822.823 1.37a2.05 2.05 0 0 1-1.61 2.132.594.594 0 0 1-.312-.083zm-23.124-.82a6.37 6.37 0 0 1 .684-1.37c.274.138.958.41.958.548a3.36 3.36 0 0 1-.547 1.64c-.552-.415-1.1-.685-1.1-.82zm-1131.732-.822a2.034 2.034 0 0 1 .136.82 1.38 1.38 0 0 1-.41.137c.133-.14.133-.413.27-.96zm1136.79-19.844l.82-.82a12.153 12.153 0 0 1 .82 1.367 5.572 5.572 0 0 1-1.094.41c-.272-.135-.408-.682-.547-.957zm53.5-1.643a5.593 5.593 0 0 1 1.23-.683c.136.41.41.683.41 1.094a2.123 2.123 0 0 0-.82.41c-.27-.27-.544-.546-.82-.82zm-53.776-2.734a5.975 5.975 0 0 0 .957-.822 11.988 11.988 0 0 1 .96 1.37l-.412.41a14.06 14.06 0 0 0-1.5-.957zm-1156.087-3.968c-.138-.138.136-.138.41-.138 0 .138.137.41.137.548a1.38 1.38 0 0 1-.41.138c.002-.133-.135-.41-.135-.547zm54.87-.686h.41l-.274.41zm493.413-5.61c.273-.272.41-.683.684-.956.136.136.41.273.41.41a2.58 2.58 0 0 1-.273 1.095c-.27-.138-.54-.41-.817-.547zm529.81-1.777c0-.275.41-.55.546-.823.138.137.41.273.41.41a9.766 9.766 0 0 0-.41 1.1c-.27-.277-.543-.55-.543-.687zm-663.5.27c0-.134.137-.41.137-.545a1.372 1.372 0 0 1 .41.137c0 .274-.135.41-.135.547a1.38 1.38 0 0 1-.404-.138zm-528.168-10.26c.273 0 .82-.274.957-.136a1.68 1.68 0 0 1 .546 1.093l-1.095.547c-.127-.546-.264-1.094-.4-1.503zm-282.283-2.326c.135.137.41.137.547.273-.128-.136-.404-.136-.54-.27zm-2.71-2.567a3.006 3.006 0 0 1 2.71 2.567c-2.265-.267-2.318-.274-2.703-2.567zm1376.632.377a3.912 3.912 0 0 1 .547-1.642 8.167 8.167 0 0 1 1.914.684 6.446 6.446 0 0 1-1.5 1.37.13.13 0 0 1-.093.028c-.253 0-.86-.32-.86-.44zm-1376.8-.41l.068-.07-1.3-1.3a5.988 5.988 0 0 1 1.5 1.234l-.117.117.01.05c-.04-.01-.095-.02-.15-.028zm-1.23-1.505v.06zm0 0zm-.548-.274a1.033 1.033 0 0 1 .547.273c-.125 0-.398-.274-.536-.274zm1326.578-.41l.412-.412a1.726 1.726 0 0 1-.138.822c.01-.138-.126-.274-.264-.41zm-1136.247-2.33c-.136-.545.41-1.093.548-1.64.41.274 1.37.41 1.37.684 0 .684-.275 1.5-.412 2.737-.81-.96-1.494-1.232-1.494-1.78zm1304.687-.818a9.122 9.122 0 0 1 1.506-.958c.136 0 .684.684.546.82a4.714 4.714 0 0 1-1.23 1.096 9.986 9.986 0 0 1-.81-.958zm-1216.43-.41c.136-.137.136-.412.273-.548l.41.82a2.02 2.02 0 0 0-.41.275 1.04 1.04 0 0 0-.262-.548zm759.413-12.862c0-.137.274-.274.41-.41v.82c-.125-.137-.4-.274-.4-.41zm536.38-3.42a4.375 4.375 0 0 1 .41-1.232 4.886 4.886 0 0 0 1.23.547 7.43 7.43 0 0 1-.683 1.095.127.127 0 0 1-.093.028c-.247 0-.856-.32-.856-.438zm112.2-3.832c.272-1.368.956-1.643 1.913-1.643.822 0 1.78 1.37 1.233 1.78a3.11 3.11 0 0 1-2.19.82.13.13 0 0 1-.063.016c-.26 0-.628-.72-.88-.972zm-84.016-12.59a7.53 7.53 0 0 1 1.094-.683c.137.41.41.822.274 1.232s-.685.41-1.095.547c-.125-.41-.398-.822-.264-1.095zm-637.772-.683c-.41 0-.547-.548-.822-.957 0-1.915 1.233-3.146 2.6-4.378a1.957 1.957 0 0 1 .547-.274c.136.412.547.82.41 1.096a38.793 38.793 0 0 1-1.64 4.243.993.993 0 0 1-.806.325.683.683 0 0 1-.276-.054zM450.97 10362.7c.41-.274.822-.684 1.232-.958.136.137.41.41.273.547-.138.273-.41.82-.684 1.367-.396-.41-.533-.684-.806-.957zm1127.626-5.884c.136.137.41.273.547.41a3.44 3.44 0 0 0-.957.547c.153-.274.287-.684.423-.958zm0-.138a4.6 4.6 0 0 1 0-1.368 10.972 10.972 0 0 1 1.095-2.19c.548.275 1.37.548 1.643.96a1.9 1.9 0 0 1-.82 2.736 4.015 4.015 0 0 1-1.234.273.752.752 0 0 1-.67-.412zm-67.73-4.515c.135-.137.272-.274.41-.41.136.136.273.273.273.41s-.274.273-.412.41c-.123-.137-.26-.274-.26-.41zm-935.106-10.948l.822-1.23c.136.41.546.82.546 1.093 0 .41-.41.686-.546 1.1a4.358 4.358 0 0 0-.81-.963zm48.576-3.694a5.672 5.672 0 0 1 .957-1.5c.136-.136.958.137.958.275a4.082 4.082 0 0 1 .137 1.78c-.136.41-.958.546-1.5.546a7.9 7.9 0 0 1-.538-1.1zm362.876-5.2c.274-.272.82-.272 1.095-.546.136.274.41.684.547.957-.41.275-.958.412-1.368.686-.125-.41-.398-.82-.26-1.094zm503.13-15.87a.823.823 0 0 1-.138-.548c.273-.547.547-.547.547.137.274 0 .137.273 0 .41zm-27.094-11.77a3.017 3.017 0 0 1-.547-1.778 3.513 3.513 0 0 1 .685-1.64c.274-.412 1.642.545 1.78 1.367 0 .272.135.408.135.683a3.8 3.8 0 0 0-.136 1.23q-.2.618-.41 1.232a3.1 3.1 0 0 1-1.493-1.093zm-293.366-.683c-.41-.136-.547-.547-.684-.958.273-.274.684-.41.958-.685.273.41.547.958.82 1.37a3.9 3.9 0 0 1-.923.31.378.378 0 0 1-.158-.037zm-356.582-9.578l.273.272-.41.138zm-.547-4.654c0-.137.547-.546.82-.82a9.56 9.56 0 0 1 1.096 1.368c-.412.274-.685.547-1.232.958a4.726 4.726 0 0 1-.673-1.505zm547.463-6.432a8.27 8.27 0 0 1 .957-1.368c.137-.137.957.41.957.547a4.21 4.21 0 0 1-.684 1.644c-.534-.41-.945-.55-1.218-.822zm128.758-9.3a6.1 6.1 0 0 1 1.095-1.5c.135-.137.956.41.956.547a8.263 8.263 0 0 1-.684 1.642 12.9 12.9 0 0 0-1.356-.69zm-109.74-5.473a9.937 9.937 0 0 1 .55-2.19 2.084 2.084 0 0 1 1.5-.82c.683 0 1.23.412.82 1.37-.273.685-.273 1.37-.546 1.916a5.365 5.365 0 0 1-1.095 1.368 8.483 8.483 0 0 0-1.218-1.645zm50.766-2.462a1.74 1.74 0 0 1-.684-.957c.136-.41 0-.957.273-1.23.957-.547 1.778-1.37 2.873-1.506a2.6 2.6 0 0 1 2.053 1.095c.273.273 0 1.367-.41 1.778a3.087 3.087 0 0 1-2.435 1.283 3.5 3.5 0 0 1-1.66-.464zm309.1-2.6l.822-.41c0 .41.136.82.136 1.094 0 .137-.274.274-.547.41a9.72 9.72 0 0 1-.398-1.096zm-336.73-4.79c-.135-.138 0-.823-.135-1.232 0-.41.136-.957.136-1.368.137-1.1.686-1.78 1.643-1.506.684.273 1.78 1.232 1.642 1.78a6.4 6.4 0 0 1-1.642 2.736.22.22 0 0 1-.15.036 4.51 4.51 0 0 1-1.492-.447zm-5.2-1.917c0-.272.274-.41.41-.546.137.137.412.274.412.41-.136.412-.274.685-.41 1.094-.137-.272-.273-.682-.41-.957zm-23.124-7.114l.275-.41.274.41zm218.657-1.64a4.06 4.06 0 0 1 1.095-3.7c.273-.137.957-.137 1.094.136 1.368 1.37 1.368 3.01-.137 3.97-.136.273-.684.273-1.095.41-.272-.27-.956-.545-.956-.817zm-214-7.664c.547-.685.822-1.506 1.23-1.506.548 0 .96.547 1.37.958-.274.41-.548 1.094-1.095 1.23a.216.216 0 0 1-.1.022c-.297 0-.8-.46-1.41-.704zm551.02-7.115a5.64 5.64 0 0 1 1.094-.41c.274.273.41.82.684 1.094-.272.274-.545.412-.82.685a8.33 8.33 0 0 0-.96-1.368zm-548.968-7.8c0-.136.138-.41.138-.547.136.274.41.41.546.684 0 .137-.274.274-.41.41-.004-.136-.14-.274-.28-.547zm-355.076-4.515a1.035 1.035 0 0 1 .272-.547 18.7 18.7 0 0 1 1.78-.822c.274.136.41.136.548.41.135.138.135.547 0 .547-.685.274-1.37.55-2.19.822a.614.614 0 0 1-.415-.41zm60.205-21.894c.137-.136.137-.41.273-.41s.273.137.547.137c-.137.137-.137.41-.274.41s-.413-.137-.55-.137zm159.545-47.207l2.052-3.693c.138-.137.547 0 .684 0 .822.41 1.1 2.736.138 3.42a4.6 4.6 0 0 1-1.915.684 2.9 2.9 0 0 1-.964-.408zm781.034-61.982c.546-.276.957-.412 1.5-.686a16.044 16.044 0 0 0 .684 1.506 7.223 7.223 0 0 1-1.642.41c-.137 0-.274-.68-.547-1.23zm-180.482-2.6l.822-.41c0 .41.137.683.137 1.094 0 .136-.273.273-.41.41a4.153 4.153 0 0 1-.553-1.094zm-1180.58-4.653a7.815 7.815 0 0 1-1.5-1.506c.273-1.37 1.914-2.19 2.736-1.778a3.277 3.277 0 0 1 .957 1.64 1.766 1.766 0 0 1-1.6 1.8 1.178 1.178 0 0 1-.598-.155zm3.42-6.84a27.513 27.513 0 0 1 1.642-2.6c.41.272.684.41.684.546a.813.813 0 0 1 .138.547c-.412.822-.684 1.642-1.1 2.326a1.58 1.58 0 0 1-.957.684c-.96-.135-.685-.96-.412-1.503zm757.225-26c.41-.14.684-.275 1.094-.412.14 0 .275.273.412.41-.41.138-.684.274-1.095.41-.14.003-.277-.266-.418-.407zm-176.786-7.664c0-.683.274-1.23 1.095-.956.274 0 .41.41.822.82-.41.41-.958.686-1.368 1.1-.143-.277-.552-.688-.552-.957zm43.786-28.46a13.947 13.947 0 0 1 1.23-2.872c2.464.82 2.875 1.64 1.643 3.42-.14.137-.275.41-.412.546-.684.276-1.5.41-2.188.686-.14-.546-.55-1.23-.28-1.777zm0-3.01c-.273-.136-.547-.41-.822-.546.138-.137.274-.273.412-.273a.82.82 0 0 1 .546.138 12.58 12.58 0 0 0 1.23.684c-.272 0-.546.06-.86.06a2.046 2.046 0 0 1-.513-.06zm383.948-2.6c.41-.137.684-.41 1.095-.548.135.41.41.958.272 1.233s-.684.273-1.094.41a3.225 3.225 0 0 0-.277-1.092zm-401.462-30.24c.273 0 .41-.137.684-.137a.824.824 0 0 1-.136.547c-.138.137-.274 0-.41.137-.005-.13-.14-.407-.14-.545zm89.762-9.85a4.894 4.894 0 0 1-1.368-1.506c.273-.684.41-1.506.957-1.78a10.09 10.09 0 0 1 3.01-1.367c.137-.136.82.546.82.546-.683 1.37-1.5 2.6-2.325 3.97a.882.882 0 0 1-.713.286c-.18 0-.336-.044-.385-.148zm762.834-.41h.41l-.272.547zm-1569.454-2.6c.136-.274.684-.41.957-.41.137 0 .412.545.686.956a4.9 4.9 0 0 0-1.506.547 1.625 1.625 0 0 1-.14-1.093zm806.62-15.6c.684-.686.957-1.37 1.368-1.37a1.74 1.74 0 0 1 1.23.958c0 .41-.546 1.23-.957 1.23a.41.41 0 0 1-.136.022c-.397.004-.9-.472-1.51-.838zm-903.907-4.517a1.54 1.54 0 0 1-1.095-.684c-.138-.275.136-1.096.273-1.096 1.095-.274 2.19-.41 3.147-.684-.124 1.248-.478 2.5-1.89 2.5a2.845 2.845 0 0 1-.44-.034zm2.463-4.927c0-.273.82-.546.957-.546.41.41.958 1.23.82 1.368a10.948 10.948 0 0 0-1.777 1.78 16.375 16.375 0 0 1-.004-2.6zm-1.23-5.472c0-.958 1.093-1.642 1.64-1.23a2.067 2.067 0 0 1 .547 1.093 10.692 10.692 0 0 1-1.5 2.463 9.234 9.234 0 0 1-.693-2.323zm1082.47-3.285c.137 0 .274-.137.412-.137 0 .136.136.41.136.546a1.38 1.38 0 0 1-.41.137c-.005-.135-.14-.27-.14-.544zm-1094.1-10.4c.137-.137.274-.137.41-.275-.136.138-.41.41-.547.55a.476.476 0 0 1 .13-.27zm.41-.137a2.966 2.966 0 0 1 .548-.684.508.508 0 0 1-.136.41.487.487 0 0 0-.41.273zm1741.042-.958a2.358 2.358 0 0 1 .137-1.095c1.64-.82 3.146-1.5 4.788-2.188v2.736a5.01 5.01 0 0 0-4.38.82c-.143.004-.55-.132-.55-.27zm-832.345-7.8a4.3 4.3 0 0 1 .684-1.368c.14.137.412.273.412.547a10.44 10.44 0 0 1-.136 1.916c-.417-.543-.966-.817-.966-1.09zm-379.57-11.767c.41-.138.684-.41 1.095-.547.136.41.41.82.273 1.095s-.684.273-1.095.41a3.48 3.48 0 0 1-.28-.952zm1184.548-.958a.824.824 0 0 1-.137-.547c.273-.547.547-.547.684.137a1.388 1.388 0 0 0-.137.41zm-434.712-5.062c-.41-.138-.684-.684-.958-.82a4.6 4.6 0 0 1 1.37 0 1.652 1.652 0 0 1 .683.683 2.86 2.86 0 0 1-.823.194.615.615 0 0 1-.28-.052zm-1.506-1.506a.482.482 0 0 1 .274.137c.137.135.137.273.274.41zm5.2-1.78a19.64 19.64 0 0 1-2.326-2.462c-.956-1.095.137-2.052.412-3.01.684-2.052 1.094-4.242 1.64-6.293 0-.138.412-.274.55-.274.41.136 1.094.41 1.094.547 0 3.558 1.368 7.115.137 10.537 0 .547-.546.684-.957.957-.09 0-.3.06-.436.06-.074.005-.12-.01-.12-.056zm-363.97-7.935c0-.273.41-.684.82-.82.41 0 .958.136 1.368.136 0-.822.138-1.78.138-2.6s-.274-1.506-.274-2.327c2.19 0 1.367 1.78 1.367 2.736a8.83 8.83 0 0 1-1.23 2.19c0 .41.137 1.1 0 1.23a2.058 2.058 0 0 1-1.5.548c-.288.006-.698-.677-.698-1.088zm-75.122-13.684a2.533 2.533 0 0 1 .957-.273c.138 0 .274.273.412.41a9.656 9.656 0 0 1-1.1.412 1.042 1.042 0 0 0-.276-.544zm395.305-3.01l.41.274-.41.137zm-429.1-6.842c.138-1.914 1.23-3.01 2.19-2.6a1.285 1.285 0 0 1 .684.96 1.92 1.92 0 0 1-1.78 2.19c-.555-.133-.965-.544-1.103-.544zm-20.114-.683a7.43 7.43 0 0 1 1.5-.686c.138 0 .547.823.547.96a4.892 4.892 0 0 1-1.368.957 4.918 4.918 0 0 1-.688-1.224zm135.326-3.83a3.41 3.41 0 0 1 .958.546 1.19 1.19 0 0 1-.593.3c-.342.006-.172-.64-.374-.84zm-.547-.275c.138.137.41.137.547.274-.282-.132-.418-.132-.556-.27zm-559.64-1.095c-.273-.137-.273-.957-.135-1.23a11.515 11.515 0 0 0 3.83-6.842c.137-.41 1.1-.685 1.916-1.095.957 1.23 2.053 2.326 2.874 3.558a1.935 1.935 0 0 1-.136 1.23 56.06 56.06 0 0 1-6.022 5.338.262.262 0 0 1-.194.063 5.875 5.875 0 0 1-2.142-1.017zm-308.69-5.473a7.725 7.725 0 0 0 1.23-.684c.274.547.548.957.822 1.506a1.042 1.042 0 0 1-.548.273 10.4 10.4 0 0 1-1.515-1.09zm5.2-4.926h1.094a15.114 15.114 0 0 1 .272 2.463c0 .137-.273.275-.82.548a27.705 27.705 0 0 1-.557-3.004zM383.26 9829.46c.275-.683.685-.683.822 0 0 .14-.273.412-.41.548-.146-.13-.42-.4-.42-.54zm847.123-6.84h.684l-.41.41c-.146-.13-.283-.267-.283-.405zm-19.728-3.073a.53.53 0 0 1-.113.2c.03-.07.068-.14.104-.195zm.162-.347a.8.8 0 0 1-.162.347.922.922 0 0 1 .153-.34zm.136 0c-.41-1.233-.82-2.6-1.095-3.832-.136-.82 1.095-2.052 1.642-1.643 1.5 1.1 3.283 1.233 5.062 1.506.684.138.684.822 0 .822-2.41.135-3.25 3.152-5.463 3.152-.06.003-.106.003-.156.003zm-55.28-3.97a11.883 11.883 0 0 1 1.37-.956c.136.137.41.41.272.547-.273.547-.547.958-.82 1.5a11.02 11.02 0 0 1-.83-1.083zm181.575.275a.825.825 0 0 1-.137-.547c.275-.686.548-.686.685 0 0 .137-.136.273-.136.547zm-123.42-4.516a7.7 7.7 0 0 1 .546-.96c.137.14.41.275.41.412a3.453 3.453 0 0 1-.546.958c-.147-.13-.283-.268-.42-.405zm871.75-5.75a.813.813 0 0 1-.137-.545 2.956 2.956 0 0 1-.272-1.368 14.957 14.957 0 0 0 .82-1.506 6.867 6.867 0 0 1 1.915 1.37 2.59 2.59 0 0 1 .137 1.778c-.137.547-.684 1.23-1.094 1.23s-.966-.54-1.376-.95zm-777.475-2.872l.822-.41c0 .41.136.683.136 1.094 0 .137-.273.274-.41.41a8.3 8.3 0 0 1-.556-1.087zm19.02-2.462c.546-.273.957-.41 1.505-.684 0 .41.274.82.136 1.093a2.435 2.435 0 0 1-.958.684 6.023 6.023 0 0 0-.693-1.087zm326.07-20.936a15.764 15.764 0 0 1 .683-1.5 5.546 5.546 0 0 1 1.095.41 3.46 3.46 0 0 1-.273 1.642c-.694-.27-1.104-.407-1.514-.545zm-989.017-.273a2.476 2.476 0 0 1 .136-1.37h-.273a3.006 3.006 0 0 1 .272-1.915c.273-.41 1.23-.822 1.64-.547a2.915 2.915 0 0 1 .823 4.1 2.745 2.745 0 0 1-1.78.548c-.28.01-.692-.536-.828-.806zm585.91-3.832a5.274 5.274 0 0 1-.82-1.506c-.136-.274.273-.684.547-1.095.136.137.41.273.546.41.273.547.546 1.232.82 1.778 0 .137-.137.41-.273.41a.24.24 0 0 1-.182.06c-.16.01-.374-.05-.647-.05zm156.672-10.4c0-.136.137-.41.137-.547a2.98 2.98 0 0 1 .55.684l-.412.41a.71.71 0 0 0-.284-.54zm-680.05-12.178a2.913 2.913 0 0 0 .683-.41 2.99 2.99 0 0 1 .14 1.094c0 .138-.275.274-.412.41-.146-.4-.28-.673-.42-1.085zm471.246-5.062c.685-.41 1.233-.958 1.642-.958a1.98 1.98 0 0 1 .958 1.368c-.138.548-.958.82-1.368 1.23-.42-.402-.694-.95-1.24-1.632zm-162.692.135a.608.608 0 0 1-.41-.546v-1.095c.546-1.644.546-3.422 2.6-3.695a.822.822 0 0 1 .545.136c.958.685.822 1.917-.684 4.243a2.95 2.95 0 0 1-.82.957 1.31 1.31 0 0 1-.564.1 2.13 2.13 0 0 1-.677-.092zm-205.794-12.178l.273-.41.137.41zm574.28-23.124c-.273-.138-.273-.684-.546-.958.273-1.64.957-2.463 1.915-2.188.273.136.82.684.82.82a10.48 10.48 0 0 1-.958 2.188c-.08.162-.35.227-.64.227a1.93 1.93 0 0 1-.6-.08zm-314.164-.136c-1.233-.958-1.5-3.285-.41-4.1 0-.274.273-.274.957-.41.41.82 1.23 1.64 1.37 2.6 0 .683-.823 1.367-1.37 2.05 0 .042-.035.058-.088.058a.834.834 0 0 1-.467-.19zm71.836-12.178c.136-.822.41-1.643 1.506-1.643.273 0 .957.41.957.55a3.245 3.245 0 0 1-.41 1.64 2.46 2.46 0 0 1-1.5.41c-.288.007-.425-.675-.56-.948zm839.048-19.84c-.41-.823-.957-1.78-1.368-2.464.137-.547.274-.82.274-.958.273 0 .957-.136.957 0a19.583 19.583 0 0 1 1.096 3.01.733.733 0 0 1-.41.548.825.825 0 0 1-.556-.133zm-1293.6-3.97c.136.137.273 0 .41-.136.136 0 .274.136.547.136-.136.137-.41.41-.547.41zm1342.725-.547a10.867 10.867 0 0 1-1.642-1.095c.823-.41 1.507-.957 1.78-.82a2.853 2.853 0 0 1 .822 1.367 1.31 1.31 0 0 1-.855.57.23.23 0 0 1-.114-.015zm6.7-4.515a15.787 15.787 0 0 1-.684-1.506c.41-.137.683-.273 1.367-.547a3.462 3.462 0 0 1 .274 1.64c0 .224-.638.448-.872.448-.058.008-.09 0-.09-.028zM870.65 9646.79a3.647 3.647 0 0 1 .822-.685q.41.617.82 1.23c-.41.138-.684.41-1.095.41-.28-.127-.416-.674-.552-.947zm625.455-10.538a8.335 8.335 0 0 1 .684-2.463c.137-.41.548-.685.82-.96a4.366 4.366 0 0 1 .412 1.234 8.438 8.438 0 0 0 .136 1.916 1.026 1.026 0 0 1-.136.684 3.628 3.628 0 0 1-.684.82c-.416-.402-1.238-.812-1.238-1.223zm-671.566-3.967c.135-.41.82-.684 1.367-1.1.137.41.548.82.548 1.1l-.958 1.915c-.558-.81-1.102-1.493-.964-1.906zm95.507-.82a4.08 4.08 0 0 1-2.326-1.096 7.33 7.33 0 0 1-1.23-1.644 5.4 5.4 0 0 1 3.147-8.072h1.5a2.74 2.74 0 0 1 2.328 3.967c-.443 1.064-1.116.866-1.794.668a2 2 0 0 0-1.08-.12 1.746 1.746 0 0 0-.957.684 1.133 1.133 0 0 0 .41 1.095c.822.41 1.642.548 2.462.958.276.137.412.82.412 1.095a3.28 3.28 0 0 1-2.7 2.472 1.707 1.707 0 0 1-.178 0zm678.41-19.7l.546.136-.274.412zm-591.933-25.59l-.41-.41c.957-2.05-.138-3.967 0-5.883.273-2.326 1.5-4.65 2.326-6.98.136-.135.273-.41.41-.546.138-.273.41-.137 1.095-.137a12.216 12.216 0 0 1 2.463 1.778 1.788 1.788 0 0 1 .41 1.78c-1.368 3.01-2.736 6.02-4.24 9.03a4.89 4.89 0 0 1-1.507 1.368.388.388 0 0 1-.272.1.39.39 0 0 1-.28-.095zm-641.054-11.63a4.32 4.32 0 0 1 3.01-2.326.617.617 0 0 1 .41.41 3.47 3.47 0 0 1-.684 1.78 6.562 6.562 0 0 1-2.19 1.094c-.142.003-.415-.68-.552-.953zm725.2-3.693c.138-.137.274-.273.41-.273.138.135.274.272.274.408s-.273.274-.41.274c-.005-.13-.137-.27-.275-.406zm341.942-3.694c.274-.273.547-.41.684-.684.137.41.274.684.41 1.094 0 .138-.273.274-.41.41a3.637 3.637 0 0 1-.686-.816zm-548.83-2.463a1.034 1.034 0 0 1-.273.547c.135-.135.135-.406.27-.543zm.548-.684a.5.5 0 0 1-.138.41c-.136.14-.273.14-.41.275.136-.27.41-.407.547-.68zm122.6-2.052a11.055 11.055 0 0 1 .41-1.5c.55-.822 1.917-.958 2.053-.274a2.74 2.74 0 0 1-.273 1.78 1.54 1.54 0 0 1-1.1.685c-.27-.003-.68-.414-1.09-.688zm-113.57-13.82a1.042 1.042 0 0 1-.274.684c.136-.27.136-.406.272-.68zm0 .138l.546-.547a.477.477 0 0 1-.136.272c-.135.138-.273.138-.41.274zm38.312-6.842c.273-.273.41-.684.684-.957.136.273.547.684.547.957s-.41.684-.547.958c-.274-.27-.412-.685-.684-.955zm1118.323-7.8a.817.817 0 0 1-.138-.547c.274-.547.547-.547.685.137.136 0 0 .274-.138.41zm-935.927-10.808l.41.136-.273.41zm-716.584-7.253a7.32 7.32 0 0 1 1.368-2.188 14.855 14.855 0 0 1 1.506 1.368c-.138 1.643-.822 2.053-1.917 2.053-.684 0-1.368-.408-.957-1.23zm3.147-5.062c.274-.41.548-.82.958-1.367.274.273.684.683.684.957-.135.547-.548.958-.684 1.506-.41-.135-.686-.545-.958-1.092zm102.624-2.462c.136-.41.136-.957.41-1.23a1.68 1.68 0 0 1 1.095-.548c.274 0 .548.547.548.958a2.215 2.215 0 0 1-.41 1.23 4.147 4.147 0 0 1-.96.685c-.274-.408-.412-.68-.685-1.092zm655.56-3.285a4.127 4.127 0 0 0 .546-1.093c.273.273.546.547.546.82s-.41.41-.684.684zm1.776-2.473c.41-1.095.958-.684 1.37 0zm-440.46-12.44l.41.272-.41.274zm-193.07-5.2a5.98 5.98 0 0 0-.683-1.232c.274-.41.684-1.23.958-1.23a1.98 1.98 0 0 1 1.368.956c.244.612-.82 1.55-1.44 1.55a.456.456 0 0 1-.202-.042zm806.075-1.78a9.485 9.485 0 0 1 .41-1.095c.41.138.958.41 1.368.547-.273.273-.41.82-.684.958a.258.258 0 0 1-.122.028c-.27.004-.62-.317-.97-.434zm-128.348-2.2c.273-.273.41-.82.684-.958s.685.274 1.096.41a9.443 9.443 0 0 1-.41 1.1c-.41-.137-.96-.415-1.37-.548zm806.21-.82c-.273-.684 1.095-1.78 1.64-1.506a6.08 6.08 0 0 0 .685 1.23c-.273.412-.684 1.232-.957 1.232a1.977 1.977 0 0 1-1.368-.953zm-191.837-6.98l.41-.272v.546zm-441.42-12.163h1.367c-.182.486-.39.674-.6.674-.268.002-.538-.293-.768-.673zm2.05-2.2c0-.274.413-.41.686-.685.136.138.41.41.41.41a4.117 4.117 0 0 0-.548 1.1c-.27-.276-.545-.55-.545-.825zm654.6-2.737a2.213 2.213 0 0 1 .412-1.23 4.17 4.17 0 0 1 .958-.686c.273.41.41.685.684 1.1-.136.41-.136.957-.41 1.23a1.684 1.684 0 0 1-1.095.547c-.272-.002-.546-.55-.546-.96zm103.035-2.874c.138-.547.547-.958.685-1.5.41.136.684.546.957 1.093-.273.41-.547.82-.957 1.367-.27-.276-.682-.687-.682-.96zm1.915-4.653c.138-1.64.822-2.052 1.917-2.052.684 0 1.368.412.957 1.232a7.338 7.338 0 0 1-1.368 2.188 14.85 14.85 0 0 1-1.507-1.365zm-714.122-8.21l.273-.41.14.548zm-936.063-10.263c-.136 0 0-.273.138-.41h.41a.823.823 0 0 1 .137.547c-.13.258-.258.395-.373.395s-.236-.168-.31-.53zm1117.64-8.21c0-.273.41-.683.546-.956.275.273.41.683.685.957-.274.274-.41.685-.684.958-.133-.27-.543-.682-.543-.955zm39.133-6.566c.137-.138.273-.138.41-.276-.136.138-.41.41-.547.55a.476.476 0 0 1 .14-.272zm.684-.822c-.136.274-.136.41-.274.684a1.048 1.048 0 0 1 .277-.682zm-.274.546v.062zm-116.032-11.9a2.734 2.734 0 0 1 .274-1.78 1.54 1.54 0 0 1 1.094-.683c.274 0 .684.41 1.095.684a10.812 10.812 0 0 1-.412 1.5 1.692 1.692 0 0 1-1.35.712c-.352.004-.64-.14-.7-.435zm125.2-4.242c.138-.136.274-.136.412-.274-.138.274-.41.41-.55.684a.5.5 0 0 1 .14-.41zm.685-.822c-.135.138-.135.41-.272.547a1.045 1.045 0 0 1 .275-.547zm-550.2-2.325c0-.138.274-.275.41-.412a3.644 3.644 0 0 1 .686.822c-.274.273-.547.41-.685.684-.132-.412-.27-.685-.405-1.095zm342.352-3.422c0-.137.274-.273.41-.273 0 .136.137.273.274.41-.136.138-.273.274-.41.274-.132-.138-.27-.275-.27-.413zm81.415-1.23a12.175 12.175 0 0 1-2.463-1.78 1.785 1.785 0 0 1-.41-1.78c1.368-3.01 2.736-6.02 4.242-9.03a4.856 4.856 0 0 1 1.5-1.368.417.417 0 0 1 .547 0l.41.41c-.957 2.053.137 3.97 0 5.885-.273 2.325-1.5 4.65-2.325 6.978-.136.137-.274.41-.41.547-.07.137-.172.17-.342.17s-.403-.034-.745-.034zm641.055-.412a3.465 3.465 0 0 1 .684-1.777 6.57 6.57 0 0 1 2.188-1.096c.138 0 .41.684.547.957a4.32 4.32 0 0 1-3.008 2.327.62.62 0 0 1-.406-.412zM940.7 9351.096l.272-.41.274.546zm677.86-8.757a2.74 2.74 0 0 1-2.326-3.97c.443-1.062 1.115-.865 1.793-.667a2.008 2.008 0 0 0 1.08.12 1.742 1.742 0 0 0 .96-.684 1.134 1.134 0 0 0-.412-1.096c-.82-.41-1.64-.547-2.463-.957-.273-.138-.41-.822-.41-1.095.273-1.23 1.64-2.6 2.872-2.463a4.077 4.077 0 0 1 2.326 1.094 7.348 7.348 0 0 1 1.23 1.64 5.4 5.4 0 0 1-3.146 8.075zm94.687-11.63l.958-1.916c.547.82 1.094 1.5.958 1.915s-.82.683-1.37 1.1c-.13-.418-.542-.83-.542-1.103zm-671.566-1.78a8.366 8.366 0 0 0-.137-1.917 1.02 1.02 0 0 1 .138-.684 3.6 3.6 0 0 1 .685-.82c.41.41 1.23.82 1.23 1.23a8.28 8.28 0 0 1-.684 2.462c-.136.41-.545.684-.82.958a4.367 4.367 0 0 1-.405-1.23zm625.73-13.274c.41-.137.684-.41 1.094-.41.274.137.41.684.547.958a3.64 3.64 0 0 1-.82.684zm-1184.96-23.124c0-.274.958-.547.958-.41a15.94 15.94 0 0 1 .684 1.505c-.41.137-.684.273-1.368.548a3.462 3.462 0 0 1-.27-1.644zm7.526-3.01a2.83 2.83 0 0 1-.82-1.368c0-.136.683-.684.956-.547a10.813 10.813 0 0 1 1.642 1.1 7.92 7.92 0 0 1-1.677.843.216.216 0 0 1-.097-.03zm1341.9-2.463c.136-.138.41-.41.547-.41l.41.41c-.136-.138-.273 0-.41.136-.13-.002-.264-.138-.54-.138zm-1292.508-.548a19.3 19.3 0 0 1-1.095-3.01.73.73 0 0 1 .41-.546.82.82 0 0 1 .547.137c.41.82.958 1.78 1.37 2.463-.138.547-.274.82-.274.957-.184 0-.55.06-.772.06-.102-.002-.177-.017-.177-.066zm836.45-22.167a3.252 3.252 0 0 1 .41-1.64 2.45 2.45 0 0 1 1.5-.412c.274 0 .41.684.547.958-.137.822-.41 1.642-1.5 1.642-.265 0-.95-.41-.95-.55zm72.383-11.356c0-.685.82-1.37 1.37-2.054 0-.137.41 0 .546.138 1.23.957 1.506 3.284.41 4.1 0 .274-.273.274-.957.41-.402-.818-1.224-1.64-1.36-2.597zm-313.617 1.094c-.273-.138-.82-.685-.82-.822a10.61 10.61 0 0 1 .957-2.188c.138-.274.822-.274 1.233-.138.273.138.273.684.547.958-.24 1.433-.79 2.24-1.564 2.24a1.273 1.273 0 0 1-.344-.052zm575.238-26.272h.412l-.273.41zm-208.12-6.98c-.956-.683-.82-1.915.686-4.24a2.984 2.984 0 0 1 .82-.958 1.89 1.89 0 0 1 1.232 0 .61.61 0 0 1 .41.547v1.095c-.546 1.642-.546 3.42-2.6 3.7a.823.823 0 0 1-.54-.144zm-162.554-5.472c.137-.548.958-.82 1.37-1.23.41.41.683.957 1.23 1.64-.684.412-1.23.96-1.642.96a1.98 1.98 0 0 1-.95-1.372zm473.026-5.335c0-.137.274-.275.41-.41.14.41.274.683.412 1.094a3.034 3.034 0 0 0-.685.41 3.015 3.015 0 0 1-.13-1.097zm-679.913-11.632l.41-.41a.71.71 0 0 0 .273.548c0 .137-.138.41-.138.548a3 3 0 0 1-.538-.687zm157.08-8.073c-.274-.547-.547-1.23-.822-1.78 0-.135.137-.41.274-.41.137-.136.41 0 .82 0a5.293 5.293 0 0 1 .823 1.506c.136.273-.274.684-.547 1.095-.13-.137-.403-.275-.54-.412zm584.406-2.19a2.916 2.916 0 0 1-.82-4.105 2.755 2.755 0 0 1 1.78-.546c.272 0 .683.545.82.82a2.473 2.473 0 0 1-.137 1.368h.272a3.012 3.012 0 0 1-.273 1.915 1.83 1.83 0 0 1-1.3.637.628.628 0 0 1-.336-.09zm-989.016-3.01a3.453 3.453 0 0 1 .274-1.64c.684.272 1.094.41 1.5.545a16.08 16.08 0 0 1-.684 1.506 5.64 5.64 0 0 1-1.08-.412zm326.206-22.44c.137-.274.684-.547.958-.684a6.11 6.11 0 0 0 .682 1.095c-.546.274-.957.412-1.5.685.005-.413-.268-.822-.132-1.097zm-759.14-2.872a2.6 2.6 0 0 1-.137-1.78c.137-.548.683-1.23 1.094-1.23s.957.546 1.37.957a.823.823 0 0 1 .135.548 2.947 2.947 0 0 1 .272 1.368 15.643 15.643 0 0 0-.822 1.5 6.868 6.868 0 0 1-1.905-1.363zm778.845.136c0-.136.274-.274.41-.41a8.147 8.147 0 0 1 .548 1.094l-.82.41c.007-.412-.13-.686-.13-1.096zm94.277-7.39a3.4 3.4 0 0 1 .547-.957l.41.41a7.83 7.83 0 0 1-.546.957c-.13-.137-.403-.275-.403-.412zm3.283-3.283c-1.5-1.094-3.285-1.23-5.062-1.505-.684-.136-.684-.82 0-.82 2.463-.137 3.283-3.284 5.61-3.148.41 1.23.822 2.6 1.095 3.83a1.807 1.807 0 0 1-1.385 1.724.424.424 0 0 1-.25-.08zm54.186-1.094c.273-.547.547-.957.822-1.506a11.3 11.3 0 0 1 .82 1.095 11.77 11.77 0 0 1-1.368.958c-.13-.138-.403-.416-.266-.55zm-180.48-.136c0-.136.137-.274.137-.547h.41a.824.824 0 0 1 .137.547c-.136.34-.273.513-.393.513s-.215-.174-.284-.515zm127.14-4.59a.915.915 0 0 1-.162.348.8.8 0 0 1 .17-.35zm.113-.2c-.04.078-.078.143-.114.2a.534.534 0 0 1 .12-.2zm-20.526-2.873c.137-.136.275-.273.41-.41.137.137.274.274.274.41zm846.986-6.84c0-.14.273-.412.41-.55.138.137.41.41.41.55-.135.34-.307.51-.46.51s-.284-.172-.352-.513zm-129.716-13.547a15.146 15.146 0 0 1-.274-2.464c0-.136.274-.273.822-.547a28.357 28.357 0 0 1 .546 3.01zm-310.88-4.79a1.928 1.928 0 0 1 .136-1.232 55.783 55.783 0 0 1 6.02-5.335c.274-.274 1.5.41 2.327.957.273.136.273.958.136 1.23a11.527 11.527 0 0 0-3.832 6.842c-.136.41-1.093.684-1.914 1.095-.95-1.233-2.044-2.328-2.865-3.56zm315.122-.958a1.028 1.028 0 0 1 .547-.274 10.55 10.55 0 0 1 1.5 1.095 7.832 7.832 0 0 0-1.23.685c-.262-.55-.537-.96-.81-1.508zm-866.826-6.02c.274.135.41.135.547.272-.128-.138-.404-.138-.54-.274zm-.958-.548c1.095-.822.684.274.958.547a3.385 3.385 0 0 1-.95-.548zm113.98-1.368a1.284 1.284 0 0 1-.684-.958 1.92 1.92 0 0 1 1.78-2.19 7.5 7.5 0 0 1 1.094.55c-.117 1.644-.943 2.683-1.78 2.683a1.048 1.048 0 0 1-.403-.083zm20.252-2.19a4.935 4.935 0 0 1 1.368-.958 4.878 4.878 0 0 1 .684 1.233 7.43 7.43 0 0 1-1.5.685c-.134-.002-.545-.824-.545-.96zm-447.575-7.525l.41-.137v.41zm394.347-2.873a9.412 9.412 0 0 1 1.094-.41 1.043 1.043 0 0 0 .275.547 2.544 2.544 0 0 1-.958.273c-.13-.002-.267-.275-.403-.41zm-77.174-10.673a8.866 8.866 0 0 1 1.233-2.188c0-.41-.137-1.1 0-1.233a2.06 2.06 0 0 1 1.5-.547c.274 0 .684.684.684 1.095 0 .275-.41.686-.82.823-.41 0-.957-.136-1.368-.136 0 .82-.137 1.778-.137 2.6s.273 1.5.273 2.326c-2.18-.003-1.36-1.782-1.36-2.74zm-361.917.684c0-3.558-1.368-7.114-.137-10.535 0-.547.547-.684.956-.958.138 0 .548-.136.548 0a19.952 19.952 0 0 1 2.326 2.463c.958 1.095-.138 2.053-.41 3.01-.685 2.052-1.096 4.242-1.642 6.294 0 .138-.41.274-.548.274-.404-.14-1.088-.413-1.088-.55zm6.293-13.41c-.137-.135-.137-.273-.274-.41l.547.548a.477.477 0 0 1-.268-.14zm-1.642-.546a1.654 1.654 0 0 1-.685-.684 1.626 1.626 0 0 1 1.095-.136c.41.136.684.684.958.82-.274 0-.61.062-.922.062a1.4 1.4 0 0 1-.435-.064zm-434.85-5.473a1.372 1.372 0 0 0 .136-.412h.41a.822.822 0 0 1 .137.55c-.127.257-.257.393-.372.393s-.23-.17-.304-.533zm1183.727-1.916c.137-.275.684-.275 1.095-.41a3.49 3.49 0 0 1 .273.957c-.41.137-.684.41-1.095.547-.13-.412-.403-.823-.266-1.096zm-379.3-10.4a10.43 10.43 0 0 1 .136-1.915c.412.546.96.82.96 1.094a4.24 4.24 0 0 1-.686 1.37c-.125-.142-.4-.28-.4-.553zm-836.166-8.077a5 5 0 0 0 4.377-.82c.138 0 .55.136.55.272 0 .41 0 .957-.14 1.094-1.64.822-3.146 1.506-4.788 2.19zm1745.555-1.23a.486.486 0 0 0 .41-.274 3.02 3.02 0 0 1-.546.684.5.5 0 0 1 .135-.41zm.958-.685a.483.483 0 0 1-.136.274c-.138.136-.274.136-.41.273zm-.547.41v.06zm-1094.24-10.945a1.365 1.365 0 0 1 .41-.138c0 .137.137.273.137.546-.136 0-.273.136-.41.136 0-.135-.136-.408-.136-.544zm1081.378-1.642a2.066 2.066 0 0 1-.547-1.095 10.693 10.693 0 0 1 1.506-2.463 9.282 9.282 0 0 1 .684 2.326 1.39 1.39 0 0 1-1.256 1.353.627.627 0 0 1-.386-.12zm-1.368-7.527a10.842 10.842 0 0 0 1.777-1.78 16.54 16.54 0 0 1 0 2.6c0 .274-.82.547-.957.547-.41-.408-.957-1.228-.82-1.366zm4.242-4.1a1.537 1.537 0 0 1 1.094.684c.137.273-.136 1.094-.273 1.094-1.096.274-2.19.41-3.15.685.138-1.37.55-2.743 2.328-2.465zm-906.508-4.105c0-.41.547-1.233.958-1.233.41-.137.957.41 1.64.822-.683.684-.956 1.368-1.367 1.368a1.737 1.737 0 0 1-1.23-.96zm-.822-14.915c.685-1.368 1.506-2.6 2.326-3.97.138-.272.958-.41 1.095-.136a4.88 4.88 0 0 1 1.368 1.506c-.274.684-.41 1.5-.958 1.78a10.147 10.147 0 0 1-3.01 1.367.067.067 0 0 1-.05.018c-.205-.003-.772-.568-.772-.568zm808.4-1.64a4.924 4.924 0 0 0 1.5-.55 1.626 1.626 0 0 1 .137 1.095c-.137.274-.684.41-.957.41-.13-.002-.406-.55-.68-.96zm-1568.223-2.054l.273-.548.136.548zm852.458-10.673c.136-.135.274 0 .41-.135 0 .136.138.41.138.547-.272 0-.41.136-.683.136a.826.826 0 0 1 .137-.55zm-402.284-30.515c.137-.274.684-.274 1.094-.41a3.224 3.224 0 0 0 .273 1.094c-.41.135-.683.408-1.094.546-.136-.41-.41-.958-.274-1.23zm385.18-1.233a12.63 12.63 0 0 0-1.23-.684 4.57 4.57 0 0 1 1.367 0c.274.138.547.41.82.548-.136.136-.273.274-.41.274a.818.818 0 0 1-.546-.138zm-2.737-4.242c.136-.137.274-.41.41-.546.685-.274 1.5-.41 2.19-.684.137.548.548 1.23.273 1.778a14.04 14.04 0 0 1-1.23 2.874c-2.463-.825-2.874-1.64-1.643-3.425zm45.565-26.955c-.273 0-.41-.41-.822-.822.41-.41.958-.684 1.37-1.094.135.272.546.683.546.956 0 .562-.184 1.03-.7 1.03a1.225 1.225 0 0 1-.393-.07zm-177.2-8.62c.41-.138.684-.274 1.095-.41.136 0 .273.272.41.41-.41.136-.683.273-1.094.41-.134 0-.27-.273-.408-.41zm756.4-23.946a.83.83 0 0 1-.135-.55c.41-.82.684-1.64 1.094-2.325a1.587 1.587 0 0 1 .958-.684c.957.137.684.958.41 1.507a27.457 27.457 0 0 1-1.64 2.6c-.406-.275-.68-.41-.68-.547zm4.516-5.61a3.292 3.292 0 0 1-.957-1.643c0-1.23 1.23-2.19 2.188-1.643a7.787 7.787 0 0 1 1.5 1.506 2.48 2.48 0 0 1-2.24 1.885 1.122 1.122 0 0 1-.485-.105zm-1180.306-8.62c0-.14.273-.275.41-.412a4.11 4.11 0 0 1 .55 1.095l-.823.41c.006-.41-.13-.684-.13-1.093zm-181.712-2.738a7.24 7.24 0 0 1 1.642-.41c.136 0 .273.683.547 1.23-.547.274-.958.41-1.506.684a16.472 16.472 0 0 0-.678-1.504zm780.485-57.47c-.82-.41-1.093-2.736-.136-3.42a4.594 4.594 0 0 1 1.917-.684 2.9 2.9 0 0 1 .958.41q-1.026 1.85-2.053 3.694a.288.288 0 0 1-.208.06c-.168.002-.378-.06-.468-.06zm161.462-50.628c.136-.137.136-.41.273-.41s.41.136.547.136c-.136.136-.136.41-.273.41s-.268-.135-.54-.135zm58.427-21.207c-.137-.138-.137-.548 0-.548.683-.275 1.367-.548 2.187-.82a.617.617 0 0 1 .41.408 1.03 1.03 0 0 1-.273.547 18.806 18.806 0 0 1-1.777.82c-.268-.135-.405-.135-.54-.407zm-353.163-5.61c0-.138.274-.274.41-.412 0 .138.14.274.275.55 0 .135-.136.408-.136.545-.13-.273-.405-.41-.543-.683zm-550.06-8.348c.272-.274.546-.412.82-.685a8.338 8.338 0 0 0 .958 1.37 5.634 5.634 0 0 1-1.095.408c-.267-.272-.405-.82-.677-1.093zm550.2-5.884c.272-.41.546-1.095 1.094-1.23.274-.137.82.41 1.5.683-.546.683-.82 1.5-1.23 1.5-.538.004-.948-.544-1.36-.953zm-213.595-4.653c-1.368-1.368-1.368-3.01.136-3.967.136-.274.684-.274 1.095-.41.273.272.958.546.958.82a4.055 4.055 0 0 1-1.1 3.693 1.16 1.16 0 0 1-.482.09c-.254 0-.52-.066-.6-.226zm220.3-5.2h.547l-.275.41zm-29.42-4.926c-.683-.273-1.778-1.23-1.64-1.78a6.383 6.383 0 0 1 1.64-2.735c.14-.138 1.096.136 1.643.41.136.136 0 .82.136 1.23 0 .412-.135.96-.135 1.37-.117.93-.53 1.564-1.24 1.564a1.488 1.488 0 0 1-.398-.058zm6.022-2.052c.137-.41.273-.684.41-1.095.137.273.274.684.41.958 0 .273-.272.41-.41.547-.134-.136-.407-.272-.407-.41zm-36.533-6.843c-.273-.273 0-1.368.41-1.778a3.04 3.04 0 0 1 4.106-.822 1.744 1.744 0 0 1 .684.958c-.136.41 0 .957-.273 1.23-.958.548-1.78 1.37-2.874 1.5a.92.92 0 0 1-.187.02 2.833 2.833 0 0 1-1.862-1.103zm-305.544-.684c0-.137.273-.273.548-.41a9.16 9.16 0 0 1 .41 1.094q-.408.207-.82.41c.002-.405-.135-.818-.135-1.092zm357.95-2.736c.274-.684.274-1.368.547-1.915a5.384 5.384 0 0 1 1.095-1.37 8.556 8.556 0 0 0 1.23 1.643 9.7 9.7 0 0 1-.546 2.19 2.088 2.088 0 0 1-1.5.82c-.685.002-1.232-.41-.823-1.366zm-108.917-6.157a8.313 8.313 0 0 1 .683-1.642 13.1 13.1 0 0 0 1.368.684 6.084 6.084 0 0 1-1.093 1.506.1.1 0 0 1-.068.02 1.638 1.638 0 0 1-.888-.566zm128.893-9.442a4.224 4.224 0 0 1 .684-1.642c.55.412.96.548 1.233.823a8.286 8.286 0 0 1-.958 1.368.1.1 0 0 1-.068.022 1.644 1.644 0 0 1-.887-.567zm547.463-7.8c.41-.274.684-.547 1.23-.958a4.724 4.724 0 0 1 .685 1.506c0 .137-.546.547-.82.82a9.666 9.666 0 0 1-1.09-1.364zm1.094-4.378l.41-.138-.136.41zm-651.59-7.937c0-.273-.136-.41-.136-.682a3.8 3.8 0 0 0 .137-1.23l.41-1.234a3.1 3.1 0 0 1 1.507 1.095 3.016 3.016 0 0 1 .547 1.78 3.508 3.508 0 0 1-.685 1.64.242.242 0 0 1-.216.1 2.18 2.18 0 0 1-1.56-1.467zm294.187-1.094c.41-.136.822-.41 1.095-.274.41.138.547.548.684.958-.273.273-.684.41-.957.684-.273-.41-.545-.955-.82-1.366zm-319.775-12.314c-.273 0-.137-.274 0-.41h.41a.824.824 0 0 1 .136.546c-.128.258-.258.394-.358.394s-.18-.167-.18-.528zm501.9-16.7c.41-.273.958-.41 1.368-.684.137.41.41.822.275 1.1-.273.273-.822.273-1.095.548-.14-.272-.41-.683-.547-.957zm362.6-3.556a4.086 4.086 0 0 1-.136-1.78c.136-.41.957-.546 1.5-.546a7.9 7.9 0 0 1 .547 1.095 5.714 5.714 0 0 1-.957 1.506.218.218 0 0 1-.143.035c-.27.006-.804-.194-.804-.308zm49.122-4.79c0-.41.412-.683.55-1.094a4.324 4.324 0 0 0 .82.957l-.82 1.233c-.134-.403-.547-.816-.547-1.09zm-934.42-11.083c0-.135.273-.272.41-.408.138.136.274.273.274.41l-.41.41c-.134-.135-.27-.267-.27-.405zm-69.784-1.914a1.9 1.9 0 0 1 .822-2.736 3.956 3.956 0 0 1 1.23-.274.753.753 0 0 1 .685.41 4.6 4.6 0 0 1 0 1.37 10.9 10.9 0 0 1-1.095 2.19c-.544-.27-1.364-.543-1.64-.954zm2.19-3.147a3.435 3.435 0 0 0 .957-.548c-.137.273-.273.684-.41.958-.134-.132-.407-.273-.548-.405zm1126.668-5.063l.684-1.368c.41.41.547.683.82.956-.41.274-.82.684-1.23.957-.134-.13-.407-.404-.27-.54zm-1016.52-19.568a39.09 39.09 0 0 1 1.642-4.243 1.067 1.067 0 0 1 1.095-.273c.41 0 .547.547.82.957 0 1.916-1.23 3.15-2.6 4.38a1.95 1.95 0 0 1-.546.274c-.134-.405-.545-.815-.41-1.09zm-636.4-5.747c.138-.41.685-.41 1.1-.547.137.41.41.82.273 1.095a7.7 7.7 0 0 1-1.094.685c-.14-.406-.414-.818-.277-1.226zm-85.792-12.18a3.1 3.1 0 0 1 2.188-.82c.273-.136.684.685.958.958-.274 1.37-.958 1.645-1.917 1.645-.818.005-1.775-1.364-1.228-1.775zm113.706-3.008a7.8 7.8 0 0 1 .684-1.1c.136-.136.958.274.958.41a4.368 4.368 0 0 1-.41 1.234 4.822 4.822 0 0 0-1.23-.543zm537.61-4.516c.137.137.41.273.41.41s-.273.273-.41.41zm759.14-12.726a1.926 1.926 0 0 0 .41-.274 1.034 1.034 0 0 0 .274.548c-.136.136-.136.41-.273.547zm-1217.8 0a4.71 4.71 0 0 1 1.23-1.095 10.14 10.14 0 0 1 .822.957 9.2 9.2 0 0 1-1.5.957c-.138.006-.685-.677-.55-.815zm1304.822 0c0-.684.275-1.506.41-2.736.82.957 1.5 1.23 1.5 1.778.14.547-.41 1.095-.546 1.642-.4-.27-1.36-.405-1.36-.68zm-1134.6-3.694c0 .136.136.273.273.41l-.41.41a1.734 1.734 0 0 1 .136-.815zm1326.305-.274c.136 0 .41.274.546.274a1.042 1.042 0 0 1-.548-.27zm0 0zm0 0zm-1.507-1.368l.118-.117c0-.016-.005-.034-.01-.05l.167.03-.068.07 1.3 1.3a5.95 5.95 0 0 1-1.507-1.227zm-1378.985.41a6.383 6.383 0 0 1 1.506-1.367c.136-.136.957.274.957.41a3.88 3.88 0 0 1-.547 1.642 8.24 8.24 0 0 1-1.915-.678zm1376.387-3.147c2.27.268 2.324.275 2.707 2.57a3.006 3.006 0 0 1-2.707-2.564zm-.55-.272c.137.136.412.136.548.273-.134-.13-.41-.13-.547-.267zm-282.692-1.91a1.693 1.693 0 0 1-.547-1.096l1.095-.547c.137.547.274 1.095.412 1.506-.22 0-.613.177-.833.177a.172.172 0 0 1-.127-.04zM558.67 8522.99a9.475 9.475 0 0 0 .41-1.095c.273.273.547.547.547.684 0 .276-.41.55-.548.822-.14-.137-.41-.273-.41-.41zm663.9-.274c0-.273.138-.41.138-.548a1.365 1.365 0 0 1 .41.138c0 .136-.136.41-.136.548a1.378 1.378 0 0 1-.407-.138zm-134.23-1.368a2.59 2.59 0 0 1 .272-1.095c.274.138.547.41.822.547-.274.274-.41.685-.684.958-.133-.136-.41-.272-.41-.41zm494.1-6.157l.272-.41.136.41zm54.73-1.095a1.388 1.388 0 0 1 .412-.136c0 .136.136.41.136.547.137.136-.136.136-.41.136.003-.14-.135-.412-.135-.548zm-1157.454-4.105l.41-.41a14.512 14.512 0 0 0 1.506.958 6.045 6.045 0 0 0-.958.82 11.713 11.713 0 0 1-.956-1.367zm-53.5-2.6a2.11 2.11 0 0 0 .82-.41c.273.273.548.546.82.82a5.62 5.62 0 0 1-1.23.685c-.135-.41-.408-.68-.408-1.095zm53.5-1.78a5.606 5.606 0 0 1 1.095-.408c.274.136.41.684.547.957l-.82.82a11.9 11.9 0 0 1-.82-1.368zm-18.336-18.88c-.136-1.232 1.233-2.465 1.917-2.053a2.385 2.385 0 0 1 .82 1.64 1.685 1.685 0 0 1-1.916 1.78c-.27-.41-.818-.82-.818-1.368zm23.4-.412a3.36 3.36 0 0 1 .547-1.64c.548.41 1.095.684 1.095.82a6.337 6.337 0 0 1-.684 1.37c-.273-.138-.958-.412-.958-.55zm1133.238-.82a1.376 1.376 0 0 1 .41-.136c-.136.136-.136.41-.273.957a2.034 2.034 0 0 1-.137-.82zm-888.992-4.653a1.034 1.034 0 0 1 .546-.274.71.71 0 0 1 .547.274 1.026 1.026 0 0 1-.548.274c-.133.003-.273-.272-.546-.272zm10.535-2.6a1.354 1.354 0 0 1-.957-.684c.136-.822.41-1.506.684-2.737.82.82 1.5 1.095 1.642 1.642a1.462 1.462 0 0 1-1.228 1.79.958.958 0 0 1-.14-.01zm-116.17-6.843c0-.136.823-.547.96-.41a4.547 4.547 0 0 1 .82 1.37 4.2 4.2 0 0 0-1.23.546c-.14-.545-.413-.956-.55-1.503zm454.144-11.083l.41-.135v.273zm970.954-1.094c-.136 0-.136-.273-.136-.41.136-.137.41-.137.546-.273 0 .274.138.547.138.82-.275.002-.41.002-.548-.135zm29.692-31.882c.41 0 .958-.273 1.23-.136a6.09 6.09 0 0 1 1.096 1.506 3.874 3.874 0 0 1-1.5.682c-.278-.68-.55-1.366-.826-2.05zm2.736-7.252a2.78 2.78 0 0 1 1.1-.548c.137.274.137.684.273.958a4.067 4.067 0 0 0-1.096.547c-.14-.27-.414-.82-.278-.955zm-1319.326-.684a5.9 5.9 0 0 1 1.23-1.368 5.728 5.728 0 0 1 .685.958c-.41.41-.684.957-1.094 1.368a.828.828 0 0 1-.548.136c-.134-.407-.41-.817-.272-1.095zm429.377-7.388c.137-.275.273-.684.41-.957l.41.41c-.136.272-.273.683-.41.957-.138-.135-.41-.27-.41-.408zm-554.988-11.768a1.045 1.045 0 0 1 .273.547c0 .136-.138.273-.274.41-.14-.272 0-.545 0-.956zm110.833-16.692c.41-.137.684-.274 1.094-.41.138 0 .275.41.41.547-.41.136-.683.274-1.094.41-.137 0-.273-.273-.41-.546zm-376.7-4.242a2.866 2.866 0 0 1-.273-1.78c.136-.546.957-.957 1.368-1.094.547 0 .958.684 1.23.957 0 1.234-.136 2.054-1.23 2.33a.424.424 0 0 1-.187.035 1.22 1.22 0 0 1-.904-.445zm448.943-4.926c-.137-.41.55-1.233.958-1.37s.958.412 1.642.822c-.547.685-.82 1.233-1.23 1.644-.545-.41-1.23-.68-1.367-1.094zm73.342.82c-.273-.136-.41-.685-.684-.957.273-.136.684-.41 1.23-.684.138.55.274.958.41 1.507-.218 0-.612.176-.83.176a.172.172 0 0 1-.123-.038zm346.593-3.146c.412-.274.96-.41 1.37-.684.137.41.41.82.273 1.094s-.684.274-1.095.547a3.466 3.466 0 0 1-.544-.955zm-599.32-2.19l.41-.136v.41zm-61.71-14.5l.41-.41c.137.41.273.685.41 1.095 0 .14-.273.275-.41.412-.13-.414-.27-.687-.407-1.098zm72.246-1.915c.138-.273.274-.136.41 0v.41a.818.818 0 0 1-.546.138c-.545-.277-.545-.55.14-.55zm1544.826-1.778c.958-.547 1.368-.82 1.78-1.095a1.276 1.276 0 0 1 .546.958 1.633 1.633 0 0 1-.547 1.094 9.5 9.5 0 0 0-1.77-.96zm-1371.46-5.2c-.41-.41-.958-.957-.958-1.368a5.748 5.748 0 0 1 2.874-4.926.825.825 0 0 1 .548-.136l.547.547c-.547 1.777-1.23 3.557-1.916 5.334a1.678 1.678 0 0 1-1 .575.132.132 0 0 1-.092-.03zm-221.12-6.978a1.592 1.592 0 0 1-.82-1.095c.41-.14.82-.412 1.23-.275.273.136.41.684.548 1.095a4.94 4.94 0 0 1-.85.312.144.144 0 0 1-.105-.04zm14.5-1.37c0-.136.274-.136.41-.272-.135.273-.41.41-.547.684.007-.14.007-.413.144-.413zm24.22-.547c0-.136.137-.136.273-.136 0 .137.137.275.137.548-.137 0-.41.137-.548.137a.827.827 0 0 1 .144-.55zm-22.44-1.094a1.293 1.293 0 0 1-1.37 1.368c.42-.412.965-.96 1.377-1.37zm0 0c.273-1.095.684-2.053 2.19-1.917.136 0 .272.41.272.55-.094 1.215-.7 1.407-1.424 1.407-.33 0-.687-.042-1.03-.042zm127.39-9.3c-2.6-4.516-1.506-8.758.82-13 .82-1.23 2.19-1.368 3.695-1.095a3.73 3.73 0 0 1 1.23 0c.822.136 2.054 0 1.917 1.23a1.884 1.884 0 0 1-1.095 1.37 3.35 3.35 0 0 0-2.462 2.872c-.274 1.78-.822 3.558-1.23 5.337 0 .273-.14.41-.14.684a2.057 2.057 0 0 0 1.917 2.327 8.69 8.69 0 0 1 2.464.822c.135 0 .135.956-.14 1.093a5.48 5.48 0 0 1-2.747.76 4.864 4.864 0 0 1-4.224-2.406zm12.178.136c-.274-.137-.41-.686-.548-1.096l1.23-.41a9.343 9.343 0 0 1 .41 1.094c-.352.117-.705.44-.97.44a.258.258 0 0 1-.115-.034zm-5.475-3.97a10.25 10.25 0 0 1-.957-1.643c-.136-.273.41-.684.548-.957a1.944 1.944 0 0 1 .546.273 6.114 6.114 0 0 1 1.1 1.5 12.637 12.637 0 0 0-.685 1.1 1.93 1.93 0 0 1-.545-.278zm555.81-1.368c-.138-.138-.138-.41-.274-.548l.686.684a.5.5 0 0 1-.407-.14zm-.958-1.095a.506.506 0 0 1 .41.136c.137 0 .137.273.274.41-.266-.14-.403-.414-.677-.55zm-102.9-5.61l.41-.274v.547zm-288.85-.137l.547-.136v.547zm213.045-4.378a.823.823 0 0 1 .547.137c.136 0 .136.273.136.41-.137 0-.273.138-.547.138.01-.28-.128-.418-.128-.69zm-272.833-3.565a1.423 1.423 0 0 1 1.094-.548 6.362 6.362 0 0 1 .684 1.368l-1.642.41a2.024 2.024 0 0 1-.137-1.23zm443.2-1.5l.41-.41a2.207 2.207 0 0 1 .957.547l-.41.41c-.276-.14-.686-.413-.958-.547zm581.532-11.22l.41.272-.41.137zm155.987-2.326c.273-.273.546-.685.684-.685.273 0 .547.41.82.548-.137.138-.273.41-.41.41a.368.368 0 0 1-.17.04 3.925 3.925 0 0 1-.927-.314zm-153.39-6.43a1.38 1.38 0 0 1 .412-.14 1.033 1.033 0 0 0 .136.548c-.136 0-.273.137-.41.137-.002-.138-.14-.41-.14-.548zm-1358.6 0c0-.14.137-.275.274-.412 0 .136.138.41.138.547-.138.136-.274.273-.274.41-.136-.138-.27-.41-.136-.548zm-86.476-11.358a2.053 2.053 0 0 1 1.368-1.23c.273-.137.82.546 1.64 1.23a17.2 17.2 0 0 0-2.324 1.5c-.273-.545-.82-1.092-.682-1.502zm893.507-.274a6.51 6.51 0 0 1 .412-.957l.41.41c-.135.274-.273.686-.41.958-.136-.138-.41-.274-.41-.412zm244.93-3.01a2.422 2.422 0 0 1 1.094-1.23c.274-.138.82.546 1.642 1.23-.958.684-1.506 1.095-2.19 1.643-.27-.55-.682-1.097-.544-1.645zm-1174.834-.684a2.43 2.43 0 0 1 .684-.547l.41.41a.71.71 0 0 0-.547.274c-.135-.002-.41-.14-.546-.14zm1219.716-3.697h1.368c-.188.625-.4.88-.623.88-.26 0-.518-.36-.745-.88zm-622.583 0h1.367c-.215.358-.467.566-.716.566-.227 0-.454-.174-.65-.566zm540.072-111.413c.41-.686.957-.822 1.368 0zm-622.582 0c.41-1.37.958-.958 1.37 0zm43.512-4.38c.958-.684 1.5-1.094 2.19-1.64.273.547.684 1.093.547 1.64a2.41 2.41 0 0 1-1.096 1.233.177.177 0 0 1-.078.017c-.292 0-.814-.624-1.564-1.25zm1176.475.82a.71.71 0 0 0 .547-.273c.137 0 .41.137.547.137a2.375 2.375 0 0 1-.683.547l-.41-.41zm-38.312-4.1a17.452 17.452 0 0 0 2.326-1.5c.274.546.82 1.094.685 1.5a2.057 2.057 0 0 1-1.37 1.23.166.166 0 0 1-.077.02c-.292-.004-.82-.628-1.563-1.253zm-891.32.822c.138-.274.274-.684.41-.958.138.136.412.274.412.41a6.658 6.658 0 0 1-.41.958zm807.442-12.315c.137-.137.273-.272.273-.41.137.138.274.41.137.55 0 .134-.137.272-.273.41 0-.142-.136-.415-.136-.553zm-1358.734-.273c.136 0 .273-.137.41-.137 0 .137.137.41.137.55a1.4 1.4 0 0 1-.41.134 1.04 1.04 0 0 0-.137-.55zm-154.344-5.887c.135-.136.273-.41.41-.41.273-.137.684.135 1.094.273-.273.273-.547.684-.684.684-.275 0-.548-.41-.82-.547zm157.082-2.737l.41-.136v.41zm580.573-11.083l.41-.41c.274.135.685.41.96.546-.14.136-.412.41-.412.41a2.228 2.228 0 0 1-.96-.546zm442.786-2.19l1.643-.41a2.014 2.014 0 0 1 .137 1.232 1.422 1.422 0 0 1-1.094.546 6.223 6.223 0 0 1-.686-1.368zm-271.61-2.874c-.135 0-.135-.273-.135-.41.136 0 .273-.135.547-.135 0 .274.136.41.136.685a.818.818 0 0 1-.548-.14zm378.887-2.188a3.73 3.73 0 0 1-1.23 0c-.82-.137-2.053 0-1.916-1.23a1.878 1.878 0 0 1 1.096-1.37 3.355 3.355 0 0 0 2.463-2.873c.272-1.78.82-3.558 1.23-5.337 0-.273.136-.41.136-.684a2.055 2.055 0 0 0-1.915-2.326 8.71 8.71 0 0 1-2.462-.82c-.136 0-.136-.96.136-1.096a5.02 5.02 0 0 1 6.98 1.64c2.6 4.517 1.5 8.76-.823 13a2.793 2.793 0 0 1-2.505 1.214 6.62 6.62 0 0 1-1.19-.12zm-165.84-2.463l.547.41-.547.137zm-288.713 0l.41.273-.41.274zm452.227-5.473a6.088 6.088 0 0 1-1.093-1.506c.273-.41.546-.82.684-1.094a1.944 1.944 0 0 1 .547.273 10.283 10.283 0 0 1 .958 1.64c.136.275-.41.686-.547.96a1.947 1.947 0 0 1-.548-.273zm-555.123 0c-.136 0-.136-.274-.273-.41.273.135.41.41.684.545a.508.508 0 0 1-.413-.135zm-.957-1.095a.5.5 0 0 1 .41.136c.136.138.136.41.274.548-.276-.273-.412-.41-.686-.683zm549.65-4.79c.41-.136.822-.547 1.1-.41s.41.684.546 1.095l-1.23.41a9.7 9.7 0 0 1-.418-1.094zm138.474-7.662c-.137 0-.274-.41-.274-.547.138-1.78 1.37-1.368 2.464-1.368-.256 1.024-.632 1.928-1.913 1.928-.09 0-.182-.005-.278-.013zm3.558-3.283l-1.368 1.368a1.293 1.293 0 0 1 1.366-1.37zm-24.22-.138c.138 0 .41-.137.547-.137a.824.824 0 0 1-.138.548c0 .136-.136.136-.273.136-.002-.135-.14-.272-.14-.543zm24.766-.546c0 .136 0 .41-.136.41 0 .136-.273.136-.41.273.134-.273.407-.41.544-.683zm13.958.41c-.273-.137-.41-.685-.547-1.095.41-.138.82-.41.957-.274a1.593 1.593 0 0 1 .82 1.094 3.482 3.482 0 0 1-1 .31.72.72 0 0 1-.233-.037zm-223.72-2.462c.548-1.78 1.234-3.558 1.918-5.338.136-.273.957-.684 1.094-.548.41.41.958.958.958 1.368a5.748 5.748 0 0 1-2.874 4.927.826.826 0 0 1-.547.136zM342.34 8070.458a1.64 1.64 0 0 1 .546-1.095 9.513 9.513 0 0 0 1.78.958c-.958.55-1.37.822-1.78 1.096a1.276 1.276 0 0 1-.547-.958zm1546.74-1.916v-.41a.825.825 0 0 1 .547-.137c.546.273.546.547-.136.547-.058.116-.115.157-.173.157-.078 0-.157-.08-.237-.158zm71.836-2.6c0-.136.273-.273.41-.41.138.41.274.683.41 1.094l-.41.41c-.137-.41-.273-.683-.41-1.093zm-61.3-14.094l.41.274-.41.136zm-600.553-2.325c.136-.274.684-.274 1.095-.55a3.426 3.426 0 0 1 .547.96c-.41.273-.958.41-1.37.683-.135-.41-.408-.82-.27-1.092zm418.977-1.37c.55-.683.822-1.23 1.233-1.64.546.41 1.23.684 1.368 1.094s-.546 1.23-.957 1.368a.4.4 0 0 1-.136.022c-.394 0-.895-.476-1.508-.843zm-71.7-1.23c.274 0 .822-.273.958-.136.275.136.41.684.684.958-.273.136-.684.41-1.23.683-.137-.547-.274-.958-.413-1.505zm520.918-2.326c0-1.23.137-2.052 1.23-2.325a1.135 1.135 0 0 1 1.096.41 2.865 2.865 0 0 1 .273 1.778c-.137.548-.957.957-1.368 1.095-.55 0-.958-.684-1.232-.958zm-375.876-6.294c.41-.138.684-.273 1.094-.41.138 0 .274.272.41.546-.41.135-.683.273-1.094.41-.136 0-.273-.41-.41-.543zm112.065-17.1c0-.137.136-.273.273-.41.138.273 0 .547 0 .957a1.034 1.034 0 0 1-.272-.552zm-555.535-10.672c.136-.272.274-.685.41-.957.138.136.41.273.41.41-.135.275-.272.685-.41.96zm428.282-7.526c.41-.41.684-.958 1.094-1.368a.828.828 0 0 1 .55-.136c.135.41.41.822.272 1.095a5.9 5.9 0 0 1-1.23 1.368 5.687 5.687 0 0 1-.686-.963zm-1318.78-1.5a4.152 4.152 0 0 0 1.095-.547c.136.273.41.82.272.957a2.732 2.732 0 0 1-1.094.548c-.137-.283-.137-.694-.274-.967zm2.874-6.7a6.032 6.032 0 0 1-1.095-1.506 3.86 3.86 0 0 1 1.506-.684l.82 2.053c-.33 0-.745.176-1.038.176a.422.422 0 0 1-.194-.052zm30.376-32.156c.274 0 .41 0 .547.136.138 0 .138.274.138.412-.137.136-.41.136-.548.273 0-.287-.136-.563-.136-.836zm971.092-1.094l.41.136-.41.136zm453.6-10.535a4.562 4.562 0 0 1-.822-1.37 4.238 4.238 0 0 0 1.23-.547c.138.547.412.957.548 1.5 0 .118-.61.44-.865.44a.13.13 0 0 1-.095-.036zm-116.58-5.476a1.43 1.43 0 0 1 1.367-1.78 1.355 1.355 0 0 1 .958.685c-.136.82-.41 1.505-.683 2.736-.825-.833-1.51-1.108-1.646-1.655zm10.81-4.378a1.042 1.042 0 0 1 .546-.274c.136 0 .273.274.547.274a1.04 1.04 0 0 1-.548.273.712.712 0 0 1-.55-.287zm266.82-3.832a2.38 2.38 0 0 1-.82-1.64 1.684 1.684 0 0 1 1.915-1.78c.275.41.823.82.823 1.368a2.05 2.05 0 0 1-1.61 2.133.58.58 0 0 1-.312-.094zm-23.124-.82a6.442 6.442 0 0 1 .684-1.37c.274.138.958.412.958.55a3.35 3.35 0 0 1-.547 1.64c-.552-.427-1.1-.697-1.1-.834zm-1131.732-.82a2.038 2.038 0 0 1 .136.82 1.375 1.375 0 0 1-.41.136c.133-.15.133-.423.27-.97zm1136.79-19.855l.82-.823a12.266 12.266 0 0 1 .82 1.37 5.636 5.636 0 0 1-1.094.408c-.272-.136-.408-.682-.547-.956zm53.5-1.643a5.59 5.59 0 0 1 1.23-.684c.136.41.41.684.41 1.095a2.115 2.115 0 0 0-.82.41c-.27-.274-.544-.548-.82-.82zm-53.776-2.736a5.9 5.9 0 0 0 .957-.82 11.88 11.88 0 0 1 .96 1.368l-.412.41a14.294 14.294 0 0 0-1.5-.957zm-1156.087-3.968c-.138-.138.136-.138.41-.138 0 .138.137.412.137.55a1.387 1.387 0 0 1-.41.136c.002-.133-.135-.41-.135-.548zm54.87-.684h.41l-.274.41zm493.413-5.61c.273-.275.41-.684.684-.958.136.138.41.274.41.41a2.578 2.578 0 0 1-.273 1.095c-.27-.138-.54-.41-.817-.547zm529.81-1.78c0-.272.41-.546.546-.82.138.135.41.273.41.41a9.61 9.61 0 0 0-.41 1.095c-.27-.273-.543-.547-.543-.684zm-663.5.274c0-.137.137-.41.137-.548a1.374 1.374 0 0 1 .41.136c0 .274-.135.41-.135.55a1.38 1.38 0 0 1-.404-.137zm-528.168-10.262c.273 0 .82-.273.957-.136a1.683 1.683 0 0 1 .546 1.095l-1.095.545c-.127-.546-.264-1.094-.4-1.505zm-282.283-2.326c.135.138.41.138.547.273-.128-.135-.404-.135-.54-.27zm-2.71-2.567a3.008 3.008 0 0 1 2.71 2.567c-2.265-.268-2.318-.273-2.703-2.567zm1376.632.38a3.9 3.9 0 0 1 .547-1.644 8.184 8.184 0 0 1 1.914.684 6.43 6.43 0 0 1-1.5 1.368.13.13 0 0 1-.093.028c-.253 0-.86-.32-.86-.438zm-1376.8-.412l.068-.068-1.3-1.3a6.013 6.013 0 0 1 1.5 1.233l-.117.118.01.05c-.04-.013-.095-.024-.15-.03zm-1.23-1.506v.06zm0 0zm-.548-.274a1.033 1.033 0 0 1 .547.273c-.125 0-.398-.274-.536-.274zm1326.578-.41l.412-.41a1.72 1.72 0 0 1-.138.82c.01-.137-.126-.273-.264-.41zm-1136.247-2.327c-.136-.548.41-1.096.548-1.642.41.273 1.37.41 1.37.684 0 .684-.275 1.5-.412 2.736-.81-.96-1.494-1.232-1.494-1.78zm1304.687-.82a9.11 9.11 0 0 1 1.506-.958c.136 0 .684.682.546.82a4.7 4.7 0 0 1-1.23 1.094 9.748 9.748 0 0 1-.81-.958zm-1216.43-.412c.136-.136.136-.41.273-.546l.41.82a2 2 0 0 0-.41.273 1.04 1.04 0 0 0-.262-.548zm759.413-12.862c0-.136.274-.273.41-.41v.82c-.125-.136-.4-.274-.4-.41zm536.38-3.42a4.353 4.353 0 0 1 .41-1.23 4.88 4.88 0 0 0 1.23.545 7.474 7.474 0 0 1-.683 1.096.128.128 0 0 1-.093.028c-.247 0-.856-.322-.856-.44zm112.2-3.832c.272-1.368.956-1.64 1.913-1.64.822 0 1.78 1.367 1.233 1.777a3.11 3.11 0 0 1-2.19.82.13.13 0 0 1-.063.016c-.26 0-.628-.72-.88-.973zm-84.016-12.59a7.792 7.792 0 0 1 1.094-.683c.137.412.41.82.274 1.232s-.685.41-1.095.547c-.125-.412-.398-.82-.264-1.096zm-637.772-.683c-.41 0-.547-.547-.822-.957 0-1.915 1.233-3.145 2.6-4.378a1.947 1.947 0 0 1 .547-.273c.136.41.547.82.41 1.095a38.864 38.864 0 0 1-1.64 4.242.99.99 0 0 1-.806.326.66.66 0 0 1-.276-.055zM450.97 7821.7c.41-.274.822-.685 1.232-.958.136.136.41.41.273.546l-.684 1.368c-.396-.41-.533-.684-.806-.957zm1127.626-5.885c.136.136.41.273.547.41a3.436 3.436 0 0 0-.957.547c.153-.273.287-.684.423-.957zm0-.136a4.6 4.6 0 0 1 0-1.37 10.9 10.9 0 0 1 1.095-2.19c.548.274 1.37.55 1.643.958a1.9 1.9 0 0 1-.82 2.737 4.02 4.02 0 0 1-1.234.273.753.753 0 0 1-.67-.41zm-67.73-4.517l.41-.41c.136.136.273.273.273.41s-.274.274-.412.41c-.123-.136-.26-.273-.26-.41zm-935.106-10.946l.822-1.23c.136.41.546.82.546 1.094 0 .412-.41.685-.546 1.096a4.34 4.34 0 0 0-.81-.96zm48.576-3.694a5.63 5.63 0 0 1 .957-1.5c.136-.136.958.136.958.273a4.082 4.082 0 0 1 .137 1.78c-.136.41-.958.547-1.5.547a7.98 7.98 0 0 1-.538-1.1zm362.876-5.2c.274-.273.82-.273 1.095-.546.136.273.41.684.547.957-.41.274-.958.41-1.368.684-.125-.41-.398-.822-.26-1.096zm503.13-15.872a.823.823 0 0 1-.138-.547c.273-.546.547-.546.547.138.274 0 .137.274 0 .41zm-27.094-11.766a3.018 3.018 0 0 1-.547-1.78 3.524 3.524 0 0 1 .685-1.64c.274-.412 1.642.547 1.78 1.367 0 .274.135.412.135.685a3.806 3.806 0 0 0-.136 1.233q-.2.614-.41 1.23a3.09 3.09 0 0 1-1.493-1.095zm-293.366-.684c-.41-.138-.547-.547-.684-.958.273-.274.684-.41.958-.684.273.41.547.957.82 1.368a3.82 3.82 0 0 1-.923.31.374.374 0 0 1-.158-.037zm-356.582-9.58l.273.274-.41.136zm-.547-4.65c0-.137.547-.548.82-.822a9.442 9.442 0 0 1 1.096 1.368c-.412.273-.685.548-1.232.958a4.754 4.754 0 0 1-.673-1.506zm547.463-6.433a8.24 8.24 0 0 1 .957-1.368c.137-.137.957.41.957.547a4.206 4.206 0 0 1-.684 1.642c-.534-.413-.945-.553-1.218-.824zm128.758-9.3a6.068 6.068 0 0 1 1.095-1.5c.135-.138.956.41.956.546a8.312 8.312 0 0 1-.684 1.642 12.464 12.464 0 0 0-1.356-.693zm-109.74-5.473a9.914 9.914 0 0 1 .55-2.19 2.08 2.08 0 0 1 1.5-.82c.683 0 1.23.41.82 1.367-.273.687-.273 1.37-.546 1.917a5.35 5.35 0 0 1-1.095 1.368 8.488 8.488 0 0 0-1.218-1.646zM1430 7725.1a1.744 1.744 0 0 1-.684-.957c.136-.41 0-.957.273-1.23.957-.547 1.778-1.37 2.873-1.507a2.6 2.6 0 0 1 2.053 1.095c.273.275 0 1.37-.41 1.78a3.086 3.086 0 0 1-2.435 1.283 3.494 3.494 0 0 1-1.66-.467zm309.1-2.6c.274-.134.547-.272.822-.41 0 .41.136.822.136 1.1 0 .136-.274.273-.547.41a9.642 9.642 0 0 1-.398-1.104zm-336.73-4.793c-.135-.136 0-.82-.135-1.23 0-.41.136-.958.136-1.37.137-1.094.686-1.778 1.643-1.505.684.274 1.78 1.233 1.642 1.78a6.406 6.406 0 0 1-1.642 2.737.228.228 0 0 1-.15.034 4.506 4.506 0 0 1-1.492-.447zm-5.2-1.915c0-.273.274-.41.41-.546.137.136.412.273.412.41-.136.41-.274.684-.41 1.095-.137-.275-.273-.685-.41-.96zm-23.124-7.114l.275-.41.274.41zm218.657-1.643a4.056 4.056 0 0 1 1.095-3.694c.273-.135.957-.135 1.094.137 1.368 1.368 1.368 3.01-.137 3.97-.136.272-.684.272-1.095.408-.272-.273-.956-.548-.956-.82zm-214-7.663c.547-.684.822-1.506 1.23-1.506.548 0 .96.547 1.37.958-.274.41-.548 1.095-1.095 1.23a.214.214 0 0 1-.1.023c-.297 0-.8-.462-1.41-.705zm551.02-7.115a5.637 5.637 0 0 1 1.094-.41c.274.273.41.82.684 1.094-.272.275-.545.412-.82.685a8.382 8.382 0 0 0-.96-1.37zm-548.968-7.8c0-.138.138-.41.138-.548.136.272.41.41.546.683 0 .136-.274.273-.41.41-.004-.136-.14-.272-.28-.545zm-355.076-4.516a1.04 1.04 0 0 1 .272-.547 19.525 19.525 0 0 1 1.78-.822c.274.14.41.14.548.413.135.135.135.546 0 .546-.685.273-1.37.547-2.19.82a.617.617 0 0 1-.415-.408zm60.205-21.892c.137-.138.137-.41.273-.41s.273.135.547.135c-.137.137-.137.41-.274.41s-.413-.134-.55-.134zm159.545-47.208l2.052-3.694c.138-.136.547 0 .684 0 .822.41 1.1 2.737.138 3.42a4.607 4.607 0 0 1-1.915.685 2.91 2.91 0 0 1-.964-.41zm781.034-61.983c.546-.274.957-.41 1.5-.686a15.93 15.93 0 0 0 .684 1.507 7.24 7.24 0 0 1-1.642.41c-.137.002-.274-.68-.547-1.23zm-180.482-2.6l.822-.41c0 .41.137.683.137 1.093 0 .138-.273.274-.41.41a4.172 4.172 0 0 1-.553-1.09zm-1180.58-4.653a7.85 7.85 0 0 1-1.5-1.506c.273-1.368 1.914-2.188 2.736-1.78a3.283 3.283 0 0 1 .957 1.643 1.765 1.765 0 0 1-1.6 1.8 1.18 1.18 0 0 1-.598-.153zm3.42-6.843a27.6 27.6 0 0 1 1.642-2.6c.41.274.684.412.684.55a.816.816 0 0 1 .138.545c-.412.822-.684 1.644-1.1 2.328a1.586 1.586 0 0 1-.957.684c-.96-.136-.685-.96-.412-1.504zm757.225-26c.41-.135.684-.272 1.094-.41.14 0 .275.274.412.41-.41.138-.684.274-1.095.412-.14.004-.277-.265-.418-.407zm-176.786-7.662c0-.684.274-1.23 1.095-.957.274 0 .41.41.822.822-.41.41-.958.685-1.368 1.095-.143-.27-.552-.68-.552-.95zm43.786-28.46a13.973 13.973 0 0 1 1.23-2.873c2.464.82 2.875 1.642 1.643 3.42-.14.137-.275.41-.412.548-.684.274-1.5.41-2.188.685-.14-.545-.55-1.23-.28-1.776zm0-3.01c-.273-.137-.547-.41-.822-.55.138-.135.274-.272.412-.272a.82.82 0 0 1 .546.136 12.23 12.23 0 0 0 1.23.684c-.272 0-.546.06-.86.06a2.047 2.047 0 0 1-.513-.054zm383.948-2.6c.41-.14.684-.412 1.095-.55.135.41.41.96.272 1.232s-.684.274-1.094.41a3.23 3.23 0 0 0-.277-1.088zm-401.462-30.24c.273 0 .41-.138.684-.138a.82.82 0 0 1-.136.546c-.138.138-.274 0-.41.138-.005-.127-.14-.405-.14-.54zm89.762-9.853a4.875 4.875 0 0 1-1.368-1.506c.273-.685.41-1.5.957-1.78a10.125 10.125 0 0 1 3.01-1.368c.137-.136.82.547.82.547-.683 1.367-1.5 2.6-2.325 3.968a.885.885 0 0 1-.713.286c-.18.006-.336-.038-.385-.143zm762.834-.41h.41l-.272.547zm-1569.454-2.6c.136-.275.684-.412.957-.412.137 0 .412.547.686.958a4.89 4.89 0 0 0-1.506.547 1.622 1.622 0 0 1-.14-1.086zm806.62-15.6c.684-.685.957-1.37 1.368-1.37a1.743 1.743 0 0 1 1.23.958c0 .41-.546 1.23-.957 1.23a.405.405 0 0 1-.136.023c-.397.01-.9-.468-1.51-.834zm-903.907-4.517a1.54 1.54 0 0 1-1.095-.684c-.138-.274.136-1.095.273-1.095 1.095-.274 2.19-.41 3.147-.685-.124 1.25-.478 2.5-1.89 2.5a2.736 2.736 0 0 1-.44-.03zm2.463-4.926c0-.274.82-.547.957-.547.41.41.958 1.23.82 1.37a10.95 10.95 0 0 0-1.777 1.777 16.354 16.354 0 0 1-.004-2.592zm-1.23-5.473c0-.958 1.093-1.642 1.64-1.232a2.07 2.07 0 0 1 .547 1.095 10.723 10.723 0 0 1-1.5 2.463 9.228 9.228 0 0 1-.693-2.32zm1082.47-3.286c.137 0 .274-.136.412-.136 0 .136.136.41.136.547a1.388 1.388 0 0 1-.41.136c-.005-.127-.14-.263-.14-.538zm-1094.1-10.4c.137-.138.274-.138.41-.274l-.547.547a.475.475 0 0 1 .13-.262zm.41-.138a2.992 2.992 0 0 1 .548-.684.505.505 0 0 1-.136.41.487.487 0 0 0-.41.274zm1741.042-.958a2.353 2.353 0 0 1 .137-1.094c1.64-.82 3.146-1.506 4.788-2.19v2.737a5 5 0 0 0-4.38.82c-.143.013-.55-.124-.55-.262zm-832.345-7.8a4.333 4.333 0 0 1 .684-1.368c.14.138.412.275.412.548a10.446 10.446 0 0 1-.136 1.917c-.417-.54-.966-.812-.966-1.086zm-379.57-11.767c.41-.135.684-.41 1.095-.547.136.41.41.82.273 1.095s-.684.273-1.095.41a3.47 3.47 0 0 1-.28-.946zm1184.548-.957a.82.82 0 0 1-.137-.546c.273-.548.547-.548.684.136a1.374 1.374 0 0 0-.137.41zm-434.712-5.062c-.41-.135-.684-.683-.958-.82a4.6 4.6 0 0 1 1.37 0 1.66 1.66 0 0 1 .683.685 2.846 2.846 0 0 1-.823.194.6.6 0 0 1-.28-.05zm-1.506-1.505a.48.48 0 0 1 .274.138c.137.137.137.273.274.41-.143-.126-.417-.4-.554-.537zm5.2-1.777a19.67 19.67 0 0 1-2.326-2.464c-.956-1.094.137-2.052.412-3.01.684-2.052 1.094-4.24 1.64-6.3 0-.135.412-.272.55-.272.41.136 1.094.41 1.094.547 0 3.557 1.368 7.115.137 10.534 0 .548-.546.684-.957.958-.09 0-.3.06-.436.06-.074.016-.12 0-.12-.044zm-363.97-7.936c0-.274.41-.684.82-.822.41 0 .958.138 1.368.138 0-.822.138-1.78.138-2.6s-.274-1.5-.274-2.326c2.19 0 1.367 1.78 1.367 2.737a8.852 8.852 0 0 1-1.23 2.19c0 .41.137 1.093 0 1.23a2.053 2.053 0 0 1-1.5.546c-.288.01-.698-.674-.698-1.084zm-75.122-13.684a2.514 2.514 0 0 1 .957-.274c.138 0 .274.274.412.41a9.476 9.476 0 0 1-1.1.412 1.04 1.04 0 0 0-.276-.537zm395.305-3.01l.41.273-.41.14zm-429.1-6.84c.138-1.918 1.23-3.013 2.19-2.6a1.28 1.28 0 0 1 .684.957 1.92 1.92 0 0 1-1.78 2.188 7.683 7.683 0 0 1-1.103-.536zm-20.114-.685a7.39 7.39 0 0 1 1.5-.685c.138 0 .547.822.547.958a4.872 4.872 0 0 1-1.368.957 4.918 4.918 0 0 1-.688-1.22zm135.326-3.832a3.44 3.44 0 0 1 .958.548 1.18 1.18 0 0 1-.593.3c-.342.01-.172-.635-.374-.837zm-.547-.272c.138.136.41.136.547.273-.282-.125-.418-.125-.556-.263zm-559.64-1.095c-.273-.138-.273-.958-.135-1.23a11.518 11.518 0 0 0 3.83-6.844c.137-.41 1.1-.685 1.916-1.095.957 1.23 2.053 2.326 2.874 3.556a1.934 1.934 0 0 1-.136 1.232 56.07 56.07 0 0 1-6.022 5.338.267.267 0 0 1-.194.06 5.892 5.892 0 0 1-2.142-1.007zm-308.69-5.473a7.972 7.972 0 0 0 1.23-.684c.274.546.548.957.822 1.5a1.045 1.045 0 0 1-.548.273 10.5 10.5 0 0 1-1.515-1.08zm5.2-4.926h1.094a15.1 15.1 0 0 1 .272 2.46c0 .137-.273.275-.82.548a27.693 27.693 0 0 1-.557-2.998zm-129.444-13.547c.275-.684.685-.684.822 0 0 .136-.273.41-.41.548-.146-.128-.42-.398-.42-.538zm847.123-6.843h.684l-.41.412c-.146-.127-.283-.263-.283-.4zm-19.728-3.073a.522.522 0 0 1-.113.2c.03-.064.068-.133.104-.188zm.162-.346a.79.79 0 0 1-.162.347.93.93 0 0 1 .153-.333zm.136 0c-.41-1.23-.82-2.6-1.095-3.83-.136-.822 1.095-2.054 1.642-1.643 1.5 1.096 3.283 1.232 5.062 1.507.684.136.684.82 0 .82-2.41.134-3.25 3.15-5.463 3.15-.06.01-.106.01-.156.01zm-55.28-3.967a11.883 11.883 0 0 1 1.37-.958c.136.137.41.41.272.546-.273.548-.547.957-.82 1.5a11.2 11.2 0 0 1-.83-1.078zm181.575.273a.824.824 0 0 1-.137-.547c.275-.684.548-.684.685 0 0 .136-.136.274-.136.547zm-123.42-4.515a7.575 7.575 0 0 1 .546-.958c.137.138.41.273.41.41a3.412 3.412 0 0 1-.546.957c-.147-.125-.283-.26-.42-.398zm871.75-5.748a.818.818 0 0 1-.137-.547 2.946 2.946 0 0 1-.272-1.368 14.984 14.984 0 0 0 .82-1.506 6.835 6.835 0 0 1 1.915 1.37 2.587 2.587 0 0 1 .137 1.776c-.137.548-.684 1.233-1.094 1.233s-.966-.537-1.376-.947zm-777.475-2.874l.822-.41c0 .41.136.684.136 1.1 0 .135-.273.272-.41.408a8.21 8.21 0 0 1-.556-1.086zm19.02-2.463c.546-.273.957-.41 1.505-.684 0 .41.274.82.136 1.095a2.45 2.45 0 0 1-.958.685 6.02 6.02 0 0 0-.693-1.088zm326.07-20.934a15.61 15.61 0 0 1 .683-1.506 5.558 5.558 0 0 1 1.095.41 3.465 3.465 0 0 1-.273 1.643c-.694-.263-1.104-.4-1.514-.535zm-989.017-.274a2.472 2.472 0 0 1 .136-1.368h-.273a3.007 3.007 0 0 1 .272-1.916c.273-.41 1.23-.822 1.64-.547a2.915 2.915 0 0 1 .823 4.106 2.755 2.755 0 0 1-1.78.547c-.28.012-.692-.535-.828-.806zm585.91-3.832a5.262 5.262 0 0 1-.82-1.5c-.136-.273.273-.684.547-1.095.136.138.41.274.546.41.273.548.546 1.232.82 1.78 0 .136-.137.41-.273.41a.24.24 0 0 1-.182.06c-.16.007-.374-.054-.647-.054zm156.672-10.4c0-.137.137-.41.137-.546a2.92 2.92 0 0 1 .55.684l-.412.41a.715.715 0 0 0-.284-.536zm-680.05-12.178a2.965 2.965 0 0 0 .683-.41 2.985 2.985 0 0 1 .14 1.094c0 .136-.275.274-.412.41-.146-.398-.28-.67-.42-1.082zm471.246-5.062c.685-.41 1.233-.958 1.642-.958a1.978 1.978 0 0 1 .958 1.37c-.138.546-.958.82-1.368 1.23-.42-.398-.694-.946-1.24-1.63zm-162.692.136a.61.61 0 0 1-.41-.547v-1.096c.546-1.64.546-3.42 2.6-3.694a.82.82 0 0 1 .545.136c.958.684.822 1.917-.684 4.242a2.958 2.958 0 0 1-.82.958 1.333 1.333 0 0 1-.564.1 2.174 2.174 0 0 1-.677-.087zm-205.794-12.18l.273-.408.137.41zm574.28-23.122c-.273-.138-.273-.685-.546-.958.273-1.642.957-2.463 1.915-2.19.273.138.82.684.82.822a10.54 10.54 0 0 1-.958 2.188c-.08.16-.35.227-.64.227a1.973 1.973 0 0 1-.6-.076zm-314.164-.138c-1.233-.958-1.5-3.283-.41-4.1 0-.274.273-.274.957-.41.41.82 1.23 1.64 1.37 2.6 0 .683-.823 1.368-1.37 2.052 0 .04-.035.056-.088.056a.825.825 0 0 1-.467-.185zm71.836-12.178c.136-.82.41-1.642 1.506-1.642.273 0 .957.41.957.547a3.24 3.24 0 0 1-.41 1.642 2.45 2.45 0 0 1-1.5.41c-.288.012-.425-.67-.56-.944zm839.048-19.84c-.41-.82-.957-1.78-1.368-2.464.137-.547.274-.82.274-.957.273 0 .957-.136.957 0a19.57 19.57 0 0 1 1.096 3.01.734.734 0 0 1-.41.548.82.82 0 0 1-.556-.128zm-1293.6-3.97c.136.138.273 0 .41-.137.136 0 .274.138.547.138-.136.138-.41.41-.547.41-.01.015-.283-.258-.42-.396zm1342.725-.546a10.99 10.99 0 0 1-1.642-1.095c.823-.41 1.507-.957 1.78-.82a2.84 2.84 0 0 1 .822 1.368 1.312 1.312 0 0 1-.855.568.246.246 0 0 1-.114-.007zm6.7-4.516a15.57 15.57 0 0 1-.684-1.5c.41-.137.683-.273 1.367-.55a3.47 3.47 0 0 1 .274 1.645c0 .224-.638.447-.872.447-.058.01-.09 0-.09-.027zM870.65 7105.784a3.676 3.676 0 0 1 .822-.684l.82 1.23c-.41.137-.684.412-1.095.412-.28-.124-.416-.67-.552-.945zm625.455-10.535a8.314 8.314 0 0 1 .684-2.464c.137-.41.548-.685.82-.958a4.344 4.344 0 0 1 .412 1.23 8.436 8.436 0 0 0 .136 1.916 1.025 1.025 0 0 1-.136.684 3.58 3.58 0 0 1-.684.82c-.416-.396-1.238-.807-1.238-1.216zm-671.566-3.97c.135-.41.82-.684 1.367-1.095.137.41.548.822.548 1.095l-.958 1.915c-.558-.807-1.102-1.488-.964-1.902zm95.507-.82a4.08 4.08 0 0 1-2.326-1.096 7.327 7.327 0 0 1-1.23-1.64 5.4 5.4 0 0 1 3.147-8.075h1.5a2.74 2.74 0 0 1 2.328 3.966c-.443 1.063-1.116.865-1.794.667a1.988 1.988 0 0 0-1.08-.118 1.738 1.738 0 0 0-.957.684 1.132 1.132 0 0 0 .41 1.093c.822.41 1.642.547 2.462.958.276.137.412.823.412 1.096a3.28 3.28 0 0 1-2.7 2.473c-.06.012-.12.008-.178.003zm678.41-19.7l.546.135-.274.41zm-591.933-25.59l-.41-.41c.957-2.05-.138-3.968 0-5.883.273-2.326 1.5-4.65 2.326-6.978.136-.14.273-.412.41-.548.138-.274.41-.137 1.095-.137a12.133 12.133 0 0 1 2.463 1.778 1.79 1.79 0 0 1 .41 1.78c-1.368 3.01-2.736 6.02-4.24 9.03a4.875 4.875 0 0 1-1.507 1.367.384.384 0 0 1-.272.1.385.385 0 0 1-.28-.09zm-641.054-11.628a4.32 4.32 0 0 1 3.01-2.326.615.615 0 0 1 .41.41 3.48 3.48 0 0 1-.684 1.78 6.585 6.585 0 0 1-2.19 1.094c-.142.007-.415-.676-.552-.95zm725.2-3.694c.138-.138.274-.274.41-.274.138.137.274.274.274.41s-.273.274-.41.274c-.005-.128-.137-.264-.275-.4zm341.942-3.7c.274-.273.547-.41.684-.684.137.41.274.684.41 1.095 0 .135-.273.272-.41.41a3.642 3.642 0 0 1-.686-.81zm-548.83-2.463a1.03 1.03 0 0 1-.273.547c.135-.125.135-.397.27-.533zm.548-.684a.5.5 0 0 1-.138.412c-.136.136-.273.136-.41.273.136-.26.41-.397.547-.67zm122.6-2.052a11.11 11.11 0 0 1 .41-1.5c.55-.82 1.917-.957 2.053-.273a2.736 2.736 0 0 1-.273 1.777 1.54 1.54 0 0 1-1.1.685c-.27.01-.68-.4-1.09-.676zm-113.57-13.82a1.047 1.047 0 0 1-.274.685c.136-.26.136-.397.272-.67zm0 .138l.546-.547a.483.483 0 0 1-.136.273c-.135.136-.273.136-.41.273zm38.312-6.843c.273-.273.41-.683.684-.957.136.274.547.684.547.957s-.41.685-.547.96c-.274-.26-.412-.676-.684-.946zm1118.323-7.8a.82.82 0 0 1-.138-.547c.274-.547.547-.547.685.137.136 0 0 .273-.138.41zm-935.927-10.81l.41.137-.273.41zm-716.584-7.252a7.318 7.318 0 0 1 1.368-2.19 15.194 15.194 0 0 1 1.506 1.37c-.138 1.64-.822 2.052-1.917 2.052-.684.015-1.368-.395-.957-1.215zm3.147-5.063c.274-.41.548-.82.958-1.368.274.273.684.683.684.957-.135.546-.548.957-.684 1.5-.41-.115-.686-.526-.958-1.074zm102.624-2.462c.136-.41.136-.958.41-1.233a1.687 1.687 0 0 1 1.095-.547c.274 0 .548.547.548.958a2.208 2.208 0 0 1-.41 1.23 4.135 4.135 0 0 1-.96.685c-.274-.394-.412-.667-.685-1.076zm655.56-3.285a4.15 4.15 0 0 0 .546-1.095c.273.274.546.547.546.82s-.41.412-.684.686c-.137-.12-.41-.393-.41-.393zm1.776-2.473c.41-1.095.958-.685 1.37 0zm-440.46-12.442l.41.274-.41.272zm-193.07-5.2a5.98 5.98 0 0 0-.683-1.233c.274-.41.684-1.23.958-1.23a1.978 1.978 0 0 1 1.368.957c.244.61-.82 1.547-1.44 1.548a.456.456 0 0 1-.202-.025zm806.075-1.78a9.44 9.44 0 0 1 .41-1.094c.41.137.958.41 1.368.547-.273.275-.41.822-.684.96a.276.276 0 0 1-.122.026c-.27.014-.62-.302-.97-.42zm-128.348-2.2c.273-.273.41-.82.684-.957s.685.273 1.096.41a9.42 9.42 0 0 1-.41 1.095c-.41-.12-.96-.396-1.37-.53zm806.21-.82c-.273-.684 1.095-1.78 1.64-1.5a6.12 6.12 0 0 0 .685 1.23c-.273.41-.684 1.23-.957 1.23a1.973 1.973 0 0 1-1.368-.942zm-191.837-6.98l.41-.272v.547zm-441.42-12.148h1.367c-.182.486-.39.676-.6.676-.268 0-.538-.295-.768-.676zm2.05-2.2c0-.273.413-.41.686-.685l.41.412a4.108 4.108 0 0 0-.548 1.094c-.27-.273-.545-.547-.545-.82zm654.6-2.737a2.216 2.216 0 0 1 .412-1.23 4.126 4.126 0 0 1 .958-.685c.273.41.41.684.684 1.095-.136.41-.136.958-.41 1.23a1.69 1.69 0 0 1-1.095.548c-.272 0-.546-.547-.546-.958zm103.035-2.874c.138-.547.547-.957.685-1.5.41.136.684.547.957 1.095-.273.41-.547.82-.957 1.37-.27-.28-.682-.69-.682-.963zm1.915-4.65c.138-1.643.822-2.054 1.917-2.054.684 0 1.368.41.957 1.233a7.337 7.337 0 0 1-1.368 2.188 15.2 15.2 0 0 1-1.507-1.368zm-714.122-8.21l.273-.41.14.545zm-936.063-10.263c-.136 0 0-.273.138-.41h.41a.827.827 0 0 1 .137.546c-.13.258-.258.393-.373.393-.128.004-.236-.17-.31-.53zm1117.64-8.21c0-.273.41-.684.546-.957.275.273.41.684.685.957-.274.274-.41.684-.684.958-.133-.274-.543-.683-.543-.958zm39.133-6.567c.137-.138.273-.138.41-.274l-.547.547a.475.475 0 0 1 .14-.274zm.684-.822c-.136.274-.136.41-.274.685a1.048 1.048 0 0 1 .277-.686zm-.274.547v.062zm-116.032-11.9a2.728 2.728 0 0 1 .274-1.776 1.538 1.538 0 0 1 1.094-.685c.274 0 .684.41 1.095.684a10.947 10.947 0 0 1-.412 1.5 1.69 1.69 0 0 1-1.35.712c-.352 0-.64-.143-.7-.44zm125.2-4.24c.138-.137.274-.137.412-.274-.138.273-.41.41-.55.684a.5.5 0 0 1 .14-.415zm.685-.82c-.135.135-.135.41-.272.546a1.04 1.04 0 0 1 .275-.552zm-550.2-2.327c0-.136.274-.274.41-.41a3.64 3.64 0 0 1 .686.82c-.274.274-.547.412-.685.685-.132-.42-.27-.69-.405-1.1zm342.352-3.42c0-.136.274-.274.41-.274 0 .137.137.273.274.41-.136.137-.273.273-.41.273-.132-.142-.27-.278-.27-.416zm81.415-1.233a12.1 12.1 0 0 1-2.463-1.777 1.786 1.786 0 0 1-.41-1.78c1.368-3.01 2.736-6.02 4.242-9.03a4.868 4.868 0 0 1 1.5-1.367.414.414 0 0 1 .547 0l.41.41c-.957 2.053.137 3.97 0 5.884-.273 2.326-1.5 4.653-2.325 6.978-.136.136-.274.41-.41.547-.07.137-.172.17-.342.17s-.403-.04-.745-.04zm641.055-.41a3.474 3.474 0 0 1 .684-1.78 6.6 6.6 0 0 1 2.188-1.094c.138 0 .41.684.547.958a4.322 4.322 0 0 1-3.008 2.326.62.62 0 0 1-.406-.414zM940.7 6810.098l.272-.41.274.547zm677.86-8.756a2.74 2.74 0 0 1-2.326-3.967c.443-1.063 1.115-.865 1.793-.667a2.02 2.02 0 0 0 1.08.12 1.75 1.75 0 0 0 .96-.684 1.137 1.137 0 0 0-.412-1.1c-.82-.41-1.64-.546-2.463-.957-.273-.136-.41-.82-.41-1.095.273-1.23 1.64-2.6 2.872-2.463a4.077 4.077 0 0 1 2.326 1.094 7.384 7.384 0 0 1 1.23 1.642 5.4 5.4 0 0 1-3.146 8.073zm94.687-11.63l.958-1.915c.547.82 1.094 1.5.958 1.915s-.82.685-1.37 1.095c-.13-.415-.542-.825-.542-1.1zm-671.566-1.78a8.35 8.35 0 0 0-.137-1.914 1.017 1.017 0 0 1 .138-.684 3.6 3.6 0 0 1 .685-.822c.41.41 1.23.822 1.23 1.23a8.3 8.3 0 0 1-.684 2.465c-.136.41-.545.684-.82.957a4.358 4.358 0 0 1-.405-1.236zm625.73-13.272c.41-.136.684-.41 1.094-.41.274.135.41.683.547.957a3.593 3.593 0 0 1-.82.684q-.405-.617-.816-1.235zm-1184.96-23.125c0-.273.958-.546.958-.41a15.58 15.58 0 0 1 .684 1.506c-.41.137-.684.274-1.368.547a3.457 3.457 0 0 1-.27-1.647zm7.526-3.01a2.83 2.83 0 0 1-.82-1.368c0-.136.683-.684.956-.547a10.845 10.845 0 0 1 1.642 1.1 7.888 7.888 0 0 1-1.677.84.23.23 0 0 1-.097-.03zm1341.9-2.462c.136-.138.41-.41.547-.41 0 0 .274.272.41.41-.136-.138-.273 0-.41.137-.13-.005-.264-.142-.54-.142zm-1292.508-.547a19.4 19.4 0 0 1-1.095-3.01.73.73 0 0 1 .41-.547.82.82 0 0 1 .547.136c.41.82.958 1.78 1.37 2.463-.138.546-.274.82-.274.957-.184 0-.55.06-.772.06-.102-.006-.177-.02-.177-.07zm836.45-22.167a3.26 3.26 0 0 1 .41-1.643 2.458 2.458 0 0 1 1.5-.41c.274 0 .41.684.547.957-.137.82-.41 1.64-1.5 1.64-.265-.004-.95-.414-.95-.55zm72.383-11.358c0-.684.82-1.368 1.37-2.052 0-.137.41 0 .546.136 1.23.957 1.506 3.283.41 4.105 0 .274-.273.274-.957.41-.402-.825-1.224-1.645-1.36-2.603zm-313.617 1.095c-.273-.136-.82-.685-.82-.822a10.6 10.6 0 0 1 .957-2.188c.138-.273.822-.273 1.233-.136.273.137.273.685.547.958-.24 1.435-.79 2.24-1.564 2.24a1.282 1.282 0 0 1-.344-.056zm575.238-26.272h.412l-.273.41zm-208.12-6.978c-.956-.684-.82-1.915.686-4.242a2.978 2.978 0 0 1 .82-.958 1.89 1.89 0 0 1 1.232 0 .612.612 0 0 1 .41.547v1.095c-.546 1.64-.546 3.42-2.6 3.693a.83.83 0 0 1-.54-.14zm-162.554-5.473c.137-.547.958-.82 1.37-1.233.41.413.683.96 1.23 1.643-.684.41-1.23.958-1.642.958a1.978 1.978 0 0 1-.95-1.372zm473.026-5.337c0-.137.274-.273.41-.41.14.41.274.684.412 1.094a3.04 3.04 0 0 0-.685.412 3.02 3.02 0 0 1-.13-1.1zm-679.913-11.63l.41-.41a.707.707 0 0 0 .273.546c0 .136-.138.41-.138.547a2.992 2.992 0 0 1-.538-.688zm157.08-8.074c-.274-.547-.547-1.23-.822-1.78 0-.136.137-.41.274-.41.137-.137.41 0 .82 0a5.268 5.268 0 0 1 .823 1.5c.136.274-.274.685-.547 1.096-.13-.138-.403-.274-.54-.412zm584.406-2.188a2.917 2.917 0 0 1-.82-4.105 2.748 2.748 0 0 1 1.78-.547c.272 0 .683.547.82.82a2.47 2.47 0 0 1-.137 1.368h.272a3.018 3.018 0 0 1-.273 1.918 1.828 1.828 0 0 1-1.3.635.627.627 0 0 1-.336-.094zm-989.016-3.01a3.46 3.46 0 0 1 .274-1.642c.684.273 1.094.41 1.5.547a15.856 15.856 0 0 1-.684 1.5 5.635 5.635 0 0 1-1.08-.41zm326.206-22.44a2.452 2.452 0 0 1 .958-.685 6.123 6.123 0 0 0 .682 1.095c-.546.274-.957.41-1.5.684.005-.417-.268-.828-.132-1.102zm-759.14-2.873a2.6 2.6 0 0 1-.137-1.78c.137-.546.683-1.23 1.094-1.23s.957.546 1.37.957a.827.827 0 0 1 .135.548 2.943 2.943 0 0 1 .272 1.368 15.34 15.34 0 0 0-.822 1.5 6.87 6.87 0 0 1-1.905-1.37zm778.845.136c0-.136.274-.273.41-.41a8.144 8.144 0 0 1 .548 1.094l-.82.41c.007-.416-.13-.69-.13-1.1zm94.277-7.39a3.41 3.41 0 0 1 .547-.957l.41.412a7.84 7.84 0 0 1-.546.957c-.13-.144-.403-.28-.403-.417zm3.283-3.284c-1.5-1.094-3.285-1.23-5.062-1.5-.684-.137-.684-.82 0-.82 2.463-.14 3.283-3.286 5.61-3.15a39.833 39.833 0 0 1 1.095 3.833 1.808 1.808 0 0 1-1.385 1.723.425.425 0 0 1-.25-.092zm54.186-1.094c.273-.547.547-.958.822-1.506a10.912 10.912 0 0 1 .82 1.095 11.77 11.77 0 0 1-1.368.956c-.13-.142-.403-.42-.266-.55zm-180.48-.138c0-.136.137-.273.137-.547h.41a.827.827 0 0 1 .137.547c-.136.343-.273.514-.393.514s-.215-.176-.284-.52zm127.14-4.587a.91.91 0 0 1-.162.345.8.8 0 0 1 .17-.35zm.113-.2c-.04.077-.078.142-.114.2a.522.522 0 0 1 .12-.206zm-20.526-2.874l.41-.41c.137.136.274.273.274.41zm846.986-6.842c0-.136.273-.41.41-.547.138.138.41.412.41.548-.135.343-.307.513-.46.513s-.284-.174-.352-.517zm-129.716-13.546a15.11 15.11 0 0 1-.274-2.463c0-.14.274-.275.822-.548a28.286 28.286 0 0 1 .546 3.01zm-310.88-4.79a1.922 1.922 0 0 1 .136-1.23 55.928 55.928 0 0 1 6.02-5.338c.274-.273 1.5.41 2.327.957.273.14.273.96.136 1.232a11.53 11.53 0 0 0-3.832 6.842c-.136.41-1.093.684-1.914 1.094-.95-1.234-2.044-2.328-2.865-3.56zm315.122-.958a1.033 1.033 0 0 1 .547-.273 10.536 10.536 0 0 1 1.5 1.095 7.922 7.922 0 0 0-1.23.685c-.262-.553-.537-.963-.81-1.51zm-866.826-6.02c.274.137.41.137.547.273-.128-.14-.404-.14-.54-.278zm-.958-.547c1.095-.822.684.273.958.546a3.415 3.415 0 0 1-.95-.55zm113.98-1.37a1.28 1.28 0 0 1-.684-.957 1.92 1.92 0 0 1 1.78-2.188 7.556 7.556 0 0 1 1.094.547c-.117 1.644-.943 2.683-1.78 2.685a1.05 1.05 0 0 1-.403-.088zm20.252-2.187a4.878 4.878 0 0 1 1.368-.958 4.867 4.867 0 0 1 .684 1.23 7.342 7.342 0 0 1-1.5.685c-.134-.005-.545-.825-.545-.962zm-447.575-7.526l.41-.137v.41zm394.347-2.874a9.41 9.41 0 0 1 1.094-.41 1.038 1.038 0 0 0 .275.546 2.52 2.52 0 0 1-.958.274c-.13-.004-.267-.278-.403-.415zm-77.174-10.673a8.87 8.87 0 0 1 1.233-2.188c0-.412-.137-1.096 0-1.232a2.054 2.054 0 0 1 1.5-.547c.274 0 .684.685.684 1.095 0 .274-.41.685-.82.822-.41 0-.957-.136-1.368-.136 0 .82-.137 1.78-.137 2.6s.273 1.507.273 2.327c-2.18-.008-1.36-1.787-1.36-2.745zm-361.917.684c0-3.557-1.368-7.113-.137-10.534 0-.547.547-.684.956-.957.138 0 .548-.138.548 0a19.762 19.762 0 0 1 2.326 2.462c.958 1.094-.138 2.052-.41 3.01-.685 2.052-1.096 4.242-1.642 6.294 0 .137-.41.274-.548.274-.404-.142-1.088-.416-1.088-.554zm6.293-13.408c-.137-.137-.137-.273-.274-.41l.547.547a.476.476 0 0 1-.268-.143zm-1.642-.547a1.652 1.652 0 0 1-.685-.683 1.62 1.62 0 0 1 1.095-.138c.41.138.684.684.958.82-.274 0-.61.062-.922.062a1.4 1.4 0 0 1-.435-.067zm-434.85-5.472a1.388 1.388 0 0 0 .136-.41h.41a.818.818 0 0 1 .137.546c-.127.257-.257.393-.372.393s-.23-.175-.304-.536zm1183.727-1.917c.137-.273.684-.273 1.095-.41a3.48 3.48 0 0 1 .273.957c-.41.136-.684.41-1.095.547-.13-.415-.403-.825-.266-1.1zm-379.3-10.4a10.424 10.424 0 0 1 .136-1.915c.412.548.96.82.96 1.096a4.234 4.234 0 0 1-.686 1.368c-.125-.14-.4-.28-.4-.552zm-836.166-8.08a5 5 0 0 0 4.377-.82c.138 0 .55.137.55.275 0 .41 0 .96-.14 1.096-1.64.82-3.146 1.5-4.788 2.188zm1745.555-1.23a.486.486 0 0 0 .4-.26 3.018 3.018 0 0 1-.54.67.5.5 0 0 1 .14-.408zm.958-.683a.477.477 0 0 1-.136.273c-.138.136-.274.136-.41.273zm-.547.41v.06zm0 0l-.007.013zm-1094.24-10.946a1.374 1.374 0 0 1 .41-.136c0 .137.137.274.137.547-.136 0-.273.138-.41.138 0-.138-.136-.41-.136-.548zm1081.378-1.642a2.067 2.067 0 0 1-.547-1.094 10.668 10.668 0 0 1 1.506-2.463 9.285 9.285 0 0 1 .684 2.326 1.393 1.393 0 0 1-1.256 1.354.628.628 0 0 1-.386-.122zm-1.368-7.525a10.958 10.958 0 0 0 1.777-1.78 16.52 16.52 0 0 1 0 2.6c0 .274-.82.548-.957.548-.41-.41-.957-1.232-.82-1.368zm4.242-4.105a1.54 1.54 0 0 1 1.094.684c.137.272-.136 1.094-.273 1.094-1.096.274-2.19.41-3.15.684.138-1.37.55-2.74 2.328-2.464zm-906.508-4.105c0-.41.547-1.23.958-1.23.41-.137.957.41 1.64.82-.683.685-.956 1.37-1.367 1.37a1.74 1.74 0 0 1-1.23-.96zm-.822-14.915c.685-1.368 1.506-2.6 2.326-3.967.138-.274.958-.41 1.095-.136a4.86 4.86 0 0 1 1.368 1.5c-.274.684-.41 1.506-.958 1.78a10.1 10.1 0 0 1-3.01 1.367.067.067 0 0 1-.05.017c-.205.003-.772-.563-.772-.563zm808.4-1.64a4.89 4.89 0 0 0 1.5-.55 1.63 1.63 0 0 1 .137 1.1c-.137.273-.684.41-.957.41-.13-.005-.406-.55-.68-.962zm-1568.223-2.054l.273-.546.136.547zm852.458-10.672c.136-.136.274 0 .41-.136 0 .136.138.41.138.55-.272 0-.41.136-.683.136a.83.83 0 0 1 .137-.55zm-402.284-30.514c.137-.273.684-.273 1.094-.41a3.217 3.217 0 0 0 .273 1.094c-.41.136-.683.41-1.094.547-.136-.408-.41-.956-.274-1.23zm385.18-1.23a12.08 12.08 0 0 0-1.23-.685 4.567 4.567 0 0 1 1.367 0c.274.135.547.41.82.546-.136.137-.273.273-.41.273a.824.824 0 0 1-.546-.137zm-2.737-4.243c.136-.135.274-.41.41-.546.685-.273 1.5-.41 2.19-.684.137.547.548 1.23.273 1.78a14.07 14.07 0 0 1-1.23 2.873c-2.463-.826-2.874-1.643-1.643-3.426zm45.565-26.954c-.273 0-.41-.412-.822-.822.41-.41.958-.684 1.37-1.095.135.273.546.683.546.957 0 .56-.184 1.03-.7 1.03a1.258 1.258 0 0 1-.393-.07zm-177.2-8.62c.41-.137.684-.275 1.095-.412.136 0 .273.274.41.41-.41.138-.683.274-1.094.41-.134 0-.27-.273-.408-.41zm756.4-23.947a.83.83 0 0 1-.135-.548c.41-.82.684-1.64 1.094-2.326a1.588 1.588 0 0 1 .958-.684c.957.138.684.958.41 1.506a27.287 27.287 0 0 1-1.64 2.6c-.406-.275-.68-.413-.68-.55zm4.516-5.61a3.286 3.286 0 0 1-.957-1.643c0-1.23 1.23-2.188 2.188-1.64a7.736 7.736 0 0 1 1.5 1.5 2.48 2.48 0 0 1-2.24 1.884 1.1 1.1 0 0 1-.485-.1zm-1180.306-8.62c0-.14.273-.274.41-.412a4.13 4.13 0 0 1 .55 1.095l-.823.41c.006-.41-.13-.683-.13-1.094zm-181.712-2.738a7.23 7.23 0 0 1 1.642-.41c.136 0 .273.684.547 1.23-.547.274-.958.41-1.506.685a16.5 16.5 0 0 0-.678-1.505zm780.485-57.47c-.82-.41-1.093-2.735-.136-3.42a4.614 4.614 0 0 1 1.917-.684 2.9 2.9 0 0 1 .958.41l-2.053 3.695a.294.294 0 0 1-.208.06c-.168 0-.378-.06-.468-.06zm161.462-50.627c.136-.136.136-.41.273-.41s.41.135.547.135c-.136.138-.136.41-.273.41s-.268-.135-.54-.135zm58.427-21.21c-.137-.135-.137-.546 0-.546.683-.274 1.367-.548 2.187-.82a.617.617 0 0 1 .41.41 1.027 1.027 0 0 1-.273.546 19.288 19.288 0 0 1-1.777.822c-.268-.138-.405-.138-.54-.41zm-353.163-5.61c0-.136.274-.273.41-.41 0 .137.14.274.275.547 0 .136-.136.41-.136.547-.13-.273-.405-.41-.543-.683zm-550.06-8.346c.272-.276.546-.412.82-.686a8.343 8.343 0 0 0 .958 1.37 5.653 5.653 0 0 1-1.095.41c-.267-.273-.405-.82-.677-1.094zm550.2-5.885c.272-.41.546-1.095 1.094-1.23.274-.137.82.41 1.5.683-.546.684-.82 1.5-1.23 1.5-.538.005-.948-.54-1.36-.952zm-213.595-4.653c-1.368-1.368-1.368-3.01.136-3.967.136-.273.684-.273 1.095-.41.273.273.958.546.958.82a4.057 4.057 0 0 1-1.1 3.7 1.182 1.182 0 0 1-.482.088c-.254-.002-.52-.07-.6-.23zm220.3-5.2h.547l-.275.412zm-29.42-4.926c-.683-.273-1.778-1.23-1.64-1.778a6.38 6.38 0 0 1 1.64-2.737c.14-.136 1.096.137 1.643.412.136.136 0 .82.136 1.23 0 .412-.135.96-.135 1.37-.117.93-.53 1.565-1.24 1.565a1.437 1.437 0 0 1-.398-.06zm6.022-2.052c.137-.41.273-.684.41-1.095.137.272.274.684.41.957 0 .274-.272.41-.41.547-.134-.134-.407-.27-.407-.408zm-36.533-6.84c-.273-.275 0-1.37.41-1.78a3.04 3.04 0 0 1 4.106-.822 1.75 1.75 0 0 1 .684.958c-.136.41 0 .958-.273 1.23-.958.548-1.78 1.37-2.874 1.5a.915.915 0 0 1-.187.02 2.837 2.837 0 0 1-1.862-1.103zm-305.544-.685c0-.137.273-.275.548-.412a9.187 9.187 0 0 1 .41 1.095l-.82.41c.002-.406-.135-.82-.135-1.092zm357.95-2.738c.274-.684.274-1.368.547-1.915a5.378 5.378 0 0 1 1.095-1.368 8.608 8.608 0 0 0 1.23 1.64 9.7 9.7 0 0 1-.546 2.19 2.083 2.083 0 0 1-1.5.82c-.685 0-1.232-.408-.823-1.367zm-108.917-6.157a8.387 8.387 0 0 1 .683-1.642 12.546 12.546 0 0 0 1.368.684 6.06 6.06 0 0 1-1.093 1.506.094.094 0 0 1-.068.022 1.63 1.63 0 0 1-.888-.57zm128.893-9.442a4.22 4.22 0 0 1 .684-1.64c.55.41.96.546 1.233.82a8.237 8.237 0 0 1-.958 1.367.094.094 0 0 1-.068.022 1.637 1.637 0 0 1-.887-.568zm547.463-7.8c.41-.273.684-.547 1.23-.957a4.722 4.722 0 0 1 .685 1.5c0 .137-.546.547-.82.822a9.606 9.606 0 0 1-1.09-1.363zm1.094-4.378l.41-.137-.136.41zm-651.59-7.936c0-.274-.136-.412-.136-.685a3.794 3.794 0 0 0 .137-1.23q.2-.617.41-1.232a3.082 3.082 0 0 1 1.507 1.095 3.016 3.016 0 0 1 .547 1.78 3.51 3.51 0 0 1-.685 1.64.24.24 0 0 1-.216.1 2.18 2.18 0 0 1-1.56-1.467zm294.187-1.096c.41-.136.822-.41 1.095-.273.41.138.547.548.684.958-.273.274-.684.41-.957.684-.273-.408-.545-.955-.82-1.366zm-319.768-12.312c-.274 0-.138-.273 0-.41h.41a.826.826 0 0 1 .135.546c-.128.26-.258.4-.358.4s-.188-.176-.188-.536zm501.9-16.694c.41-.274.957-.41 1.367-.684.137.41.41.82.275 1.095-.273.272-.822.272-1.095.546-.148-.274-.418-.685-.554-.958zm362.6-3.56a4.084 4.084 0 0 1-.137-1.78c.136-.41.957-.547 1.5-.547a8.06 8.06 0 0 1 .547 1.096 5.666 5.666 0 0 1-.957 1.506.208.208 0 0 1-.143.038c-.277.002-.81-.2-.81-.313zm49.12-4.79c0-.41.413-.684.55-1.095a4.33 4.33 0 0 0 .82.958l-.82 1.232c-.14-.405-.553-.818-.553-1.09zm-934.42-11.083c0-.138.274-.274.41-.41.14.136.275.272.275.41l-.41.41c-.14-.133-.276-.27-.276-.407zm-69.783-1.915a1.9 1.9 0 0 1 .822-2.737 3.993 3.993 0 0 1 1.23-.273.754.754 0 0 1 .684.41 4.606 4.606 0 0 1 0 1.37 10.924 10.924 0 0 1-1.095 2.187c-.552-.27-1.372-.545-1.647-.954zm2.19-3.148a3.428 3.428 0 0 0 .957-.546c-.137.273-.273.684-.41.957-.14-.134-.414-.27-.555-.41zm1126.668-5.062l.684-1.368c.41.41.546.684.82.958-.41.273-.82.684-1.23.957-.142-.134-.415-.408-.28-.545zm-1016.52-19.566a38.98 38.98 0 0 1 1.642-4.242 1.065 1.065 0 0 1 1.095-.274c.41 0 .547.547.82.958 0 1.915-1.23 3.147-2.6 4.378a1.95 1.95 0 0 1-.546.273c-.14-.407-.55-.818-.415-1.09zm-636.4-5.748c.138-.41.685-.41 1.1-.547.137.41.41.82.273 1.094a7.474 7.474 0 0 1-1.095.684c-.146-.408-.42-.82-.284-1.23zm-85.792-12.178a3.1 3.1 0 0 1 2.188-.822c.274-.137.685.684.96.958-.275 1.37-.96 1.642-1.918 1.642-.825.003-1.782-1.366-1.235-1.775zm113.706-3.01a7.77 7.77 0 0 1 .683-1.095c.136-.137.958.273.958.41a4.36 4.36 0 0 1-.41 1.232 4.873 4.873 0 0 0-1.236-.548zm537.61-4.516c.136.138.41.274.41.41s-.274.275-.41.412zm759.14-12.725a1.96 1.96 0 0 0 .41-.273 1.044 1.044 0 0 0 .273.547c-.136.138-.136.41-.273.547-.142-.27-.28-.544-.417-.818zm-1217.8 0a4.7 4.7 0 0 1 1.23-1.094 10.01 10.01 0 0 1 .82.957 9.124 9.124 0 0 1-1.5.957c-.144.002-.69-.68-.555-.818zm1304.82 0c0-.684.276-1.5.412-2.736.82.96 1.5 1.232 1.5 1.78.138.547-.41 1.094-.547 1.64-.406-.27-1.368-.407-1.368-.68zm-1134.6-3.694c0 .137.137.273.274.41l-.41.412a1.74 1.74 0 0 1 .13-.82zm1326.306-.273c.137 0 .41.273.547.273a1.04 1.04 0 0 1-.555-.27zm0 0zm0 0zm-1.506-1.368l.118-.118c0-.017-.006-.033-.01-.052l.166.032-.068.068c.4.4.91.912 1.3 1.3a5.972 5.972 0 0 1-1.513-1.228zm-1378.985.41a6.418 6.418 0 0 1 1.506-1.368c.137-.137.958.274.958.41a3.876 3.876 0 0 1-.548 1.642 8.17 8.17 0 0 1-1.922-.683zm1376.387-3.147c2.27.267 2.324.273 2.707 2.567a3 3 0 0 1-2.715-2.566zm-.55-.274c.137.14.412.14.548.275-.14-.135-.418-.135-.554-.273zm-282.7-1.913a1.7 1.7 0 0 1-.546-1.1l1.095-.546c.137.547.274 1.096.412 1.5-.22 0-.613.177-.833.177a.178.178 0 0 1-.127-.03zM558.67 5981.99a9.438 9.438 0 0 0 .41-1.093c.273.273.547.546.547.684 0 .274-.41.547-.548.82-.14-.134-.41-.272-.41-.408zm663.9-.272c0-.274.138-.41.138-.547a1.374 1.374 0 0 1 .41.138c0 .137-.136.41-.136.547a1.388 1.388 0 0 1-.407-.136zm-134.23-1.367a2.59 2.59 0 0 1 .272-1.1c.274.14.547.413.822.55-.274.273-.41.684-.684.957-.133-.133-.41-.27-.41-.406zm494.1-6.158l.272-.41.136.41zm54.73-1.094a1.38 1.38 0 0 1 .412-.138c0 .138.136.41.136.547.137.137-.136.137-.41.137.003-.137-.135-.41-.135-.545zm-1157.454-4.105l.41-.41a14.47 14.47 0 0 0 1.506.957 5.9 5.9 0 0 0-.958.82 11.86 11.86 0 0 1-.956-1.367zm-53.5-2.6a2.122 2.122 0 0 0 .82-.41l.82.82a5.625 5.625 0 0 1-1.23.685c-.135-.41-.408-.68-.408-1.095zm53.5-1.778a5.535 5.535 0 0 1 1.095-.41c.274.135.41.683.547.956l-.82.823a12.143 12.143 0 0 1-.82-1.368zm-18.336-18.884c-.136-1.23 1.233-2.462 1.917-2.05a2.39 2.39 0 0 1 .82 1.64 1.684 1.684 0 0 1-1.916 1.778c-.27-.408-.818-.82-.818-1.366zm23.4-.41a3.372 3.372 0 0 1 .547-1.643c.548.412 1.095.685 1.095.822a6.306 6.306 0 0 1-.684 1.367c-.273-.135-.958-.408-.958-.545zm1133.238-.82a1.376 1.376 0 0 1 .41-.137c-.136.136-.136.41-.273.958a2.04 2.04 0 0 1-.137-.82zm-888.992-4.652a1.024 1.024 0 0 1 .546-.274.706.706 0 0 1 .547.274 1.033 1.033 0 0 1-.548.273c-.133.002-.273-.27-.546-.27zm10.535-2.6a1.355 1.355 0 0 1-.957-.684c.136-.822.41-1.506.684-2.737.82.822 1.5 1.095 1.642 1.642a1.463 1.463 0 0 1-1.228 1.79.787.787 0 0 1-.14-.012zm-116.17-6.84c0-.138.823-.548.96-.412a4.568 4.568 0 0 1 .82 1.368 4.233 4.233 0 0 0-1.23.547c-.14-.546-.413-.956-.55-1.503zm454.144-11.085l.41-.137v.273zm970.954-1.094c-.136 0-.136-.275-.136-.412.136-.137.41-.137.546-.273 0 .273.138.546.138.82-.275 0-.41 0-.548-.136zm29.692-31.883c.41 0 .958-.274 1.23-.137a6.06 6.06 0 0 1 1.096 1.5 3.89 3.89 0 0 1-1.5.684q-.415-1.02-.826-2.047zm2.736-7.252a2.746 2.746 0 0 1 1.1-.547c.137.273.137.684.273.957a4.11 4.11 0 0 0-1.096.547c-.14-.273-.414-.82-.278-.957zm-1319.326-.684a5.872 5.872 0 0 1 1.23-1.367 5.655 5.655 0 0 1 .685.957c-.41.41-.684.957-1.094 1.368a.828.828 0 0 1-.548.136c-.134-.41-.41-.82-.272-1.097zm429.377-7.39c.137-.272.273-.683.41-.956l.41.41c-.136.274-.273.685-.41.958-.138-.136-.41-.273-.41-.41zm-554.988-11.766a1.035 1.035 0 0 1 .273.547c0 .138-.138.274-.274.41-.14-.27 0-.546 0-.955zm110.833-16.694c.41-.137.684-.273 1.094-.41.138 0 .275.41.41.546-.41.138-.683.274-1.094.41-.137 0-.273-.27-.41-.545zm-376.7-4.242a2.863 2.863 0 0 1-.273-1.78c.136-.546.957-.956 1.368-1.094.547 0 .958.684 1.23.958 0 1.23-.136 2.053-1.23 2.326a.422.422 0 0 1-.187.036 1.214 1.214 0 0 1-.904-.445zm448.943-4.926c-.137-.41.55-1.23.958-1.368s.958.41 1.642.82c-.547.685-.82 1.23-1.23 1.642-.545-.41-1.23-.68-1.367-1.093zm73.342.822c-.273-.138-.41-.685-.684-.96.273-.136.684-.41 1.23-.684.138.547.274.958.41 1.506-.218 0-.612.176-.83.176a.178.178 0 0 1-.123-.037zm346.593-3.148c.412-.273.96-.41 1.37-.684.137.41.41.82.273 1.095s-.684.273-1.095.547a3.477 3.477 0 0 1-.544-.957zm-599.32-2.19l.41-.136v.41zm-61.71-14.5l.41-.41c.137.41.273.683.41 1.094 0 .136-.273.273-.41.41-.13-.41-.27-.686-.407-1.095zm72.246-1.917c.138-.274.274-.138.41 0v.41a.824.824 0 0 1-.546.136c-.545-.274-.545-.548.14-.548zm1544.833-1.78c.957-.547 1.367-.822 1.778-1.1a1.28 1.28 0 0 1 .547.958 1.637 1.637 0 0 1-.547 1.095 9.4 9.4 0 0 0-1.78-.953zm-1371.46-5.2c-.412-.41-.96-.957-.96-1.368a5.748 5.748 0 0 1 2.875-4.926.824.824 0 0 1 .548-.137l.547.546c-.547 1.78-1.23 3.558-1.916 5.337a1.682 1.682 0 0 1-1 .574.125.125 0 0 1-.1-.028zm-221.12-6.978a1.586 1.586 0 0 1-.822-1.095c.41-.137.82-.41 1.23-.273.274.136.412.684.55 1.095a5.043 5.043 0 0 1-.852.31.144.144 0 0 1-.11-.04zm14.5-1.368c0-.137.273-.137.41-.274-.136.274-.41.41-.548.684 0-.137 0-.41.137-.41zm24.218-.547c0-.137.138-.137.274-.137 0 .137.137.273.137.547-.138 0-.412.137-.55.137a.825.825 0 0 1 .138-.548zm-22.44-1.095a1.293 1.293 0 0 1-1.368 1.368l1.37-1.37zm0 0c.274-1.094.685-2.052 2.19-1.915.137 0 .273.41.273.547-.093 1.217-.7 1.41-1.423 1.41-.338 0-.694-.043-1.038-.043zm127.39-9.3c-2.6-4.516-1.505-8.758.822-13 .82-1.23 2.188-1.368 3.694-1.095a3.728 3.728 0 0 1 1.23 0c.822.138 2.054 0 1.917 1.23a1.88 1.88 0 0 1-1.094 1.37 3.353 3.353 0 0 0-2.46 2.872c-.275 1.78-.823 3.557-1.232 5.337 0 .273-.138.41-.138.684a2.055 2.055 0 0 0 1.916 2.326 8.7 8.7 0 0 1 2.464.822c.136 0 .136.957-.138 1.095a5.48 5.48 0 0 1-2.748.76 4.863 4.863 0 0 1-4.23-2.406zm12.18.137c-.275-.138-.412-.685-.55-1.096l1.232-.41a9.42 9.42 0 0 1 .41 1.094c-.353.118-.706.44-.972.44a.257.257 0 0 1-.12-.035zm-5.476-3.968a10.37 10.37 0 0 1-.957-1.642c-.136-.274.41-.684.548-.958a1.92 1.92 0 0 1 .546.274 6.06 6.06 0 0 1 1.1 1.5 12.655 12.655 0 0 0-.686 1.095 1.948 1.948 0 0 1-.552-.274zm555.81-1.37c-.138-.136-.138-.41-.274-.546l.685.684a.5.5 0 0 1-.414-.143zm-.958-1.094a.5.5 0 0 1 .41.138c.137 0 .137.273.274.41-.274-.14-.41-.416-.685-.554zm-102.9-5.61l.41-.274v.55zm-288.85-.137l.547-.137v.55zm213.045-4.38a.818.818 0 0 1 .546.14c.137 0 .137.272.137.41-.137 0-.273.137-.547.137.003-.28-.134-.417-.134-.69zm-272.84-3.563a1.422 1.422 0 0 1 1.094-.546 6.34 6.34 0 0 1 .684 1.37l-1.642.41a2.028 2.028 0 0 1-.137-1.233zm443.2-1.5l.41-.41a2.2 2.2 0 0 1 .957.546l-.41.41c-.276-.138-.686-.413-.958-.546zm581.532-11.22l.41.273-.41.136zm155.987-2.326c.273-.272.546-.684.684-.684.273 0 .547.412.82.55-.137.136-.273.41-.41.41a.366.366 0 0 1-.17.037 3.917 3.917 0 0 1-.927-.315zm-153.39-6.43a1.39 1.39 0 0 1 .412-.137 1.04 1.04 0 0 0 .136.547c-.136 0-.273.137-.41.137-.002-.14-.14-.414-.14-.55zm-1358.6 0c0-.137.137-.274.274-.412 0 .138.138.41.138.547-.138.137-.274.274-.274.41-.136-.137-.27-.412-.136-.548zm-86.476-11.358a2.057 2.057 0 0 1 1.368-1.23c.273-.138.82.546 1.64 1.23a17.343 17.343 0 0 0-2.324 1.5c-.273-.544-.82-1.092-.682-1.503zm893.507-.273a6.543 6.543 0 0 1 .412-.96l.41.412c-.135.273-.273.684-.41.957-.136-.14-.41-.277-.41-.414zm244.93-3.01a2.412 2.412 0 0 1 1.094-1.232c.274-.137.82.547 1.642 1.23-.958.685-1.506 1.096-2.19 1.643-.27-.55-.682-1.098-.544-1.644zm-1174.834-.685a2.383 2.383 0 0 1 .684-.547s.274.273.41.41a.71.71 0 0 0-.547.274c-.135-.003-.41-.135-.546-.135zm1219.715-3.7h1.37c-.19.625-.4.88-.624.88-.258 0-.517-.358-.744-.878zm-622.582 0h1.368c-.215.358-.467.566-.716.566-.227.002-.454-.17-.65-.563z"/></svg>