<?xml version="1.0" encoding="utf-8"?>
<!-- Generator: Adobe Illustrator 22.0.1, SVG Export Plug-In . SVG Version: 6.00 Build 0)  -->
<svg version="1.1" id="Layer_1" xmlns="http://www.w3.org/2000/svg" xmlns:xlink="http://www.w3.org/1999/xlink" x="0px" y="0px"
	 viewBox="0 0 127.4 95.5" style="enable-background:new 0 0 127.4 95.5;" xml:space="preserve">
<style type="text/css">
	.st0{fill:#FFFFFF;stroke:#000000;stroke-width:0.25;stroke-linecap:round;stroke-linejoin:round;stroke-miterlimit:10;}
	.st1{fill:#FFFFFF;stroke:#000000;stroke-width:0.25;stroke-miterlimit:10;}
	.st2{fill:none;stroke:#000000;stroke-width:0.25;stroke-linecap:round;stroke-linejoin:round;stroke-miterlimit:10;}
	.st3{fill:none;stroke:#000000;stroke-width:0.25;stroke-miterlimit:10;}
	.st4{fill:#FFFFFF;stroke:#13110C;stroke-width:0.25;stroke-miterlimit:10;}
	.st5{fill:none;stroke:#13110C;stroke-width:0.25;stroke-linecap:round;stroke-linejoin:round;stroke-miterlimit:10;}
</style>
<g>
	<path class="st0" d="M39.5,53.4c-0.4-0.2-1.1-0.4-1-0.8c0-0.1,0.1-0.2,0.3-0.3c0.5-0.5,0.9-1.1,1.1-1.8c0.1-0.2,0.1-0.4,0-0.6
		c-0.1-0.4-0.7-0.5-1.1-0.4c-1.1,0.1-2.1,0.6-2.9,1.4c0.1-0.7-0.5-0.7-1.1-0.8c-0.7-0.1-1.3-0.2-1.5,0.4c-0.2,0.9,0.6,1.9,0.3,2.8
		c-0.3,0.9-1.5,1.1-2.4,1.1c-0.7,0-1.6-0.1-1.9-0.7c-0.3-0.5-0.9-1.2-1-1.8c-0.1-0.6-0.6-0.9-1-0.4c0,1,0.2,1.7,0,2.7
		c-1.1-0.3-2.4-0.8-3.5-0.8c-0.5,0-0.7,0.1-0.8,0.3l-0.1-3.7c1.1,0,2.1-0.3,3.1-0.7c0.6-0.3,1.3-0.6,1.9-0.3
		c0.3,0.1,0.4,0.4,0.6,0.7c0.3,0.6,0.5,1.2,0.8,1.8c0.3,0.6,0.8,1.1,1.5,1.2c0.7,0.1,1.4-0.5,1.3-1.1c-0.1-0.6-0.9-1.1-0.8-1.7
		c1.1,0.1,1.6-0.7,2.7-0.9c0.2,0,1.7,0.3,1.7-0.5c0-0.2-1.2-0.6-1.3-0.6c-1.6-0.2-2.6,0.4-4.2,0.1c0.5-0.8,1.5-1.2,2.5-1.4
		c1-0.1,1.9,0,2.9-0.1c0.8-0.1,1.5-0.3,2.1-0.9c0.5-0.6,0.6-1.6,0-2c-0.8-0.7-2.2,0.1-3.1-0.5c0.3-0.4,0.6-0.7,0.9-1.1
		c0.4-0.5,0.8-1,0.9-1.7c0.1-0.6-0.4-1.3-1.1-1.3c-0.6,0.1-0.9,0.8-1.2,1.3c-0.7,1.4-1.9,2.5-3.3,3.2c-0.5-0.6,0.7-1.7,0.1-2.2
		c-0.2-0.2-0.5-0.1-0.8,0c-1,0.5-0.9,1.9-1.3,2.9c-0.4,1.2-1.4,2-2.5,2.5c-1.1,0.4-2.3,0.2-3.2,0.6l-0.1-7.8
		c0.4,0.2,0.7,0.4,0.8,0.6c0.1,0.6,0.2,1.2,0.4,1.7c0.2,0.5,0.6,1,1.2,1.2c0.6,0.1,1.3-0.2,1.4-0.8c0.1-0.4-0.1-0.9,0.2-1.1
		c0.2-0.2,0.6-0.1,0.9,0c1,0.3,2.2-0.3,2.3-1.3c0-0.1,0-0.3-0.1-0.4c-0.1-0.1-0.3-0.1-0.4-0.1c-0.8-0.1-1.6-0.2-2.4-0.3
		c-0.2,0-0.6-0.2-0.6-0.4c0-0.1,0.1-0.3,0.2-0.4c0.6-0.6,1.4-0.8,2.2-0.8c0.6,0,1.2,0.2,1.7,0.1c0.6-0.1,1.2-0.6,1.1-1.1
		c-0.1-0.4-0.5-0.7-0.9-0.8c-0.4-0.1-0.9,0-1.3,0.1c-0.1,0-0.2,0-0.3,0c-0.2-0.1-0.1-0.4,0-0.6c0.5-0.9,1.8-1.4,1.6-2.3
		c-0.1-0.2-0.3-1.3-0.5-1.4c-0.2-0.1-1.1,0.9-1.2,1.1c-0.5,0.4-0.9,0.7-1.1,1.3c-0.8,1.6-3.7,2.5-5,3.8l-0.1-4
		c0.8-0.7,1.6-1.3,2.6-1.3c0.5,0,1.1,0.2,1.6,0.3s1.1,0,1.5-0.4c0.5-0.5,0.3-1.5-0.3-1.7c-0.7-0.3-1.6,0.1-2-0.5
		c0.6-0.5,1.2-0.9,1.8-1.4c0.6-0.5,1.3-1.1,1.6-1.9c0.1-0.3,0.1-0.7-0.1-1c-0.2-0.3-0.6-0.5-0.9-0.3c-0.3,0.1-0.4,0.4-0.6,0.7
		c-0.3,0.6-0.8,1-1.4,1.3c-0.1,0.1-0.3,0.2-0.5,0.1c-0.4-0.1-0.4-0.6-0.4-0.9c-0.1-0.8-0.9-1.4-1.7-1.3c-0.1,0.8-0.2,1.7,0,2.4
		c0.1,0.2,0.2,0.5,0.3,0.7c0.2,0.7-0.1,1.4-0.6,1.9c-0.2,0.2-0.6,0.4-1,0.7l-0.1-6.6c0,0,0-1.1-1.1-1.4c0,0-1.2-0.9-1.4,1.6
		c0,0.5-0.1,2.5-0.2,5.4c0,0,0-0.1,0-0.1c-0.3-0.4-0.9-0.5-1.1-1c-0.1-0.3-0.1-0.5-0.1-0.8c0-0.6,0-1.2,0-1.7c0-0.4,0-0.8-0.2-1.2
		c-0.2-0.4-0.6-0.7-1-0.6c-0.1,0.7-0.1,1.4-0.2,2c0,0.1,0,0.2-0.1,0.3c-0.2,0.2-0.4,0-0.5-0.2c-0.1-0.2-0.2-0.4-0.3-0.6
		c-0.4-0.5-1.1-0.3-1.6,0.1c-0.1,0.1-0.3,0.2-0.3,0.4c-0.1,0.3,0,0.6,0.1,0.8c0.2,0.2,0.4,0.4,0.7,0.6c0.2,0.2,0.5,0.4,0.6,0.6
		c0.1,0.3,0,0.6-0.2,0.7c-0.2,0.1-0.5-0.1-0.7-0.2c-0.4-0.3-0.7-0.8-1.2-1.1c-0.4-0.3-1.1-0.4-1.5,0c-0.3,0.3-0.1,0.8,0.1,1.2
		c0.2,0.4,0.6,0.6,0.9,0.9c0.6,0.5,0.9,0.9,1.6,1.2c0.5,0.2,1.1,0.3,1.7,0.3c1.1,0,2.3,0,3.4,0c0,1.7-0.1,3.5-0.1,5.5c0,0,0,0,0,0
		c-0.6-0.6-1.5-0.8-1.9-1.6c-0.2-0.5-0.1-1,0-1.5c0.1-0.5-0.2-0.9-0.4-1.4c-0.2-0.5-0.6-0.2-1.1,0c-1,0.4-0.1,1.7-1.2,2
		c-0.5-1.1-1.3-1.4-1.8-2.5c-0.3-0.6-1.3-1.9-2-1.9c-0.4,0-0.8,0-1,0.4c-0.2,0.4,0.7,0.8,0.7,1.2c-0.3,0-0.7,0-1,0
		c0.1,0.5,0.6,1,1.1,1.1c-0.3,0.9-2,0.1-2.4,0.9c-0.1,0.2-0.1,0.5,0.1,0.8c0.3,0.6,1,0.8,1.6,0.9c0.6,0.1,1.3,0,1.9,0.1
		s1.3,0.3,1.7,0.8c0.4,0.5,0.3,1.4-0.2,1.7c-0.4,0.2-0.9,0.1-1.4,0.1c-0.5,0-1,0.3-1,0.8c0.1,0.4,0.4,0.5,0.8,0.6
		c0.7,0.2,1.3,0.3,2,0.2c0.1,0.5-0.1,1.1-0.5,1.5c0.6,0.4,1.4,0.4,2,0s0.9-1.1,1-1.7c0-0.2,0.1-0.5,0.2-0.7c0.2-0.3,0.7-0.4,1-0.3
		c0.4,0.1,0.7,0.3,1,0.6c0.1,0,0.2-0.1,0.4-0.3c0,2-0.1,4-0.1,6.1c-0.1-0.2-0.2-0.4-0.5-0.6c-1-0.6-2.4-0.7-3.4-1.2
		c-2.2-1.1-4.2-2.6-5.7-4.5c-0.2-0.2-0.4-0.5-0.7-0.5c-0.3,0-0.5,0.3-0.6,0.5c-0.4,0.9-0.1,2.1,0.7,2.7c-0.4,0.8-1.8-0.1-2.3,0.5
		c-0.3,0.3-0.2,0.9,0.2,1.2c0.3,0.3,0.8,0.4,1.2,0.4c1.9,0.3,4,0.4,5.6,1.6c0.2,0.1,0.3,0.3,0.3,0.5c0,0.3-0.5,0.4-0.8,0.4
		c-1,0-1.9,0-2.9-0.1c0.3,1,1.4,1.7,2.5,1.6c0.2,0,0.5,0,0.6,0.2c0,0.1,0,0.2-0.1,0.3c-0.2,0.5-1.1,1-1.1,1.2c0.5,0.9,1.1,1.1,2.1,1
		c1-0.1,1.7,0.3,1.9-0.7c0.1-0.5,0-1,0.2-1.6c0.1-0.5,0.6-1,1.1-0.9c0.5,0.1,1,0.6,1.4,0.3c0.1-0.1,0.2-0.3,0.2-0.4
		c0.1-0.3,0.1,5.8,0,8.9c-0.1-0.2-0.4-0.1-0.8-0.3c-1.4-0.3-2.6-0.8-3.3-2.1c-0.4-0.7-0.6-1.5-1.1-2c-0.5-0.6-1.7-0.6-2,0.1
		c-0.2,0.5,0.1,1.2,0.4,1.7c0.3,0.5,0.6,1.2,0.1,1.7c-0.9-0.8-1.7-1.6-2.6-2.4c-0.1-0.1-0.1-0.1-0.2-0.2c-0.1-0.2,0.2-0.5,0.4-0.6
		c0.8-0.7,1.2-1.8,1.1-2.8c-0.1-0.3-0.2-0.7-0.5-0.9c-0.6-0.3-1.2,0.4-1.5,1.1c-0.5-0.5-0.6-1.3-0.9-1.9c-0.3-0.7-0.9-1.3-1.6-1.1
		c-0.8,0.2-1,1.2-0.8,2c0.2,0.8,0.7,1.5,0.8,2.3c0,0.2,0,0.5-0.1,0.6c-0.2,0.3-0.7,0.2-1,0c-0.6-0.4-0.9-1-1.4-1.6
		c-0.5-0.5-1.2-1-1.8-0.7c-0.4,0.2-0.6,0.7-0.8,1.2C1,50,0.7,51,1.2,51.7c0.3,0.4,0.7,0.6,1.1,0.8c2.1,0.9,4.7,1,6.5,2.4
		c-0.7,0.3-1.4,0.4-2.1,0.3c-0.6-0.1-1.2-0.2-1.8-0.1S3.8,55.9,4,56.5c0.2,0.4,0.6,0.5,1,0.6c1.6,0.5,3.3,1,4.9,0.6
		c1.2-0.3,2.3-1.1,3.5-1c-0.2,0.7-1.4,0.4-2,0.9c-0.6,0.5-0.2,1.5,0.5,1.8c0.7,0.3,1.5,0,2.2-0.3c0.6,0.7-1.2,1.8-0.6,2.6
		c0.1,0.2,0.3,0.2,0.5,0.3c0.7,0.2,1.4,0.2,2,0.1c0.3-0.1,0.6-0.2,0.8-0.4c0.4-0.4,0.3-1,0.1-1.6c-0.2-0.5-0.5-1-0.4-1.6
		c0-0.2,0.1-0.3,0.2-0.4C16.8,58,17,58,17.1,58c0.5,0,1.1,0,1.6,0c0.1,0,0.2-0.3,0.3-0.7c0,2.1-0.1,4.1-0.1,5.9
		c-1.1,0.1-3.1,0.7-3.6,0.8c-1.2,0.2-2.6-0.1-3.2-1.1c-0.3-0.5-0.4-1.2-0.6-1.8c-0.1-0.6-0.4-1.3-0.9-1.6c-0.5-0.3-1.4-0.2-1.6,0.4
		c-0.1,0.4,0.1,0.9-0.1,1.2c-0.3-1.1-1.1-2-2.1-2.4c-0.8-0.3-2-0.2-2.1,0.7c-0.1,0.8,0.9,1.3,1.2,2.1c-0.4,0.4-1.1,0.3-1.6,0.1
		S3.5,61,3,61.3c-0.6,0.3-0.6,1.2-0.1,1.7c0.4,0.5,1.1,0.7,1.8,0.7c1.6,0.2,3.3,0.1,4.7,0.8C8,64.8,5.6,64.9,5.6,66
		c0.6,0.9,2.1,1.2,3.8,1.6c-0.5,0.3-1,0.9-0.5,1.3c1.7,0.5,3.3-0.7,4.6-1.9c0.3,0.5-0.1,0.8,0,1.5c0.9,0.1,1.9-0.6,2.5-1.2
		c0.3-0.4,1.8-0.2,2.1-0.6c0.1-0.2,0.4-0.4,0.7-0.5c-0.1,3.2-0.1,5.2-0.1,5.2h4.3l-0.1-7c0.3,0.5,0.5,1,0.8,1.5
		c0.4,0.8,1,1.6,1.8,1.7c0.3,0,0.6-0.1,0.9-0.1c1.1-0.1,2.2,0.5,2.6,1.4c0.2,0.4,0.3,0.8,0.6,1.1c0.5,0.5,1.3,0.6,1.9,0.2
		c0.6-0.4,0.9-1.1,0.9-1.8c0.6,0.7,1.4,1.3,2.3,1.1c0.9-0.1,1.6-1.2,1.2-2c-0.4-0.8-1.7-1-1.9-1.9c0.8,0.2,1.6,0.3,2.3,0.1
		c0.7-0.3,1.4-1.1,1.1-1.8c0-0.1-0.1-0.2-0.1-0.4c0-0.1,0.1-0.2,0.2-0.3c0.6-0.8,0.3-2.3-0.7-2.4c-1.2-0.2-1.8,1.5-3,1.6
		c0.4-0.4,0.5-1,0.3-1.4c-0.2-0.5-0.9-0.7-1.3-0.4c-0.2,0.1-0.3,0.3-0.4,0.5c-0.4,0.9-0.5,2-1.3,2.6c-1.1,0.8-2.5,0-3.8-0.4
		c-0.9-0.3-3.6-0.8-4.4-0.1c0,0-0.1-7.7,0-7.5c0,0.2,0.1,0.4,0.2,0.5c0.2,0.2,0.6,0,0.9,0c0.9,0,1.2,1.2,0.9,2
		c-0.3,0.8-1,1.4-1.3,2.2c-0.3,0.8,0.1,2,0.9,1.9c0.5,0,0.8-0.5,1-1c0.1-0.2,0.1-0.4,0.2-0.5c0.4-0.3,0.9,0.1,1.2,0.4
		c0.7,0.5,1.7,0.6,2.4,0.1c0.7-0.5,0.7-1.7,0.1-2.3c-0.3-0.3-0.7-0.4-1.1-0.6c-0.3-0.2-0.5-0.8-0.2-1c0.1-0.1,0.2-0.1,0.3-0.1
		c2.1-0.5,3.9,2.6,5.9,1.9c0.2-0.1,0.4-0.2,0.5-0.3c0.3-0.4,0.1-1-0.2-1.4c-0.4-0.4-0.8-0.5-1.3-0.7c0.9-0.4,2-0.3,3-0.2
		c1,0.1,2.1,0.2,2.9-0.4C40.1,55.3,40.3,53.9,39.5,53.4z"/>
	<path class="st1" d="M45.7,91.2c0,0-6.8,5.6-11.9,1.2c-5.1-4.5-1.7-3.5-7.6-4.7c-5.8-1.2-15.2-10.7-12.8-14.6
		c2.3-3.9,11.9-11.3,11.9-11.3S30,53,39.7,44.4s19-15.4,25.8-15.1c6.8,0.3,21.6,7.9,27.6,14.9s7,11.9,13.4,17.5
		c6.4,5.6,9.5,5.4,13.4,10.9c3.9,5.4,11.9,10.3-1.7,13c-13.6,2.7-21,1.2-30.5,3.1c-9.5,1.9-15.5,2.3-22.7,2.3S52.3,91.6,49,91.4
		C45.7,91.2,45.7,91.2,45.7,91.2z"/>
	<g>
		<path class="st1" d="M31.5,56c0,0-2.2,1.8-2.9-0.8c-0.7-2.6-1.2-6.6,0-8.7c-0.6-0.6-0.6-1.9,0.9-2.7s3.9-0.9,4.7,0.5
			c0.8,1.4,4.8,4.9,4.8,9.4c-0.5,1.4-1,1.1-1,1.1s-0.5,2.9-3.1,2.1C33.8,57.6,31.5,56,31.5,56z"/>
		<ellipse transform="matrix(0.9872 -0.1598 0.1598 0.9872 -6.7811 5.5642)" cx="31.2" cy="45" rx="1.8" ry="1"/>
		<path class="st2" d="M28.6,46.5c0.7,0.3,1.3,0.6,2,0.7s1.5,0.1,2.1-0.3c0.5-0.3,0.8-0.7,1.1-1.1c0.3-0.4,0.5-0.8,0.5-1.2"/>
		<path class="st2" d="M29.6,47c0,0-0.9,5.5,1.9,9"/>
		<path class="st2" d="M31.5,47.3c0,0,1.9,7.7,3.4,9.5"/>
		<path class="st2" d="M33.5,46.2c0,0,3.7,4.1,4.5,8.5"/>
	</g>
	<g>
		<path class="st1" d="M38.4,50.3c0,0-1.6,0.9-1.7-0.8s0-4.2,1-5.4c-0.3-0.4-0.2-1.2,0.9-1.6c1-0.4,2.5-0.1,2.8,0.8
			c0.4,0.9,2.4,3.6,2,6.3c-0.5,0.8-0.8,0.6-0.8,0.6s-0.6,1.7-2.1,1C39.7,51.6,38.4,50.3,38.4,50.3z"/>
		<ellipse transform="matrix(1.534357e-02 -0.9999 0.9999 1.534357e-02 -4.6067 82.269)" cx="39.5" cy="43.5" rx="0.7" ry="1.1"/>
		<path class="st2" d="M37.7,44.1c0.4,0.2,0.7,0.5,1.2,0.6s0.9,0.2,1.3,0c0.3-0.1,0.6-0.3,0.8-0.6c0.2-0.2,0.4-0.4,0.5-0.7"/>
		<path class="st2" d="M38.3,44.5c0,0-1.2,3.3,0.2,5.8"/>
		<path class="st2" d="M39.4,44.9c0,0,0.4,4.9,1.1,6.3"/>
		<path class="st2" d="M40.7,44.5c0,0,1.8,2.9,1.8,5.7"/>
	</g>
	<g>
		<path class="st1" d="M37.9,80.4c0,0-2.2-1.6-2.8-2.1c-0.8-0.7-0.4-1,1.1-0.8c1.4,0.2,3.9,1.5,4.5,0.9s2.5-2.6,2.5-2.6s0.8-0.7,1,1
			c0.2,1.1,0.6,2.9,0.6,2.9s0.5,0.4,1.2,0.6c0.8,0.1,2.8,1.4,3,1.9s-1.2,0.8-1.2,0.8l-2.6,0.7c0,0,0.2,1.7-0.1,2.3s-2.7-1.5-3.8-1.9
			c-1-0.3-4.5,1.1-4.5,1.1s-2.6,0.8-2.6-0.1c0-1,3.5-3.8,3.5-3.8S38.2,80.6,37.9,80.4z"/>
		<g>
			<path class="st3" d="M43.3,77.1c-0.1,1-0.5,2.6-1.1,3.5c-0.5-0.6-1.3-1-2-1.2s-1.9-0.4-2.8-0.7"/>
			<path class="st3" d="M42.3,80.6c1.4,0.2,3.7,0.8,5,1.3"/>
			<path class="st3" d="M42.2,80.7c-2.5,1.1-4.4,2.5-6.6,3.7"/>
			<path class="st1" d="M42.2,80.6c0,0.7,0.2,1.5,0.6,2.1c0.2,0.4,0.6,0.7,0.8,1.1c0.2,0.4,1,0.9,1,1.4"/>
		</g>
	</g>
	<g>
		<path class="st1" d="M95.6,74.4c0.5,0,0.8,0.6,0.5,1s-0.9,0.4-1.2,0.1s-0.4-0.8-0.3-1.3s0.5-0.7,1-0.9c1-0.4,2.3-0.1,2.8,0.9
			c0.6,1,0.1,2.4-0.8,3.2c-0.4,0.4-1,0.7-1.6,0.8c-0.7,0.1-1.4-0.2-2-0.6c-1.4-1-2.2-2.7-2.1-4.4s1.4-3.3,3-3.8
			c1.4-0.5,2.9-0.2,4.2,0.3c1.2,0.5,2.3,1.2,3,2.4c0.7,1.3,0.6,2.9,0.4,4.4c-0.2,1.3-0.5,4.2-1.8,4.6c-3.8,1.4-12,3.4-14-6.8
			c0.2-4.3,2.4-11,13.7-8.9c11.6,2.2,9.7,13.8,6.1,16.7c0,0-1.9-2.2-5.3-1.2"/>
		<path class="st2" d="M96.9,65.7c-0.2,0.6-0.4,1.2-0.5,1.8c-0.1,0.6,0,1.3,0.3,1.8"/>
		<path class="st2" d="M92.8,66.6c0.4,1,1,2,1.7,2.9"/>
		<path class="st2" d="M88.7,70.7c1,0.7,2,1.3,3.1,1.8"/>
		<path class="st2" d="M87.9,72.8c1.3,0.6,2.7,0.9,4.2,0.8"/>
		<path class="st2" d="M98.4,73.9c1.2,0.3,2.3,0,3.6-1"/>
		<path class="st2" d="M98.5,76.1c0.5,0.5,1,0.9,1.6,1.2c0.6,0.3,1.3,0.3,1.9,0"/>
	</g>
	<g>
		<path class="st1" d="M76.7,81.6c0.2,0,0.3,0.3,0.2,0.5c-0.1,0.2-0.4,0.2-0.5,0.1c-0.2-0.1-0.2-0.4-0.1-0.6
			c0.1-0.2,0.2-0.3,0.4-0.4c0.4-0.2,1,0,1.3,0.4c0.3,0.5,0,1.1-0.4,1.4c-0.2,0.2-0.4,0.3-0.7,0.4c-0.3,0-0.6-0.1-0.9-0.3
			c-0.6-0.4-1-1.2-0.9-2c0.1-0.8,0.6-1.5,1.3-1.7c0.6-0.2,1.3-0.1,1.9,0.2c0.5,0.2,1.1,0.6,1.3,1.1c0.3,0.6,0.3,1.3,0.2,2
			c-0.1,0.6-0.2,1.9-0.8,2.1c-1.7,0.6-5.4,1.5-6.3-3.1c0.1-1.9,1.1-5,6.1-4c5.2,1,4.4,6.2,2.8,7.5c0,0-0.8-1-2.4-0.5"/>
		<path class="st2" d="M77.3,77.7c-0.1,0.3-0.2,0.5-0.2,0.8c0,0.3,0,0.6,0.1,0.8"/>
		<path class="st2" d="M75.5,78.1c0.2,0.5,0.4,0.9,0.8,1.3"/>
		<path class="st2" d="M73.6,79.9c0.4,0.3,0.9,0.6,1.4,0.8"/>
		<path class="st2" d="M73.3,80.9c0.6,0.3,1.2,0.4,1.9,0.4"/>
		<path class="st2" d="M78,81.4c0.5,0.1,1,0,1.6-0.4"/>
		<path class="st2" d="M78,82.4c0.2,0.2,0.4,0.4,0.7,0.5c0.3,0.1,0.6,0.2,0.9,0"/>
	</g>
	<g>
		<g>
			<path class="st1" d="M24.7,65.7c0,0-2.2,1.8-2.9-0.8s-1.2-6.6,0-8.7c-0.6-0.6-0.6-1.9,0.9-2.7s3.9-0.9,4.7,0.5
				c0.8,1.4,4.8,4.9,4.8,9.4c-0.5,1.4-1,1.1-1,1.1s-0.5,2.9-3.1,2.1C27,67.4,24.7,65.7,24.7,65.7z"/>
			<ellipse transform="matrix(0.9872 -0.1598 0.1598 0.9872 -8.4257 4.6119)" cx="24.5" cy="54.7" rx="1.8" ry="1"/>
			<path class="st2" d="M21.8,56.2c0.7,0.3,1.3,0.6,2,0.7c0.7,0.1,1.5,0.1,2.1-0.3c0.5-0.3,0.8-0.7,1.1-1.1c0.3-0.4,0.5-0.8,0.5-1.2
				"/>
			<path class="st2" d="M22.9,56.7c0,0-0.9,5.5,1.9,9"/>
			<path class="st2" d="M24.8,57c0,0,1.9,7.7,3.4,9.5"/>
			<path class="st2" d="M26.8,56c0,0,3.7,4.1,4.5,8.5"/>
		</g>
		<g>
			<path class="st1" d="M34.1,67.1c0,0-3.3,1.9-3.7-1.8c-0.3-3.6-0.1-9,2.1-11.5c-0.7-0.9-0.4-2.6,1.9-3.4c2.2-0.8,5.3-0.2,6.1,1.8
				c0.8,2,5.2,7.6,4.2,13.5c-1,1.8-1.6,1.2-1.6,1.2s-1.4,3.7-4.5,2C36.7,69.8,34.1,67.1,34.1,67.1z"/>
			<ellipse transform="matrix(1.534357e-02 -0.9999 0.9999 1.534357e-02 -16.694 88.0079)" cx="36.3" cy="52.5" rx="1.4" ry="2.4"/>
			<path class="st2" d="M32.5,53.8c0.8,0.5,1.6,1,2.5,1.4s1.9,0.4,2.8,0.1c0.7-0.2,1.2-0.7,1.7-1.2c0.4-0.4,0.8-0.9,1-1.5"/>
			<path class="st2" d="M33.7,54.8c0,0-2.5,7.1,0.3,12.3"/>
			<path class="st2" d="M36.2,55.6c0,0,0.8,10.6,2.3,13.4"/>
			<path class="st2" d="M39.1,54.7c0,0,3.9,6.2,3.9,12.2"/>
		</g>
		<g>
			<path class="st1" d="M19.3,71.4c0,0-2,2.1-3-0.4s-2.1-6.4-1.1-8.6c-0.7-0.5-0.8-1.8,0.6-2.8c1.4-1,3.7-1.4,4.7-0.1
				c1,1.3,5.4,4.2,6,8.7c-0.3,1.5-0.9,1.2-0.9,1.2s-0.1,2.9-2.8,2.5C21.8,72.8,19.3,71.4,19.3,71.4z"/>
			<path class="st1" d="M15.2,62.4c0.7,0.2,1.4,0.4,2.1,0.4c0.7,0,1.5-0.1,2-0.6c0.4-0.3,0.7-0.8,1-1.2c0.2-0.4,0.4-0.8,0.3-1.3"/>
			<path class="st1" d="M16.2,62.7c0,0-0.2,5.6,3,8.7"/>
			<path class="st1" d="M18.2,62.8c0,0,2.9,7.3,4.6,9"/>
			<path class="st1" d="M20,61.5c0,0,4.2,3.5,5.6,7.8"/>
			<ellipse transform="matrix(0.9581 -0.2865 0.2865 0.9581 -16.6011 7.5739)" cx="17.6" cy="60.5" rx="1.8" ry="1"/>
		</g>
	</g>
	<g>
		<path class="st4" d="M58,43.3c0.1,0.2,0.2,0.5,0.4,0.7c0.6,1,1.5,1.9,2.3,2.7c0.9,0.9,2.1,1.8,2.3,3.1c0.3,1.5-0.8,2.4-2.1,2.8
			c-1.3,0.4-2.4,0.8-3.1,2c-1,1.9,0.3,4.4,2.2,5.1c0.9,0.3,2.1,0.4,2.4-0.8c0.2-0.9-0.4-2-1-1.5c-0.3,0.3,0.6,0.8,0.2,1.3
			c-0.3,0.4-1.2,0.1-1.6-0.1c-1.1-0.6-1.6-2.1-1-3.2c0.7-1.2,2.5-1.2,3.8-1.6c1.3-0.4,2.3-1.5,2.8-2.8c1.4-3.5-2.4-5.6-3.5-8.4
			c-0.7-2,0.2-5.7,1.4-7.5c1.5-2.2,4.1-3,6.2-4.4c1-0.7,2.4-1.7,2.2-3.1c-0.4-2.7-3.6-2.6-5.3-1.5c-0.7,0.4-1.4,1-2,1.5
			c-0.7,0.5-1.4,0.9-2.1,1.4c-1.3,1-2.4,2.3-3.2,3.7C57.4,35.9,56.5,40.1,58,43.3z"/>
		<path class="st4" d="M76.9,41.7c0.1,0.2,0.3,0.3,0.5,0.5c2.5,2.5,7.3,2.3,8.3,6.2c0.3,1.3,0.2,2.7,0.3,4c0.1,2.5,1.4,5,4.1,5.1
			c2,0.1,4.5-1.7,3.3-3.9c-0.4-0.7-1.3-1.6-2.2-1.4c-0.4,0.1-1.1,0.8-1,1.3c0,0.2,0.2,0.5,0.5,0.4c0.3-0.2,0.1-0.7,0.7-0.9
			c0.6-0.1,1,0.4,1.2,1c0.6,1.3-0.6,2.3-1.9,2.3c-3.9-0.1-2.7-4-2.3-6.5c0.3-2.5-0.2-5.4-2.3-6.9c-1.1-0.8-2.3-1-3.5-1.6
			c-1.5-0.7-1.9-1.8-2.4-3.3c-1-2.9,0.8-6.3-0.4-9.2c-0.7-1.9-2.3-3-4-1.4c-0.9,0.8-1.6,2-1.7,3.2c0,0.9-0.3,1.8-0.3,2.7
			c0,0.9,0.3,1.9,0.4,2.7C74.7,38.1,75.5,40.2,76.9,41.7z"/>
		<g>
			<path class="st4" d="M76.9,41.8c1.4,1.5,3.2,2.2,5.1,3c0.9,0.4,1.8,0.9,2.5,1.5c0.9,0.9,1.3,2.1,1.4,3.3c0.1,1.4,0,2.7,0.2,4.1
				c0.2,1,0.6,1.9,1.3,2.7c1.3,1.5,3.7,1.7,5.3,0.5c0.7-0.5,1.2-1.3,1.1-2.1c0-0.9-0.8-1.9-1.6-2.3c-0.7-0.4-1.6,0-1.9,0.8
				c-0.1,0.3-0.1,0.6,0.1,0.8c0.2,0.2,0.4,0,0.5-0.2c0.1-0.2,0.1-0.4,0.3-0.6c0.4-0.5,1,0.1,1.3,0.4c0.5,0.7,0.5,1.5-0.2,2.1
				c-0.9,0.8-2.5,0.6-3.4-0.1c-1.4-1.1-0.8-3.5-0.5-4.9c0.4-2.1,0.4-4.3-0.6-6.2c-0.6-1.1-1.5-1.8-2.6-2.4c-1.2-0.6-2.6-0.8-3.6-1.8
				c-0.8-0.9-1.2-2.2-1.4-3.4c-0.2-1.4,0-2.9,0.2-4.3c0.1-1.3,0.2-2.6-0.3-3.9c-0.3-0.9-0.9-1.9-1.9-2.2c-1.2-0.5-2.3,0.5-3,1.4
				c-0.4,0.6-0.8,1.2-0.9,1.9c-0.1,0.3-0.1,0.7-0.1,1c0,0.5-0.1,1-0.2,1.5c-0.1,0.8,0,1.6,0.2,2.4c0.2,0.9,0.3,1.7,0.6,2.6
				C75.1,39.1,75.8,40.6,76.9,41.8C76.9,41.8,77,41.7,76.9,41.8c-0.9-1.2-1.6-2.6-2.1-4c-0.2-0.7-0.3-1.3-0.5-2
				c-0.2-0.9-0.4-1.7-0.4-2.6c0-0.8,0.2-1.5,0.3-2.3c0.1-0.8,0.3-1.6,0.7-2.3c0.8-1.2,2.1-2.4,3.5-1.5c1.2,0.8,1.7,2.5,1.7,3.8
				c0.1,1.4-0.2,2.8-0.3,4.1c-0.1,1.3,0.1,2.5,0.5,3.7c0.3,0.9,0.8,1.7,1.6,2.3c1.1,0.8,2.6,1,3.8,1.7c1.2,0.7,1.9,2,2.3,3.2
				c0.4,1.2,0.4,2.5,0.3,3.7c-0.1,0.8-0.3,1.7-0.4,2.5c-0.2,1.4-0.2,3.1,1.3,3.8c0.8,0.4,1.8,0.4,2.6,0.1c0.9-0.4,1.2-1.3,0.8-2.1
				c-0.1-0.3-0.4-0.8-0.8-0.9C91.6,53,91.2,53,91,53.3c-0.1,0.2-0.1,0.3-0.2,0.5c-0.2,0-0.4-0.1-0.5-0.1c0-0.1,0-0.2,0-0.4
				c0-0.2,0.2-0.4,0.3-0.5c0.6-0.7,1.4-0.5,2.1,0.1c1,0.9,1.4,2.3,0.4,3.4c-0.7,0.9-2,1.3-3.1,1.2c-2.7-0.2-3.9-2.9-3.9-5.3
				c0-1.4,0.1-2.9-0.4-4.3c-0.3-0.8-0.8-1.5-1.5-2.1c-1-0.8-2.3-1.3-3.5-1.8C79.2,43.5,77.9,42.8,76.9,41.8
				C76.9,41.6,76.8,41.7,76.9,41.8z"/>
		</g>
		<path class="st4" d="M103.4,19.3c0.1-0.3,0.2-1.2-0.3-1.4c-0.6-0.2-0.4,0.8-0.5,1.1c-0.2,0.4-0.3,0.8-0.6,1.1
			c-0.7,0.8-1.8,0.3-2.1-0.5c-0.4-0.8-0.2-1.7-0.2-2.6c0-1.2-0.8-2-1.7-2.6c-3.5-1.9-8.5,2.1-8.2,5.8c0.4,4.2,1.9,7.8,1.2,12.1
			c-0.7,4-8.5,4.3-8.1-0.6c0.3-3.2,1.3-4.9-0.8-7.7c-1.6-2.2-2-4.4-0.3-6.8L82,17c4.5-2.8,6.1-8.9,2.9-13.3c-2.9-4-9.9-3.6-12.9,0
			c-2.2,2.6-2.5,5.9-2.2,9.1c0.5,4.2-2.8,7.3-2.8,7.3c-1.9-0.7-3.9-0.6-5.7,0.4c-2.2,1.2-3.7,4.4-6.5,3.8c-3.2-0.6-4.3-4.4-3.1-7.1
			c1-2.1,4.7-4.5,4.2-6.9c-0.3-1.8-1.8-2.5-3.4-1.6c-0.5,0.3-1.1,0.8-1.4,1.4c-0.1,0.2-0.3,1.2,0.2,1.2c0.3,0,0.4-0.8,0.5-1
			c0.4-0.6,1.3-1.1,2-0.7c1.2,0.8-0.4,2.1-1,2.9c-1.5,1.9-3.3,3.6-4.2,5.9c-2.4,5.9,1.6,10.7,7.8,10.3c2.3-0.2,4.6-1,6.5-2.4
			c-0.9,2.8,0.4,6.2-2.1,8.4c-0.6,0.6-1.6,0.8-2.4,0.9c-2.1,0.1-3.8-0.1-5.9,0.5c-1.3,0.3-2.7,0.7-3.5,1.8c-3.3,4,0.6,7.9,4,10.1
			c0.8,0.5,3.3,2.3,1.9,3.4c-0.6,0.5-1.5,0.2-2.1,0c-0.3-0.1-0.8-0.2-0.8,0.2c0,0.4,0.9,0.6,1.2,0.7c0.8,0.2,2.2,0.3,2.9-0.3
			c1.4-1,1.4-2.9,0.5-4.2c-1.3-1.8-6.9-4.4-3.9-7.3c1.6-1.5,3.4-0.8,5.3-0.6c2.1,0.3,4.4,0.1,6.2-1.2c1.1-0.7,2-2.1,2.3-3.3
			c0.6-2.5,0.1-4.8,1.9-6.8c0.6-0.7,1.3-1.2,2.1-1.6c0.2,0.4,0.2,0.9,0.2,1.4c0,0.5,0,0.9-0.1,1.4c-0.2,0.9-0.6,1.7-1,2.5
			c-0.6,1.1-1.2,2.1-1.7,3.2c-1.8,4.5,0.7,7.2,4.4,9.8c3.9,2.7-1.1,7.5-2.1,10.7c-1.4,4.5,4.9,7.7,8.5,5.4c1.3-0.8,2.6-2.9,1.1-4.3
			c-0.7-0.5-1.7-0.5-1.3,0.3c0-0.1,0.8,0,0.9,0.1c0.4,0.4,0.2,0.9,0.1,1.4c-0.6,1.9-3.9,1.5-5.2,0.5c-1.8-1.2-0.2-3.3,0.6-5
			c1.5-3.2,4.8-6.9,2.5-10.7c-1.4-2.2-7.1-3.9-4.3-8.1c1-1.5,1.9-2.3,2.9-3.9c0.7-1.2,0.9-2.4,1-3.7c1.8,1.4,1.3,2.4,1,4.4
			c-0.4,2.5,1.8,4.7,3.9,5.9c4.2,2.5,8.8,0.4,11.3-3.6c2.2-3.6,2.1-7.4,0.6-11.1c-0.7-2.1-1.2-3.9,0.1-5.8c1.1-1.5,3.5-2.2,4.2,0
			c0.4,1.7,0.7,3.3,3,3.3C102,21.4,103.1,20.3,103.4,19.3z"/>
		<path class="st4" d="M81.2,1.6c-0.4-0.2-0.9,0-1.1,0.5c-0.2,0.4,0,1,0.5,1.1c0.4,0.2,0.9,0,1.1-0.5C81.9,2.3,81.6,1.8,81.2,1.6z
			 M82.7,3.5c0.3,0.1,0.6,0,0.8-0.3c0.1-0.3,0-0.6-0.3-0.8c-0.3-0.1-0.6,0-0.8,0.3C82.3,3.1,82.4,3.4,82.7,3.5z M82.6,4.2
			c-0.7-0.3-1.4,0-1.7,0.7c-0.3,0.7,0,1.4,0.7,1.7c0.7,0.3,1.4,0,1.7-0.7C83.6,5.3,83.3,4.5,82.6,4.2z M78.7,2.3
			c0.2-0.4,0-0.8-0.4-1c-0.4-0.2-0.8,0-1,0.4c-0.2,0.4,0,0.8,0.4,1C78.1,2.8,78.5,2.6,78.7,2.3z M79.3,3.2c-0.2-0.1-0.4,0-0.5,0.2
			c-0.1,0.2,0,0.4,0.2,0.5c0.2,0.1,0.4,0,0.5-0.2C79.6,3.5,79.5,3.2,79.3,3.2z M76.4,3.3c0.2-0.5,0-1.2-0.6-1.4
			c-0.5-0.2-1.2,0-1.4,0.6c-0.2,0.5,0,1.2,0.6,1.4C75.6,4.1,76.2,3.8,76.4,3.3z M77.8,4.3c-0.4-0.1-0.8,0-0.9,0.4
			c-0.1,0.4,0,0.8,0.4,0.9c0.4,0.1,0.8,0,0.9-0.4C78.3,4.9,78.1,4.4,77.8,4.3z M85.6,8.4c-0.6-0.3-1.4,0-1.6,0.7
			c-0.3,0.6,0,1.4,0.7,1.6c0.6,0.3,1.4,0,1.6-0.7C86.6,9.4,86.3,8.7,85.6,8.4z M85.7,6c0.1-0.3,0-0.6-0.3-0.7
			c-0.3-0.1-0.6,0-0.7,0.3c-0.1,0.3,0,0.6,0.3,0.7C85.2,6.4,85.6,6.3,85.7,6z M73.5,3.4c-0.4-0.2-0.9,0-1.1,0.4
			c-0.2,0.4,0,0.9,0.4,1.1c0.4,0.2,0.9,0,1.1-0.4C74.1,4.1,73.9,3.6,73.5,3.4z M75.5,4.7c-0.2-0.1-0.5,0-0.6,0.2
			c-0.1,0.2,0,0.5,0.2,0.6c0.2,0.1,0.5,0,0.6-0.2C75.9,5,75.8,4.8,75.5,4.7z M83.8,7c-0.1-0.1-0.3,0-0.4,0.2c-0.1,0.1,0,0.3,0.2,0.4
			c0.1,0.1,0.3,0,0.4-0.2C84,7.3,84,7.1,83.8,7z"/>
		<path class="st4" d="M93.6,23.9c-0.7-2.1-1.2-3.9,0.1-5.8c0.7-0.9,1.8-1.6,2.8-1.4l-0.1-0.1c-6.1,0.3-3.9,7.2-2.8,9.1
			c1.1,1.9,0.7,6.1-1,8.8c-1.7,2.7-5.8,5.7-10.3,3.2c-4.5-2.5-2.5-5.4-2.6-8c-0.1-2.5-2.8-2.9-2.8-2.9l0,1.5
			c1.6,1.4,1.1,2.4,0.8,4.3c-0.4,2.5,1.8,4.7,3.9,5.9c4.2,2.5,8.8,0.4,11.3-3.6C95.2,31.4,95.1,27.6,93.6,23.9z M62.8,26.6
			c1.3-3,3.3-3.9,3.3-3.9s-0.2-0.9-4.6,2.8c-4.5,3.7-9.6,2.7-12.1-0.8c-2.5-3.5,1.5-9.2,3.3-10.8c1.8-1.6,3.5-4.7,1-4.7
			c-2.2,0-2.5,1.8-2.5,2.3c0,0,0.1,0,0.1,0c0.3,0,0.4-0.8,0.5-1c0.4-0.6,1.3-1.1,2-0.7c1.2,0.8-0.4,2.1-1,2.9
			c-1.5,1.9-3.3,3.6-4.2,5.9c-2.4,5.9,1.6,10.7,7.8,10.3C58.6,28.7,60.9,27.9,62.8,26.6z M71.9,60c-3-2.2,1.6-7.2,2.7-11
			c1.1-3.8-2.8-4.5-5.2-7.3c-2.4-2.8-0.8-5.8,1.4-9.6c2.2-3.8,0-6.3,0-6.3s-3.5,0.4-4.8,4.5c-1.3,4.1-0.4,7.2-4.3,8.8
			c0,0-2.2,0.4-5.8-0.2c-3.5-0.7-6.1,2.5-4.5,5.1c1.6,2.5,5.2,3.7,5.3,5.6c0,1.2-0.3,2.1-0.6,2.6c1.3-1,1.2-2.9,0.3-4.1
			c-1.3-1.8-6.9-4.4-3.9-7.3c1.6-1.5,3.4-0.8,5.3-0.6c2.1,0.3,4.4,0.1,6.2-1.2c1.1-0.7,2-2.1,2.3-3.3c0.6-2.5,0.1-4.8,1.9-6.8
			c0.3-0.3,0.6-0.7,1-0.9c0.4-0.3,0.7-0.4,1.1-0.7c0.1,0.2,0.2,0.4,0.2,0.7c0,0.2,0.1,0.5,0.1,0.7c0,0.5,0,0.9-0.1,1.3
			c-0.2,0.9-0.6,1.7-1,2.4c-0.6,1.1-1.2,2.1-1.7,3.2c-1.8,4.5,0.7,7.2,4.4,9.8c3.9,2.7-1.1,7.5-2.1,10.7c-1.4,4.5,4.9,7.7,8.5,5.4
			c0.4-0.2,0.8-0.6,1.1-1C77.3,62.4,74.9,62.1,71.9,60z"/>
		<path class="st4" d="M62.8,26.5C59,29.2,52.5,30.2,49.2,26c-1.3-1.7-1.6-4-1.1-6c0.7-2.8,2.7-4.8,4.5-7c0.6-0.7,1.5-1.4,1.7-2.3
			c0.2-0.8-0.7-1.2-1.4-1.1c-0.4,0.1-0.8,0.4-1.1,0.7c-0.1,0.1-0.2,0.3-0.2,0.4c0,0.1-0.1,0.2-0.1,0.3c0,0.1-0.1,0.2-0.1,0.3
			c-0.3,0.1-0.4,0-0.4-0.3c-0.2-1.3,1.5-2.3,2.6-2.5c1.4-0.2,2.2,1.2,2.2,2.4c0,1.1-0.8,2.2-1.4,3c-1.3,1.5-2.9,2.8-3.2,4.9
			c-0.2,1.5,0.2,3,1.1,4.2c0.9,1.2,2.6,1.8,4.1,1.4c1.6-0.4,2.7-1.9,3.8-2.9c1.9-1.7,4.4-2.1,6.8-1.3c0,0,0,0,0,0
			c0.9-0.9,1.6-2,2.1-3.1c0.4-1,0.7-2,0.7-3.1c0-0.6-0.1-1.3-0.1-1.9c-0.1-0.7-0.1-1.4,0-2.1c0.1-2.7,1.1-5.4,3.2-7.1
			c1.7-1.4,3.9-2,6.1-1.9c2.1,0,4.3,0.9,5.7,2.5c1.5,1.8,2.1,4.4,1.8,6.7c-0.3,2.3-1.5,4.4-3.3,5.9c-0.4,0.3-0.8,0.7-1.3,0.9
			c-0.4,0.3-0.6,0.7-0.9,1.2c-0.5,1.1-0.6,2.3-0.3,3.4c0.3,1.4,1.3,2.3,2,3.5c0.6,1.1,0.7,2.2,0.5,3.4c-0.2,1.7-1,3.8,0.1,5.4
			c1.5,2.2,5.5,1.7,7-0.3c0.5-0.6,0.6-1.4,0.7-2.2c0.2-1.4,0.1-2.9-0.1-4.3c-0.2-1.4-0.5-2.9-0.8-4.3c-0.2-1.3-0.6-2.8-0.3-4.1
			c0.4-2.2,2.4-4,4.4-4.7c1-0.4,2.1-0.4,3.2,0c0.6,0.2,1.1,0.6,1.5,1c0.5,0.6,0.7,1.3,0.7,2c0,1.1-0.1,2.3,0.8,3
			c0.9,0.7,1.7-0.1,2.1-0.9c0.2-0.4,0.2-0.7,0.2-1c0-0.2,0.2-0.5,0.5-0.3c0.1,0.1,0.2,0.4,0.2,0.5c0,0.2,0,0.5-0.1,0.7
			c-0.2,0.7-0.7,1.3-1.2,1.7c-0.6,0.5-1.4,0.5-2.1,0.3C98.9,21,98.5,20,98.2,19c-0.2-0.8-0.4-1.7-1.3-2.1c-0.7-0.3-1.5-0.1-2.1,0.2
			c-0.9,0.5-1.5,1.4-1.8,2.3c-0.4,1.2-0.2,2.4,0.2,3.6c0.4,1.4,1,2.8,1.3,4.3c0.5,3.1-0.3,6.2-2.2,8.7c-1.5,2.1-3.8,3.6-6.4,3.8
			c-2.6,0.2-5.2-1.3-6.8-3.2c-0.6-0.7-1-1.5-1.2-2.4c-0.2-0.9,0.1-1.8,0.2-2.6c0.1-0.5,0.1-1.1,0-1.6c-0.2-0.6-0.7-1.1-1.2-1.5
			c0,0-0.1,0-0.1,0.1c0.5,0.4,0.9,0.8,1.1,1.4c0.2,0.5,0.1,1,0.1,1.5c-0.2,1.1-0.4,2.1-0.2,3.2c0.6,2.1,2.8,3.9,4.8,4.7
			c4.8,1.9,9.5-1.5,11.3-5.9c1.1-2.7,1-5.5,0.2-8.3c-0.4-1.4-1.1-2.7-1.2-4.2c-0.1-1.4,0.6-2.8,1.7-3.6c0.8-0.6,2-0.8,2.8-0.1
			c0.7,0.7,0.7,1.9,1.1,2.8c0.4,0.8,1,1.3,1.9,1.4c1.1,0.2,1.9-0.3,2.5-1.2c0.4-0.6,0.9-1.6,0.5-2.3c-0.1-0.1-0.3-0.3-0.5-0.2
			c-0.2,0.1-0.2,0.4-0.3,0.7c-0.1,0.6-0.4,1.4-1,1.7c-0.8,0.5-1.6-0.4-1.9-1.1c-0.4-1.2,0.2-2.5-0.5-3.6c-1-1.8-3.3-2.1-5.1-1.5
			c-1.8,0.6-3.5,2.1-4.2,3.9c-0.4,1-0.4,2-0.3,3.1c0.2,1.4,0.5,2.8,0.7,4.2c0.3,1.5,0.5,3,0.5,4.5c0,1.2,0,2.5-0.6,3.6
			C89,35.8,84,36.2,83,33.1c-0.3-1,0-2.2,0.1-3.2c0.2-1,0.4-2.1,0.2-3.1c-0.2-1.2-0.8-2.2-1.5-3.1c-0.9-1.2-1.4-2.7-1.1-4.2
			c0.1-0.7,0.5-1.4,0.9-2.1c0.2-0.3,0.8-0.6,1.1-0.8c0.8-0.6,1.6-1.4,2.2-2.2c1.2-1.7,1.8-3.9,1.7-6c-0.1-2.1-1-4.2-2.5-5.6
			c-1.4-1.3-3.4-1.9-5.3-1.9c-2,0-4,0.5-5.6,1.7c-1.9,1.3-3,3.6-3.5,5.9c-0.2,1.3-0.2,2.6-0.1,3.9c0.1,1.3,0.1,2.5-0.3,3.8
			c-0.5,1.5-1.3,2.9-2.4,4c-0.1,0.1-0.3-0.1-0.3-0.1c-0.3-0.1-0.7-0.2-1.1-0.2c-0.6-0.1-1.3-0.1-1.9,0c-1.2,0.2-2.3,0.7-3.3,1.4
			c-1.6,1.3-3.1,3.6-5.5,3.2c-2.3-0.4-3.6-2.6-3.7-4.8c0-1.1,0.3-2.1,0.9-3c0.7-0.9,1.5-1.7,2.2-2.6c1.2-1.4,2.3-3.3,0.9-5
			c-1.2-1.5-4-0.3-4.3,1.4c-0.1,0.3-0.1,0.6,0.1,0.9c0.1,0.2,0.3,0.2,0.4,0c0.2-0.2,0.2-0.7,0.4-0.9c0.4-0.8,1.7-1.2,2.3-0.3
			c0.4,0.5-0.2,1.3-0.6,1.6c-0.4,0.4-0.8,0.8-1.1,1.3c-0.8,1-1.7,2-2.5,3.1c-1.4,1.9-2.3,4.1-2.1,6.5c0.2,1.8,1.1,3.5,2.5,4.6
			C53.9,30.1,59.4,29,62.8,26.5C62.9,26.5,62.9,26.4,62.8,26.5L62.8,26.5z"/>
		<path class="st4" d="M66,22.6c-1.9,1-3.2,3-3.5,5.1c-0.3,2.3,0.2,5-1.5,6.8c-1.1,1.2-2.7,1.2-4.2,1.2c-1.5,0-3,0.1-4.4,0.4
			c-1.1,0.3-2.2,0.6-3.1,1.4c-0.9,0.7-1.5,1.9-1.6,3c-0.3,2.4,1.3,4.4,2.9,5.9c0.8,0.7,1.7,1.3,2.6,1.9c0.7,0.5,1.6,1.2,1.9,2.1
			c0.2,0.6-0.3,1.2-0.8,1.3c-0.6,0.2-1.3-0.2-1.9-0.3c-0.7-0.2-0.8,0.4-0.2,0.8c0.7,0.4,1.9,0.6,2.7,0.4c1-0.1,1.8-0.8,2.1-1.7
			c0.4-0.9,0.1-2-0.3-2.8c-0.4-0.6-1-1.1-1.6-1.6c-0.7-0.6-1.5-1.2-2.1-1.9c-0.6-0.6-1.2-1.4-1.2-2.3c0-1.2,1.3-2.2,2.3-2.5
			c1.2-0.3,2.6,0.1,3.8,0.2c2.5,0.3,5.3-0.1,7.1-2c1.4-1.5,1.5-3.4,1.8-5.4c0.1-1.1,0.3-2.2,0.9-3.2c0.6-1,1.6-1.9,2.7-2.4
			c0.1,0,0-0.1,0-0.1c-1.2,0.5-2.2,1.5-2.9,2.6c-0.6,1-0.8,2.2-0.9,3.4c-0.2,1.4-0.3,2.8-1,4.1c-0.8,1.3-2.1,2.2-3.5,2.6
			c-1.4,0.4-2.8,0.4-4.2,0.3c-1.2-0.1-2.4-0.5-3.6-0.3c-1.6,0.2-3.2,1.9-2.5,3.6c0.7,1.6,2.4,2.6,3.7,3.7c0.7,0.6,1.3,1.3,1.5,2.3
			c0.3,1.4-0.5,2.8-1.9,3.1c-0.6,0.1-1.3,0.1-1.9-0.1c-0.2,0-0.4-0.1-0.6-0.2c-0.1,0-0.3-0.1-0.4-0.2C52,52.1,52,52,51.9,52
			c0-0.4,0.1-0.5,0.4-0.4c0.9,0.2,1.8,0.7,2.6-0.1c1.2-1.1-1.1-2.8-1.9-3.3c-2.1-1.4-4.3-3.1-5.1-5.6c-0.4-1.3-0.2-2.7,0.5-3.8
			c0.8-1.3,2-1.9,3.5-2.3c1.5-0.4,3-0.6,4.6-0.6c1.3,0,2.6,0.1,3.8-0.6c2-1.1,2.2-3.7,2.2-5.7c0-1.3,0.1-2.7,0.7-3.9
			C63.9,24.4,64.8,23.4,66,22.6C66.1,22.7,66.1,22.6,66,22.6L66,22.6z"/>
		<path class="st4" d="M70.3,27.2c0.3,1.3,0.2,2.6-0.3,3.9c-0.5,1.2-1.2,2.2-1.8,3.3c-1,1.9-1.5,4.1-0.7,6.2c0.9,2,2.8,3.5,4.6,4.8
			c0.9,0.6,1.4,1.5,1.4,2.7c0,1-0.4,2-0.9,2.9c-0.9,1.7-2.2,3.3-2.7,5.2c-0.5,1.7,0.2,3.4,1.5,4.5c1.3,1.2,3.2,1.7,4.9,1.6
			c1.8-0.2,3.6-1.4,4-3.2c0.1-0.8-0.3-1.8-1.1-2.1c-0.6-0.2-1.3-0.1-0.9,0.7c0,0,0.1,0,0.1,0c0-0.1,0.6,0.1,0.7,0.1
			c0.6,0.1,0.4,1,0.3,1.4c-0.1,0.5-0.6,0.9-1.1,1.1c-0.9,0.4-2,0.2-2.9-0.1c-0.4-0.1-0.8-0.3-1.2-0.5c-0.7-0.4-0.9-1.1-0.7-1.9
			c0.2-1.2,1-2.3,1.5-3.4c1.1-2.2,2.7-4.2,3.1-6.7c0.2-1.2-0.1-2.4-0.6-3.5c-0.3-0.6-0.9-1.1-1.5-1.6c-1.7-1.4-4.4-3-3.4-5.6
			c0.3-0.9,1-1.6,1.5-2.4c0.6-0.7,1.2-1.4,1.7-2.2c1-1.7,1.2-3.5,1.4-5.4c0-0.1-0.1-0.1-0.1,0c-0.1,1.5-0.2,3-0.8,4.4
			c-0.6,1.3-1.6,2.4-2.5,3.5c-1.1,1.4-2,3-1,4.7c0.8,1.4,2.3,2.2,3.5,3.2c0.8,0.6,1.3,1.4,1.6,2.4c0.4,1.3,0.2,2.7-0.2,3.9
			c-0.5,1.3-1.2,2.4-1.8,3.6c-0.6,1.1-1.2,2.2-1.7,3.3c-0.4,0.8-0.9,1.8-0.5,2.8c0.3,0.8,1.2,1.1,1.9,1.4c1.4,0.4,3.5,0.5,4.1-1.1
			c0.2-0.5,0.2-1-0.1-1.4c-0.1-0.2-0.6-0.2-0.8-0.2c-0.1,0-0.2,0-0.2,0c-0.1,0.1,0.1,0.2,0-0.2c-0.1-0.3,0.2-0.4,0.4-0.4
			c0.8,0,1.3,0.7,1.5,1.4c0.3,1.2-0.7,2.6-1.7,3.2c-0.8,0.5-1.8,0.8-2.8,0.8c-1.9,0-4-1-5.1-2.6c-0.5-0.8-0.8-1.8-0.7-2.7
			c0.1-1,0.6-1.9,1.1-2.8c1-1.7,2.2-3.4,2.6-5.4c0.1-0.7,0.1-1.4-0.2-2.1c-0.4-0.8-1.2-1.3-1.9-1.9c-1.7-1.3-3.5-2.8-4.1-5
			c-0.7-2.3,0.5-4.6,1.6-6.6C70.1,31.3,71,29.4,70.3,27.2C70.4,27.2,70.3,27.2,70.3,27.2L70.3,27.2z"/>
		<g>
			<path class="st4" d="M53.5,28.7c-0.1,0.3-0.6,0.4-1.1,0.2c-0.5-0.2-0.8-0.6-0.7-0.9c0.1-0.3,0.6-0.4,1.1-0.2
				C53.3,27.9,53.6,28.4,53.5,28.7z"/>
			<path class="st4" d="M53.2,28.7c-0.1,0.2-0.5,0.3-0.9,0.1c-0.4-0.2-0.6-0.5-0.5-0.7c0.1-0.2,0.5-0.3,0.9-0.1
				C53.1,28.1,53.3,28.4,53.2,28.7z"/>
			<path class="st4" d="M52.8,28.5c0,0.1-0.2,0.1-0.4,0.1c-0.2-0.1-0.3-0.2-0.3-0.3c0-0.1,0.2-0.1,0.4-0.1
				C52.8,28.3,52.9,28.4,52.8,28.5z"/>
		</g>
		<g>
			<path class="st4" d="M50.1,27.1c-0.2,0.2-0.7,0.1-1.1-0.3c-0.4-0.4-0.4-0.9-0.2-1.1c0.2-0.2,0.7-0.1,1.1,0.3
				C50.2,26.4,50.3,26.9,50.1,27.1z"/>
			<path class="st4" d="M49.9,27c-0.2,0.2-0.6,0.1-0.9-0.3c-0.3-0.3-0.4-0.7-0.2-0.9c0.2-0.2,0.6-0.1,0.9,0.3
				C50,26.4,50.1,26.8,49.9,27z"/>
			<path class="st4" d="M49.6,26.7c-0.1,0.1-0.3,0-0.4-0.1c-0.1-0.2-0.2-0.3-0.1-0.4c0.1-0.1,0.3,0,0.4,0.1
				C49.6,26.5,49.7,26.6,49.6,26.7z"/>
		</g>
		<g>
			<path class="st4" d="M48.1,24.1c-0.2,0.1-0.5-0.2-0.6-0.6c-0.1-0.4,0-0.8,0.3-0.8c0.2-0.1,0.5,0.2,0.6,0.6
				C48.5,23.7,48.4,24.1,48.1,24.1z"/>
			<path class="st4" d="M48,24c-0.2,0-0.4-0.2-0.5-0.5c-0.1-0.3,0-0.6,0.2-0.7c0.2,0,0.4,0.2,0.5,0.5C48.3,23.6,48.2,23.9,48,24z"/>
			<path class="st4" d="M47.9,23.7c-0.1,0-0.2-0.1-0.2-0.2c0-0.1,0-0.3,0.1-0.3c0.1,0,0.2,0.1,0.2,0.2C48,23.5,48,23.7,47.9,23.7z"
				/>
		</g>
		<g>
			<path class="st4" d="M47.9,21.2c-0.2,0-0.4-0.4-0.4-0.8c0-0.4,0.3-0.7,0.5-0.7c0.2,0,0.4,0.4,0.4,0.8
				C48.3,20.9,48.1,21.2,47.9,21.2z"/>
			<path class="st4" d="M47.8,21c-0.2,0-0.3-0.3-0.3-0.6c0-0.3,0.2-0.6,0.4-0.5c0.2,0,0.3,0.3,0.3,0.6C48.2,20.8,48,21,47.8,21z"/>
			<path class="st4" d="M47.8,20.7c-0.1,0-0.2-0.1-0.1-0.3c0-0.2,0.1-0.3,0.2-0.3c0.1,0,0.2,0.1,0.1,0.3
				C48,20.6,47.9,20.7,47.8,20.7z"/>
		</g>
		<g>
			<path class="st4" d="M48.5,18.4c-0.2-0.1-0.2-0.4-0.1-0.7c0.2-0.3,0.4-0.5,0.6-0.4c0.2,0.1,0.2,0.4,0.1,0.7
				C49,18.3,48.7,18.5,48.5,18.4z"/>
			<path class="st4" d="M48.6,18.2c-0.2-0.1-0.2-0.3-0.1-0.6c0.1-0.2,0.4-0.4,0.5-0.3c0.2,0.1,0.2,0.3,0.1,0.6
				C48.9,18.2,48.7,18.3,48.6,18.2z"/>
			<path class="st4" d="M48.7,18c-0.1,0-0.1-0.2,0-0.3c0.1-0.1,0.2-0.2,0.2-0.1c0.1,0,0.1,0.2,0,0.3C48.8,18,48.7,18,48.7,18z"/>
		</g>
		<g>
			<path class="st4" d="M50.2,15.9c-0.2-0.1-0.1-0.4,0.1-0.6c0.2-0.2,0.5-0.3,0.6-0.2c0.2,0.1,0.1,0.4-0.1,0.6
				C50.6,15.9,50.3,16,50.2,15.9z"/>
			<path class="st4" d="M50.2,15.8c-0.1-0.1-0.1-0.3,0-0.5c0.1-0.2,0.4-0.3,0.5-0.2c0.1,0.1,0.1,0.3,0,0.5
				C50.6,15.8,50.3,15.9,50.2,15.8z"/>
			<path class="st4" d="M50.3,15.6c-0.1,0,0-0.2,0-0.2c0.1-0.1,0.2-0.1,0.2-0.1c0.1,0,0,0.2,0,0.2C50.5,15.6,50.4,15.6,50.3,15.6z"
				/>
		</g>
		<g>
			<path class="st4" d="M51.8,13.9c-0.2-0.1-0.1-0.4,0.1-0.6c0.2-0.2,0.5-0.3,0.6-0.2c0.2,0.1,0.1,0.4-0.1,0.6
				C52.2,13.9,52,14,51.8,13.9z"/>
			<path class="st4" d="M51.9,13.8c-0.1-0.1-0.1-0.3,0-0.5c0.1-0.2,0.4-0.3,0.5-0.2c0.1,0.1,0.1,0.3,0,0.5
				C52.2,13.8,52,13.9,51.9,13.8z"/>
			<path class="st4" d="M52,13.6c-0.1,0,0-0.2,0-0.2c0.1-0.1,0.2-0.1,0.2-0.1c0.1,0,0,0.2,0,0.2C52.1,13.6,52,13.6,52,13.6z"/>
		</g>
		<g>
			<path class="st4" d="M53.3,12.3c-0.1-0.1-0.1-0.3,0-0.6c0.1-0.2,0.4-0.3,0.5-0.2c0.1,0.1,0.1,0.3,0,0.6
				C53.6,12.3,53.4,12.4,53.3,12.3z"/>
			<path class="st4" d="M53.3,12.2c-0.1-0.1-0.1-0.3,0-0.4c0.1-0.2,0.3-0.2,0.4-0.2c0.1,0.1,0.1,0.3,0,0.4
				C53.6,12.2,53.4,12.3,53.3,12.2z"/>
			<path class="st4" d="M53.4,12c-0.1,0-0.1-0.1,0-0.2c0.1-0.1,0.1-0.1,0.2-0.1c0.1,0,0.1,0.1,0,0.2C53.5,12,53.4,12,53.4,12z"/>
		</g>
		<g>
			<path class="st4" d="M54.3,10.6c-0.2,0.1-0.4-0.1-0.4-0.4c-0.1-0.2,0-0.5,0.2-0.5c0.2-0.1,0.4,0.1,0.4,0.4
				C54.5,10.3,54.4,10.5,54.3,10.6z"/>
			<path class="st4" d="M54.2,10.5c-0.1,0-0.3-0.1-0.3-0.3c-0.1-0.2,0-0.4,0.1-0.4c0.1,0,0.3,0.1,0.3,0.3
				C54.4,10.3,54.3,10.5,54.2,10.5z"/>
			<path class="st4" d="M54.1,10.3c-0.1,0-0.1,0-0.2-0.1c0-0.1,0-0.2,0.1-0.2c0.1,0,0.1,0,0.2,0.1C54.2,10.2,54.2,10.3,54.1,10.3z"
				/>
		</g>
		<g>
			<path class="st4" d="M52.7,9.6c0.1,0.1,0,0.3-0.2,0.5c-0.2,0.1-0.4,0.2-0.5,0c-0.1-0.1,0-0.3,0.2-0.5C52.4,9.5,52.6,9.5,52.7,9.6
				z"/>
			<path class="st4" d="M52.7,9.7c0.1,0.1,0,0.3-0.1,0.4c-0.1,0.1-0.3,0.1-0.4,0c-0.1-0.1,0-0.3,0.1-0.4C52.4,9.6,52.6,9.6,52.7,9.7
				z"/>
			<path class="st4" d="M52.5,9.8c0,0,0,0.1-0.1,0.2c-0.1,0.1-0.2,0.1-0.2,0c0,0,0-0.1,0.1-0.2C52.4,9.8,52.5,9.8,52.5,9.8z"/>
		</g>
		<g>
			<path class="st4" d="M57.6,28.6c0.1,0.3-0.3,0.7-0.8,0.8c-0.5,0.1-1-0.1-1.1-0.4c-0.1-0.3,0.3-0.7,0.8-0.8
				C57.1,28.1,57.5,28.3,57.6,28.6z"/>
			<path class="st4" d="M57.4,28.7c0.1,0.3-0.2,0.5-0.7,0.6c-0.4,0.1-0.8-0.1-0.9-0.3c-0.1-0.3,0.2-0.5,0.7-0.6
				C57,28.3,57.4,28.5,57.4,28.7z"/>
			<path class="st4" d="M57,28.8c0,0.1-0.1,0.3-0.3,0.3c-0.2,0-0.4,0-0.4-0.1c0-0.1,0.1-0.3,0.3-0.3C56.8,28.6,57,28.7,57,28.8z"/>
		</g>
		<g>
			<path class="st4" d="M61.7,27.2c0.2,0.3-0.1,0.7-0.6,1c-0.5,0.2-1,0.2-1.1-0.1c-0.2-0.3,0.1-0.7,0.6-1
				C61.1,26.9,61.6,26.9,61.7,27.2z"/>
			<path class="st4" d="M61.6,27.4c0.1,0.2-0.1,0.6-0.5,0.8c-0.4,0.2-0.8,0.2-0.9-0.1c-0.1-0.2,0.1-0.6,0.5-0.8
				C61.1,27.1,61.5,27.2,61.6,27.4z"/>
			<path class="st4" d="M61.2,27.6c0.1,0.1,0,0.3-0.2,0.4c-0.2,0.1-0.4,0.1-0.4,0c-0.1-0.1,0-0.3,0.2-0.4
				C61,27.5,61.2,27.5,61.2,27.6z"/>
		</g>
		<g>
			<path class="st4" d="M69.3,27.7c0.3,0.2,0.2,0.7-0.1,1.1c-0.3,0.4-0.8,0.6-1.1,0.4c-0.3-0.2-0.2-0.7,0.1-1.1
				C68.5,27.7,69,27.5,69.3,27.7z"/>
			<path class="st4" d="M69.2,27.9c0.2,0.2,0.2,0.6-0.1,0.9c-0.3,0.3-0.6,0.5-0.9,0.3c-0.2-0.2-0.2-0.6,0.1-0.9
				C68.6,27.9,69,27.8,69.2,27.9z"/>
			<path class="st4" d="M69,28.3c0.1,0.1,0.1,0.3-0.1,0.4c-0.1,0.2-0.3,0.2-0.4,0.1c-0.1-0.1-0.1-0.3,0.1-0.4
				C68.7,28.3,68.9,28.2,69,28.3z"/>
		</g>
		<g>
			<path class="st4" d="M66.9,30.8c0.3,0,0.5,0.5,0.5,1c-0.1,0.5-0.4,0.9-0.7,0.9c-0.3,0-0.5-0.5-0.5-1
				C66.2,31.1,66.5,30.7,66.9,30.8z"/>
			<path class="st4" d="M66.9,31c0.3,0,0.4,0.4,0.4,0.8c-0.1,0.4-0.3,0.7-0.6,0.7c-0.3,0-0.4-0.4-0.4-0.8
				C66.4,31.2,66.7,30.9,66.9,31z"/>
			<path class="st4" d="M66.9,31.4c0.1,0,0.2,0.2,0.2,0.4c0,0.2-0.1,0.4-0.3,0.3c-0.1,0-0.2-0.2-0.2-0.4
				C66.7,31.5,66.8,31.4,66.9,31.4z"/>
		</g>
		<g>
			<path class="st4" d="M66.6,34.5c0.3,0.1,0.4,0.6,0.2,1.1c-0.2,0.5-0.6,0.8-0.9,0.7c-0.3-0.1-0.4-0.6-0.2-1.1
				C65.9,34.7,66.3,34.4,66.6,34.5z"/>
			<path class="st4" d="M66.6,34.7c0.2,0.1,0.3,0.5,0.2,0.9c-0.2,0.4-0.5,0.6-0.7,0.5c-0.2-0.1-0.3-0.5-0.2-0.9
				C66,34.9,66.4,34.6,66.6,34.7z"/>
			<path class="st4" d="M66.5,35.1c0.1,0,0.1,0.2,0.1,0.4c-0.1,0.2-0.2,0.3-0.3,0.3c-0.1,0-0.1-0.2-0.1-0.4
				C66.2,35.2,66.4,35.1,66.5,35.1z"/>
		</g>
		<g>
			<path class="st4" d="M64.8,38.3c0.2,0.3,0,0.7-0.5,1c-0.4,0.3-1,0.3-1.1,0.1c-0.2-0.3,0-0.7,0.5-1.1C64.1,38.1,64.6,38,64.8,38.3
				z"/>
			<path class="st4" d="M64.7,38.5c0.2,0.2,0,0.6-0.4,0.8c-0.3,0.2-0.8,0.3-0.9,0.1c-0.2-0.2,0-0.6,0.4-0.8
				C64.1,38.3,64.5,38.3,64.7,38.5z"/>
			<path class="st4" d="M64.4,38.8c0.1,0.1,0,0.3-0.2,0.4c-0.2,0.1-0.4,0.1-0.4,0c-0.1-0.1,0-0.3,0.2-0.4
				C64.1,38.7,64.3,38.7,64.4,38.8z"/>
		</g>
		<g>
			<path class="st4" d="M61.6,40c0,0.3-0.3,0.7-0.9,0.7c-0.5,0.1-1-0.1-1-0.5c0-0.3,0.3-0.7,0.9-0.7C61.1,39.5,61.5,39.7,61.6,40z"
				/>
			<path class="st4" d="M61.4,40.1c0,0.3-0.3,0.5-0.7,0.6c-0.4,0.1-0.8-0.1-0.8-0.4c0-0.3,0.3-0.5,0.7-0.6
				C61,39.7,61.3,39.9,61.4,40.1z"/>
			<path class="st4" d="M61,40.2c0,0.1-0.1,0.2-0.3,0.3c-0.2,0-0.4,0-0.4-0.2c0-0.1,0.1-0.2,0.3-0.3C60.8,40,61,40.1,61,40.2z"/>
		</g>
		<g>
			<path class="st4" d="M58.1,40.2c0,0.3-0.4,0.5-0.8,0.4c-0.4,0-0.8-0.3-0.7-0.5c0-0.3,0.4-0.5,0.8-0.4
				C57.7,39.7,58.1,39.9,58.1,40.2z"/>
			<path class="st4" d="M57.9,40.2c0,0.2-0.3,0.4-0.7,0.3c-0.3,0-0.6-0.2-0.6-0.4c0-0.2,0.3-0.4,0.7-0.3
				C57.6,39.8,57.9,40,57.9,40.2z"/>
			<path class="st4" d="M57.6,40.2c0,0.1-0.1,0.2-0.3,0.2c-0.2,0-0.3-0.1-0.3-0.2c0-0.1,0.1-0.2,0.3-0.2
				C57.4,40,57.6,40.1,57.6,40.2z"/>
		</g>
		<g>
			<path class="st4" d="M54.5,39.7c0.1,0.3-0.2,0.6-0.6,0.7c-0.4,0.2-0.8,0.1-0.9-0.2c-0.1-0.3,0.2-0.6,0.6-0.7
				C54,39.4,54.5,39.5,54.5,39.7z"/>
			<path class="st4" d="M54.4,39.8c0.1,0.2-0.1,0.5-0.5,0.6c-0.3,0.1-0.6,0.1-0.7-0.1c-0.1-0.2,0.1-0.5,0.5-0.6
				C54,39.6,54.3,39.6,54.4,39.8z"/>
			<path class="st4" d="M54.1,40c0,0.1-0.1,0.2-0.2,0.3c-0.2,0.1-0.3,0-0.3-0.1c0-0.1,0.1-0.2,0.2-0.3C53.9,39.8,54.1,39.9,54.1,40z
				"/>
		</g>
		<g>
			<path class="st4" d="M51.9,41.5c0.2,0.1,0.4,0.4,0.3,0.8c-0.1,0.4-0.4,0.6-0.6,0.6c-0.2-0.1-0.4-0.4-0.3-0.8
				C51.4,41.6,51.7,41.4,51.9,41.5z"/>
			<path class="st4" d="M51.9,41.6c0.2,0.1,0.3,0.3,0.2,0.6c-0.1,0.3-0.3,0.5-0.5,0.4c-0.2-0.1-0.3-0.3-0.2-0.6
				C51.5,41.7,51.7,41.6,51.9,41.6z"/>
			<path class="st4" d="M51.9,41.9c0.1,0,0.1,0.2,0.1,0.3c0,0.1-0.1,0.2-0.2,0.2c-0.1,0-0.1-0.2-0.1-0.3
				C51.7,42,51.8,41.9,51.9,41.9z"/>
		</g>
		<g>
			<path class="st4" d="M52.3,44.2c0.2-0.1,0.5,0,0.7,0.2c0.2,0.3,0.3,0.6,0.1,0.7c-0.2,0.1-0.5,0-0.7-0.2
				C52.2,44.6,52.1,44.3,52.3,44.2z"/>
			<path class="st4" d="M52.4,44.3c0.1-0.1,0.4,0,0.5,0.2c0.2,0.2,0.2,0.5,0.1,0.6c-0.1,0.1-0.4,0-0.5-0.2
				C52.3,44.6,52.3,44.4,52.4,44.3z"/>
			<path class="st4" d="M52.6,44.4c0.1,0,0.2,0,0.3,0.1c0.1,0.1,0.1,0.2,0,0.3c-0.1,0-0.2,0-0.3-0.1C52.5,44.6,52.5,44.5,52.6,44.4z
				"/>
		</g>
		<g>
			<path class="st4" d="M54,46c0.1-0.1,0.4-0.1,0.6,0c0.2,0.2,0.3,0.4,0.2,0.6c-0.1,0.1-0.4,0.1-0.6,0C54,46.4,53.9,46.1,54,46z"/>
			<path class="st4" d="M54.1,46c0.1-0.1,0.3-0.1,0.5,0c0.2,0.1,0.3,0.3,0.2,0.4c-0.1,0.1-0.3,0.1-0.5,0C54.1,46.3,54,46.1,54.1,46z
				"/>
			<path class="st4" d="M54.3,46.1c0-0.1,0.1,0,0.2,0c0.1,0.1,0.1,0.2,0.1,0.2c0,0.1-0.1,0-0.2,0C54.3,46.3,54.3,46.2,54.3,46.1z"/>
		</g>
		<g>
			<path class="st4" d="M55.9,47.4c0.1-0.1,0.3,0,0.5,0.2c0.2,0.2,0.2,0.4,0.1,0.5c-0.1,0.1-0.3,0-0.5-0.2
				C55.8,47.8,55.8,47.5,55.9,47.4z"/>
			<path class="st4" d="M56,47.5c0.1-0.1,0.3,0,0.4,0.1c0.1,0.2,0.2,0.3,0.1,0.4c-0.1,0.1-0.3,0-0.4-0.1
				C55.9,47.7,55.9,47.5,56,47.5z"/>
			<path class="st4" d="M56.1,47.6c0,0,0.1,0,0.2,0.1c0.1,0.1,0.1,0.2,0,0.2c0,0-0.1,0-0.2-0.1C56.1,47.7,56.1,47.6,56.1,47.6z"/>
		</g>
		<g>
			<path class="st4" d="M57,49.6c0.2,0,0.3,0.2,0.3,0.5c0,0.3-0.1,0.5-0.2,0.5c-0.2,0-0.3-0.2-0.3-0.5C56.8,49.8,56.9,49.6,57,49.6z
				"/>
			<path class="st4" d="M57.1,49.7c0.1,0,0.2,0.2,0.2,0.4c0,0.2-0.1,0.4-0.2,0.4c-0.1,0-0.2-0.2-0.2-0.4
				C56.9,49.8,56.9,49.7,57.1,49.7z"/>
			<path class="st4" d="M57.1,49.9c0.1,0,0.1,0.1,0.1,0.2c0,0.1,0,0.2-0.1,0.2c-0.1,0-0.1-0.1-0.1-0.2C57,49.9,57,49.9,57.1,49.9z"
				/>
		</g>
		<g>
			<path class="st4" d="M69.9,31.5c-0.3-0.1-0.5-0.6-0.3-1.1c0.1-0.5,0.5-0.9,0.8-0.8c0.3,0.1,0.5,0.6,0.3,1.1
				C70.6,31.2,70.2,31.6,69.9,31.5z"/>
			<path class="st4" d="M69.9,31.3c-0.3-0.1-0.4-0.5-0.3-0.9c0.1-0.4,0.4-0.7,0.7-0.6c0.3,0.1,0.4,0.5,0.3,0.9
				C70.4,31.1,70.1,31.3,69.9,31.3z"/>
			<path class="st4" d="M70,30.9c-0.1,0-0.2-0.2-0.1-0.4c0.1-0.2,0.2-0.3,0.3-0.3c0.1,0,0.2,0.2,0.1,0.4
				C70.2,30.8,70.1,30.9,70,30.9z"/>
		</g>
		<g>
			<path class="st4" d="M68,34.8c-0.3-0.2-0.3-0.7,0-1.1c0.3-0.4,0.8-0.7,1-0.5c0.3,0.2,0.3,0.7,0,1.1C68.7,34.8,68.3,35,68,34.8z"
				/>
			<path class="st4" d="M68,34.6c-0.2-0.1-0.2-0.5,0-0.9c0.2-0.4,0.6-0.5,0.8-0.4c0.2,0.1,0.2,0.5,0,0.9
				C68.6,34.6,68.3,34.7,68,34.6z"/>
			<path class="st4" d="M68.2,34.2c-0.1-0.1-0.1-0.3,0-0.4c0.1-0.2,0.3-0.2,0.4-0.2c0.1,0.1,0.1,0.3,0,0.4
				C68.5,34.2,68.3,34.3,68.2,34.2z"/>
		</g>
		<g>
			<path class="st4" d="M67.1,38.9c-0.3,0-0.5-0.5-0.5-1c0.1-0.5,0.4-0.9,0.7-0.9c0.3,0,0.5,0.5,0.5,1
				C67.7,38.5,67.4,38.9,67.1,38.9z"/>
			<path class="st4" d="M67,38.6c-0.3,0-0.4-0.4-0.4-0.8c0-0.4,0.3-0.7,0.6-0.7c0.3,0,0.4,0.4,0.4,0.8C67.5,38.4,67.3,38.7,67,38.6z
				"/>
			<path class="st4" d="M67,38.2c-0.1,0-0.2-0.2-0.2-0.4c0-0.2,0.1-0.4,0.3-0.3c0.1,0,0.2,0.2,0.2,0.4C67.3,38.1,67.1,38.3,67,38.2z
				"/>
		</g>
		<g>
			<path class="st4" d="M68.6,42.3c-0.3,0.2-0.7-0.1-1-0.6c-0.3-0.5-0.2-1,0-1.1c0.3-0.2,0.7,0.1,1,0.6
				C68.9,41.6,68.8,42.1,68.6,42.3z"/>
			<path class="st4" d="M68.4,42.1c-0.2,0.1-0.6-0.1-0.8-0.4c-0.2-0.4-0.2-0.8,0-0.9c0.2-0.1,0.6,0.1,0.8,0.4
				C68.6,41.6,68.6,42,68.4,42.1z"/>
			<path class="st4" d="M68.2,41.8c-0.1,0.1-0.3,0-0.4-0.2c-0.1-0.2-0.1-0.4,0-0.4c0.1-0.1,0.3,0,0.4,0.2
				C68.3,41.6,68.3,41.7,68.2,41.8z"/>
		</g>
		<g>
			<path class="st4" d="M71.6,44.9c-0.2,0.3-0.7,0.3-1.1,0c-0.5-0.3-0.7-0.8-0.5-1c0.2-0.3,0.7-0.3,1.1,0
				C71.5,44.1,71.8,44.6,71.6,44.9z"/>
			<path class="st4" d="M71.4,44.8c-0.1,0.2-0.5,0.2-0.9,0c-0.4-0.2-0.5-0.6-0.4-0.8c0.1-0.2,0.5-0.2,0.9,0
				C71.3,44.3,71.5,44.6,71.4,44.8z"/>
			<path class="st4" d="M71,44.7c-0.1,0.1-0.3,0.1-0.4,0c-0.2-0.1-0.3-0.3-0.2-0.4c0.1-0.1,0.3-0.1,0.4,0C71,44.4,71.1,44.5,71,44.7
				z"/>
		</g>
		<g>
			<path class="st4" d="M73.7,48.2c-0.3,0.1-0.7-0.2-0.9-0.7c-0.2-0.5-0.1-1,0.2-1.1c0.3-0.1,0.7,0.2,0.9,0.7
				C74.1,47.5,74,48,73.7,48.2z"/>
			<path class="st4" d="M73.5,48c-0.2,0.1-0.6-0.1-0.7-0.5c-0.2-0.4-0.1-0.8,0.2-0.9c0.2-0.1,0.6,0.1,0.7,0.5
				C73.9,47.5,73.8,47.9,73.5,48z"/>
			<path class="st4" d="M73.4,47.6c-0.1,0-0.3-0.1-0.3-0.3c-0.1-0.2,0-0.4,0.1-0.4c0.1,0,0.3,0.1,0.3,0.3
				C73.5,47.4,73.5,47.6,73.4,47.6z"/>
		</g>
		<g>
			<path class="st4" d="M72.2,51.6c-0.2-0.1-0.2-0.6,0-1.1c0.3-0.5,0.7-0.8,0.9-0.6c0.2,0.1,0.2,0.6,0,1.1
				C72.9,51.5,72.5,51.8,72.2,51.6z"/>
			<path class="st4" d="M72.3,51.4c-0.2-0.1-0.2-0.5,0-0.9c0.2-0.4,0.5-0.6,0.7-0.5c0.2,0.1,0.2,0.5,0,0.9
				C72.8,51.3,72.5,51.5,72.3,51.4z"/>
			<path class="st4" d="M72.4,51c-0.1-0.1-0.1-0.2,0-0.4c0.1-0.2,0.2-0.3,0.3-0.2c0.1,0.1,0.1,0.2,0,0.4C72.7,51,72.5,51.1,72.4,51z
				"/>
		</g>
		<g>
			<path class="st4" d="M70.7,55c-0.2-0.1-0.3-0.6-0.1-1c0.2-0.4,0.6-0.7,0.8-0.6c0.2,0.1,0.3,0.6,0.1,1
				C71.3,54.8,70.9,55.1,70.7,55z"/>
			<path class="st4" d="M70.7,54.8c-0.2-0.1-0.2-0.4,0-0.8c0.2-0.4,0.4-0.6,0.6-0.5c0.2,0.1,0.2,0.4,0,0.8
				C71.2,54.6,70.9,54.9,70.7,54.8z"/>
			<path class="st4" d="M70.9,54.4c-0.1,0-0.1-0.2,0-0.4c0.1-0.2,0.2-0.3,0.3-0.2c0.1,0,0.1,0.2,0,0.4
				C71.1,54.4,70.9,54.5,70.9,54.4z"/>
		</g>
		<g>
			<path class="st4" d="M69.9,58.5c-0.3,0-0.4-0.4-0.4-0.9c0-0.5,0.2-0.9,0.5-0.9c0.3,0,0.4,0.4,0.4,0.9
				C70.4,58.1,70.2,58.5,69.9,58.5z"/>
			<path class="st4" d="M69.8,58.3c-0.2,0-0.4-0.3-0.3-0.7c0-0.4,0.2-0.7,0.4-0.7c0.2,0,0.4,0.3,0.3,0.7C70.2,58,70,58.3,69.8,58.3z
				"/>
			<path class="st4" d="M69.8,57.9c-0.1,0-0.2-0.2-0.2-0.3c0-0.2,0.1-0.3,0.2-0.3c0.1,0,0.2,0.2,0.2,0.3
				C70,57.8,69.9,57.9,69.8,57.9z"/>
		</g>
		<g>
			<path class="st4" d="M72.2,61.4c-0.2,0.2-0.5,0.1-0.9-0.2c-0.3-0.3-0.5-0.7-0.3-0.8c0.2-0.2,0.5-0.1,0.9,0.2
				C72.2,60.9,72.4,61.2,72.2,61.4z"/>
			<path class="st4" d="M72.1,61.3c-0.1,0.1-0.4,0.1-0.7-0.2c-0.3-0.2-0.4-0.5-0.3-0.7c0.1-0.1,0.4-0.1,0.7,0.2
				C72.1,60.9,72.2,61.2,72.1,61.3z"/>
			<path class="st4" d="M71.8,61.1c-0.1,0.1-0.2,0-0.3-0.1c-0.1-0.1-0.2-0.3-0.1-0.3c0.1-0.1,0.2,0,0.3,0.1
				C71.8,60.9,71.9,61.1,71.8,61.1z"/>
		</g>
		<g>
			<path class="st4" d="M75.3,62.4c-0.1,0.2-0.4,0.2-0.7,0.1c-0.3-0.1-0.6-0.3-0.5-0.5c0.1-0.2,0.4-0.2,0.7-0.1
				C75.1,62,75.4,62.2,75.3,62.4z"/>
			<path class="st4" d="M75.2,62.4c0,0.1-0.3,0.2-0.6,0.1c-0.3-0.1-0.5-0.3-0.4-0.4c0-0.1,0.3-0.2,0.6-0.1
				C75,62.1,75.2,62.2,75.2,62.4z"/>
			<path class="st4" d="M74.9,62.3c0,0.1-0.1,0.1-0.3,0.1c-0.1,0-0.2-0.1-0.2-0.2c0-0.1,0.1-0.1,0.3-0.1
				C74.8,62.2,74.9,62.3,74.9,62.3z"/>
		</g>
		<g>
			<path class="st4" d="M78.1,62c0,0.2-0.2,0.4-0.6,0.5c-0.3,0.1-0.7,0-0.7-0.2c0-0.2,0.2-0.4,0.6-0.5C77.8,61.7,78.1,61.8,78.1,62z
				"/>
			<path class="st4" d="M78,62c0,0.1-0.2,0.3-0.4,0.4c-0.3,0.1-0.5,0-0.5-0.2c0-0.1,0.2-0.3,0.4-0.4C77.7,61.8,78,61.9,78,62z"/>
			<path class="st4" d="M77.7,62.1c0,0.1-0.1,0.1-0.2,0.2c-0.1,0-0.2,0-0.3-0.1c0-0.1,0.1-0.1,0.2-0.2C77.6,62,77.7,62,77.7,62.1z"
				/>
		</g>
		<g>
			<path class="st4" d="M78.2,31.3c-0.3,0-0.6-0.4-0.7-0.9c-0.1-0.5,0.1-1,0.5-1c0.3,0,0.6,0.4,0.7,0.9
				C78.7,30.8,78.5,31.2,78.2,31.3z"/>
			<path class="st4" d="M78.1,31.1c-0.3,0-0.5-0.3-0.6-0.7c-0.1-0.4,0.1-0.8,0.4-0.8c0.3,0,0.5,0.3,0.6,0.7
				C78.5,30.7,78.3,31.1,78.1,31.1z"/>
			<path class="st4" d="M78,30.7c-0.1,0-0.2-0.1-0.3-0.3c0-0.2,0.1-0.4,0.2-0.4c0.1,0,0.2,0.1,0.3,0.3C78.2,30.5,78.1,30.7,78,30.7z
				"/>
		</g>
		<g>
			<path class="st4" d="M78.1,34.9c-0.3,0-0.6-0.4-0.7-0.9c-0.1-0.5,0.1-1,0.5-1c0.3,0,0.6,0.4,0.7,0.9
				C78.6,34.4,78.4,34.9,78.1,34.9z"/>
			<path class="st4" d="M77.9,34.7c-0.3,0-0.5-0.3-0.6-0.7c-0.1-0.4,0.1-0.8,0.4-0.8c0.3,0,0.5,0.3,0.6,0.7
				C78.4,34.3,78.2,34.7,77.9,34.7z"/>
			<path class="st4" d="M77.9,34.3c-0.1,0-0.2-0.1-0.3-0.3c0-0.2,0.1-0.4,0.2-0.4c0.1,0,0.2,0.1,0.3,0.3
				C78.1,34.1,78,34.3,77.9,34.3z"/>
		</g>
		<g>
			<path class="st4" d="M80.5,37.9c-0.2,0.2-0.7,0.1-1.1-0.2c-0.4-0.4-0.5-0.9-0.3-1.1c0.2-0.2,0.7-0.1,1.1,0.2
				C80.6,37.2,80.8,37.7,80.5,37.9z"/>
			<path class="st4" d="M80.3,37.8c-0.2,0.2-0.6,0.1-0.9-0.2c-0.3-0.3-0.4-0.7-0.2-0.9c0.2-0.2,0.6-0.1,0.9,0.2
				C80.4,37.3,80.5,37.7,80.3,37.8z"/>
			<path class="st4" d="M80,37.6c-0.1,0.1-0.3,0.1-0.4-0.1c-0.1-0.1-0.2-0.3-0.1-0.4c0.1-0.1,0.3-0.1,0.4,0.1
				C80,37.3,80.1,37.5,80,37.6z"/>
		</g>
		<g>
			<path class="st4" d="M84.2,39.5c-0.1,0.3-0.6,0.5-1.1,0.3c-0.5-0.1-0.9-0.5-0.8-0.8c0.1-0.3,0.6-0.5,1.1-0.3
				C83.9,38.8,84.3,39.2,84.2,39.5z"/>
			<path class="st4" d="M83.9,39.5c-0.1,0.3-0.5,0.4-0.9,0.2c-0.4-0.1-0.7-0.4-0.6-0.7c0.1-0.3,0.5-0.4,0.9-0.2
				C83.7,39,84,39.3,83.9,39.5z"/>
			<path class="st4" d="M83.5,39.5c0,0.1-0.2,0.2-0.4,0.1c-0.2-0.1-0.3-0.2-0.3-0.3c0-0.1,0.2-0.2,0.4-0.1
				C83.4,39.2,83.6,39.4,83.5,39.5z"/>
		</g>
		<g>
			<path class="st4" d="M88.2,39.2c0.1,0.3-0.3,0.6-0.8,0.8c-0.5,0.1-1,0-1-0.3c-0.1-0.3,0.3-0.6,0.8-0.8
				C87.7,38.7,88.2,38.9,88.2,39.2z"/>
			<path class="st4" d="M88.1,39.3c0.1,0.2-0.2,0.5-0.6,0.6c-0.4,0.1-0.8,0-0.8-0.3c-0.1-0.2,0.2-0.5,0.6-0.6
				C87.7,38.9,88,39.1,88.1,39.3z"/>
			<path class="st4" d="M87.7,39.4c0,0.1-0.1,0.2-0.3,0.3c-0.2,0-0.4,0-0.4-0.1c0-0.1,0.1-0.2,0.3-0.3
				C87.5,39.3,87.7,39.3,87.7,39.4z"/>
		</g>
		<g>
			<path class="st4" d="M91.2,37.4c0.2,0.2,0,0.6-0.3,0.8c-0.3,0.3-0.7,0.3-0.9,0.1c-0.2-0.2,0-0.6,0.3-0.8
				C90.6,37.3,91,37.2,91.2,37.4z"/>
			<path class="st4" d="M91.1,37.5c0.1,0.2,0,0.5-0.2,0.7c-0.3,0.2-0.6,0.3-0.7,0.1c-0.1-0.2,0-0.5,0.2-0.7
				C90.7,37.4,91,37.4,91.1,37.5z"/>
			<path class="st4" d="M90.9,37.8c0.1,0.1,0,0.2-0.1,0.3c-0.1,0.1-0.3,0.1-0.3,0c-0.1-0.1,0-0.2,0.1-0.3
				C90.7,37.7,90.8,37.7,90.9,37.8z"/>
		</g>
		<g>
			<path class="st4" d="M93.3,34.5c0.2,0.1,0.2,0.5,0.1,0.8c-0.2,0.4-0.4,0.6-0.6,0.6c-0.2-0.1-0.2-0.5-0.1-0.8
				C92.8,34.6,93.1,34.4,93.3,34.5z"/>
			<path class="st4" d="M93.3,34.6c0.2,0.1,0.2,0.4,0.1,0.7c-0.1,0.3-0.4,0.5-0.5,0.4c-0.2-0.1-0.2-0.4-0.1-0.7
				C92.9,34.8,93.1,34.6,93.3,34.6z"/>
			<path class="st4" d="M93.2,34.9c0.1,0,0.1,0.2,0,0.3c-0.1,0.1-0.2,0.2-0.2,0.2c-0.1,0-0.1-0.2,0-0.3C93,35,93.1,34.9,93.2,34.9z"
				/>
		</g>
		<g>
			<path class="st4" d="M94.5,31c0.2,0,0.3,0.4,0.2,0.8c-0.1,0.4-0.3,0.7-0.5,0.7c-0.2,0-0.3-0.4-0.2-0.8C94.1,31.3,94.3,31,94.5,31
				z"/>
			<path class="st4" d="M94.6,31.2c0.2,0,0.2,0.3,0.2,0.7c-0.1,0.3-0.3,0.6-0.4,0.5c-0.2,0-0.2-0.3-0.2-0.7
				C94.2,31.4,94.4,31.1,94.6,31.2z"/>
			<path class="st4" d="M94.5,31.5c0.1,0,0.1,0.2,0.1,0.3c0,0.2-0.1,0.3-0.2,0.2c-0.1,0-0.1-0.2-0.1-0.3
				C94.3,31.6,94.4,31.5,94.5,31.5z"/>
		</g>
		<g>
			<path class="st4" d="M94.7,27.8c0.2,0,0.3,0.3,0.3,0.6c0,0.3-0.1,0.6-0.3,0.6c-0.2,0-0.3-0.3-0.3-0.6
				C94.4,28.1,94.5,27.8,94.7,27.8z"/>
			<path class="st4" d="M94.7,27.9c0.1,0,0.3,0.2,0.3,0.5c0,0.3-0.1,0.5-0.3,0.5c-0.1,0-0.3-0.2-0.3-0.5
				C94.5,28.2,94.6,27.9,94.7,27.9z"/>
			<path class="st4" d="M94.7,28.2c0.1,0,0.1,0.1,0.1,0.2c0,0.1-0.1,0.2-0.1,0.2c-0.1,0-0.1-0.1-0.1-0.2
				C94.6,28.3,94.7,28.2,94.7,28.2z"/>
		</g>
		<g>
			<path class="st4" d="M93.9,24.7c0.2,0,0.4,0.2,0.5,0.5c0.1,0.3,0,0.6-0.2,0.7c-0.2,0-0.4-0.2-0.5-0.5
				C93.7,25,93.7,24.7,93.9,24.7z"/>
			<path class="st4" d="M94,24.8c0.1,0,0.3,0.1,0.4,0.4c0.1,0.3,0,0.5-0.1,0.5c-0.1,0-0.3-0.1-0.4-0.4C93.8,25,93.9,24.8,94,24.8z"
				/>
			<path class="st4" d="M94.1,25c0.1,0,0.1,0.1,0.2,0.2c0,0.1,0,0.2-0.1,0.3c-0.1,0-0.1-0.1-0.2-0.2C94,25.1,94,25,94.1,25z"/>
		</g>
		<g>
			<path class="st4" d="M93.2,22.1c0.2,0,0.3,0.3,0.3,0.6c0,0.3-0.1,0.6-0.3,0.6c-0.2,0-0.3-0.3-0.3-0.6
				C92.9,22.4,93,22.1,93.2,22.1z"/>
			<path class="st4" d="M93.3,22.2c0.1,0,0.3,0.2,0.3,0.5c0,0.3-0.1,0.5-0.3,0.5c-0.1,0-0.3-0.2-0.3-0.5
				C93,22.4,93.1,22.2,93.3,22.2z"/>
			<path class="st4" d="M93.3,22.5c0.1,0,0.1,0.1,0.1,0.2c0,0.1-0.1,0.2-0.1,0.2c-0.1,0-0.1-0.1-0.1-0.2
				C93.1,22.6,93.2,22.5,93.3,22.5z"/>
		</g>
		<g>
			<path class="st4" d="M93.1,19.6c0.2,0,0.2,0.3,0.1,0.6c-0.1,0.3-0.3,0.5-0.4,0.4c-0.2,0-0.2-0.3-0.1-0.6
				C92.7,19.7,92.9,19.5,93.1,19.6z"/>
			<path class="st4" d="M93.1,19.7c0.1,0,0.2,0.2,0.1,0.5c-0.1,0.2-0.2,0.4-0.3,0.4c-0.1,0-0.2-0.2-0.1-0.5
				C92.8,19.8,93,19.7,93.1,19.7z"/>
			<path class="st4" d="M93.1,19.9c0.1,0,0.1,0.1,0.1,0.2c0,0.1-0.1,0.2-0.2,0.2c-0.1,0-0.1-0.1-0.1-0.2C92.9,20,93,19.9,93.1,19.9z
				"/>
		</g>
		<g>
			<path class="st4" d="M94.4,17.4c0.1,0.1,0.1,0.4-0.1,0.6c-0.2,0.2-0.4,0.3-0.6,0.2c-0.1-0.1-0.1-0.4,0.1-0.6
				C94,17.4,94.3,17.3,94.4,17.4z"/>
			<path class="st4" d="M94.3,17.5c0.1,0.1,0.1,0.3-0.1,0.5c-0.2,0.2-0.4,0.3-0.5,0.2c-0.1-0.1-0.1-0.3,0.1-0.5
				C94,17.5,94.2,17.4,94.3,17.5z"/>
			<path class="st4" d="M94.2,17.7c0,0,0,0.1,0,0.2C94.1,18,94,18,93.9,18c0,0,0-0.1,0-0.2C94.1,17.7,94.2,17.6,94.2,17.7z"/>
		</g>
		<path class="st4" d="M75.9,12.5c0,1.4-1.1,2.6-2.5,2.6c-1.4,0-2.6-1.1-2.6-2.5c0-1.4,1.1-2.6,2.5-2.6C74.7,10,75.8,11.1,75.9,12.5
			z"/>
		<g>
			<path class="st4" d="M75.8,12.5c0,1.4-1.1,2.5-2.4,2.5c-1.4,0.1-2.5-1.1-2.5-2.5c-0.1-1.4,1.1-2.5,2.4-2.5
				C74.6,10,75.7,11.2,75.8,12.5c0,0.1,0.1,0.1,0.1,0c-0.1-1.4-1.2-2.6-2.7-2.6c-1.4,0-2.6,1.3-2.6,2.7c0,1.4,1.3,2.6,2.7,2.6
				c1.4,0,2.6-1.3,2.6-2.7C75.9,12.4,75.8,12.4,75.8,12.5z"/>
		</g>
		<path class="st4" d="M81.3,13.3c0,1.9-1.4,3.4-3.3,3.4c-1.8,0-3.4-1.5-3.4-3.3c0-1.9,1.4-3.4,3.3-3.4C79.7,10,81.3,11.5,81.3,13.3
			z"/>
		<g>
			<path class="st4" d="M81.2,13.3c0,1.8-1.4,3.3-3.2,3.3c-1.8,0.1-3.3-1.5-3.3-3.2c-0.1-1.8,1.5-3.3,3.2-3.3
				C79.7,10.1,81.1,11.6,81.2,13.3c0,0.1,0.2,0.1,0.2,0c-0.1-1.8-1.4-3.2-3.1-3.4c-1.8-0.2-3.4,1.2-3.7,2.9
				c-0.3,1.7,0.8,3.4,2.5,3.9c1.7,0.5,3.5-0.5,4.1-2.1c0.2-0.4,0.2-0.8,0.2-1.3C81.4,13.2,81.2,13.2,81.2,13.3z"/>
		</g>
		<g>
			<path class="st4" d="M76.8,13.1c0,0.5-0.3,0.8-0.7,0.8c-0.4,0-0.7-0.4-0.7-0.8c0-0.5,0.3-0.8,0.7-0.8
				C76.5,12.3,76.8,12.7,76.8,13.1z"/>
			<path class="st4" d="M76.5,12.9c0,0.1-0.1,0.2-0.2,0.2c-0.1,0-0.2-0.1-0.2-0.2c0-0.1,0.1-0.2,0.2-0.2
				C76.4,12.6,76.5,12.7,76.5,12.9z"/>
		</g>
		<g>
			<path class="st4" d="M74.3,12.6c0,0.4-0.2,0.6-0.5,0.6c-0.3,0-0.5-0.3-0.5-0.6c0-0.4,0.2-0.6,0.5-0.6
				C74.1,11.9,74.3,12.2,74.3,12.6z"/>
			<path class="st4" d="M74.1,12.4c0,0.1-0.1,0.2-0.2,0.2c-0.1,0-0.2-0.1-0.2-0.2c0-0.1,0.1-0.2,0.2-0.2
				C74,12.2,74.1,12.3,74.1,12.4z"/>
		</g>
		<path class="st5" d="M73.5,17c-0.4-0.3-0.8-0.5-1.3-0.6c-0.1,0-0.2,0-0.3,0c-0.1,0-0.1,0.1-0.1,0.2c-0.1,0.3-0.1,0.7,0.1,1
			c0,0.1,0.1,0.2,0.1,0.3c0,0.2-0.3,0.4-0.4,0.6c-0.1,0.2,0.2,0.5,0.4,0.5s0.5-0.1,0.7-0.2c0.3-0.2,0.5-0.4,0.7-0.6"/>
	</g>
</g>
</svg>
