<?xml version="1.0" encoding="utf-8"?>
<!-- Generator: Adobe Illustrator 22.0.1, SVG Export Plug-In . SVG Version: 6.00 Build 0)  -->
<svg version="1.1" id="Layer_1" xmlns="http://www.w3.org/2000/svg" xmlns:xlink="http://www.w3.org/1999/xlink" x="0px" y="0px"
	 viewBox="0 0 123.5 95.5" style="enable-background:new 0 0 123.5 95.5;" xml:space="preserve">
<style type="text/css">
	.st0{fill:#12100B;}
	.st1{fill:#FFFFFF;stroke:#000000;stroke-width:0.25;stroke-miterlimit:10;}
	.st2{fill:none;stroke:#000000;stroke-width:0.25;stroke-linecap:round;stroke-linejoin:round;stroke-miterlimit:10;}
	.st3{fill:none;stroke:#000000;stroke-width:0.25;stroke-miterlimit:10;}
</style>
<g>
	<g>
		<path class="st0" d="M91.9,46.8c0,0-3,0.8-3.4-1.8c-0.4-2.6-2.9-10.9-2.9-10.9l-5.6-1.4c0,0-2.1,3.4-4.5,2.5
			c-2.4-0.9-2.4-2.4-1-3.5c1.3-1.1,1.2-2,0.2-2.6c-1-0.5-3-3.3-0.7-3.6c2.3-0.3,10.8,4.8,10.8,4.8l-1-3.7c0,0-3.3,1.3-4.2-0.8
			c0,0-1.4-0.9-0.1-1.4c1.3-0.4,2.1-1.4,2.1-1.4L77,21c0,0-4.8,3.9-5.3,2.8c-0.5-1.1-0.5-2,0.7-2.9s2.5-2.1,2.5-2.1l-1.7-2.5
			c0,0-1.5-3.2,1.3-2.1s6.6,4.8,6.6,4.8s1.6,1,1.6-0.8c0-1.8-1.1-7.1,0.5-6.8s2.9,1.2,3.1,3.7s-0.3,3,1.4,1.4
			c1.8-1.6,3.5-2.9,3.4-1.4c-0.1,1.6-1.1,5.5-3.4,7.7c0.4,2.7,2.7,17.4,2.7,17.4l2.3-7.9c0,0-0.3,0.4-1.4-2.1
			c-1.1-2.5-2.6-7.9-0.8-7.5c1.8,0.5,4.2,5.4,4.2,5.4l2.8-8.1c0,0-5.3-7.4-5.8-10.1c-0.5-2.7-0.6-5,0.9-4.3s3.3,2.5,3.3,2.5
			s3.5-4.6,4.2-3.6c0.7,1-1.7,6.5-1.7,6.5l1.3,4.6l4.5-6.2c0,0,3.4-1.9,2.6,1.8s-4.1,13.6-4.1,13.6s7.7-3.2,11.2-3.8
			c3.5-0.6,3.7,2.4,3.7,2.4s-0.5,1.7-4.9,2.4c0,0-1.6,0.5-0.4,1.6c1.1,1.1,3.3,3.9,1.3,3.7c-2-0.2-5.9-3.7-5.9-3.7l-7.7,2.7
			l-1.5,3.2c0,0,6.2-1.9,7.8-1.3c1.6,0.5,3,3.1-1.2,4.3S96,38.5,96,38.5L91.9,46.8z"/>
	</g>
	<path class="st1" d="M82.7,90.1c0,0,6.8,5.6,11.9,1.2c5.1-4.5,1.7-3.5,7.6-4.7C108,85.4,117.3,75.9,115,72
		c-2.3-3.9-11.9-11.3-11.9-11.3s-4.7-8.9-14.4-17.5s-19-15.4-25.8-15.1c-6.8,0.3-21.6,7.9-27.6,14.9s-7,11.9-13.4,17.5
		S12.3,66,8.5,71.4c-3.9,5.4-11.9,10.3,1.7,13s21,1.2,30.5,3.1s15.5,2.3,22.7,2.3s12.6,0.6,15.9,0.4C82.7,90.1,82.7,90.1,82.7,90.1z
		"/>
	<g>
		<path class="st1" d="M66.9,31.7c0,0,2,1.6,2.7-0.7s1.1-6,0-7.9c0.6-0.5,0.5-1.7-0.8-2.5c-1.4-0.8-3.5-0.8-4.3,0.5
			s-4.4,4.4-4.4,8.5c0.5,1.3,0.9,1,0.9,1s0.5,2.6,2.8,1.9C64.8,33.2,66.9,31.7,66.9,31.7z"/>
		<ellipse transform="matrix(0.1598 -0.9872 0.9872 0.1598 34.9149 84.4821)" cx="67.1" cy="21.7" rx="0.9" ry="1.6"/>
		<path class="st2" d="M69.5,23.1c-0.6,0.2-1.2,0.5-1.8,0.6c-0.6,0.1-1.3,0.1-1.9-0.3c-0.4-0.2-0.7-0.6-1-1
			c-0.2-0.3-0.4-0.7-0.5-1.1"/>
		<path class="st2" d="M68.5,23.6c0,0,0.8,5-1.7,8.1"/>
		<path class="st2" d="M66.8,23.8c0,0-1.8,6.9-3.1,8.6"/>
		<path class="st2" d="M65,22.9c0,0-3.3,3.7-4.1,7.7"/>
	</g>
	<g>
		<path class="st1" d="M73.9,33c0,0,2,1.6,2.7-0.7c0.7-2.4,1.1-6,0-7.9c0.6-0.5,0.5-1.7-0.8-2.5c-1.4-0.8-3.5-0.8-4.3,0.5
			c-0.8,1.2-4.4,4.4-4.4,8.5c0.5,1.3,0.9,1,0.9,1s0.5,2.6,2.8,1.9C71.8,34.5,73.9,33,73.9,33z"/>
		<ellipse transform="matrix(0.1598 -0.9872 0.9872 0.1598 39.546 92.5321)" cx="74.1" cy="23" rx="0.9" ry="1.6"/>
		<path class="st2" d="M76.5,24.4c-0.6,0.2-1.2,0.5-1.8,0.6s-1.3,0.1-1.9-0.3c-0.4-0.2-0.7-0.6-1-1c-0.2-0.3-0.4-0.7-0.5-1.1"/>
		<path class="st2" d="M75.6,24.9c0,0,0.8,5-1.7,8.1"/>
		<path class="st2" d="M73.8,25.1c0,0-1.8,6.9-3.1,8.6"/>
		<path class="st2" d="M72.1,24.2c0,0-3.3,3.7-4.1,7.7"/>
	</g>
	<g>
		<g>
			<path class="st1" d="M98.7,58.3c0,0-2.8-0.2-1.6-2.6c1.2-2.4,3.6-5.7,5.9-6.4c-0.1-0.8,0.8-1.8,2.5-1.4c1.7,0.4,3.4,2,3.1,3.6
				c-0.3,1.6,0.3,6.9-2.7,10.2c-1.4,0.7-1.5,0.1-1.5,0.1s-2.3,1.8-3.7-0.5C99.3,61.1,98.7,58.3,98.7,58.3z"/>
			<ellipse transform="matrix(0.5462 -0.8376 0.8376 0.5462 6.2148 111.3773)" cx="105.9" cy="50" rx="1" ry="1.8"/>
			<path class="st2" d="M102.9,49.3c0.3,0.7,0.6,1.3,1,1.8s1.1,1,1.8,1.2c0.5,0.1,1.1,0,1.6-0.1c0.5-0.1,0.9-0.3,1.2-0.6"/>
			<path class="st2" d="M103.4,50.4c0,0-4.4,3.5-4.7,7.9"/>
			<path class="st2" d="M104.6,51.9c0,0-3.7,7-3.9,9.3"/>
			<path class="st2" d="M106.7,52.4c0,0,0,5.5-2.4,9.3"/>
		</g>
		<g>
			<path class="st1" d="M104.7,65.6c0,0-3.7-0.9-1.5-3.8s6-6.7,9.3-7.1c0.1-1.1,1.5-2.2,3.6-1.3c2.2,0.9,4.1,3.4,3.3,5.4
				c-0.8,2-1.3,9.1-6,12.8c-2,0.6-2-0.2-2-0.2s-3.5,1.8-4.7-1.6C104.8,69.4,104.7,65.6,104.7,65.6z"/>
			<ellipse transform="matrix(0.6843 -0.7292 0.7292 0.6843 -4.3725 102.4914)" cx="116.2" cy="56.3" rx="1.4" ry="2.4"/>
			<path class="st2" d="M112.4,54.7c0.3,0.9,0.5,1.8,0.9,2.7s1.1,1.6,2,2c0.7,0.3,1.4,0.3,2.1,0.3c0.6,0,1.2-0.1,1.7-0.5"/>
			<path class="st2" d="M112.7,56.2c0,0-6.6,3.6-8,9.3"/>
			<path class="st2" d="M114,58.5c0,0-6.5,8.3-7.3,11.4"/>
			<path class="st2" d="M116.7,59.8c0,0-1.3,7.2-5.3,11.7"/>
		</g>
		<g>
			<path class="st1" d="M90.8,58.8c0,0-2.8,0.2-1.9-2.3c0.9-2.6,2.8-6.1,5-7.1c-0.2-0.8,0.6-1.9,2.3-1.7c1.7,0.2,3.7,1.5,3.6,3.1
				s1.1,6.8-1.4,10.5c-1.3,0.9-1.5,0.3-1.5,0.3s-2.1,2.1-3.7,0C91.7,61.5,90.8,58.8,90.8,58.8z"/>
			<path class="st1" d="M93.9,49.3c0.4,0.6,0.8,1.2,1.3,1.7c0.5,0.5,1.2,0.9,1.9,0.9c0.5,0,1.1-0.1,1.6-0.3c0.4-0.2,0.8-0.4,1.1-0.7
				"/>
			<path class="st1" d="M94.4,50.4c0,0-3.9,4-3.6,8.4"/>
			<path class="st1" d="M95.8,51.7c0,0-2.8,7.4-2.7,9.8"/>
			<path class="st1" d="M98,52c0,0,0.7,5.4-1.1,9.5"/>
			<ellipse transform="matrix(0.4329 -0.9014 0.9014 0.4329 10.2273 115.4844)" cx="96.9" cy="49.6" rx="1" ry="1.8"/>
		</g>
	</g>
	<g>
		<path class="st1" d="M65.4,41.4c0,0-3.2-2.3-4-3.1c-1.2-1-0.5-1.5,1.5-1.2s5.6,2.1,6.5,1.3s3.6-3.8,3.6-3.8s1.1-1,1.5,1.5
			c0.3,1.6,0.8,4.2,0.8,4.2s0.7,0.7,1.8,0.9c1.1,0.2,4.1,2,4.4,2.7c0.3,0.6-1.8,1.1-1.8,1.1l-3.8,1c0,0,0.3,2.5-0.2,3.3
			s-3.9-2.2-5.4-2.7s-6.5,1.6-6.5,1.6s-3.8,1.2-3.7-0.2c0-1.4,5.1-5.5,5.1-5.5S65.7,41.6,65.4,41.4z"/>
		<g>
			<path class="st3" d="M73.1,36.6c-0.2,1.5-0.8,3.8-1.6,5.1c-0.7-0.9-1.9-1.4-3-1.8c-1.1-0.4-2.8-0.6-4.1-1"/>
			<path class="st3" d="M71.7,41.7c2.1,0.4,5.3,1.1,7.3,1.8"/>
			<path class="st3" d="M71.6,41.8c-3.6,1.5-6.4,3.7-9.6,5.4"/>
			<path class="st1" d="M71.6,41.7c0,1.1,0.3,2.1,0.8,3c0.4,0.5,0.8,1,1.1,1.6c0.4,0.6,1.4,1.3,1.4,2"/>
		</g>
	</g>
	<g>
		<path class="st1" d="M75.5,71.3c0.5,0,0.8,0.6,0.5,1c-0.2,0.4-0.9,0.4-1.2,0.1s-0.4-0.8-0.3-1.3s0.5-0.7,1-0.9
			c1-0.4,2.3-0.1,2.8,0.9c0.6,1,0.1,2.4-0.8,3.2c-0.4,0.4-1,0.7-1.6,0.8c-0.7,0.1-1.4-0.2-2-0.6c-1.4-1-2.2-2.7-2.1-4.4
			c0.2-1.7,1.4-3.3,3-3.8c1.4-0.5,2.9-0.2,4.2,0.3c1.2,0.5,2.3,1.2,3,2.4c0.7,1.3,0.6,2.9,0.4,4.4c-0.2,1.3-0.5,4.2-1.8,4.6
			c-3.8,1.4-12,3.4-14-6.8c0.2-4.3,2.4-11,13.7-8.9c11.6,2.2,9.7,13.8,6.1,16.7c0,0-1.9-2.2-5.3-1.2"/>
		<path class="st2" d="M76.8,62.6c-0.2,0.6-0.4,1.2-0.5,1.8c-0.1,0.6,0,1.3,0.3,1.8"/>
		<path class="st2" d="M72.6,63.5c0.4,1,1,2,1.7,2.9"/>
		<path class="st2" d="M68.5,67.6c1,0.7,2,1.3,3.1,1.8"/>
		<path class="st2" d="M67.8,69.7c1.3,0.6,2.7,0.9,4.2,0.8"/>
		<path class="st2" d="M78.2,70.9c1.2,0.3,2.3,0,3.6-1"/>
		<path class="st2" d="M78.4,73.1c0.5,0.5,1,0.9,1.6,1.2s1.3,0.3,1.9,0"/>
	</g>
	<g>
		<g>
			<path class="st1" d="M53.5,32.2c0,0-2.2,1.8-2.9-0.8s-1.2-6.6,0-8.7c-0.6-0.6-0.6-1.9,0.9-2.7s3.9-0.9,4.7,0.5
				c0.8,1.4,4.8,4.9,4.8,9.4c-0.5,1.4-1,1.1-1,1.1s-0.5,2.9-3.1,2.1C55.8,33.8,53.5,32.2,53.5,32.2z"/>
			<ellipse transform="matrix(0.9872 -0.1598 0.1598 0.9872 -2.6957 8.7772)" cx="53.2" cy="21.2" rx="1.8" ry="1"/>
			<path class="st2" d="M50.6,22.7c0.7,0.3,1.3,0.6,2,0.7s1.5,0.1,2.1-0.3c0.5-0.3,0.8-0.7,1.1-1.1c0.3-0.4,0.5-0.8,0.5-1.2"/>
			<path class="st2" d="M51.6,23.2c0,0-0.9,5.5,1.9,9"/>
			<path class="st2" d="M53.5,23.5c0,0,1.9,7.7,3.4,9.5"/>
			<path class="st2" d="M55.5,22.4c0,0,3.7,4.1,4.5,8.5"/>
		</g>
		<g>
			<path class="st1" d="M42.4,35.9c0,0-2,2.1-3-0.4c-1.1-2.5-2.1-6.4-1.1-8.6c-0.7-0.5-0.8-1.8,0.6-2.8c1.4-1,3.7-1.4,4.7-0.1
				c1,1.3,5.4,4.2,6,8.7c-0.3,1.5-0.9,1.2-0.9,1.2s-0.1,2.9-2.8,2.5C44.9,37.3,42.4,35.9,42.4,35.9z"/>
			<path class="st1" d="M38.3,26.9c0.7,0.2,1.4,0.4,2.1,0.4c0.7,0,1.5-0.1,2-0.6c0.4-0.3,0.7-0.8,1-1.2c0.2-0.4,0.4-0.8,0.3-1.3"/>
			<path class="st1" d="M39.4,27.2c0,0-0.2,5.6,3,8.7"/>
			<path class="st1" d="M41.4,27.3c0,0,2.9,7.3,4.6,9"/>
			<path class="st1" d="M43.2,26c0,0,4.2,3.5,5.6,7.8"/>
			<ellipse transform="matrix(0.9581 -0.2865 0.2865 0.9581 -5.4624 12.7252)" cx="40.8" cy="25" rx="1.8" ry="1"/>
		</g>
		<g>
			<g>
				<path class="st1" d="M39.1,44.9c0,0-2.2,1.8-2.9-0.8c-0.7-2.6-1.2-6.6,0-8.7c-0.6-0.6-0.6-1.9,0.9-2.7c1.5-0.9,3.9-0.9,4.7,0.5
					c0.8,1.4,4.8,4.9,4.8,9.4c-0.5,1.4-1,1.1-1,1.1s-0.5,2.9-3.1,2.1C41.4,46.6,39.1,44.9,39.1,44.9z"/>
				<ellipse transform="matrix(0.9872 -0.1598 0.1598 0.9872 -4.9126 6.6461)" cx="38.9" cy="33.9" rx="1.8" ry="1"/>
				<path class="st2" d="M36.2,35.4c0.7,0.3,1.3,0.6,2,0.7c0.7,0.1,1.5,0.1,2.1-0.3c0.5-0.3,0.8-0.7,1.1-1.1
					c0.3-0.4,0.5-0.8,0.5-1.2"/>
				<path class="st2" d="M37.3,35.9c0,0-0.9,5.5,1.9,9"/>
				<path class="st2" d="M39.2,36.2c0,0,1.9,7.7,3.4,9.5"/>
				<path class="st2" d="M41.2,35.2c0,0,3.7,4.1,4.5,8.5"/>
			</g>
			<g>
				<path class="st1" d="M48.5,46.2c0,0-3.3,1.9-3.7-1.8s-0.1-9,2.1-11.5c-0.7-0.9-0.4-2.6,1.9-3.4s5.3-0.2,6.1,1.8
					c0.8,2,5.2,7.6,4.2,13.5c-1,1.8-1.6,1.2-1.6,1.2s-1.4,3.7-4.5,2C51.1,49,48.5,46.2,48.5,46.2z"/>
				
					<ellipse transform="matrix(1.534357e-02 -0.9999 0.9999 1.534357e-02 18.3201 81.9015)" cx="50.7" cy="31.6" rx="1.4" ry="2.4"/>
				<path class="st2" d="M46.9,33c0.8,0.5,1.6,1,2.5,1.4c0.9,0.3,1.9,0.4,2.8,0.1c0.7-0.2,1.2-0.7,1.7-1.2c0.4-0.4,0.8-0.9,1-1.5"/>
				<path class="st2" d="M48.1,33.9c0,0-2.5,7.1,0.3,12.3"/>
				<path class="st2" d="M50.6,34.8c0,0,0.8,10.6,2.3,13.4"/>
				<path class="st2" d="M53.5,33.9c0,0,3.9,6.2,3.9,12.2"/>
			</g>
			<g>
				<path class="st1" d="M33.7,50.6c0,0-2,2.1-3-0.4c-1.1-2.5-2.1-6.4-1.1-8.6c-0.7-0.5-0.8-1.8,0.6-2.8c1.4-1,3.7-1.4,4.7-0.1
					c1,1.3,5.4,4.2,6,8.7c-0.3,1.5-0.9,1.2-0.9,1.2s-0.1,2.9-2.8,2.5C36.2,51.9,33.7,50.6,33.7,50.6z"/>
				<path class="st1" d="M29.6,41.5c0.7,0.2,1.4,0.4,2.1,0.4c0.7,0,1.5-0.1,2-0.6c0.4-0.3,0.7-0.8,1-1.2c0.2-0.4,0.4-0.8,0.3-1.3"/>
				<path class="st1" d="M30.7,41.9c0,0-0.2,5.6,3,8.7"/>
				<path class="st1" d="M32.6,41.9c0,0,2.9,7.3,4.6,9"/>
				<path class="st1" d="M34.4,40.7c0,0,4.2,3.5,5.6,7.8"/>
				<ellipse transform="matrix(0.9581 -0.2865 0.2865 0.9581 -10.0288 10.8283)" cx="32" cy="39.7" rx="1.8" ry="1"/>
			</g>
		</g>
	</g>
	<g>
		<path class="st2" d="M35.2,73.6c0,0-2.1-0.9-1.2-1.5s4.3-2.2,5.6-2.1c1.3,0.1,0.7,1.8,0.7,1.8s6.7,2.7,6,4.5
			c-0.8,1.8-6.7,5.6-9.1,4.9C34.8,80.5,34.4,81.1,35.2,73.6z"/>
		<path class="st2" d="M35.2,73.8c1.2-1.5,3.1-2.1,5.1-2"/>
		<path class="st2" d="M37.5,78.4c-0.1,1.1,0.4,2.1,1.4,2.7"/>
		<path class="st2" d="M38.6,76.8c0.5,1.1,1.1,2.1,1.9,3c0.1,0.2,0.5,0.6,0.7,0.4"/>
		<path class="st2" d="M41.2,76.5c0.7,0.8,1.4,1.7,1.9,2.6"/>
		<path class="st2" d="M43.7,76.1c0.5,0.7,0.7,0.9,1,1.7"/>
	</g>
	<g>
		<path class="st2" d="M48.7,63.2c0,0,1.1-0.4,0.6-0.8c-0.4-0.3-2.1-1.1-2.8-1.1s-0.3,0.9-0.3,0.9s-3.4,1.3-3,2.2
			c0.4,0.9,3.3,2.8,4.5,2.5S49.1,67,48.7,63.2z"/>
		<path class="st2" d="M48.7,63.3c-0.6-0.8-1.6-1-2.5-1"/>
		<path class="st2" d="M47.6,65.6c0,0.6-0.2,1.1-0.7,1.4"/>
		<path class="st2" d="M47,64.8c-0.2,0.5-0.6,1-0.9,1.5c-0.1,0.1-0.2,0.3-0.3,0.2"/>
		<path class="st2" d="M45.7,64.6c-0.4,0.4-0.7,0.8-1,1.3"/>
		<path class="st2" d="M44.5,64.4c-0.3,0.3-0.3,0.5-0.5,0.9"/>
	</g>
</g>
</svg>
