<?xml version="1.0" encoding="utf-8"?>
<!-- Generator: Adobe Illustrator 22.0.1, SVG Export Plug-In . SVG Version: 6.00 Build 0)  -->
<svg version="1.1" id="Layer_1" xmlns="http://www.w3.org/2000/svg" xmlns:xlink="http://www.w3.org/1999/xlink" x="0px" y="0px"
	 viewBox="0 0 300 340" style="enable-background:new 0 0 300 340;" xml:space="preserve">
<style type="text/css">
	.st0{fill:none;stroke:#FFFFFF;stroke-linecap:round;stroke-linejoin:round;stroke-miterlimit:10;}
	.st1{fill:none;stroke:#000000;stroke-linecap:round;stroke-linejoin:round;stroke-miterlimit:10;}
	.st2{fill:#FFFFFF;}
	.st3{fill:#FFFFFF;stroke:#000000;stroke-width:3;stroke-linecap:round;stroke-linejoin:round;stroke-miterlimit:10;}
	.st4{fill:none;stroke:#000000;stroke-width:3;stroke-linecap:round;stroke-linejoin:round;stroke-miterlimit:10;}
	.st5{fill:none;stroke:#000000;stroke-width:2;stroke-linecap:round;stroke-linejoin:round;stroke-miterlimit:10;}
</style>
<g>
	<path d="M70.7,165.2c-5.5,35,2.7,43.7,11.7,68.1s26.4,47.7,30.7,73.3c1,5.8-0.2,14.2,7.3,13.4c5.3,0.4,4.6-37.5,5.1-58.2
		c0-1.3,1.3-3.3,2.1-2.3c7.4,15,10.6,32,9.2,48.7c-0.4,4-0.9,8.4,1.2,11.9c2.1,3.5,8.2,4.5,9.9,0.8c0.3-0.7,0.4-1.4,0.6-2.1
		c2.4-14.4,4.9-28.8,7.3-43.3c0.6-1.2,1.5,0,1.9,0.4c7.8,7.7,11.8,19.5,11.7,30.5c0,3.5-0.1,7.8,3,9.5c2.5,1.4,5.7,0,7.4-2.4
		c1.6-2.3,2.1-5.2,2.4-8c1.8-13.5,3.6-27,5.4-40.4c0.1-1.4,0.9-1,1.5-0.6c15.1,10.4,25.4,29.4,26.9,47.6c0.3,3.5,1.1,8.1,4.6,8.7
		c4.1,0.7,6.1-4.8,6.5-9c1.8-21.9,2.3-44,1.5-65.9c18.9-3.1,35.3-16.1,45-32.6s13.2-36,12.9-55.2c-0.2-11.5-2.1-23.8-10-32.1
		c-9.7-10.2-19-16.3-33.1-16c-1.8,0-9.3,3-11.6,6c-1.5,2.1-3,4-3.5,6.5c-2.1,10.7,5.3,17,10.1,26.8c4.5,9.3,9.6,19.3,12.2,29.3
		c3.6,13.9-7.7,33-20.8,38.9c-1.6,0.7-5,2.9-5.1,1.1c-1.2-13.8-5-24.4-7-27.2c-27.7-37.9-43.3-27.5-66.2-43.5
		c-6.5-4.5-5.9-11.9,0.1-23.8c10.7-21.1,6.1-53,6.1-53c-0.9-7.2-2.6-16.2-3.6-19.7c-3.2-11.9-6.8-32.3-14-34.5s-12.4,2.4-13.8,4.6
		s-6.3,10.9-6.8,18c0,0-19.8-8.9-42.4,0.8c-8.5-8-27-21.2-37.5-14.9S47.6,62,47.6,62S35.6,79.5,32.2,92.1
		c-2.3,8.6-7.2,23.5,1.3,37.9c12.4,21,34.3,17.7,37.1,17.7C77.8,147.8,72,157.7,70.7,165.2z"/>
	<path class="st0" d="M47.6,103.1c0,0,0.3,4.3,11.6,4.4"/>
	<g>
		<path class="st1" d="M13.9,109.1c0,0,7-0.1,8.8,0.9"/>
		<path class="st1" d="M14.4,117.5c0,0,7.2-3.4,9.4-1.9"/>
		<path class="st1" d="M24.9,72.5c0,0,6.2,1.5,8.7,4.2"/>
		<path class="st1" d="M28,66.1c0,0,2.5,1.8,4.8,5.3"/>
	</g>
	<path class="st2" d="M40.2,28.4c4.7-3.4,15.1,1.7,27.6,11.4c5.9,4.5,1.2,5.1-1.6,5.6c-1,0.2-9,5-16.8,14.1
		C49.4,59.5,33,33.7,40.2,28.4z"/>
	<path class="st0" d="M120.8,54.5c0,0-2.6-6.8-1.8-15.9"/>
	<path class="st2" d="M135.8,19.1c0,0-9.3,1.3-12.4,17.5c-1.8,9.5-1.2,10.9,4.9,11.8c7.2,1.1,10.8,2.2,24.3,7.3
		c-3-13.6-5.2-28.4-12.2-35C139,19.6,137.8,18.9,135.8,19.1z"/>
	<path class="st1" d="M134.9,45.3c0,0-5,1.5-4.4,6.3"/>
	<path class="st0" d="M51.9,106.7c0,0-1.2,12.2,7.3,17"/>
	<path class="st0" d="M53.6,117.9c0,0-2.5,2.6-2.1,6.5"/>
	<path class="st2" d="M73.1,84.2h39.4c0,0-1.2,9.6-12.1,10.6S77.7,96.1,73.1,84.2z"/>
	<ellipse cx="81.8" cy="86" rx="0.6" ry="1.8"/>
	<path class="st2" d="M43,77.7l18.8,5.1c0,0-2.4,6.3-7.7,5.6C48.6,87.7,43,86.3,43,77.7z"/>
	<ellipse cx="49.9" cy="81.2" rx="0.6" ry="1.8"/>
	<path class="st1" d="M59.1,41.1c1,0.3,2.1,0.6,3.1,0.9c0.9,0.3,1.8,0.5,2.6,1c2.4,1.2,3.9,3.9,3.9,6.6"/>
	<g>
		<path class="st3" d="M189.7,145.7c3-2.2,7.1-2.4,10.8-2.3c6.1,0.1,12.3,0.8,17.9,3c5,2,9.5,5.2,13.9,8.3
			c5.8,4.1,11.5,8.2,17.3,12.3c3.4,2.4,7,5,8.9,8.8c1.7,3.4,1.9,7.4,1.4,11.2c-0.8,7.2-3.5,14-5.8,20.8c-2.1,6.3-4,13-2.2,19.4
			c1,3.7,3.2,7,5.6,10c2.5,3.1,5.6,6.2,9.6,6.7c2.4,0.3,4.7-0.3,7.1-0.2c2.4,0.1,5,1.5,5.3,3.8c0.3,2.3-1.6,4.1-3.4,5.6
			c-3.7,3.1-7.7,6.2-12.4,7.2c-5,1-10.1-0.5-14.9-2.1c-8.5-2.7-16.9-5.3-25.4-8c-2.3-0.7-4.5-1.4-6.7-2.5c-4.1-2-7.6-5.3-10.8-8.6
			c-1.7-1.8-3.4-3.6-4.5-5.9c-1.3-2.9-1.3-6.3-1.3-9.5c0.1-10,0.1-20,1.4-29.9c0.6-4.8,1.5-9.6,0.8-14.3c-0.7-4.8-3.4-9.6-7.9-11.3
			c-2.5-0.9-5.3-0.9-7.7-2c-3.5-1.7-5.3-6.3-3.7-9.9C185,152.8,186.3,148.1,189.7,145.7z"/>
		<path class="st4" d="M213.1,245.2c2.1,0.2,5.6-0.4,7.3-1.7c1.1-0.8,1.7-2.1,2.3-3.4c0.8-1.9,1.7-3.8,2-5.8c0.3-2,0-4.2-1.2-5.8
			c5.6,2.5,11,5.4,16.2,8.7c2.5,1.6,5,3.4,7.8,4.6c6.8,3,18.4,2.5,25.9,2"/>
		<path class="st5" d="M231.6,202.7c-0.1,1.8-0.3,3.7,0.1,5.5c0.4,1.8,1.4,3.6,3,4.5c1.2,0.7,2.6,0.8,3.7,1.6"/>
		<path class="st5" d="M189.1,146.1c8.4,2.1,14,9.9,16.6,18.1c0.4,1.4,0.8,2.8,0.9,4.3c0.4,4.9-2.2,11-3.9,15.6"/>
		<path class="st3" d="M65.2,190.4c-1.3,0.6-2.6,1.2-3.5,2.3c-1,1.3-1.1,3-1.2,4.5c-0.4,11.3,2.2,22.7,7.7,32.7
			c1.7,3.1,3.6,6,5.1,9.2c2.5,5.4,3.4,11.3,5.6,16.8c0.6,1.5,1.3,3,2.6,3.9c1.1,0.8,2.6,1,3.9,1.2c13.1,1.8,26.5,3.5,39.4,0.5
			c12.5-2.9,23.4-10,34.1-17c5.5-3.6,11.2-7.4,14.6-13.1c3.4-5.7,3.9-12.6,5.9-18.9c2-6.4,5.4-12.2,7.6-18.6
			c4.2-12,3.6-25.6-1.6-37.2c-2.4-5.3-6-10.5-11.4-12.6c-1.9-0.7-4-1.1-6.1-1.1c-5.1-0.1-10.3,1.7-14,5.2c-0.5,0.4-0.9,0.9-1.1,1.5
			c-0.7,2.4,2.8,3.5,4.7,5.1c2.2,1.9,2.3,5.4,1,8.1s-3.5,4.7-5.4,6.8c-7.7,8.4-12.6,19.5-22,25.9c-5.1,3.5-11.2,5.2-17.2,6.9
			c-11.4,3.2-22.9,6.4-34.3,9.7c-0.6,0.2-1.3,0.4-1.9,0.2c-1.3-0.3-1.1-2.4-1.4-3.7c-1.1-5.6-5.2-13.4-5.5-19.1
			C70.4,182.7,70.6,188,65.2,190.4z"/>
		<path class="st5" d="M158.3,145.3c0.9-0.1,2.5,1.7,3,2.5c0.7,1.3,1,2.9,1.2,4.4c0.2,1.6,0.2,3.3-0.2,4.9c-0.4,1.6-0.7,3.1-3.3,6.2
			"/>
		<path class="st5" d="M60.7,204.9c1.7,2.6,4.7,4,7.5,5.2c4.1,1.9,7,2.9,11.5,2.2"/>
	</g>
</g>
</svg>
