<?xml version="1.0" encoding="utf-8"?>
<!-- Generator: Adobe Illustrator 22.0.1, SVG Export Plug-In . SVG Version: 6.00 Build 0)  -->
<svg version="1.1" id="Layer_1" xmlns="http://www.w3.org/2000/svg" xmlns:xlink="http://www.w3.org/1999/xlink" x="0px" y="0px"
	 viewBox="0 0 110.5 124.3" style="enable-background:new 0 0 110.5 124.3;" xml:space="preserve">
<style type="text/css">
	.st0{fill:none;stroke:#231F20;stroke-width:0.25;stroke-miterlimit:10;}
	.st1{fill:#010101;}
	.st2{fill:none;stroke:#010101;stroke-width:0.75;stroke-linecap:round;stroke-linejoin:round;stroke-miterlimit:10;}
	.st3{fill:#FFFFFF;}
	.st4{fill:#FFFFFF;stroke:#010101;stroke-width:0.25;stroke-linecap:round;stroke-linejoin:round;stroke-miterlimit:10;}
	.st5{opacity:0.31;fill:#FFFFFF;stroke:#000000;stroke-width:0.25;stroke-miterlimit:10;enable-background:new    ;}
	.st6{fill:#FFFFFF;stroke:#231F20;stroke-width:0.25;stroke-miterlimit:10;}
	.st7{fill:#231F20;}
	.st8{fill:#231F20;stroke:#FFFFFF;stroke-width:0.25;stroke-miterlimit:10;}
</style>
<g>
	<rect x="55.8" y="44.8" class="st0" width="52.8" height="3.6"/>
	<path class="st0" d="M55.6,44.6c-1.1-1.3-2.2-2.4-3.5-3.4c-0.6-0.5-1.2-0.9-1.6-1.6"/>
	<path class="st0" d="M55.5,48.6c-0.3-0.4-0.7-0.7-1-1.1c-1.4-1.6-2.9-3.2-4.3-4.8c0-1.2,0.1-2.1,0.1-3.3
		c16.9,0.1,33.7-0.3,50.6-0.9c1.4,1.5,3,2.7,4.7,3.7c1.2,0.7,2.5,1.4,3.3,2.6"/>
</g>
<path class="st1" d="M33.3,65.1c0,0,5.8-3.1,5.9-9S35,46.6,35,46.6l3.8-9.6c0,0-0.6-2.6-3.8-1.1s-7.7,5.5-7.7,5.5S25.4,39,21.6,39
	c0.6-3.7-0.3-6.6-0.3-6.6s-1.3-1.1-2.4,0.2c-1.1,1.3-4.6,5.2-5.7,8.7c-2.4,3.9-8.3,11.6-7.4,25.8S10.9,96,14,102.6
	c-1.1,1.7-0.6,2.8,1,2.4c0,0,1.5,3.3,2.6,0.1c1,0.4,2.8-0.6,0.5-2.3L16.4,89l9,4.4l2,7.9c0,0-2,2.4,0.5,2.2c0.6,1.7,2.1,2.1,2.5,0.2
	c1.6,0.2,2.3-1.1,0.2-2.7c0-1.1,0.9-4.8,0.9-4.8s7,3.8,10.7,3.2c1.1,1.6,12.4,16.7,12.4,16.7s-1.2,1.2-1.2,1.8
	c0,0.6,0.3,1.2,1.7,0.7c0,0,0.8,3.2,2.3,0.2c1.2,0.5,3.9-0.2,0.8-2.4c0-2.5-1.7-16.7-1.7-16.7l4.7-1.4l5.6,13.3c0,0-1.5,1.8-1.3,2.4
	c0.2,0.5,0.9,1.4,2.2,0.2c0.3,1.8,1.2,1.7,1.6,1.4s0.7-0.9,0.6-1.6c1.3,0.7,2.8,0.1,2.4-1.1c-0.5-1.2-1.3-1.3-1.3-1.3
	s1.8-13.8-3.6-28.8c3.3,0,7.3,0.1,10.6-2.4s8.5-6.8,7.6-13.7s-2.9-12.3-10.8-14C67,51,62.9,54.2,62,56.8s-0.3,5,2.4,4.9
	c2.8-0.1,5.7-3.2,11.3-0.1c4.6,5.2,3.7,10.3,1.8,12.3c-1.9,2-6.8,3-11.9,2.1c-2-0.3-2.7-0.3-2.7-0.3s-3.5-3.3-6.1-5.2
	C54.4,68.9,51.2,66.9,33.3,65.1z"/>
<g>
	<path class="st2" d="M44.1,56.5c0,0-1.4-0.1-1.8,0.1"/>
	<path class="st2" d="M44.3,58.9c0,0-2.3-1.2-3-0.8"/>
</g>
<ellipse class="st3" cx="59" cy="84.3" rx="0.7" ry="1.1"/>
<g>
	<path class="st1" d="M58.8,84L58.8,84c0.1,0.1,0.1,0.2,0.2,0.2l0,0c0,0,0-0.1,0.1-0.1l0.1-0.1h0.1l-0.2,0.3l0.2,0.4h-0.1l-0.1-0.2
		c0,0,0-0.1-0.1-0.1l0,0c0,0,0,0.1-0.1,0.1l-0.1,0.2h-0.1l0.2-0.3L58.8,84L58.8,84z"/>
</g>
<path class="st4" d="M38.5,54.6h-3.9c0,0-1.6-0.3-0.2-1c1.4-0.7,3.5-1.3,3.5-1.3S38.9,53.1,38.5,54.6z"/>
<ellipse class="st1" cx="37.7" cy="53.4" rx="0.2" ry="0.6"/>
<g>
	<path class="st5" d="M66.4,11.2c0.8,0.3,1.5,0.8,2.4,0.9c1,0.1,1.9-0.5,2.9-0.6c0.8-0.1,1.7,0.2,2.5,0.3c1.5,0.1,3-0.4,4.5-0.4
		c1.3,0,2.5,0.4,3.8,0.2c0.7-0.1,1.3-0.4,2-0.6c0.7-0.2,1.4-0.4,2-0.6c0.5-0.1,0.9-0.2,1.4-0.3c1-0.3,2.1-0.5,3.1-0.1
		c0.5,0.2,0.9,0.5,1.2,0.8c2.6,2.3,4.4,5.7,4.6,9.1s-0.7,6.7-1.7,10c-0.5,1.5-1.4,3.2-2.5,4.2c-0.6,0.6-1.4,1-2,1.6
		c-0.2,0.2-0.4,0.5-0.7,0.7c-0.3,0.2-0.6,0.3-0.9,0.4c-0.9,0.4-1.7,1-2.6,1.3c-2.1,0.8-4.5,0.6-6.8,0.6c-1.7,0-4.3,0.4-6-0.1
		c-2.2-0.7-2-0.6-4.2-1.2c-0.3-0.1-1.8-1.3-2-1.5s-2.4-1.2-2.6-1.4c-3.2-3.6-2.7-3.1-3.2-3.9c-0.4-0.6-0.8-3.2-0.9-3.8
		c-0.3-2.7-0.3-4.5,0.2-7.1c0.4-2.5,1.6-5.4,2.8-7.6C64.2,11.2,65.5,10.9,66.4,11.2z"/>
	<path class="st0" d="M68,6.7c0,0-0.2-0.6,0.2-1.1c0.9-1,3.1-0.7,6.5-0.8c3.4,0,10.1-0.5,10.7-0.5c0.5,0,2.2,0,2.3,0.7
		c0.1,0.6,0.2,1,0.2,1s1.9,0.6,3.9,2.6s3.6,4.3,3.6,4.3s2.4,3.6,2.2,9.2s-1.6,8.4-2.7,10.2c-1.2,1.9-1,4-8.5,7.8
		c0.1,0.9-0.7,1.6-2.8,2s-8.6,0.4-9.8,0c-1.2-0.4-2.6-0.8-2.6-0.8s-1.1-0.4-1.2-1.6c-1.2-0.2-5.7-3.2-5.7-3.2s-2.6-2.6-3.7-6.7
		c-1.2-4.7-1.7-8.3-0.5-11.5C61.2,14.9,62.1,10.3,68,6.7z"/>
	<path class="st6" d="M62.2,31.5c0,0,0-0.6,0.9-0.3c0.8-0.2,0.8-0.2,1.4-0.1c0.6,0.2,0.3,0.3,0.6,0.2c0.3-0.2,0.2-0.2,0.6-0.1
		c0.3,0.1,1.2,0.1,1.6,0.3s0.4,0.3,0.4,0.3s0-0.7,0.4-0.8s1.3-0.5,1.7-0.1c0.4,0.4,0.5,0.5,0.5,0.5s0.1-0.9,0.4-0.9S72,30.6,72,31
		s0.4-0.4,0.7-0.1s0.3,0.6,0.4,0.7c0,0.1,0.4-0.5,0.9-0.3c0.5,0.3,0.6,0.5,0.6,0.5l0.2-0.7c0,0,0.9-0.5,1.4,0s0.4,0.5,0.4,0.5
		s1.1-0.1,1.4,0.1s0.4,0.6,0.4,0.6v0.2c0,0,0.8-0.3,1,0c0.1,0.3,0.6,0.7,0.6,0.7l1.5-0.1c0,0-0.2-1.1,0.7-0.9c0.9,0.1,1,0.4,1,0.4
		h0.1c0,0-0.1-0.5,0-0.8c0.2-0.3,0.8-0.5,1-0.4s0.6,0.6,0.6,0.6s0.2-0.7,0.4-0.9s0.5-0.4,0.7-0.2s0.5,0.5,0.5,0.5v0.2
		c0,0,0.3-0.2,0.6-0.2c0.3,0,1.3-0.3,1.3,0.3c0,0.6,0.5-0.3,1-0.2c0.4,0.1,1.1,0.5,1.1,0.5h0.2c0,0-0.4-0.6,0-0.9s1.2-0.5,1.6-0.5
		s0.7-0.2,0.9,0.2s0.2-0.1,0.5,0.1s0.4,0.7,0.4,0.7s0.3-0.2,0.2,0.5c-0.1,0.7-1.4,1.9-1.6,2.4s-0.9,1.4-1.6,1.9
		c-0.8,0.4-2.3,2.4-5.3,2.8s-7,0.8-8.4,0.7s-3.2,0-4.5-0.3s-3.7-1.5-4.4-1.6c-0.7-0.2-0.9-0.6-1.8-1.3s-1.8-1.1-2.9-2.5
		C62.7,32.7,62.2,32.3,62.2,31.5z"/>
	<path class="st7" d="M64.9,32.9c0,0-0.4,0.8-0.1,1.1s0.2,0.4,0.6,0.5s1.5,0.2,1.5-0.2c0.1-0.4,0-0.9-0.6-1.2
		C65.6,32.8,64.9,32.7,64.9,32.9z"/>
	<path class="st7" d="M69.1,33.2c0,0-0.6,0.3-0.7,0.6c0,0.3-0.1,0.8,0,0.9c0.1,0.1,0.8,0.6,1.1,0.7c0.4,0.1,0.7,0.2,1.1,0
		s0.9-0.5,0.6-0.9s-0.9-0.9-1.4-1C69.5,33.3,69.4,33,69.1,33.2z"/>
	<path class="st7" d="M70.7,33.2c0,0-0.2,0.2-0.2,0.3s0.2,0.7,0.7,0.7c0.4,0,0.7,0,0.8-0.2c0.1-0.2-0.4-1.1-0.7-1.1
		C70.9,33.1,70.7,33.2,70.7,33.2z"/>
	<path class="st7" d="M73,32.6c0,0-0.2,0.2-0.1,0.4c0,0.2,0.3,0.6,0.4,0.7c0.2,0.1,0.6,0.3,0.8,0.1s0.4-0.5,0.3-0.8
		c-0.1-0.2-0.2-0.5-0.5-0.5C73.5,32.4,73.1,32.4,73,32.6z"/>
	<path class="st0" d="M75.4,33.2c0,0-0.1-0.4,0.1-0.5s0.5-0.2,0.6,0s0.2,0.5,0.2,0.5"/>
	<path class="st0" d="M77.7,34.5c0,0-0.2-0.4,0.1-0.5c0.3-0.1,0.4-0.1,0.6,0s0.3,0.5,0.4,0.5"/>
	<path class="st0" d="M73.2,38.2c0,0,0.1-0.4,0.5-0.3s0.5,0.2,0.5,0.4"/>
	<path class="st0" d="M78.5,38.4c0,0,0.1-0.5,0.4-0.5s0.6,0.5,0.6,0.5"/>
	<path class="st0" d="M81,37.6c0,0,0.1-0.3,0.4-0.4s0.3-0.3,0.6,0c0.3,0.2,0.3,0.7,0.4,0.7"/>
	<path class="st0" d="M82.1,34.3c0,0,0.1-0.4,0.5-0.4c0.3,0,0.6,0.2,0.6,0.2c0,0.1,0.2,0.3,0.2,0.3"/>
	<path class="st0" d="M83.6,33.4c0,0-0.1-0.3,0.3-0.4c0.4-0.1,0.6-0.2,0.7,0.1s0.1,0.5,0.1,0.5"/>
	<path class="st7" d="M85.2,36c0,0-1.4,0.4-1.5,0.1c-0.1-0.3-0.2-0.7,0-1s0.1-0.5,0.6-0.5s0.8-0.2,1.1,0c0.3,0.1,0.4,0.1,0.4,0.5
		C85.7,35.4,85.8,35.8,85.2,36z"/>
	<path class="st7" d="M85.3,33.6c0,0-0.4,0.1-0.3,0.4c0.1,0.3,0,0.4,0.3,0.4s0.9-0.2,1-0.3c0.1,0-0.1-0.4-0.1-0.5s-0.2-0.2-0.4-0.2
		C85.5,33.5,85.3,33.6,85.3,33.6z"/>
	<path class="st7" d="M87.6,32.7c0,0-0.2-0.2-0.7-0.1c-0.5,0.1-0.7,0.1-0.8,0.4S86,33.4,86,33.5s0.1,0.6,0.6,0.7s0.6,0.1,0.9,0
		s0.4-0.1,0.6-0.4s0.3-0.5,0-0.7C87.8,32.8,87.6,32.7,87.6,32.7z"/>
	<path class="st7" d="M88.2,33.6c0,0,0.7,0,0.9,0.1c0.3,0.1,0.8,0.1,1,0.3s0.5,0.1,0.2,0.5s0,0.8-0.7,0.8s-1.3,0.2-1.6-0.1
		c-0.3-0.3-0.4-0.3-0.4-0.7C87.7,34.2,87.6,33.7,88.2,33.6z"/>
	<path class="st7" d="M91.8,32.5c0,0-0.5,0.1-0.5,0.5s-0.1,0.8,0.2,0.8s0.8,0.1,1.1-0.2c0.3-0.2,0.7-0.3,0.5-0.7s-0.1-0.6-0.5-0.6
		C92.3,32.4,92.2,32.3,91.8,32.5z"/>
	<path class="st7" d="M86,36.6c-0.1,0.1-0.4,0.3-0.4,0.7s-0.2,0.5,0.2,0.5c0.4,0.1,1,0.1,1.3-0.2s0.8-0.6,0.6-0.9s-0.3-0.3-1-0.2
		C86,36.6,86,36.6,86,36.6z"/>
	<path class="st7" d="M76.8,36c0,0,0-0.6,0.5-0.6s0.6,0.2,0.6,0.2"/>
	<path class="st7" d="M78.1,36.1c0,0-0.1,0.6,0.1,0.7c0.1,0.1,0.3,0.5,0.7,0.6c0.4,0,0.9,0.3,1.2,0c0.3-0.3,0.7-0.5,0.7-1
		s0.2-0.6-0.2-0.8s-0.4-0.6-0.9-0.4c-0.5,0.1-0.7,0.2-0.9,0.4C78.5,35.7,78.1,35.8,78.1,36.1"/>
	<path class="st7" d="M79.9,34.9c0,0,0-0.6,0.5-0.6s0.5-0.1,0.8,0.2c0.4,0.2,0.7,0.7,0.5,0.9s-0.3,0.3-0.5,0.3
		C80.9,35.6,80.2,35.5,79.9,34.9z"/>
	<path class="st7" d="M75.3,37.2c0,0-0.2,0-0.2,0.3s-0.1,0.6,0.2,0.7c0.2,0.1,0.1,0.2,0.7,0.2s1.1,0,1.2-0.3s0.3-0.5,0.2-0.8
		c-0.1-0.3-0.1-0.4-0.4-0.4c-0.2,0-0.9-0.1-1.3,0C75.4,37.2,75.3,37.2,75.3,37.2z"/>
	<path class="st7" d="M71.2,36.2c0,0-0.6,0.1-0.6,0.5s-0.1,0.5,0.3,0.7c0.3,0.2,0.8,0.4,1.2,0.4c0.5,0,0.9,0.1,0.9-0.6
		s0.2-1-0.4-1.1C72.1,36,71.5,36,71.2,36.2z"/>
	<path class="st7" d="M73.2,34.8c-0.1,0.4-0.1,0.5,0.1,0.7s0.7,0.7,1,0.7s1,0,1-0.2s0.2-0.4-0.1-0.7s-0.3-0.8-0.8-0.8
		C74,34.4,73.3,34.3,73.2,34.8z"/>
	<path class="st7" d="M74.7,34.3c0,0,0.2-0.3,0.4-0.4c0.3-0.1,0.8-0.2,1,0c0.3,0.2,0.7,0.4,0.5,0.7s-0.1,0.6-0.6,0.6
		s-0.8,0.1-1.1-0.2S74.6,34.5,74.7,34.3z"/>
	<path class="st6" d="M91.4,28.8c-0.1,0-1.6,0.3-1.9,1.3c-0.4,0.9,0,0.8-0.8,2s-0.6,1.4-1.6,2.1c-1,0.6-1.1-0.1-1.8,1.1
		c-0.7,1.2-1.1,1.4-0.6,1.9s0.9,1.5,2.6,0.7c1.8-0.8,3.6-1.7,4.5-3.4s2.2-3.8,1.1-5.1C92.3,28.8,91.4,28.8,91.4,28.8z"/>
	<path class="st6" d="M93.6,17c0,0-0.5,0.7-0.3,1.2s0.3,0.3,0.4,1.1c0.1,0.8,0.3,0.8,0.2,1.4s-0.5,0.4-0.3,1.1s0.1,1,0.5,1
		s0.9,0.2,1.3-0.7s0.8-2.1,0.5-3c-0.3-1-0.6-2.3-1.5-2.4C93.9,16.6,93.6,17,93.6,17z"/>
	<path class="st6" d="M94.5,23.9c0,0-0.3,0.2-0.4,0.4c0,0.3,0.1,0.2-0.1,0.5c-0.1,0.3,0,0.4-0.2,0.6s-0.3,0-0.3,0.4
		c-0.1,0.3-0.2,0.4,0,0.5c0.1,0.1,0.3,0.3,0.6,0c0.3-0.3,0.7-0.6,0.8-1.1c0.1-0.5,0.2-1.1-0.1-1.3C94.7,23.8,94.5,23.9,94.5,23.9z"
		/>
	<path class="st0" d="M70.2,39.8c0,0,1.6,0.8,3.3,0.8s7.4,0,7.6,0s4-0.1,4.8-0.4"/>
	<path class="st8" d="M62.7,23.7c0,0-0.5,0.1-0.5,0s-0.4-0.6-0.5-0.3c-0.1,0.4,0.2,0.6-0.1,0.6c-0.3,0.1-0.4,0.2-0.3,0.4
		c0.1,0.3,0.4,0.4,0.5,0.7c0,0.3-0.5,0.3-0.5,0.5s0,0.6,0.2,0.6s0.7,0,0.6,0.2c-0.1,0.2-0.5,0.3-0.4,0.6c0.1,0.2,0.1,0.4,0.3,0.4
		c0.2,0.1,0.5,0.1,0.5,0.3c0,0.2-0.2,0.4-0.2,0.7c0,0.3,0,0.5,0.3,0.5s0.4-0.3,0.6-0.2c0.2,0.1,0.1,0.4,0.1,0.6s0.1,0.5,0.2,0.6
		s0.7-0.3,0.8,0s-0.4,0.4,0.1,0.6s0.5,0.3,0.7,0.2c0.2-0.1,0-0.3,0.5-0.3c0.4,0.1,0.5,0,0.5,0.2s0.3,0.9,0.3,0.9s0.1-0.1,0.1-1.4
		c0.1-1.3,0.1-1.7-0.9-3.4c-1-1.8-2-2.8-2-2.8S62.9,23.6,62.7,23.7z"/>
	<path class="st6" d="M68.5,7.2c0,0-0.4,0.1-0.4,0.7s-0.3,1.2,0.6,1.7s3.5,1.6,4.6,0.6S75,8,75.1,7.6s-2.3-0.1-2.3-0.1
		C72.7,7.5,68.5,7.2,68.5,7.2z"/>
	<path class="st6" d="M75.3,28.5c0,0-0.4,0-0.5,0.2s-0.1,0.5,0.2,0.6c0.3,0.1,0.4,0.1,0.4,0.1L75.3,28.5z"/>
	<path class="st6" d="M83.3,27.5c0,0,0.3-0.6,0.6-0.7c0.2-0.1,0.7-0.3,0.9-0.2c0.2,0.2,0.4,0.5,0.1,0.8s-0.6,0.4-0.6,0.5
		s0.1,0.2,0.2,0.3c0.1,0,0.5,0.3,0.3,0.5c-0.1,0.2-0.2,0.4-0.6,0.4c-0.4-0.1-1-0.6-1-0.6l-0.1-0.7L83.3,27.5z"/>
	<path class="st6" d="M78,26.5c0,0-0.5,0-0.8,0.2c-0.4,0.1-1.4,0.8-1.6,1.2c-0.2,0.4-0.2,0.4-0.2,0.6s0,0.8,0.2,0.9s0.5,0.4,1.2,0.4
		s1.4,0,2.1,0c0.8,0,2.1,0,2.8-0.5c0.7-0.5,1.3-0.9,1.3-0.9s0.5-0.5,0.5-0.6s-0.4-0.6-1.1-0.8s-1.7-0.6-2.3-0.6
		C79.4,26.5,78,26.5,78,26.5z"/>
	<path class="st6" d="M77.1,26.6c0,0,0.2-0.5,0.5-0.8c0.3-0.2,0.8-0.4,1-0.3S79,26,79,26.2s0,0.3,0,0.3S77.2,26.5,77.1,26.6
		C77.1,26.7,77.1,26.6,77.1,26.6z"/>
	<path class="st6" d="M77.5,29.9c0,0-0.1,0.2-0.1,0.4s-0.1,0.6,0.1,0.7s0.8,0,0.9-0.3s0.3-0.7,0.2-0.8S77.5,29.9,77.5,29.9z"/>
	<path class="st6" d="M79,29.9c0,0-0.1,0.5,0,0.6s0.2,0.4,0.5,0.4s0.5-0.1,0.5-0.4s-0.1-0.6-0.1-0.6l0,0H79z"/>
	<path class="st6" d="M79.6,27c0,0,0.7,0,0.3,0.4"/>
	<path class="st6" d="M80.7,27.4c0,0,0.2,0.1,0,0.2"/>
	<path class="st6" d="M81.5,27.6c0,0,0.3,0.2,0.1,0.3"/>
	<path class="st6" d="M79.7,27.8c0,0,0.2-0.1,0.2,0.1s0.1,0.2-0.1,0.2"/>
	<path class="st6" d="M79.8,28.4c0,0,0.3-0.1,0.2,0.1c0,0.2,0,0.2-0.1,0.2"/>
	<path class="st6" d="M79.7,29.1c0,0,0.2,0,0.1,0.1s-0.2,0.2-0.2,0.2"/>
	<path class="st6" d="M80.8,27.8l0.1,0.1L80.8,28"/>
	<path class="st6" d="M80.8,28.4c0,0,0.2,0,0.2,0.1s0,0.2-0.1,0.3"/>
	<path class="st6" d="M78,26.5c0,0,0.7,0.5,0.7,1.3s-0.2,1.6-0.7,2.1"/>
	<path class="st0" d="M69.4,5.5c0.1,0.1,7.4,0.4,9.1,0.3s7.8-0.7,7.8-0.7"/>
	<path class="st0" d="M68.4,6.8c0,0,3.2,0.4,4.9,0.4c1.7,0,8.3-0.3,9.4-0.4C83.8,6.7,87,6.4,87.6,6"/>
	<path class="st8" d="M67.9,24.4c-0.1-0.4-0.6-0.4-0.4-0.7s0.8,0,0.8-0.5c0-0.4-0.2-0.8-0.6-0.8c-0.5,0-0.7-0.4-0.3-0.6
		c0.4-0.2,1-0.6,0.5-0.8c-0.5-0.2-0.8,0.2-1,0.2s-0.3-0.4-0.2-0.5c0.1-0.2,0.3-1.2-0.3-1.1c-0.7,0.1-0.7,0.3-0.8,0.5
		c-0.1,0.3-0.3,0.3-0.4,0.1s-0.6-0.5-0.7-0.1s0.4,1,0,0.9s-0.8-0.2-1,0.1c-0.1,0.3,0.1,0.5,0.2,0.6c0.2,0.2,0.5,0.3,0.2,0.4
		c-0.3,0.1-1-0.4-1.2,0s-0.2,0.6,0.2,0.8c0.4,0.2,0.8,0.4,0.6,0.5c-0.3,0.1-0.6-0.1-0.6,0.1s-0.2,0.6,0.1,0.7
		c0.3,0.2,0.9,0.2,0.6,0.5c-0.4,0.3-1,0.3-0.7,0.7c0.3,0.4,0.5,0.4,0.7,0.4s0.5,0.1,0.3,0.4s-0.5,0.6-0.3,0.8c0.3,0.2,0.6,0.1,0.8,0
		c0.1-0.1,0.4-0.1,0.3,0.2s-0.3,0.7-0.3,1s0.3,0.2,0.6,0.3c0.3,0.1,0.3,0.1,0,0.3c-0.3,0.2-0.6,0.1-0.3,0.3c0.3,0.2,0.5,0.1,0.9,0.1
		s0.7,0.4,0.7,0.4S68,25.5,68,25S67.9,24.4,67.9,24.4z"/>
	<path class="st8" d="M66.1,31.9c0,0-0.2,0.3,0.2,0.4c0.3,0,0.4,0.1,0.4-0.2s-0.3-1.1,0-1.3c0.3-0.1,0.5,0,0.8-0.1s0-0.3-0.1-0.5
		c0-0.2-0.3-0.3,0.1-0.3s0.5,0.3,0.8,0.1c0.3-0.1,0.1-0.3,0-0.5s-0.6-0.3-0.1-0.4S68.9,29,69,29s0.5-0.2,0.1-0.4
		c-0.4-0.2-0.5-0.2-0.4-0.4c0.1-0.2,0.4-0.2,0.6-0.3s0.7,0,0.4-0.4c-0.3-0.3-0.5-0.6-0.3-0.6c0.3-0.1,0.5,0,0.6-0.2s0.1-0.3-0.1-0.5
		s-0.5-0.3-0.4-0.5c0.1-0.1,0.8-0.3,0.6-0.6s-0.6-0.1-0.8-0.2c-0.2-0.1-0.2-0.6-0.2-0.7s-0.1-0.3-0.3-0.1c-0.2,0.2-0.4,0.5-0.6,0.4
		c-0.1-0.1-0.3,0-0.3,0s-0.1,0.2-0.1,0.3c0,0.1-0.7,0.1-0.9,0.1c-0.2,0-0.5,0.4-0.4,0.5s0.8,0.3,0.8,0.5s0,0.4-0.5,0.4
		s-0.9,0.1-0.8,0.4s0.6,0.3,0.7,0.6s0.1,0.7-0.2,0.7c-0.4,0.1-0.6-0.1-0.7,0.3c-0.1,0.3,0,0.7,0.1,0.9s0.2,0.5,0.1,0.7
		s0,0.3,0.1,0.6C66.2,31,66.2,31.5,66.1,31.9z"/>
	<path class="st6" d="M77.2,27.3c0,0-0.5,0.1-0.5,0.2s-0.3,0.6-0.1,1c0.2,0.4,0.8,0.3,1,0.2c0.2-0.1,0.7-0.4,0.6-0.8
		C78,27.6,77.9,27.3,77.2,27.3z"/>
	<ellipse class="st7" cx="77.3" cy="28.2" rx="0.1" ry="0.2"/>
</g>
</svg>
