<?xml version="1.0" encoding="utf-8"?>
<!-- Generator: Adobe Illustrator 22.0.1, SVG Export Plug-In . SVG Version: 6.00 Build 0)  -->
<svg version="1.1" id="Layer_1" xmlns="http://www.w3.org/2000/svg" xmlns:xlink="http://www.w3.org/1999/xlink" x="0px" y="0px"
	 viewBox="0 0 600 400" style="enable-background:new 0 0 600 400;" xml:space="preserve">
<style type="text/css">
	.st0{fill:#D9D8D6;stroke:#000000;stroke-miterlimit:10;}
	.st1{fill:#FFFFFF;stroke:#010101;stroke-linecap:round;stroke-linejoin:round;stroke-miterlimit:10;}
	.st2{fill:#5F5F60;}
	.st3{fill:none;stroke:#010101;stroke-miterlimit:10;}
	.st4{fill:#010101;}
	.st5{fill:none;stroke:#010101;stroke-width:2;stroke-linecap:round;stroke-linejoin:round;stroke-miterlimit:10;}
	.st6{fill:#FFFFFF;stroke:#010101;stroke-miterlimit:10;}
	.st7{fill:none;stroke:#FFFFFF;stroke-width:2;stroke-linecap:round;stroke-linejoin:round;stroke-miterlimit:10;}
	.st8{fill:#FFFFFF;stroke:#010101;stroke-width:2;stroke-linecap:round;stroke-linejoin:round;stroke-miterlimit:10;}
	.st9{fill:#FFFFFF;stroke:#000000;stroke-miterlimit:10;}
	.st10{fill:none;stroke:#000000;stroke-width:2;stroke-linecap:round;stroke-linejoin:round;stroke-miterlimit:10;}
	.st11{fill:#FFFFFF;}
</style>
<g>
	<path class="st0" d="M90.9,275.7c0,0-5.5-70.4-5.1-80.5c0.5-10.1,3.5-72.7,2.5-93.9c-1.3-28-0.1-64.4-0.1-64.4s-9.8-22.5,28.4-23.5
		s93.4,3.2,108.6,3.2s155.5-4.4,179.5-3.4s60.3,2.9,69,2.4s24.9-1.4,24.9,14.3s1.8,204.8,0,214.5c-1.8,9.7-2.8,35.4-2.8,35.4
		s30.8,28.5,39.6,37.3s32.7,33.6,38.7,39.6c6,6,8.8,26.1-2.7,27.9c-11.5,1.8-143.1,0.3-176.3,1.7S270,385.9,270,385.9
		s-225.6,0.8-227.9-1.5c-2.3-2.3-30.4,2.8-10.1-28.5C39.6,344,90.9,275.7,90.9,275.7z"/>
	<path class="st1" d="M119.3,43.4c0,0,0.9-4.1,10.9-3.4c15.2,1.1,65.9-0.5,108.1,0s165.9-6,182-3.7c16.1,2.3,36.5,0.5,43.6,2.3
		c7.1,1.8,7.1,2.3,7.1,7.4s-0.5,136.7,0,143.1c0.5,6.4,0,65.8,0,65.8h-28.4l-299-3.7l-17.1,0.9c0,0-8.2-1.4-7.7-14.7
		s0.3-171.2,0-175.3S119.3,43.4,119.3,43.4z"/>
	<path class="st2" d="M436.2,294.1c0,0,46.4,1.1,47.7,0c1.3-1.1,29.9,40.7,33.9,45.8c4,5.1,9.4,11.9,2.2,11.3
		c-7.1-0.6-102.9,3.5-123,2.9c-16.2-0.5-317-2.9-317-2.9s-9.4,4.5,1.8-15.3s24.3-46.2,24.3-46.2L436.2,294.1z"/>
	<line class="st3" x1="91.5" y1="275.7" x2="496.4" y2="279.9"/>
	<circle class="st4" cx="302.7" cy="28.6" r="1.5"/>
</g>
<g>
	<path class="st5" d="M213.9,140.4c0.8,0.2,13.5,3,16.7,6.1"/>
	<path class="st5" d="M210.8,157c15.6,1,15.6,1,19.2,1"/>
	<path class="st4" d="M358.7,196.1c11.3-9.9,16.5-30.9,13.7-44.8c-3.6-17.9-14.9-32.2-16.7-35.4c1.4-13.3,1.2-25.8-3.1-35.3
		c-4.3-9.5-9.6-9.7-15.4-5.4c-5.7,4.3-9.4,14.7-13.5,27.2c-17-3.9-36.8-0.7-36.8-0.7c-3.4-16.1-12.1-29.4-17.8-30
		c-8.7-0.8-10.5,5.2-13.9,19.2c-2.2,9.1-1.1,25.3-1.1,25.3s-14.3,17.7-17.2,31.3c-5.4,24.8,5.6,41,11.3,46
		c16.4,14.3,28.4,17,57.8,16.9C337.8,210.3,349.3,204.3,358.7,196.1z"/>
	<path class="st5" d="M397.7,151.1c0,0-13.4,4-17.5,3.1"/>
	<path class="st5" d="M392.1,135.2c0,0-11.9,5.8-15.7,10.2"/>
	<path class="st6" d="M314.4,140.4c0,0,1.2,1,3.4,0.1c2.2-0.9,15.1-5.3,20-5.3s11.7-1.6,8.9-3.7c-2.8-2.1-13.8-4.4-23.4,0.6
		C319.8,134,314,137.8,314.4,140.4z"/>
	
		<ellipse transform="matrix(0.9994 -3.597587e-02 3.597587e-02 0.9994 -4.6959 11.8212)" class="st4" cx="326.1" cy="136.4" rx="0.6" ry="1.6"/>
	<path class="st6" d="M298.3,141c0,0-2.8,0.1-5-0.7s-15.3-4.8-20.2-4.5c-5,0.2-11.7-1.2-9.1-3.4c2.7-2.2,14-5.5,23.4-0.3
		C296.8,137.3,298.6,138.4,298.3,141z"/>
	<ellipse transform="matrix(1 -1.703138e-03 1.703138e-03 1 -0.232 0.4852)" class="st4" cx="284.7" cy="136.5" rx="0.6" ry="1.6"/>
	<path class="st6" d="M350,81.5c-0.4-1.6-6.4-11.1-13.3-0.8c-3.1,4.6-10.3,18.1-10.5,20.8c-0.2,2.7-0.8,5.5,8.4,7.9
		c10.8,2.8,22,6,17.4-19.1C351.5,87.7,351,83.3,350,81.5z"/>
	<path class="st6" d="M279,86c0,0-2.4-4-5.2-6.2c-3.7-3-9.1-5.8-12.9,4.2c-1.9,5.1-1.9,19-1.6,21.8c0.3,2.7,0,7.3,10.7,4.4
		C282.7,106.6,290.4,108.4,279,86z"/>
	<g>
		<path class="st7" d="M311.2,154.2c0,0-4.5,5-8.9,0"/>
		<path class="st7" d="M306.2,156.7c0,0,1.8,3.4-0.3,8.2c0,0-1.8,3.3-3.4,3"/>
		<path class="st7" d="M306.1,165.1c0,0,1.2,2.2,3.9,2.8"/>
	</g>
	<path class="st8" d="M332.4,96.9c-3.2,1.8-6.6,4.6-6.9,7.7"/>
	<path class="st8" d="M285.1,104c-2.1-6.4-6.2-8.5-6.4-8.7"/>
</g>
<g>
	<path class="st9" d="M328.6,223.5h-46.8c-6.6,0-12-5.4-12-12v-10.1c0-6.6,5.4-12,12-12h46.8c6.6,0,12,5.4,12,12v10.1
		C340.6,218.1,335.2,223.5,328.6,223.5z"/>
	<g>
		<g>
			<path class="st10" d="M318.4,199.8c-1.5,2.9-2.2,5.5-2,8.8c0,0.3,0.1,1.2,0.2,1.4c0.3,0.4,1,0.4,1.5,0.4c2.5-0.3,5.4-1.8,7.8-2.7
				"/>
			<path class="st10" d="M330.5,199.3c0.3,3.5-0.8,6.9-1,10.4"/>
			<path class="st10" d="M331.1,201.8c1.1-0.1,1.9-0.1,2.4,0"/>
			<path class="st10" d="M330.3,205.3c1.6,0.1,3.2,0.1,4.8-0.2"/>
		</g>
		<path d="M324.4,215.1c0.5,0.8,1.7,1,2.6,0.9c0.9-0.1,2.2,0,3-0.5c1.4-0.9,2.1-2.6,1.3-4.3c-0.5-1.1-1.5-2-2.8-2
			C325.8,209.1,322.5,212.4,324.4,215.1z"/>
		<g>
			<path class="st11" d="M327.3,214.3c0,0,0.4-0.2,0.8,0c0.5,0.1,1,0,1.1-0.4c0.1-0.4,0-0.7-0.4-1c-0.4-0.4-1-0.6-1.2-0.6
				c-0.2,0-0.6,0.1-1.2,0.6c-0.6,0.5-0.4,1-0.4,1S326.4,214.6,327.3,214.3z"/>
			<ellipse class="st11" cx="325.9" cy="212.5" rx="0.5" ry="0.7"/>
			<ellipse class="st11" cx="327.1" cy="211.6" rx="0.5" ry="0.7"/>
			<ellipse class="st11" cx="328.4" cy="211.6" rx="0.5" ry="0.7"/>
			<ellipse class="st11" cx="329.5" cy="212.4" rx="0.5" ry="0.7"/>
		</g>
	</g>
	<g>
		<g>
			<path class="st10" d="M281.8,201.7c-0.4-1-1.5-1.5-2.6-1.5c-1,0-2,0.6-2.8,1.4c-1.7,1.8-2.1,4.6-2.1,7.1c0,0.4,0,0.9,0.2,1.3
				c0.3,0.4,0.8,0.7,1.3,0.7c0.5,0,1-0.2,1.5-0.4c1.7-0.8,3.1-2.2,4-3.8"/>
			<path class="st10" d="M288.8,206.2c0,0.3,0,0.5-0.1,0.8c-0.4,1.4-1.6,2.5-2.9,3.1c-0.5,0.3-1.2,0.5-1.7,0.1
				c-0.3-0.2-0.4-0.5-0.5-0.9c-0.2-1,0.3-1.9,0.8-2.7c0.6-1,1.3-2,2.3-2.3C287.8,203.9,288.8,205.2,288.8,206.2z"/>
			<path class="st10" d="M297,200.2c-0.1,0.7-0.5,1.3-0.7,1.9c-0.9,2-1.1,4.2-0.8,6.4c0.1,0.7,0.3,1.4,0.7,1.9"/>
			<path class="st10" d="M295.3,205.4c-0.2-0.7-0.5-0.9-1-1c-1.5-0.4-3,2.4-3.3,3.2s-0.1,1.8,0.6,2.3c0.5,0.3,0.9,0.6,1.5,0.5
				c0.2,0,1,0,1.8-1c0.5-0.6,0.5-1.8,0.5-2.6"/>
			<path class="st10" d="M298,207.3c0.1,0.5,0.7,0.6,1.2,0.6c1.5,0,3.1-0.5,4.3-1.4c0.3-0.2,0.7-0.5,0.8-0.9
				c0.2-0.6-0.3-1.4-0.9-1.5c-0.6-0.2-1.4,0.1-1.9,0.5s-0.8,1-1.1,1.6c-0.2,0.3-0.3,0.6-0.4,1c-0.2,0.5-0.4,0.9-0.4,1.4
				s0.2,1,0.5,1.3c0.4,0.3,1,0.3,1.5,0.3c0.5,0,1,0,1.5-0.1s0.9-0.4,1.2-0.8"/>
		</g>
		<g>
			<path class="st10" d="M311,203.7c-0.4,0.1-0.8,0.3-1.1,0.6c-0.9,0.8-1.5,1.8-2,2.9c-0.5,1.1-0.7,2.2-1,3.3"/>
			<path class="st10" d="M306.8,203.8c0.4-0.1,0.8,0.1,1,0.4c0.7,0.9,0.6,1.4,0.5,2.3"/>
		</g>
	</g>
</g>
</svg>
