<?xml version="1.0" encoding="utf-8"?>
<!-- Generator: Adobe Illustrator 22.0.1, SVG Export Plug-In . SVG Version: 6.00 Build 0)  -->
<svg version="1.1" id="Layer_1" xmlns="http://www.w3.org/2000/svg" xmlns:xlink="http://www.w3.org/1999/xlink" x="0px" y="0px"
	 viewBox="0 0 74.7 69.7" style="enable-background:new 0 0 74.7 69.7;" xml:space="preserve">
<style type="text/css">
	.st0{fill:#FFFFFF;stroke:#000000;stroke-width:3;stroke-linecap:round;stroke-linejoin:round;stroke-miterlimit:10;}
	.st1{fill:#FFFFFF;stroke:#000000;stroke-width:2;stroke-linecap:round;stroke-linejoin:round;stroke-miterlimit:10;}
</style>
<g>
	<path class="st0" d="M33.6,14.9c-2.4-2.3-5.6-4.8-8.7-3.5c-0.9,0.3-1.6,1-2.5,1.2c-1.1,0.3-2.3-0.1-3.5-0.3
		c-4.8-0.6-8.6,3.5-11.7,7.2c-1.5,1.8-3,3.7-3.2,6c-0.3,3.6,2.7,6.5,5,9.2c3.3,3.8,5.9,8.2,7.5,13c1.7,4.9,2.6,10.4,6.6,13.8
		c3.8,3.3,9.4,3.4,14.4,3.3c6.3-0.1,12.6-0.1,19-0.2c5.2,0,11.4-0.7,13.9-5.3c2.3-4.4-0.2-9.7-3-13.8s-6-8.7-5-13.5
		c0.8-3.8,4-6.5,6-9.8c3.1-5.1,2.5-12.8-2.6-16c-3.6-2.3-8.4-1.8-12.6-0.7c-2.9,0.8-5.9,1.9-7.7,4.3c-1.8,2.3-1.1,6.7-3.5,8.4
		C39.1,20.3,35.5,16.8,33.6,14.9z"/>
	<path class="st1" d="M26.7,41.3c-1.6-3.4-0.9-7.7,1.6-10.5c0.4-0.4,0.8-0.8,1.4-1c0.8-0.2,1.6,0.1,2.4,0.5c2.5,1.5,4.3,4.1,4.7,7"
		/>
	<path class="st1" d="M45.6,50.8c-2.1-0.6-2.7-3.8-1.1-5.2c2.4-2,6.7,0.2,8.8-2.1c1.5-1.6,0.8-4.1,0-6.1c-0.7-2-1.3-4.7,0.4-6
		c0.8-0.7,1.9-0.8,3-0.8c1.5,0,3,0.3,4.5,0.8"/>
</g>
</svg>
