<?xml version="1.0" encoding="utf-8"?>
<!-- Generator: Adobe Illustrator 22.0.1, SVG Export Plug-In . SVG Version: 6.00 Build 0)  -->
<svg version="1.1" id="Layer_1" xmlns="http://www.w3.org/2000/svg" xmlns:xlink="http://www.w3.org/1999/xlink" x="0px" y="0px"
	 viewBox="0 0 100 100" style="enable-background:new 0 0 100 100;" xml:space="preserve">
<style type="text/css">
	.st0{fill:#FFFFFF;stroke:#000000;stroke-width:3;stroke-linecap:round;stroke-linejoin:round;stroke-miterlimit:10;}
</style>
<g>
	<path class="st0" d="M3.8,69.7c0.5,4.7,2.5,9.1,5,13.2c1.4,2.3,3,4.6,5.5,5.6c3.3,1.2,6.9-0.4,9.9-2.1c21.6-11.7,41-27.1,60.2-42.4
		c5.5-4.4,11.5-9.6,11.9-16.6c0.6-9.5-9.9-16.6-19.4-16.1s-17.8,6.1-25.6,11.6C41,30,30.6,37.3,20.2,44.6
		C12.2,50.2,2.7,58.9,3.8,69.7z"/>
	<path d="M27.2,85.2c5.6-6.7,2.4-17.8-2.5-25c-0.9-1.3-1.9-2.5-3.3-3c-1-0.4-2-0.4-3.1-0.4c-3.7,0-7.5,0-11.2,0c0,0-3.6,5.1-3.4,9.3
		S3.5,75,7.6,81c4.1,5.9,3.8,7.8,6.9,8.2C17.7,89.5,26.3,86.3,27.2,85.2z"/>
</g>
</svg>
