<?xml version="1.0" encoding="utf-8"?>
<!-- Generator: Adobe Illustrator 22.0.1, SVG Export Plug-In . SVG Version: 6.00 Build 0)  -->
<svg version="1.1" id="Layer_1" xmlns="http://www.w3.org/2000/svg" xmlns:xlink="http://www.w3.org/1999/xlink" x="0px" y="0px"
	 viewBox="0 0 240 260" style="enable-background:new 0 0 240 260;" xml:space="preserve">
<style type="text/css">
	.st0{fill:none;stroke:#FFFFFF;stroke-linecap:round;stroke-linejoin:round;stroke-miterlimit:10;}
	.st1{fill:none;stroke:#010101;stroke-linecap:round;stroke-linejoin:round;stroke-miterlimit:10;}
	.st2{fill:#FFFFFF;}
	.st3{fill:none;stroke:#000000;stroke-linecap:round;stroke-linejoin:round;stroke-miterlimit:10;}
	.st4{fill:#010101;}
</style>
<g>
	<path d="M187.6,28.2c0,0-25-2.3-30.1,1.7c-6.1-5.8-19.9-16.4-27.4-11.9c-7.5,4.5,4,32.5,4,32.5s-7.2,9.2-9.2,15.3
		c-2,6.1-4.7,10.8-1.1,21.2c3.3,9.7,12.9,12.9,12.9,12.9s-22.2-4.7-22.2,8.7c0,0-14.9,1-26.2,12.1c-4.4,3.5-9.5,10.7-9.5,10.7
		s-7,0.3-13.1,7.2c-6.1,6.8-14.2,17.7-15,26.4c-3.1,0-11.2-2.4-25.2,4.9c-4.5,3-2.4,7-2.4,7s3.5,4.7,10.5,1c5.6-2.9,25.5-3.7,28-2.8
		s3,6.8,3,6.8s-17-0.4-20.6,1c-3.7,1.4-11.6,4.8-10.9,8.7c0.7,3.8,2.8,3.7,10,4.5s13.8,0,19.8,1s39.9,0.9,45.8,0s5.6-2.6,3.7,0.7
		c-1.9,3.3-6.6,12-29.2,16.8c-23.1,2.4-23.1,0-31.8-1.7c-6.5-1.2-26.9-2.8-31.5,0.4s-6.3,5.2-6.8,11.1s2.1,14,9.6,15.9
		c7.5,1.9,18.7,3.1,28,3.1s24.9-1.5,37.6-3.9c9.2-1.7,24.6-6.8,32.3-20.2s9.6-23.4,10.7-24.5s8.2-2.4,13.3-2.3s16.6-2.3,16.6-2.3
		s2.3-1.4,3.3,0.3s3.8,1.4,4.9,0.3s3-0.9,7.9-0.9c4.9,0,21.1,3.5,31.6-7.2c10.5-10.7,16.7-19.4,19.1-38.7c2-15.7,0.7-36.8-0.7-43.4
		c-1.4-6.6-2.5-12.4-3.9-22.7S217,45.7,217.2,45c0.2-0.7-0.1-6.9-0.9-9.4c-3.8-12.8-8.6-22-13.8-23.6s-8.9,1.7-10,3.3
		S188,23.2,187.6,28.2z"/>
	<path class="st0" d="M136,73.9c0,0,0.2,3.1,8.4,3.2"/>
	<g>
		<path class="st1" d="M111.7,78.1c0,0,5.1-0.1,6.4,0.6"/>
		<path class="st1" d="M112.1,84.2c0,0,5.2-2.4,6.8-1.4"/>
		<path class="st1" d="M119.7,51.8c0,0,4.5,1.1,6.3,3"/>
		<path class="st1" d="M121.9,47.2c0,0,1.8,1.3,3.4,3.8"/>
	</g>
	<path class="st2" d="M137.2,48.2c1.9-3.7,9.5-9.9,9.5-9.9s8.4-3.8,2.6-8.4c-8.9-7.1-18-9.1-18-9.1s-2.1-0.3-2.2,2
		c-0.1,2.2-0.6,4,0.9,9.5c1.6,5.5,4.6,15.4,5.2,15.9C135.6,48.7,137.2,48.2,137.2,48.2z"/>
	<path class="st0" d="M188.7,38.9c0,0-2.3-4.8-1.4-11.4"/>
	<path class="st2" d="M200.9,13.1c-4.9-0.6-6.3,4.6-7.7,9.7c-1.6,5.9-2.7,10.2,1.1,14c2.1,2.1,13,9,19.7,9c2.2,0,1.1-3.4,0.8-6.9
		C213.4,28.9,207.4,14,200.9,13.1z"/>
	<path class="st3" d="M197.5,30.6c0,0-3.3,2.4-2.5,7.2"/>
	<path class="st0" d="M132,98.3c0,0,11.4,5.8,16,7.2c3.1,0.9,16,2.5,20.6,0.9"/>
	<path class="st0" d="M205.4,149c0,0-4.5,18.5-9.4,21.8c-4.9,3.3-13.3,9.1-25.2,8.9c-1.2-4-4.9-3.7-4.9-3.7s-2.2,1-0.7,3.7
		c-2.3-1.3-5.1-0.4-5.3,1.7c-0.4,3,4.1,3,4.1,3s-5-1.4-4.5,2.8c0.3,2.7,3.7,3.1,3.7,3.1"/>
	<path class="st0" d="M64.5,181.5c0,0,4.1-7.6,10.4-12.8s13.3-16.8,40.6-18"/>
	<path class="st0" d="M78.8,130.9c0,0-13.1,14.4-11.6,33.7"/>
	<path class="st0" d="M139.1,76.4c0,0-0.9,8.8,5.3,12.3"/>
	<path class="st0" d="M140.3,84.5c0,0-1.8,1.9-1.5,4.7"/>
	<path class="st2" d="M154.4,60.3h28.4c0,0-0.9,6.9-8.7,7.6S157.7,68.8,154.4,60.3z"/>
	<ellipse class="st4" cx="160.6" cy="61.5" rx="0.4" ry="1.3"/>
	<path class="st2" d="M132.7,55.5l13.5,3.7c0,0-1.7,4.6-5.6,4.1C136.8,62.7,132.7,61.8,132.7,55.5z"/>
	<ellipse class="st4" cx="137.6" cy="58.1" rx="0.4" ry="1.3"/>
	<path class="st0" d="M114.2,108.6c0,0-0.4,2.1,3.8,3c4.2,0.9,12.8,6.6,13.3,9.3c0.5,2.6-1.1,4.1,1,5.2c2.3,1.2,4.2-2.6,4.2-2.6
		s0.5,3,2.6,3.5s2.3-1.9,1.8-4.2c0.3-0.1,0.6,0.5,2.1,0.8s4.9-0.7,2.3-3.9s-3-5.5-5.3-8.5c-1.3-1.7-3.6-3.8-5.8-5.2
		c-1.6-1.1-3.2-1.8-4.4-1.9c-2.9-0.2,11.3,1.3,11.8-0.3"/>
	<path class="st3" d="M142.8,33c2.7-0.4,5.5,0.6,7.3,2.6"/>
</g>
</svg>
