<?xml version="1.0" encoding="utf-8"?>
<!-- Generator: Adobe Illustrator 22.0.1, SVG Export Plug-In . SVG Version: 6.00 Build 0)  -->
<svg version="1.1" id="Layer_1" xmlns="http://www.w3.org/2000/svg" xmlns:xlink="http://www.w3.org/1999/xlink" x="0px" y="0px"
	 viewBox="0 0 160 140" style="enable-background:new 0 0 160 140;" xml:space="preserve">
<style type="text/css">
	.st0{fill:#FFFFFF;stroke:#000000;stroke-width:3;stroke-linecap:round;stroke-linejoin:round;stroke-miterlimit:10;}
	.st1{fill:none;stroke:#000000;stroke-width:2;stroke-linecap:round;stroke-linejoin:round;stroke-miterlimit:10;}
	.st2{fill:#FFFFFF;stroke:#000000;stroke-width:3;stroke-miterlimit:10;}
</style>
<g>
	<path class="st0" d="M77,17.2C67.3,24,56.4,29.1,45,32.3C39.5,33.8,33.7,35,28.8,38c-7,4.4-11.3,12.1-14,19.9
		c-5.9,17.3-4.6,38.5,8.4,51.3c6.4,6.3,14.8,9.9,23.2,13.2c8.1,3.2,16.5,6.2,25.3,6c8.9-0.1,17.4-3.5,25.9-6.2
		c14.6-4.7,30.6-8.3,40.8-19.6c8.1-9,11.3-21.6,10.7-33.7s-4.5-23.8-9.1-35c-1.4-3.4-2.9-6.9-5.9-8.9c-3-2.1-7.8-1.9-9.6,1.3
		c-0.6,1-0.8,2.2-1.8,2.8c-1.3,0.7-2.9-0.3-4.4-0.1c-2,0.4-2.8,2.7-4.3,4c-2.6,2.1-6.9,0.3-8.5-2.7s-1.2-6.6-0.9-10
		c-2.2-0.1-4.7-0.4-6-2.2c-2.8-3.8-0.9-7.9-6.8-8.4C86.9,9.3,80.7,14.6,77,17.2z"/>
	<path class="st1" d="M18.4,50.7c5.6-3.1,13.2-6.9,19.4-8.7s13-1.9,18.8,1c5.1,2.5,8.9,7.1,12.3,11.7c8.3,11.5,15,24.8,15.2,39
		c0.2,14.2-7.4,29.1-20.6,34.2"/>
	<path class="st1" d="M84.7,101.4c5.6,0.2,12,0,15.7-4.3c4-4.7,3.3-12.9,8.7-15.7c4.7-2.4,11.4,1,15.1-2.7c1-1,1.6-2.4,2.5-3.5
		c2.8-3.8,8-4.7,12.1-7c4.1-2.3,7.2-6.2,8.6-10.6"/>
	<path class="st1" d="M20.2,77.8c-0.6,3.4,0,7,1.6,10.1"/>
	<path class="st1" d="M24.4,81.6c0,2.2,0.3,4.3,0.9,6.4"/>
	<path class="st1" d="M38.3,59.3c3.2-1.1,6.9-0.1,9.1,2.4"/>
	<path class="st1" d="M68.7,105c-0.4,1.6-0.7,3.2-1.1,4.7c-0.5,0-1,0.1-1.5,0.1"/>
	<path class="st1" d="M31.4,101.8c0.6,1.7,2.4,2.9,4.3,2.7"/>
	<path d="M32.8,79.1c0.1,3,1.4,5.9,2.7,8.6c1.1,2.3,2.2,4.6,3.9,6.4c1.8,1.8,4.4,2.9,6.8,2.4c2.5-0.6,4.3-2.8,5.4-5.1
		c1.5-3,2.3-6.2,2.3-9.5c0-1.9-0.2-3.8-1.1-5.4c-1.4-2.6-4.3-4.2-7.2-4.7C39.7,70.6,32.7,71.6,32.8,79.1z"/>
	<path class="st2" d="M60.7,56c-1.4,0-0.5,3,0.5,4.2c1,1.2,2.2,2.9,1.3,4.2c-0.4,0.5-0.9,0.8-1.4,1.1c-2,1.5-2.1,4.9-0.2,6.5
		c1.3,1,3.1,1.3,4.1,2.7c1.4,2,0.2,5.7,2.5,6.6c0.8,0.3,1.7,0,2.5,0.3c2.7,0.7,2,5.1,4,6.9c0.9,0.8,2.1,1,3.3,1.1
		c1.9,0.2,3.9,0.5,5.8,0.1c1.9-0.4,3.7-1.5,4.5-3.3c1.5-3.5-1.4-8.5,1.6-10.9c0.4-0.3,0.9-0.6,1.4-0.9c1.4-1.1,1.6-3.2,1.1-4.9
		c-0.8-2.3-2.7-4.2-2.8-6.6c0-1.2,0.5-2.4,0-3.5c-0.6-1.4-2.4-1.7-3.9-1.6c-5.9,0.5-7.1-6.2-12.9-8.4C65.2,47.1,64.3,55.8,60.7,56z"
		/>
</g>
</svg>
