<?xml version="1.0" encoding="utf-8"?>
<!-- Generator: Adobe Illustrator 22.0.1, SVG Export Plug-In . SVG Version: 6.00 Build 0)  -->
<svg version="1.1" id="Layer_1" xmlns="http://www.w3.org/2000/svg" xmlns:xlink="http://www.w3.org/1999/xlink" x="0px" y="0px"
	 viewBox="0 0 120 100" style="enable-background:new 0 0 120 100;" xml:space="preserve">
<style type="text/css">
	.st0{fill:#FFFFFF;stroke:#000000;stroke-width:3;stroke-linecap:round;stroke-linejoin:round;stroke-miterlimit:10;}
	.st1{fill:none;stroke:#000000;stroke-width:2;stroke-linecap:round;stroke-linejoin:round;stroke-miterlimit:10;}
</style>
<g>
	<path class="st0" d="M12.7,42.8c-0.6,0.7-1.2,1.7-0.6,2.5c0.2,0.3,0.5,0.4,0.8,0.6c3.5,1.7,7.6,1.9,11.2,3.3
		c1.3,0.5,2.5,1.2,3.3,2.4c1.6,2.5,0,6,1.2,8.7c1.2,2.5,4.2,3.4,6.1,5.3c2.6,2.6,2.8,6.8,2.5,10.5s-0.8,7.6,0.9,10.9
		c2.1,4.1,6.9,5.9,11.5,6.4c2.8,0.3,5.9,0.1,8.2-1.7c3.2-2.5,3.7-7,4.3-11s2.1-8.6,6-9.8c4.7-1.4,9.2,3.3,14.1,2.9
		c2.2-0.2,4.1-1.3,6-2.4c2.6-1.5,5.1-3,7.7-4.5c1.7-1,3.4-2,4.8-3.3c2.8-2.6,4.4-6.3,5.5-10c2.1-7.2,2.6-14.9,1.6-22.4
		c-0.2-1.5-0.5-3-1.5-4.2c-2.2-2.6-6.7-1.6-9.1,0.9s-3.4,5.9-5.3,8.8c-0.4,0.7-1,1.4-1.7,1.8c-1.4,0.8-3.4,0.2-4.5-1
		c-1.2-1.2-1.8-2.8-2.4-4.3c-0.7-1.9-1.5-3.9-2.9-5.4s-3.8-2.2-5.6-1.3c-1.2,0.6-1.9,1.9-2.4,3.1c-1,2.9-0.7,6-0.5,9
		s0.2,6.2-1.2,8.9c-1.4,2.7-4.8,4.5-7.5,3.2c-1-0.5-1.8-1.3-2.9-1.4c-2.1-0.3-3.6,1.9-4.7,3.7c-1.1,1.8-2.9,3.9-4.9,3.1
		c-0.8-0.3-1.4-1.1-1.9-1.8c-1.8-2.5-3.6-5-5.4-7.4C42.7,46,42,45,41.8,43.8c-0.2-1.5,0.5-2.9,1.3-4.3c2-3.5,4.4-6.7,7.2-9.7
		c1.9-2.1,4.2-4.5,3.9-7.3c-0.2-2.2-2-4-3.7-5.5c-2.9-2.7-8.3-9.9-12.3-10.6C33.9,5.9,31.6,14.1,30,17c-2.5,4.6-5.3,9-8.2,13.4
		C19.1,34.5,14.9,38.5,12.7,42.8z"/>
	<path class="st1" d="M33.1,38.5C33,42,33,45.4,33.2,48.9"/>
	<path class="st1" d="M90.4,40.6c-0.3,2.4,0.7,4.8,1.1,7.3c0.4,2.4,0,5.4-2.1,6.6c-2.8,1.7-6.9-0.7-9.5,1.2
		c-0.8,0.6-1.4,1.5-2.3,1.9c-2.2,1.1-5.7-0.7-6.7,1.5c-0.9,2,1.9,4.8,0.2,6.2c-0.4,0.3-0.9,0.4-1.4,0.5c-1.9,0.3-3.8,0.2-5.7-0.1
		c-1.4-0.3-2.8-0.8-4.2-0.8s-3,0.5-3.7,1.8c-0.5,1-0.4,2.2-1.1,3.1c-0.7,1-2.1,1.2-3.3,1s-2.3-0.8-3.4-1.2c-0.4-0.1-0.8-0.2-1.1,0
		c-0.2,0.1-0.4,0.4-0.5,0.7c-1.8,3.8-0.3,8.7,3.1,11c1,0.7,2.2,1.1,3,2c2.3,2.2,1.7,6,0.8,9.1"/>
</g>
</svg>
