<?xml version="1.0" encoding="utf-8"?>
<!-- Generator: Adobe Illustrator 22.0.1, SVG Export Plug-In . SVG Version: 6.00 Build 0)  -->
<svg version="1.1" id="Layer_1" xmlns="http://www.w3.org/2000/svg" xmlns:xlink="http://www.w3.org/1999/xlink" x="0px" y="0px"
	 viewBox="0 0 200 140" style="enable-background:new 0 0 200 140;" xml:space="preserve">
<style type="text/css">
	.st0{fill:#FFFFFF;stroke:#000000;stroke-width:3;stroke-linecap:round;stroke-linejoin:round;stroke-miterlimit:10;}
	.st1{fill:none;stroke:#000000;stroke-width:3;stroke-linecap:round;stroke-linejoin:round;stroke-miterlimit:10;}
	.st2{fill:none;stroke:#000000;stroke-width:2;stroke-linecap:round;stroke-linejoin:round;stroke-miterlimit:10;}
</style>
<g>
	<path class="st0" d="M111.4,90.7c-0.5,1.1-0.6,2.4-0.9,3.6c-0.5,1.7-1.4,3.1-2.3,4.6c-5.7,9.1-12.1,18.1-20.8,24.3
		c-8.7,6.3-20.2,9.6-30.4,6.3c-7.7-2.4-13.8-8.2-19.6-13.7c-3.2-3-6.4-6.1-8.7-9.9c-2.6-4.3-3.8-9.3-5-14.1
		C21,80.3,18.5,68.6,12.9,58.3c-1.3-2.4-2.8-4.8-3.7-7.4c-1-3.2-1.2-6.6-0.7-9.9c1.1-7.7,5.5-14.8,11.4-19.9S33.1,12.8,40.7,11
		c7.8-1.9,16-2.4,23.8-0.3s14.9,6.8,18.9,13.8c0.6,1.1,1.2,2.2,2.3,2.7c0.8,0.4,1.7,0.4,2.5,0.3c3-0.2,6-0.8,8.9-0.5
		c11.1,1.3,16.9,15.2,27.8,17.6c5.1,1.1,10.6-0.7,14.4-4.3s5.8-8.8,5.9-14.1c0-2.7-0.4-5.6,0.9-8c2-3.7,7.1-4.3,10.5-6.8
		c4,2.6,1.8,8.7,2.9,13.3c0.9,3.4,3.8,7,1.9,10c-1,1.5-3.1,2.9-2.3,4.4c0.4,0.8,1.4,1,2.1,1.7c2.2,2-0.6,5.3-1.3,8.1
		c-0.7,2.6,0.6,5.5,2.6,7.3c2,1.9,4.5,3,7,4.1c2.3,1,5.4,1.9,7.1-0.1c1.5-1.7,0.6-4.3,1.2-6.5c0.6-2.6,3.2-4.4,5.9-4.9
		s5.4,0.1,8,0.6c1.2,5-3.5,9.2-6.3,13.5c-4.2,6.8-4,15.8-8.9,22c-6.2,7.9-18,8.4-27.9,6.4C141.5,90.3,115.5,80.7,111.4,90.7z"/>
	<path class="st0" d="M43.1,120c-1.7-6.6,0.1-13.4,1.1-19.3c0.8-5,2-10,4.8-14.2c2.1-3.2,5-5.7,7.8-8.2c1.5-1.3,3-2.7,4.8-3.6
		c1.5-0.8,3.2-1.2,4.9-1.6c7-1.7,14.3-3.4,21.3-1.7c2.7,0.7,5.2,1.8,7.6,3c4,1.9,8,4.1,11,7.3s5.1,5.9,4.5,10.2"/>
	<path class="st1" d="M85.7,28.4c4.5,10.7,9.6,21.2,15.2,31.4c5.1,9.3,10.8,19,11,29.6"/>
	<path class="st2" d="M120.6,46.7c2,2.8,3.9,5.7,5.9,8.5c1.2,1.7,2.4,3.5,4.1,4.7s3.8,2,5.9,1.5"/>
	<path d="M68.5,95.3c-1.3,1.6-2.4,3.5-2.5,5.5c-0.1,3,2.1,5.7,4.9,6.7s6,0.4,8.6-1c1.6-0.9,3.1-2.1,4-3.8c0.9-1.8,0.9-4,0.9-6.1
		c0-0.5,0-1-0.2-1.5c-0.3-0.7-1.1-1.2-1.8-1.5c-1.7-0.9-3.5-1.9-5.4-2.3C73,90.6,70.7,92.4,68.5,95.3z"/>
	<path class="st2" d="M89.6,93c0.8-0.5,1.9,0.5,1.8,1.4s-0.7,1.7-1.3,2.4"/>
	<path class="st2" d="M92.5,89.8c1.7,0.6,2.6,2.8,1.9,4.4"/>
	<path class="st2" d="M73,81.5c2.7-1.3,6.3-0.3,8,2.2"/>
	<path class="st2" d="M57.6,99.4c-0.7,1.7-0.9,3.7-0.6,5.5"/>
	<path class="st2" d="M51.6,96.5c-0.6,2.1-0.8,4.3-0.6,6.4"/>
	<path class="st2" d="M57,111.3c0.7,2.6,3.4,4.4,6.1,4.1"/>
</g>
</svg>
