<?xml version="1.0" encoding="utf-8"?>
<!-- Generator: Adobe Illustrator 22.0.1, SVG Export Plug-In . SVG Version: 6.00 Build 0)  -->
<svg version="1.1" id="Layer_1" xmlns="http://www.w3.org/2000/svg" xmlns:xlink="http://www.w3.org/1999/xlink" x="0px" y="0px"
	 viewBox="0 0 360 380" style="enable-background:new 0 0 360 380;" xml:space="preserve">
<style type="text/css">
	.st0{fill:none;stroke:#FFFFFF;stroke-linecap:round;stroke-linejoin:round;stroke-miterlimit:10;}
	.st1{fill:none;stroke:#000000;stroke-linecap:round;stroke-linejoin:round;stroke-miterlimit:10;}
	.st2{fill:#FFFFFF;}
	.st3{fill:none;stroke:#000000;stroke-miterlimit:10;}
	.st4{fill:none;stroke:#FFFFFF;stroke-miterlimit:10;}
	.st5{fill:#FFFFFF;stroke:#000000;stroke-miterlimit:10;}
	.st6{fill:#FFFFFF;stroke:#000000;stroke-linecap:round;stroke-linejoin:round;stroke-miterlimit:10;}
	.st7{fill:none;stroke:#000000;stroke-width:2;stroke-linecap:round;stroke-linejoin:round;stroke-miterlimit:10;}
	.st8{fill:none;stroke:#000000;stroke-width:0.75;stroke-linecap:round;stroke-linejoin:round;stroke-miterlimit:10;}
	.st9{fill:none;stroke:#000000;stroke-width:3;stroke-linecap:round;stroke-linejoin:round;stroke-miterlimit:10;}
</style>
<g>
	<g>
		<path d="M66.5,274.1c0,0,7-17.1,35.5-22.4c-6.1-10.5-10.1-17.9-10.1-17.9s-4.7,0.3-4.5-3c0.2-2.3,3.6-1.8,3.6-1.8
			s-4.2-3.7-0.9-6.2c3.1-2.4,4.9,2.6,4.9,2.6s0.6-4.2,3-3.6c2.3,0.5,1.1,4.6,1.1,4.6s12.3,8.8,20.1,18.4c7.8,9.6,17.8,23.4,19.7,27
			c2,3.6,5,10,10.5,12.1c5.5,2.2,10.6,2,18.1,0c7.5-2,42.7-9.7,54.1-7c3.6,0.9,8.6-0.9,8.6-0.9s1.6-0.5,11.3-6.1
			c9.8-5.7,34.8-20.6,34.8-20.6s-1.7-2.8,0-3.8c1.7-1,3.2,1.5,3.2,1.5s2.3-2.5,3.6-2c1.3,0.5,2.5,3,0.7,4.3
			c-1.8,1.3,4.1,2.7,2.2,4.3s-5.3,1.7-5.3,1.7s-0.3,9.8-31.9,42.5c13.1-3.2,34.5-13.9,36-15.9c1.5-2-0.7-3.6,2.5-4.6
			c3.2-1,3.2,2.8,3.2,2.8s2.7-3.6,3.6-1.8c1.7-6,8.3-18.6,27.4-16.6c8,1.5,14.4,10,11.4,20.2s-9.8,12.4-18.1,17.6
			s-16.3,13.6-23.4,26.9c-7.1,13.3-29.2,21.1-47.9,21.2c-10,8.1-30.4,17.9-63,18.9c-32.7,1-68-6.8-80-12.1s-11.9-5.3-19.4-13.1
			c-4.5-4.7-12.8-18.6-12.8-18.6s-12.4,5.8-14.1,1.7c-1.7-4.1,8.6-17.9,8.6-17.9s-18.6-32.8-21.2-42c-2.7-9.1-3.2-9.3-5-10
			c-1.8-0.7-2.7-1.7-2.2-3.2c1-2.8,4.5-1.5,4.5-1.5s-1.9-4.1,0.8-5c3.2-1.1,4.5,3.6,4.5,3.6s0.2-5.1,3.6-3.8
			c2.5,0.9,0.7,5.5,0.7,5.5L66.5,274.1z"/>
	</g>
	<path class="st0" d="M66.5,270.5c0,0,0,8.3,6.5,14.7c1.9,1.9,12,7.8,13.4,11.2c1.5,3.3,2.5,4,2.5,4"/>
	<path class="st0" d="M231.2,299c0,0,12.3,1.1,20.8-3.1"/>
	<path class="st0" d="M293.9,277.2c0,0,2.4,2.3,0.9,4.4c-1.5,2.1,2.7,0.4,3.4,2.7s-6.1,3.2-6.1,3.2s-7.2,30-48,60.5"/>
	<path class="st0" d="M100.4,251.4c0,0,15.9-4,28.7,8.1"/>
	<path class="st1" d="M130.5,241.8c0,0,0.7,3.2-2,5.5"/>
	<path class="st1" d="M135.5,245.4c0,0-1,2.2-4.4,4"/>
	<path class="st1" d="M76.5,247.4c0,0,2,4.4,2.1,6"/>
	<path class="st1" d="M69.2,253.8c0,0,4.2-1.2,5.2,2.4"/>
	<path class="st2" d="M67.3,319.6c0,0,0,0.5-0.3,0.6c-2.3,1-12.5,5.3-12.2,1.9c0,0,1.9-7.6,7.8-13.5c0.3-0.3,0.7,0,0.8,0.2
		c0.5,1.3,0.8,3.1,1.4,4.8C66.1,316.9,67.3,319.6,67.3,319.6z"/>
	<path class="st2" d="M94.6,264c0,0,1.2-7.4,8.9-8.3s14.6-1.5,16.1,4.1c1.5,5.6-2.7,9-8.7,10.9S92.9,271.3,94.6,264z"/>
	<path class="st3" d="M96.2,260.2l4,3.2c0,0,0.7-4-0.4-5.4C98.7,256.6,96.2,260.2,96.2,260.2z"/>
	<path class="st3" d="M108.4,255.3l4.1,0c0,0-0.5,4.8-1.1,4.3C110.8,258.9,108.4,255.3,108.4,255.3z"/>
	<path class="st3" d="M112.6,269.8c0,0-0.8-5.5,0.2-5c1,0.5,3.3,2.9,3.3,3.1S112.6,269.8,112.6,269.8z"/>
	<path class="st3" d="M103.6,270.7c0,0-0.3-4.8,1.4-3.5c1.7,1.3,2.5,4.3,2.5,4.3l-4-0.3L103.6,270.7z"/>
	<path class="st3" d="M96.9,269.5c0,0,5.9-11.3,22.9-6.7"/>
	<path class="st4" d="M141.1,364.4c-4.2-14-6.5-29.6-3.6-44s11.5-28,24.7-34.3c-5.9,7.2-16.2,16.2-19.6,27.5
		c-2.2,7.3-6.4,18.1,7.4,52"/>
	<path class="st4" d="M165.6,285.2c-16.6,13.9-34.8,42.5-20.8,79.8"/>
	<path class="st4" d="M158.5,286c-5.2,8.9-10.5,18.1-12,28.3c-0.7,4.9-0.6,9.9-0.4,14.8c0.4,11.7,1.4,24.5,0.3,35.8"/>
	<g>
		<g>
			<path class="st5" d="M132.1,102.6c-1.2,1.8-2.2,3.7-3.1,5.7c2,0,4,0,6,0C135,108.3,133.1,104.6,132.1,102.6z"/>
		</g>
		<path class="st5" d="M112.8,22c-2.8,2.1-5.3,4.6-7.8,7.1c-1.4,1.4-5,7.4-5.4,9c-1.1,3.9-2.2,7.7-2.9,11.7
			c-2.3,13.9,0.9,28.7,8.7,40.4c1.8,2.7,3.9,5.3,6.6,7.1c2.4,1.6,5.2,2.4,7.9,3.3c3.4,1,6.8,2.1,10.3,2c4.2,0,8.2-1.6,12.2-3.1
			c3.9-1.5,7.9-3.1,11.3-5.5c7.6-5.2,12.1-13.8,15.3-22.5c1.9-5.3,3.4-10.8,3.1-16.4c-0.2-5.9-2.3-11.5-4.4-16.9
			c-2-5.3-4.1-10.8-7.9-15.1C148,9.7,126,12.2,112.8,22z"/>
	</g>
	<g>
		<g>
			<path class="st5" d="M191.1,93.6c-1.1,1.8-2.1,3.6-3,5.6c1.9,0,3.9,0,5.8,0C193.9,99.1,192.1,95.5,191.1,93.6z"/>
		</g>
		<path class="st5" d="M172.2,15c-2.8,2-5.2,4.5-7.6,6.9c-1.3,1.4-4.8,7.3-5.3,8.7c-1.1,3.8-2.2,7.5-2.8,11.4
			c-2.3,13.6,0.8,27.9,8.5,39.4c1.8,2.6,3.8,5.2,6.4,6.9c2.3,1.5,5,2.4,7.7,3.2c3.3,1,6.6,2,10,2c4.1,0,8-1.5,11.8-3
			c3.8-1.5,7.7-3,11-5.3c7.4-5.1,11.8-13.5,14.9-21.9c1.8-5.1,3.3-10.5,3.1-16c-0.2-5.7-2.3-11.2-4.3-16.5c-2-5.2-4-10.5-7.6-14.7
			C206.5,3,185.1,5.5,172.2,15z"/>
	</g>
	<path class="st3" d="M183.2,174.7c-3.1,5.9-4.3,14-5.7,20.6c-0.9,4.6-0.9,9.3-1.8,13.9c-0.7,3.8-2.1,7.4-3.2,11.1
		c-2.3,7.8-3.7,15.8-4.3,23.9c-0.3,3.8-0.4,7.7-1.5,11.4c-0.8,2.7-2.1,5.3-2.9,8c-1.3,4.3-1.4,8.9-1.5,13.4"/>
	<path class="st3" d="M172.4,161.8c-2.6,17.8-3.5,38.3-5.8,56.2c-1.6,12.6-3.2,25.2-4.8,37.8c-0.8,6-1.5,12.1-0.8,18.2"/>
	<path class="st3" d="M162.4,170.8c0.1,18.5,1.8,35.7-0.8,54c-0.6,4.3-0.8,11.7-0.9,16.1c-0.1,3.4-0.3,9.4,0,12.8
		c0.7,8.5-0.9,14-0.2,22.5"/>
	<path class="st3" d="M145.4,160.6c-0.3,4.6,0.5,11.9,1.6,16.4c0.7,2.7,1.8,5.3,2.5,7.9c3.6,12.6,0.9,26.5,4.1,39.2
		c1,4,1.1,7.6,2,11.6c0.6,2.7,0.9,5.5,1.2,8.3c0.9,8.2,2.8,21.2,4.7,29.2"/>
	<path class="st3" d="M133.9,176.7c0.8,4,3,6.9,4.2,10.9c5.3,16.8,5.6,35.1,12.1,51.5c0.9,2.2,1.9,4.4,2.6,6.7
		c0.7,2.4,1.1,4.8,1.5,7.2c1.5,7.6,3.9,15.1,7.2,22.1c0-0.7,0-1.3,0-2"/>
	<g>
		<g>
			<path class="st6" d="M131.7,170.8c-0.4,2.3-0.7,4.7-0.8,7.1c2-0.7,3.9-1.5,5.9-2.2C136.8,175.6,133.5,172.4,131.7,170.8z"/>
		</g>
		<path class="st6" d="M81.3,94.3c-2,3.2-3.4,6.7-4.9,10.3c-0.8,1.9-2,9.6-1.9,11.3c0.4,4.4,0.8,8.8,1.7,13.2
			c3.1,15.3,12,29.4,24.3,38.7c2.8,2.1,5.9,4.1,9.3,4.9c3,0.7,6,0.6,9.1,0.5c3.7-0.2,7.5-0.4,10.9-1.7c4.1-1.6,7.5-4.7,10.8-7.7
			c3.3-3,6.5-6.1,9-9.8c5.5-8.2,6.6-18.8,6.3-29c-0.2-6.2-0.9-12.4-3.3-18.2c-2.5-6-6.8-11-10.9-15.9c-4.1-4.8-8.2-9.7-13.6-12.7
			C111.2,68.5,90.5,79.3,81.3,94.3z"/>
	</g>
	<g>
		<g>
			<path class="st5" d="M185.3,168.8c-1.8,1.5-3.5,3.1-5.1,4.9c2,0.7,4.1,1.3,6.1,2C186.3,175.7,185.6,171.2,185.3,168.8z"/>
		</g>
		<path class="st5" d="M192.7,79.2c-3.6,1.2-7,3-10.3,4.7c-1.9,1-3.8,2-5.3,3.4c-1.3,1.2-2.3,2.6-3.3,4c-2.5,3.6-4.9,7.2-6.9,11.1
			c-7,13.6-8.8,29.8-4.7,44.5c0.9,3.4,2.2,6.8,4.4,9.5c1.9,2.4,4.5,4.2,7,6c3.1,2.2,6.2,4.4,9.8,5.5c4.3,1.4,8.9,1.1,13.4,0.8
			c4.5-0.3,9-0.6,13.4-1.9c9.5-2.8,17-10.2,23.1-18.1c3.7-4.8,7.1-10,8.7-15.9c1.7-6.1,1.5-12.6,1.2-18.9
			c-0.3-6.2-0.5-12.5-2.9-18.1C232.7,78.3,209.4,73.6,192.7,79.2z"/>
	</g>
	<g>
		<g>
			<path class="st5" d="M162.9,164.4c-1.2,1.9-2.3,3.9-3.3,6c2.1,0,4.2,0,6.3,0C165.9,170.4,163.9,166.5,162.9,164.4z"/>
		</g>
		<path class="st5" d="M142.5,79.5c-3,2.2-5.6,4.9-8.2,7.5c-1.4,1.5-2.9,2.9-3.9,4.7c-0.8,1.5-1.3,3.1-1.8,4.7
			c-1.2,4.1-2.3,8.1-3,12.3c-2.4,14.6,0.9,30.2,9.1,42.5c1.9,2.8,4.1,5.6,7,7.4c2.5,1.6,5.4,2.5,8.3,3.4c3.5,1.1,7.1,2.2,10.8,2.1
			c4.4,0,8.7-1.7,12.8-3.3c4.1-1.6,8.3-3.2,11.9-5.7c8-5.5,12.8-14.5,16-23.7c2-5.5,3.5-11.4,3.3-17.3c-0.3-6.2-2.5-12.1-4.6-17.8
			c-2.1-5.6-4.3-11.4-8.3-15.8C179.5,66.6,156.4,69.2,142.5,79.5z"/>
	</g>
	<path d="M166,288.3c0.4,0,1,0.1,1.2-0.3c0.2-0.2,0.1-0.5,0.1-0.8c-0.3-3.5-0.7-7-1.3-10.4c-0.1-0.6-0.2-1.3-0.8-1.6
		c-0.4-0.2-0.8-0.2-1.3-0.2c-1.6,0-3.2,0-4.9,0c-0.3,0-0.5,0-0.7,0.2c-0.2,0.2-0.3,0.4-0.3,0.6c-0.6,2.5-2.7,8.9-1.6,11.4
		C157.8,289.7,163.2,288,166,288.3z"/>
	<path class="st7" d="M186.4,95.1c1.2,0.5,1.9,1.8,2.4,3c1.8,4.2,2.7,8.8,2.9,13.4c0.4,9.5-2.1,19.1-7.2,27.2"/>
	<path class="st7" d="M177.2,149.2c-2,1.5-3.8,3.3-5.5,5.2"/>
	<path class="st7" d="M227.6,93.3c3.3,7.7,6.7,15.8,6.2,24.2c-0.2,4.3-1.5,8.6-2.8,12.7"/>
	<path class="st7" d="M229.6,139.9c-0.4,2.6-1.6,5.1-3.4,7"/>
	<path class="st7" d="M206.7,21.8c1.7-0.2,3.2,1.2,4.2,2.7c3.1,4.8,3.4,10.8,3.5,16.5"/>
	<path class="st7" d="M218.2,63.1c-0.8,2.7-1.9,5.3-3.3,7.8"/>
	<path class="st7" d="M138.4,23.6c4.1-0.5,8.4,0.7,11.5,3.4"/>
	<path class="st7" d="M114.4,82.2c3.6-1,7.8,0.2,10.3,3.1"/>
	<path class="st7" d="M131.5,158.6c-1.2,1.2-2.5,2.4-3.8,3.5c-0.9,0.7-1.8,1.5-2.9,1.9c-2.7,1.2-5.8,0.5-8.6-0.2"/>
	<path class="st8" d="M66,315c0,0.5,0.1,0.9-0.1,1.3c-0.1,0.3-0.4,0.6-0.7,0.9c-0.8,0.8-1.9,1.4-3.1,1.3"/>
	<path class="st9" d="M24.6,238.8c-5.7,6.8-6.8,17.2-2.6,25.1"/>
	<path class="st9" d="M11.4,251c-1.7,5.5-0.2,11.8,3.6,16"/>
	<path class="st9" d="M80,206.5c3-0.5,6-0.9,9-0.5c3,0.5,6,2.1,7.3,4.8"/>
	<path class="st9" d="M83.9,199.2c3.2-0.4,6.4-0.8,9.5,0c3.1,0.8,6,3.1,6.6,6.2"/>
	<path class="st9" d="M288.6,230.2c3,6.4,4.2,13.7,3.3,20.7"/>
	<path class="st9" d="M296,227.7c4.6,3.7,6.8,10.3,5.4,16"/>
	<path class="st9" d="M343.6,282.2c0.7,7.6-2.3,15.4-7.9,20.5"/>
	<path class="st9" d="M348.8,301.4c-1,5.2-5.2,9.6-10.4,10.7"/>
	<path class="st9" d="M220.7,372.5c8-0.6,15.7-4.9,20.5-11.3"/>
	<path class="st9" d="M233.5,374.4c5.7,0.2,11.3-3.8,13-9.3"/>
	<path class="st9" d="M69,346c0.3,2.4,0.6,4.8,1.9,6.8c1.3,2,3.8,3.5,6.1,2.7"/>
	<path class="st9" d="M61.8,354.9c0.4,4.3,5.2,7.5,9.3,6.4"/>
</g>
</svg>
