<?xml version="1.0" encoding="utf-8"?>
<!-- Generator: Adobe Illustrator 22.0.1, SVG Export Plug-In . SVG Version: 6.00 Build 0)  -->
<svg version="1.1" id="Layer_1" xmlns="http://www.w3.org/2000/svg" xmlns:xlink="http://www.w3.org/1999/xlink" x="0px" y="0px"
	 viewBox="0 0 324.6 324.5" style="enable-background:new 0 0 324.6 324.5;" xml:space="preserve">
<style type="text/css">
	.st0{fill:#FFFFFF;stroke:#231F20;stroke-width:3;stroke-linecap:round;stroke-linejoin:round;stroke-miterlimit:10;}
	.st1{fill:#FFFFFF;stroke:#231F20;stroke-width:2;stroke-linecap:round;stroke-linejoin:round;stroke-miterlimit:10;}
	.st2{fill:none;stroke:#231F20;stroke-width:2;stroke-linecap:round;stroke-linejoin:round;stroke-miterlimit:10;}
</style>
<g>
	<path class="st0" d="M16.7,161.7c-1.9,1.5-3.8,3-5.2,5c-2.9,4.3-2.5,9.9-1.9,15.1c0.1,0.9,0.2,2,1,2.6c0.5,0.4,1.1,0.5,1.7,0.6
		c3.8,0.7,7.8,1,11.4,2.6s6.6,5.2,6.1,9.1c-0.3,2.6-1.9,5.9,0.2,7.5c0.6,0.4,1.3,0.5,2.1,0.6c2.5,0.4,5.1,0.7,7.6,1.1
		c2.5,0.4,5.5,1.1,6.4,3.5c1,2.6-1.2,5.2-3.1,7.3c-3.8,4.4-6.5,9.7-7.9,15.3c-1.3,5-1.3,10.8,2,14.9c3.7,4.7,10.5,5.5,16.5,5.2
		s12.3-1.2,17.8,1.1c2,0.9,3.8,2.1,5.8,2.9c4.3,1.7,9.4,1.3,13.2-1.2c3.9-2.5,6.4-6.9,6.6-11.5c0.2-4.2-1.3-9.1,1.6-12.2
		c1.3-1.4,3.1-2,4.9-2.7c6.5-2.3,13-5.4,17.3-10.8c4.4-5.6,5.9-12.9,7.3-20c0.9-4.7,1.7-9.8-0.6-14c-0.8-1.5-2-2.8-2.1-4.5
		c-0.1-2.3,1.9-4.1,3.5-5.9c4.2-4.6,6-11.3,4.8-17.5c-0.5-2.5-1.7-5.2-4.1-6.2c-1.2-0.5-2.6-0.6-4-0.6c-5.1-0.1-10.3-0.2-15.4-0.3
		c-2.8-0.1-5.9,0-8.1,1.6c-3.1,2.4-3.4,6.8-4,10.7c-1,6-4.4,12.4-10.3,14c-1.5,0.4-3.4,0.4-4.5-0.8c-0.8-0.8-1-2-1.1-3.1
		c-0.5-3.4-1.4-7.2-4.2-9.1c-2.3-1.5-5.4-1.4-7.9-0.2s-4.4,3.4-5.8,5.8c-1,1.7-2.5,3.8-4.4,3.3c-0.6-0.2-1.1-0.6-1.6-1.1
		c-1.3-1.5-1.9-3.4-2.8-5.1c-0.9-1.7-2.5-3.3-4.4-3.4c-1.2,0-2.5,0.6-3.7,0.2c-1.5-0.5-1.9-2.5-1.7-4.1s0.9-3.1,0.6-4.7
		c-0.4-2.4-2.7-3.7-4.3-5.2c-3.1-2.9-3.4-2.2-7,0.4C28.7,152.7,22.7,157.1,16.7,161.7z"/>
	<path class="st1" d="M56.5,190.3c4.4,0.1,8.8,0.3,13.2,0.4c0.3,0,0.6,0,0.9,0.1c0.5,0.2,0.7,0.6,0.9,1.1c0.4,1.2,0,2.6-0.7,3.6
		c-0.7,1.1-1.7,1.9-2.7,2.7c-1.7,1.4-3.5,2.7-5.2,4.1"/>
	<path class="st1" d="M96.7,173.5c2.3,6,11.7,7.5,12.6,13.8c0.6,4.5-3.9,8.1-8.1,9.7c-3.2,1.2-6.7,1.9-10.2,2c-2.9,0.1-6.3,0-8,2.3
		c-3.3,4.5,3.9,11,1.5,16c-1.4,2.8-5.4,3.9-5.9,7c-0.4,1.9,0.8,4,0.1,5.8c-0.3,0.9-1.1,1.5-1.9,2c-1.8,1.1-4.2,1.2-6.2,0.3
		c-1.7-0.8-3.1-2.2-4.8-2.9c-1.8-0.7-4.3-0.1-4.6,1.8"/>
</g>
<g>
	<path class="st0" d="M176.4,251.7c-0.7,0.9-1.5,2.1-0.8,3.1c0.2,0.3,0.6,0.6,1,0.7c4.4,2.2,9.5,2.4,14.1,4.2c1.6,0.6,3.2,1.5,4.1,3
		c1.9,3.2,0,7.5,1.5,10.9c1.4,3.1,5.3,4.2,7.7,6.6c3.3,3.3,3.5,8.5,3.1,13.1c-0.3,4.6-1,9.5,1.1,13.6c2.6,5.1,8.7,7.4,14.3,8
		c3.5,0.3,7.4,0.1,10.2-2.1c4-3.1,4.6-8.8,5.3-13.8s2.6-10.8,7.5-12.3c5.9-1.8,11.6,4.1,17.7,3.6c2.7-0.2,5.1-1.6,7.5-3
		c3.2-1.9,6.4-3.7,9.6-5.6c2.1-1.2,4.2-2.5,6-4.1c3.5-3.3,5.5-7.9,6.8-12.6c2.6-9,3.3-18.6,2-28c-0.3-1.9-0.6-3.8-1.9-5.2
		c-2.8-3.3-8.4-2-11.3,1.1c-3,3.1-4.3,7.4-6.6,11c-0.6,0.9-1.2,1.8-2.1,2.3c-1.8,1-4.2,0.3-5.7-1.2s-2.3-3.5-3-5.4
		c-0.9-2.4-1.8-4.9-3.6-6.7c-1.8-1.8-4.7-2.8-7-1.6c-1.5,0.8-2.4,2.3-2.9,3.9c-1.2,3.6-0.9,7.5-0.6,11.2c0.2,3.8,0.3,7.7-1.5,11.1
		c-1.8,3.3-6,5.6-9.4,4c-1.2-0.6-2.3-1.6-3.6-1.8c-2.6-0.4-4.5,2.3-5.8,4.6c-1.3,2.3-3.7,4.8-6.1,3.9c-1-0.4-1.7-1.3-2.4-2.2
		c-2.2-3.1-4.5-6.2-6.7-9.3c-0.9-1.2-1.7-2.4-1.9-3.9c-0.3-1.9,0.7-3.7,1.6-5.3c2.6-4.3,5.6-8.4,9-12.1c2.4-2.6,5.2-5.6,4.8-9.1
		c-0.3-2.8-2.5-4.9-4.6-6.8c-3.7-3.3-10.4-12.4-15.4-13.2c-5.3-0.9-8.1,9.4-10.2,13c-3.2,5.7-6.6,11.3-10.3,16.7
		C184.3,241.2,179.1,246.3,176.4,251.7z"/>
	<path class="st1" d="M201.9,246.3c-0.2,4.3-0.1,8.7,0.1,13"/>
	<path class="st2" d="M273.5,248.9c-0.3,3.1,0.9,6,1.4,9.1c0.5,3,0,6.7-2.6,8.3c-3.5,2.1-8.6-0.8-11.9,1.5c-1,0.7-1.7,1.9-2.8,2.4
		c-2.7,1.4-7.1-0.9-8.4,1.8c-1.2,2.5,2.4,6,0.3,7.7c-0.5,0.4-1.1,0.5-1.7,0.6c-2.4,0.4-4.8,0.3-7.2-0.2c-1.7-0.4-3.5-1-5.3-1
		s-3.7,0.7-4.6,2.2c-0.7,1.2-0.6,2.8-1.4,3.9c-0.9,1.2-2.6,1.6-4.1,1.3c-1.5-0.3-2.9-1-4.3-1.5c-0.4-0.1-0.9-0.3-1.3,0
		c-0.3,0.2-0.5,0.5-0.6,0.8c-2.2,4.7-0.4,10.9,3.9,13.7c1.3,0.8,2.7,1.4,3.8,2.4c2.9,2.8,2.1,7.5,1,11.4"/>
</g>
<path class="st0" d="M250.5,124.8c-1.3-0.2-2.8,0.2-3.4,1.3c-0.3,0.5-0.4,1.2-0.4,1.8c-0.2,3.9,0.8,7.9,0.1,11.8
	c-0.3,1.5-0.8,2.9-1.2,4.3c-0.7,2.6-1,5.2-0.9,7.9c0,0.9,0.1,1.9,0.5,2.7c0.5,1,1.3,1.7,2.3,2.3c2.6,1.6,5.7,2,8.6,2.2
	c3,0.2,5.9,0.3,8.9,0.4c0.4,0,0.9,0,1.3-0.2s0.6-0.6,0.7-1.1c3.4-7.9,1.4-17.8-4.8-23.8C259.4,131.6,254.8,125.5,250.5,124.8z"/>
<path class="st0" d="M138.9,71.5c-2.7,0.4-4.8,2.6-6.2,5c-0.8,1.4-1.6,3-3,3.8c-1.5,0.8-3.3,0.4-4.9,0.6c-4.1,0.5-7.1,5.1-6,9.1
	c0.9,3.3,4.2,6.2,3.5,9.6c-0.8,3.7-5.9,4.9-7.2,8.5c-1.3,3.6,2.1,7.3,5.6,8.7c3.5,1.4,7.6,1.6,10.8,3.6c2,1.2,3.7,3.2,5.9,3.9
	c3.6,1.1,7.4-1.2,9.7-4.2s3.5-6.6,5.6-9.7s5.5-5.8,9.2-5.3c1.2,0.2,2.5,0.6,3.4-0.1c0.6-0.4,0.8-1.1,1-1.8c0.8-3.6-1.3-7.7-4.7-9.1
	c-2.4-1-5.2-0.8-7.4-2.1C147.9,88.5,148,70.1,138.9,71.5z"/>
<path class="st2" d="M131.1,106.6c-1.2-2.5,0.1-5.8,2.5-7.1c2.4-1.3,5.6-0.8,7.9,0.8"/>
<path class="st0" d="M190.6,20.5c-2.4-2.3-5.6-4.8-8.7-3.5c-0.9,0.3-1.6,1-2.5,1.2c-1.1,0.3-2.3-0.1-3.5-0.3
	c-4.7-0.5-8.6,3.5-11.6,7.2c-1.5,1.8-3,3.7-3.2,6c-0.3,3.6,2.7,6.5,5,9.2c3.3,3.8,5.9,8.2,7.5,13c1.7,4.9,2.6,10.4,6.6,13.8
	c3.8,3.3,9.4,3.4,14.4,3.3c6.3-0.1,12.6-0.1,19-0.2c5.2,0,11.4-0.7,13.9-5.3c2.3-4.4-0.2-9.7-3-13.8s-6-8.7-5-13.5
	c0.8-3.8,4-6.5,6-9.8c3.1-5.1,2.5-12.8-2.6-16c-3.6-2.3-8.4-1.8-12.6-0.7c-2.9,0.8-5.9,1.9-7.7,4.3c-1.8,2.3-1.1,6.7-3.5,8.4
	C196.1,25.9,192.5,22.4,190.6,20.5z"/>
<path class="st2" d="M183.7,46.9c-1.6-3.4-0.9-7.7,1.6-10.5c0.4-0.4,0.8-0.8,1.4-1c0.8-0.2,1.6,0.1,2.4,0.5c2.5,1.5,4.3,4.1,4.7,7"
	/>
<path class="st2" d="M202.6,56.4c-2.1-0.6-2.7-3.8-1.1-5.2c2.4-2,6.7,0.2,8.8-2.1c1.5-1.6,0.8-4.1,0-6.1c-0.7-2-1.3-4.7,0.4-6
	c0.8-0.7,1.9-0.8,3-0.8c1.5,0,3,0.3,4.5,0.8"/>
<path class="st0" d="M282.6,36.9c-0.3,1-0.1,2.1-0.5,3c-1.1,2.7-5.1,2.2-7.6,3.8c-2.6,1.7-2.9,5.5-2,8.4s2.8,5.6,3.6,8.6
	c0.4,1.3,0.5,2.8-0.2,3.9c-0.7,1-1.9,1.6-2.6,2.6c-1.2,1.7-0.3,4.2,1.2,5.6s3.6,2,5.6,2.8c4.3,1.8,8.1,4.6,12.4,6.3
	s9.5,2.4,13.3-0.3c4.3-2.9,5.2-9.7,1.8-13.7c-1.4-1.6-3.2-2.7-4.8-4.1c-0.6-0.5-1.1-1.1-1.3-1.9c-0.5-2.1,2.1-3.5,4.2-3.8
	s4.7-0.4,5.8-2.2c1-1.8-0.3-4.3-2.1-5.3c-1.8-1.1-4-1.2-6.1-1.7s-4.2-1.5-5-3.5c-0.9-2.5,0.7-5.6-0.8-7.8
	C294.8,33.8,284.3,30.5,282.6,36.9z"/>
</svg>
