<?xml version="1.0" encoding="utf-8"?>
<!-- Generator: Adobe Illustrator 22.0.1, SVG Export Plug-In . SVG Version: 6.00 Build 0)  -->
<svg version="1.1" id="Layer_1" xmlns="http://www.w3.org/2000/svg" xmlns:xlink="http://www.w3.org/1999/xlink" x="0px" y="0px"
	 viewBox="0 0 120 80" style="enable-background:new 0 0 120 80;" xml:space="preserve">
<style type="text/css">
	.st0{fill:#FFFFFF;stroke:#000000;stroke-width:3;stroke-linecap:round;stroke-linejoin:round;stroke-miterlimit:10;}
</style>
<g>
	<path class="st0" d="M9.5,27.2C8.6,31,9.3,35,10.1,38.9c1.6,8,4.3,16.8,11.4,20.8c3,1.7,6.4,2.3,9.7,2.8
		c19.5,3.1,39.3,4.6,59.1,4.4c1.7,0,3.4-0.1,5-0.6c1.5-0.5,2.8-1.4,4-2.3c8.5-6.5,15.1-17,12.8-27.4c-0.5-2.2-1.5-4.4-3.2-5.9
		c-2-1.7-4.6-2.2-7.2-2.6c-10.4-1.5-21-0.9-31.5-1.3c-11.9-0.4-23.8-1.8-35.5-4.3C25.9,20.6,12.8,13.9,9.5,27.2z"/>
	<path d="M19.8,58.9c4.5,0.9,6.1-0.6,7.5-3.8s1.4-6.7,1.4-10.2c0-8.2-0.2-17.2-5.7-23.3c0,0-0.7-2.4-2.3-2.5s-10.7-0.4-11.1,8
		c-0.5,8.3,0.9,12.4,1.6,14.9s2.7,9.8,5.2,13C18.5,58,19.8,58.9,19.8,58.9z"/>
</g>
</svg>
