<?xml version="1.0" encoding="utf-8"?>
<!-- Generator: Adobe Illustrator 22.0.1, SVG Export Plug-In . SVG Version: 6.00 Build 0)  -->
<svg version="1.1" id="Layer_1" xmlns="http://www.w3.org/2000/svg" xmlns:xlink="http://www.w3.org/1999/xlink" x="0px" y="0px"
	 viewBox="0 0 74 97.3" style="enable-background:new 0 0 74 97.3;" xml:space="preserve">
<style type="text/css">
	.st0{fill:none;stroke:#010101;stroke-width:0.5;stroke-linecap:round;stroke-linejoin:round;stroke-miterlimit:10;}
	.st1{fill:#010101;}
	.st2{fill:#FFFFFF;}
	.st3{fill:none;stroke:#FFFFFF;stroke-width:0.5;stroke-linecap:round;stroke-linejoin:round;stroke-miterlimit:10;}
	.st4{fill:#FFFFFF;stroke:#010101;stroke-width:0.5;stroke-miterlimit:10;}
	.st5{fill:#FFFFFF;stroke:#010101;stroke-width:0.5;stroke-linecap:round;stroke-linejoin:round;stroke-miterlimit:10;}
</style>
<g>
	<path class="st0" d="M23.9,15.3c0,0,2.3,2,2.6,2.9"/>
	<path class="st0" d="M21.6,18.1c0,0,3.3,1,3.6,2.1"/>
	<path class="st1" d="M24.4,29.4c0,0,0.4-5.5,4.6-10.5c2.6-3.2,6.8-6.2,12-8.4c2.9-1.2,5.3-1.7,5.7-0.4s-0.2,5.4-2.8,6.8
		c0,0,4,1,6.6,3.8c2.4-0.4,7.4-1.1,8-0.9c0.6,0.2,2,0.4,1.8,2.6c-0.2,2.3-5,5.6-5.9,5.6c0,1.4,1.7,11.1-7.5,12.9
		c0.5,2.7,0.5,4.9-3.7,7.3c-2.1,3.7-4.3,7.5-4.6,14c1.8-0.7,4-0.3,5,0.9c1.1,1.2,1.8,2.3,1.6,4.9c2.2-0.8,3.4,1.3,3.4,1.3
		s1.3,2-1,3.1c-0.1,1.6,1.9,8-2,11.4c-0.9,0.8-1.1,0.8-1.1,0.8s2.9-0.3,3.7-0.5c0.8-0.3,4-0.7,6.3-3.9c2.3-3.1,3.4-6.2,1.6-9.4
		s-4-4.4-1.6-8.8c1.4-2.5,6.2-3.9,9.5-1.1c0,0,3.5,2.1,3.1,8.5c-0.4,6.3-1.5,11.5-6.3,16.1c-6,5.8-17.8,5.9-19.7,5.5
		c-1.9-0.4-3-0.5-3-0.5s-0.3,0.9-3,1.4c-2.7,0.6-7.6,1-11.5-0.8c-3.9-1.7-11-6.8-13.1-13c-2.1-6.2-2.5-12.1-1-20.2
		c1.6-9.1,7.3-18.4,7.3-18.4s5-6.8,6.2-8C24.2,30.1,24.4,29.4,24.4,29.4z"/>
	<path class="st0" d="M59.2,36.6c0,0-3-0.6-3.6-1.2"/>
	<path class="st0" d="M59.7,33c0,0-3.3,0.8-4.2-0.1"/>
</g>
<path class="st2" d="M46.1,27.1c0,0,0.1,0.3,0.6,0.4s3.4,0.5,4.4,1c0.9,0.5,2.4,0.9,2.1,0.2c-0.3-0.7-2.2-2.2-4.5-2.3
	C47.8,26.4,46.3,26.5,46.1,27.1z"/>
<ellipse transform="matrix(0.4363 -0.8998 0.8998 0.4363 2.7771 59.3725)" class="st1" cx="48.8" cy="27.5" rx="0.3" ry="0.1"/>
<path class="st2" d="M43,25.5c0,0-0.5-0.3-0.9-0.6c-0.3-0.4-2.4-2.5-3.4-2.9c-1-0.5-2.1-1.4-1.4-1.6s3.2,0.4,4.5,2.3
	C43.1,24.7,43.3,25.1,43,25.5z"/>
<ellipse transform="matrix(0.4669 -0.8843 0.8843 0.4669 1.1874 48.5602)" class="st1" cx="40.9" cy="23.3" rx="0.3" ry="0.1"/>
<path class="st3" d="M44.9,28.7c0,0-1.2,0.3-1.7-0.5"/>
<path class="st2" d="M58.9,23.4c0,0,1.1-2.5-1.5-2.4c-1.2,0-4.5,0.5-5,0.8c-0.5,0.3-1.1,0.5-0.3,2.5C53,26.7,54.6,29.2,58.9,23.4z"
	/>
<path class="st2" d="M46.1,12.7c0,0,1.2-3.5-2.1-2.4c-1.1,0.4-4.2,1.5-4.7,1.9c-0.4,0.4-1.7,1.1,0.3,2.5
	C41.9,16.4,43.7,18.1,46.1,12.7z"/>
<path class="st3" d="M24.1,32.9c0,0,3.7-2.8,7.3-2.5c3.8,0.3,4,5.3,3.9,6.4c0,1.1,0.1,6.8-3.3,7.5c-3.2,0.7-3.2-2.2-3.2-2.2
	s0.8-4.1,0.4-4.7"/>
<path class="st3" d="M40.1,39.5c0,0,5-1.7,6.8,1.4"/>
<path class="st3" d="M41.9,42.2c0,0-4.3,1.8-4.9,4.2c-0.5,2.4,0.6,2.5,0.6,2.5s1.9,1.4,5.7-0.8"/>
<path class="st3" d="M28.8,72.8c0,0,1.2-3.6-2.6-7.3c-3.8-3.7-9.2-0.7-9.2-0.7"/>
<path class="st3" d="M26.7,82.2c0,0-0.5-9.2,3.9-10.8c1.1-0.3,2.7,0.2,2.7,1.7c0,2.2-1.4,5.1-1.3,7.1c0.1,2,1.1,6,0.1,7.3"/>
<path class="st3" d="M42.5,78.9c0,0-1.7-8.5,2.8-11.1"/>
<path class="st3" d="M38.9,61.9c0,0-2.5,1-3,2.9"/>
<line class="st4" x1="42.4" y1="85.4" x2="44.6" y2="84.4"/>
<path class="st3" d="M43.7,28.6c0,0,0,0.8-0.9,1.5c0,0-0.7,0.4-1,0.2"/>
<path class="st3" d="M42.9,30.2c0,0,0,0.6,0.5,0.9"/>
<path class="st2" d="M30.8,74.4c0,0-0.5,0.2-0.5,0.7s-0.1,1.2,0.5,1.1s1.2-0.5,1-1.4C31.7,74,30.8,74.4,30.8,74.4z"/>
<path class="st2" d="M30.3,72.5c0,0-0.6-0.1-0.5,0.4c0,0.5,0.3,0.7,0.7,0.7S31,72.5,30.3,72.5z"/>
<path class="st2" d="M31.6,72.5c0,0-0.5-0.1-0.5,0.3c0.1,0.4,0.2,0.7,0.5,0.6C31.9,73.2,32,72.4,31.6,72.5z"/>
<path class="st2" d="M32.9,73.1c0,0-0.5-0.1-0.5,0.2c0,0.3,0,0.6,0.3,0.6S33,73.5,32.9,73.1z"/>
<path class="st3" d="M45.2,71.8c0,0,1.1,0.1,1.3-1.1"/>
<path class="st3" d="M45.9,71.6c0,0,1.1,0.5,1.4-0.4"/>
<path class="st3" d="M46.6,71.7c0,0,0.6,0.6,1,0.3"/>
<path class="st2" d="M45.4,71.8c0,0-0.3,0.4-0.1,0.7c0.2,0.3,0.6,0.4,0.9,0.2c0.3-0.2,0.4-0.5,0.3-0.8
	C46.5,71.6,46.1,71.4,45.4,71.8z"/>
<path class="st5" d="M53.8,22.1c0,0-1.6-0.3-1.9,0.2"/>
<path class="st5" d="M43.6,16.1c0,0,0.7-1.4,0.3-1.9"/>
</svg>
