<?xml version="1.0" encoding="utf-8"?>
<!-- Generator: Adobe Illustrator 22.0.1, SVG Export Plug-In . SVG Version: 6.00 Build 0)  -->
<svg version="1.1" id="Layer_1" xmlns="http://www.w3.org/2000/svg" xmlns:xlink="http://www.w3.org/1999/xlink" x="0px" y="0px"
	 viewBox="0 0 1040 500" style="enable-background:new 0 0 1040 500;" xml:space="preserve">
<style type="text/css">
	.st0{fill:#FFFFFF;stroke:#000000;stroke-width:3;stroke-linecap:round;stroke-linejoin:round;stroke-miterlimit:10;}
	.st1{fill:none;stroke:#000000;stroke-linecap:round;stroke-linejoin:round;stroke-miterlimit:10;}
	.st2{fill:none;stroke:#000000;stroke-width:2;stroke-linecap:round;stroke-linejoin:round;stroke-miterlimit:10;}
</style>
<g>
	<path class="st0" d="M140.4,300.9c13-1.2,31.4-6.7,34.4-18.6c2.7-10.9-4.5-21.5-9.1-31.7c-4.6-10.3-4.9-25.4,5.5-29.6
		c7.4-3,17,1.4,23.4-3.4c9.7-7.3-0.4-23.3,3.5-34.8c5-14.9,30.6-15.7,33.2-31.1c2-11.9-11.5-19.7-19.4-28.9
		c-9.7-11.3-11.3-28.8-3.8-41.6s23.5-20,38.1-17.1c8.1,1.6,15.4,6,23.6,7.3s18.2-1.9,20.2-9.9c1.1-4.4-0.5-9.1-0.2-13.7
		c0.8-13.1,18.3-20.1,30.2-14.4c11.9,5.7,17.9,19.4,19.5,32.4c0.8,6.4,0.9,13.1,4.1,18.6c7.4,12.5,25.5,11.5,39.9,9
		c-2.1-18.6,19.1-35.6,36.8-29.5c6,2.1,12.6,6.2,18.1,3c2.9-1.7,4.4-5,6.1-8c5.9-10.6,16.7-19,28.9-19.8s24.9,7.4,27.2,19.4
		c2.5,13-6.8,24.9-13.4,36.4s-9.4,28.8,1.9,35.9c11.4,7.2,26.8-4.5,29.5-17.7s-2.6-26.5-5.6-39.7c-3-13.1-3-28.9,7.3-37.7
		c11.1-9.5,28.3-5.8,41.1,1.2c12.8,6.9,24.8,16.8,39.3,18.5c17.2,2.1,36.5-7.4,51.1,1.9c17.6,11.2,14.4,41.1,32.1,52.1
		c14.2,8.8,36.1,1.2,47.1,13.8c6.1,6.9,7.2,18.7,15.8,22c7.4,2.9,15-2.5,22.4-5.6c19.4-8,44.4,3.7,50.6,23.7
		c1.8,5.6,2.3,11.8,5.6,16.7c7.1,10.3,24.3,10.8,29.3,22.3c3.6,8.2-1,18.3,2.8,26.3c3.5,7.3,12.4,10,17.9,15.9
		c14.9,16,2.5,51,23.1,58.2c1.5-9.2,10-16.9,19.4-17.4c9.4-0.5,18.6,6.1,21.2,15.1c1,3.4,1.3,7.4,4.2,9.4c2.2,1.5,5.2,1.2,7.8,0.8
		c13.7-1.9,27.4-3.8,41.2-5.6c3.3-0.4,6.7-1,9.2-3.2c5.4-4.9,2.5-14.7,7.3-20.3c6.3-7.5,19.8,0.9,20,10.7
		c0.2,9.8-7.3,17.9-14.2,24.8c-20.9,20.8-45.7,43.1-75.1,41.1c-8.2-0.6-16.5-3.1-24.6-1.5c-5.6,1.1-10.6,4-15.8,6.1
		c-19.5,7.5-43.4,1.4-56.9-14.5c-3.2-3.8-6-8.2-10.3-10.7c-7.9-4.6-17.8-1.4-26.4,1.8c-49.2,18.2-100.2,31.3-152,39.3
		c2.4,15.7-11.1,30.3-26.3,34.9c-15.2,4.6-31.6,1.8-47.2-1c-5.8-1.1-12.2-2.6-15.3-7.6c-2.2-3.7-1.9-8.3-2.9-12.5
		c-2.6-10.6-15-17.8-25.5-14.6c-7.3,9.2,3.9,24.8-3.5,33.9c-6.6,8.1-19.3,2.4-29.6,1.7c-12.2-0.8-23.4,6.5-35.2,9.7
		c-11.8,3.2-28.1-0.6-29.9-12.7c-3.8,8.3-14.3,12.8-22.9,9.7c-8.6-3-14-13.2-11.7-22c-9.1,4.3-18.2,8.7-27.4,13
		c10.6,12.9,4.8,35.6-10.7,41.7c-26.7,10.6-51.1-23.7-79.7-25.1c-14.7-0.7-28.2,7.3-40.4,15.4c-12.3,8.1-25.2,16.7-39.8,17.4
		c-14.7,0.7-30.9-10.5-29.7-25.1c-16.3,3.4-38.7,3.4-43.4-12.6c-1.7-5.6-0.3-11.6,0.7-17.4c3.4-19.5-2.5-45.8-22.2-48.1
		c-7.7-0.9-15.3,2.5-23,3.6c-17,2.3-35-8.1-41.3-24.1c-6.1-15.2-2-32.4-3.8-48.7c-1-9.3-5.5-19.7-13-25.6
		c-9.5-7.6-21.7-3.9-7.1-15.7C42.7,230.3,67,218,91.9,210.2c22.2,20.3-7.7,67,17,84.3C118.7,301.4,129.9,297.6,140.4,300.9
		c9.2,3,15.2,12.2,23.1,17.7"/>
	<path class="st1" d="M80,272.8c3.5-11.1,8.1-20,19.5-22.6"/>
	<path class="st1" d="M69.9,324.7c2.6,4.6,8.5,6,13.7,6.9c0.9,0.2,1.9,0.3,2.8,0.1c1.2-0.4,4.8-2.1,5.5-3c3.4-4.5,4-8.2,7.5-12.7"/>
	<path class="st2" d="M348.1,213.3c1.9-3.3-3.2-5.7-5.6-8.6c-5.1-6.1-2.1-15.3,1.7-22.3s8.3-14.9,5.5-22.4
		c-3.3-8.7-17.3-10.2-22.4-2.5c-1.6,2.5-2.7,5.7-5.5,6.6c-2.9,0.9-5.9-1.7-6.9-4.5c-1.1-2.9-0.9-6-1.4-9
		c-2.3-12.7-16.2-19.1-28.4-23.4c-3.7-1.3-7.7-2.7-11.5-1.7c-7.5,1.9-10,11.9-7.9,19.4c2.1,7.5,7.2,13.8,9.7,21.2
		c2.5,7.4,1.3,17.3-5.9,20.4c-11.2,5-23.3-11.2-34.8-7c-5.7,2.1-8.6,8.7-8.7,14.7c-0.1,6.1,2,11.9,3.3,17.8c0.6,2.9,1,6.1-0.7,8.5
		c-1.8,2.5-5.2,3.1-8.3,3.2c-8.5,0.1-17-2.6-23.8-7.7"/>
	<path class="st1" d="M261.3,70c-0.7,5.9,1.1,14.9,2.7,20.5c0.7,2.3,1.6,4.7,3.5,6.2c4.3,3.6,10.9,0.9,15.4-2.5s9.2-7.7,14.8-7.1
		c5.5,0.6,9.3,5.7,11.9,10.6s4.8,10.5,9.6,13.3c4.1,2.4,9.1,2.3,13.8,2.1c1.7-0.1,3.6-0.2,4.9-1.2c1.1-0.8,1.7-2.1,2.3-3.3
		c2.9-6.2,5.6-12.5,8-18.9"/>
	<path class="st1" d="M384.6,94c0.6,5.9,3.9,11.1,5.3,16.8c1.4,5.7,0.1,13.1-5.4,15.3c-3.6,1.5-7.7,0.1-11.1-1.7s-6.5-4.4-10.2-5.5
		c-3.7-1.1-8.4-0.4-10.4,2.9c-0.7,1.2-1,2.7-1.2,4.1c-0.8,5.1-1.2,10.2-1.1,15.3c0,2.5,0.2,5.1-0.8,7.4c-1,2.3-5.5,5.5-7.9,4.7"/>
	<path class="st1" d="M428.9,127.1c2.9-7.8,13.2-11.8,20.4-7.7s8.8,15.5,2.7,21.2"/>
	<path class="st1" d="M545.5,99c0-6.3,0-12.5,0-18.8c0-0.8,0-1.7,0.5-2.3c0.6-0.7,1.7-0.9,2.6-0.9c3.2-0.2,6.4-0.5,9.4,0.5
		c3,1,5.8,3.4,6.2,6.5"/>
	<path class="st1" d="M592.9,109c0.3-3.2,4.1-5.2,7.1-4.3c3,0.9,5.1,3.9,5.8,7c0.6,3.1,0,6.3-0.7,9.4"/>
	<path class="st1" d="M927,325.1c-1.8-7.8,1.8-16.6,8.7-20.8"/>
	<path class="st1" d="M499.8,133.3c7.7,4.8,13.5,17.2,14.6,26.3c0.3,2.4,0.4,5,2.1,6.6c1.6,1.6,4.2,1.7,6.4,1.8
		c16.1,0.2,32.2,0,48.2-0.4c0.2-8,0.5-16.1,0.7-24.1c0.1-2.2,0.1-4.5-1.1-6.3c-1.2-1.8-3.4-2.7-4.7-4.4c-3.9-4.9,2.4-12.4,8.6-12.1
		c6.2,0.3,11.2,5,15.8,9.3s10.1,8.6,16.3,7.9c2.7-0.3,5.3-1.7,8.1-1.3c6.6,0.9,7.7,9.9,7.1,16.6c-0.7,7.2-1.5,14.7-5,21
		c-6.9,12.2-24.5,16.7-36.6,9.7c1.4,10.2-16.1,13-18.5,23.1c-2.7,10.9,14.3,18.6,13.2,29.8c-0.5,5.4-5.1,9.3-9.3,12.7
		c-4.3,3.4-8.6,6.8-12.9,10.2c-3.7,2.9-7.7,6-12.4,5.8c-7-0.2-11.9-7.7-12.4-14.7s2-13.8,3.1-20.8s0.5-15-4.9-19.6
		c-7.6-6.6-22-3.8-26.4-12.9c-1.2-2.4-1.3-5.3-1.7-7.9c-2-11.8-12.7-21.5-24.6-22.5c-14.6-1.2-30.9,9-43,0.6
		c-7.2-4.9-10.3-15.3-18.5-18c-9.3-3.1-18.8,6.2-20.6,15.8c-1.8,9.7,1.4,19.5,2.7,29.2c1.3,9.7,0.1,21.1-7.8,27
		c-7.5,5.5-18.1,3.9-26.5-0.2c-8.3-4.1-15.5-10.3-24.1-13.9c-8.6-3.6-19.6-3.9-26,2.9c-7.6,8-4.9,21.6-10.8,31
		c-7.4,11.9-18.2,12.5-32.1,11.5"/>
	<path class="st1" d="M127.4,370.3c7.5,2.7,13.5,0.1,19.6-5.2c6.1-5.2,9.9-12.5,13.2-19.9c0.7-1.6,1.6-3.4,3.2-4
		c1.9-0.7,3.9,0.5,5.6,1.7c8.2,5.7,16.9,11.9,20.8,21.1c2.6,6.1,2.8,12.9,3.6,19.5c0.8,6.6,2.3,13.5,6.8,18.4s12.9,6.7,17.8,2.3
		c3.8-3.4,4.4-9.1,6.5-13.8c4.7-10.4,17.4-15.3,28.7-14.1c11.3,1.1,21.6,7.1,31,13.5c9.4,6.4,18.6,13.5,29.3,17.4
		c8.4,3.1,17.6,4,26.5,2.7c1.9-0.3,3.9-0.7,5.3-2c1.4-1.3,1.9-3.2,2.3-5.1c2.6-10.9,3.5-22.2,2.9-33.4c-0.2-2.8-0.4-5.8,1-8.2
		c2.5-4.5,8.8-4.8,13.9-4.2c6.2,0.7,4.8,3.7,10.9,5.5c5.3,1.6,5.4,7,9,11.3s13.3,4,23,2.7c11.9-7.8,17-8.2,30-2.3
		c11,5,16.4,18.6,27.8,22.7c12.1,4.4,27-7.6,24.7-20.2c-2-10.8-13.9-18.9-13-29.9c1-11.7,16.2-16.9,27.5-13.8
		c0.3-6.7,1.2-10.1,0.3-16.7c1.8-7.5,5.7-8,13.1-7.5"/>
	<path class="st1" d="M573.5,303.4c10.6-4.5,15.7-5.8,27-3.5c5,1,10.1,2.9,13.1,7c4.7,6.2,2.8,15,1.7,22.7
		c-1.4,9.1-1.4,18.4-0.2,27.5c0.6,4.6,1.7,9.5,5,12.7c3.3,3.2,9.6,3.7,12.2-0.1c1.4-2.1,1.4-4.8,1.4-7.3c-0.1-7.2-0.2-14.4-0.3-21.6
		c4,1.2,8.3-0.8,11.4-3.6c3.1-2.8,5.3-6.4,8.1-9.5c5.8-6.5,13.9-10.4,21.7-14.2"/>
	<path class="st1" d="M588.9,234.9c16.3-6.4,36.5,5.4,40.7,22.4c1.7,7,0.9,15.2-4.3,20.2c-7,6.8-18.2,5.3-27.9,4.8
		c-9.7-0.5-22,2.8-23.6,12.4c-0.5,2.8,0.2,5.8-0.3,8.6c-0.9,5.7-5.9,9.8-11.2,12.3c-15.8,7.4-36.4,2.8-47.6-10.6
		c-4.5-5.3-7.6-11.9-13.3-15.9s-15.4-3.4-17.7,3.1c-15.8-5.8-26.3-23.4-23.9-40c1.2-8.3,5.1-17.2,1.2-24.6
		c-4.6-8.8-16.8-9.4-26.8-8.7c-2,0.1-4.2,0.3-5.8,1.6c-2.7,2.2-2.3,6.4-1.9,9.9c1.9,16.5-2.4,34.5-14.8,45.5
		c-12.4,11-33.8,12-44.8-0.4c-6.2-7-10.8-18.2-20-17.5c-9.2,0.7-12.1,12.4-17.3,20c-5,7.4-13.7,11.7-22.5,13
		c-2.5,0.4-5.2,0.5-7.5-0.5c-2.8-1.1-4.9-3.5-6.8-5.9c-9.7-11.8-19.3-23.5-29-35.3"/>
	<path class="st1" d="M538,318.7c-5,6.9-10.2,15.2-7.6,23.3c1.1,3.4,3.6,6.7,2.8,10.2c-1.2,5.4-9,6.8-11.1,11.9
		c-1.4,3.6,0.5,7.6,2.3,11c2.9,5.3,5.8,10.6,8.7,15.8"/>
	<path class="st1" d="M557.1,317.6c8.2,8.1,11.1,22.9,7.3,33.8c-0.9,2.6-2.2,5.1-3.2,7.7c-3.8,10.4-1.2,21.3,0.2,32.3"/>
	<path class="st1" d="M540,376.8c2.4-5.8,7.3-10.3,9.9-16.1c2.8-6.4,2.5-14.1-0.8-20.2c-0.9-1.6-2-3.2-2.4-5
		c-0.9-4.2,2.6-8.3,6.8-9.3s7.8,1.1,11.3,6.6"/>
	<path class="st1" d="M538.7,191.9c-1.1-4.1,2.2-8.9,6.5-9.2c4.3-0.3,8.3,3.9,7.7,8.2"/>
	<path class="st1" d="M431.3,247.8c3.6-3.4,9.3-4.5,13.9-2.6c4.6,1.9,7.9,6.8,7.9,11.8"/>
	<path class="st2" d="M457.7,222.6c4.8-0.9,9.7-1.8,14.5-1.2c4.8,0.6,9.7,3,12.1,7.2c4.3,7.4-0.5,16.8-6,23.4
		c-5.5,6.6-11.1,12.6-13.2,23.8"/>
	<path class="st2" d="M423.5,261.7c5.6,1.5,11.2,3.1,16.7,4.6c2.3,0.6,4.7,1.3,6.3,3.1c2,2.2,2,5.5,2,8.5
		c-0.1,8.6-0.1,17.2-0.2,25.8c0,1.4,0,2.8,0.6,4.1c1.1,2.2,3.6,3,5.8,4c7.3,3.4,12.5,11.1,13,19.2c0.1,1.6,0,3.2-1,4.5
		c-0.8,1.1-2.1,1.7-3.3,2.2c-6.8,3-13.9,5.4-21.1,7.5c-1.4,0.4-3,0.7-4.2-0.2c-1-0.8-1.1-2.2-1.2-3.4c-0.3-5.2-0.9-11.5-5.6-13.6
		c-1.3,2-3.9,2.5-6.3,2.8c-6.1,0.8-13.5,1.1-17.2-3.9c-2.8-3.8-2.1-9.2-3.7-13.7c-1-2.9-3-5.3-4.7-7.9c-3.6-5.7-5.7-12.5-6-19.3"/>
	<path class="st1" d="M428.6,312.6c8,1.7,16.5,1.1,24.2-1.9"/>
	<path class="st1" d="M371.5,280.2c2.1,3.5,2.6,12.3,0.3,15.7c-2.3,3.4-5.8,5.8-9.1,8.1c-3.3,2.3-6.9,4.8-8.3,8.6
		c-2,5.3,0.7,11.2,3.7,16.1c2.9,4.9,6.3,10.2,5.4,15.9c-0.8,4.9-5.3,7.8-3.3,12.4"/>
	<path class="st2" d="M387.6,284.9c6.1,8.9,7.8,20.7,4.4,30.9c-1.4,4.1-3.5,8.4-2.7,12.7c1.1,5.6,6.9,8.8,11.7,12
		c2.3,1.5,4.6,3.3,5.7,5.8c0.8,1.9,0.8,4,0.8,6c0,3.7,0,7.4-1.1,10.9c-2.1,7-10,11.9-17.3,12.6"/>
	<path class="st2" d="M315.6,295c5,3.5,9,8.7,9.7,14.8c0.7,6-2.8,12.7-8.7,14.3c-5,1.4-11.5-0.5-14.8,3.5c-1.9,2.4-1.7,5.7-1.4,8.7
		c0.8,7.9,1.6,15.7,2.3,23.6c0.1,1.5,0.3,3-0.4,4.3c-0.9,1.9-3.1,2.7-5.1,3.4c-7.5,2.5-16.6,4.7-22.5-0.5c-4.7-4.2-5-11.3-7.1-17.2
		c-4.1-11.9-14.3-18.9-26.8-17.8"/>
	<path class="st2" d="M163.3,340.8c0.9-14.4,7.7-20.1,12.2-29.8c3.2-6.8,7.5-14.4,14.9-15.4c8.4-1.1,15.4,7.8,15.4,16.3
		c0,6.2-2.2,13.4,1.9,18c2.1,2.4,5.4,3.3,8.5,4.1c8.4,2.2,18.5,4.1,24.8-2c2.7-2.6,4.1-6.3,5-9.9c3.7-14.1,1.4-29.7-6.1-42.2
		c-3.2-5.4-7.5-10.5-8.7-16.7c-1.6-8.4,3.7-17.6,11.8-20.4c8.1-2.8,17.1,1.9,23.6,9.1"/>
	<path class="st1" d="M260.1,244.8c2.4-3.6,6.1-4.6,5.7-8.8c-0.3-4-3.1-7.4-4.1-11.2c-1-3.9-0.2-8.2,2.3-11.4
		c2.5-3.3,6.9-5.4,11-4.7c4.2,0.6,7.8,4.1,8.3,8.3c2.4-4.8,5.7-9.5,10.8-11.1c5.1-1.6,11.8,1.8,11.6,7.1"/>
	<path class="st1" d="M246.4,249c-8.6,3.6-5.1,18.3-4.6,27.5c0.2,4.1,2.1,6.8,4.6,10.1c2.7,3.5,5.7,6.7,9.9,7.9
		c6.3,1.9,9.5,2.5,15.8,4.4c6.3,3.7,3.2,10.1,0.5,13.5c-2.8,3.4-6.6,5.7-10.3,8c-6.4,3.9-12.9,7.7-19.3,11.6"/>
	<path class="st2" d="M193.5,292.8c5.9,0.1,11.7-2.6,15.5-7.2c2-2.4,4-5.6,7.1-5.3c1.8,0.1,3.2,1.4,4.5,2.6
		c3.6,3.5,7.2,7.1,11.5,9.8c4.3,2.6,9.5,4.2,14.4,3.2"/>
	<path class="st1" d="M190,409c0.6,6.9-0.7,10.6-4.4,16.5c-2.3,1.8-6.2,3.4-9.1,3.5"/>
	<path class="st1" d="M251.5,407c-2.2,4.3-3.3,9.2-3.1,14"/>
</g>
<path class="st1" d="M618.4,138.3c0.1-8.1,3.2-16.1,3.5-24.2c0.1-4.3,0.3-8.8,2.3-12.5c0.5-0.9,1.1-1.7,2-2.1
	c0.7-0.3,1.5-0.2,2.3-0.1c12.3,1.6,24,7.4,32.7,16.1c3.3,3.2,6.2,7,10.3,9.1c4.8,2.5,10.6,2.5,16.1,2.4c1.1,0,2.3-0.1,3-1
	c0.5-0.6,0.5-1.5,0.5-2.3c0-3.1,0-6.3-0.1-9.4"/>
<path class="st1" d="M602.8,57.1c0.7,4.6,1,10.2-2.8,12.9c-1.2,0.9-2.6,1.3-4,1.6c-5,1.1-10.1,0.9-15.2,1.4s-10.3,2-13.8,5.8
	c-3.4,3.7-4.5,8.9-4.8,13.9c-0.1,1.9-0.1,3.8,0.6,5.5c0.9,2.2,2.9,3.7,4.7,5.3c4.5,4,8.5,9.4,8.5,15.4"/>
<path class="st1" d="M614.9,176.8c0.5,12,4.1,26.3,14.9,31.7c2.3,1.1,4.7,1.7,7.3,2.1c9.9,1.2,20.3-2.5,27.2-9.6
	c4.4-4.5,8.4-10.9,14.7-11c3.3,0,6.3,1.8,8.8,3.9c7.3,6.3,11.2,15.9,12.2,25.5c0.5,5.3,0.3,10.9,2.2,15.9
	c3.9,10.4,15.7,15.3,26.4,18c1.5,0.4,3.1,0.7,4.4,0.1c1.5-0.7,2.2-2.4,2.7-3.9c8-22.6,2-51.4,26.7-65.4c10.8-6.1,24.7-6.4,35.8-0.7
	c2.8,1.4,5.4,3.2,7.3,5.7c2,2.6,3,5.9,4,9c2.3,7.1,4.5,14.3,6.8,21.4c2,6.4,4.1,12.8,7.9,18.3c3.8,5.5,9.7,9.9,16.3,10.4
	c10.1,0.7,19.4-9.7,17.6-19.7"/>
<path class="st1" d="M726.3,252.7c1.8,7.8-2,17.1-6.2,23.9s-11,11.9-18.8,13.8c-4.9,1.2-9.9,1.3-14.9,1.9c-2.7,0.4-5.7,1.2-7,3.6
	c-0.8,1.5-0.7,3.4-0.7,5.1c-0.1,4.8-1.4,8.3-4.1,12.3"/>
<path class="st1" d="M736.9,247.1c1.7,2,5,1.6,7.2,0.2s3.8-3.6,5.8-5.2c5.2-4.1,12.5-4,19.1-3.3c4.9,0.5,10.7,2.1,12,6.7
	c1.1,3.6-1.1,7.3-2.9,10.7c-4.2,7.9-6.6,16.9-6.8,25.9c-0.2,6.9,1.1,14.2,6,19.1c4.9,4.9,12.5,6.2,19.4,6.1c7-0.1,14-1.3,20.9-0.2
	l3.8,0.1c5.9-0.7,12.5-1.3,17.4,2.2c3.7,2.7,5.6,7.3,6,11.8s-0.7,9.1-1.9,13.5c-0.6,2.3-1.3,4.7-1.2,7.1c0.3,5,6.2,8.8,6.9,13.8"/>
<path class="st1" d="M885.4,284.6c-2.8,3.3-8.4,9.9-11.9,12.3c-3.5,2.4-7,5.3-8.7,9.3c-1.6,4-0.8,9.2,2.8,11.5
	c2.5,1.6,5.7,1.4,8.6,1.6c4.9,0.3,9.8,1.8,14.1,4.3c0,0,5.7,1.5,9.2,1.3s7.8,0.3,9.2,3.5c0.7,1.6,0.3,3.6,1.1,5.2
	c1.3,2.5,4.7,3,7.5,2.8c6.6-0.4,14.1-1.9,18.9,2.6c4.6,4.4,3.7,11.8,2.4,18c1,0.9,2.4,1.3,3.7,1"/>
<path class="st1" d="M718.9,356.4c-3.5-5-3.6-11.7-1.7-17.5c1.9-5.8,5.6-10.7,9.6-15.3c2.9-3.4,6.8-7,11.2-6c4,0.9,6.3,5.7,5.1,9.6
	s-5,6.6-9,7.3c-0.6,0.1-1.3,0.2-1.9-0.1c-0.8-0.4-1.2-1.4-1.3-2.2c-0.7-4.1,1.4-8.2,4-11.5c2.6-3.3,5.6-6.3,7.4-10.1
	c2-4.5,2.4-10.3,6.8-12.6c1.9-1,4.2-1,6.3-1c6-0.1,12-1.1,17.8-2.8"/>
<path class="st1" d="M671.8,125c2.3,4,6.1,7,9.1,10.4c3.1,3.4,5.6,8,4.6,12.5c-1.2,5-6.2,8-10.3,11c-1.5,1.1-3.1,2.5-3.5,4.4
	c-1,4.2,4.2,7.1,8.5,7.9c13.6,2.4,28.1-1.4,38.8-10.2c1.1-0.9,2.3-1.9,3.7-1.9c0.8,0,1.6,0.3,2.2,0.8c2.7,1.9,3.4,5.6,4.7,8.7
	c1.3,3.1,4.5,6.2,7.6,4.8c1.3-0.6,2.2-1.8,2.9-3c4.3-7.1,5.7-18.2,4.4-26.4"/>
</svg>
