<?xml version="1.0" encoding="utf-8"?>
<!-- Generator: Adobe Illustrator 22.0.1, SVG Export Plug-In . SVG Version: 6.00 Build 0)  -->
<svg version="1.1" id="Layer_1" xmlns="http://www.w3.org/2000/svg" xmlns:xlink="http://www.w3.org/1999/xlink" x="0px" y="0px"
	 viewBox="0 0 121.3 76.5" style="enable-background:new 0 0 121.3 76.5;" xml:space="preserve">
<style type="text/css">
	.st0{fill:none;stroke:#000000;stroke-width:0.25;stroke-linecap:round;stroke-linejoin:round;stroke-miterlimit:10;}
	.st1{fill:none;stroke:#010101;stroke-miterlimit:10;}
	.st2{fill:#010101;}
	.st3{fill:none;stroke:#010101;stroke-linecap:round;stroke-linejoin:round;stroke-miterlimit:10;}
	.st4{fill:#FFFFFF;}
	.st5{fill:none;stroke:#FFFFFF;stroke-linecap:round;stroke-linejoin:round;stroke-miterlimit:10;}
	.st6{fill:#FFFFFF;stroke:#000000;stroke-width:0.5;stroke-linecap:round;stroke-linejoin:round;stroke-miterlimit:10;}
	.st7{fill:none;stroke:#000000;stroke-width:0.5;stroke-linecap:round;stroke-linejoin:round;stroke-miterlimit:10;}
	.st8{fill:none;stroke:#000000;stroke-width:0.75;stroke-linecap:round;stroke-linejoin:round;stroke-miterlimit:10;}
</style>
<path class="st0" d="M27.6,38.9c0,0-0.5,0.5-0.5,1.1"/>
<path class="st0" d="M32,39.4c0,0,0.1,1.1,0,1.5"/>
<path class="st0" d="M25.6,35.4c0,0-0.7,0.3-0.7,0.8"/>
<path class="st1" d="M6.7,29.2c0,0,5.8,0.3,18.2,1.3s19.9-0.5,25,0s21.9,0.3,27.3,1.6s9.8,1.7,15.3,2.2c5.4,0.5,9.9-0.5,12.8,0.6
	s9.4,2.7,10.5,2.8"/>
<path class="st2" d="M31.6,37c0.3,0.1,1.4,2.5,0.6,2.8C31.4,40,30,38.3,30,37.7c0-0.7-0.9,1.8-2.1,1.5s-0.4-2,0.3-2.9
	c-1.8,0-2.7-0.1-2.7-1.1c0-1.1,2.1-1.1,2.4-0.7c0.3,0.4,1.6-3.9,3.5-5.2c1.9-1.4,5.9-3.9,9.7-4s5.4,0,5.4,0s1-5.3,2.5-7
	s3.6-3.5,3.6-3.5S52.7,8,53.8,6c0.5-0.9,0.6-1.6,2.9-1c1.5,0.4,4.1,3.7,4.7,5.9c0.2,0.6,0.2,1.7,0.2,1.7s6.5-0.3,9.3,0.5
	c1.1-2.2,5.4-8.2,8.2-7.5s2.2,4.8,2,6.9s-1.2,4.8-1.2,4.8s4.9,6.2,5.2,6.3c0.3,0.1,5.9,9.6,6.2,10.7c0.2,1.1-8.3-1-8.3-1l-31.2-1.5
	l-6.5-0.2c0,0-6.5,0.7-10.1,2.7C31.7,36.4,31.6,37,31.6,37z"/>
<path class="st3" d="M23.1,39.6c0,0-2.5,0.3-2.5,1.5"/>
<path class="st3" d="M22.7,38.1c0,0-1.7,0-3.2,0.7"/>
<path class="st3" d="M27.4,42c0,0-0.7,1.4-0.7,2.8"/>
<path class="st3" d="M33.6,44c0,0,0.5,0.8,0.8,1.6"/>
<line class="st3" x1="46.3" y1="16" x2="49" y2="16.8"/>
<line class="st3" x1="47.6" y1="13" x2="50.6" y2="15.4"/>
<path class="st3" d="M42.3,22.1c0,0,1.3,0.2,1.9,0.3s0.8,0.4,0.8,0.4"/>
<path class="st4" d="M50,19c0,0-2.3,2.7-1.1,4.6s3,2.1,5,0.6c2.1-1.5,2.7-4.4,0.6-6.3C52.3,16.1,50,19,50,19z"/>
<path class="st4" d="M63.7,18.5c0,0-2.4,1.2-2.3,3.6c0.1,1.6,0.7,3.7,3.1,4c2.4,0.2,4.7-0.4,5-1.9s0.4-5.1-1.7-5.7
	C65.7,18,64.6,18.1,63.7,18.5z"/>
<ellipse class="st2" cx="63.7" cy="22.9" rx="0.3" ry="1.2"/>
<ellipse class="st2" cx="51.9" cy="22.1" rx="0.3" ry="1.2"/>
<g>
	<path class="st5" d="M54.8,28c0,0,1.6,1.4,3.1,0"/>
	<path class="st5" d="M56.3,28.6c0,0-1.5,2.1,1.2,2.7"/>
</g>
<path class="st4" d="M79.6,6.8c-0.5-0.8-2.5-0.2-3.4,1.1c-0.8,1.2-2.2,2.7-2.8,4.2c-1,2.4,1.5,4.1,5.3,4.8
	C80,14.3,81.5,9.1,79.6,6.8z"/>
<path class="st3" d="M76,11c0,0-1.1-0.4-1.5,0.5"/>
<g>
	<g>
		<path class="st6" d="M13.7,47.8c-0.3-0.8-0.8-1.6-1.5-2.1c-1-0.8-2.5-0.8-3.6-0.2C8,45.8,7.5,46.4,7,46.9
			c-0.7,0.9-1.5,1.8-1.8,2.9c-0.1,0.5-0.1,1.1-0.1,1.6c0,0.5,0,1.1,0.2,1.6c0.2,0.5,0.5,1,0.9,1.4c0.5,0.5,1.2,1,1.9,0.9
			c0.3,0,0.5-0.2,0.8-0.3c0.8-0.4,1.7-0.8,2.5-1.2c0.2-0.1,0.3-0.2,0.4-0.3c0.2-0.2,0.3-0.4,0.4-0.7c0.2-0.5,0.5-0.9,0.9-1.3
			c0.3-0.3,0.8-0.7,0.9-1.2C14.3,49.7,14,48.5,13.7,47.8z"/>
		<path class="st6" d="M30.8,62.2c-0.7,1.5-1.3,3-2,4.6c-0.5,1.2-1,2.4-1.6,3.6c-0.1,0.1-0.1,0.3,0,0.4c0.1,0.1,0.2,0.2,0.3,0.2
			c4.6,1.5,9.4,3,14.3,2.6c0.6,0,1.1-0.1,1.7-0.3c0.6-0.2,1.2-0.6,1.8-1c1.8-1.4,3.1-3.5,3.1-5.7c0-1.4-0.5-2.7-1.3-3.8
			s-1.7-2.1-2.6-3.1c-0.4-0.4-0.8-0.8-1.3-1.2c-0.9-0.7-1.8-1.2-2.8-1.8c-0.9-0.5-1.8-1-2.8-1.5c-0.5-0.2-0.9-0.5-1.4-0.7
			c-0.4-0.2-0.9-0.6-1.4-0.7c-0.6,0-1,1.7-1.3,2.2c-0.4,1-0.9,2-1.3,2.9C31.7,60.1,31.3,61.1,30.8,62.2z"/>
		<path class="st7" d="M40.1,66c0,0.9-0.2,1.9-0.9,2.6c-0.8,0.8-2.1,0.8-3.3,0.7c-0.5-0.1-0.9-0.1-1.3-0.3c-0.7-0.3-1.2-1-1.3-1.7
			c-0.2-0.7,0-1.5,0.4-2.1c0.4-0.6,1-1,1.7-1.4c0.4-0.2,0.9-0.5,1.4-0.5c0.8-0.1,1.7,0.3,2.3,0.9C39.5,64.7,40.1,65.2,40.1,66z"/>
		<path d="M36.7,66c0.3,0.1,0.6,0.3,0.7,0.5c0.1,0.2,0,0.5-0.2,0.6c-0.3,0.2-0.7,0.1-0.9-0.1c-0.1,0-0.1-0.1-0.2-0.1
			c0,0,0-0.1,0-0.1c0-0.3,0.2-0.5,0.4-0.6s0.6,0,0.7,0.2"/>
		<path class="st6" d="M28.6,51.8c-2.4-0.6-4.9-1.3-7.4-1.4c-2.5-0.2-5,0.1-7.5,0.3c-0.5,0.1-1.1,0.1-1.5,0.5
			c-0.5,0.4-0.7,1-0.6,1.6c0,0.6,0.3,1.2,0.5,1.7c1,2.2,2.4,4.2,3.8,6.3c1.1,1.6,2.3,3.3,3.6,4.7c2.1,2.3,4.7,4.1,7.5,5.4
			c0-1.1,0.9-2.1,1.4-3.1c0.4-0.8,0.6-1.6,0.9-2.4c1.1-3.2,3-6.1,4.1-9.3c0.2-0.5,0.3-1.1,0.6-1.5c0.3-0.6,0.4-0.7-0.3-1
			c-0.6-0.3-1.2-0.5-1.8-0.7C30.9,52.4,29.8,52.1,28.6,51.8z"/>
		<path class="st6" d="M19.8,48.7c-0.2-0.2-0.4-0.3-0.6-0.4c-0.2-0.1-0.4,0-0.7,0c-0.1,0-0.2,0-0.2,0.1c-0.1,0.1-0.1,0.1-0.2,0.2
			c-0.2,0.3-0.3,0.5-0.3,0.8c0,0.4,0.3,0.7,0.7,0.9c0.4,0.2,1.8,0.4,2.2,0C21.2,49.8,20.1,49,19.8,48.7z"/>
		<path class="st6" d="M30.8,51.2c-0.4-0.4-0.8-0.6-1.2-1c-0.2-0.2-0.3-0.3-0.5-0.5s-0.4-0.2-0.6-0.1c-0.1,0.1-0.2,0.2-0.3,0.3
			c-0.3,0.3-0.4,0.7-0.3,1.1c0.1,0.5,0.6,0.7,1.1,0.9c0.6,0.2,1.6,0.7,2.2,0.7C31.9,52.4,31.1,51.4,30.8,51.2z"/>
		<path class="st6" d="M16.5,64.8c-0.6,0-1.3-0.2-1.9-0.4c-0.8-0.3-1.6-0.6-2.3-0.9c-0.3-0.2-0.7-0.4-0.9-0.7
			c-0.1-0.1-0.1-0.2-0.1-0.4c0-0.1,0.1-0.2,0.1-0.4c0.6-1,1.7-1.8,2.8-2.1c0.4-0.1,0.9-0.2,1.2,0.1c0.1,0.1,0.2,0.2,0.2,0.4
			c0.5,1,1.2,1.8,1.9,2.7c0.3,0.3,0.7,0.8,0.4,1.2C17.7,64.7,17,64.8,16.5,64.8z"/>
		<path class="st6" d="M10.4,57.5c-0.1-0.1-0.3-0.2-0.4-0.3c-0.1-0.3-0.1-0.6,0.1-0.9c0.2-0.4,0.6-0.8,1.1-1s1-0.2,1.4,0
			c0.1,0,0.3,0.2,0.2,0.1c-0.2-0.1,0.1,0.1,0.1,0.2c0.2,0.5,1.2,1.9,0.4,2.2C12.5,58.2,11.1,58,10.4,57.5z"/>
		<path class="st7" d="M32.2,56.7c-0.7-0.1-1.5,0.1-1.9,0.7c0,0.1-0.1,0.1-0.1,0.2c0,0.1,0,0.2,0,0.3c0.1,0.3,0.1,0.5,0.2,0.7
			c0.1,0.2,0.3,0.4,0.5,0.5"/>
		<path class="st7" d="M27,57.9c-0.4-0.2-0.8-0.7-0.9-1.1c0-0.1-0.1-0.2-0.1-0.3c0-0.1,0.1-0.2,0.1-0.3c0.2-0.3,0.4-0.5,0.7-0.7
			c0.5-0.2,1.3-0.4,1.7,0.1c0.4,0.5,0.5,1.1,1.2,1.3"/>
		<path class="st7" d="M25.6,55.6c-0.3,0-0.6-0.1-0.9,0c-0.3,0-0.6,0.1-0.8,0.3c-0.2,0.1-0.3,0.3-0.4,0.5c-0.2,0.4-0.3,0.8-0.2,1.3
			c0.1,0.4,0.4,0.8,0.8,1"/>
		<path class="st7" d="M26.2,51.8c-0.4-0.1-0.9,0.1-1.2,0.5c-0.2,0.3-0.3,0.7-0.2,1.1s0.2,0.7,0.4,1c0.1,0.2,0.3,0.4,0.5,0.5
			c0.2,0.1,0.5,0.2,0.7,0.3"/>
		<path class="st7" d="M30.8,53.8c-0.3,0.1-0.7,0.2-1.1,0.3c-0.2,0-0.3,0.1-0.5,0.1c-0.3,0-0.5-0.1-0.7-0.3
			c-0.3-0.1-0.6-0.3-0.7-0.6s-0.2-0.7,0.1-0.8"/>
		<path class="st7" d="M32,53.3c-0.1,0.3-0.4,0.6-0.6,0.9c-0.3,0.6-0.1,1.3,0.4,1.7"/>
		<path class="st7" d="M24,52.3c-0.2-0.2-0.5-0.1-0.7-0.1c-0.4,0.1-0.7,0.2-1,0.5c-0.3,0.3-0.5,0.6-0.5,1c0,0.5,0.3,0.9,0.7,1.2
			c0.3,0.3,0.6,0.7,1,0.8"/>
		<path class="st7" d="M21.4,53.1c-0.3,0-0.6,0-0.9,0.1c-0.2,0.1-0.5,0.2-0.6,0.4c-0.2,0.3-0.1,0.7,0,1c0.2,0.5,0.5,1,0.9,1.4"/>
		<path class="st7" d="M22.3,56.1c-0.3,0.1-0.6,0.3-0.9,0.5c-0.3,0.2-0.5,0.5-0.5,0.9c0,0.3,0.2,0.6,0.3,0.9
			c0.1,0.2,0.2,0.5,0.3,0.7c0.3,0.4,0.9,0.6,1.4,0.7"/>
		<path class="st7" d="M23.8,59.8c-0.4-0.1-0.8,0.2-1,0.6c-0.2,0.4-0.1,0.8,0.1,1.2c0.2,0.4,0.5,0.7,0.9,0.9"/>
		<path class="st7" d="M24.9,62.1c-0.4,0.2-0.6,0.5-0.7,0.9c-0.1,0.4,0.1,0.8,0.4,1.1c0.2,0.2,0.6,0.3,0.9,0.5"/>
		<path class="st7" d="M28.4,64.1c-0.4,0.4-0.7,0.8-0.7,1.3c0,0.3,0.2,0.5,0.4,0.7"/>
		<path class="st7" d="M26.6,64.5c-0.4,0-0.7,0.1-1,0.3c-0.3,0.3-0.4,0.8-0.2,1.2s0.4,0.7,0.8,0.9"/>
		<path class="st7" d="M27.5,66.8c-0.2,0-0.5,0.1-0.6,0.3c-0.2,0.2-0.3,0.4-0.4,0.6c-0.1,0.2-0.2,0.4-0.2,0.6c0,0.3,0.2,0.6,0.4,0.9
			"/>
		<path class="st7" d="M21.2,59.7c-0.2,0.3-0.6,0.6-0.9,0.9C20,61,19.9,61.5,20,62s0.5,0.9,0.9,1.1"/>
		<path class="st7" d="M22.6,62.6c-0.2,0-0.4,0-0.6,0.1c-0.2,0-0.3,0.1-0.5,0.2c-0.2,0.2-0.3,0.5-0.3,0.8c0,0.3,0,0.6,0.1,0.9
			c0.1,0.3,0.4,0.5,0.7,0.6"/>
		<path class="st7" d="M23.8,65.1c-0.3,0-0.7,0-1,0.2c-0.1,0.1-0.2,0.2-0.3,0.4c-0.3,0.7,0,1.6,0.6,2.1"/>
		<path class="st7" d="M25.2,67.7c-0.3-0.1-0.6,0-0.8,0.3c-0.2,0.2-0.3,0.6-0.4,0.9"/>
		<path class="st7" d="M20.3,56.5c-0.2,0.1-0.4,0.2-0.6,0.3c-0.3,0.2-0.6,0.4-0.8,0.7c-0.2,0.4-0.2,1,0.1,1.5c0.2,0.4,0.5,0.7,0.8,1
			"/>
		<path class="st7" d="M19.2,53c-0.4-0.1-0.8-0.1-1.1,0.1c-0.4,0.2-0.7,0.5-0.8,0.8c-0.1,0.3,0,0.6,0,0.8c0.2,0.7,0.5,1.5,1.2,1.8"
			/>
		<path class="st7" d="M19.5,51c-0.2,0.5,0,1.2,0.4,1.5c0.1,0.1,0.2,0.1,0.3,0.1c0.1,0,0.3,0,0.4-0.1c0.2-0.1,0.4-0.2,0.6-0.3"/>
		<path class="st7" d="M17.2,51c-0.2,0.3-0.3,0.7-0.4,1.1c0,0.1,0,0.2,0,0.3c0.1,0.3,0.4,0.4,0.6,0.5"/>
		<path class="st7" d="M15,51.9c-0.2,0.2-0.4,0.5-0.4,0.7c0,0.3,0.2,0.5,0.4,0.6c0.2,0.2,0.5,0.4,0.9,0.4"/>
		<path class="st7" d="M16.5,53.7c-0.2,0-0.5,0-0.7,0.1c-0.2,0-0.4,0.1-0.6,0.2s-0.4,0.3-0.4,0.5c0,0.2,0,0.4,0.1,0.6
			c0.2,0.3,0.4,0.6,0.7,0.9c0.2,0.2,0.4,0.4,0.6,0.7"/>
		<path class="st7" d="M17.3,56.9c-0.2,0.1-0.4,0.2-0.5,0.4c-0.3,0.2-0.6,0.4-0.7,0.7c0,0.2,0,0.3,0,0.5c0,0.2,0.1,0.4,0.2,0.6
			c0.3,0.5,0.9,0.8,1.3,1.2"/>
		<path class="st7" d="M18.6,60.5c-0.4,0-0.8,0.4-0.9,0.8c-0.1,0.4,0.1,0.9,0.4,1.2c0.3,0.3,0.7,0.5,1.1,0.6"/>
		<path class="st7" d="M19.8,63.3c-0.3-0.1-0.6,0.1-0.7,0.3c-0.2,0.2-0.2,0.6,0,0.8"/>
		<path class="st7" d="M15.5,57.1c-0.3,0-0.6-0.1-0.8-0.1c-0.2,0-0.3,0-0.4,0.2"/>
		<path class="st7" d="M10.3,47.6c0.2,1.2,1,2.3,1.9,2.9"/>
		<path class="st7" d="M9,49.5c0.7,0.6,1.4,1,2.3,1.4"/>
		<path class="st7" d="M10.9,52.2c-1-0.3-2.1-0.1-2.9,0.5"/>
		<path class="st7" d="M29.1,50.9c0.3,0.4,0.7,0.8,1.1,1.1"/>
		<path class="st7" d="M30.2,51.2c0,0.2,0.1,0.4,0.3,0.6"/>
		<path class="st7" d="M19.3,48.9c0.2,0.3,0.4,0.6,0.7,0.8"/>
		<path class="st7" d="M18.9,49.4c0.2,0.2,0.5,0.4,0.8,0.6c0,0-0.1,0-0.1-0.1"/>
		<path class="st7" d="M13.1,57.2c-0.3,0.3-0.7,0.4-1.1,0.3"/>
		<path class="st7" d="M12.9,56.9c-0.5,0-1-0.2-1.4-0.4"/>
		<path class="st7" d="M12.1,56c-0.2,0-0.4,0-0.7,0.1"/>
		<path class="st7" d="M17.5,63.5c-0.3,0.2-0.6,0.3-0.9,0.3c-0.5,0-1-0.1-1.5-0.3"/>
		<path class="st7" d="M16.3,62.7c-0.8,0-1.7,0.1-2.5,0.2"/>
		<path class="st7" d="M15.8,61.4c-0.4-0.2-1-0.2-1.4,0"/>
		<g>
			<path class="st7" d="M26.8,58.3c-0.7,0.1-1.5,0.4-1.8,1c-0.4,0.7-0.1,1.6,0.4,2.3c1,1.3,2.7,1.7,4.2,1.8c0.1,0,0.2,0,0.4,0
				c0.2-0.1,0.3-0.2,0.4-0.4c0.4-0.6,0.6-1.3,0.7-2c0.1-0.7-0.1-1-0.6-1.5C29.4,58.6,28.1,58.2,26.8,58.3z"/>
			<path class="st7" d="M30.7,61.3c-0.6-0.9-1.5-1.5-2.5-1.8"/>
			<path class="st7" d="M30.4,61.8c-0.5-0.3-1-0.5-1.6-0.7"/>
			<path class="st7" d="M30.1,62.6c-0.9,0.1-1.7-0.2-2.5-0.6"/>
		</g>
	</g>
	<path class="st8" d="M2.7,51.7c-0.8,1.1-0.4,2.8,0.8,3.5"/>
	<path class="st8" d="M0.6,54.3c0.1,1,0.9,1.9,1.9,2.1"/>
	<path class="st8" d="M51.5,64.4c0.5,1,1,2.1,1,3.2c0.1,1.1-0.3,2.4-1.3,3"/>
	<path class="st8" d="M54,68.2c0,1.5-0.7,2.9-1.9,3.8"/>
	<path class="st8" d="M7.1,43.9c1.2-1.6,3.8-2,5.4-0.8"/>
	<path class="st8" d="M5,41.7c0.7-1.1,2.2-1.7,3.5-1.4"/>
	<path class="st8" d="M12.9,67.3c0.9,0.6,1.9,0.9,3,0.9"/>
	<path class="st8" d="M13.2,69.3c1.1,0.4,2.2,0.5,3.3,0.2"/>
</g>
</svg>
