<?xml version="1.0" encoding="utf-8"?>
<!-- Generator: Adobe Illustrator 22.0.1, SVG Export Plug-In . SVG Version: 6.00 Build 0)  -->
<svg version="1.1" id="Layer_1" xmlns="http://www.w3.org/2000/svg" xmlns:xlink="http://www.w3.org/1999/xlink" x="0px" y="0px"
	 viewBox="0 0 440 200" style="enable-background:new 0 0 440 200;" xml:space="preserve">
<style type="text/css">
	.st0{fill:none;stroke:#FFFFFF;stroke-linecap:round;stroke-linejoin:round;stroke-miterlimit:10;}
	.st1{fill:none;stroke:#000000;stroke-linecap:round;stroke-linejoin:round;stroke-miterlimit:10;}
	.st2{fill:#FFFFFF;}
	.st3{fill:none;stroke:#FFFFFF;stroke-miterlimit:10;}
	.st4{fill:#FFFFFF;stroke:#000000;stroke-miterlimit:10;}
</style>
<g>
	<path d="M115.5,87.1c1.4-0.9,2.9-1.7,4.6-1.6c1.7,0.2,3.1,1.6,4.2,3c2.3,3,4,6.6,4.9,10.3c4.3,0,8.6,0,12.9,0c1-3.5,2.1-7,4.2-9.9
		c2.1-2.9,8.3-5,12.6-3.8c-0.4-10.9-0.4-18-1.9-27.2c-0.2-1.3-4-2.4-2.5-5.7c1-2.2,5.1-1.7,5.6-0.5c0.3-1.5,1.3-5.4,5.7-5
		c1.9,0.2,3.6,2.4,3.1,4.2c1.7-1.7,4.7-1.7,6.4,0c1.7,1.7,1.6,4.8-0.2,6.4c-0.5,0.5-1.1,0.8-1.4,1.4c-0.3,0.7,3.6,26.8,5.1,38.9
		c17.9-8.2,40-13.4,59.7-14.5c20.4-1.1,42.5,3.2,56.4,18.1c4.9,5.2,9.7,11.3,14.1,15.9c14.9,1.8,22.2,0.8,33,1.1
		c15,0.4,28.8,8,41.1,16.4c12.4,8.4,13.9,12.9,27.7,18.7c3.8,1.6,14.2,6.7,17.2,9.5s5.1,7.1,3,10.6c-2,3.4-7.9,4.6-11.9,4.5
		c-18.2-0.1-29.3-10.2-44.2-20.8s-32-21.2-50-18.3c9.4,9.6,21.5,17.6,34.9,18.7c2.5,0.2,5.3,0.3,7,2.1s0.7,5.8-1.8,5.4
		c2.2,0.1,4,2.5,3.4,4.6c-0.6,2.1-3.4,3.3-5.3,2.2c1.9,0.7-0.6,3.2-2.6,3.3c-4.2,0.2-8.5,0.4-12.7,0.6c-11.6,0.5-23.2,0.7-34.8,0.9
		c-32.4,0.7-65.5,4.3-97.6-0.7c-11-1.7-25.3-5.5-36.4-4.5c-6,0.5-8.4,0.5-14.3,1.4c-12.7,2-26.7,3.9-39.5,2.6
		c-13.1-1.3-27.5-7.7-32-20.1c-4.7-12.7-2.9-27.8,6.7-37.4c1.6-1.6,3.5-3.3,5.1-4.8c-2.9-3.6-5.1-7.7-6.8-12
		c-5.2-14-3-29.5-4.6-44.3c-2,0.3-3.8-2.2-2.9-4s3.8-2.2,5.2-0.7c-0.9-2.4,0.9-5.4,3.5-5.6c2.5-0.2,4.9,2.3,4.5,4.8
		c1.8-1,4.3-1.1,5.8,0.3s1.5,4.3-0.3,5.3c-0.4,0.2-0.9,0.3-1.2,0.7c-0.3,0.3-0.3,0.8-0.3,1.2c0.1,2.6,0.9,5.1,1.7,7.5
		C111.9,73.3,113.2,80.2,115.5,87.1z"/>
	<path class="st0" d="M157.2,81.5c1.9,10.8,3,24.8,2.1,35.7"/>
	<path class="st1" d="M179,98.5c-0.3,2.9,0.4,5.9,0.9,8.8c0.9,4.7,1.5,9.4,1.8,14.1"/>
	<path class="st2" d="M158,107.4c-2.1,0-4.2,0-6.2-0.5s-4.1-1.1-4.7-3.1c-0.7-2.4,0-6.4,1.2-8.6c0.5-0.9,3.5-5,4.7-5.9
		c1.2-0.9,3.2-1.7,4.6,0.1c0,0,2.3,15.4,2,17.1C159.4,108.2,158,107.4,158,107.4z"/>
	<path class="st3" d="M115.6,85.5c-1.5,1.3-2.8,6.1-2.9,8.1c-0.2,1.7-1.6,8.9,1.6,12.9"/>
	<path class="st2" d="M125.7,101.3c-0.8-3-1.8-5.9-3-8.7c-0.3-0.8-1-1.7-1.9-2.6c-1-0.9-2.6-2-4.1-0.4c0,0-1.6,2.4-1.8,4.5
		c-0.2,2.2-0.1,9.7,1,10.3C117,105.2,125.7,101.3,125.7,101.3z"/>
	<path class="st1" d="M56.6,152.3"/>
	<path class="st1" d="M58.1,154.6"/>
	<path class="st1" d="M60.7,153"/>
	<path class="st4" d="M62.1,151.1c7.6,0.9,15.2-0.1,22.7-1c4.4-0.5,8.7-1.1,13.1-1.6c0,0,2.4-0.5,3.6,0c1.2,0.5,1.9,2.2,1,3.1
		c-0.4,0.4-1,0.6-1.5,0.7c-14.2,3.7-28.6,7.4-43.2,6.8c-1,0-2.1-0.1-3-0.7c-2.2-1.3-2.3-4.3-2.1-6.9c0.1-1,0.3-2.2,1.1-2.8
		c0.5-0.3,1.1-0.4,1.6-0.5c0.8-0.1,1.7-0.2,2.5-0.3c0.4-0.1,0.9-0.1,1.3,0c0.8,0.3,1.4,1.8,1.6,2.6L62.1,151.1z"/>
	<path class="st0" d="M100.3,142.3c0.3,1.1,1.2,1.6,2.3,1.8c1.1,0.2,2.3-0.3,3-1.2"/>
	<path class="st0" d="M102.1,144.2c-0.2,1.5-0.2,1.3-0.1,2.8"/>
	<path class="st0" d="M115.7,134.9c2.7,2.2,17.9,0.7,26.2,0.8"/>
	<path class="st0" d="M103.4,134.9c-0.3,0.4-2.6,1-3.1,1c-3.3,0-5.4,0-8.7,0"/>
	<path class="st0" d="M116.1,138.1c1.9,2,4.2,3.6,6.7,4.7"/>
	<path class="st0" d="M100.3,138.2c-1,1.9-2.6,3.4-4.5,4.3"/>
	<path class="st0" d="M311.9,124.6c4.2,4.8,11.3,12.4,16.2,15.4"/>
	<path class="st1" d="M133.1,184.8c-0.9,0.5-1.8,1.5-1.6,2.5c0.2,1.1,1.6,1.5,2.7,1.7c2.5,0.3,5,0.4,7.4,0.3c0-1.2,0-2.4-0.5-3.4
		C140.7,184.8,135,183.6,133.1,184.8z"/>
	<path class="st1" d="M154.5,182.8c-1.3-0.2-3,0.2-4.2,0.8c-1.2,0.6-1.9,2.3-1,3.3c0.6,0.7,1.6,0.8,2.5,0.8c2.7,0.1,7.2,0,6.7-2.4
		C158.5,182.8,154.5,182.8,154.5,182.8z"/>
	<path class="st1" d="M100.3,183c-0.5,0.5-1,1.3-0.6,1.9c0.3,0.6,1.1,0.7,1.8,0.7c2.4,0,4.8,0,7.3,0c0.3,0,0.6,0,0.8-0.2
		c0.4-0.3,0.4-0.9,0.2-1.4c-0.6-1.6-2.3-2.6-4-2.5C105.7,181.5,101.8,181.7,100.3,183z"/>
	<path class="st1" d="M55.2,175c-0.3,0.5-0.6,1.1-0.3,1.6c0.2,0.3,0.5,0.4,0.9,0.6c2.9,1.1,6,1.5,9.1,1.4c0.2,0,0.4,0,0.5-0.1
		c0.5-0.3,0.3-1.1-0.1-1.7c-1.5-2.1-4.1-3.4-6.7-3.3C58.6,173.4,56.2,173.7,55.2,175z"/>
	<path class="st1" d="M12.1,170.1c-1,0-2.1,0.4-2.9,0.9c-0.8,0.5-1.3,1.7-0.6,2.4c1.8,2,4.2,2.1,6.9,2c3.1-0.2,2.5-3.4,1.9-3.9
		C16.7,171.1,14.7,170.1,12.1,170.1z"/>
	<path class="st1" d="M62.2,52.7c-0.8,3.4,5.5,5,7.9,2.8c1.2-1,2-2.8,1.2-4.2c-0.4-0.7-1.3-1.2-2.1-1.4c-1.8-0.5-3.9-0.8-5.3,0.4
		C63.9,50.3,62.5,51.2,62.2,52.7z"/>
	<path class="st1" d="M76.3,32.4c-0.6,0.6-1,1.4-1.2,2.2c-0.4,1.7,0.1,3.6,1.4,4.8c1.3,1.1,3.5,1.2,4.7-0.1c1-1.1,1.1-2.7,0.7-4.1
		C81.4,33.8,78.1,30.6,76.3,32.4z"/>
	<path class="st1" d="M87.5,23.1c-1.3,1.1-1.7,3.4-0.3,4.4c0.7,0.5,1.6,0.5,2.5,0.5c1.1,0,2.1,0,3.1-0.3c1-0.3,1.9-1.1,2.2-2.1
		c0.3-1,0-2.7-2-3.1C93,22.4,88.8,22,87.5,23.1z"/>
	<path class="st1" d="M99.3,30.4c-1.5,0.1-2.8,1.4-2.8,2.9c-0.1,1.5,1.1,2.9,2.5,3.3s3.1-0.3,3.9-1.5c0.4-0.5,0.6-1,0.4-1.6
		c-0.1-0.5,0-1.2-1.6-2.3C100.8,30.5,99.3,30.4,99.3,30.4z"/>
	<path class="st1" d="M109.4,10.6c-0.8,1.1-1,2.7-0.5,4c0.1,0.3,0.2,0.6,0.5,0.8c0.3,0.3,0.6,0.4,1,0.5c2.2,0.5,4.6-0.8,5.9-2.7
		c0.3-0.5,0.6-1.1,0.6-1.7c0-1-0.7-1.8-1.6-2.3c-0.9-0.5-2.3-0.9-3.5-0.3C111.8,8.8,110.2,9.5,109.4,10.6z"/>
	<path class="st1" d="M150,34.1c-1.2-0.8-2.9-0.6-3.4-0.6c-1.5-0.1-2.9,0.6-3.9,1.7c-1.1,1.2-0.9,3.2,0.3,4.3c1.2,1.1,2.2,1.4,4,1.2
		c1.6-0.1,3.3-0.7,4.1-2.1C151.9,37.4,151.5,35.1,150,34.1z"/>
	<path class="st1" d="M163.8,24.8c-1.6,0.5-3.1,1.9-2.9,3.5c0.2,1.9,2.5,2.9,4.4,3c1.4,0.1,2.8-0.1,3.9-0.9c1.1-0.8,2-2.3,1.4-3.5
		C169.2,24,165.4,24.3,163.8,24.8z"/>
	<g>
		<path class="st1" d="M58.3,155.3c-1.1-0.1-1.9-1.4-1.5-2.4"/>
		<path class="st1" d="M60.9,153.7c-0.4,1-1.5,1.7-2.6,1.6"/>
		<path class="st1" d="M61,150.6c0.3,1,0.3,2.2-0.1,3.2"/>
	</g>
	<path class="st3" d="M90,147.4c0,0,7-1.2,10.3-0.7c3.3,0.6,5.3,2.3,4.3,4.7c-1.5,3.7-9.8,4.4-11.3,4.9"/>
	<path class="st1" d="M117,99.6c2.9,0.9,3,1.7,2.9,4"/>
	<path class="st0" d="M126.6,102.1c-2.5,0.2-7.7,1.3-13.3,4.4c-3.2,1.8-7.1,4.4-10,6.7"/>
	<path class="st1" d="M153,98.3c-1.6,1-3,2.4-4.2,3.9c-0.8,1.1-1,2.2-0.5,3.5"/>
</g>
</svg>
