<?xml version="1.0" encoding="utf-8"?>
<!-- Generator: Adobe Illustrator 22.0.1, SVG Export Plug-In . SVG Version: 6.00 Build 0)  -->
<svg version="1.1" id="Layer_1" xmlns="http://www.w3.org/2000/svg" xmlns:xlink="http://www.w3.org/1999/xlink" x="0px" y="0px"
	 viewBox="0 0 29.8 40.5" style="enable-background:new 0 0 29.8 40.5;" xml:space="preserve">
<style type="text/css">
	.st0{fill:#FFFFFF;stroke:#000000;stroke-width:3;stroke-linecap:round;stroke-linejoin:round;stroke-miterlimit:10;}
</style>
<g>
	<g>
		<path class="st0" d="M8.6,2.9C7.3,2.7,5.8,3.1,5.2,4.2C4.9,4.7,4.8,5.4,4.8,6c-0.2,3.9,0.8,7.9,0.1,11.8c-0.3,1.5-0.8,2.9-1.2,4.3
			c-0.7,2.6-1,5.2-0.9,7.9c0,0.9,0.1,1.9,0.5,2.7c0.5,1,1.3,1.7,2.3,2.3c2.6,1.6,5.7,2,8.6,2.2c3,0.2,5.9,0.3,8.9,0.4
			c0.4,0,0.9,0,1.3-0.2c0.4-0.2,0.6-0.6,0.7-1.1c3.4-7.9,1.4-17.8-4.8-23.8C17.5,9.7,12.8,3.6,8.6,2.9z"/>
	</g>
</g>
</svg>
