<?xml version="1.0" encoding="utf-8"?>
<!-- Generator: Adobe Illustrator 22.0.1, SVG Export Plug-In . SVG Version: 6.00 Build 0)  -->
<svg version="1.1" id="Layer_1" xmlns="http://www.w3.org/2000/svg" xmlns:xlink="http://www.w3.org/1999/xlink" x="0px" y="0px"
	 viewBox="0 0 55.3 123.7" style="enable-background:new 0 0 55.3 123.7;" xml:space="preserve">
<style type="text/css">
	.st0{fill:none;stroke:#010101;stroke-linecap:round;stroke-linejoin:round;stroke-miterlimit:10;}
	.st1{fill:#010101;}
	.st2{fill:#FFFFFF;stroke:#010101;stroke-miterlimit:10;}
	.st3{fill:none;stroke:#FFFFFF;stroke-width:0.5;stroke-linecap:round;stroke-linejoin:round;stroke-miterlimit:10;}
</style>
<g>
	<path class="st0" d="M15.1,48c0,0,2.1,1.1,2.5,1.8"/>
	<path class="st0" d="M13.8,50.7c0,0,2.7,0.2,3.2,1"/>
	<path class="st0" d="M45.2,48.6c0,0-1.8,1.3-3,1.3"/>
	<path class="st0" d="M46.2,50.9c0,0-1,0.3-2.5,0.1"/>
	<path class="st1" d="M22.2,36c0,0-2.8-0.5-2.1-2s2.1-0.2,2.1-0.2s-0.5-2.9,1.8-2.4c1.1,0.3,0.8,2.1,0.8,2.1s1.3-1.2,2,0.2
		c0.7,1.5-2.3,2.3-2.3,2.3l0.1,12.2c0,0,5.2-2.4,10-0.8c0.4-2.9,0.4-12.2,0.4-12.2s-2.7,0-2.5-1.5c0.2-1.5,2.1-0.9,2.1-0.9
		s-0.6-2.4,1.1-2.5c1.7-0.1,1.4,2,1.4,2s1.9-0.6,2.2,0.6c0.3,1.4-1.9,1.8-1.9,1.8L38,47.3c0,0,3,1.1,3.3,3.6s-0.1,5.4-0.1,5.4
		l1.5,6.2c0,0-0.1,1.7-1.5,0.6c-0.8-0.6-2.9-2.9-2.9-2.9s-0.5-0.4-0.5,1.1s0.5,11.1,0.8,12.5c0.4,1.4,0.7,3.3,1.6,2.5
		c0.9-0.8,2.4-4.1,2.4-4.1s0.3-1.2-0.4-1.7c-1.1-0.9-1.2-2.7,0.8-2.7c0,0,0.7,0,0.9,0.4s0.1-2.8,2.3-1.8c1.5,0.7,0.1,2.4,0,2.5
		c-0.1,0.1,1.3-0.4,1.9,0.2c0.6,0.6,0.4,2.4-1.7,2.8c-1.2,2-6.5,15-15.7,18.6c-1.9,3.3-4.5,2.7-7.1,5.9c-4,4.9-3.9,11.1-3.1,12.5
		c1.5,2.3,5.1,0.6,4.6-2c-0.5-2.6,1.5-5.5,3.6-5.5c3.8,0.1,4.2,3.5,4.2,5.7c0,2.2-1.1,5.5-2,6.6c-2.9,3.7-8.8,3.5-10.9,2.5
		c-7.3-3.5-5.1-13.1-2.5-17.7c2.1-3.9,6.1-6.8,8.1-8.1c0,0,0-0.4-1.2-0.5c-1.2-0.1-5.7-1.8-7.9-6.2c-2.2-4.4-2.6-5.3-3.1-8.4
		c-0.5-3.1-2.7-2.4-2.7-2.4s-2,0-1.7-1.7c0.3-1.6,2-0.9,2-0.9c0,0-1.5-2.4,1-3c2.1-0.5,2.3,1.7,2.3,1.7s1.5-1.5,2.4,0s-1.1,3-1.1,3
		s0.5,3.5,0.7,3.8c0.2,0.3,2-1.2,2.9-3.9c0.9-2.7,1.6-10.1,0.5-10.4c-1.1-0.2-2.9,0.9-3.9,0.9s-2.2,0.1-1.1-1.5
		c1.2-1.6,3.2-3.5,3.1-4.7c-0.1-1.2-0.4-4.2,0.9-5.7c1.3-1.4,3.2-2.3,3.2-2.3L22.2,36z"/>
	<line class="st0" x1="22.9" y1="26.8" x2="22.9" y2="14.8"/>
	<line class="st0" x1="35.5" y1="26.8" x2="35.5" y2="6.5"/>
	<line class="st0" x1="37.6" y1="26.8" x2="37.6" y2="16.7"/>
	<line class="st0" x1="33.2" y1="26.8" x2="33.2" y2="12.9"/>
	<line class="st0" x1="25.1" y1="29.3" x2="25.1" y2="19.8"/>
	<line class="st0" x1="21" y1="29.3" x2="21" y2="21.7"/>
	<line class="st0" x1="48.5" y1="68.5" x2="48.5" y2="58.8"/>
	<line class="st0" x1="8.9" y1="69.5" x2="8.9" y2="59.8"/>
	<line class="st0" x1="45.9" y1="65" x2="45.9" y2="58.4"/>
	<line class="st0" x1="12.3" y1="66.4" x2="12.3" y2="59.8"/>
	<path class="st0" d="M44.9,64.6"/>
	<line class="st0" x1="43.7" y1="65.6" x2="43.7" y2="61.3"/>
	<line class="st0" x1="15.8" y1="67.7" x2="15.8" y2="63.4"/>
	<g>
		<path class="st2" d="M36.7,55.3c0,0-0.6,0-1-0.4c-0.4-0.4-3-2.3-4-2.3S29.4,51.8,30,51s2.9-1.7,4.7,0.6
			C36.5,53.8,36.8,54.3,36.7,55.3z"/>
		<path class="st2" d="M21.8,53.7c0,0,0.2,0.4,0.7,0.2c0.5-0.3,3.1-1.6,4.1-1.4c1,0.2,2.4-0.3,1.9-1.2c-0.5-0.9-2.7-2.1-4.7-0.5
			C23,51.4,21.8,52.7,21.8,53.7z"/>
		
			<ellipse transform="matrix(1.998191e-02 -0.9998 0.9998 1.998191e-02 -25.7917 77.5328)" class="st1" cx="26.7" cy="51.9" rx="0.6" ry="0.2"/>
		
			<ellipse transform="matrix(1.998191e-02 -0.9998 0.9998 1.998191e-02 -20.605 83.0148)" class="st1" cx="32" cy="52" rx="0.6" ry="0.2"/>
	</g>
	<path class="st3" d="M30.2,48.9c0,0-0.8,0.9-1.8,0.1"/>
</g>
</svg>
