<?xml version="1.0" encoding="utf-8"?>
<!-- Generator: Adobe Illustrator 22.0.1, SVG Export Plug-In . SVG Version: 6.00 Build 0)  -->
<svg version="1.1" id="Layer_1" xmlns="http://www.w3.org/2000/svg" xmlns:xlink="http://www.w3.org/1999/xlink" x="0px" y="0px"
	 viewBox="0 0 1100 1200" style="enable-background:new 0 0 1100 1200;" xml:space="preserve">
<style type="text/css">
	.st0{fill:#FFFFFF;stroke:#000000;stroke-linecap:round;stroke-linejoin:round;stroke-miterlimit:10;}
	.st1{fill:none;stroke:#000000;stroke-linecap:round;stroke-linejoin:round;stroke-miterlimit:10;}
</style>
<g>
	<g>
		<path class="st0" d="M552.1,1120.5c0,0-3.6,8-1.3,12.2c2.3,4.2,5.1,9.1,7.4,10.8c2.2,1.7,8.7,5.7,13.6,5.4
			c4.9-0.3,9.1-1.4,13.1-6.2s6.3-9.2,6.3-13.3c0-4-1.5-11.3-6.4-15.7c-4.9-4.4-12.6-9.4-20.2-5.9
			C557.1,1111.4,554.9,1114.9,552.1,1120.5z"/>
		<path class="st1" d="M560.8,1145.3c-2-1.2-2.9-4.4-2.7-6.7c0.2-2.4,1.4-4.6,2.7-6.6c1.3-2,2.8-4,4.4-5.8c1-1.2,2.1-2.3,3.5-3
			c1.7-0.9,3.6-1,5.4-1.1c5.8-0.1,13.5,1.4,17,6"/>
		<path class="st1" d="M556,1141.1c0.3-6,3.1-12.2,7.4-16.5c4.3-4.2,10.3-6.7,16.3-6.3c1.4,0.1,2.8,0.3,4.1,0.8
			c2.4,0.9,4.7,2.6,6.7,4.3"/>
		<path class="st1" d="M553.8,1137.5c-0.9-5.2,1-11.2,4.5-15.7c2.5-3.3,6.3-5.4,10.2-6.8c2.8-1,5.8-1.7,8.8-1.6
			c4,0.3,8.8,2.2,11.3,5.3"/>
		<path class="st1" d="M550.4,1131.7c0.1-4.4,3-8.3,6-11.5c3-3.2,6.9-5.5,10.8-7.5c1.7-0.8,3.4-1.7,5.3-1.9
			c4.4-0.7,9.8,1.6,13.4,4.1"/>
		<path class="st1" d="M553.9,1117c2.2-2,4.5-4.1,7.3-4.6c0.9-0.2,1.7-0.2,2.6-0.4c3.4-0.8,6.1-4.8,9.7-4.9"/>
		<path class="st1" d="M558.9,1135.4c2.3,9.8,12.5,11.1,12.9,11"/>
		<path class="st1" d="M563.1,1133.6c1.5,3.8,3.3,5.3,6.7,7.7c0.6,0.4,3.4,1.4,3.8,0.8"/>
		<path class="st1" d="M566.9,1133.5c1,2,2.6,3.6,4.5,4.7"/>
		<path class="st1" d="M573,1132.2c1.3,1.9,2.9,3.6,4.8,5c1,0.7,2,1.3,3.1,1.6c0.9,0.2,1.8,0.1,2.6,0c1.3-0.2,2.6-0.6,3.8-1.1"/>
		<path class="st1" d="M573.8,1126.6c1.1,1.4,2.1,2.7,3.2,4.1c0.5,0.6,0.9,1.2,1.5,1.7c1.5,1.1,3.7,1.1,5.2,0"/>
		<path class="st1" d="M579.1,1140.3c0.7,0.7,4.3,1.4,7.2,0.6"/>
		<path class="st1" d="M582.3,1123.3c1.1,3.1,3.9,5.2,7.1,5.8"/>
	</g>
	<path class="st1" d="M550.3,1130.7c0.4,1.6-1.3,4.5-2.8,5.3c-1.4,0.8-3.2,0.9-4.8,0.7c-3.5-0.4-4.6-4.7-7.5-6.7
		c-3.7-2.7-6.4-3.3-10.7-4.8c-3.9-1.3-3.1-0.5-8.6-3.6c-50.3-33.5-44.7-53.2-18.9-86.9c25.8-33.8,129.8-11.8,172.3-13.3
		c296.7-10.6,384.4-175.7,406.2-247.6c23.9-78.7-8.8-163.7-54.5-232.2c-24.4-36.6-60.7-70.4-95-97.9
		c-54.8-43.8-125.6-61.6-194.7-73.3c-165.3-28-334.6-28.2-499.3-59.7c-49-9.4-98.7-22-140-50.1c-41.3-28.1-73.1-74.5-71.7-124.4
		s18.7-72.6,64.3-91.7"/>
</g>
</svg>
