<?xml version="1.0" encoding="utf-8"?>
<!-- Generator: Adobe Illustrator 22.0.1, SVG Export Plug-In . SVG Version: 6.00 Build 0)  -->
<svg version="1.1" id="Layer_1" xmlns="http://www.w3.org/2000/svg" xmlns:xlink="http://www.w3.org/1999/xlink" x="0px" y="0px"
	 viewBox="0 0 83.9 67.8" style="enable-background:new 0 0 83.9 67.8;" xml:space="preserve">
<style type="text/css">
	.st0{fill:#FFFFFF;stroke:#000000;stroke-width:2;stroke-linecap:round;stroke-linejoin:round;stroke-miterlimit:10;}
	.st1{fill:none;stroke:#000000;stroke-linecap:round;stroke-linejoin:round;stroke-miterlimit:10;}
</style>
<g>
	<path class="st0" d="M34.4,37c1.5,0,2.5,2.1,1.7,3.3s-2.9,1.4-4,0.4c-1.2-1-1.4-2.8-0.9-4.2s1.8-2.5,3.2-3.1
		c3.3-1.5,7.7-0.3,9.4,2.8c1.9,3.5,0.2,8-2.7,10.6c-1.4,1.3-3.2,2.4-5.2,2.6c-2.4,0.3-4.7-0.7-6.6-2.1c-4.6-3.3-7.4-9-6.8-14.7
		C23,27,27,21.8,32.4,20c4.5-1.5,9.6-0.6,14,1.2c4,1.6,7.8,4.2,9.9,7.9c2.4,4.4,2.1,9.7,1.3,14.7c-0.7,4.4-1.6,13.8-6.1,15.5
		C39,63.9,11.7,70.7,4.9,36.6C5.5,22.3,12.8-0.2,50.4,7c38.7,7.4,32.4,46.1,20.5,55.8c0,0-6.2-7.2-17.5-4"/>
	<path class="st1" d="M38.7,7.9c-0.7,1.9-1.5,3.8-1.8,5.9c-0.3,2,0,4.2,1.1,5.9"/>
	<path class="st1" d="M24.9,10.9c1.4,3.5,3.3,6.7,5.7,9.6"/>
	<path class="st1" d="M11.2,24.6c3.2,2.3,6.7,4.3,10.4,6"/>
	<path class="st1" d="M8.7,31.6c4.3,2,9.1,2.9,13.9,2.7"/>
	<path class="st1" d="M43.6,35.4c4,1,7.7,0,11.8-3.2"/>
	<path class="st1" d="M44,42.7c1.6,1.5,3.2,3.1,5.2,4s4.5,1.2,6.4,0"/>
</g>
</svg>
