<svg id="Layer_1" xmlns="http://www.w3.org/2000/svg" viewBox="0 0 1604.4 1454.4"><style>@keyframes beat{2.5%{transform:scale3d(1.15,.95,1)}5%{transform:scale3d(.95,1.05,1)}7.5%{transform:scale3d(1.05,.95,1)}10%{transform:scale3d(1,1,1)}}@keyframes offset{2.5%{transform:translate3d(-4px,-4px,0)}5%{transform:translate3d(4px,4px,0)}7.5%{transform:translate3d(-2px,-2px,0)}10%{transform:translate3d(0,0,0)}}@keyframes offset-alternate{2.5%{transform:translate3d(3px,3px,0)}5%{transform:translate3d(-2px,-2px,0)}7.5%{transform:translate3d(1px,1px,0)}10%{transform:translate3d(0,0,0)}}.st0{fill:#fff}</style><g id="BASE"><path d="M1600.3 224.6c-.6-.5-1.4-.7-2.2-.9-7.1-1.9-539.7-143.5-560.5-149.1-12.3-3.3-24.8-6.1-37.3-8.5C987.9 63.8 670 2.3 666.1 1.6c-1.6-.3-3.2-.4-4.7-.8-.6-.1-1.1-.5-1.6-.8H654c-1.5 2.3-2.3 4.8-2.8 7.5-1.7 8.1-3.5 16.2-5.2 24.4-3.7 17.3-235.2 1119.9-238.3 1134.6-1.2 5.6-2.3 11.3-3.5 16.9-.2.9-.2 1.9-.2 2.8.1 1.2.7 2.1 1.8 2.6 2 .9 4.1 1.8 6.1 2.8 8.6 4.3 507.4 246.6 518.5 251.9 6.8 3.2 13.7 6.2 20.5 9.4.7.3 1.5.6 1.7 1.5h1.9c1.2-1.2 2.7-1.6 4.3-1.9 17.3-3.6 314.5-65.4 324.3-67.4 2.8-.6 5.5-1.4 8.1-2.7 1.8-.9 2.9-2.2 3.5-4.3 2-7.6 4.1-15.1 6.1-22.7 7.9-29.3 275.6-1020.3 285.6-1057.5 5.3-19.4 10.5-38.8 15.8-58.3.5-2 .8-4.1 1.3-6.1.2-.8.6-1.5.9-2.2v-2.9c-1.1-1.5-2.7-2.6-4.1-3.8z"/><path class="st0" d="M593.9 354.5c.2-7 1.4-13.2 2.7-19.5 3.3-15.6 62.6-300.6 64.9-311.1.1-.3.1-.6.2-.9.7-3 1.4-4.9 6.3-3.8 4.1.9 8 2.1 12 3.2 30 8.2 508.5 138.7 536.2 146.3 10.9 3 21.9 5.9 32.8 8.9 2.1.6 4.3 1.2 6.3 2.1 3.9 1.8 4 2.3 3.2 6.2l-.9 4.2c-5.2 24.9-11.5 49.5-17.7 74.1-6.9 27.7-62 248.5-69.6 278.5-6.5 26.2-57.1 228.3-63.6 254.3-9.3 37.2-69.7 278.3-78.9 315.2-8.8 35.2-63 250.9-70.4 279.8-2.9 11.1-6 22.2-9 33.3-.3 1.1-.7 2.1-1.2 3.1-.4.9-.5 1.8-.6 2.8-.1 2-1.4 3-3.2 2.4-2.7-.9-5.4-1.9-8.1-3-2.2-.9-4.4-2-6.5-3-17.5-8.5-35.1-17-52.4-25.8-15.4-7.8-379-184.1-400-194.1-16.4-7.9-32.8-15.9-49.1-23.9-1.9-.9-3.6-2-5.4-3.1-1.2-.7-1.8-1.8-1.8-3.2 0-1.4-.1-2.9.2-4.3 1.2-6.4 2.3-12.9 3.7-19.3 4-19.4 19.5-93.9 23.3-111.7 3.9-18.6 20.6-98 25-119.1 4.6-21.9 21.8-103.2 25.9-121.9 4.8-22 24.8-115.1 30.1-139.6 5-23.4 22.3-105.4 26-122.9 1.9-9.4 4.5-18.6 6.8-27.9.9-3.7 1.7-7.5 2.7-11.2.6-2.3 1.3-4.6 2-6.9 0-.2.5-.2.7-.3 0 0 .2.3.2.4-.1 1.6 0 3.2-.3 4.8-2.2 10.6-3.7 21.4-5.6 32.1-1.5 8.2-13.2 62.5-17.2 81.6-3.3 15.5-42.4 203.5-47.1 225.7-4.6 21.9-43.7 205.5-47 221.3-2.9 13.4-22.6 103.6-25.4 116.1-.2 1.1-.1 1.5.8 1.9 19.4 8.7 38.3 18.3 57.4 27.6 15.1 7.3 397.7 193.3 417.2 202.7 12 5.7 23.9 11.5 35.8 17.3 2.4 1.2 4.8 2.6 7.2 3.9.7.4 1.2.2 1.4-.6 1.5-6.4 3-12.8 4.4-19.1 7-31.8 15.1-63.4 22.9-95.1 7.5-30.4 15.2-60.8 22.8-91.1 10.8-43.2 21.6-86.5 32.4-129.7 6.6-26.7 13.3-53.3 19.9-80 8.7-35 17.5-70 26.3-105.1 8-31.8 15.9-63.5 23.9-95.3l23.4-93.9c6.5-26.2 13.2-52.4 19.7-78.6 8.1-32.5 16.2-65.1 24.4-97.6 6.2-24.9 12.5-49.9 18.8-74.8 6.9-27.4 13.7-54.9 20.5-82.3l18.6-74.4.3-.9c.6-2.5.5-2.7-1.8-3.4-17.8-5.2-35.5-10.4-53.3-15.6-20.2-5.9-462.5-135.2-491.2-143.6-1.5-.4-3.1-.9-4.5-1.6-1.5-.7-2.7-1.7-2.7-3.6 0-1.4 2-2.5 4.2-2.3 1.4.1 2.8.5 4.2.9 13.9 4.1 27.9 8.2 41.8 12.2 28.8 8.4 289.9 84.8 333.1 97.4 24.4 7.1 135.5 39.7 166.8 48.8 1.7.5 3.4 1.8 5.4 1.1.5-1.7 1.1-3.3 1.5-5 4.4-17.3 8.7-34.7 13.1-52.1 3.8-14.7 7.6-29.4 11.5-44.1.9-3.6 1.9-7.1 2.7-10.7.3-1.1-.2-1.9-1.2-2.3-1-.4-2.1-.8-3.1-1.1-15.4-4.2-30.8-8.3-46.2-12.5-21.4-5.8-374.4-102.2-397.1-108.4-34.2-9.3-68.4-18.6-102.5-27.9-11.1-3-22.2-6.1-33.2-9.1-.6-.2-1.2-.3-1.9-.4s-1.2.3-1.5 1c-.2.4-.3.9-.4 1.4-3.4 16.3-62.6 291.5-66.6 309.8-1 4.5-2.4 9-3.6 13.4-.5.8-1.1 1.6-1.8 2.9z"/><path class="st0" d="M1023.8 956.2c.1 11.5-.4 23-1.3 34.5-.8 9.9-1.9 19.7-3.4 29.5-4.1 27.1-10.8 53.5-20.4 79.2-9.4 25.3-21.5 49.2-36.9 71.3-20.7 29.8-46 54.8-77 73.8-20.1 12.3-41.6 21-64.5 26.3-7.8 1.8-15.7 3.1-23.6 3.8-8.7.8-17.5 1.4-26.3 1-19.7-.9-39-4.3-57.7-10.7-32.7-11.2-62.2-28.2-88.2-51-18.5-16.2-34.5-34.7-48.2-55.1-17.7-26.1-31.1-54.3-41.3-84.1-5.3-15.4-9.5-31.2-13-47.1-2.1-10-4-20.1-5.3-30.2-.9-7-1.9-13.9-2.5-20.9-.7-8-1-16-1.6-23.9-.7-10.5-.7-21.1-.3-31.7.3-8 .8-16 1.4-23.9.6-7.6 1.3-15.3 2.3-22.9 3-23 7.9-45.7 15.4-67.7 12.1-35.4 29.6-67.9 53.4-96.9 22.5-27.5 49.1-50.2 80.6-67.1 17.8-9.6 36.6-16.6 56.4-21 7-1.6 14.1-2.6 21.3-3.4 11.2-1.3 22.4-1.2 33.5-.6 5.9.3 11.8 1.1 17.6 2.2 38.8 7.5 73.8 23.4 105.3 47.2 20.4 15.5 38 33.7 53.3 54.2 20.4 27.4 35.6 57.6 47 89.7 6.9 19.5 12.2 39.4 16.1 59.6 2.3 11.8 4 23.6 5.3 35.6 1.2 11 2 22 2.5 33 0 5.7 0 11.5.1 17.3zm-490.6-26.4c-.3 8.1.3 16.1.7 24.1.4 8.6 1.2 17.2 2.3 25.8 1.3 10.9 3.1 21.8 5.3 32.7 5.4 26.6 13.2 52.3 23.9 77.2 11 25.7 24.8 49.7 42.2 71.7 14 17.6 29.9 33.3 48.2 46.5 21.2 15.3 44.5 26.3 69.9 32.7 6.7 1.7 13.4 3 20.2 3.8 6.5.8 13 1.5 19.6 1.6 9.3.2 18.5-.4 27.7-1.7 6.7-.9 13.2-2.1 19.8-3.7 22.8-5.5 43.7-15 63.3-27.7 4.2-2.7 8.3-5.4 12.5-8 8-5 15.6-10.6 23.2-16.1.9-.7 1.8-1.3 2.7-1.9.2-.1.6-.1.8 0 .1.1.2.6.1.7-.4.5-.8 1-1.3 1.4-13.5 13.1-28.2 24.6-44.4 34.1-1 .6-1.9 1.2-2.9 1.7-.8.5-1.1 1.2-1 2 .1 1.1 0 2.3.3 3.3 1.5 5.3 4.7 9.4 9.5 12.1.5.3 1.3.2 1.8.1.9-.3 1.7-.9 2.5-1.4 13.2-7.9 25.5-17.1 36.9-27.4 20-18.1 36.6-38.8 50.5-61.9 15.6-25.9 27-53.6 35.4-82.6.2-.8.4-1.6.5-2.3.2-.9-.2-1.5-.9-2-3.8-2.9-8.2-3.3-12.7-3.5-.4 0-.9.4-1.1.7-.4.8-.7 1.8-1 2.7-3.1 9.8-6.4 19.4-10.5 28.8-3.2 7.2-6.5 14.3-10.5 21-2.4 4-5.2 7.7-8.3 11.1-.4.4-1 .7-1.6 1-.1 0-.3 0-.4-.1-.1-.1-.2-.3-.3-.4-.1-1.4.9-2.4 1.5-3.5 5.6-10.3 10.6-20.8 15-31.6 7.2-17.6 12.8-35.8 17-54.4 2.1-9.4 4-18.8 5.1-28.3.7-6 1.5-12.1 2.1-18.1.6-6.5 1.3-13.1 1.4-19.6.3-14.5.5-29.1-.6-43.6-.6-8.3-1.3-16.6-2.4-24.8-1.6-12.2-3.7-24.3-6.3-36.4-4.5-20.5-10.6-40.5-18.6-59.9-8.7-21.2-19.4-41.4-32.6-60.2-13.1-18.7-28.4-35.4-46.1-49.9-26.9-22-57.3-37-91-45.4-9.5-2.4-19.1-3.8-28.9-4.1-10.9-.4-21.7 0-32.5 1.7-8.5 1.3-17 3.1-25.2 5.5-22.9 6.7-44 17.3-63.5 30.9-22.6 15.8-42.1 34.9-58.7 56.9-22 29.2-37.7 61.5-47.4 96.7-5.7 20.6-8.9 41.6-10.4 62.8-.5 9.8-1.2 19.6-.8 29.2zm485.1 25.7c0-4.2.2-8.3 0-12.5-.4-7.8-.8-15.6-1.4-23.4-.6-7.5-1.2-15-2.2-22.4-1.4-10.6-3.2-21.2-5.4-31.6-3.5-17.1-8.1-33.8-13.7-50.3-.3-.9-.6-1.8-1.1-2.7-.2-.4-.7-.7-1.1-.8-4.1-.5-8 0-11.5 2.2-1.5 1-1.8 1.5-1.3 3.1 1.4 4.2 3 8.4 4.4 12.7 4.5 14 8.2 28.2 11 42.6 2.2 11.1 3.9 22.3 5.3 33.6.5 3.8.9 7.6 1.1 11.4.5 7.3 1 14.7 1.3 22 .3 6.7.6 13.4.4 20.1-.4 12.8-.9 25.6-2.4 38.3-1 8.2-2.1 16.5-3.6 24.7-1.7 9.9-4.1 19.7-6.6 29.5-.1.5-.4.9-.3 1.4.1.4.4 1 .7 1.1.9.3 1.9.5 2.8.5 2.9.1 5.6.9 8.3 2.1.6.3 1.2.5 1.7.8.5.2 1.3-.2 1.5-.8.5-1.9.9-3.7 1.4-5.6 3.2-12.7 5.4-25.6 7.2-38.6 1-7.6 1.7-15.2 2.4-22.9.9-11.5 1.1-23 1.1-34.5zm-27.1-151.4c-.1-.4-.1-.8-.2-1.3-1-2.5-1.9-5.1-3-7.6-12.3-29.9-28.1-57.7-48.8-82.6-16.9-20.5-36.4-38.1-58.8-52.5-11.4-7.4-23.4-13.8-35.9-19.2-1.3-.6-1.8-.4-2.3.7-1.1 2.1-2.2 4.2-3.3 6.4-.9 1.7-1.7 3.4-2.5 5.2-1.2 2.7-1.1 2.8 1.4 3.9.7.3 1.5.6 2.2 1 6.1 2.7 12.2 5.6 18.1 8.8 29.7 16.1 54.6 37.7 75.4 64.2 17.5 22.3 31.1 46.8 41.9 72.9.4 1 .8 2.1 1.2 3.1.5 1.1 1.2 1.4 2.3.8 3.3-1.9 6.8-2.8 10.5-2.9.5 0 .9-.2 1.4-.4.2 0 .3-.3.4-.5zM647.1 661c.2 1.1.3 2.2.5 3.3.6 2.7 2 5.1 3.5 7.3 2.9 4.3 2.8 4 6.6 1.6.4-.3.8-.5 1.2-.8 14-8.7 28.8-15.9 44.4-21.3 16.9-5.8 34.1-9.5 52-10.2 1.4-.1 2.9-.2 4.3-.2 2.7-.1 5.4-.2 8.1-.1 2.9.1 5.7.3 8.6.5 4.1.4 8.3.7 12.4 1.3 8.2 1.2 16.3 3.2 24.2 5.6 5 1.5 10 3.3 15 5 .7.2 1.2.1 1.5-.6 1.8-4.8 4.2-9.3 7-13.6.1-.1.2-.3.1-.4-.1-.3-.1-.6-.3-.7-.7-.4-1.4-.8-2.2-1-15.8-5.8-31.7-10.8-48.5-12.9-5.6-.7-11.1-1.3-16.7-1.5-10.1-.4-20.1.3-30.1 1.6-7.8 1-15.5 2.5-23 4.4-18.7 4.8-36.3 12.1-53.1 21.6-4.9 2.8-9.6 5.8-14.3 8.7-.6.6-1.1 1.3-1.2 2.4zm129.2 609.3l13.4-.3c2.1-.1 4.1-.6 6.2-.7 5.8-.3 11.4-1.3 17.1-2.4 15.7-3.1 30.9-7.9 45.5-14.5 3.6-1.7 7.2-3.5 10.7-5.3.5-.2.6-.7.3-1.1s-.6-.7-1-1c-4.3-4.1-7.3-8.9-8.1-14.8 0-.2-.1-.3-.1-.5-.2-.6-.7-.6-1.1-.4-1.2.5-2.3 1.1-3.5 1.6-8.2 4.1-16.6 7.5-25.2 10.4-13.5 4.5-27.3 7.6-41.5 9-7.2.7-14.4 1-21.5 1-6.2-.1-12.4-.2-18.6-1-5.4-.7-10.8-1.5-16.1-2.5-11.3-2.3-22.2-5.7-33-9.8-5.7-2.2-4.4-2.7-8 3-1.4 2.2-1.9 4.7-2.1 7.3-.1 1.2.3 2.2 1.5 2.7.9.4 1.8.8 2.6 1.1 7.4 3.3 15.1 6.1 22.8 8.7 11.8 4 24 6.6 36.3 8.3 7.7.8 15.5 1.3 23.4 1.2zM531.5 863.1c1.6.2 2.1-.2 2.4-1.4 1-4.5 1.8-9.1 2.9-13.6 7.2-31.8 19.4-61.5 36.7-89.1 19.1-30.6 43-56.7 72.4-77.8.6-.5 1.3-.9 1.8-1.5.2-.3.3-1 .2-1.2-.8-1.2-1.6-2.4-2.5-3.5-1.6-2.4-2.8-5-3-8-.3-3.8-.9-3.5-3.6-1.6-.9.7-1.8 1.3-2.7 2-24.3 18.2-44.7 40.1-61.9 65-16.2 23.4-28.6 48.7-37.8 75.7-5.6 16.4-9.7 33.1-12.7 50.1-.6 3.5-.8 4 3 4 1.6.1 3.4.7 4.8.9zm27.8 227.8c-1.3.3-2.4.4-3.5.7-2 .6-4 1.2-5.9 2-1.6.6-1.9 1.5-1.3 3 .4 1 .9 2.1 1.3 3.1 10.3 24.2 23.1 47 39 68.1 20.9 27.8 45.9 51.1 75.7 69.1 6.3 3.8 12.7 7.3 19.4 10.5 1.1.5 1.5.3 1.6-.8.5-4.3 1.9-8.1 4.9-11.2.1-.1.2-.3.2-.4 0-.3 0-.7-.2-.8-1-.6-2-1.1-3-1.5-19.1-9-36.5-20.5-52.3-34.4-16.2-14.2-30.2-30.4-42.5-48-12-17.2-22-35.6-30.6-54.7-.6-1.3-1.1-2.6-1.8-3.9-.2-.6-.8-.7-1-.8zm-34.1-223.2v.2h-.5c-2.1 0-2.7.4-2.9 2.3-.7 5.4-1.5 10.8-2 16.2-1 11.3-2 22.6-2.2 34-.4 21.9.2 43.8 2.8 65.6 1.5 12.2 3.4 24.4 5.8 36.4 3.2 16.2 7.4 32.1 12.6 47.7 2.1 6.4 4.5 12.6 6.8 18.9.3.9 1.1 1.2 1.9.6 2.5-1.9 5.3-3 8.4-3.3.3 0 .6-.2.9-.3.7-.2 1-.8.7-1.5-.3-.9-.7-1.8-1.1-2.7-7.9-20.1-14.2-40.7-18.8-61.8-2.9-13.4-5.2-27-6.8-40.6-1.2-9.7-2.1-19.4-2.5-29.1-.7-16.8-.8-33.6.6-50.3.7-8.6 1.5-17.2 2.8-25.7.2-1.3.3-2.5.3-3.8 0-.7-.2-1.3-.9-1.5-1.9-.5-3.9-.9-5.9-1.3zm573.2 536c-1 .1-1.9.3-2.9.3-.4 0-.9-.3-1.2-.6-.5-.6.2-.8.5-1 .7-.4 1.4-.7 2.2-1 5-2.1 10.3-3.4 15.6-4.5 11.8-2.6 63.4-13.2 77.3-16.2 8.4-1.8 16.9-3.3 25.4-5 6.1-1.2 55.4-10.9 62.1-11.6.7-.1 1.2-.3 1.4-1.1 2.2-11 5.1-21.8 8-32.6 9.9-36.6 84.9-314.6 95.2-353 10.5-38.9 47.6-176.4 55.7-206.4 8.6-31.8 17.1-63.6 25.7-95.3 8.2-30.2 16.4-60.4 24.5-90.7 10-37.2 79.3-294 89.5-331.8 1.2-4.5 2.7-8.9 4.5-13.1.7-1.7.7-2.4-1.6-3-1.2-.3-2.5-.6-3.7-.9-10.9-2.3-21.9-4.6-32.8-6.9-6.7-1.4-57-11.8-63.6-13.8-1.3-.4-2.8-.8-3.8-1.9-.2-.2-.3-.6-.2-.9.1-.2.4-.6.6-.6 2.4 0 4.8-.3 7.2.1 6.9 1.1 13.8 2.4 20.7 3.8 7.7 1.5 46.5 9.4 58.2 11.9 6.4 1.4 12.8 2.7 19.2 4.2.9.2 1.9.5 2.7.9 1.4.6 2.3 2.3 1.5 3.6-1 1.8-.9 3.7-1.2 5.5-.9 4.7-1.7 9.4-2.9 14.1-7.4 27.6-42.2 156.2-52.1 192.9-13.8 51-213.8 793-223.5 829.1-6.2 23-12.4 46-18.7 68.9-1.8 6.6-4.1 13.1-6.2 19.6-.1.5-.3.9-.6 1.3-.3.3-.7.8-1.1.8-2.1-.2-4.1.6-6.1 1.1-6.9 1.9-14 3-21.1 4.5-8.7 1.8-41 8.2-48.3 9.7-8.4 1.7-79.1 15.3-86 16.5-4.9 1-18.2 3-20.1 3.1 0 .1 0 0 0 0zm-143.7 37.5c.4-2 .6-3.9 1-5.8 5.1-24.4 11.4-48.5 17.4-72.7 7.2-28.8 59.5-238.2 67.7-271 5-19.8 50.9-203.4 57.2-228.7 8.1-32.5 57.4-229.8 65.5-262.2 6.4-25.7 13.2-51.4 20.7-76.8.8-2.8 1.6-5.5 2.4-8.3.3-1.1.6-2.1 1-3.2.4-1.3 1.3-1.9 1.9-1.7.9.4.9 1.2.9 2 0 .9-.2 1.9-.4 2.8-6 27.1-86.4 351.6-92.5 376.4-6.2 24.9-45.8 183.5-51.3 205.5-6.3 25.3-72.1 288.6-78.3 312.8-2.4 9.6-5.2 19.1-7.9 28.6-.5 1.8-1 3.7-2.7 4.9-.5.4-1.4.3-1.7-.2-.3-.7-.6-1.6-.9-2.4zm-60.2-884.1c-.2-23.2 3.8-44.8 11.9-65.6 6-15.3 14.1-29.4 24.7-42 9.7-11.5 21.1-20.9 34.5-27.8 8.6-4.4 17.7-7.4 27.3-8.7 5.5-.7 11.1-1 16.7-.7 20.6 1.1 38.3 9.2 53.8 22.4 13.4 11.4 23.3 25.4 30.9 41.1 6.5 13.5 10.8 27.7 13.4 42.4 1.9 11.2 2.6 22.5 2.4 33.9-.1 6.6-.5 13.1-1.3 19.6-2.3 17.4-6.8 34.1-14.2 50.1-6.4 13.9-14.6 26.6-25.1 37.8-10.7 11.5-23.2 20.6-37.8 26.5-7.3 3-14.8 5.1-22.7 5.8-16.9 1.7-33.1-1-48.4-8.8-13.8-7-25.2-16.9-34.7-29-12.1-15.3-20.2-32.5-25.4-51.2-4.1-15.2-6.2-30.8-6-45.8zm5.4.5c.3 8.2 1 17.9 2.6 27.5 2.5 14.9 7 29.2 13.6 42.7 7.2 14.7 16.6 27.7 29.2 38.2 13.9 11.8 29.8 19 48.1 20.5 9.4.7 18.5-.1 27.5-2.7 14.4-4 26.9-11.6 38-21.6 11.3-10.2 20.1-22.2 27.2-35.7 10.2-19.3 15.9-40 17.9-61.7 1.4-14.8 1-29.7-1.5-44.4-2.2-13.5-6-26.5-11.6-38.9-5.6-12.5-12.8-23.9-22.2-34-10.6-11.4-23-20.3-37.8-25.4-8.2-2.8-16.7-4.3-25.4-4.4-3.2 0-6.4.3-9.6.7-6.5.7-12.9 2.3-19 4.6-14 5.2-26 13.7-36.3 24.4-11.6 12-20.3 25.8-27 41.1-9.2 21.5-13.4 44.1-13.7 69.1zm490.5-364.8c-6.8.4-13.3-1-19.9-2.2-9.7-1.8-82.5-15.2-91.6-17.7-.5-.1-.9-.1-1.4-.2-2.6-.5-2.7-.5-3.3 1.9-1.6 6.4-3.2 12.7-4.7 19.1-7.3 29.9-14.6 59.9-22 89.8-1.6 6.7-3.7 13.2-5.6 19.8-1.4 4.8-2.7 9.5-4.2 14.2-.6 1.8-1.1 3.7-2.6 5.1-.2.2-.6.2-.9.2-.1 0-.2-.3-.2-.4 0-.6-.1-1.3 0-1.9 2-10.5 4.1-21 6.1-31.5 2.1-10.7 21.8-91.5 24.4-103 .8-3.4 1.7-6.8 2.5-10.2.3-1.1.4-2.2.5-3.3.1-.7-.3-1.2-1-1.4-3.1-.9-6.1-1.8-9.2-2.6-30.5-8.3-228.8-62.6-248.4-67.9-25.4-6.9-50.8-13.9-76.2-20.7-14.8-4-29.4-8.5-43.9-13.6-3.1-1.1-6.1-2.6-9.2-3.9-.1 0-.1-.2-.2-.3.1-.1.3-.2.4-.2 3.5.5 6.9 1 10.4 1.7 7.2 1.4 14.4 2.9 21.5 4.6 8.2 2 16.4 4.1 24.6 6.3 25.4 6.9 300.7 81.8 330.2 89.8 8.5 2.3 17.1 4.1 25.7 5.9 8.9 1.8 75.4 13.7 84.8 15.4 6.1 1.1 12.1 2.7 18 4.9.6.2 1.2.5 1.7.8.4.2.8.7.8 1s-.6.8-.9.8c-2-.2-4.1-.3-6.2-.3zM830.9 462c.1 16.6-2.2 32.8-7 48.7-5.3 18-13.5 34.5-25.1 49.2-7.7 9.7-16.7 18.1-27.1 24.8-10 6.5-20.9 11-32.7 13-7.2 1.3-14.6 1.5-22 .7-20.7-2.4-38-11.6-52.6-26.1-10.6-10.4-18.6-22.7-24.8-36.2-5.6-12.3-9.5-25.1-11.7-38.4-2-11.4-2.9-22.9-2.4-34.4 1.1-26.9 7.5-52.4 21-75.9 8.2-14.3 18.5-26.8 31.7-36.9 9.9-7.5 20.8-13.1 32.9-16.2 8.9-2.3 18-3 27.1-2.2 15.6 1.5 29.7 7.2 42.3 16.4 12 8.8 21.6 19.9 29.3 32.6 8.8 14.5 14.6 30.2 17.9 46.8 2.8 15 3 21 3.2 34.1zm-200.2 7.4c.2 5.7.3 11.7.9 17.8 1.1 10 3.1 19.9 6.1 29.5 5.1 16.5 12.8 31.7 24 45 7.3 8.7 15.6 16 25.5 21.6 10.6 6 21.9 9.7 34.1 10.1 6.9.2 13.7 0 20.5-1.6 12.7-2.9 24-8.6 34.2-16.6 12.8-10 22.7-22.4 30.5-36.6 12.4-22.6 18.2-47 19-72.6.5-14.6-1.1-29.1-4.7-43.3-3.8-15.2-9.7-29.4-18.3-42.5-7.9-12-17.6-22.3-29.8-30.2-11.8-7.6-24.7-12-38.7-12.7-9.5-.4-18.8.9-27.8 4-14.6 4.9-26.8 13.4-37.4 24.4-10.5 11-18.6 23.6-24.7 37.4-9 21.1-13.4 43.1-13.4 66.3zm570.8-149.6c-2.3-.4-5.4-1-8.5-1.6-9.1-1.8-17.9-4.7-26.8-7.3-32.6-9.5-465.1-136.8-475.1-140-2.4-.8-5-1.3-7-3-.1-.1-.2-.2-.3-.4.1-.1.3-.2.4-.2 2.2.4 4.4.7 6.6 1.3 9.9 2.6 19.7 5.4 29.5 8.1 15.4 4.2 371.7 107.2 407.9 117.7 17.9 5.2 65.1 19.1 70.5 21.4 1.9.8 3.7 1.8 5.6 2.8.2.1.5.5.5.7 0 .6-.6.6-1 .6-.5-.1-1-.1-2.3-.1zM708.3 117.4c.5-2.8.9-5.7 1.4-8.5 1.6-9 3.4-17.9 5.7-26.7.2-.8.4-1.5.7-2.3 1.3-3.7 2.2-4.4 5.9-4.3 1.6 0 3.2.1 4.7.5 10.7 3.1 21.4 6.2 32.1 9.4 1.3.4 2.6 1.1 3.8 1.9 1.1.8 1.6 1.9 1.3 3.3-2.5 12-4.7 24.1-8.1 35.9-.6 2-1.1 4-1.8 6-.4 1.2-1.3 1.9-2.5 1.8-1.3-.1-2.6-.2-3.8-.5-11.2-3.1-22.4-6.4-33.4-10.2-1-.4-2-.9-3-1.4-2.1-.9-3.2-2.5-3-4.9zM840 337.3c0 15.1 2.7 28.3 8.9 40.7 3.5 7.1 8.1 13.4 14 18.8 7.2 6.7 15.6 10.9 25.4 12.5 9.1 1.5 17.8.5 26.3-2.8 3.1-1.2 6.2-2.6 9.3-3.8.9-.3 1.8-.5 2.7-.7.1 0 .5.5.5.7-.2.6-.4 1.3-.8 1.7-1.4 1.3-2.8 2.7-4.4 3.6-9.1 5.2-18.8 7.9-29.3 7.4-8.3-.4-16-3-23.2-7.1-9.1-5.2-16.1-12.6-21.6-21.4-5.8-9.3-9.6-19.5-11.5-30.3-1.2-6.5-1.9-13-1.6-19.6.7-20.1 5.9-38.8 17.8-55.3 6.6-9.1 14.7-16.4 24.7-21.5 8.9-4.5 18.4-6.5 28.3-5.6 8.1.7 15.6 3.5 22.4 7.8 6 3.8 11.1 8.6 15.5 14.2 1.5 1.9 2.5 4.1 3.3 6.3.1.3 0 .7-.1.9-.4.5-.8.1-1.1-.3-3.3-4.2-7.5-7.4-11.8-10.5-2.8-2.1-5.7-4.1-8.7-6-8-5.1-16.9-7.6-26.4-7.2-8.6.4-16.6 3.2-23.9 7.8-7.7 4.9-13.9 11.2-19.1 18.6-6.7 9.7-11.1 20.5-13.6 32-1.3 6.7-2 13.5-2 19.1z"/><path class="st0" d="M1182.9 215c2.9.2 5.8.4 8.6.7 2.8.2 4.7 1.8 6.1 4.1 2.2 3.5 3 7.4 3.4 11.3.5 4.9-.5 9.5-2.1 14.1-.4 1-1 2-1.7 2.9-.6.9-2.1 1.2-3 .8-1-.4-1.6-1.2-1.6-2.2 0-1.1.2-2.2.5-3.3.5-2.2 1.3-4.3 1.7-6.5.9-5 .3-9.8-2.1-14.4-.6-1.1-1.3-1.7-2.6-1.7-1.8 0-3.5 0-5.3.1-.6 0-1 .7-.8 1.4.2.8.6 1.5.8 2.3 2.4 8.2.9 15.8-3.7 22.8-3.2 5-9.3 7.2-15.1 5.4-2.3-.7-4-1.9-5.3-3.8-1.4-2-2.4-4.2-2.7-6.6-1.1-7.8.7-14.9 5.7-21.1.9-1.1 2-2.1 3.1-3 1.6-1.3 3.5-2.2 5.6-2.4 3.6-.3 7.1-.6 10.5-.9zm-6.9 29.7c-.3-1.1-.5-2.4-.9-3.6-.4-1-1.2-1.9-2.3-2.3-.4-.1-1-.2-1.3 0-1.2.7-2.1 2.4-1.7 3.6.6 2 1.6 3.8 3.6 4.9.6.3 1.7 0 2-.7.1-.5.3-1.1.6-1.9zm-68.2-47.8c-1 0-1.9-.1-2.9 0-.5 0-.9.3-.8.9.2.8.5 1.5.8 2.3 2.6 8 1.2 15.5-3 22.5-.9 1.5-2.1 2.8-3.4 4-4.1 3.4-8.7 3.7-13.5 1.9-2.2-.8-3.6-2.5-4.8-4.5-1.8-3-2.3-6.3-2.3-9.7.1-6.1 1.9-11.6 5.7-16.4 1.1-1.4 2.4-2.6 3.8-3.7 1.6-1.3 3.6-2.1 5.7-2.2 6.1-.3 12.1-.5 18.2-.1 2.8.2 4.8 1.5 6.3 3.8 2.5 3.7 3.3 7.9 3.7 12.3.4 4.9-.7 9.5-2.4 14-.5 1.2-1.1 2.2-2.3 3-1.4.9-3.4 0-3.6-1.7-.2-1.5.1-2.8.5-4.2.7-2.3 1.4-4.6 1.7-6.9.6-4.5 0-8.9-2.1-13-.7-1.4-1.7-2.3-3.4-2.1-.6-.2-1.3-.3-1.9-.2zm-17 7.4c.1.5.2 1.1.3 1.7.2.7 1.3 1.1 1.9.7.4-.2.9-.4 1.2-.7 1.8-1.9 1.9-4.2 1.5-6.6-.2-.9-1.6-1.2-2.3-.6-1.7 1.3-2.5 3.1-2.6 5.5zM977.3 1435.1c-.6-.1-1.1-.1-1.6-.2-1.2-.2-2.2-1.1-2.1-1.6.2-.9 1-1.3 1.7-1.6 1.9-.8 3.8-1.6 5.8-2.2 4.9-1.3 65.4-15.1 74.6-17.1 1.9-.4 3.8-.6 5.7-1 2-.4 3.8.5 5.7.7.2 0 .4.4.5.6 0 .1-.1.3-.2.4-2 2-4.3 3.2-7.1 3.8-5.4 1.3-71.2 16.4-80.8 17.8-.7.2-1.5.3-2.2.4zm375.4-1229.3c-7.8-.5-15.5-2.2-23.1-3.7-13.1-2.7-26.2-5.4-39.3-8.2-1.7-.4-3.4-.8-5.1-1.3-1.2-.4-2.3-1-3.2-2-1.5-1.8-1.1-3 1.2-3.8 1.7-.5 3.4-.5 5.2-.1 7.5 1.6 15 3 22.5 4.6 12.1 2.7 24.3 5.1 36.5 7.3 3 .5 5.9 1.3 8.8 2 1.7.4 3.3 1.2 4.5 2.6.6.6.3 1.6-.5 1.9-.9.3-1.8.6-2.8.7-1.5.1-3.1 0-4.7 0zm-890.9 947.3c.2-1.7.3-2.9.6-4.2 2.3-11.4 5.1-22.7 8.3-33.9.4-1.4.9-2.7 1.5-4 .8-1.7 2.2-2.3 4-1.9.8.2 1.5.4 2.3.8 6.2 2.8 12.5 5.7 18.7 8.6 1.1.5 2.2 1.3 3.2 2.1.7.5 1 1.6.5 2.1-.6.5-1.3 1.2-2 1.1-1.9-.2-3.8-.6-5.6-1.2-2.3-.8-12.4-5.6-15.3-6.9-1.4-.6-2.1-.3-2.5 1.1-1.6 6.2-10.1 37.2-10.7 38.7-.1.3-.4.5-.6.7-.4.5-1.4.4-1.6-.2-.3-1.1-.6-2.2-.8-2.9zm447.9 212.1c.4-1.8 11.3-39.3 12.4-40.7 1.1-1.4 2.6-1.9 4.3-1.5 1.2.3 2.4.8 3.6 1.3 5 2.1 10 4.3 14.9 6.5 1.4.6 2.7 1.6 4 2.5.7.5.9 1.3.6 2.1-.3.9-1.4 1.7-2.2 1.5-1.5-.4-18.7-7.5-20.4-8.1-.3-.1-1 .1-1.2.4-.4.7-.7 1.4-.9 2.2-3 10.1-10.2 33.9-10.9 35.6-.3.7-1.1 1.2-1.7 1.7-.4.3-1.5 0-1.7-.4-.2-1-.5-2.1-.8-3.1zm644.4-1111.8c-1-.2-2.9-.5-4.7-.9-17.2-3.2-34.4-6.8-51.3-11.6-2.1-.6-4.3-1.4-6.3-2.1-.5-.2-1-.8-1.3-1.3-.2-.3 1-1.1 1.8-1.2 1.1 0 2.3-.1 3.3 0 6 1 12 1.9 17.9 3.1 8.8 1.7 17.5 3.5 26.3 5.2 4.7.9 9.4 1.9 14 2.9 1.6.3 3 .9 4.3 2 .7.6 1.3 1.5.9 2-.4.6-1.1 1.1-1.7 1.6-.2.2-.6.2-.9.2-.4.2-.9.1-2.3.1zm-350.3 1109.2c-.9-.1-2.3-.2-3.7-.4-.2 0-.5-.4-.6-.6-.1-.3 0-.7.2-.8.5-.4 1-.9 1.6-1.1 2.1-.8 4.2-1.7 6.3-2.2 7.9-1.7 15.9-3.4 23.9-4.9 8.3-1.6 16.6-3 25-4.4 2-.3 4.1-.4 6.2-.5.6 0 1.3.1 1.9.3.5.3 1 .7 1.4 1.2s0 1.8-.6 2.1c-.8.5-1.6 1.1-2.5 1.3-2.8.7-5.6 1.4-8.4 1.9-7.1 1.2-14.2 2.4-21.2 3.6-7.9 1.3-15.7 2.7-23.6 4-1.8.3-3.6.3-5.9.5zM660.2 107.8c.9-5.3 1.7-11 2.8-16.6 3-14.4 6.1-28.7 9.2-43.1.6-2.7 1.3-5.3 2-7.9.3-1.1.8-2.1 1.2-3.1.5-1 1.5-1.6 2.3-1.3.8.4 1.2 1 1.2 1.9-.1 1.4-.1 2.9-.4 4.3-.4 2.4-.9 4.7-1.5 7-3.8 16.7-7.6 33.3-11.5 50-.7 3.1-1.8 6.1-2.8 9.2-.2.7-.7 1.4-1.1 2.1-.1.2-.5.2-.8.3-.1 0-.2-.2-.3-.4-.1-.8-.1-1.4-.3-2.4zm-2.8 129.7c.2-5 1.3-9.8 2.3-14.6 1.6-7.6 3.1-15.3 4.8-22.9.5-2.3 1.2-4.6 2-6.9.8-2.3 2.5-3.2 4.9-2.8 1.3.2 2.5.5 3.7.8 5 1.5 10.1 3 15.1 4.5 1.4.4 2.7 1 3.9 1.7.5.3.9.9 1.2 1.4.5.8-.3 2.1-1.3 2.1-1.9-.1-3.8-.1-5.6-.6-5.5-1.5-11-3.2-16.5-4.8-.9-.3-1.5 0-1.8.9s-.5 1.8-.7 2.8c-2.5 11.5-4.8 23.1-7.7 34.5-.6 2.5-1.1 5-2.4 7.2-.1.2-.5.4-.7.5-.3.2-.9-.3-.9-.8 0-.3-.1-.6-.1-.9-.2-.8-.2-1.4-.2-2.1zm326.9 1181.7c-1.4-.2-2.6-.3-3.9-.6-.4-.1-.8-.6-.9-1-.1-.4.2-1 .6-1.2 1.5-1.2 3.3-2 5.1-2.5 4.6-1.2 31.6-7.4 40.5-9.1 2-.4 4.1-.3 6.2-.4 1.2-.1 2.2.4 3.1 1 .6.4.4.8.1 1.2-1.1 1.5-2.6 2.3-4.3 2.8-3.4.9-44.5 9.5-46.5 9.8zM451.7 1117c-.3 1.7-.5 4-1 6.1-3.2 13.7-11.5 46.1-12.5 48.6-.3.7-1 1.2-1.5 1.7-.1.1-.6 0-.8-.2-.8-.9-.8-2.1-.6-3.2.4-3.2 6.7-34.5 9.9-46.8.5-2 .9-4.1 1.6-6 .6-1.6 1.4-3.2 2.2-4.7.2-.3.8-.7 1.2-.7.7 0 1.1.6 1.2 1.3 0 1.2.1 2.3.3 3.9zm851.7-902c-1.2-.2-2.9-.6-4.6-.9-5.5-1-10.9-2-16.3-3.7-.8-.2-1.5-.4-2.2-.8-.7-.4-1.4-.9-1.9-1.4-2-2.5-1-3.5 1.2-4.2 1.3-.4 2.5-.5 3.8-.1 7.1 2 14.3 3.2 21.4 4.6 1.8.3 3.2 1.3 4.4 2.7.6.8.5 2-.3 2.5-1.8 1.1-3 1.4-5.5 1.3zm-149.7 169.1c-.1-1.7-.2-2.9-.1-4.2.5-11.6 1.4-23.2 2.8-34.8.2-1.4.5-2.8.8-4.2.5-1.8 1.8-2.6 3.6-2.5.8.1 1.5.2 2.4.4 6.6 1.8 13.2 3.6 19.8 5.5 1.2.3 2.4.9 3.5 1.6.8.4 1.2 1.4.8 2-.5.6-1.1 1.4-1.8 1.4-1.9.1-3.8 0-5.7-.3-2.4-.4-13.1-3.6-16.2-4.4-1.5-.4-2.1 0-2.3 1.5-.6 6.4-4 38.3-4.4 39.9-.1.3-.3.6-.5.8-.3.6-1.3.6-1.6.1-.4-1.1-.8-2.1-1.1-2.8z"/><path class="st0" d="M1180.6 360c-.4 0-1 0-1.6-.1-3.2-.9-6.5-1.7-9.5-3.1-.6-.3-1.1-.6-1.6-1-.7-.6-1.2-1.4-1.2-2.5 0-.7 1-1.2 2.3-1.2.8 0 1.6 0 2.4.2 3.2.9 6.4 1.9 9.6 2.9.6.2 1.1.6 1.6.9.7.5 1 1.4.8 2.1-.3 1.1-1 1.7-2 1.8h-.8zM996.5 1397c1.1.2 1.5 1.4.8 2.2-.2.2-.4.5-.6.7-3 2-6.3 3-9.9 2.7-.5 0-.9-.3-1.3-.5-.9-.4-1.2-1.7-.5-2.3.8-.8 10.7-3 11.5-2.8zm-505.4-269.2c0 1.1-.7 2-1.4 2-.5 0-1 .1-1.4 0-2.6-1.1-5.2-2.3-7.8-3.5-.4-.2-.8-.6-1-1s-.1-.9.1-1.3c.1-.2.5-.5.8-.4 3.4.7 6.8 1.5 10 3 .3.2.6 1 .7 1.2zm439.8 209.4c2.1 0 6.8 2.6 7.1 3.1.6.9-.1 2.5-1.2 2.7-.5.1-1 .2-1.4.1-2.7-.5-5.3-1.2-6.7-3.9-.4-.7.1-1.8.8-1.9.2 0 .3-.1.5-.1h.9zM681.6 207.7c-2-.3-3.8-.3-5.2-1.4-.6-.5-1.1-1.1-1.6-1.7-.3-.5 0-.9.4-1.2s.8-.5 1.3-.6c2.5-.4 4.7.4 6.9 1.3.1.1.3.2.4.3.3.5.7 1.1.7 1.7 0 .7-.5 1.1-1.2 1.3s-1.3.3-1.7.3zm253.9 182.9c.3.2.8.5.9.9.7 2.4-1.3 5.1-3.9 5.3-.6 0-1.2-.6-1.2-1.1.2-2.2 1.3-3.8 3.2-4.9.2-.2.6-.1 1-.2zm37.3 569.5c.3 9-.3 19.3-1.3 29.5-1.9 19.9-5.8 39.5-11.9 58.6-8.9 27.6-21.9 53.1-39.7 76.1-15.9 20.6-34.8 37.9-57.2 51.2-14.8 8.8-30.5 15.4-47.2 19.3-7.5 1.7-15 3.2-22.7 3.4-1.8 0-3.5.3-5.3.4-2.9.1-5.8.5-8.6.2-5.6-.5-11.2-.7-16.7-1.5-8.1-1.2-16-3-23.8-5.4-24.3-7.6-45.9-19.9-65.2-36.5-19.9-17.1-35.9-37.3-48.9-59.9-13.2-22.8-22.9-47.1-29.7-72.5-3.7-13.6-6.5-27.4-8.4-41.3-1.1-7.8-1.8-15.6-2.4-23.4-1-13.6-1.2-27.2-.5-40.7 1.3-25 5.3-49.5 13.1-73.4 8.3-25.6 20.3-49.3 36.3-71 14.1-19.1 30.7-35.5 50.3-49 16.6-11.4 34.5-20 54.1-24.8 7-1.7 14-3.1 21.2-3.7 3.8-.3 7.6-.8 11.5-.8 14.3-.1 28.3 2.1 42 6.3 29.2 9 55 23.8 77.5 44.4 15.3 14 28.2 30.1 39.1 47.7 14.1 22.8 24.5 47.4 31.8 73.2 3.9 13.7 6.8 27.6 8.9 41.7 2.3 15.7 4 34.5 3.7 51.9zm-428.7-29.4c.2-13.1.8-24.9 2.1-36.7.8-7.5 1.8-14.9 2.8-22.3 1.2-8.4 3.3-16.6 5.2-24.8 4.2-17.7 9.8-35 17.2-51.7 2.7-6.1 5.4-12.3 9.2-17.9 1.2-1.9 2.5-3.7 3.9-5.5.5-.6 1-1.3 1.7-1.7.8-.5 1.6-1.1 2.6-.8.7.3.9 1.6.4 3-.4 1-.9 2-1.4 3-3.2 6.4-6.5 12.8-9.5 19.3-6.7 14.7-12 29.9-16.1 45.5-3.5 13.3-6.3 26.7-8 40.4-.9 7-2 13.9-2.4 20.9-.7 11.8-1.6 23.6-1.3 35.4.3 10.2.8 20.4 1.7 30.6.6 7.3 1 14.7 1.6 22l.6 7.2c.1.8 0 1.6-.1 2.4 0 .2-.4.3-.7.4-.1 0-.4 0-.4-.1-.5-1-1.3-1.9-1.5-2.9-1.1-5-2.2-10-3.1-15-1.8-10.4-2.8-20.9-3.5-31.4-.8-6.9-.8-13.7-1-19.3zm21.7 113.6c-.1.9-.1 1.7-.3 2.5-.1.3-.4.6-.6.7-.4.1-1 .1-1.3-.2-.8-.8-1.5-1.7-2-2.6-.8-1.5-1.6-3.1-2.2-4.8-1.7-5.1-3.4-10.3-4.9-15.5-.5-1.7-.5-3.5-.5-5.2 0-.7.4-1.5.7-2.2.6-1.1 1.9-1.4 2.9-.6.5.4 1.1.8 1.3 1.3.6 1.1 1.2 2.3 1.5 3.5 1.6 6.3 3.1 12.7 4.6 19.1.5 1.3.6 2.7.8 4zm514.9-497.9c0 21.1-3.4 38.5-10.9 55.1-6.3 14.1-15 26.3-26.9 36.2-9.6 8-20.5 13.6-32.9 15.9-16.1 3-31.1-.1-45.1-8.4-11.1-6.5-19.8-15.6-26.7-26.3-7.7-11.8-12.6-24.7-15.5-38.4-2.1-10.1-3-20.2-2.6-30.5 1-23.5 7.3-45.3 20.6-64.9 6.6-9.6 14.5-17.8 24.2-24.3 9.6-6.4 20.2-10.3 31.7-11.4 11-1 21.6.9 31.8 5.4 10.6 4.7 19.4 11.7 26.9 20.4 9.4 11 15.8 23.5 20.1 37.3 3.7 12.1 5.4 24.4 5.3 33.9zm-155 7.9c0 10.5 1.3 20.7 3.9 30.8 3.8 14.6 10.1 27.9 19.8 39.5 8.5 10.1 18.8 17.6 31.5 21.7 8.2 2.7 16.6 3.4 25.1 2.3 11.1-1.4 21.1-5.9 30.1-12.7 10.4-7.8 18.5-17.6 24.7-29 9.4-17 13.6-35.4 14.3-54.7.4-11.2-1-22.3-3.8-33.2-3.8-14.9-10.3-28.5-20.4-40.3-7.3-8.5-15.9-15.2-26.3-19.5-11.9-4.9-24.1-5.7-36.6-2.6-9.6 2.4-18.1 7-25.8 13.2-9.7 7.9-17.2 17.6-23 28.6-9.2 17.5-13.3 36.2-13.5 55.9zm158.4-62.5c-.2 3.9-2 6.9-5.5 8.8-1.4.7-2.7.6-4-.2-1-.7-1.2-1.5-.4-2.3.9-.9 1.9-1.7 2.7-2.7.9-1.1 1.6-2.4 2.2-3.6.5-1.2-.1-2.5-1.3-3.2-.5-.3-1.1-.6-1.7-.9-.5-.3-.5-1.2 0-1.7.7-.7 1.6-1.2 2.6-1 2.9.4 5.3 1.8 5.6 5.5-.1.4-.2.9-.2 1.3zM1050 656.3c-.2 3.5-2 6.5-5.4 8.5-1.7 1-3.3.7-4.8-.6-.5-.5-.6-1.1-.1-1.6.8-.8 1.6-1.5 2.4-2.3.7-.8 1.4-1.7 2-2.6.6-1 .8-2.1.5-3.2-.1-.5-.5-1.1-1-1.5-.6-.5-1.4-.7-2-1.3-.2-.2-.2-.9 0-1.2.7-1 1.7-1.4 2.9-1.2 3.7.5 5.5 2.7 5.5 7zm-87.9-206.1c-.4 3.1-2.1 6.1-5.6 8.1-1.4.8-2.7.6-4.1-.2-1-.6-1.2-1.5-.5-2.3 1-1 2.1-2 3-3.1.9-1 1.5-2.1 1.8-3.4.3-1.4-.1-2.4-1.3-3.3-.5-.3-1.2-.6-1.6-1-.2-.2-.2-.9 0-1.3.6-1.1 1.8-1.4 2.9-1.2 3.2.7 5.4 2.5 5.4 7.7zm-37.6 163.3c-.4 3.3-2.1 6.3-5.7 8.2-1.5.8-3.1.6-4.4-.6-.5-.4-.6-1.2-.2-1.7 1.1-1.2 2.2-2.3 3.3-3.4 1-1.1 1.7-2.4 1.7-3.9 0-1.1-.2-2.2-1.5-2.7-.6-.2-1.1-.6-1.5-1.1-.2-.3-.1-1 .1-1.3.7-.9 1.8-1.3 3-1.1 3.3.7 5 2.6 5.3 5.9 0 .5-.1.8-.1 1.7zM650 467.2c-.1-19.2 4.1-37.4 12.9-54.5 6.3-12.2 14.6-22.9 25.6-31.3 9.2-7.1 19.4-11.7 30.8-13.4 3.3-.5 6.7-.5 10-.5 12 0 22.9 3.7 32.9 10.2 9.5 6.2 17.2 14.3 23.4 23.8 6.9 10.6 11.5 22.1 14.3 34.3 2.5 10.8 3.4 21.8 2.8 32.9-1 20.1-6.2 39-17 56.3-6.2 10-13.9 18.7-23.6 25.5-6.8 4.8-14.3 8.4-22.4 10.6-5.3 1.4-10.7 1.9-16.1 1.8-15-.1-28-5.5-39.6-14.8-9.6-7.8-16.8-17.5-22.3-28.5-5.7-11.4-9.2-23.4-10.8-36.1-.7-5.5-.9-10.9-.9-16.3zm147.7-4.4c-.2-2.6-.4-5.1-.5-7.7-.3-8.4-1.8-16.5-4.1-24.5-3.6-12.6-9.3-24.1-17.8-34.2-7.1-8.4-15.5-15.3-25.8-19.4-11-4.4-22.2-5.6-33.8-2.8-7.9 1.9-15.1 5.2-21.7 9.8-8.8 6.1-15.9 13.9-21.6 22.9-11.5 17.8-16.7 37.5-17.3 58.6-.3 9.3.8 18.5 2.8 27.6 3 13.6 8.3 26.2 16.6 37.4 6.5 8.7 14.3 16 24.1 20.9 12.3 6.2 25.1 8.1 38.6 4.9 10.5-2.5 19.6-7.6 27.7-14.6 9.7-8.4 16.9-18.7 22.3-30.3 7.1-15.6 10.2-31.8 10.5-48.6zm5.6-62.5c3.1 0 4.9 1.4 5.8 4.1 1.2 3.6-1.6 9.6-6.1 11-1.4.4-2.5-.3-3.4-1.1-.3-.3-.5-.8-.1-1.2.9-.9 1.9-1.7 2.6-2.7.8-1 1.5-2 2-3.2.8-1.7.4-2.8-1.4-3.8-.3-.2-.7-.2-.8-.4-.3-.3-.6-.8-.5-1.2.1-.4.5-.8.9-1.1.1-.4.6-.4 1-.4zM656.9 523c-.3 2.6-1.9 5.3-5.1 7.1-1.4.8-2.7.7-4-.2-.8-.5-1.1-1.3-.5-1.9.8-.8 1.6-1.5 2.4-2.4.7-.8 1.5-1.7 1.9-2.7.4-.8.4-1.8.4-2.8-.1-1.1-.9-1.6-1.9-1.8-.1 0-.3-.1-.4-.2-.2-.4-.6-.8-.5-1.2.1-.6.5-1.1 1.2-1.3 3.6-.6 6.3 1.4 6.6 5 0 .5-.1 1-.1 2.4zM687 359.9c3.2 0 5.2 1.6 5.6 4.6.7 4.5-1.8 8.8-5.8 10.4-1.2.5-3 0-3.8-1.2-.2-.2-.2-.7-.1-.9.8-1 1.8-1.8 2.6-2.8s1.5-2 2.1-3.2c.4-.8.4-1.8.1-2.8-.4-1.1-1.5-1.1-2.2-1.6-.3-.2-.6-.8-.6-1.2.1-.4.5-.8.8-1.1.1-.1.3-.1.4-.2.3.1.6.1.9 0zm83.8 196.6c3.2 0 5 1.5 5.7 4.6.8 3.6-1.7 8.3-5 10-1.2.6-2.4.6-3.7.1-1.2-.5-1.5-1.5-.5-2.5.8-.8 1.7-1.5 2.3-2.4.7-.9 1.3-1.8 1.7-2.8.8-1.8.4-2.8-1.3-3.9-.3-.2-.6-.2-.8-.5-.3-.3-.7-.9-.6-1.2.3-.5.8-.9 1.3-1.2.2-.1.5-.1.9-.2z"/><path class="st0" d="M1038.4 552.8c0 5.7-1.2 11.1-3.4 16.3-2.3 5.2-5.5 9.7-9.9 13.3-9.6 7.8-23.6 7.5-32.7-2.7-3.6-4-6-8.6-7.5-13.7-3-10.5-2.4-20.8 2.1-30.8 2.3-5.2 5.7-9.6 10.2-13.1 8.5-6.6 21.1-6.8 29.9 1.3 4.7 4.3 7.7 9.7 9.6 15.7 1.4 4.4 1.8 9 1.7 13.7zm-49.5.7c.3 3 .4 6.1 1 9 1.3 6.7 4.5 12.2 10 16.3 3.2 2.4 6.8 3.6 10.7 3.5 10.9-.5 19-10.5 16.8-20.6-.9-4.3-2.8-7.8-7-9.6-1-.4-1.5-1-1.8-2-.8-2.6-1.9-5.1-3.8-7.1-4.2-4.5-8.6-5.8-14.2-3.4-.9.4-1.8.8-2.6 1.1-.4.2-.9.4-1.3.5-.2 0-.6-.4-.6-.6.9-4.1 2.5-7.9 5.2-11.1.6-.7 1.3-1.4 1.9-2.1.2-.2.4-.7.3-.8-.3-.4-.7-.7-1.1-.8-.4-.1-1-.2-1.4 0-2.5.7-4.6 2.1-6.1 4.4-1.8 2.9-3.3 5.9-4 9.2-1.1 4.5-2 9.2-2 14.1zm-3.2 83.5c-1.1-.3-2.7-.7-4.2-1.3-4.1-1.5-7.6-4.1-11-6.8-4.1-3.3-7.8-7.1-11.3-11.1-4.6-5.4-8.1-11.5-10.9-18-.6-1.4-1-2.7-.8-4.2.1-.8.3-1.6 1.1-2 .7-.3 1.9 0 2.6.8.4.5.8 1 1.1 1.5.5.8.8 1.7 1.2 2.6 3.5 8.2 8.6 15.3 15.1 21.4 2.6 2.4 5.2 4.7 7.9 7 2.3 2 4.9 3.5 7.7 4.7.9.4 1.8.7 2.6 1.2 1.7.9 2.6 2 2.1 2.7-.5 1.3-1.7 1.2-3.2 1.5zm4.8-13.8c-.9-.3-2.5-.5-3.9-1.2-5.7-2.8-10.6-6.6-14.7-11.3-1.1-1.3-2.2-2.8-2.2-4.7 0-.8.8-1.5 1.6-1.3.6.2 1.3.3 1.7.7 1.3 1 2.5 1.9 3.7 3.1 4.2 4.2 8.8 7.8 14.2 10.5.4.2.9.4 1.3.7 1.4.8 2 1.9 1.6 2.6-.7.9-1.7.8-3.3.9zm2.7-11.6c-.5-.1-1.5-.1-2.3-.6-1.4-.9-2.8-2-4.1-3.2-.8-.7-.9-1.6-.7-2.6.1-.7 1.1-1.4 1.8-1.2.4.1 1 .2 1.3.5 2 1.6 3.9 3.1 5.8 4.8.4.3.4 1.1.4 1.7 0 .2-.8.4-1.2.5-.3.1-.4.1-1 .1zm6.4-12.6c-.7.3-1.2.7-1.8.7-.9 0-1.5-.6-1.7-1.4-.1-.2.1-.6.3-.8.9-.6 1.8-.6 2.6.1.4.2.4.8.6 1.4zM762.5 464.4c0 7.9-1.7 14.8-5.4 21.1-2.4 4.1-5.4 7.4-9.4 10.1-8.4 5.5-18.5 4.9-26.2-1.5-3-2.5-5.4-5.4-7.1-8.9-6.6-13.5-6.1-26.8 1.2-39.8 2.1-3.8 5.1-6.9 8.7-9.4 8.7-5.9 19.4-5.3 27.3 1.9 5.1 4.5 8.1 10.3 9.7 16.7.9 3.3 1.5 6.8 1.2 9.8zm-11.4 14.1c-.1-.9-.2-2.5-.5-4.1-.8-3.2-2.4-6-5.5-7.4-1.7-.7-2.4-1.8-2.9-3.4-1-3.3-3.1-5.9-6-7.9-2.9-1.9-5.9-2.3-9.1-1.1-1.5.5-2.9 1.2-4.4 1.8-.2.1-.7.1-.8-.1-.2-.2-.3-.6-.3-.8 1.3-4.3 2.9-8.5 6.4-11.6.2-.2.5-.5.5-.8.1-.2-.1-.7-.3-.8-.6-.3-1.2-.7-1.8-.5-2.5.7-4.7 2-6.1 4.3-1.7 2.7-3.1 5.6-3.7 8.8-.9 4.4-1.5 8.8-1.4 13.3.1 6.1 2 11.6 5.2 16.7 1.3 2 2.9 3.8 4.9 5.3 4.3 3.3 9 4.5 14.4 3.2 7.4-1.8 11.3-8.6 11.4-14.9zm-78.8 25.9c.1-.2.2-.7.3-1.1.2-.7 1.4-1.1 2-.7.6.5 1.4.9 1.8 1.5.9 1.3 1.7 2.7 2.4 4.1 2.8 6 6.3 11.4 10.3 16.6 5.2 6.6 11.6 11.8 18.6 16.3 1.2.8 2.5 1.5 3.6 2.3.5.4.8.9 1.2 1.4.2.3-.2 1.1-.5 1.1-.8 0-1.6.2-2.3 0-2.1-.8-4.2-1.5-6.1-2.6-8.2-4.5-15-10.7-20.7-18.1-3.7-4.8-6.7-10.1-9.2-15.6-.8-1.6-1.6-3.2-1.4-5.2zm35.4 23.9c-.2.2-.4.5-.6.5-.8 0-1.6.1-2.3-.1-.7-.2-1.4-.7-2.1-1.1-4.2-3-7.9-6.4-10.7-10.8-.6-.9-1-2-1.4-3-.3-.7.1-1.8.7-2.1.8-.4 1.5-.3 2.3.2.3.2.5.4.7.6s.5.4.7.7c3 4.8 7.1 8.5 11.2 12.3.6.5 1 1.2 1.5 1.8v1zm-3.2-20.5c.2.1.8 0 1.1.3 2.1 2.1 4.1 4.3 6.1 6.5.2.2.2.6.3.9.1.4-.3.9-.8.9s-1 .1-1.4-.1c-2.9-1.1-5.1-3.1-6.5-5.9-.2-.4-.2-.9-.2-1.4-.1-.5.6-1.2 1.4-1.2zm9.7-6.6c.3.1.9.3 1.4.7 1 .8 1.2 2.5.4 3.4-.5.6-1.8.7-2.7.1-.4-.2-.8-.6-1.1-.9-.6-.7-.7-1.5-.3-2.2.5-.7 1.1-1.1 2.3-1.1z"/></g><path id="WAVE" d="M435.1 815.1c-3.7 1.3-7 1.3-10.2-2.2-3.5-3.9-5.2-8.7-6-13.7-.7-4.2-2.2-27.2-4.9-34.1-.4-1.1-1-2.2-1.7-3.3-1.2-1.8-3.1-2.4-5.1-1.6-3.2 1.1-5.8 3.2-8.3 5.4-6.9 5.8-52.8 58-59.5 63.4-4.1 3.3-8.5 6.2-13.7 7.6-3.3.9-6.6 1.1-9.8-.4-3.7-1.7-5.7-4.9-6.8-8.7-1.4-4.5-1.9-9.1-1.9-13.8s2.5-63.5 2.5-70.1c0-6-.1-12.1-1.7-17.9-.3-1-.6-1.9-1-2.8-.7-1.4-1.6-2-3-1.3-2.1 1-4.3 2.2-6.1 3.7-5.2 4.3-9.2 9.6-13.1 15-5.2 7.3-26 38.7-31.3 47.1-4.9 7.6-27.5 42.9-35.1 52.1-3.8 4.5-7.7 9-12.9 12.1-1.9 1.1-4 1.7-6 2.6h-3.8c-6-1.9-8.2-6.9-9.7-12.2-6.2-27.1-3.2-59.7-2.8-66 .4-6.2 1-12.3 1.6-18.5.4-4.5 1-8.9 1.6-13.4.6-4.9 23.1-150.1 23.7-157.2.8-9.1 1.4-18.2 1.9-27.3.2-4.3.1-8.7-1.1-12.9-.9-3.4-2-3.8-5-1.9-3.3 2.1-5.8 5.1-8.2 8.2-5.1 6.7-9.5 13.9-13.5 21.3-5.4 10.2-114.1 239.7-119.3 249-4.4 7.9-9.3 15.5-15.3 22.4-2.2 2.5-4.5 5-7.5 6.7-4.8 2.8-9.3 1.6-11.6-3.5-1.1-2.5-1.8-5.3-2.1-8-.5-4.5-.8-9-.6-13.5.2-6.7 2.8-30.9 3.5-36.3.8-5.7 20.3-110.6 22.9-123.6 2-10 3.8-20.1 5.6-30.2 1.1-6.1 4.1-36.9 4-40.6-.1-2-.6-3.9-1-6.1-2.1 1.2-3.4 2.8-4.7 4.4-5 6.6-9.3 13.6-13.1 20.9-5.4 10.5-10.7 21.1-15.8 31.7-4.7 9.8-8.9 19.9-13.4 29.8-2.9 6.3-6.1 12.3-10.2 17.8-1 1.4-2.3 2.1-4.1 2-1-.1-1.7-.5-1.5-1.5.2-1.1.4-2.2.9-3.2 3.2-6.6 42.4-88.2 46.6-95.2 2.1-3.5 4.7-6.7 7.3-9.9 1.2-1.5 2.9-2.6 4.7-3.5 4.2-2.1 8.3-.2 10 4.5.8 2.3 1.5 4.9 1.6 7.3.1 4.9.1 9.9-.3 14.8-.5 6.3-1.3 12.5-2.2 18.8-1.1 7.2-2.3 14.3-3.6 21.5-1.5 8-3.1 16-4.7 23.9-1.6 7.9-3.3 15.8-4.9 23.7-2 9.8-4.1 19.7-6 29.5-1.5 7.7-2.9 15.4-4.3 23.2-1.3 7.7-2.6 15.3-3.8 23-1.2 7.4-2.3 14.9-3.3 22.3-.8 6.2-1.5 12.4-2 18.7-.4 5.2-.8 10.5-.8 15.8-.1 4.5.2 9.1 1.6 13.5.1.4.3.7.4 1.1.1.2.2.5.5 1 1.4-1.2 2.8-2.2 4.1-3.4 5.4-5.4 9.6-11.6 13.5-18.1 4.3-7.4 125.2-259.9 131.7-269.9 2.9-4.4 6-8.7 9.8-12.4 2-1.9 4.2-3.7 6.6-5 6-3.3 11.8-1 14.1 5.5 1.2 3.2 1.6 6.5 1.7 9.9.4 8.5-.1 16.9-.9 25.3-.7 6.3-1.2 12.7-2 19-.8 6.4-1.8 12.9-2.8 19.3-1.3 8.6-2.7 17.2-4.2 25.7-1.3 7.6-2.7 15.2-4 22.8-1.2 7-2.3 13.9-3.4 20.9-1.1 7.2-2.3 14.3-3.3 21.5-1.2 8.4-2.3 16.7-3.4 25.1-.9 7-1.8 13.9-2.6 20.9-.5 4.3-.9 8.6-1.3 12.9-.5 5.9-1.1 11.8-1.4 17.6-.3 6.4-.4 12.8-.4 19.2 0 4.7.1 9.4.4 14 .5 7.4 1 14.8 3.1 22 .6 2 1.5 4 2.4 5.8.8 1.6 1.8 1.8 3.5 1.3 2.6-.8 4.7-2.5 6.7-4.4 6.8-6.3 72.8-106.6 80.4-115.5 3.6-4.2 7.5-8.2 12.5-10.8 3.2-1.7 6.5-2.5 10-1.1 3.1 1.2 4.8 3.7 5.8 6.6 2 5.4 2.5 11 2.5 16.7.1 6.8 0 13.6-.2 20.4-.3 8.9-.9 17.8-1.3 26.7-.3 6.1-.6 12.1-.7 18.2-.1 4.9-.2 9.9.1 14.8.2 2.9 1 5.8 1.9 8.6.9 2.7 2.6 3.4 5.4 3.1 2.8-.3 5.3-1.5 7.6-3 4.8-2.9 8.9-6.7 12.9-10.5 7.8-7.4 36.6-41 44.2-49.5 4.1-4.5 8.6-8.6 13.9-11.7 4-2.4 8.3-3.6 12.9-1.6 3.6 1.6 5.7 4.7 7.1 8.2 2 4.8 3 9.8 3.5 15 .5 5.8.8 11.6 1.4 17.4.4 4 1.2 8 3.3 11.5.5.9 1 1.8 1.7 2.4 1.7 1.5 3 3.2 4 5.2.1.3.4.5.6.7v1.3z"/><g style="animation-name:offset;animation-duration:2304ms;animation-iteration-count:infinite;transform-origin:100% 100%"><path d="M673.9 753.1c.1.1.3.3.3.4 0 .3-.1.6-.3.9-1.2 2.2-2.5 4.5-3.7 6.7-1.9 3.5-4.1 6.8-6.6 10-3.1 3.9-6.2 7.8-9.1 11.8-16 21.7-27.5 45.6-35.1 71.5-3.5 12-6.4 24.1-8.4 36.4-1.9 11.5-3.2 23.1-3.3 34.8 0 5.8-.2 11.5-.3 17.3 0 8.2.1 16.3.9 24.4.2 2.7.4 5.4-.7 8.1-.5 1.2-1.9 1.5-2.7.5s-1.7-2-2.1-3.1c-.7-1.8-1.4-3.6-1.6-5.5-.5-4.1-.8-8.3-.9-12.4-.1-8.5-.2-17 0-25.4.2-10.9 1.1-21.7 2.5-32.5 2.5-18.4 6.8-36.4 12.7-54 8.8-26.4 22-50.3 39.2-72.1.9-1.1 1.8-2.2 2.7-3.4 3.1-4.1 6.8-7.7 11.1-10.5l5.1-3.6c0-.3.2-.2.3-.3z"/><path d="M620.4 923.2c0-10.1 1.5-20 3.2-30 2.1-12.4 4.9-24.7 8.4-36.8 3.5-12 7.9-23.6 13.1-34.9 1.3-2.9 3-5.2 5.9-6.6 1.3-.6 1.8-.4 1.9.8.4 3.3-.1 6.3-1.5 9.3-4.4 9.6-8.2 19.4-11.3 29.5-3.4 11.1-6.2 22.4-8.3 33.9-1.1 6-2 12-2.9 17.9-1.1 7.6-1.6 15.2-1.8 22.9-.1 2.2-.2 4.5-1 6.6-.3.9-.9 1.7-1.4 2.5-.3.5-1.3.5-1.7 0-.5-.6-1-1.2-1.4-2-.8-1.6-1.3-3.3-1.3-5.1.1-2.6.1-5.3.1-8zm45.8 24.7c0-15.7 2.1-31.2 5.5-46.5 1.3-5.6 2.8-11.1 4.4-16.6.6-2 1.4-3.9 2.3-5.8.5-1 1.2-1.9 1.9-2.7.8-.8 1.9-1.5 3-1.1 1.2.4 1.4 1.6 1.5 2.8.1 1.9-.2 3.8-.8 5.6-1.6 5.5-3.3 11-4.6 16.6-2.7 11.7-4.7 23.4-5.5 35.4-.4 6.7-.7 13.4-.6 20.1 0 3.4.1 6.7 0 10.1-.1 2.4-.4 4.8-.7 7.1-.2 1.7-1 2.8-1.7 2.6-1.2-.3-1.6-1.5-2-2.5-1.5-4.1-2.2-8.3-2.4-12.6-.2-4.2-.2-8.4-.3-12.5zm29.4-17.7c.4-4.2.9-10.4 1.8-16.5 1.5-10.1 3.9-20 7.5-29.6 1.9-5.1 4-10.1 6.6-14.9.8-1.4 1.7-2.7 2.7-3.9.7-.9 1.8-1.3 2.9-1.5 1-.1 2 .5 2.1 1.5.1 1.1.2 2.3 0 3.3-.5 1.7-1.1 3.3-1.9 4.9-6.4 13-10.6 26.6-12.7 41-.9 6.2-1.7 12.3-1.9 18.6 0 .8-.1 1.6-.2 2.4-.7 4.4-.8 8.9-.8 13.4 0 2.2 0 4.5-.8 6.6-.1.2-.4.5-.7.5s-.6-.1-.8-.3c-1.5-1.4-1.8-3.4-2.1-5.2-.9-6.2-1.7-12.2-1.7-20.3zm23.8-1.1c.2-13.7 3.2-26.8 8.9-39.3 1.3-2.8 2.9-5.3 6.1-6.4.3-.1.6-.2.9-.1.3 0 .7.2.7.5.6 1.7.7 3.5.2 5.2-.5 1.5-1 3-1.6 4.5-4.5 9.8-6.7 20.2-8.4 30.8-.2 1.3-.1 2.5-.3 3.8-.2 2.9-.5 5.7-.8 8.6-.1.9-.4 1.9-.7 2.8-.3.9-1.2 1.7-1.6 1.5-.5-.2-1.1-.6-1.5-1.1-1.3-1.9-1.8-4.1-1.9-6.3-.1-1.6 0-3 0-4.5zm-73.1-4.9c0-10.9 1.8-21.6 3.9-32.2.3-1.4.7-2.8 1.3-4.1.5-.9 1.4-1.7 2.2-2.5.6-.6 1.6-.3 2 .4.6 1 1.1 1.9 1.1 3.1-.1 1.6-.1 3.2-.4 4.8-2.3 11.4-3.8 22.9-4.6 34.6-.1 2.1-.4 4.1-.8 6.2-.2.9-.6 1.8-1 2.7-.4.8-1.5.8-1.9.1-1.1-1.6-1.8-3.4-1.8-5.3v-7.8z"/></g><g style="animation-name:beat;animation-duration:2304ms;animation-iteration-count:infinite;transform-origin:52.5% 65%"><path d="M911.3 944c-.1 21.9-3.1 38.4-9.6 54.3-5.6 13.6-13.5 25.7-24.5 35.7-10 9.2-21.6 15.4-35 17.8-5.8 1-11.7 1.3-17.6.7-14.8-1.6-27.6-7.6-38.9-16.9-10.3-8.5-18.2-18.8-24.4-30.5-6.7-12.5-11-25.8-13.3-39.8-1.7-10.1-2.3-20.3-1.7-30.6 1.2-20.6 6.6-40 17.5-57.6 6.2-10 13.9-18.7 23.5-25.7 8.1-5.9 17.1-10 26.9-11.9 6.4-1.2 12.9-1.6 19.5-.8 17.9 2.3 32.6 10.7 45 23.4 12.9 13.2 21.4 29 26.7 46.5 4 13 6 26.4 5.9 35.4zm-153.5 4.8c-.1 5.1.5 10.2 1.5 15.2.3 1.6.8 3.1 1.9 4.3.5.6 1.2 1.3 1.9 1.3 1.2 0 1.3-1.2 1.6-2.1.4-1.2.5-2.5.4-3.8-.2-2.7-.4-5.4-.5-8.1-.3-9.1.4-18.2 1.6-27.2 1.6-11.8 4.8-23.1 10-33.8 6.1-12.7 14.9-23 26.6-30.9.8-.5 1.6-1.1 2.3-1.7.5-.4.9-.9 1.3-1.4.7-1 .7-2.8.1-3.6-.7-.9-1.7-.8-2.6-.7-.8.1-1.6.3-2.3.7-1.1.6-2.2 1.3-3.3 2-7.3 4.8-13.4 10.8-18.7 17.7-6.4 8.1-10.7 17.4-14.3 27-5.3 14.5-6.8 29.8-7.5 45.1zm14.2 38.3c.1-2.7-1.9-6.6-4-8.3-.8-.6-1.8-.5-2.5.3-.9 1-1.3 2.1-1.1 3.5.4 2.1 1.3 3.8 2.9 5.3.9.8 1.9 1.1 3 1.3.5.1 1.4-.4 1.6-.8-.1-.5 0-1 .1-1.3z"/><path class="st0" d="M757.8 948.8c.6-15.4 2.1-30.6 7.5-45.2 3.5-9.7 7.9-18.9 14.3-27 5.3-6.8 11.5-12.9 18.7-17.7 1.1-.7 2.1-1.4 3.3-2 .7-.4 1.5-.6 2.3-.7.9-.1 1.9-.1 2.6.7.7.8.7 2.6-.1 3.6-.4.5-.8 1-1.3 1.4-.7.6-1.5 1.2-2.3 1.7-11.7 7.8-20.4 18.2-26.6 30.9-5.2 10.7-8.5 22-10 33.8-1.2 9-1.9 18.1-1.6 27.2.1 2.7.2 5.4.5 8.1.1 1.3.1 2.5-.4 3.8-.3.9-.4 2.1-1.6 2.1-.7 0-1.4-.7-1.9-1.3-1.1-1.2-1.6-2.7-1.9-4.3-1-4.9-1.5-9.9-1.5-15.1zm14.2 38.3c-.1.4-.2.8-.3 1.3-.1.4-1.1.9-1.6.8-1.1-.2-2.1-.5-3-1.3-1.5-1.5-2.5-3.2-2.9-5.3-.2-1.3.2-2.5 1.1-3.5.7-.7 1.8-.9 2.5-.3 2.3 1.6 4.2 5.6 4.2 8.3z"/></g><g style="animation-name:offset-alternate;animation-duration:2304ms;animation-iteration-count:infinite;transform-origin:100% 100%"><path d="M948.9 972.6c-.4 4.8-.7 9.6-1.4 14.3-1.5 11.8-4.2 23.3-8.5 34.4-3.8 9.9-8.1 19.5-13.8 28.4-1.7 2.7-3.8 4.7-6.7 5.9-.1.1-.3.1-.4.2-1.1.4-2.1-.1-1.9-1.2.2-1.6.5-3.2 1-4.6.5-1.5 1.3-2.9 2.1-4.3 8.1-13 13.7-27.1 17.8-41.7 2.5-8.8 4.4-17.7 5.6-26.7.5-4 .8-8 1.2-11.9.1-.8.1-1.6.2-2.4.3-2.1 1.3-3.8 2-3.4 1.2.7 1.5 2 1.8 3.2.8 3.1.7 6.5 1 9.8zm-19.9 4.5c-.8 9.3-2.1 18.1-5.1 26.6-2 5.9-4.6 11.6-7.2 17.2-.5 1-1.1 2-1.7 2.9-.7.9-1.6 1.5-2.7 1.8-1.3.4-2.6-.4-2.8-1.8-.2-1.3-.2-2.6.3-3.8.4-1 .8-2.1 1.4-3.1 5.2-10.2 8.7-20.9 10.8-32.1.6-3.3 1.2-6.6 1.9-9.9.3-1.4.8-2.8 1.3-4.1.2-.4.7-1 1-.9.5.1 1.1.5 1.5 1 1.2 2 1.2 4.3 1.3 6.2z"/></g></svg>