<?xml version="1.0" encoding="utf-8"?>
<!-- Generator: Adobe Illustrator 22.0.1, SVG Export Plug-In . SVG Version: 6.00 Build 0)  -->
<svg version="1.1" id="Layer_1" xmlns="http://www.w3.org/2000/svg" xmlns:xlink="http://www.w3.org/1999/xlink" x="0px" y="0px"
	 viewBox="0 0 83.9 69" style="enable-background:new 0 0 83.9 69;" xml:space="preserve">
<style type="text/css">
	.st0{fill:#FFFFFF;stroke:#000000;stroke-width:2;stroke-linecap:round;stroke-linejoin:round;stroke-miterlimit:10;}
	.st1{fill:none;stroke:#000000;stroke-linecap:round;stroke-linejoin:round;stroke-miterlimit:10;}
</style>
<g>
	<path class="st0" d="M24.1,33c0,0-10.5-7.8-13.5-10.3c-3.9-3.3-1.8-5,5.2-4s18.7,7.2,21.7,4.3s12-12.7,12-12.7s3.7-3.3,5,4.8
		c0.9,5.5,2.7,14,2.7,14s2.3,2.2,6,2.8c3.7,0.6,13.7,6.8,14.5,9s-6,3.7-6,3.7l-12.5,3.2c0,0,0.8,8.2-0.5,11s-13.2-7.3-18.2-9
		s-21.7,5.3-21.7,5.3s-12.5,4-12.3-0.7C6.6,49.8,23.6,36,23.6,36S25.2,33.6,24.1,33z"/>
	<g>
		<path class="st1" d="M49.9,16.9c-0.6,5-2.5,12.6-5.3,16.9c-2.5-3-6.2-4.7-9.9-5.9c-3.7-1.2-9.4-2-13.6-3.3"/>
		<path class="st1" d="M45,33.8c6.9,1.2,17.8,3.7,24.4,6.1"/>
		<path class="st1" d="M44.7,34c-12,5.1-21.2,12.3-32,17.8"/>
		<path class="st1" d="M44.8,33.7c-0.1,3.6,0.8,7.2,2.8,10.2c1.2,1.8,2.7,3.4,3.8,5.3c1.2,2,4.6,4.4,4.8,6.7"/>
	</g>
</g>
</svg>
