<svg id="Layer_1" xmlns="http://www.w3.org/2000/svg" viewBox="0 0 775.04 851.27">
<style>
	@keyframes rotate {
		0% {
			transform: translate(242px, 360px) rotate(0deg);
		} 100% {
			transform: translate(242px, 360px) rotate(360deg);
		}
	}

	#WHEEL_x5F_1 {
		animation: rotate 6s linear infinite;
	}

	@keyframes rotate2 {
		0% {
			transform: translate(474px, 242px) rotate(0deg);
		} 100% {
			transform: translate(474px, 242px) rotate(360deg);
		}
	}

	#WHEEL_x5F_2 {
		animation: rotate2 6s linear infinite;
	}
</style>

<path d="M747.96 507c-.42-4.98-1.39-9.8-4.22-14.07-.34-.51-.43-1.18-.64-1.77-2.17-3.87-5.45-6.65-9.07-9.05-.29-.19-.58-.38-.87-.56-6.23-3.97-12.88-6.46-20.3-6.88-.87-.05-1.74-.08-2.63-.07-9.98.08-19.26 2.41-27.91 7.3-2.92 1.65-5.78 3.4-8.58 5.25-21.56 14.25-41.13 30.82-58.37 50.11-3.4 3.8-6.73 7.69-9.88 11.71-3.55 4.54-6.42 9.53-8.74 14.82-.35.8-.92 1.51-1.41 2.25l-.27 2.62c-.36 1.69-.8 3.36-1.05 5.07-.23 1.54-.5 3.14-.33 4.67.43 3.92.97 7.84 1.71 11.71.82 4.28 1.47 8.63 3.08 12.97l1.39-1.64 2.3-11.18c1.63-10.01 6.06-18.75 12.04-26.81 5.82-7.85 12.6-14.84 19.28-21.93 13.05-13.85 27.23-26.47 42.35-38.03 9.77-7.47 20.72-12.54 32.59-15.65 5.64-1.48 11.29-1.7 17.06-.53 7.83 1.59 13.2 6.3 16.69 13.12 1.26 2.45 1.53 5.52 1.77 8.35 0 .03.01.07.01.1.02.26.04.52.05.78.08 1.63-.02 3.28-.33 4.89-.07.39-.16.77-.26 1.15-.21.73-.5 1.42-.76 2.14-.25.68-.42 1.4-.59 2.11-.32 1.39-.63 2.83-1.4 4.04-.16.25-.41.54-.41.85l.06-.14c-.12 3.8-1.9 7.02-3.65 10.22-3.68 6.76-8.39 12.8-13.28 18.71-10.76 13-23.42 23.93-36.95 33.91-5.91 4.35-11.89 8.61-17.87 12.87-3.37 2.41-6.88 4.64-10.16 7.16-2.37 1.81-4.81 2.09-7.64 1.61-5.03-.86-10.08-1.56-15.14-2.26-4.9-.67-9.82-1.19-14.71-1.89-5.38-.77-10.59-2.19-15.7-4.6-1.81 5.8-1.51 11.52-1.45 17.23l.24 1.91 3.95 3.33c-.74.27-1.23.58-1.73.6-5.9.23-11.81.49-17.71.61-6.41.12-12.79-.6-19.03-1.91-19.83-4.18-37.85-12.44-54.02-24.68-4.97-3.76-9.7-7.79-14.18-12.14-7.6-7.39-13.19-15.97-16.47-26.06-1.07-1.36-1.07-2.97-1.03-4.57.07-2.72.19-5.43.28-8.14.46-13.36 5.24-25.21 12.52-36.21.77-1.17 1.82-1.76 3.2-1.78 1.12-.01 2.23.02 3.35.07 3.51.15 7.02.47 10.53.43 5.59-.07 11.17-.49 16.76-.58 10.71-.17 21.37-.98 32.04-1.89 10.88-.93 21.47-3.2 31.97-6.01 2.76-.74 5.4-1.96 8.03-3.11 1.58-.69 2.42-2.05 2.38-3.83-.01-.8.08-1.62-.1-2.39-1.09-4.73-.85-9.53-.75-14.32.04-1.79-.1-3.51-1-5.1-1.52-1.84-3.63-2.58-5.85-2.95-7.54-1.26-15.07-2.7-22.66-3.59-6.16-.72-12.4-.8-18.61-1.06-5.74-.24-11.08 1.21-15.86 4.42-3.97 2.66-7.84 5.47-11.76 8.21 1.2 1.22 2.79 1.37 4.36 1.65 5.93 1.05 11.85 2.14 17.77 3.24.29.05.54.31.82.47 5.25 1.34 10.33 1.07 15.47-.85 3.26-1.22 6.8-1.7 10.23-2.46 3.27-.73 6.55-1.4 9.83-2.08 2.18-.45 4.36-1 6.96-.02-.48.74-.72 1.6-1.25 1.86-1.98.98-4 2.07-6.13 2.58-6.99 1.68-14.05 2.92-21.28 3.18-3.65.13-7.3.7-10.93 1.21-12.19 1.7-24.43 2.84-36.75 2.71-1.56-.02-3.12-.15-4.96-.24.16-1.88 1.41-2.71 2.23-3.78l7.48-6.67c1.67-1.47 3.36-2.93 5.01-4.42.67-.6 1.25-1.29 1.95-2.02-1.64-.79-2.73.1-3.87.57-8.3 3.43-16.25 7.58-23.48 12.91-2.89 2.13-5.8 3.02-9.3 2.74-3.18-.25-6.39-.16-9.59-.24-.29-.01-.57-.24-.98-.42-.24-2.73 1.02-5.24 1.45-7.88.23-1.42 1.53-1.93 2.68-2.52 4.83-2.49 9.64-5.03 14.48-7.5 26.03-13.27 52.06-26.56 78.09-39.83l-2.74-.93-147.6 78.25c4.02-1.19 8.11-1.11 12.22-.63 1.89.22 3.78.45 5.67.55 7.76.42 15.52.78 23.27 1.17.32.02.64.03.95.07 2.22.26 2.84.83 2.92 2.95.06 1.58-.04 3.17-.08 4.76-.21 1.34-.22 2.76-.68 4.02-.9 2.45-2.04 4.81-3.09 7.2-2.47 8.77-2.43 17.78-1.52 26.66 1.17 11.47 3.79 22.7 8.51 33.32 2.92 6.57 5.95 13.09 8.94 19.64 5.39 11.77 10.95 23.47 16.1 35.34 2.34 5.4 4.05 11.1 5.73 16.76 3.15 10.59 4.8 21.52 6.42 32.41.94 6.31 1.71 12.68 1.97 19.05.3 7.18-.05 14.38-.11 21.57v4.17l-3.84-1.72.33-4.32c-.33-3.34-.68-6.67-.98-10.01-.08-.94 0-1.9 0-2.85-.37-4.86-2.12-9.3-4.23-13.6-2.05-4.17-4.79-7.91-7.85-11.39-2.57-2.91-5.68-5.13-9.32-6.53-4.23-1.63-8.38-1.63-12.43.67-3.36 1.91-6.39 4.17-8.94 7.1-3.39 3.88-6.01 8.23-8.17 12.88-1.58 3.38-2 7.02-2.27 10.65-2.46 1.64-4.84 3.22-7.13 4.75-3.93-.95-7.79-1.93-11.67-2.82-5.3-1.21-10.13.07-14.51 3.12-4.76 3.32-8.78 7.37-11.71 12.43-1.2 2.8-1.02 5.58.19 8.3 1.42 3.18 2.73 6.42 4.39 9.48 4.84 8.91 9.83 17.74 14.77 26.6.53.79 1.08 1.56 1.58 2.37.41.67.76 1.38 1.17 2.15l-10.43 21.36c.32.95.81 1.79 1.92 1.87 1.43.1 2.87.14 4.3.13 6.23-.04 12.47-.07 18.7-.18 2.2-.04 4.01.46 5.55 2.18 2.46 2.77 5.95 3.76 9.37 4.46 6.88 1.42 13.81 2.64 20.74 3.79 5.05.84 9.88.06 14.26-2.77 3.08-1.99 6.26-3.88 9.19-6.08 8.18-6.15 13.6-14.29 16.77-23.97 1.49-4.56 1.61-9.09-.57-13.52-.21-.42-.27-.91-.39-1.37-1.36-1.75-2.56-3.64-4.1-5.21-3.21-3.3-6.52-6.52-9.95-9.58-1.46-1.3-1.52-2.62-1.07-4.23.75-2.35.34-5.03 2.02-7.35 3.29.39 5.4 1.75 6.42 5.17 1.35 4.52 3.25 8.87 4.91 13.29l2.77 5c2.34 3.48 3.45 7.42 4.08 11.5.79 5.13 1.88 10.25.89 15.48-.38 2.01-.59 4.08-1.99 5.73-6.82 16.78-19.52 26.75-36.63 31.57-10.34 2.91-20.93 4.49-31.64 4.59-17.67.16-34.54-3.38-50-12.38-5.13-2.98-9.76-6.6-13.88-10.78-.1-1.1.65-1.41 1.39-1.73 2.11-.57 4.18-1.42 6.32-1.64 2.69-.28 4.38-1.45 5.19-3.98l6.18-19.86c-1.02-.15-1.77-.45-2.46-.33-5.33.9-10.69 1.71-15.97 2.87-4.89 1.08-8.7 3.83-10.91 8.49-3.28 7.71-4.9 15.8-5.6 24.11-.32 3.75 1.07 6.89 3.42 9.66 2.19 2.58 4.81 4.65 7.71 6.38 16.4 9.82 34.37 14.39 53.25 15.67 14.66.99 28.96-1.41 43.05-5.26 4.31-1.18 8.55-2.61 12.51-4.76 11.92-6.46 22.38-14.76 31.09-25.17 9.42-11.26 12.96-24.31 11.57-38.81-.09-.95-.12-1.91-.18-2.86-.76-8.7-3.05-17.02-6.35-25.14 1.38-1.12 2.43-.33 3.5.24 1.28.08 2.57.04 3.82.24 7.94 1.27 15.92 1.06 23.9.83 1.12-.03 2.24-.09 3.34-.29 12.89-2.34 25.64-5.12 37.85-10.16 16.62-6.87 32.42-15.08 46.55-26.31 9.42-7.48 17.99-15.81 25.41-25.3.85-1.08 1.7-1.95 2.4-3.26 1.31-1.71 2.02-2.1 2.86-3.55-.11.15-.31.06-.55-.19-1.59 0-6.07.81-6.45.33-1.57-1.98-3.45-3.16-6.06-3.38-2.51-.21-4.18-2.14-5.93-3.87-1.84 1.78-2.73 3.86-3.84 5.77-5.83 9.98-12.49 19.34-20.46 27.74-10.15 10.71-22.06 18.98-35.45 25.05-11.82 5.36-24.02 9.73-36.86 11.94-4.08.7-8.26 1.07-12.4 1.11-5.75.06-11.51-.3-17.26-.52-2.08-.08-4.13-.38-6.24-1.56-2.07-4.64-4-9.52-5.81-14.46-2.57-7-2.9-14.39-4.16-21.61-1.59-9.13-3.04-18.29-4.9-27.37-2.19-10.66-3.77-21.41-5.7-32.1-2.99-16.6-8.06-32.55-15.84-47.61-2.64-5.1-4.69-10.5-6.99-15.78-.31-.7-.46-1.47-.79-2.59 1.98.62 2.63 2.17 3.65 3.21 1 1.01 1.73 2.29 2.58 3.45.88.67 1.82 1.28 2.64 2.03 11.24 10.34 23.64 18.97 37.34 25.74 11.1 5.48 22.93 8.76 34.92 11.55 9.97 2.33 20.06 3.94 30.26 4.56 10.84.66 21.71.82 32.48-1.06 2.08-.36 4.07-.3 6.16.03 7.41 1.16 14.86 2.04 22.26 3.26 6.45 1.06 12.84 2.44 19.26 3.67.69.28 1.38.57 2.32.96-2.01 5.17-4.78 9.65-7.09 14.34-2.33 4.73-4.72 9.42-7.08 14.1 1.26 2.76 2.98 4.71 6.03 4.95 3 .24 4.88 2.15 6.72 4.19.67.85 1.92 3.14 2.69 3.92.4 0 .63.05.55.19 2.43-3.37 3.96-4.76 5.48-7.16 2.37-3.75 5.02-7.33 7.32-11.12 2.13-3.52 3.98-7.21 5.92-10.84 1.01-1.89 1.35-3.86.57-5.96-.21-.58-.22-1.23-.32-1.85-2.08-6.9-5.34-13.28-8.94-19.47-2.22-3.82-5.64-6.35-9.86-7.89-.11 2.18-.3 4.2-.26 6.21.02.9.32 1.89.79 2.66 1.36 2.2 2.27 4.51 2.63 7.1.17 1.21.8 2.39 1.35 3.51.78 1.57 1.42 3.13 1.05 5.13-2.56-.06-4.44-.9-5.66-3-.48-.83-1.13-1.65-1.27-2.55-.54-3.52-1.8-6.71-3.54-9.79-.5-.88-.55-2.2-.38-3.25.34-2.14 0-4.05-.84-6.03-1.05-2.46-.93-2.51-3.67-4.15.76-1.48 2.11-2.22 3.48-2.94 13.16-10.69 25.82-21.93 37.48-34.25 4.94-5.22 9.82-10.54 14.23-16.2 12.03-15.42 18.17-32.83 16.51-52.63zM476.8 487.02c-.67.19-1.11.42-1.57.43-3.28.03-6.57.02-10.01.02 2.29-1.67 8.94-4.77 12.38-5.81.11.29.36.61.3.86-.33 1.52-.74 3.04-1.1 4.5zm-7.42 213.97c1-4.08 3-7.33 6.69-9.44 1.52-.87 2.97-1.89 4.55-2.59 2.59-1.16 3.67-.87 5.41 1.26 4.07 4.99 7.24 10.47 8.82 16.77 1.13 4.49 1.92 9.04 1.45 13.7.38 1.39.63 2.77-.2 4.31-1.89-.11-3.55-.99-5.16-1.9-1.79-1-3.5-2.15-5.22-3.28-4.15-2.71-8.6-4.67-13.52-5.48-1.07-.18-2.14-.41-3.5-.68-.06-1.25-.11-2.46-.17-3.68-.11-3.03.12-6.01.85-8.99zm25.9 37.69c.05.47-.49.48-.58.92-.24 1.1-.87 1.5-1.27 1.39-5.98-3.9-12.05-7.66-18.58-10.58-2.04-.91-2.75-2.36-2.92-4.37 1.93-1.17 3.46.22 5.1.47 1.54.2 3.16.16 4.61.64 3.42 1.13 6.74 2.57 10.15 3.75 3.05 1.06 4.15 3.1 3.59 6.19-.06.31-.1.62-.15.93.03.23.04.45.05.66zm-7.73 23.53c-5.41 1.57-9.2-.05-13.23-5.94 5.04 1.16 9.77 3.33 13.23 5.94zm-46.4-16.08c-.46-.86-.8-1.49-1.21-2.24 2.22-.02 2.22-.02 1.21 2.24zm9.45 18.21c-1.76-3.36-3.5-6.73-5.25-10.1-.2-.72-.4-1.43-.61-2.15l-.09-2.61c-.05-.47-.2-.97-.12-1.42.35-2.01 1.14-2.64 2.85-2.25.78.17 1.53.45 2.29.71 1.46.51 2.41 1.43 2.71 3.04.7 3.82 2.16 7.41 4.36 10.57 1.81 2.6 4.1 4.88 6.17 7.29 2.46 1.37 4.91 2.74 7.37 4.11-.43 1.32-1.37.89-2.04.93-3.54.21-6.94-.47-10.2-1.8-3.16-1.29-5.82-3.21-7.44-6.32zM509 774.9c1.95 1.63 3.83 3.34 5.73 5.02l2.37 1.78c-.44 1.83-1.48 1.84-2.34 2.06-5.46 1.4-11.02 1.35-16.58 1-10.78-.68-21.55-1.5-32.33-2.08-2.32-.12-3.89-.92-5.09-2.8-.82-1.29-1.92-2.42-2.42-4.5l3.44.93c6.84 1.43 13.67.68 20.47-.22 5.12-.68 9.83-2.66 14.25-5.32 1.08-.65 2.17-1.29 3.29-1.95 3.6 1.39 6.41 3.74 9.21 6.08z"/><path fill="#FFF" d="M682.63 677.38c-1.83-2.04-3.72-3.95-6.72-4.19-3.05-.24-4.77-2.2-6.03-4.95 2.36-4.69 4.76-9.38 7.08-14.1 2.31-4.7 5.08-9.18 7.09-14.34l-2.32-.96c-.66.87-1.53 1.65-1.96 2.62-5.35 12-11.69 23.48-17.91 35.02-1.14 2.1-2.51 4.09-3.9 6.04-4.45 6.25-8.65 12.66-13.51 18.64-4.49 5.52-9.62 10.26-15.25 14.5-10.7 8.05-22.54 13.96-35.16 18.35-8.77 3.05-17.58 5.95-26.84 7.1-2.22.28-4.46.53-6.69.54-7.19.02-14.39.2-21.56-.71-2.34-.3-3.7-1.22-4.58-3.48-2.92-7.46-5.63-14.98-6.87-22.93-.59-3.79-.87-7.62-1.37-11.42s-.97-7.62-1.71-11.38c-1.81-9.26-3.79-18.48-5.64-27.72-.47-2.35-.75-4.73-1.07-7.11-1.5-11.28-4.07-22.34-7.19-33.26-1.01-3.52-2.46-6.93-3.9-10.3-3.27-7.65-6.65-15.24-9.97-22.86-.18-.42-.16-.93-.23-1.41-.85-1.16-1.58-2.43-2.58-3.45-1.02-1.04-1.67-2.59-3.65-3.21.34 1.12.49 1.89.79 2.59 2.29 5.28 4.35 10.68 6.99 15.78 7.78 15.06 12.85 31.02 15.84 47.61 1.93 10.7 3.5 21.45 5.69 32.1 1.86 9.08 3.31 18.24 4.9 27.37 1.26 7.22 1.59 14.61 4.16 21.61 1.81 4.95 3.74 9.83 5.81 14.46 2.1 1.18 4.15 1.48 6.23 1.56 5.75.22 11.51.58 17.26.52 4.14-.04 8.32-.41 12.4-1.11 12.84-2.21 25.05-6.59 36.86-11.94 13.38-6.07 25.29-14.34 35.45-25.05 7.97-8.4 14.64-17.76 20.46-27.74 1.12-1.92 2.01-4 3.85-5.77 1.74 1.73 3.42 3.66 5.93 3.86 2.61.21 4.49 1.4 6.06 3.38.48.61 3.9 2.43 4.53 2.93 1.07-1.31 3.11-2.75 4.71-5.97-.8-.08-2.77-.02-3.5-.23-.7-.2-1.33-.65-1.98-.99z"/><path fill="#FFF" d="M724.35 548.42c-11.2 13.72-24.49 25.17-38.73 35.57-8.51 6.21-17.07 12.36-25.74 18.36-4.94 3.42-4.36 3.16-10.2 2.26-9.47-1.47-18.99-2.57-28.46-4-3.61-.55-7.17-1.52-10.72-2.45-3.61-.94-6.26-3.09-7.59-6.7-.16-.44-.5-.81-.75-1.21l-2.3 11.18c.03.47.18.97.06 1.4-1.21 4.21.16 8.07 1.68 11.87.44 1.1 1.43 1.99 2.17 2.97-.06-5.7-.36-11.43 1.45-17.23 5.11 2.41 10.33 3.83 15.7 4.6 4.9.7 9.82 1.22 14.71 1.89 5.05.69 10.11 1.4 15.14 2.26 2.82.48 5.27.2 7.64-1.61 3.28-2.52 6.79-4.75 10.16-7.16 5.97-4.27 11.96-8.52 17.87-12.87 13.53-9.97 26.19-20.91 36.95-33.91 4.89-5.91 9.59-11.96 13.28-18.71 1.75-3.2 3.53-6.43 3.65-10.23-.39.47-.9.89-1.15 1.43-3.76 8.22-9.15 15.35-14.82 22.29zm19.48-59.32c-.58-2.75-2.01-5-4.07-6.9-9.96-9.21-21.63-13.29-35.17-11.75-9.37 1.06-17.98 4.25-25.91 9.35-12.93 8.3-25.36 17.27-36.95 27.37-10.62 9.25-20.48 19.28-29.87 29.76-5.78 6.46-10.75 13.51-14.34 21.44-1.11 2.46-2.33 4.93-2.22 7.76.5-.78 1.1-1.5 1.47-2.34 2.32-5.29 5.19-10.28 8.74-14.82 3.14-4.02 6.47-7.9 9.87-11.71 17.24-19.28 36.81-35.86 58.37-50.11 2.8-1.85 5.66-3.6 8.58-5.25 8.65-4.89 17.93-7.21 27.91-7.3 8.85-.08 16.6 2.74 23.8 7.52 3.62 2.4 6.9 5.18 9.07 9.05.85-.48.89-1.26.72-2.07zM412.66 783.86c.68-.11 1.44.18 2.46.33-2.12 6.83-4.15 13.34-6.18 19.86.14.77.28 1.55.41 2.29 2.69.58 10.01.56 12.26.14 1.47-.27 1.81-1.66 2.78-2.41l10.43-21.36c-.41-.77-.76-1.48-1.17-2.15-.49-.81-1.05-1.58-1.58-2.37-11.18.21-22.28 1.25-33.2 3.74-2.01.46-4.04 1.05-5.86 1.97-3.99 2-6.78 5.23-8.47 9.35-.45 1.08-4.89 19.66-3.63 19.79 5.86-23.82 10.9-25.23 15.79-26.31 5.26-1.17 10.62-1.98 15.96-2.87zm146.41-168.74c-23.2-6.83-42.9-19.27-59.77-36.42-5.43-5.53-9.63-11.86-12.49-19.08-.37-.94-.88-1.82-1.67-3.43l-.32 3.15c3.28 10.08 8.87 18.67 16.47 26.06 4.48 4.35 9.22 8.38 14.18 12.14 16.16 12.25 34.19 20.51 54.02 24.69 6.24 1.31 12.62 2.04 19.03 1.91 5.91-.11 11.81-.37 17.71-.61.5-.02.99-.33 1.73-.6l-3.95-3.33c-2.71.03-5.42-.03-8.13.1-12.54.61-24.75-1.03-36.81-4.58zM424.43 721.38c4.38-3.06 9.2-4.34 14.51-3.12 3.88.89 7.73 1.86 11.67 2.82l7.13-4.75c.27-3.63.69-7.27 2.27-10.65 2.17-4.65 4.78-9 8.17-12.88 2.56-2.93 5.59-5.19 8.94-7.1 4.05-2.3 8.2-2.3 12.43-.67 3.64 1.4 6.75 3.62 9.32 6.53 3.07 3.48 5.81 7.22 7.86 11.39 2.11 4.3 3.86 8.75 4.23 13.6.12-1.4.51-2.84.33-4.2-1.35-9.81-5.85-18.12-12.42-25.38-2.95-3.25-6.53-5.57-10.76-6.87-3.36-1.03-6.61-.84-9.75.77-6.03 3.11-11.36 7.04-15.26 12.74-4.2 6.13-7.32 12.68-8.19 20.15l-4.2 3.07c-2.27-.66-4.23-1.37-6.25-1.78-2.96-.59-5.95-1.15-8.95-1.39-3.6-.29-6.95.82-9.97 2.79-4.87 3.18-8.91 7.23-12.05 12.13-.51.8-.93 1.67-1.26 2.56-.35.95-.22 1.88.51 2.66 2.91-5.05 6.93-9.11 11.69-12.42zm272.23-99.86c-2.09-4.09-5.69-6.77-9.86-8.6-2.32-1.02-4.71-1.87-7.07-2.8-1.37.72-2.72 1.46-3.48 2.94 2.74 1.64 2.62 1.69 3.67 4.15.84 1.98 1.18 3.89.84 6.03-.16 1.05-.12 2.37.38 3.25 1.74 3.08 3.01 6.28 3.54 9.79.14.89.79 1.72 1.27 2.55 1.21 2.11 3.1 2.94 5.66 3 .37-2.01-.27-3.56-1.05-5.13-.56-1.12-1.19-2.3-1.36-3.51-.36-2.59-1.27-4.9-2.63-7.1-.47-.77-.77-1.76-.79-2.66-.03-2.02.16-4.04.27-6.21 4.23 1.54 7.65 4.07 9.87 7.89 3.59 6.19 6.85 12.57 8.94 19.47.25-.72.76-1.46.7-2.15-.1-1.24-.35-2.54-.86-3.68-2.61-5.78-5.16-11.59-8.04-17.23zM539.74 749.29c-1.07-.57-2.12-1.36-3.5-.24 3.31 8.13 5.6 16.45 6.35 25.14 1.1-.93 1.09-2.22 1.14-3.5.22-5.78-.54-11.42-2.43-16.9l-1.56-4.5zm-24.31-18.02l-3.5-1.87c-.11 1.4-.22 2.8-.33 4.32l3.84 1.72-.01-4.17z"/><path fill="#FFF" d="M526.27 798.98c-.4.69-.72 1.43-1.15 2.1-4.69 7.38-10.41 13.77-18.07 18.18-4.86 2.8-10.01 4.97-15.46 6.41-15.29 4.02-30.76 5.59-46.54 3.6-16.38-2.06-31.3-7.56-44.21-18.03-1.04-.84-2.09-1.44-3.4-1.57-.74.32-1.49.63-1.39 1.73 4.12 4.18 8.75 7.79 13.88 10.78 15.46 9 32.33 12.53 50 12.38 10.7-.1 21.3-1.68 31.64-4.59 17.11-4.82 29.82-14.78 36.63-31.57l-.8-1.26c-.48.76-.82 1.29-1.13 1.84zm60.46-322.07c-3.28.68-6.56 1.35-9.83 2.08-3.43.76-6.97 1.23-10.23 2.45-5.14 1.92-10.22 2.2-15.47.85-7.27.52-14.54 1.09-21.82 1.52-4.91.29-9.83.39-14.74.58-.82 1.07-2.07 1.9-2.23 3.78 1.84.1 3.4.23 4.96.25 12.33.14 24.56-1 36.75-2.7 3.63-.51 7.27-1.08 10.93-1.21 7.22-.27 14.29-1.5 21.28-3.18 2.13-.51 4.14-1.6 6.13-2.59.53-.27.77-1.12 1.25-1.86-2.62-.97-4.8-.42-6.98.03zM465.85 782.67c10.78.58 21.55 1.4 32.33 2.08 5.56.35 11.12.4 16.58-1 .86-.22 1.91-.22 2.35-2.06l-2.37-1.78c-3.96.22-7.93.77-11.87.6-9.67-.41-19.33-1.13-28.98-1.74-3.01-.19-6.01-.46-9.02-.62-1.4-.08-2.43-.61-3.08-1.85l-3.44-.93c.5 2.08 1.6 3.21 2.42 4.5 1.19 1.89 2.75 2.68 5.08 2.8zm30.45-61.98c-3.19-.58-5.81-2.34-8.51-3.97-2.69-1.63-5.39-3.28-8.24-4.61-3.45-1.61-7.11-2.59-11.01-2.12l.17 3.68c1.36.27 2.43.51 3.5.68 4.92.81 9.37 2.78 13.52 5.48 1.72 1.12 3.43 2.27 5.22 3.28 1.61.9 3.26 1.79 5.16 1.9.83-1.55.57-2.93.19-4.32zm-45.87 38.51c-1.21-2.22-2.37-4.47-3.63-6.65-.62-1.07-1.43-2.04-2.15-3.05l.09 2.61c.2.72.4 1.43.61 2.15 1.75 3.36 3.49 6.73 5.25 10.09 1.62 3.11 4.28 5.03 7.43 6.32 3.26 1.33 6.67 2.01 10.2 1.8.67-.04 1.6.39 2.04-.93-2.45-1.37-4.91-2.74-7.37-4.11-5.59-.57-9.77-3.28-12.47-8.23zm44.85-20.52c-.02-.22-.04-.38-.04-.65-4.61-2.94-9.21-5.89-13.83-8.82-1.44-.92-2.92-1.79-4.37-2.69-1.64-.26-3.17-1.64-5.1-.47.17 2.01.88 3.46 2.92 4.37 6.53 2.92 12.6 6.68 18.58 10.58 1.85 1.39 1.97-.91 1.84-2.32zm13.82 10.9c-.44 1.61-.38 2.93 1.07 4.23 3.43 3.07 6.74 6.29 9.95 9.58 1.53 1.57 2.74 3.47 4.1 5.21 1.37-.62.76-1.92.99-2.93l-2.77-5c-1.16-1.08-2.34-2.15-3.49-3.25-2.43-2.31-4.85-4.63-7.26-6.97-.74-.69-1.57-1.02-2.59-.87zm-21.55 12.63c-3.46-2.61-8.2-4.78-13.23-5.94 4.03 5.89 7.83 7.51 13.23 5.94z"/><path fill="#FFF" d="M482.83 487.28c3.2.09 6.41-.01 9.59.24 3.51.27 6.41-.61 9.3-2.75 7.23-5.34 15.18-9.48 23.48-12.91 1.14-.47 2.23-1.35 3.87-.57-.69.72-1.28 1.41-1.95 2.02-1.65 1.49-3.34 2.95-5.01 4.42 2.09.06 4.19.31 6.13-.8 3.92-2.74 7.79-5.55 11.76-8.21 4.78-3.21 10.11-4.66 15.86-4.42 6.21.26 12.45.34 18.61 1.06 7.59.89 15.12 2.33 22.66 3.59 2.23.37 4.34 1.11 5.85 2.95.89-.14 1.58-.65 1.43-1.56-.15-.89-.49-1.86-1.05-2.56-1.81-2.29-4.5-2.94-7.19-3.45-3.46-.64-6.93-1.17-10.4-1.77-9.48-1.63-19.02-2.66-28.63-2.47-3.97.08-8.02.41-11.89 1.26-14.99 3.29-28.88 9.27-41.62 17.87-6.66 4.5-6.68 4.47-14.65 4.02-.16-.01-.32-.01-.48-.04-.6-.09-1.3-.05-1.23-1.27l-5.45 4.15c0 .25 0 .51.02.76.41.2.7.43.99.44zM637.88 239.85c-7.51-14.66-15.07-29.29-22.64-43.92-18.82-36.35-37.65-72.7-56.51-109.04-5.6-10.79-11.39-21.47-16.88-32.31-3.61-7.12-11.81-10.24-19.03-6.81-3.03 1.44-6.03 2.95-9.02 4.47-22.53 11.43-45.11 22.76-67.56 34.33-55.58 28.64-111.12 57.32-166.63 86.1-58.49 30.32-116.91 60.76-175.37 91.14-2.13 1.11-4.27 2.18-6.43 3.23-6.6 3.23-13.25 6.37-19.81 9.7-7.55 3.83-15.02 7.81-22.51 11.77-1.13.59-2.21 1.3-3.22 2.08-4.4 3.4-6.17 8.78-4.54 14.1.61 1.98 1.42 3.92 2.35 5.77 4.94 9.86 9.88 19.73 14.95 29.52 29.99 57.94 60.01 115.86 90.05 173.77 1.62 3.12 3.53 6.08 5.34 9.1 1.98 3.3 4.87 4.98 8.95 4.74 2.66.24 5.16-.72 7.6-2.03 11.7-6.25 23.26-12.74 35.13-18.7 29.29-14.71 58.38-29.82 87.49-44.88 54.54-28.21 109.03-56.5 163.55-84.75 59.62-30.9 119.25-61.79 178.85-92.74 2.1-1.09 4.1-2.53 5.82-4.15 4.68-4.4 5.6-9.52 2.77-15.24-4.15-8.44-8.4-16.86-12.7-25.25zm-517.36 59.13c.97-.81 1.99-1.61 3.1-2.21 3.79-2.07 7.59-4.12 11.43-6.08 40.02-20.39 80.05-40.79 120.09-61.15 52.01-26.45 104.02-52.89 156.04-79.31 33.07-16.79 66.15-33.56 99.24-50.3 5.7-2.89 11.49-5.61 17.24-8.42 1.28-.63 2.55-1.37 4.07.09-.3.51-.48 1.19-.92 1.51-1.16.83-2.4 1.59-3.67 2.24-19.62 10.09-39.23 20.18-58.88 30.21-46.28 23.61-92.56 47.22-138.86 70.77-46.02 23.41-92.07 46.78-138.12 70.14-19.96 10.12-39.96 20.17-59.94 30.24-2.28 1.15-4.58 2.27-6.91 3.34-.86.4-1.78.75-2.71.88-.48.06-1.14-.32-1.52-.7-.16-.17.04-1.01.32-1.25zm-47.18 1.63c.68-.41 1.38-.8 2.09-1.16 7.07-3.69 14.13-7.39 21.21-11.06 1.39-.72 2.71-1.75 4.91-1.32.69 1.04 1.66 2.29 2.39 3.66 3.99 7.45 7.97 14.91 11.83 22.43 1.29 2.52 2.66 5.08 2.71 7.9-.92 1.66-2.35 2.43-3.75 3.14-8.25 4.18-16.52 8.31-24.79 12.45-.57.29-1.16.55-1.76.73-1.66.5-2.63.11-3.64-1.42-.26-.4-.49-.82-.71-1.25-4.39-8.5-8.84-16.97-13.14-25.52-2.62-5.21-2.44-5.52 2.65-8.58zm72.22 181.61c-.14-.08-.3-.17-.37-.3-1.06-1.97-2.13-3.94-3.16-5.92-19.81-38.34-39.61-76.68-59.73-115.64 3.81-2.09 7.12-4.01 10.51-5.75 19.77-10.15 39.56-20.26 59.35-30.38 33.17-16.96 66.38-33.82 99.5-50.88 46.47-23.95 92.86-48.06 139.31-72.06 39.77-20.55 79.57-41.04 119.36-61.55 12.79-6.59 25.56-13.22 38.4-19.71 4.99-2.52 10.16-4.67 15.26-6.97.26-.12.62-.01 1.32-.01l62.46 120.57c-.62.49-1.14 1.06-1.79 1.39-24.02 12.37-48.06 24.7-72.07 37.09-34.1 17.59-68.18 35.22-102.26 52.85-40.75 21.08-81.48 42.21-122.26 63.26-29.27 15.11-58.6 30.08-87.88 45.17-30.55 15.75-61.08 31.56-91.61 47.34-1.26.65-2.52 1.28-3.55 1.8-.5-.19-.66-.22-.79-.3zm498.21-205.77c-1.54 1.35-3.35 2.46-5.18 3.41-20.45 10.58-40.93 21.1-61.39 31.67-32.96 17.02-65.92 34.06-98.87 51.1-43.89 22.69-87.8 45.35-131.66 68.1-46.14 23.92-92.23 47.91-138.33 71.9-3.97 2.07-7.8 4.4-11.76 6.5-2.53 1.34-5.22 2.38-7.76 3.7-2.54 1.33-5.06 2.73-7.46 4.29-3.28 2.13-6.85 3.41-10.62 4.26-2.29.52-4.06-.09-5.32-2.16-5.95-9.86-11.68-19.84-16.53-30.3-.06-.13-.01-.31-.01-1.21l481.29-248.74c.35.42.82.82 1.08 1.33 4.54 8.63 9.07 17.27 13.59 25.9.22.43.41.87.62 1.3 1.72 3.73 1.35 6.3-1.69 8.95z"/><path fill="#FFF" d="M726.43 327.44c-.69-1.26-1.29-2.58-1.95-3.85-18.43-35.48-36.91-70.94-55.28-106.46-15.35-29.69-30.5-59.49-45.88-89.17-12.29-23.71-24.79-47.32-37.18-70.98-6.9-13.17-13.83-26.34-20.65-39.56-2.15-4.17-4.78-7.9-8.21-11.12-6.7-6.28-17.09-8.15-25.42-4.32-9.3 4.28-18.59 8.58-27.81 13.02-42.66 20.54-84.98 41.76-127.11 63.37-35.29 18.1-70.47 36.43-105.73 54.61-38.24 19.71-76.51 39.37-114.77 59.04-23.33 11.99-46.67 23.97-69.99 35.97-12.37 6.37-24.74 12.73-37.07 19.18-7.09 3.71-14.13 7.49-21.11 11.39-4.74 2.65-9.37 5.51-13.98 8.38-3.7 2.3-6.67 5.46-9.45 8.79-2.08 2.49-3.63 5.33-4.14 8.55-.89 5.56-1.16 11.19.61 16.61 1.18 3.63 2.77 7.15 4.43 10.59 2.65 5.47 5.55 10.82 8.31 16.23 16.06 31.49 32.07 63 48.17 94.47 8.3 16.23 16.68 32.43 25.14 48.58 14.92 28.48 29.94 56.9 44.88 85.36 6.17 11.76 12.2 23.58 18.35 35.35 3.93 7.51 7.95 14.97 11.92 22.46 2.27 4.27 5.27 8 8.51 11.56 2.92 3.21 6.5 5.17 10.8 5.65 6.8.76 13.4.11 19.6-3.09 7.25-3.74 14.55-7.38 21.79-11.12 19.47-10.05 38.86-20.25 58.4-30.16 37.08-18.82 74.26-37.46 111.37-56.23 13.98-7.08 27.88-14.32 41.8-21.53.55-.29 1.22-.49 1.77-.92l44.9-23.29 5.82-2.85c.95-.54 2.02-1.19 3.14-1.76 15.05-7.81 30.06-15.69 45.16-23.39 37.18-18.97 74.35-37.98 111.64-56.73 22.28-11.21 44.81-21.94 67.2-32.96 6.39-3.15 11.05-8.15 13.98-14.6.9-1.98 1.27-4.29 1.5-6.48.67-6.52-.27-12.77-3.46-18.59zm-13.99 34.6c-18.28 9.18-36.86 17.79-55.12 27.03-52.34 26.52-104.58 53.24-156.86 79.88l-63.78 29.21-15.75 12h.01c-24.62 12.6-49.18 25.31-73.92 37.66-49.21 24.57-98.15 49.65-147.04 74.84-2.54 1.31-5.26 2.39-8.02 3.1-7.44 1.93-13.91.28-18.92-5.86-.5-.62-.99-1.26-1.48-1.89-3.94-5.09-6.73-10.87-9.72-16.52-9.85-18.66-19.61-37.38-29.41-56.06-7.8-14.86-15.7-29.68-23.42-44.59C93.37 470.59 77.8 440.3 62.25 410c-14.83-28.87-29.64-57.75-44.37-86.68C13.9 315.5 9.3 308 6.46 299.61c-2.73-8.07-1.92-15.49 3.68-22.02 1.95-2.27 4.33-4.28 6.8-5.99 8.18-5.64 16.98-10.23 25.75-14.85 8.06-4.24 16.3-8.15 24.38-12.36 21.41-11.15 42.67-22.6 64.19-33.54 58.72-29.85 117.3-59.97 175.71-90.42 51.32-26.76 102.87-53.06 154.73-78.77 23.92-11.86 47.9-23.6 72.17-34.73 1.9-.87 3.8-1.59 5.93-1.77 5.26-.44 9.72 1.33 13.68 4.66 3.14 2.64 5.18 6.05 7.04 9.61 3.39 6.52 6.71 13.09 10.14 19.6 9.47 17.96 19.11 35.84 28.45 53.87 22.36 43.16 44.55 86.4 66.87 129.58 17.91 34.66 35.93 69.26 53.87 103.91 1.54 2.98 2.91 6.06 4.1 9.19.67 1.76 1.1 3.71 1.16 5.59.31 9.68-4.31 16.67-12.67 20.87z"/><path d="M581.55 95.92l-.03-.07c-.02-.04-.04-.08-.05-.13-.02.06-.03.12-.05.19.04.01.09.01.13.01z"/><path d="M725.11 341.18c-.06-1.88-.49-3.83-1.16-5.59-1.19-3.13-2.56-6.21-4.1-9.18-17.93-34.65-35.95-69.25-53.87-103.91-22.32-43.18-44.51-86.42-66.87-129.58-9.34-18.03-18.98-35.9-28.45-53.87-3.43-6.51-6.75-13.07-10.14-19.59-1.85-3.56-3.9-6.98-7.04-9.61-3.97-3.33-8.42-5.1-13.68-4.66-2.13.18-4.03.9-5.93 1.77-24.27 11.13-48.25 22.87-72.17 34.73-51.86 25.7-103.41 52.01-154.73 78.77-58.41 30.45-116.99 60.57-175.71 90.42-21.52 10.94-42.78 22.39-64.19 33.54-8.08 4.21-16.32 8.12-24.38 12.36-8.77 4.61-17.57 9.21-25.75 14.85-2.48 1.71-4.85 3.72-6.8 5.99-5.61 6.53-6.42 13.94-3.68 22.02 2.84 8.39 7.45 15.9 11.42 23.71 14.72 28.92 29.54 57.8 44.37 86.68 15.56 30.3 31.12 60.59 46.76 90.84 7.71 14.91 15.61 29.72 23.41 44.59 9.81 18.69 19.56 37.4 29.41 56.06 2.98 5.65 5.77 11.43 9.72 16.51.49.63.97 1.27 1.48 1.89 5.01 6.14 11.48 7.79 18.92 5.86 2.76-.72 5.48-1.79 8.02-3.1 36.82-18.98 73.67-37.89 110.64-56.56l117.59-59.67 150.34-77.32c26.24-13.38 52.49-26.74 78.77-40.05 18.25-9.25 36.83-17.85 55.12-27.03 8.37-4.21 13-11.2 12.68-20.87zm-65.37-52.06c-.34.73-.5 1.58-1.01 2.02-1.08.93-2.27 1.77-3.53 2.42-18.17 9.33-36.36 18.63-54.56 27.91-1.42.72-2.88 1.39-4.39 1.88-.64.21-1.45-.11-2.07-.18-.5-1.45.25-2.13 1.03-2.62 1.76-1.1 3.56-2.14 5.39-3.1 13.29-6.95 26.59-13.89 39.9-20.82 4.53-2.36 9.06-4.72 13.61-7.03 1.69-.84 3.41-1.8 5.63-.48zM581.33 94.68c.1-.04.38.08.37.09-.07.32-.16.64-.24.96l.06.13.03.07c.4.02.91-.05 1.11.16.52.58.85 1.34 1.27 2.02 8.67 14.02 16.39 28.56 23.78 43.28.71 1.41 1.52 2.76 2.36 4.29 1.7-.64 3.16-1.22 4.64-1.71.63-.21 1.34-.07 1.53.69.09.38-.05 1.03-.33 1.26-1.22 1-2.53 1.88-4.06 2.99l1.46 3.2c2.34.65 4.3-2.26 6.47-.18-.06 2.57-2.86 2.73-4.15 4.71 6.01 12.49 12.46 24.93 18.84 37.42h3.86l-1.84 3.52c3.92 9.42 10.06 17.8 12.76 27.74.02.06-.2.19-.53.49-6.15-8.4-10-18.1-15.26-26.97-1.6.46-2.95.88-4.31 1.21-.23.06-.73-.18-.79-.39-.13-.4-.22-1.06 0-1.26 1.04-.95 2.18-1.78 3.53-2.85-6.41-12.57-12.96-24.97-19.58-37.13-2.99-.59-4.94 2.82-7.86 1.51.9-2.11.9-2.11 5.26-5.25.28-1.55-.66-2.65-1.46-3.76-.37-.07-.71-.25-.97-.16-1.35.48-2.67 1.09-4.03 1.52-.52.16-1.15-.02-1.88-.06 1.02-2.55 3.86-2.63 5.16-4.78-.64-1.31-1.31-2.74-2.03-4.15-4.71-9.26-9.55-18.46-14.11-27.8-3.15-6.44-5.92-13.05-8.86-19.59-.04 0-.09 0-.13-.01.02-.06.03-.12.05-.19-.1-.23-.21-.47-.28-.71-.02-.07.08-.28.16-.31zm-47.96-65.44c.62.65 1.23 1.32 1.88 1.96 3.11 3.06 6.79 3.89 10.96 2.73 1.07-.3 2.1-.77 3.19-.93.72-.11 1.49.19 2.33.32.29 3.61-1.72 5.42-4.45 6.69-1.93.9-4.01.97-6.07.58-4.18-.78-7.21-3.2-9.22-6.87-1-1.82-.67-2.68 1.38-4.48zM27.31 303.48h-.02c-4.29-.29-7.59-1.59-9.79-4.92-.42-.64-.61-1.44-.84-2.18-.16-.52.75-1.34 1.2-1.11.56.28 1.1.6 1.61.97 1.86 1.36 3.99 1.86 6.24 2.07 3.57.33 6.15-1.18 7.9-4.19.79-1.36 1.37-2.86 2.2-4.19.26-.41 1.14-.77 1.59-.64.45.13.96.86 1.03 1.38.89 6.33-4.78 12.81-11.12 12.81zm42.71 85.63c-5.87-11.35-11.73-22.71-17.61-34.06-.73-1.4-1.5-2.77-2.06-3.8-1.9-1.07-3.28 1.35-4.83-.07-.07-1.87 1.99-1.9 2.64-3.11.04-.31.2-.67.09-.91-.7-1.58-1.46-3.14-2.09-4.45-2.73-.81-4.47 2.57-7.11.91.36-3.02 3.78-2.83 4.89-4.9-.09-2.19-2.37-3.87-1.53-6.54 2.53.79 2.68 3.48 4.38 4.94 1.47.38 2.53-.84 3.83-1.29 1.05-.36 2.1-.84 3.18.19-.2 2.97-3.66 2.75-4.9 4.95.39 1.79 1.45 3.35 2.65 5.12l5.22-1.7c.04.82.29 1.6.04 1.83-1.03.96-2.22 1.75-3.59 2.79.3.79.54 1.68.95 2.48 5.57 10.79 11.18 21.55 16.73 32.35 1.97 3.83 3.86 7.71 5.65 11.63.85 1.85 1.36 3.86 2.03 5.79-3.92-3.43-6.29-7.76-8.56-12.15zm99.36 138.49c-4.08.24-6.97-1.44-8.95-4.74-1.81-3.02-3.73-5.98-5.34-9.1-30.04-57.91-60.06-115.83-90.05-173.77-5.07-9.8-10.01-19.66-14.95-29.52-.93-1.85-1.74-3.79-2.35-5.77-1.63-5.32.14-10.7 4.54-14.1 1.01-.78 2.09-1.49 3.22-2.08 7.49-3.95 14.96-7.93 22.51-11.77 6.56-3.33 13.21-6.46 19.81-9.7 2.15-1.05 4.3-2.13 6.43-3.23 58.45-30.38 116.88-60.82 175.37-91.14 55.51-28.77 111.05-57.46 166.63-86.1 22.46-11.57 45.04-22.9 67.56-34.33 2.99-1.52 5.99-3.03 9.02-4.47 7.22-3.43 15.43-.31 19.04 6.81 5.49 10.84 11.29 21.52 16.88 32.31 18.85 36.34 37.68 72.69 56.5 109.04 7.57 14.62 15.13 29.26 22.64 43.92 4.3 8.39 8.55 16.81 12.72 25.27 2.82 5.72 1.91 10.85-2.77 15.24-1.73 1.62-3.73 3.06-5.83 4.15-59.6 30.95-119.23 61.83-178.86 92.74C408.63 405.5 354.14 433.79 299.6 462c-29.11 15.06-58.2 30.17-87.5 44.88-11.87 5.96-23.43 12.45-35.13 18.7-2.43 1.3-4.94 2.27-7.59 2.02zm55.36-2.03c-1.02.97-2.05 2.02-3.27 2.65-9.04 4.69-18.13 9.3-27.21 13.92-1.98 1.01-3.96 2.03-5.99 2.94-1.26.56-1.57.4-3.57-1.02.84-.76 1.53-1.64 2.43-2.15 7.07-4 14.12-8.03 21.28-11.85 4.07-2.17 8.31-4.02 12.5-5.94.84-.38 1.83-.5 2.76-.57.36-.03.93.34 1.1.68.18.37.2 1.11-.03 1.34zm-49.98 14.08c.67-.92 1.02-1.65 1.58-2.12.85-.72 1.81-1.31 2.78-1.85 11.16-6.21 22.33-12.41 33.52-18.59 1.68-.92 3.39-1.81 5.17-2.51 1.12-.44 2.39-.51 3.41-.72.95 1.03.71 1.81.11 2.35-1.17 1.06-2.35 2.19-3.72 2.96-12.12 6.78-24.1 13.84-36.79 19.54-1.67.76-3.32 2.1-6.06.94zm23.65 66.71c-2.43 5.68-10.36 9.02-16.06 6.76-2.46-.98-2.97-2.09-2.25-5.66 1.21.14 2.15.21 3.07.35 1.95.31 3.81-.04 5.6-.74 2.52-.98 4.23-2.75 4.83-5.46.2-.92.31-1.88.6-2.77.35-1.07 1.95-1.53 2.76-.72.75.76 1.51 1.68 1.83 2.67.59 1.84.4 3.75-.38 5.57zm26.46-66.73c-7.58 4.04-15.12 8.17-23.13 11.33-.93.37-1.85.66-2.46-.88.47-.44.94-1.05 1.55-1.45 7.22-4.7 14.95-8.46 22.63-12.31.56-.28 1.21-.6 1.8-.56.69.05 1.35.49 1.94.72-.16 1.78-1.2 2.56-2.33 3.15zm84.24 10.55c-6.91-3.64-6.83-12.97-1.52-17.49 4.16-3.55 9.63-3.94 14.25-1.05 3.04 1.9 3.95 4.87 4.06 8.88.37 8.19-9.96 13.25-16.79 9.66zm65.99-45.61c-.63 6.18-6.4 10.2-12.3 9.9-4.15.05-7.27-1.92-8.89-5.85-1.65-3.98-1.28-8 1.58-11.28 4.96-5.69 11.18-5.44 16.33-1.82 3.01 2.13 3.63 5.59 3.28 9.05zm138.44-69.13c-6.53-3.02-7.83-12.44-2.29-17.39 4.41-3.94 9.15-4.32 14.61-1.29 3.13 1.74 3.91 4.86 4.05 6.98.3 9.91-9.69 14.79-16.37 11.7zm75.48-25.22c-2.79 3.49-6.53 5.09-10.98 4.71-5.31-.45-8.96-4.63-8.97-10.04.02-5.02 2.47-8.44 6.96-10.52 4.45-2.05 8.53-.88 12.1 1.85 3.78 2.91 4.11 9.96.89 14zm50.48-19.58c-.79-.78-1.5-1.41-2.12-2.11-14.58-16.35-29.17-32.69-43.73-49.07-2.34-2.63-4.54-5.38-6.8-8.08-3.3-3.94-5.04-4.3-9.5-1.99-23.29 12.04-46.58 24.09-69.89 36.11-34.82 17.95-69.65 35.88-104.48 53.82-38.8 20-77.6 40.01-116.39 60.02-12.51 6.45-25.01 12.9-37.52 19.35-1.28.66-2.54 1.41-3.89 1.85-.82.27-1.81.05-3.26.05.67-1.19.91-2.2 1.55-2.66 1.42-1.02 3.01-1.82 4.57-2.62 23.58-12.18 47.18-24.33 70.76-36.51 28.27-14.6 56.53-29.23 84.8-43.84 35.23-18.21 70.46-36.41 105.69-54.61 20.6-10.64 41.19-21.29 61.79-31.93 2.27-1.17 4.56-2.33 6.88-3.41 3.77-1.76 7.15-1.1 10.11 1.77.34.33.73.64 1.01 1.03 5.91 8.2 13.14 15.25 19.8 22.81 10.25 11.64 20.68 23.12 31.03 34.68.95 1.06 1.85 2.16 3.2 3.74l-3.61 1.6zm6.19-61.18c-1.39 1.07-2.75 2.22-4.29 3.02-7.79 4.05-15.62 8.03-23.47 11.97-.96.48-2.09.66-3.16.81-.35.05-.95-.32-1.12-.66-.18-.35-.16-1.05.09-1.33.62-.7 1.34-1.4 2.16-1.83 8.33-4.39 16.67-8.77 25.07-13.04 1.37-.7 3.02-.88 4.57-1.18.23-.04.6.59.91.92-.3.52-.42 1.06-.76 1.32zm13.48-18.49c-5.09 3-10.12 6.12-15.35 8.85-11.32 5.91-22.76 11.62-34.15 17.4-1.13.57-2.29 1.18-3.41-.26.57-1.86 2.06-2.75 3.6-3.6 3.91-2.17 7.79-4.4 11.75-6.47 8.07-4.22 16.13-8.45 24.28-12.5 4.57-2.27 9.31-4.19 14-6.22.84-.36 1.79-.48 2.69-.71.14.28.27.55.41.83-1.26.9-2.48 1.89-3.82 2.68zm-.6-10.38c-8.92 4.99-17.82 10.03-26.87 14.78s-18.27 9.19-27.43 13.71c-2.73 1.35-4.61 1.4-4.67.34-.1-1.99 1.7-2.5 3.04-3.2 15.85-8.3 31.7-16.6 47.62-24.77 3.68-1.89 7.62-3.3 11.46-4.86.63-.26 1.4-.18 2.68-.32-1.93 2.19-3.92 3.25-5.83 4.32zm53.31 47.45c-1.97 3.91-5.22 6.39-9.34 7.74-.89.29-1.93.41-2.84.24-1.32-.25-2.23-1.2-2.64-2.52-.29-.92.35-1.9 1.67-2.59.57-.3 1.15-.57 1.76-.76 2.88-.92 4.87-2.99 6.67-5.27.59-.74 1.03-1.62 1.55-2.41.61-.92 1.08-2.04 2.42-2.04 1.03 0 1.94 1.74 1.86 4.17-.21.73-.47 2.18-1.11 3.44zM27.2 303.48c-.08 0-.1 0 0 0zM685.32 681.3c.24.25.44.34.55.19.08-.14-.14-.19-.55-.19z"/><path d="M428.21 506.45l-117.59 59.67c12.12-6.12 24.25-12.22 36.4-18.28 27.18-13.58 54.13-27.58 81.19-41.39z"/><path fill="#FFF" d="M643.11 389.05l-3.6 1.59c-.79-.78-1.5-1.41-2.12-2.11-14.58-16.35-29.17-32.69-43.73-49.07-2.34-2.63-4.54-5.38-6.8-8.08-3.3-3.94-5.04-4.3-9.5-1.99-23.29 12.04-46.58 24.09-69.89 36.11-34.82 17.95-69.65 35.88-104.48 53.82-38.8 20-77.6 40.01-116.39 60.02-12.51 6.45-25.01 12.9-37.52 19.35-1.28.66-2.54 1.41-3.89 1.85-.82.27-1.81.05-3.26.05.67-1.19.91-2.2 1.55-2.66 1.42-1.02 3.01-1.82 4.57-2.62 23.58-12.18 47.18-24.33 70.76-36.51 28.27-14.6 56.53-29.23 84.8-43.84 35.23-18.21 70.46-36.41 105.69-54.61 20.6-10.64 41.19-21.29 61.79-31.93 2.27-1.17 4.56-2.33 6.88-3.41 3.77-1.76 7.15-1.1 10.11 1.78.34.33.73.64 1.01 1.03 5.91 8.2 13.14 15.25 19.8 22.81 10.25 11.64 20.68 23.12 31.03 34.68.93 1.06 1.84 2.16 3.19 3.74zM581.39 95.93c.44.04 1.06-.09 1.27.15.52.58.85 1.34 1.27 2.02 8.67 14.02 16.39 28.56 23.78 43.28.71 1.41 1.52 2.76 2.36 4.29 1.7-.64 3.16-1.22 4.64-1.71.63-.21 1.34-.07 1.53.69.09.38-.05 1.03-.33 1.26-1.22 1-2.53 1.88-4.06 2.99l1.46 3.2c2.34.65 4.3-2.26 6.47-.18-.06 2.57-2.86 2.73-4.15 4.71 6.01 12.49 12.46 24.93 18.84 37.42h3.86l-1.84 3.52c3.92 9.42 10.06 17.8 12.76 27.74.02.06-.2.19-.53.49-6.15-8.4-10-18.1-15.26-26.97-1.6.46-2.95.88-4.31 1.22-.23.06-.73-.18-.79-.39-.13-.39-.22-1.06 0-1.26 1.04-.95 2.18-1.78 3.53-2.85-6.41-12.57-12.96-24.97-19.58-37.13-2.99-.59-4.94 2.82-7.86 1.51.9-2.11.9-2.11 5.26-5.25.28-1.55-.66-2.65-1.46-3.76-.37-.07-.71-.25-.97-.16-1.35.48-2.67 1.09-4.03 1.52-.52.16-1.15-.02-1.88-.06 1.02-2.55 3.86-2.63 5.16-4.78-.64-1.31-1.31-2.74-2.03-4.15-4.71-9.26-9.55-18.46-14.11-27.8-3.16-6.46-5.94-13.1-8.89-19.65l-.11.09zM78.6 401.28c-3.94-3.45-6.31-7.78-8.58-12.17-5.87-11.35-11.73-22.71-17.61-34.06-.72-1.4-1.5-2.77-2.06-3.8-1.9-1.07-3.28 1.35-4.83-.07-.07-1.87 1.99-1.9 2.64-3.11.04-.31.2-.67.09-.91-.7-1.58-1.46-3.14-2.09-4.45-2.73-.81-4.47 2.57-7.11.91.36-3.02 3.78-2.83 4.89-4.9-.09-2.19-2.37-3.87-1.53-6.54 2.53.79 2.68 3.48 4.38 4.94 1.47.38 2.53-.84 3.83-1.29 1.05-.36 2.1-.84 3.18.19-.2 2.97-3.66 2.75-4.9 4.95.39 1.79 1.45 3.35 2.65 5.12l5.22-1.7c.04.82.29 1.6.04 1.83-1.03.96-2.22 1.75-3.59 2.79.3.79.54 1.68.95 2.48 5.57 10.79 11.18 21.55 16.73 32.35 1.97 3.83 3.86 7.71 5.65 11.63.87 1.87 1.39 3.87 2.05 5.81zm581.14-112.16c-.34.73-.5 1.58-1.01 2.02-1.08.93-2.27 1.77-3.53 2.42-18.17 9.33-36.36 18.63-54.56 27.91-1.42.72-2.88 1.39-4.39 1.88-.64.21-1.45-.11-2.07-.18-.5-1.45.25-2.13 1.03-2.62 1.76-1.1 3.56-2.14 5.39-3.1 13.29-6.95 26.59-13.89 39.9-20.82 4.53-2.36 9.06-4.72 13.61-7.03 1.69-.84 3.41-1.8 5.63-.48zm4.65 7.15c-1.92 2.19-3.91 3.25-5.83 4.33-8.92 4.99-17.82 10.03-26.87 14.78s-18.27 9.19-27.43 13.71c-2.73 1.35-4.61 1.4-4.67.34-.1-1.99 1.7-2.5 3.04-3.2 15.85-8.3 31.7-16.6 47.62-24.77 3.68-1.89 7.62-3.3 11.46-4.86.64-.27 1.41-.2 2.68-.33zM663 308.29c-1.27.9-2.49 1.89-3.83 2.68-5.09 3-10.12 6.12-15.35 8.85-11.32 5.91-22.76 11.62-34.15 17.4-1.13.57-2.29 1.18-3.41-.26.57-1.86 2.06-2.75 3.6-3.6 3.91-2.17 7.79-4.4 11.75-6.47 8.07-4.22 16.13-8.45 24.28-12.5 4.57-2.27 9.31-4.19 14-6.22.84-.36 1.79-.48 2.69-.71l.42.83zM174.76 539.65c.67-.92 1.02-1.65 1.58-2.12.85-.72 1.81-1.31 2.78-1.85 11.16-6.21 22.33-12.41 33.52-18.59 1.68-.92 3.39-1.81 5.17-2.51 1.12-.44 2.39-.51 3.41-.72.95 1.03.71 1.81.11 2.35-1.17 1.06-2.35 2.19-3.72 2.96-12.12 6.78-24.1 13.84-36.79 19.54-1.67.76-3.32 2.1-6.06.94z"/><path fill="#FFF" d="M569.07 404.89c.02-5.03 2.47-8.44 6.96-10.52 4.45-2.05 8.53-.88 12.1 1.85 3.78 2.9 4.12 9.95.89 13.99-2.79 3.49-6.53 5.09-10.98 4.71-5.32-.44-8.96-4.62-8.97-10.03zm18.21-.57c.09-3.55-3.41-7.35-6.82-7.41-4.24-.08-7.83 3.25-7.93 7.38-.11 4.19 2.9 7.36 7.06 7.45 4.46.09 7.58-2.93 7.69-7.42zM325.9 540.52c.37 8.19-9.96 13.25-16.79 9.65-6.91-3.64-6.83-12.96-1.52-17.48 4.16-3.55 9.63-3.94 14.25-1.05 3.04 1.9 3.95 4.87 4.06 8.88zm-12.2 7.19c2.34.09 4.53-.75 6.45-2.28 2.61-2.08 3.31-5.05 2.01-8.11-1.27-2.97-4.38-5.2-7.43-5.03-3.64.2-6.23 2.02-7.64 5.47-2.06 5.04 1.1 9.93 6.61 9.95zm-129.01-3.64c.84-.76 1.53-1.64 2.43-2.15 7.07-4 14.12-8.03 21.28-11.85 4.07-2.17 8.3-4.02 12.5-5.94.84-.38 1.83-.5 2.76-.57.36-.03.93.34 1.1.68.18.36.21 1.11-.03 1.33-1.02.97-2.05 2.02-3.27 2.65-9.04 4.69-18.13 9.3-27.21 13.92-1.98 1.01-3.96 2.03-5.99 2.94-1.26.57-1.57.4-3.57-1.01zM529.9 423.74c.3 9.91-9.68 14.79-16.36 11.7-6.53-3.02-7.82-12.44-2.29-17.39 4.4-3.94 9.15-4.32 14.61-1.29 3.13 1.74 3.9 4.86 4.04 6.98zm-19.07 1.71c-.51 3.98 3.52 7.99 7.6 8.15 4.47.17 8.41-3.02 8.6-7.11.19-4.13-4.02-8.57-8.39-8.85-4.24-.27-7.63 3.13-7.81 7.81zM362.8 514.48c-4.15.05-7.27-1.92-8.89-5.85-1.65-3.98-1.28-8 1.58-11.28 4.96-5.69 11.18-5.44 16.33-1.82 3.02 2.12 3.64 5.58 3.29 9.04-.63 6.19-6.41 10.2-12.31 9.91zm9.03-10.38c.36-3.84-1.66-6.37-4.74-8.15-2.9-1.68-5.59-.47-8.03 1.18-3.24 2.19-4.49 6.73-2.98 10.17 1.66 3.8 4.72 5.48 8.85 4.86 4.61-.69 6.6-2.89 6.86-7.58.01-.17.03-.33.04-.48zM180.1 607.46c1.21.14 2.15.2 3.07.35 1.95.31 3.81-.04 5.6-.74 2.52-.99 4.23-2.75 4.83-5.46.2-.92.31-1.88.6-2.77.35-1.07 1.95-1.53 2.76-.72.75.76 1.51 1.68 1.83 2.67.59 1.85.4 3.76-.38 5.58-2.43 5.68-10.36 9.02-16.06 6.76-2.46-.99-2.97-2.1-2.25-5.67zm466.34-279.32c-.28.52-.41 1.06-.75 1.32-1.39 1.06-2.75 2.22-4.29 3.02-7.79 4.05-15.62 8.03-23.47 11.96-.96.48-2.09.66-3.16.81-.35.05-.95-.32-1.12-.66-.18-.35-.16-1.05.09-1.33.62-.7 1.34-1.4 2.16-1.83 8.33-4.39 16.67-8.77 25.07-13.04 1.37-.7 3.02-.88 4.57-1.18.22-.03.58.6.9.93zM27.29 303.48c-4.29-.29-7.59-1.59-9.79-4.92-.42-.64-.61-1.44-.84-2.18-.16-.52.75-1.34 1.2-1.11.56.28 1.1.6 1.61.97 1.86 1.36 3.99 1.87 6.24 2.08 3.57.33 6.15-1.18 7.9-4.19.79-1.36 1.37-2.86 2.2-4.19.26-.41 1.14-.77 1.59-.64.45.13.96.86 1.03 1.38.88 6.34-4.79 12.83-11.13 12.82-.15-.02-.31-.02-.01-.02zM533.37 29.24c.62.65 1.23 1.33 1.88 1.97 3.11 3.06 6.79 3.89 10.96 2.73 1.07-.3 2.1-.77 3.19-.93.72-.11 1.49.19 2.33.32.29 3.61-1.72 5.42-4.45 6.69-1.93.9-4.01.97-6.07.58-4.18-.78-7.21-3.2-9.22-6.87-1-1.83-.67-2.69 1.38-4.49zm179.64 315.34c-.23.74-.5 2.19-1.13 3.45-1.97 3.91-5.22 6.39-9.34 7.74-.89.29-1.93.41-2.84.24-1.32-.25-2.23-1.2-2.64-2.52-.29-.92.35-1.9 1.67-2.59.57-.3 1.15-.57 1.76-.76 2.89-.92 4.87-2.99 6.67-5.27.59-.75 1.03-1.62 1.55-2.41.61-.92 1.08-2.04 2.42-2.04 1.05-.01 1.96 1.74 1.88 4.16zM199.28 550.08c.47-.44.94-1.05 1.55-1.45 7.22-4.7 14.95-8.46 22.63-12.31.56-.28 1.21-.6 1.8-.56.69.05 1.35.49 1.94.72-.17 1.78-1.22 2.55-2.34 3.15-7.58 4.04-15.12 8.17-23.13 11.33-.91.37-1.84.66-2.45-.88z"/><path d="M82.31 360.36c3.81-2.09 7.12-4.01 10.51-5.75 19.77-10.15 39.56-20.26 59.35-30.38 33.17-16.96 66.38-33.82 99.5-50.88 46.47-23.95 92.86-48.06 139.31-72.06 39.77-20.55 79.57-41.04 119.36-61.55 12.79-6.59 25.56-13.22 38.4-19.71 4.99-2.52 10.16-4.67 15.26-6.97.26-.12.62-.01 1.32-.01l62.46 120.57c-.62.49-1.14 1.06-1.79 1.39-24.02 12.38-48.06 24.7-72.07 37.09-34.1 17.6-68.18 35.22-102.26 52.85-40.75 21.08-81.48 42.22-122.26 63.26-29.27 15.11-58.6 30.08-87.88 45.17-30.56 15.75-61.08 31.56-91.61 47.34-1.26.65-2.52 1.28-3.55 1.8-.5-.18-.65-.22-.79-.3s-.3-.17-.37-.3c-1.06-1.97-2.13-3.94-3.16-5.92-19.81-38.34-39.61-76.68-59.73-115.64zm366.08-45.83c-.23-.7-.37-1.33-.63-1.89-.67-1.45-1.38-2.88-2.1-4.31-9.65-18.94-19.28-37.89-28.96-56.82-4.8-9.39-9.67-18.75-14.55-28.1-.74-1.41-1.54-2.82-2.55-4.04-1.52-1.81-2.91-2.02-5.11-.99-5.07 2.37-10.16 4.68-15.15 7.19-10.57 5.31-21.09 10.71-31.6 16.13-25.86 13.31-51.71 26.65-77.56 39.98-.85.44-1.74.81-2.56 1.31-2.64 1.61-3.23 3.22-2.16 6.04.51 1.34 1.18 2.62 1.84 3.9 3.08 5.96 6.16 11.93 9.27 17.88 12.05 23.1 24.11 46.19 36.16 69.28.3.57.55 1.16.89 1.7 1.24 1.98 2.67 2.45 4.9 1.52 1.03-.43 2-1 2.99-1.51 40.96-21.34 81.92-42.69 122.87-64.04.99-.52 1.96-1.07 2.86-1.73.46-.36.75-.97 1.15-1.5zM148.88 487.71l481.28-248.74c.35.42.82.82 1.08 1.33 4.54 8.63 9.07 17.27 13.59 25.9.22.43.41.87.62 1.3 1.73 3.73 1.36 6.3-1.68 8.95-1.54 1.35-3.35 2.46-5.18 3.41-20.45 10.58-40.93 21.1-61.39 31.67-32.96 17.02-65.92 34.06-98.87 51.1-43.89 22.69-87.8 45.35-131.66 68.1-46.14 23.92-92.23 47.91-138.33 71.9-3.97 2.07-7.8 4.4-11.76 6.5-2.53 1.34-5.22 2.38-7.76 3.7-2.54 1.33-5.06 2.73-7.46 4.29-3.28 2.13-6.85 3.4-10.62 4.27-2.29.52-4.06-.09-5.32-2.16-5.95-9.86-11.68-19.84-16.53-30.3-.07-.13-.01-.31-.01-1.22zM531.72 91.6c-.3.51-.48 1.19-.92 1.51-1.16.83-2.4 1.59-3.67 2.24-19.62 10.09-39.23 20.18-58.88 30.21-46.28 23.61-92.56 47.22-138.86 70.77-46.02 23.41-92.07 46.78-138.12 70.14-19.96 10.12-39.95 20.17-59.94 30.24-2.28 1.15-4.58 2.27-6.91 3.34-.86.4-1.78.75-2.71.88-.48.06-1.14-.32-1.52-.7-.16-.17.04-1.01.33-1.24.97-.82 1.99-1.61 3.1-2.21 3.79-2.07 7.59-4.12 11.43-6.08 40.02-20.39 80.05-40.79 120.09-61.15 52.01-26.45 104.02-52.89 156.04-79.31 33.07-16.79 66.15-33.56 99.24-50.3 5.7-2.89 11.49-5.61 17.24-8.42 1.28-.64 2.55-1.38 4.06.08zM101.55 287.07c.69 1.04 1.66 2.29 2.39 3.66 3.99 7.45 7.97 14.91 11.83 22.43 1.29 2.52 2.66 5.08 2.71 7.9-.92 1.66-2.35 2.43-3.75 3.14-8.25 4.18-16.52 8.31-24.79 12.45-.57.29-1.16.55-1.76.73-1.66.5-2.63.11-3.64-1.42-.26-.4-.49-.82-.71-1.25-4.39-8.5-8.84-16.97-13.14-25.52-2.62-5.2-2.44-5.52 2.65-8.58.68-.41 1.38-.79 2.09-1.16 7.07-3.69 14.13-7.39 21.21-11.06 1.39-.72 2.71-1.75 4.91-1.32z"/><path fill="#FFF" d="M448.39 314.53c-.4.54-.69 1.14-1.16 1.49-.89.66-1.87 1.22-2.86 1.73-40.95 21.35-81.91 42.7-122.87 64.04-.99.52-1.96 1.09-2.99 1.51-2.22.92-3.65.46-4.9-1.52-.34-.54-.59-1.13-.89-1.7-12.05-23.1-24.11-46.19-36.16-69.28-3.11-5.95-6.19-11.91-9.27-17.88-.66-1.28-1.33-2.56-1.84-3.9-1.07-2.81-.47-4.43 2.16-6.03.82-.5 1.71-.87 2.56-1.31 25.85-13.33 51.7-26.67 77.56-39.98 10.52-5.41 21.04-10.81 31.6-16.13 4.99-2.51 10.09-4.82 15.15-7.19 2.2-1.03 3.59-.82 5.11.99 1.02 1.21 1.82 2.63 2.55 4.04 4.88 9.35 9.75 18.71 14.55 28.1 9.68 18.93 19.31 37.88 28.96 56.82.72 1.42 1.43 2.86 2.1 4.31.27.56.41 1.18.64 1.89zm-17.35-17.27c-.46-1.18-.81-2.41-1.39-3.52-6.79-13.03-13.61-26.04-20.45-39.05-1.85-3.52-3.79-7-5.69-10.5l-2.03-3.74c-2.04-3.97-4.06-7.95-6.12-11.91-.2-.39-.67-.65-1.16-1.1-1.13.49-2.31.93-3.42 1.5-8.25 4.23-16.48 8.47-24.71 12.73-2.97 1.53-5.91 3.12-8.86 4.68-26.39 13.62-52.78 27.24-79.16 40.87-.81.42-1.51 1.06-2.34 1.65 1.79 3.46 3.53 6.69 5.14 9.98.68 1.39 1.65 2.25 3.06 2.82 3.89 1.56 7.29 3.99 10.55 6.55 16.3 12.79 23.68 29.61 22.47 50.25-.05.95-.07 1.95-.36 2.84-.33 1.03-.94 1.96-1.45 2.98 1.95 3.71 3.5 7.55 6.13 11.1 1.38-.67 2.67-1.25 3.91-1.92 24.75-13.31 49.5-26.63 74.24-39.96 1.39-.75 2.69-1.67 4.04-2.52.74-.29 1.51-.5 2.2-.87 10.11-5.41 20.21-10.84 30.3-16.29.95-.52 1.8-1.22 2.83-1.93-1.17-3.3-2.62-6.24-4.6-8.94-.54-2.18-1.69-4.02-3.13-5.7zm-144.03 12.29c1.43 3.95 19.91 39.89 23.64 46.11.11.18.54.16.83.23 2.92-15.38-8.62-37.59-24.47-46.34z"/><path d="M403.43 330.99c-1.34.84-2.64 1.77-4.04 2.52-24.74 13.33-49.49 26.65-74.24 39.96-1.24.67-2.53 1.24-3.91 1.92-2.63-3.55-4.18-7.39-6.13-11.1.51-1.02 1.12-1.96 1.45-2.98.29-.89.3-1.89.36-2.84 1.2-20.64-6.17-37.46-22.47-50.25-3.26-2.56-6.65-4.99-10.55-6.55-1.41-.57-2.38-1.43-3.06-2.82-1.61-3.29-3.35-6.52-5.14-9.98.83-.59 1.53-1.23 2.34-1.65 26.38-13.64 52.77-27.25 79.16-40.87 1.5-.04 2.84.3 3.87 1.52.93 1.1 1.92 2.15 2.85 3.24 7.8 9.15 14.65 19 20.83 29.29 2.63 4.38 5.09 8.9 7.1 13.58 5.13 11.93 9.1 24.24 11.58 37.01zm-70.83-37.33c-.89 1.27-.28 2.39.33 3.55 1.93 3.68 3.83 7.38 5.72 11.08 2.4 4.7 4.75 9.42 7.21 14.09.5.94 1.37 1.7 2.14 2.47.15.15.65.1.89-.04.23-.14.52-.53.48-.75-.19-.91-.37-1.87-.78-2.69-1.71-3.43-3.51-6.82-5.28-10.23-2.65-5.11-5.29-10.22-7.94-15.34-.58-1.13-1.07-2.38-2.77-2.14zm34.6-17.63c-1.17 1.95.03 3.31.71 4.66 3.32 6.56 6.72 13.07 10.1 19.6.81 1.56 1.55 3.17 2.49 4.64.46.73 1.31 1.21 2.11 1.91 1.17-1.74.43-2.98-.22-4.23-4.03-7.81-8.05-15.62-12.1-23.42-.44-.85-.93-1.69-1.55-2.4-.34-.41-1.01-.52-1.54-.76zm-1.94 39.38c1.16-1.5.75-2.7.18-3.79-4.41-8.5-8.84-16.98-13.32-25.44-.31-.58-1.11-.9-1.88-1.5-.22.83-.55 1.36-.42 1.7 3.69 9.38 8.57 18.17 13.42 26.98.4.74 1.23 1.27 2.02 2.05zm-48.75-13.31c-1.19 1.77-.35 3.04.25 4.22 4.33 8.56 8.7 17.1 13.08 25.63.28.55.71 1.09 1.21 1.46.32.23.97.31 1.3.14.32-.17.68-.83.59-1.14-.33-1.05-.82-2.07-1.32-3.07-2.81-5.57-5.6-11.14-8.47-16.68-1.4-2.7-2.9-5.34-4.45-7.95-.53-.91-1.36-1.64-2.19-2.61zm87.01-57.91c-1.23 14.78 3.08 27.92 11.77 39.76 2.74 3.74 5.98 7.02 9.58 9.91 1.83 1.47 3.67 3.08 6.18 3.39 1.44 1.68 2.59 3.52 3.11 5.7-2.84-.12-5.17-1.57-7.48-2.99-7.2-4.41-12.99-10.3-17.64-17.31-6.32-9.54-9.69-20.1-10.23-31.5-.13-2.67.36-5.41.86-8.06.18-.97 1.19-1.78 1.82-2.66l2.03 3.76z"/><path d="M287.01 309.55c15.84 8.75 27.39 30.96 24.47 46.34-.28-.07-.72-.05-.83-.23-3.73-6.22-22.21-42.16-23.64-46.11z"/><path fill="#FFF" d="M332.61 293.66c1.69-.24 2.19 1.01 2.77 2.14 2.64 5.11 5.29 10.23 7.94 15.34 1.77 3.41 3.57 6.8 5.28 10.23.41.82.59 1.78.78 2.69.04.22-.24.61-.48.75s-.75.19-.89.04c-.76-.78-1.64-1.53-2.14-2.47-2.46-4.67-4.81-9.39-7.21-14.09-1.89-3.7-3.79-7.4-5.72-11.08-.61-1.16-1.23-2.27-.33-3.55zm34.59-17.63c.53.24 1.2.36 1.55.75.62.71 1.11 1.56 1.55 2.4 4.05 7.8 8.07 15.61 12.1 23.42.65 1.25 1.39 2.49.22 4.23-.8-.7-1.64-1.18-2.11-1.9-.94-1.48-1.68-3.08-2.49-4.64-3.38-6.53-6.78-13.04-10.1-19.6-.69-1.35-1.89-2.71-.72-4.66zm-1.94 39.38c-.79-.78-1.62-1.3-2.03-2.06-4.84-8.81-9.73-17.6-13.42-26.98-.13-.34.2-.86.42-1.7.77.6 1.57.92 1.88 1.5 4.48 8.46 8.91 16.94 13.32 25.44.57 1.1.98 2.3-.17 3.8zm-48.75-13.31c.83.97 1.66 1.7 2.19 2.61 1.55 2.61 3.05 5.26 4.45 7.95 2.87 5.54 5.66 11.11 8.47 16.68.5.99.98 2.01 1.32 3.07.1.31-.26.97-.59 1.14s-.99.09-1.3-.14c-.49-.36-.92-.9-1.21-1.45-4.38-8.53-8.75-17.07-13.08-25.63-.6-1.19-1.45-2.46-.25-4.23z"/><path d="M384.55 266.86c.41.18.78.23.97.44.52.58 1.08 1.18 1.44 1.87 4.18 8.05 8.34 16.12 12.44 24.21.48.95.57 2.1.76 3.17.04.2-.29.58-.53.69-.25.11-.76.11-.88-.05-.77-.98-1.59-1.96-2.17-3.06-2.96-5.64-5.84-11.32-8.77-16.97-1.24-2.4-2.56-4.77-3.75-7.2-.33-.67-.43-1.51-.42-2.27.01-.29.62-.58.91-.83z"/><g><path d="M235.09 142.44c.31.06.65.08.94.2 1.35.6 1.74 1.71.73 2.46-1.53 1.13-3.09 2.41-4.84 3.01-4.45 1.54-8.27 4.12-12.2 6.57-4.2 2.63-8.47 5.09-13.16 6.82-3.13 1.16-6.1 2.79-9.13 4.21-.29.13-.54.35-.83.48-4.8 2.17-9.77 4.03-14.36 6.57-4.47 2.48-8.73 5.3-13.56 7.08-.9.33-1.76.78-2.68 1-.53.13-1.14-.11-2.21-.24.98-1.38 1.68-2.38 2.39-3.38 5.19-2.46 10.23-5.17 15.02-8.35.79-.52 1.69-.88 2.56-1.28 4.04-1.87 8.1-3.71 12.13-5.6 2.88-1.35 5.77-2.69 8.61-4.14 4.24-2.18 8.67-4.12 12.59-6.78 5.6-3.81 11.64-6.5 18-8.63zM94.13 499.81c.14-1.07.29-2.14.48-3.55.85.34 1.57.41 1.91.81.72.84 1.32 1.81 1.83 2.8 2.08 3.96 4.08 7.95 6.17 11.9 1.56 2.97 3.07 5.97 4.84 8.81 4.06 6.51 8.2 12.96 10.99 20.17.51 1.33 1.44 2.48 2.1 3.76 1.83 3.55 3.62 7.12 5.39 10.7.28.56.4 1.21.49 1.83.15 1.14-.81 1.97-2.16 1.84-.46-.04-.89-.34-1.33-.52-.71-1.05-1.65-2.01-2.11-3.16-1.43-3.58-3.57-6.74-5.53-10.02-.73-1.22-1.32-2.54-1.9-3.84-.91-2.02-1.59-4.17-2.68-6.08-2.6-4.56-5.44-8.98-8.08-13.52-1.6-2.74-3.11-5.55-4.46-8.42-2.08-4.45-3.98-8.99-5.95-13.51zm656.38-15.7c2.17-.69 4.51 1.32 5.71 2.57 2.87 3 4.28 6.76 5.02 10.7.67 3.6.92 7.28 1.21 10.93.39 4.97-.21 9.87-1.28 14.74-.92 4.21-1.73 8.44-2.59 12.66-1.22 6.01-3.06 11.75-7.22 16.47-.59.67-2.67 2.24-3.23 1.89-.88-1.75-.04-2.81.59-3.81 2.43-3.82 4.15-7.95 5.11-12.33 1.6-7.32 3.2-14.66 4.39-22.06.52-3.26.13-6.68-.01-10.03-.09-2.06-.45-4.12-.74-6.17-.55-3.89-2.4-7.24-4.5-10.47-.78-1.2-1.57-2.39-2.31-3.62-.14-.24-.98-1.16-.15-1.47zM202.6 146.46l2.6.61c-.52.95-.71 1.8-1.24 2.18-1.66 1.21-3.36 2.4-5.19 3.32-6.36 3.2-12.78 6.29-19.19 9.39-.99.48-2.03.9-3.09 1.2-.34.1-1-.17-1.18-.47-.18-.31-.12-.99.11-1.29.69-.85 1.51-1.6 2.28-2.38 8.18-4.43 16.26-9.06 24.9-12.56zM367.58 813.9c.68-5.78 1.9-8.9 3.62-13.7.86-2.39 1.83-4.75 2.95-7.03.92-1.87 2.51-2.7 3.26-1.96 1.18 1.15.32 2.37-.08 3.53-1.48 4.36-3.09 8.68-4.48 13.07-.96 3.04-1.45 6.19-1.25 9.41.06.95.05 1.93-.15 2.85-.11.53-.6 1.26-1.04 1.36-.42.09-1.31-.41-1.45-.84-1.4-1.61-1.64-5.11-1.38-6.69zm401.03-310.64c1.28 1.03 1.95 1.31 2.13 1.78.5 1.33 1.05 2.71 1.14 4.1.5 8.27-.89 16.18-4.98 23.49-.23.41-.52.81-.84 1.16-.2.23-.51.36-.77.54-.82.12-1.27-.33-1.14-1.05.22-1.24.54-2.49.98-3.67 2.6-6.97 3.45-14.19 3.26-21.58-.03-1.24.11-2.48.22-4.77zM357.23 809.49c.05-3.82 1.04-6.77 3.22-9.24.32-.36 1.25-.55 1.66-.34.42.22.55 1 .79 1.55.05.13.03.32-.02.47-1.05 3.3-2.09 6.6-3.21 9.88-.12.34-.71.74-1.08.73-.36-.01-.91-.44-1.01-.79-.25-.91-.29-1.86-.35-2.26z"/></g><path id="WHEEL_x5F_2" fill="#FFF" d="M.37-32.85C-19.79-33-32.66-16.93-32.87-.23c.04 17.6 13.61 32.92 32.8 33.08 17.48.14 32.89-13.46 32.94-32.88.05-18.16-14.02-32.69-32.5-32.82zM24.22-2.68l3.48.69c.22.36.5.62.52.89.41 6.52-1.44 12.43-5.53 17.48-.5-.2-1.1-.37-1.62-.68-1.33-.8-2.51-.41-3.51.49-1.06.95-1.97 2.07-3.06 3.24l1.42 3.44c-1.25 2.81-10.81 5.67-16.95 5.06l-.6-3.3c-.59-.33-1.23-.83-1.96-1.09-4.01-1.41-4.47-1.26-7.22 2.09-6.47-1.73-12.05-7.23-15.46-15.43l3.15-2.49c.38-1.73-.26-3.19-.92-4.63-.76-1.68-2.78-1.27-4.16-2.29-.3-7.01 1.82-13.12 6.18-18.47 4.95 1.38 4.98 1.37 9.36-3.15-.46-1.24-.84-2.26-1.17-3.23.25-.36.36-.72.61-.86 5.69-3.17 10.76-4.01 17.79-2.87l.35 4.22c.96.38 1.96.78 2.98 1.16 1.03.38 2.07.74 3.23 1.14l3.17-2.87c5.74 2.97 9.42 7.26 11.82 13.73-3.53 3.23-3.53 3.23-1.9 7.73z"/><path id="WHEEL_x5F_1" fill="#FFF" d="M.27-32.84c-18.2-.2-33.01 14.42-33.09 32.67-.09 18.26 14.5 32.96 32.76 33.01 18.18.04 32.86-14.66 32.88-32.92.02-17.97-14.47-32.56-32.55-32.76zM24.09-2.79c1.13.32 2.34.66 3.5.99.2.32.5.58.52.85.36 6.53-1.14 11.54-5.08 17.02-1.51-.17-3.14-.76-4.51-.4-1.89.49-2.88 2.38-4.14 3.97l1.54 3.03c-.14.27-.21.64-.43.8-4.83 3.5-10.22 5.04-16.45 4.64l-.8-3.47c-.6-.34-1.36-.95-2.23-1.23-3.63-1.16-4.29-.91-6.82 2.27-6.92-1.94-13.06-8.2-15.35-15.77.46-.32.97-.68 1.48-1.03.52-.35 1.03-.7 1.68-1.15-.13-.97-.19-1.91-.4-2.81-.18-.77-.54-1.49-.89-2.44L-28.31.77c-.2-6.93 1.89-13.07 6.36-18.71l3.61 1.46c2.18-.92 4.09-2.25 5.63-4.39l-1.38-3.68c5.84-3.28 11.87-4.62 18.63-3.36l.41 4.44 5.96 2.27 3.18-2.79c3.12-.11 9.62 7.21 11.94 13.49-.4 1.59-2.83 1.55-2.93 3.45-.08 1.46.05 2.86.99 4.26z"/></svg>