<?xml version="1.0" encoding="utf-8"?>
<!-- Generator: Adobe Illustrator 22.0.1, SVG Export Plug-In . SVG Version: 6.00 Build 0)  -->
<svg version="1.1" id="Layer_1" xmlns="http://www.w3.org/2000/svg" xmlns:xlink="http://www.w3.org/1999/xlink" x="0px" y="0px"
	 viewBox="0 0 296.6 440.9" style="enable-background:new 0 0 296.6 440.9;" xml:space="preserve">
<style type="text/css">
	.st0{stroke:#FFFFFF;stroke-miterlimit:10;}
	.st1{fill:#FFFFFF;stroke:#000000;stroke-miterlimit:10;}
	.st2{fill:none;stroke:#000000;stroke-linecap:round;stroke-linejoin:round;stroke-miterlimit:10;}
	.st3{fill:none;stroke:#010101;stroke-width:2;stroke-linecap:round;stroke-linejoin:round;stroke-miterlimit:10;}
	.st4{fill:#010101;}
	.st5{fill:#FFFFFF;stroke:#010101;stroke-miterlimit:10;}
	.st6{fill:#FFFFFF;}
	.st7{stroke:#000000;stroke-miterlimit:10;}
	.st8{fill:none;stroke:#FFFFFF;stroke-width:2;stroke-linecap:round;stroke-linejoin:round;stroke-miterlimit:10;}
	.st9{fill:#FFFFFF;stroke:#010101;stroke-width:2;stroke-linecap:round;stroke-linejoin:round;stroke-miterlimit:10;}
	.st10{fill:none;stroke:#FFFFFF;stroke-linecap:round;stroke-linejoin:round;stroke-miterlimit:10;}
</style>
<g>
	<g>
		<path class="st0" d="M136.4,111.9c9.3,10,25,36.4,28.2,38.5c2.8-4.5,10.3-4.6,13-2.5c2.2,1.7,5.8,6,5.3,14.2
			c-0.3,5.5-6,10-10.9,12.6c-5.7,3-22.9,2.6-28.6-0.4c-2.6-1.3-5.2-2.1-6-2.5c-0.7,2.6-0.8,4.6-1.5,7.5c-1.9,9.8-3.1,15.9-4.9,25.7
			c-0.4,2.3,7.1,12,4.5,13.3c-44.3,23.1-115-6.2-118-15.2c-3-9,8.6-36,8.6-36c7.5-17.4,17.6-33.5,28.3-49.1
			c3.8-5.6,5.7-9.1,14.7-19.7C69,98.3,128.4,97.6,136.4,111.9z"/>
		<g>
			<path class="st1" d="M18.4,193.1c-6.2,31.8,2.8,55.1,9,68c7,14.6,13.1,25.6,21.9,39.1c10.9,16.9,28.6,33.2,47.8,40.2
				c1.1,0.4,2.3,0.2,1.9,2c-4.1,12-7.6,21.1-4.6,33.5c1.6,6.6,5.2,15.7,8.7,21.5c4.7,7.6,7.7,16.3,12.7,23.7c0.3,0.5,1.3,1.8,2.2,1
				c14.3-17.3,19.7-41.5,14.1-63.2c18.6,12.4,39.4,2.4,58.8-13.2c2.8-2.2,5.4-7.4,2-8.5c-4.3-1.4-8.8-2.9-11.6-3.4
				c-14.1-2.6-24.6-4.1-38.7-6.6c-5.7-1-13.5-2.2-16.2-7.3c-2.1-3.9-0.3-12.3,1.6-16.4c10.4-22.5,14.1-33.9,14.3-52
				c0.3-23.6-0.8-21.4-7.6-36.4c0,0-5.7,5-29.1,7.2C55.1,226.9,18.4,193.1,18.4,193.1z"/>
			<g>
				<path class="st2" d="M140.6,229.9c-2.7,2-5.3,3.7-8.7,3.5c-1.9-0.1-3.7-0.9-5.4-1.8c-2.4-1.3-4.6-2.8-6.7-4.6"/>
				<path class="st2" d="M126.9,232.1c-4.1,4.2-8.8,8.7-14.7,9.3c-5.9,0.6-11.5-3.1-15.5-7.6"/>
				<path class="st2" d="M141.5,240.6c-3.7,3.6-7.9,7-13,8c-5.1,1-11.7-2.3-13.7-7.1"/>
				<path class="st2" d="M140.6,258c-5.4,1.1-11.4-2.9-12.3-8.4"/>
				<path class="st2" d="M116.7,244.7c-3.2,2.5-7.8,5.1-11.8,6c-3.9,0.9-8.2,0.7-11.8-1.3c-4.5-2.5-7.3-7.2-9.5-11.9"/>
				<path class="st2" d="M102.5,251.1c-1.9,4.5-0.2,10.2,3.6,13.3c3.8,3.1,9.4,3.7,14,1.9s9.6-5.8,11.2-10.4"/>
				<path class="st2" d="M120.5,266.4c1.8,2.8,5.1,4.2,8.4,4.3c3.3,0.2,8.2-1.7,11.3-2.7"/>
				<path class="st2" d="M102.7,224.4c-0.4,5-5,8.7-9.6,10.7c-3.2,1.4-6.7,2.4-10.2,1.8c-3.5-0.5-8.3-4.6-9.1-7.9"/>
				<path class="st2" d="M81,222.2c-2.1,2.8-4.3,5.1-7.3,6.3c-4.1,1.8-8.5,3.2-12.8,1.9s-7.8-4.6-9.5-8.8"/>
				<path class="st2" d="M57.6,216.6c-3.9,4.2-10,6.4-15.7,5.6c-5.7-0.8-11-4.6-13.5-9.8"/>
				<path class="st2" d="M37.6,221.3c-3.7,6.5-8.8,9.5-20.3,4.7"/>
				<path class="st2" d="M33,227.3c1,5.1,4.6,9.7,9.3,11.8s10.5,1.8,15-0.9c0.5-0.3,5.3-5,5.3-6.7"/>
				<path class="st2" d="M57.4,238.1c2.9,4,7.3,6.9,12.2,7.8c4.8,1,12.4-1,16.6-3.6"/>
				<path class="st2" d="M71.2,246.5c1.5,5.9,2.7,10.6,7.4,14.5c5.6,4.6,17.9,1,22.8-4.2"/>
				<path class="st2" d="M85.4,263.9c2.1,5.6,6.2,10.4,11.5,13.4c1.4,0.8,2.8,1.4,4.3,1.7c5.5,1,11.5-0.1,20.4-10.3"/>
				<path class="st2" d="M138.1,278.3c-2.3,4.8-7.8,5.5-13.3,6.7s-12.5-2.1-16.4-6.1"/>
				<path class="st2" d="M117.5,284.7c0.9,2.5,4.1,6.1,6.5,7.1c2.6,1.1,5.4,0.8,8.5-0.2"/>
				<path class="st2" d="M119.1,288.4c-4.4,3.9-11.1,9.1-17,9c-6.8-0.2-11-3.4-15.3-8.6"/>
				<path class="st2" d="M104.6,297.9c2.1,3.6,6,6.1,10.2,6.5c4.1,0.5,11.6-1.8,14.4-4.8"/>
				<path class="st2" d="M117.9,304.6c-0.6,1.4-5.9,6.4-7.2,7.2c-4.6,2.6-12,3.8-17,2.3c-5-1.6-10.2-6.6-12.5-11.4"/>
				<path class="st2" d="M66.2,273.9c1.7,6,4.9,11.9,10.7,14.3c3.2,1.3,5.9,0.9,9.4,0.3c3.4-0.6,11.1-4.7,13.3-9.2"/>
				<path class="st2" d="M50.2,253.9c3.8,6.6,10.1,17.4,17.2,20.2c5.7,2.3,15.8-2.2,19.4-7.2"/>
				<path class="st2" d="M39.4,238.6c1.1,4.6,5.5,13.1,9.9,14.9c3.2,1.3,5.5,1.9,8.8,0.9c1.4-0.4,4.9-2,6.1-2.9
					c1.2-0.9,4.7-4,4.4-5.5"/>
				<path class="st2" d="M39.1,237.8c-2.9,7.4-12.5,7.5-18.6,4.9"/>
				<path class="st2" d="M49.3,254.2c-0.9,3.4-4.7,7.8-8,9.1c-3.3,1.3-11.3-0.8-14.3-2.6"/>
				<path class="st2" d="M63.1,272.3c-4.2,5.1-11,8.3-16.8,7.5c-4.2-0.6-10.1-4-13-7.2"/>
				<path class="st2" d="M49.5,280.4c0.8,4.7,5.2,9,9.4,11.4c2.5,1.4,5.3,2.5,8.2,2.6c2.9,0.2,9.3-3.8,11.4-5.8"/>
				<path class="st2" d="M67.6,294.6c2.7,3.3,6.6,5.4,10.6,6.6c6.3,2,14.9,0.4,19.5-4.2"/>
				<path class="st2" d="M99.6,315.4c2.5,4.1,5.5,5.5,8.5,6.8c4.8,2,15.4-1.9,16.9-7.4"/>
				<path class="st2" d="M63.9,294.2c0.7,2.6,0.7,5.7-1,7.9s-8.6,4.7-10.5,2.7"/>
				<path class="st2" d="M51.1,284.6c0.8,2.1-5.5,5.8-9.5,3.8"/>
				<path class="st2" d="M83.6,307c-3.1,8.9-16.4,9.9-22.7,8.3"/>
				<path class="st2" d="M99,315.6c-0.1,1.7-0.7,2.8-1,3.9s-3.1,4.9-4,5.7c-3.8,3.4-10.8,5.2-16.1,5.1"/>
				<path class="st2" d="M112.1,322.8c0.5,2.3-0.7,8.3-4,11.8c-1.8,2-6.8,6.6-9.4,5.9"/>
				<path class="st2" d="M118.6,321.9c0.7,2.5,2.8,8.2,2.8,10.8c-0.1,2.6,0.1,4.9-1.9,6.5c-2.7,2.2-6.3,3.7-10.6,3.4
					c-2.8-0.2-7.7-0.1-9.8-1.8"/>
				<path class="st2" d="M126.1,319.7c1.7,2.4,2.8,5.1,2.5,7.6c-0.2,1.7-1.2,4.9-2.6,5.8c-1.7,1.1-3.4,1-4.6,0.5"/>
				<path class="st2" d="M36.3,205.9c-2,2.9-3.3,2.5-7.2,3.1c-5.4,0.8-11.6-3.6-12.1-4.5"/>
				<path class="st2" d="M134.7,330c18,0.8,35.8,3.7,53.1,8.6"/>
				<path class="st2" d="M135.8,335c10.8,1.9,21.5,3.9,32.3,5.8c1.9,0.3,3.9,0.7,5.8,0.9c3,0.3,6.1,0.1,8.8-1"/>
				<path class="st2" d="M135.9,339.3c7.5,2.4,15,4.9,22.7,5.8c7.8,0.9,13.8,2.7,20.8-0.9"/>
				<path class="st2" d="M133,343.1c6.5,5.2,13.9,9.9,22.1,11.3c8.6,1.4,20.6-2.9,27.9-7.7"/>
				<path class="st2" d="M130.6,349.1c6.6,5.3,14.4,8.9,22.7,10.4"/>
				<path class="st2" d="M120,345.3c7.3,4.9,9.4,6.5,12.4,14.8"/>
				<path class="st2" d="M118.7,351c10,6.5,14.5,18.9,12.8,33.5"/>
				<path class="st2" d="M111.8,353.7c6.1,5.7,11.1,14.3,14.6,22.9c2.8,7,1.8,20.4,0,27.7"/>
				<path class="st2" d="M112.4,371.3c4.9,7.5,8.9,15.6,11.8,24.1c1.3,3.7,2.4,7.6,1.6,11.5"/>
				<path class="st2" d="M101.3,351.9c0.8,21.4,8.4,42.5,21.4,59.5"/>
			</g>
		</g>
		<g>
			<path class="st3" d="M45,60.6c0.6,0.1,10,2.3,12.4,4.6"/>
			<path class="st3" d="M42.6,73c11.6,0.8,11.7,0.8,14.3,0.8"/>
			<path class="st4" d="M153,102.1c8.4-7.4,12.3-23.1,10.2-33.5c-2.7-13.4-11.1-24.1-12.5-26.4c1-9.9,0.9-19.3-2.3-26.4
				s-7.2-7.3-11.5-4c-4.3,3.2-7,11-10.1,20.3c-12.7-2.9-27.5-0.5-27.5-0.5c-2.6-12-9-22-13.3-22.4c-6.5-0.6-7.8,3.9-10.4,14.3
				C74.1,30.4,75,42.5,75,42.5S64.3,55.7,62.1,65.9c-4,18.5,4.2,30.6,8.5,34.4c12.3,10.7,21.2,12.7,43.2,12.6
				C137.4,112.7,146,108.3,153,102.1z"/>
			<path class="st3" d="M182.1,68.6c0,0-10,3-13.1,2.3"/>
			<path class="st3" d="M177.9,56.7c0,0-8.9,4.3-11.7,7.6"/>
			<path class="st5" d="M146.5,16.6c-0.3-1.2-4.8-8.3-9.9-0.6c-2.3,3.4-7.7,13.5-7.8,15.5c-0.1,2-0.6,4.1,6.3,5.9
				c8.1,2.1,16.5,4.5,13-14.3C147.6,21.2,147.3,18,146.5,16.6z"/>
			<path class="st5" d="M93.5,20c0,0-1.8-3-3.9-4.7c-2.8-2.2-6.8-4.4-9.6,3.2c-1.4,3.8-1.4,14.2-1.2,16.2c0.2,2,0,5.5,8,3.3
				C96.3,35.4,102.1,36.7,93.5,20z"/>
			<g>
				<path class="st6" d="M120,60.6c0,0,0.9,0.8,2.5,0.1c1.6-0.7,11.2-4,15-3.9c3.7,0,8.7-1.2,6.7-2.8s-10.3-3.3-17.5,0.5
					C124,55.8,119.7,58.7,120,60.6z"/>
				
					<ellipse transform="matrix(0.9994 -3.597587e-02 3.597587e-02 0.9994 -1.9893 4.668)" class="st7" cx="128.7" cy="57.6" rx="0.4" ry="1.2"/>
				<path class="st6" d="M107.9,61c0,0-2.1,0.1-3.7-0.5c-1.7-0.6-11.4-3.5-15.1-3.4c-3.7,0.2-8.8-0.9-6.8-2.5s10.4-4.1,17.5-0.2
					C106.8,58.3,108.1,59.1,107.9,61z"/>
				
					<ellipse transform="matrix(1 -1.703138e-03 1.703138e-03 1 -9.806231e-02 0.1667)" class="st7" cx="97.8" cy="57.7" rx="0.4" ry="1.2"/>
				<g>
					<path class="st8" d="M117.5,70.9c0,0-3.3,3.7-6.7,0"/>
					<path class="st8" d="M113.9,72.8c0,0,1.4,2.6-0.2,6.1c0,0-1.4,2.4-2.5,2.3"/>
					<path class="st8" d="M113.7,79.1c0,0,0.9,1.7,2.9,2.1"/>
				</g>
			</g>
			<path class="st9" d="M133.4,28.1c-2.4,1.3-4.9,3.4-5.2,5.8"/>
			<path class="st9" d="M98.1,33.4c-1.6-4.8-4.6-6.4-4.8-6.5"/>
		</g>
		<g>
			<path class="st10" d="M86.1,207.8c-0.6,1.8-2.1,3.2-3.7,4.1s-3.5,1.4-5.3,1.9"/>
			<path class="st10" d="M79.8,208.1c0.5,1.4,1.1,2.8,2.1,3.8c1,1.1,2.6,1.7,3.9,1.2"/>
		</g>
		<g>
			<path class="st1" d="M196,137.8l-69.5,23.1c-1.2,0.4-0.4,1.6,0,2.7h0c0.4,1.2-0.2,1.8,1,1.4l69.9-23c1.2-0.4,1.8-1.7,1.4-2.9l0,0
				C198.5,138,197.2,137.4,196,137.8z"/>
			<path class="st1" d="M99.6,170.4L68.2,181c-1.2,0.4-1.8,1.7-1.4,2.9l0,0c0.4,1.2,1.7,1.8,2.9,1.4l30.9-10.5
				c1.8-0.8,4.5-1.5,6.1-2.4l-3.3-0.9C101.8,171.1,100.8,170,99.6,170.4z"/>
		</g>
		<g>
			<path class="st10" d="M68.3,98.7c0,0,10.8,11.3,23.3,15.8"/>
			<path class="st10" d="M125.5,114.9c0,0,4.8,0.3,9.7-3.4"/>
			<path class="st10" d="M135.1,130.1c0,0,4.6,33.5,1.1,48"/>
			<path class="st10" d="M68.7,156c-8.7,0.4-10.6,2.1-10.6,2.1"/>
			<path class="st10" d="M122,160.9c0,0,4,0.3,4.8,3.5"/>
			<path class="st10" d="M115.1,166.1c0,0,8,1.5,7.5,7"/>
			<path class="st10" d="M161.6,171.1c0,0-5.2-15,2.8-20.4"/>
			<path class="st10" d="M156.1,172.1c0,0-0.7-5.5,3.8-9"/>
			<path class="st10" d="M161.5,154.7c0,0,7.1-2.1,7.6,6.4"/>
			<path class="st10" d="M167.9,151.2c0,0,4.7-2.9,8.3,4.9"/>
			<path class="st10" d="M76.6,112.6c0,0,12.5,3.5,20.5,16.5s15,20,15,20s14,3,14.5,14.5c0,0,3,8-4,9.5c0,0-6.5,3.5-14.5,0.5
				s-25.5-8-25.5-8s-14.5-9-22-18"/>
		</g>
	</g>
	<g>
		<path class="st1" d="M201.8,99.4c0,0,8.9-34.5,34.4-33.7c25.5,0.8,36.9,24.6,43.9,46.8c9.6,30.8-0.6,59.2-17.6,65.1
			s-26.2-1.6-41-10.3c-9.5,12.2-19.8-10-19.8-10s-15.2-38.5-12.2-53.5C192.6,89.1,201.8,99.4,201.8,99.4z"/>
		<path class="st2" d="M201.8,99.7l-6.2,29.3c0,0-1.8,7.7,4.7,17c6.5,9.3,21.1,21.3,21.1,21.3"/>
		<g>
			<path class="st2" d="M225,91.9c-9.3,15.9-18.7,31.7-28,47.6c11.3-13.2,24.3-25.2,37.7-36.3"/>
			<path class="st2" d="M197.9,139.3c19.1-13.3,36.9-25,56.3-38"/>
			<path class="st2" d="M198.9,139.6c14.1-4.9,47.9-15.1,62.1-20"/>
			<path class="st2" d="M200.8,139.7c9.7-1.6,27.7-4.1,37.5-3.8c6.3,0.2,12.7,0.8,18.8-0.8"/>
			<path class="st2" d="M198.3,140.2c11.1,2.2,22.1,4.4,33.2,6.6c4.8,1,9.8,1.9,14.7,1.4"/>
			<path class="st2" d="M199.9,140.6c13.1,7.6,26.1,15.1,39.2,22.7"/>
		</g>
	</g>
</g>
</svg>
