<?xml version="1.0" encoding="utf-8"?>
<!-- Generator: Adobe Illustrator 22.0.1, SVG Export Plug-In . SVG Version: 6.00 Build 0)  -->
<svg version="1.1" id="Layer_1" xmlns="http://www.w3.org/2000/svg" xmlns:xlink="http://www.w3.org/1999/xlink" x="0px" y="0px"
	 viewBox="0 0 169.3 101.1" style="enable-background:new 0 0 169.3 101.1;" xml:space="preserve">
<style type="text/css">
	.st0{fill:#FFFFFF;stroke:#000000;stroke-miterlimit:10;}
	.st1{fill:none;stroke:#000000;stroke-linecap:round;stroke-linejoin:round;stroke-miterlimit:10;}
	.st2{fill:#FFFFFF;stroke:#000000;stroke-linecap:round;stroke-linejoin:round;stroke-miterlimit:10;}
</style>
<g>
	<path class="st0" d="M42.7,45c0,0,5.7-23.1,58.7-22.1c53,1,60,26.6,60,26.6s-1.7,20.2-56.7,24.3C55.1,75.6,41.4,55.5,42.7,45z"/>
	<path d="M123.5,24.7L84.4,7.2c0,0-1.2-0.7-1.7,2s-7,15.1-7,15.1S97.1,19.5,123.5,24.7z"/>
	<path d="M86.6,73.7l1.7,16.7c0,0,1.2,2.2,6,0.5c4.9-1.7,29.4-13.7,35.5-20.4C122,72,107.5,74.9,86.6,73.7z"/>
	<path d="M42.1,45c0,0-21.6-21.2-23.3-23.3c-1.7-2-5.2-2.8-5.5,2.2S7.8,58.5,7.8,58.5s-1.3,4.9,5,1.3S42.1,45,42.1,45z"/>
	<path class="st1" d="M122.6,25.1c-1.4,0.3-2.6,1.4-3.3,2.5c-2.2,3.4-4.3,7-6.1,10.7c-0.9,1.9-1.8,3.9-2.4,5.9
		c-1.3,4.9-0.8,10.2,0.9,15s4.4,9.1,7.5,13.2"/>
	<path class="st1" d="M99.9,23.7c-2.8,3.9-5.6,7.8-8.2,11.9c-1.1,1.7-2.2,3.4-2.9,5.3c-0.9,2.5-1,5.1-1.1,7.7
		c-0.1,6,0.2,12.3,3.2,17.4c1.6,2.8,4,5.2,6.3,7.5"/>
	<path class="st1" d="M74.1,25.3c-2,4-3.9,8.1-5.6,12.2c-2.1,5-4.1,10.3-3.8,15.7c0.3,6.8,3.6,12,7.3,17.7"/>
	<path class="st2" d="M147.7,46.9c0.4,1.2,0.5,2.5,0.5,3.8c0,2.9-0.6,6.1-3,7.8c-0.8,0.5-1.7,0.9-2.6,1.2c-0.8,0.3-1.6,0.6-2.4,0.7
		c-2.4,0.4-4.8-0.7-7-1.7c-0.5-0.2-1-0.4-1.3-0.8c-0.6-0.6-0.8-1.6-0.9-2.5c-0.4-2.6-0.7-5.2-0.1-7.7
		C132.9,39.7,145.1,38.8,147.7,46.9z"/>
	<path d="M138,48.3c-0.5,0.2-0.7,0.7-0.9,1.2c-0.5,1.1-0.6,2.5,0.3,3.3c0.9,0.7,2.1,0.6,3.2,0.2c0.2-0.1,0.6-0.4,0.7-0.6
		c0.2-0.2,0.3-0.7,0.3-0.9c0-0.7-0.1-1.3-0.4-1.9C140.7,48.3,138.4,48.1,138,48.3z"/>
	<path class="st1" d="M101.7,34.4c-1.8,1-2.3,3.8-0.9,5.2"/>
	<path class="st1" d="M99.5,48.4c-1.2,1.9-1.2,4.5,0.1,6.4"/>
	<path class="st1" d="M99.3,63.2c0,1,0.2,2.1,0.8,3c0.6,0.9,1.9,1.3,2.7,0.7"/>
	<path class="st1" d="M82,34.9c-1.2,1.7-1.5,4.1-0.7,6"/>
	<path class="st1" d="M78.4,46.6c0,1-0.6,2-0.9,2.9c-0.3,1-0.1,2.3,0.9,2.6"/>
	<path class="st1" d="M80.1,62.4C79,64,79,66.3,80.2,67.8"/>
	<path class="st1" d="M56.7,46.7c-1.9,2.4-1.4,6.3,1,8.2"/>
</g>
</svg>
