<?xml version="1.0" encoding="utf-8"?>
<!-- Generator: Adobe Illustrator 22.0.1, SVG Export Plug-In . SVG Version: 6.00 Build 0)  -->
<svg version="1.1" id="Layer_1" xmlns="http://www.w3.org/2000/svg" xmlns:xlink="http://www.w3.org/1999/xlink" x="0px" y="0px"
	 viewBox="0 0 1000 1000" style="enable-background:new 0 0 1000 1000;" xml:space="preserve">
<style type="text/css">
	.st0{fill:#FFFFFF;stroke:#000000;stroke-width:5;stroke-miterlimit:10;}
	.st1{fill:#FFFFFF;stroke:#000000;stroke-width:6;stroke-miterlimit:10;}
	.st2{fill:none;stroke:#000000;stroke-width:3;stroke-miterlimit:10;}
	.st3{fill:none;stroke:#000000;stroke-width:5;stroke-linecap:round;stroke-linejoin:round;stroke-miterlimit:10;}
</style>
<g>
	<path class="st0" d="M907,622.7c30.8,6.2,20,27.1,20,27.1c37-1.2,31.5,13.9,25.3,31.1c-37.9,102.7-164,264.9-199.8,245.1
		c-53,65.4-121.5,45.6-121.5,45.6c-53.3,35.8-126.4,3.4-126.4,3.4s-93.4,27.8-137.5-7.1C319,979,258.6,950.6,243.8,922.3
		c-106.5-36-199.9-249.1-202.4-267.6s50.6-9.9,34.5-18.5s13.6-16,13.6-16L907,622.7z"/>
	<path class="st1" d="M617.6,585c0,0,260.1,29.2,290.9,35.4c30.8,6.2,20,27.1,20,27.1c37-1.2,31.5,13.9,25.3,31.1
		c0,0-22.8,33-53.7,36.7c-22.2,28.4-87.6,37-112.2,28.4c-24.7,29.6-81.4,27.1-122.1,16c-40.7,40.7-109.8,28.4-156.6,6.2
		c-43.2,34.5-151.7,4.9-175.1-14.8c-30.8,21-123.3,9.9-154.2-17.3c-127-11.1-138.5-81.1-138.5-81.1c-2.5-18.5,50.2-10.7,35-18.2
		c-17.8-10,14.7-16.6,14.7-16.6l278.8-35.8c0,0,31.1-5.6,16.3-13c-14.8-7.4-236.8-62.9-297.3-80.2c-28.4-8.6-27.1-48.1-18.5-69.1
		c-25.9-46.9-13.6-71.5,9.9-95c7.4-69.1,45.6-87.6,69.1-98.7c22.2-64.1,53-78.9,91.3-92.5c8.6-37,67.8-75.2,144.3-69.1
		c62.9-72.8,136.9-54.3,136.9-54.3s39.5,4.9,90,54.3c65.4-11.1,127,34.5,144.3,65.4c17.3,0,87.6,33.3,88.8,86.3
		c44.4,17.3,71.5,65.4,69.1,102.4c28.4,35.8,24.7,64.1,14.8,87.6c-9.9,23.4,7.4,22.2,7.4,49.3c0,27.1-24.7,35.8-117.2,59.2
		c-92.5,23.4-203.5,58-203.5,58S597.7,579.5,617.6,585z"/>
	<path d="M418.1,577.3c-14,3.2-12.2,14.8-38.1,18.5s-273.8,32.1-273.8,32.1s-11.1,3.7-3.7,9.9s-17.3,13.6-17.3,13.6
		c-13-2.8-32.1-4.2-27.9,6.9c3.6,9.5,13.1,20.2,37.8,35s64.4,31.1,94,20c26.8,26.8,121.2,35.2,147.1,20.4
		c40.7,25.9,102.7,41.6,176.7,15.7c54.6,27.8,91.6,28.7,150.8-4.6c59.2,3.7,85.1,17.6,125.8-19.4c47.2,1.9,80.5,1.9,109.2-31.5
		c50-20.4,52.3-29.1,46.3-33.3s-29.1-2.3-29.1-2.3s14.3-19.8-6-23.6c-74.9-13.9-299.5-16.3-310.8-39.8
		c-6.5-13.4-31.9-17.6-31.9-17.6S444.5,571.3,418.1,577.3z"/>
	<path class="st2" d="M574.9,576.4c0,0,111.9-46.4,216.7-66.2c73.5-13.8,129.2-26.3,132-51.3s-5.6-41.6-42-40
		c-69,3.2-130.8,22.8-231.9,84.5c-12.7,7.7-7.2-0.7-5.5-2.4c9.7-9.9,47.5-33,87.9-52.3c13-6.2,69.3-27.3,112.5-36
		c43.2-8.6,78.9-7.4,74-30.8s-4.9-50.6-37-55.5c-29.5-4.5-73.8,9-100.5,22.2c-79.6,39.5-152.3,119-185.6,146.8
		c-6.5,5.4-8.2,1.8-1-6.4c21.9-25,95.9-96,125.5-115c41-26.2,85.7-54.3,117.8-56.7s48.1,0,53.7-4.3c8.4-6.5-7.4-64.1-35.8-71.5
		c-28.4-7.4-50.6-7.4-76.5,3.7C754,256,620.7,321.9,557.5,471.4c-1.8,4.2-4.6,7.4-4.3,1.2c0,0,31.1-105.3,147-192.9
		c78.9-59.2,118.4-58,118.4-58s16,3.1,6.2-19.7c-5.2-12-22.2-43.2-64.1-55.5c-3.3,0.3-10-0.8-14.8,1.9
		C694.5,176.3,582.7,304.6,539,458.5c0,0-3,2.4-1.9-3.1C544.5,420,583.9,276.5,730,139c0,0,12.3-8.6,2.5-17.3S657.2,69.9,614,90.9
		c-14.2,13-14.8,11.1-38.2,72.8c-31.2,82.1-55.5,270.3-61.1,285.5c-3.7-0.3-3.2-2.7-1.7-18.9c3.6-38.3,13.3-114.3,30.6-193.8
		c21.5-98.5,54.9-156.6,54.9-156.6s1.2-13.6-9.3-21c-18.5-15.4-103-74.6-191.8,6.2c-13,16.7,6.8,41.9,6.8,41.9s33.3,56.1,55.5,155.4
		c8.4,37.4,37,198.6,27.1,189.9c-2.3-2-6.6-26.3-8-33.3c-10.5-52.4-23.4-197.2-87.6-311.4c-24.7-28.4-41.3-19.1-48.7-19.1
		c-7.4,0-82,17.9-85.1,49.3c0,0-1.2,6.2,34.5,30.2c24.7,28.4,128.3,115.3,172.7,278.1c0,0-4.6,4.8-7.7-7.2
		c-51.9-141.2-172.5-290-214.1-288.8c-26.8,0.5-78.9,54.3-78.9,69.1s22.2,13.6,22.2,13.6s125.2,38.9,201.5,139.7
		c56.5,70.2,42.7,79.8,42.7,79.8s-109.8-209.7-287.4-206c0,0-48.1,17.3-43.2,66.6c0,0,2.5,11.1,24.7,12.3s88.9,7.6,119.6,25.1
		c70,45.3,66.7,45,129.3,101.3c15,14,5.7,9,5.7,9c-13.7,2-93.7-101.1-191.7-119.5c-58.6-11.8-101.1-4.9-104.8,4.9
		c-3.7,9.9-17.3,41.9,3.7,54.3s86.3,1.2,167.7,35.8s81.3,47.2,81.3,47.2c0.5,1.4-1,3.4-7.7-0.5c-24.8-14.2-83.3-57.8-215.4-65.2
		c0,0-42.5-1.1-38.2,40.7c3.4,33.8,50.6,25.5,143.1,53.2c11.2,3.4,62.5,9.6,136,36.1c78.2,28.1,87.1,53.7,132.9,55
		C533.9,604.2,560.1,612.2,574.9,576.4z"/>
	<path class="st3" d="M180.5,736.4c2.9,38,8.2,75.6,23.1,110.7c7.9,18.5,18.2,35.4,27.6,53.2c3.9,7.5,8.7,14.9,12.6,22.4"/>
	<path class="st3" d="M334.1,753c-0.1,73.9,14.8,144.2,32.6,215.9"/>
	<path class="st3" d="M510.2,769.3c8.4,69.2,2.3,136.4-6.2,206.1"/>
	<path class="st3" d="M666.7,762.1c11,73-0.8,145.4-36.3,210.2"/>
	<path class="st3" d="M788.6,745.9c5,45.9-6.6,93.8-21,137.6c-4.8,14.7-10.9,27.9-15.7,42.6"/>
	<path class="st3" d="M901,717.3c-0.6,34.3-6.8,68.2-23.8,98.1"/>
</g>
</svg>
