<?xml version="1.0" encoding="utf-8"?>
<!-- Generator: Adobe Illustrator 22.0.1, SVG Export Plug-In . SVG Version: 6.00 Build 0)  -->
<svg version="1.1" id="Layer_1" xmlns="http://www.w3.org/2000/svg" xmlns:xlink="http://www.w3.org/1999/xlink" x="0px" y="0px"
	 viewBox="0 0 714 498" style="enable-background:new 0 0 714 498;" xml:space="preserve">
<style type="text/css">
	.st0{stroke:#FFFFFF;stroke-width:3;stroke-linecap:round;stroke-linejoin:round;stroke-miterlimit:10;}
	.st1{fill:none;stroke:#010101;stroke-width:2;stroke-linecap:round;stroke-linejoin:round;stroke-miterlimit:10;}
	.st2{fill:#FFFFFF;}
	.st3{stroke:#000000;stroke-miterlimit:10;}
	.st4{fill:none;stroke:#FFFFFF;stroke-width:2;stroke-linecap:round;stroke-linejoin:round;stroke-miterlimit:10;}
	.st5{fill:#FFFFFF;stroke:#000000;stroke-width:3;stroke-linecap:round;stroke-linejoin:round;stroke-miterlimit:10;}
	.st6{fill:none;stroke:#FFFFFF;stroke-linecap:round;stroke-linejoin:round;stroke-miterlimit:10;}
	.st7{fill:#FFFFFF;stroke:#010101;stroke-linecap:round;stroke-linejoin:round;stroke-miterlimit:10;}
	.st8{fill:none;stroke:#000000;stroke-linecap:round;stroke-linejoin:round;stroke-miterlimit:10;}
</style>
<g>
	<g>
		<g>
			<path class="st0" d="M110.1,243.4c4.1,0.8,4.7,8.2,4.4,12.3c-1.8,29.7-4.5,59.6-1.6,89.2s9.1,55.9,28,79c0.4,0.9-0.2,1.2-0.8,1.2
				c-9.9,0.5-14.6,17.7-8,26.2c7,9,20.7,7.2,29.1,3.5c3.7-1.6,8.8-5,10.8-8.6c1.9-3.4,2.2-6.6,3.3-10.4c6.2-21.4,5.1-50.7,8.5-74.1
				c0.3-2.1,0.9-3.7,2.5-2.5c27.1,37.2,56.2,76.1,98.5,94.2c0,0,54.3,18.3,111.1-68.8s-32.1-135.3-32.1-135.3
				c-20.2-11.9-42.5-23.1-51.4-27c-2.5-1.1-6-3.1-3.3-5.4c28.2-23.3,33.1-55.2,37.3-93.4c0.4-4,0.2-9,2.1-12.5
				c1.8-3.4,3.1-5.5,6.1-7.9c7.6-6.3,12-17.2,10.4-26.9c-1.7-9.7-7.9-15.1-17.7-15.6c-13-0.6-20.5,8.3-28.1,18.8
				c-17.9,24.9-33.1,61.2-53.6,78.1c-0.7,0.6-2.5,2.6-3.2,1.7c2.9-13-3.5-29.3-3.5-29.3c-11-26-32.5-44.2-36.2-48.4
				c-2-20.5-6.2-39.4-15.6-52.6c-9.4-13.1-17.6-11.8-25-3.4c-7.3,8.3-9.7,25.1-12.1,45.4c-26.9-0.7-55.9,10.4-55.9,10.4
				C103.9,58,86.7,40.5,77.8,41.4C64.3,43,63.6,52.6,62.7,74.9c-0.5,14.5,6.2,38.6,6.2,38.6s-16.1,31.1-16.4,52.8
				c-0.5,39.3,21.2,60.4,31.4,66.2C84,232.5,102.2,241.8,110.1,243.4z"/>
			<g>
				<path class="st1" d="M14.8,166.8c1.2,0.1,21.3,1.7,27.1,6.3"/>
				<path class="st1" d="M15.6,197.4c23.9-2.5,23.9-2.5,29.3-3.5"/>
				<path class="st1" d="M295.2,134.8c0,0-18.9,11-25.3,10.4"/>
				<path class="st1" d="M281.5,107.8c0,0-16,13.6-20.3,22.6"/>
			</g>
			<g>
				<path class="st2" d="M171.9,139.2c0,0,2,1.4,5.2-0.5s22-11.5,29.7-12.5s17.7-5.1,13-7.7s-22.3-3.7-35.9,6.1
					C178.9,128.1,170.8,135.3,171.9,139.2z"/>
				
					<ellipse transform="matrix(0.9843 -0.1763 0.1763 0.9843 -20.0278 35.38)" class="st3" cx="189.1" cy="130.4" rx="0.9" ry="2.5"/>
				<path class="st2" d="M147.2,143.6c0,0-4.3,0.8-7.9,0c-3.6-0.8-24.5-4-32.1-2.6s-18.4,0.7-14.7-3.2s20.3-11.5,36-5.6
					C144.2,138.3,147.1,139.5,147.2,143.6z"/>
				
					<ellipse transform="matrix(0.9898 -0.1424 0.1424 0.9898 -18.6013 19.2785)" class="st3" cx="125.4" cy="139.6" rx="0.9" ry="2.5"/>
				<g>
					<path class="st4" d="M169.9,161.2c0,0-5.8,8.6-13.7,2"/>
					<path class="st4" d="M162.9,166.1c0,0,3.6,4.9,1.3,12.7c0,0-2.1,5.4-4.5,5.4"/>
					<path class="st4" d="M164.5,179.1c0,0,2.3,3.2,6.7,3.5"/>
				</g>
			</g>
			<path class="st5" d="M246.5,425.8c44.9,37.6,90.7,45.1,116.3,46.5c29.2,1.6,51.8,1.6,80.9-0.5c36.2-2.6,77.3-16.4,105.2-40.6
				c1.6-1.4,2.2-3.4,4.8-1.3c15.4,17,26.7,30.4,48.8,36.5c11.8,3.2,29.3,5.5,41.5,4.9c16.1-0.8,32.5,2,48.6,0.6
				c1.1-0.1,4-0.4,3.6-2.6c-14.9-37.6-48.5-67.2-87.7-77.2c35.8-18.5,38.1-60.2,30.3-104.4c-1.1-6.3-7.1-15-11.7-10.6
				c-5.9,5.5-12.3,11.4-15.5,15.4c-16.3,20-27.9,35.4-44.2,55.4c-6.6,8.1-15.2,19.4-25.7,19.2c-8-0.1-19.8-10.3-24.5-16.7
				c-26.6-36-41.3-51.7-69.8-68c-36.9-21-37.3-16.1-67.1-18.3c0,0,5.9,12.1-11.1,51C332.8,398.6,246.5,425.8,246.5,425.8z"/>
			<g>
				<path class="st6" d="M157.3,315.4c12.8,24.7,21.2,35.1,30,44.3"/>
			</g>
			<path class="st6" d="M151.1,326.7c4.7,8.9,13.4,15.6,23.2,17.8"/>
			<g>
				<path class="st2" d="M204.3,34.9c-0.9-2-11.1-13.3-18,2c-3,6.8-9.6,26.6-9.2,30.3c0.4,3.6,0.2,7.5,13.1,8.6
					c15.1,1.3,30.9,2.9,18.8-29.7C207.8,42.8,206.1,37.1,204.3,34.9z"/>
				<path class="st7" d="M184.4,61.8c-3.7,3-7.4,7.3-7.1,11.4"/>
				<path class="st2" d="M94.4,61.9c0,0-4.5-4.9-9.2-7.2c-6.2-3.1-14.6-5.4-16.9,9.9c-1.1,7.8,3.1,27.3,4.4,31.1
					c1.2,3.7,4.2,13.1,16.3,2.9C106.3,84,117.5,86.3,94.4,61.9z"/>
				<path class="st7" d="M108,85.5c-4.2-8-10.1-10-10.4-10.1"/>
			</g>
			<path class="st6" d="M109.8,243.3c14.9,2.3,32.1,0.7,46.2-4.8"/>
			<path class="st6" d="M241.5,203.6c13-10.7,20.9-34.9,21.7-51.2"/>
			<g>
				<path class="st8" d="M412.1,266.1c0.8,6.1,1.3,11.5-1.9,16.8c-1.8,2.9-4.7,5.1-7.6,6.9c-4.1,2.6-8.5,4.8-13.1,6.6"/>
				<path class="st8" d="M403.6,289.7c3.1,10.2,6.2,21.5,1.9,31.2c-4.3,9.9-15,15.5-25.5,17.9"/>
				<path class="st8" d="M429.7,274c2.5,9,4.2,18.6,1.3,27.5c-2.9,8.9-13.8,16.5-23.1,15.5"/>
				<path class="st8" d="M456.5,290.6c-3,9.6-14.5,15.4-24,12.2"/>
				<path class="st8" d="M414.6,316.8c1.1,7.2,1.2,16.8-0.7,23.9s-6.1,13.6-12.3,17.5c-7.8,5-17.7,5.2-27,4.7"/>
				<path class="st8" d="M412.4,344.8c5.5,7,15.9,9.2,24.2,5.9s14-11.6,15.1-20.5c1.1-8.8-0.8-20.2-6.7-26.8"/>
				<path class="st8" d="M452.3,329.5c5.9-0.4,11.1-4.5,14.2-9.5s4.5-14.4,5.6-20.2"/>
				<path class="st8" d="M370.3,321.2c7.6,5,9.4,15.5,8.6,24.5c-0.5,6.3-2.1,12.7-5.9,17.7c-3.9,5-14.4,9.1-20.5,7.4"/>
				<path class="st8" d="M348,353.7c2.6,5.8,4.2,11.2,3.7,17c-0.7,8-2.3,16.3-8.1,21.9c-5.8,5.6-14.2,8.4-22.1,7.3"/>
				<path class="st8" d="M318.8,385.7c3.3,9.9,1.4,21.4-4.9,29.7c-6.3,8.3-16.8,13.3-27.2,12.9"/>
				<path class="st8" d="M308.7,421.5c7.1,11.5,7.3,22.2-10.3,36.2"/>
				<path class="st8" d="M314.3,433.9c8.9,2.9,19.2,1.2,26.7-4.5s12-15.1,11.7-24.5c0-1.1-3.3-12.8-5.9-14.2"/>
				<path class="st8" d="M352.6,404.6c8.9-1.1,17.3-5.6,23-12.4s9.3-20.5,8.8-29.4"/>
				<path class="st8" d="M377.9,390.3c10.6,2.8,19.1,4.9,29.4,0.8c12.1-4.8,17.2-27.4,13.2-39.8"/>
				<path class="st8" d="M417.7,382.8c10.7,1.6,21.9-0.8,31.1-6.5c2.4-1.5,4.7-3.2,6.4-5.4c6.4-7.8,9.7-18.2,1.5-41.2"/>
				<path class="st8" d="M486.3,312.2c5.5,7.8,2,17.1-1,26.8s-14.2,18-24,20.6"/>
				<path class="st8" d="M478.5,350.2c4.8,0.7,13.1-1.1,17-4.1c4-3.2,6-7.8,7.1-13.5"/>
				<path class="st8" d="M485.8,350.9c2.3,10.3,4.7,25.5-0.6,34.6c-6.2,10.5-14.9,14.4-26.9,16.7"/>
				<path class="st8" d="M488.2,382.1c7.5-0.3,14.8-4.2,19.2-10.4s7.3-19.8,5-27"/>
				<path class="st8" d="M510.3,366.9c1.6,2.1,5,15,5,17.6c0,9.5-4.3,22.3-11.2,28.9s-19.4,10.3-28.9,9.9"/>
				<path class="st8" d="M416.8,422.1c10.9,2.5,23.2,2.6,31.9-4.5c4.9-4,6.6-8.6,8.7-14.5c2-6,2.2-21.6-2.9-29"/>
				<path class="st8" d="M371.3,429.9c13.8-0.3,36.2-0.8,46.9-9.6c8.6-7,10.2-26.9,5.5-36.9"/>
				<path class="st8" d="M337.8,433.6c8.2,2.3,25.5,2.7,32.1-2.6c4.9-3.9,7.8-7.1,9.1-13.2c0.5-2.6,1.1-9.5,0.7-12.1
					s-2.3-10.9-4.8-11.7"/>
				<path class="st8" d="M336.2,433.4c9.2,11,1,26.4-8.5,33.7"/>
				<path class="st8" d="M371,431.5c4.6,4.4,8.3,14.2,7.4,20.5c-0.8,6.3-11.1,17.2-16.6,20.3"/>
				<path class="st8" d="M411.6,425.6c4.4,11,3.6,24.6-2.7,33.2c-4.6,6.2-15.1,12.5-22.7,14.2"/>
				<path class="st8" d="M412.5,454c8.2,2.9,18.8-0.4,26.2-5c4.4-2.8,8.6-6.2,11.3-10.7c2.8-4.4,2.1-18,0.8-23"/>
				<path class="st8" d="M450.7,437.7c7.5-1.4,14.2-5.8,19.8-11c8.6-8.2,13.5-23.2,10.3-34.6"/>
				<path class="st8" d="M511.5,405.2c8.7-0.5,13.5-3.9,18.1-7.6c7.3-5.8,10.4-25.9,3-33.2"/>
				<path class="st8" d="M446.9,443.4c4.8,1.2,9.6,3.9,11.6,8.4s0,17.7-4.8,19"/>
				<path class="st8" d="M420.5,455.1c4,0.6,4.4,13.7-2.3,18.3"/>
				<path class="st8" d="M484.2,423.3c11.4,12.6,1.4,34.6-6.6,43.1"/>
				<path class="st8" d="M511.2,406.3c2.5,1.6,3.8,3.6,5.3,5s5.1,9.3,5.5,11.2c2,9-1.1,21.5-6,29.8"/>
				<path class="st8" d="M534.1,392c4,1.1,12.4,8.4,15.2,16.6c1.5,4.6,4.5,16.5,1.1,19.9"/>
				<path class="st8" d="M538.3,380.9c4.5,1.1,15.5,2.7,19.5,5c4,2.4,7.8,4.1,8.5,8.7c1.1,6.2,0.4,13.3-3.7,19.7
					c-2.7,4.2-6.8,12.1-11.5,14"/>
				<path class="st8" d="M541.3,367.2c5.3-0.7,10.5,0,14.2,2.7c2.4,1.8,6.7,6.2,6.9,9.2c0.2,3.7-1.4,6.2-3.2,7.8"/>
				<path class="st8" d="M280.8,408.6c2.8,5.7,3.7,8.9,1.1,15.6c-3.4,9.2-15.8,15.3-17.6,15.1"/>
				<path class="st8" d="M565.1,362.4c16.8-27.7,36.9-53.4,59.7-76.5"/>
				<path class="st8" d="M574.1,365.1c12.4-15.3,24.8-30.7,37.3-46c2.2-2.8,4.5-5.5,6.4-8.5c3-4.5,5.4-9.5,6.1-14.8"/>
				<path class="st8" d="M580.9,368.6c10.4-9.6,20.8-19.4,29-30.9s16.3-19.5,16.7-33.7"/>
				<path class="st8" d="M584.4,376.6c14-5.8,27.7-13.3,37.1-25.2c9.8-12.4,13.4-35.1,12.1-50.7"/>
				<path class="st8" d="M591.7,385.6c14-5.8,26.6-15.1,36.3-26.8"/>
				<path class="st8" d="M576.4,399.1c14.2-7.3,18.5-9.2,34.3-6.7"/>
				<path class="st8" d="M584.5,406.1c19-10.1,42.5-6.5,64.2,8.9"/>
				<path class="st8" d="M582.6,419.3c14.4-4.7,32.3-5.2,48.9-3.1c13.5,1.7,33.8,14.8,43.7,24.1"/>
				<path class="st8" d="M611,433.7c16.1-1.2,32.4-0.4,48.4,2.3c7,1.2,14.2,2.9,19.6,7.4"/>
				<path class="st8" d="M570.6,434.4c34.5,17.3,74.5,23.7,112.7,17.8"/>
			</g>
			<path class="st6" d="M323.2,340.6c1.4,3.2,1.2,6.8,0.1,10.1c-1,3.3-2.9,6.3-4.7,9.2"/>
			<path class="st6" d="M315,348.9c2.4,1.2,4.9,2.4,7.5,2.6c2.7,0.2,5.6-0.9,6.9-3.2"/>
		</g>
		<g>
			<path class="st2" d="M346.4,83.5c1.4,2.1,2.2,4.3,1.9,6.8c-0.5,3.6-4.9,5.6-8.5,4.7c-3.6-0.8-6.3-3.6-8.8-6.3
				c-1.1-1.2-2.2-2.5-2.5-4.1c-0.5-2.8,1.9-5.4,4.6-6.2s5,0.1,7.7,0.9C340.8,79.4,344.6,80.9,346.4,83.5z"/>
			<path class="st2" d="M339.9,68.4c0.6,0.7,1.3,2,1.3,2.9c0,1.9-1.1,3.9-3.8,4.9c-1.1-0.1-2-1.2-2.2-2.3c-0.2-1.1-0.2-1.5-0.1-2.7
				C335.7,67.9,339,67.5,339.9,68.4z"/>
			<path class="st2" d="M358.7,85.5c-0.3,0.9-1.2,2.1-2,2.5c-1.7,0.8-4,0.8-6.1-1.1c-0.4-1.1,0.1-2.3,1-3s1.3-0.9,2.4-1.3
				C357.2,81.4,359.1,84.3,358.7,85.5z"/>
			<g>
				<path class="st2" d="M356.8,84.3"/>
			</g>
			<path class="st2" d="M347.7,72.4c0.9-0.5,4-0.8,4.9-0.3c0.8,0.5,1.8,3,1.6,3.9c-0.2,0.9-1.5,2-2.2,2.6c-1.3,1-2.5,1.3-4.2,1.4
				c-0.8,0.1-2.1,0-2.3-0.7C345.5,79.3,341.6,75.6,347.7,72.4z"/>
		</g>
	</g>
	<path class="st6" d="M136.6,438.1c-3.8,2.8-5.6,8-4.5,12.5"/>
	<path class="st6" d="M149.7,440.8c-1.4,5.6-1.8,11.4-1.1,17.1"/>
</g>
</svg>
