<?xml version="1.0" encoding="utf-8"?>
<!-- Generator: Adobe Illustrator 22.0.1, SVG Export Plug-In . SVG Version: 6.00 Build 0)  -->
<svg version="1.1" id="Layer_1" xmlns="http://www.w3.org/2000/svg" xmlns:xlink="http://www.w3.org/1999/xlink" x="0px" y="0px"
	 viewBox="0 0 296.6 440.9" style="enable-background:new 0 0 296.6 440.9;" xml:space="preserve">
<style type="text/css">
	.st0{stroke:#FFFFFF;stroke-miterlimit:10;}
	.st1{fill:#FFFFFF;stroke:#000000;stroke-miterlimit:10;}
	.st2{fill:none;stroke:#000000;stroke-linecap:round;stroke-linejoin:round;stroke-miterlimit:10;}
	.st3{fill:none;stroke:#010101;stroke-width:2;stroke-linecap:round;stroke-linejoin:round;stroke-miterlimit:10;}
	.st4{fill:#010101;}
	.st5{fill:#FFFFFF;stroke:#010101;stroke-miterlimit:10;}
	.st6{fill:#FFFFFF;}
	.st7{stroke:#000000;stroke-miterlimit:10;}
	.st8{fill:none;stroke:#FFFFFF;stroke-width:2;stroke-linecap:round;stroke-linejoin:round;stroke-miterlimit:10;}
	.st9{fill:#FFFFFF;stroke:#010101;stroke-width:2;stroke-linecap:round;stroke-linejoin:round;stroke-miterlimit:10;}
	.st10{fill:none;stroke:#FFFFFF;stroke-linecap:round;stroke-linejoin:round;stroke-miterlimit:10;}
</style>
<g>
	<g>
		<path class="st0" d="M161.5,115.9c-9.3,10-25,36.4-28.2,38.5c-2.8-4.5-10.3-4.6-13-2.5c-2.2,1.7-5.8,6-5.3,14.2
			c0.3,5.5,6,10,10.9,12.6c5.7,3,22.9,2.6,28.6-0.4c2.6-1.3,5.2-2.1,6-2.5c0.7,2.6,0.8,4.6,1.5,7.5c1.9,9.8,3.1,15.9,4.9,25.7
			c0.4,2.3-7.1,12-4.5,13.3c44.3,23.1,115-6.2,118-15.2c3-9-8.6-36-8.6-36c-7.5-17.4-17.6-33.5-28.3-49.1
			c-3.8-5.6-5.7-9.1-14.7-19.7C228.9,102.3,169.5,101.6,161.5,115.9z"/>
		<g>
			<path class="st1" d="M279.5,197.1c6.2,31.8-2.8,55.1-9,68c-7,14.6-13.1,25.6-21.9,39.1c-10.9,16.9-28.6,33.2-47.8,40.2
				c-1.1,0.4-2.3,0.2-1.9,2c4.1,12,7.6,21.1,4.6,33.5c-1.6,6.6-5.2,15.7-8.7,21.5c-4.7,7.6-7.7,16.3-12.7,23.7
				c-0.3,0.5-1.3,1.8-2.2,1c-14.3-17.3-19.7-41.5-14.1-63.2c-18.6,12.4-39.4,2.4-58.8-13.2c-2.8-2.2-5.4-7.4-2-8.5
				c4.3-1.4,8.8-2.9,11.6-3.4c14.1-2.6,24.6-4.1,38.7-6.6c5.7-1,13.5-2.2,16.2-7.3c2.1-3.9,0.3-12.3-1.6-16.4
				c-10.4-22.5-14.1-33.9-14.3-52c-0.3-23.6,0.8-21.4,7.6-36.4c0,0,5.7,5,29.1,7.2C242.8,230.9,279.5,197.1,279.5,197.1z"/>
			<g>
				<path class="st2" d="M157.3,233.9c2.7,2,5.3,3.7,8.7,3.5c1.9-0.1,3.7-0.9,5.4-1.8c2.4-1.3,4.6-2.8,6.7-4.6"/>
				<path class="st2" d="M171,236.1c4.1,4.2,8.8,8.7,14.7,9.3c5.9,0.6,11.5-3.1,15.5-7.6"/>
				<path class="st2" d="M156.4,244.6c3.7,3.6,7.9,7,13,8c5.1,1,11.7-2.3,13.7-7.1"/>
				<path class="st2" d="M157.3,262c5.4,1.1,11.4-2.9,12.3-8.4"/>
				<path class="st2" d="M181.2,248.7c3.2,2.5,7.8,5.1,11.8,6c3.9,0.9,8.2,0.7,11.8-1.3c4.5-2.5,7.3-7.2,9.5-11.9"/>
				<path class="st2" d="M195.4,255.1c1.9,4.5,0.2,10.2-3.6,13.3c-3.8,3.1-9.4,3.7-14,1.9c-4.6-1.8-9.6-5.8-11.2-10.4"/>
				<path class="st2" d="M177.4,270.4c-1.8,2.8-5.1,4.2-8.4,4.3c-3.3,0.2-8.2-1.7-11.3-2.7"/>
				<path class="st2" d="M195.2,228.4c0.4,5,5,8.7,9.6,10.7c3.2,1.4,6.7,2.4,10.2,1.8c3.5-0.5,8.3-4.6,9.1-7.9"/>
				<path class="st2" d="M216.9,226.2c2.1,2.8,4.3,5.1,7.3,6.3c4.1,1.8,8.5,3.2,12.8,1.9c4.3-1.3,7.8-4.6,9.5-8.8"/>
				<path class="st2" d="M240.3,220.6c3.9,4.2,10,6.4,15.7,5.6c5.7-0.8,11-4.6,13.5-9.8"/>
				<path class="st2" d="M260.3,225.3c3.7,6.5,8.8,9.5,20.3,4.7"/>
				<path class="st2" d="M264.9,231.3c-1,5.1-4.6,9.7-9.3,11.8c-4.7,2.1-10.5,1.8-15-0.9c-0.5-0.3-5.3-5-5.3-6.7"/>
				<path class="st2" d="M240.5,242.1c-2.9,4-7.3,6.9-12.2,7.8c-4.8,1-12.4-1-16.6-3.6"/>
				<path class="st2" d="M226.7,250.5c-1.5,5.9-2.7,10.6-7.4,14.5c-5.6,4.6-17.9,1-22.8-4.2"/>
				<path class="st2" d="M212.5,267.9c-2.1,5.6-6.2,10.4-11.5,13.4c-1.4,0.8-2.8,1.4-4.3,1.7c-5.5,1-11.5-0.1-20.4-10.3"/>
				<path class="st2" d="M159.8,282.3c2.3,4.8,7.8,5.5,13.3,6.7c5.5,1.2,12.5-2.1,16.4-6.1"/>
				<path class="st2" d="M180.4,288.7c-0.9,2.5-4.1,6.1-6.5,7.1c-2.6,1.1-5.4,0.8-8.5-0.2"/>
				<path class="st2" d="M178.8,292.4c4.4,3.9,11.1,9.1,17,9c6.8-0.2,11-3.4,15.3-8.6"/>
				<path class="st2" d="M193.3,301.9c-2.1,3.6-6,6.1-10.2,6.5c-4.1,0.5-11.6-1.8-14.4-4.8"/>
				<path class="st2" d="M180,308.6c0.6,1.4,5.9,6.4,7.2,7.2c4.6,2.6,12,3.8,17,2.3s10.2-6.6,12.5-11.4"/>
				<path class="st2" d="M231.8,277.9c-1.7,6-4.9,11.9-10.7,14.3c-3.2,1.3-5.9,0.9-9.4,0.3c-3.4-0.6-11.1-4.7-13.3-9.2"/>
				<path class="st2" d="M247.7,257.9c-3.8,6.6-10.1,17.4-17.2,20.2c-5.7,2.3-15.8-2.2-19.4-7.2"/>
				<path class="st2" d="M258.5,242.6c-1.1,4.6-5.5,13.1-9.9,14.9c-3.2,1.3-5.5,1.9-8.8,0.9c-1.4-0.4-4.9-2-6.1-2.9
					c-1.2-0.9-4.7-4-4.4-5.5"/>
				<path class="st2" d="M258.8,241.8c2.9,7.4,12.5,7.5,18.6,4.9"/>
				<path class="st2" d="M248.6,258.2c0.9,3.4,4.7,7.8,8,9.1c3.3,1.3,11.3-0.8,14.3-2.6"/>
				<path class="st2" d="M234.9,276.3c4.2,5.1,11,8.3,16.8,7.5c4.2-0.6,10.1-4,13-7.2"/>
				<path class="st2" d="M248.4,284.4c-0.8,4.7-5.2,9-9.4,11.4c-2.5,1.4-5.3,2.5-8.2,2.6c-2.9,0.2-9.3-3.8-11.4-5.8"/>
				<path class="st2" d="M230.3,298.6c-2.7,3.3-6.6,5.4-10.6,6.6c-6.3,2-14.9,0.4-19.5-4.2"/>
				<path class="st2" d="M198.3,319.4c-2.5,4.1-5.5,5.5-8.5,6.8c-4.8,2-15.4-1.9-16.9-7.4"/>
				<path class="st2" d="M234.1,298.2c-0.7,2.6-0.7,5.7,1,7.9s8.6,4.7,10.5,2.7"/>
				<path class="st2" d="M246.8,288.6c-0.8,2.1,5.5,5.8,9.5,3.8"/>
				<path class="st2" d="M214.3,311c3.1,8.9,16.4,9.9,22.7,8.3"/>
				<path class="st2" d="M198.9,319.6c0.1,1.7,0.7,2.8,1,3.9c0.3,1.1,3.1,4.9,4,5.7c3.8,3.4,10.8,5.2,16.1,5.1"/>
				<path class="st2" d="M185.8,326.8c-0.5,2.3,0.7,8.3,4,11.8c1.8,2,6.8,6.6,9.4,5.9"/>
				<path class="st2" d="M179.3,325.9c-0.7,2.5-2.8,8.2-2.8,10.8c0.1,2.6-0.1,4.9,1.9,6.5c2.7,2.2,6.3,3.7,10.6,3.4
					c2.8-0.2,7.7-0.1,9.8-1.8"/>
				<path class="st2" d="M171.8,323.7c-1.7,2.4-2.8,5.1-2.5,7.6c0.2,1.7,1.2,4.9,2.6,5.8c1.7,1.1,3.4,1,4.6,0.5"/>
				<path class="st2" d="M261.6,209.9c2,2.9,3.3,2.5,7.2,3.1c5.4,0.8,11.6-3.6,12.1-4.5"/>
				<path class="st2" d="M163.2,334c-18,0.8-35.8,3.7-53.1,8.6"/>
				<path class="st2" d="M162.1,339c-10.8,1.9-21.5,3.9-32.3,5.8c-1.9,0.3-3.9,0.7-5.8,0.9c-3,0.3-6.1,0.1-8.8-1"/>
				<path class="st2" d="M162,343.3c-7.5,2.4-15,4.9-22.7,5.8s-13.8,2.7-20.8-0.9"/>
				<path class="st2" d="M164.9,347.1c-6.5,5.2-13.9,9.9-22.1,11.3c-8.6,1.4-20.6-2.9-27.9-7.7"/>
				<path class="st2" d="M167.3,353.1c-6.6,5.3-14.4,8.9-22.7,10.4"/>
				<path class="st2" d="M177.9,349.3c-7.3,4.9-9.4,6.5-12.4,14.8"/>
				<path class="st2" d="M179.2,355c-10,6.5-14.5,18.9-12.8,33.5"/>
				<path class="st2" d="M186.1,357.7c-6.1,5.7-11.1,14.3-14.6,22.9c-2.8,7-1.8,20.4,0,27.7"/>
				<path class="st2" d="M185.5,375.3c-4.9,7.5-8.9,15.6-11.8,24.1c-1.3,3.7-2.4,7.6-1.6,11.5"/>
				<path class="st2" d="M196.6,355.9c-0.8,21.4-8.4,42.5-21.4,59.5"/>
			</g>
		</g>
		<g>
			<path class="st3" d="M253,64.6c-0.6,0.1-10,2.3-12.4,4.6"/>
			<path class="st3" d="M255.3,77c-11.6,0.8-11.7,0.8-14.3,0.8"/>
			<path class="st4" d="M144.9,106.1c-8.4-7.4-12.3-23.1-10.2-33.5c2.7-13.4,11.1-24.1,12.5-26.4c-1-9.9-0.9-19.3,2.3-26.4
				c3.2-7.1,7.2-7.3,11.5-4c4.3,3.2,7,11,10.1,20.3c12.7-2.9,27.5-0.5,27.5-0.5c2.6-12,9-22,13.3-22.4c6.5-0.6,7.8,3.9,10.4,14.3
				c1.7,6.8,0.8,18.9,0.8,18.9s10.6,13.2,12.9,23.4c4,18.5-4.2,30.6-8.5,34.4c-12.3,10.7-21.2,12.7-43.2,12.6
				C160.5,116.7,151.9,112.3,144.9,106.1z"/>
			<path class="st3" d="M115.8,72.6c0,0,10,3,13.1,2.3"/>
			<path class="st3" d="M120,60.7c0,0,8.9,4.3,11.7,7.6"/>
			<path class="st5" d="M151.4,20.6c0.3-1.2,4.8-8.3,9.9-0.6c2.3,3.4,7.7,13.5,7.8,15.5c0.1,2,0.6,4.1-6.3,5.9
				c-8.1,2.1-16.5,4.5-13-14.3C150.3,25.2,150.6,22,151.4,20.6z"/>
			<path class="st5" d="M204.4,24c0,0,1.8-3,3.9-4.7c2.8-2.2,6.8-4.4,9.6,3.2c1.4,3.8,1.4,14.2,1.2,16.2c-0.2,2,0,5.5-8,3.3
				C201.6,39.4,195.9,40.7,204.4,24z"/>
			<g>
				<path class="st6" d="M177.9,64.6c0,0-0.9,0.8-2.5,0.1c-1.6-0.7-11.2-4-15-3.9c-3.7,0-8.7-1.2-6.7-2.8s10.3-3.3,17.5,0.5
					C173.9,59.8,178.2,62.7,177.9,64.6z"/>
				
					<ellipse transform="matrix(3.597587e-02 -0.9994 0.9994 3.597587e-02 101.5347 228.4767)" class="st7" cx="169.2" cy="61.6" rx="1.2" ry="0.4"/>
				<path class="st6" d="M190,65c0,0,2.1,0.1,3.7-0.5c1.7-0.6,11.4-3.5,15.1-3.4c3.7,0.2,8.8-0.9,6.8-2.5c-2-1.6-10.4-4.1-17.5-0.2
					S189.8,63.1,190,65z"/>
				
					<ellipse transform="matrix(1.703138e-03 -1 1 1.703138e-03 138.0846 261.6415)" class="st7" cx="200.1" cy="61.7" rx="1.2" ry="0.4"/>
				<g>
					<path class="st8" d="M180.4,74.9c0,0,3.3,3.7,6.7,0"/>
					<path class="st8" d="M184,76.8c0,0-1.4,2.6,0.2,6.1c0,0,1.4,2.4,2.5,2.3"/>
					<path class="st8" d="M184.2,83.1c0,0-0.9,1.7-2.9,2.1"/>
				</g>
			</g>
			<path class="st9" d="M164.5,32.1c2.4,1.3,4.9,3.4,5.2,5.8"/>
			<path class="st9" d="M199.8,37.4c1.6-4.8,4.6-6.4,4.8-6.5"/>
		</g>
		<g>
			<path class="st10" d="M211.8,211.8c0.6,1.8,2.1,3.2,3.7,4.1s3.5,1.4,5.3,1.9"/>
			<path class="st10" d="M218.1,212.1c-0.5,1.4-1.1,2.8-2.1,3.8s-2.6,1.7-3.9,1.2"/>
		</g>
		<g>
			<path class="st1" d="M101.9,141.8l69.5,23.1c1.2,0.4,0.4,1.6,0,2.7l0,0c-0.4,1.2,0.2,1.8-1,1.4l-69.9-23
				c-1.2-0.4-1.8-1.7-1.4-2.9l0,0C99.5,142,100.7,141.4,101.9,141.8z"/>
			<path class="st1" d="M198.3,174.4l31.4,10.6c1.2,0.4,1.8,1.7,1.4,2.9v0c-0.4,1.2-1.7,1.8-2.9,1.4l-30.9-10.5
				c-1.8-0.8-4.5-1.5-6.1-2.4l3.3-0.9C196.1,175.1,197.1,174,198.3,174.4z"/>
		</g>
		<g>
			<path class="st10" d="M229.6,102.7c0,0-10.8,11.3-23.3,15.8"/>
			<path class="st10" d="M172.4,118.9c0,0-4.8,0.3-9.7-3.4"/>
			<path class="st10" d="M162.8,134.1c0,0-4.6,33.5-1.1,48"/>
			<path class="st10" d="M229.2,160c8.7,0.4,10.6,2.1,10.6,2.1"/>
			<path class="st10" d="M175.9,164.9c0,0-4,0.3-4.8,3.5"/>
			<path class="st10" d="M182.8,170.1c0,0-8,1.5-7.5,7"/>
			<path class="st10" d="M136.3,175.1c0,0,5.2-15-2.8-20.4"/>
			<path class="st10" d="M141.8,176.1c0,0,0.7-5.5-3.8-9"/>
			<path class="st10" d="M136.4,158.7c0,0-7.1-2.1-7.6,6.4"/>
			<path class="st10" d="M130,155.2c0,0-4.7-2.9-8.2,4.9"/>
			<path class="st10" d="M221.3,116.6c0,0-12.5,3.5-20.5,16.5s-15,20-15,20s-14,3-14.5,14.5c0,0-3,8,4,9.5c0,0,6.5,3.5,14.5,0.5
				s25.5-8,25.5-8s14.5-9,22-18"/>
		</g>
	</g>
	<g>
		<path class="st1" d="M96.1,103.4c0,0-8.9-34.5-34.4-33.7c-25.5,0.8-36.9,24.6-43.9,46.8c-9.6,30.8,0.6,59.2,17.6,65.1
			s26.2-1.6,41-10.3c9.5,12.2,19.8-10,19.8-10s15.2-38.5,12.2-53.5C105.3,93.1,96.1,103.4,96.1,103.4z"/>
		<path class="st2" d="M96.1,103.7l6.2,29.3c0,0,1.8,7.7-4.7,17c-6.5,9.3-21.1,21.3-21.1,21.3"/>
		<g>
			<path class="st2" d="M72.9,95.9c9.3,15.9,18.7,31.7,28,47.6c-11.3-13.2-24.3-25.2-37.7-36.3"/>
			<path class="st2" d="M100,143.3c-19.1-13.3-36.9-25-56.3-38"/>
			<path class="st2" d="M99,143.6c-14.1-4.9-47.9-15.1-62.1-20"/>
			<path class="st2" d="M97.1,143.7c-9.7-1.6-27.7-4.1-37.5-3.8c-6.3,0.2-12.7,0.8-18.8-0.8"/>
			<path class="st2" d="M99.6,144.2c-11.1,2.2-22.1,4.4-33.2,6.6c-4.8,1-9.8,1.9-14.7,1.4"/>
			<path class="st2" d="M98,144.6c-13.1,7.6-26.1,15.1-39.2,22.7"/>
		</g>
	</g>
</g>
</svg>
