<?xml version="1.0" encoding="utf-8"?>
<!-- Generator: Adobe Illustrator 22.0.1, SVG Export Plug-In . SVG Version: 6.00 Build 0)  -->
<svg version="1.1" id="Layer_1" xmlns="http://www.w3.org/2000/svg" xmlns:xlink="http://www.w3.org/1999/xlink" x="0px" y="0px"
	 viewBox="0 0 169.3 101.1" style="enable-background:new 0 0 169.3 101.1;" xml:space="preserve">
<style type="text/css">
	.st0{fill:#FFFFFF;stroke:#000000;stroke-miterlimit:10;}
	.st1{fill:none;stroke:#000000;stroke-linecap:round;stroke-linejoin:round;stroke-miterlimit:10;}
	.st2{fill:#FFFFFF;stroke:#000000;stroke-linecap:round;stroke-linejoin:round;stroke-miterlimit:10;}
</style>
<g>
	<path class="st0" d="M126.4,45c0,0-5.7-23.1-58.7-22.1c-53,1-60,26.6-60,26.6s1.7,20.2,56.7,24.3C114,75.6,127.8,55.5,126.4,45z"/>
	<path d="M45.6,24.7L84.8,7.2c0,0,1.2-0.7,1.7,2c0.5,2.7,7,15.1,7,15.1S72.1,19.5,45.6,24.7z"/>
	<path d="M82.6,73.7l-1.7,16.7c0,0-1.2,2.2-6,0.5c-4.9-1.7-29.4-13.7-35.5-20.4C47.1,72,61.7,74.9,82.6,73.7z"/>
	<path d="M127.1,45c0,0,21.6-21.2,23.3-23.3c1.7-2,5.2-2.8,5.5,2.2s5.5,34.6,5.5,34.6s1.3,4.9-5,1.3S127.1,45,127.1,45z"/>
	<path class="st1" d="M46.6,25.1c1.4,0.3,2.6,1.4,3.3,2.5c2.2,3.4,4.3,7,6.1,10.7c0.9,1.9,1.8,3.9,2.4,5.9c1.3,4.9,0.8,10.2-0.9,15
		s-4.4,9.1-7.5,13.2"/>
	<path class="st1" d="M69.3,23.7c2.8,3.9,5.6,7.8,8.2,11.9c1.1,1.7,2.2,3.4,2.9,5.3c0.9,2.5,1,5.1,1.1,7.7c0.1,6-0.2,12.3-3.2,17.4
		c-1.6,2.8-4,5.2-6.3,7.5"/>
	<path class="st1" d="M95.1,25.3c2,4,3.9,8.1,5.6,12.2c2.1,5,4.1,10.3,3.8,15.7c-0.3,6.8-3.6,12-7.3,17.7"/>
	<path class="st2" d="M21.5,46.9c-0.4,1.2-0.5,2.5-0.5,3.8c0,2.9,0.6,6.1,3,7.8c0.8,0.5,1.7,0.9,2.6,1.2c0.8,0.3,1.6,0.6,2.4,0.7
		c2.4,0.4,4.8-0.7,7-1.7c0.5-0.2,1-0.4,1.3-0.8c0.6-0.6,0.8-1.6,0.9-2.5c0.4-2.6,0.7-5.2,0.1-7.7C36.3,39.7,24.1,38.8,21.5,46.9z"/>
	<path d="M31.2,48.3c0.5,0.2,0.7,0.7,0.9,1.2c0.5,1.1,0.6,2.5-0.3,3.3c-0.9,0.7-2.1,0.6-3.2,0.2c-0.2-0.1-0.6-0.4-0.7-0.6
		c-0.2-0.2-0.3-0.7-0.3-0.9c0-0.7,0.1-1.3,0.4-1.9C28.4,48.3,30.7,48.1,31.2,48.3z"/>
	<path class="st1" d="M67.5,34.4c1.8,1,2.3,3.8,0.9,5.2"/>
	<path class="st1" d="M69.6,48.4c1.2,1.9,1.2,4.5-0.1,6.4"/>
	<path class="st1" d="M69.9,63.2c0,1-0.2,2.1-0.8,3c-0.6,0.9-1.9,1.3-2.7,0.7"/>
	<path class="st1" d="M87.1,34.9c1.2,1.7,1.5,4.1,0.7,6"/>
	<path class="st1" d="M90.8,46.6c0,1,0.6,2,0.9,2.9c0.3,1,0.1,2.3-0.9,2.6"/>
	<path class="st1" d="M89.1,62.4c1.1,1.6,1.1,3.9-0.1,5.5"/>
	<path class="st1" d="M112.5,46.7c1.9,2.4,1.4,6.3-1,8.2"/>
</g>
</svg>
